<svg width="110" height="115" viewBox="0 0 110 115" fill="none" xmlns="http://www.w3.org/2000/svg">
<path d="M20.1989 111H18.7216L22.9943 99.3636H24.4489L28.7216 111H27.2443L23.767 101.205H23.6761L20.1989 111ZM20.7443 106.455H26.6989V107.705H20.7443V106.455ZM31.7415 111L28.5597 99.3636H29.9915L32.4233 108.841H32.5369L35.0142 99.3636H36.6051L39.0824 108.841H39.196L41.6278 99.3636H43.0597L39.8778 111H38.4233L35.8551 101.727H35.7642L33.196 111H31.7415ZM51.179 102.273C51.1108 101.697 50.8343 101.25 50.3494 100.932C49.8646 100.614 49.2699 100.455 48.5653 100.455C48.0502 100.455 47.5994 100.538 47.2131 100.705C46.8305 100.871 46.5313 101.1 46.3153 101.392C46.1032 101.684 45.9972 102.015 45.9972 102.386C45.9972 102.697 46.071 102.964 46.2188 103.188C46.3703 103.407 46.5634 103.591 46.7983 103.739C47.0331 103.883 47.2794 104.002 47.5369 104.097C47.7945 104.187 48.0312 104.261 48.2472 104.318L49.429 104.636C49.732 104.716 50.0691 104.826 50.4403 104.966C50.8153 105.106 51.1733 105.297 51.5142 105.54C51.8589 105.778 52.143 106.085 52.3665 106.46C52.59 106.835 52.7017 107.295 52.7017 107.841C52.7017 108.47 52.5369 109.038 52.2074 109.545C51.8816 110.053 51.4044 110.456 50.7756 110.756C50.1506 111.055 49.3911 111.205 48.4972 111.205C47.6638 111.205 46.9422 111.07 46.3324 110.801C45.7263 110.532 45.2491 110.157 44.9006 109.676C44.5559 109.195 44.3608 108.636 44.3153 108H45.7699C45.8078 108.439 45.9555 108.803 46.2131 109.091C46.4744 109.375 46.804 109.587 47.2017 109.727C47.6032 109.864 48.035 109.932 48.4972 109.932C49.035 109.932 49.518 109.845 49.946 109.67C50.3741 109.492 50.7131 109.246 50.9631 108.932C51.2131 108.614 51.3381 108.242 51.3381 107.818C51.3381 107.432 51.2301 107.117 51.0142 106.875C50.7983 106.633 50.5142 106.436 50.1619 106.284C49.8097 106.133 49.429 106 49.0199 105.886L47.5881 105.477C46.679 105.216 45.9593 104.843 45.429 104.358C44.8987 103.873 44.6335 103.239 44.6335 102.455C44.6335 101.803 44.8097 101.235 45.1619 100.75C45.518 100.261 45.9953 99.8826 46.5938 99.6136C47.196 99.3409 47.8684 99.2045 48.6108 99.2045C49.3608 99.2045 50.0275 99.339 50.6108 99.608C51.1941 99.8731 51.6563 100.237 51.9972 100.699C52.3419 101.161 52.5237 101.686 52.5426 102.273H51.179ZM68.8821 103H67.473C67.3897 102.595 67.2438 102.239 67.0355 101.932C66.831 101.625 66.581 101.367 66.2855 101.159C65.9938 100.947 65.67 100.788 65.3139 100.682C64.9579 100.576 64.5866 100.523 64.2003 100.523C63.4957 100.523 62.8575 100.701 62.2855 101.057C61.7173 101.413 61.2647 101.938 60.9276 102.631C60.5942 103.324 60.4276 104.174 60.4276 105.182C60.4276 106.189 60.5942 107.04 60.9276 107.733C61.2647 108.426 61.7173 108.951 62.2855 109.307C62.8575 109.663 63.4957 109.841 64.2003 109.841C64.5866 109.841 64.9579 109.788 65.3139 109.682C65.67 109.576 65.9938 109.419 66.2855 109.21C66.581 108.998 66.831 108.739 67.0355 108.432C67.2438 108.121 67.3897 107.765 67.473 107.364H68.8821C68.776 107.958 68.5829 108.491 68.3026 108.96C68.0223 109.43 67.6738 109.83 67.2571 110.159C66.8404 110.485 66.3726 110.733 65.8537 110.903C65.3385 111.074 64.7874 111.159 64.2003 111.159C63.2079 111.159 62.3253 110.917 61.5526 110.432C60.7798 109.947 60.1719 109.258 59.7287 108.364C59.2855 107.47 59.0639 106.409 59.0639 105.182C59.0639 103.955 59.2855 102.894 59.7287 102C60.1719 101.106 60.7798 100.417 61.5526 99.9318C62.3253 99.447 63.2079 99.2045 64.2003 99.2045C64.7874 99.2045 65.3385 99.2898 65.8537 99.4602C66.3726 99.6307 66.8404 99.8807 67.2571 100.21C67.6738 100.536 68.0223 100.934 68.3026 101.403C68.5829 101.869 68.776 102.402 68.8821 103ZM74.75 111H71.1591V99.3636H74.9091C76.0379 99.3636 77.0038 99.5966 77.8068 100.062C78.6098 100.525 79.2254 101.189 79.6534 102.057C80.0814 102.92 80.2955 103.955 80.2955 105.159C80.2955 106.371 80.0795 107.415 79.6477 108.29C79.2159 109.161 78.5871 109.831 77.7614 110.301C76.9356 110.767 75.9318 111 74.75 111ZM72.5682 109.75H74.6591C75.6212 109.75 76.4186 109.564 77.0511 109.193C77.6837 108.822 78.1553 108.294 78.4659 107.608C78.7765 106.922 78.9318 106.106 78.9318 105.159C78.9318 104.22 78.7784 103.411 78.4716 102.733C78.1648 102.051 77.7064 101.528 77.0966 101.165C76.4867 100.797 75.7273 100.614 74.8182 100.614H72.5682V109.75ZM82.6591 111V99.3636H84.0682V105.136H84.2045L89.4318 99.3636H91.2727L86.3864 104.614L91.2727 111H89.5682L85.5227 105.591L84.0682 107.227V111H82.6591Z" fill="#F7A80D"/>
<mask id="mask0_381_2227" style="mask-type:luminance" maskUnits="userSpaceOnUse" x="2" y="0" width="106" height="85">
<path d="M107.262 0H2.02344V85H107.262V0Z" fill="white"/>
</mask>
<g mask="url(#mask0_381_2227)">
<path d="M32.7275 54.1846L23.0864 58.4338L32.0153 62.3517L42.3687 58.4338L32.7275 54.1846ZM18.2327 59.4961L17.9096 78.6172L32.0151 84.991V65.1391L18.2327 59.4961ZM47.2222 59.4961L34.475 64.4761V83.1981L47.2222 77.8866V59.4961ZM62.4293 0.0078125L52.7219 4.25707L61.7169 8.17476L72.0703 4.25707L62.4293 0.0078125ZM48.9699 5.65289V24.7742L61.0047 28.3604L61.3939 10.9642L48.9699 5.65289ZM75.8886 6.71509L64.5001 11.6952V30.485L75.8888 25.1737L75.8886 6.71509ZM16.8412 26.92L7.20012 31.169L16.1289 35.0869L26.4822 31.169L16.8412 26.92ZM2.34648 32.2313L2.02344 51.3527L16.1289 57.7264V37.8743L2.34648 32.2313ZM31.3361 32.2313L18.5889 37.2113V55.9331L31.3361 50.6217V32.2313ZM47.9014 26.2145L38.2604 30.4637L47.1892 34.3814L57.5426 30.4637L47.9014 26.2145ZM33.4067 31.526L33.0837 50.6474L47.189 57.0209V37.171L33.4067 31.526ZM62.3961 31.526L49.6491 36.506V55.2278L62.3961 49.9164V31.526ZM92.7668 0.0078125L83.1258 4.25697L92.0546 8.17466L102.408 4.25697L92.7668 0.0078125ZM78.2721 5.31925L77.9491 24.4404L92.0544 30.8142V10.9642L78.2721 5.31925ZM107.262 5.31925L94.5144 10.2993V29.0211L107.262 23.7096V5.31925Z" fill="#F7A80D"/>
</g>
</svg>
