<svg width="500" height="200" viewBox="0 0 500 200" fill="none" xmlns="http://www.w3.org/2000/svg">
<path d="M86.0353 164.31C100.655 161.733 115.273 159.147 129.89 156.551L130.302 156.464L107.744 129.641C95.3376 114.888 85.1868 102.761 85.1868 102.692C85.1868 102.56 108.479 38.4371 108.61 38.2085C108.654 38.133 124.505 65.4907 147.035 104.527C168.128 141.073 185.517 171.205 185.679 171.487L185.973 172L114.283 171.991L42.5934 171.981L86.0353 164.31ZM360.957 157.823C350.044 157.124 343.698 150.912 342.016 139.285C341.568 136.192 341.566 136.111 341.521 116.032L341.477 96.5974H351.136L351.174 115.394C351.208 132.337 351.23 134.324 351.391 135.515C352.049 140.352 353.358 143.605 355.586 145.939C357.37 147.808 359.459 148.902 362.349 149.482C363.713 149.756 367.593 149.756 368.836 149.483C371.766 148.839 374.115 147.564 376.187 145.493C378.549 143.134 380.295 139.785 381.141 136L381.425 134.723L381.457 115.767L381.489 96.81H391.35V156.411H381.591V151.683C381.591 148.471 381.556 146.966 381.481 146.991C381.42 147.011 381.169 147.395 380.923 147.843C379.242 150.909 376.44 153.713 373.37 155.402C369.69 157.426 366 158.146 360.957 157.823ZM471.72 157.776C467.868 157.486 463.811 156.161 460.497 154.111C453.509 149.791 449.375 142.669 448.164 132.867C447.746 129.476 447.695 124.92 448.045 122.038C448.826 115.598 451.357 109.276 454.962 104.763C455.886 103.607 457.982 101.511 459.139 100.588C462.256 98.0975 465.904 96.3565 469.801 95.4998C472.062 95.0058 476.045 94.7735 478.447 94.9964C484.483 95.5556 490.014 98.3959 493.773 102.867C497.593 107.41 499.692 113.758 499.961 121.573C500.002 122.798 500.013 124.945 499.983 126.345L499.929 128.891L478.792 128.917L457.655 128.943V129.887C457.655 132.758 458.352 136.027 459.559 138.809C460.6 141.208 462.391 143.827 463.859 145.095C466.866 147.694 470.546 149.25 474.574 149.624C476.067 149.763 479.875 149.616 481.576 149.355C486.433 148.609 491.049 146.705 494.776 143.911C495.083 143.678 495.394 143.45 495.71 143.228C495.818 143.16 495.845 144.019 495.842 147.63L495.838 152.116L494.839 152.734C490.621 155.341 485.79 157.015 480.676 157.642C479.148 157.829 473.546 157.914 471.72 157.776ZM490.117 119.941C490.117 115.132 488.089 109.79 485.22 107.04C483.174 105.077 480.699 103.877 477.757 103.422C476.365 103.207 473.432 103.29 471.965 103.585C468.863 104.213 466.297 105.576 464.059 107.786C461.704 110.112 459.938 112.939 458.828 116.158C458.428 117.316 457.962 119.216 457.817 120.274L457.747 120.778H490.116L490.117 119.941ZM203.389 156.278C203.413 156.205 210.592 137.355 219.339 114.388L235.245 72.6307H245.466L245.89 73.717C247.186 77.0391 277.733 156.32 277.733 156.362C277.733 156.388 275.286 156.411 272.296 156.41L266.859 156.409L262.456 144.691L258.053 132.973H222.601L222.446 133.371C222.361 133.59 220.481 138.862 218.266 145.087L214.241 156.407L208.791 156.409C204.479 156.41 203.353 156.383 203.389 156.278ZM254.819 124.031C254.819 124.012 251.855 115.983 248.234 106.188C241.459 87.8629 241.081 86.7606 240.545 83.8183C240.295 82.4392 240.167 82.4014 240.018 83.6596C239.912 84.5588 239.451 86.5727 239.094 87.6891C238.917 88.2436 235.867 96.6135 232.315 106.291C228.763 115.967 225.857 123.924 225.857 123.974C225.857 124.024 232.373 124.065 240.337 124.065C248.302 124.065 254.819 124.049 254.819 124.031ZM281.021 154.884V153.359L298.683 129.088L316.344 104.817L300.353 104.763L284.363 104.71L284.335 100.654L284.307 96.5974H330.563V99.3376L312.9 123.741C303.185 137.163 295.237 148.167 295.237 148.195C295.237 148.222 303.09 148.245 312.688 148.245H330.139V156.411H281.021V154.884ZM410.623 156.34C410.584 156.301 410.552 142.843 410.552 126.434V96.5974H420.206V102.749C420.206 106.132 420.247 108.9 420.298 108.9C420.348 108.9 420.582 108.346 420.819 107.669C421.905 104.568 423.786 101.67 426.212 99.366C428.395 97.2917 430.892 96.0505 433.838 95.5754C434.666 95.4432 435.366 95.4167 437.02 95.4602C439.099 95.514 440.186 95.6661 441.45 96.0789L441.847 96.2092V106.226L440.707 105.656C438.693 104.648 436.705 104.248 434.315 104.373C432.76 104.453 431.739 104.654 430.496 105.119C427.972 106.052 425.831 107.8 424.414 110.086C422.314 113.434 420.817 117.736 420.376 121.691C420.297 122.4 420.25 128.18 420.231 139.575L420.203 156.411H415.449C412.833 156.411 410.662 156.379 410.623 156.34ZM0 156.13C0 156.092 10.629 137.648 23.6202 115.141L47.2403 74.2205L74.7666 51.1284C89.9055 38.4277 102.334 28.0194 102.384 28.0005C102.433 27.9816 102.234 28.4823 101.94 29.1132C101.648 29.7451 88.1972 58.5849 72.051 93.2026L42.6935 156.144L21.3468 156.172C9.60662 156.187 0 156.168 0 156.13Z" fill="#0089D6"/>
</svg>
