<?xml version="1.0" encoding="UTF-8" ?>
<!DOCTYPE svg PUBLIC "-//W3C//DTD SVG 1.1//EN" "http://www.w3.org/Graphics/SVG/1.1/DTD/svg11.dtd">
<svg width="1280pt" height="512pt" viewBox="0 0 1280 512" version="1.1" xmlns="http://www.w3.org/2000/svg">
<g id="#4a9ea1ff">
<path fill="#4a9ea1" opacity="1.00" d=" M 255.00 0.00 L 257.07 0.00 C 329.84 42.27 402.75 84.31 475.60 126.42 C 479.04 127.93 477.76 132.07 478.01 135.04 C 477.94 217.05 478.00 299.06 477.98 381.07 C 478.42 383.35 476.93 385.00 475.03 385.96 C 402.40 427.93 329.70 469.79 257.21 512.00 L 254.76 512.00 C 184.62 471.11 114.24 430.64 43.96 389.98 C 40.72 387.96 36.98 386.55 34.29 383.77 C 33.73 380.21 34.09 376.60 34.02 373.02 C 34.00 293.68 34.06 214.33 33.99 134.99 C 34.23 132.03 32.97 127.89 36.42 126.40 C 109.30 84.31 182.18 42.20 255.00 0.00 M 209.80 43.77 C 177.40 62.37 145.11 81.15 112.71 99.75 C 99.72 107.43 86.47 114.70 73.58 122.51 C 72.28 125.93 72.60 130.07 73.43 133.63 C 112.71 156.75 152.44 179.18 191.83 202.15 C 205.93 210.08 219.76 218.51 233.97 226.23 C 238.36 223.62 242.93 221.12 247.99 220.11 C 258.35 217.82 269.35 220.29 278.04 226.29 C 302.86 212.49 327.29 197.95 351.96 183.86 C 379.19 168.10 406.45 152.40 433.72 136.70 C 436.22 135.20 438.91 133.97 441.19 132.12 C 442.04 129.66 441.50 126.95 441.57 124.39 C 434.67 119.82 427.22 116.15 420.17 111.82 C 372.41 84.38 324.84 56.61 276.98 29.36 C 273.28 31.26 269.63 33.35 265.64 34.61 C 260.93 36.27 255.86 35.83 250.96 35.84 C 244.76 35.87 239.05 33.07 233.68 30.27 C 225.44 34.25 217.82 39.38 209.80 43.77 M 49.48 164.45 C 48.39 167.49 48.97 170.82 48.84 173.98 C 48.85 229.65 48.86 285.32 48.83 340.99 C 48.96 343.83 48.41 346.86 49.46 349.57 C 52.03 351.42 54.95 352.72 57.44 354.70 C 63.83 359.57 68.38 366.67 70.50 374.39 C 71.78 378.91 71.36 383.65 71.56 388.28 C 81.67 394.67 92.27 400.25 102.56 406.35 C 142.88 429.77 183.36 452.92 223.70 476.30 C 227.15 478.21 230.41 480.53 234.10 481.94 C 236.84 481.50 239.07 479.67 241.42 478.31 C 241.75 458.20 241.46 438.09 241.56 417.98 C 241.51 375.86 241.66 333.75 241.49 291.64 C 232.32 286.86 223.96 279.34 220.71 269.25 C 218.39 263.57 218.41 257.40 218.56 251.37 C 216.34 249.85 214.04 248.47 211.67 247.20 C 163.34 219.22 114.93 191.38 66.59 163.41 C 64.04 161.98 61.61 160.31 58.90 159.18 C 55.70 160.83 52.64 162.74 49.48 164.45 M 335.07 227.09 C 321.23 235.25 307.13 242.97 293.44 251.37 C 294.40 262.71 291.19 274.79 282.74 282.78 C 279.42 286.68 274.75 288.86 270.66 291.74 C 270.37 293.45 270.43 295.19 270.42 296.92 C 270.58 357.37 270.25 417.82 270.58 478.27 C 273.43 479.76 276.72 483.33 280.03 481.04 C 332.91 450.57 385.76 420.06 438.61 389.56 C 439.52 388.93 440.66 388.28 440.47 386.98 C 440.59 381.98 440.36 376.84 442.21 372.09 C 445.08 361.88 453.18 353.85 462.67 349.51 C 462.85 287.46 462.77 225.41 462.71 163.36 C 460.05 161.82 457.46 160.15 454.97 158.35 C 414.67 180.66 375.10 204.28 335.07 227.09 Z" />
</g>
<g id="#63d3d7ff">
<path fill="#63d3d7" opacity="1.00" d=" M 209.80 43.77 C 217.82 39.38 225.44 34.25 233.68 30.27 C 239.05 33.07 244.76 35.87 250.96 35.84 C 255.86 35.83 260.93 36.27 265.64 34.61 C 269.63 33.35 273.28 31.26 276.98 29.36 C 324.84 56.61 372.41 84.38 420.17 111.82 C 427.22 116.15 434.67 119.82 441.57 124.39 C 441.50 126.95 442.04 129.66 441.19 132.12 C 438.91 133.97 436.22 135.20 433.72 136.70 C 406.45 152.40 379.19 168.10 351.96 183.86 C 327.29 197.95 302.86 212.49 278.04 226.29 C 269.35 220.29 258.35 217.82 247.99 220.11 C 242.93 221.12 238.36 223.62 233.97 226.23 C 219.76 218.51 205.93 210.08 191.83 202.15 C 152.44 179.18 112.71 156.75 73.43 133.63 C 72.60 130.07 72.28 125.93 73.58 122.51 C 86.47 114.70 99.72 107.43 112.71 99.75 C 145.11 81.15 177.40 62.37 209.80 43.77 Z" />
<path fill="#63d3d7" opacity="1.00" d=" M 49.48 164.45 C 52.64 162.74 55.70 160.83 58.90 159.18 C 61.61 160.31 64.04 161.98 66.59 163.41 C 114.93 191.38 163.34 219.22 211.67 247.20 C 214.04 248.47 216.34 249.85 218.56 251.37 C 218.41 257.40 218.39 263.57 220.71 269.25 C 223.96 279.34 232.32 286.86 241.49 291.64 C 241.66 333.75 241.51 375.86 241.56 417.98 C 241.46 438.09 241.75 458.20 241.42 478.31 C 239.07 479.67 236.84 481.50 234.10 481.94 C 230.41 480.53 227.15 478.21 223.70 476.30 C 183.36 452.92 142.88 429.77 102.56 406.35 C 92.27 400.25 81.67 394.67 71.56 388.28 C 71.36 383.65 71.78 378.91 70.50 374.39 C 68.38 366.67 63.83 359.57 57.44 354.70 C 54.95 352.72 52.03 351.42 49.46 349.57 C 48.41 346.86 48.96 343.83 48.83 340.99 C 48.86 285.32 48.85 229.65 48.84 173.98 C 48.97 170.82 48.39 167.49 49.48 164.45 Z" />
<path fill="#63d3d7" opacity="1.00" d=" M 335.07 227.09 C 375.10 204.28 414.67 180.66 454.97 158.35 C 457.46 160.15 460.05 161.82 462.71 163.36 C 462.77 225.41 462.85 287.46 462.67 349.51 C 453.18 353.85 445.08 361.88 442.21 372.09 C 440.36 376.84 440.59 381.98 440.47 386.98 C 440.66 388.28 439.52 388.93 438.61 389.56 C 385.76 420.06 332.91 450.57 280.03 481.04 C 276.72 483.33 273.43 479.76 270.58 478.27 C 270.25 417.82 270.58 357.37 270.42 296.92 C 270.43 295.19 270.37 293.45 270.66 291.74 C 274.75 288.86 279.42 286.68 282.74 282.78 C 291.19 274.79 294.40 262.71 293.44 251.37 C 307.13 242.97 321.23 235.25 335.07 227.09 Z" />
</g>
<g id="#000000ff">
<path fill="#000000" opacity="1.00" d=" M 1090.91 125.58 C 1117.23 121.73 1144.50 123.19 1170.01 130.87 C 1178.69 133.53 1187.12 137.06 1194.88 141.79 C 1191.97 149.79 1189.19 157.84 1186.30 165.84 C 1176.81 160.72 1166.48 157.37 1156.08 154.63 C 1137.66 149.87 1118.35 148.35 1099.46 150.77 C 1088.26 152.31 1076.72 155.47 1068.01 163.03 C 1060.77 169.22 1056.74 178.56 1056.17 187.98 C 1055.10 197.20 1057.21 207.28 1063.81 214.14 C 1071.31 222.06 1081.90 226.04 1092.23 228.78 C 1107.78 232.61 1123.37 236.32 1138.94 240.10 C 1156.30 244.15 1173.94 250.43 1187.09 262.93 C 1196.13 271.27 1201.32 283.04 1203.23 295.05 C 1205.46 309.51 1204.62 324.53 1200.37 338.55 C 1195.98 353.23 1185.92 365.95 1172.84 373.87 C 1154.79 385.16 1132.94 388.18 1112.01 387.74 C 1094.51 387.50 1076.94 385.62 1060.05 380.95 C 1047.82 377.59 1035.73 373.34 1024.80 366.82 C 1027.79 358.62 1030.72 350.39 1033.72 342.20 C 1058.92 354.61 1086.89 361.30 1114.98 361.58 C 1129.07 361.94 1144.08 360.29 1156.01 352.12 C 1165.69 345.62 1171.26 334.43 1172.91 323.09 C 1174.66 311.15 1174.43 297.90 1167.34 287.61 C 1160.61 277.82 1148.94 273.30 1138.01 270.00 C 1118.39 264.76 1098.61 260.11 1078.96 254.97 C 1063.38 250.59 1047.74 243.45 1037.26 230.70 C 1028.30 220.02 1024.60 205.72 1025.27 191.97 C 1025.51 176.47 1030.09 160.40 1040.95 148.96 C 1053.93 135.19 1072.63 128.55 1090.91 125.58 Z" />
<path fill="#000000" opacity="1.00" d=" M 657.69 128.49 C 685.47 128.47 713.25 128.43 741.03 128.51 C 761.55 128.58 782.86 132.30 800.22 143.84 C 811.99 151.45 820.15 163.93 823.53 177.43 C 826.55 189.38 826.20 201.90 824.84 214.05 C 823.00 230.09 816.29 246.09 804.03 256.91 C 793.18 266.52 779.01 271.23 765.04 274.03 C 739.59 279.05 713.52 276.93 687.86 275.09 C 687.87 311.34 687.85 347.59 687.87 383.85 C 677.81 383.86 667.76 383.85 657.71 383.85 C 657.69 298.73 657.72 213.61 657.69 128.49 M 687.86 155.65 C 687.81 187.27 687.96 218.89 687.79 250.50 C 700.17 251.10 712.59 250.65 724.98 251.08 C 742.27 251.25 760.44 250.49 775.99 242.08 C 786.52 236.48 792.20 224.83 794.21 213.51 C 795.29 203.23 796.05 192.54 792.83 182.55 C 790.37 174.80 784.81 168.24 777.82 164.16 C 766.48 157.40 752.95 155.57 739.95 155.62 C 722.59 155.63 705.22 155.58 687.86 155.65 Z" />
<path fill="#000000" opacity="1.00" d=" M 571.73 131.52 C 581.62 131.20 591.53 131.43 601.44 131.40 C 601.39 215.56 601.44 299.71 601.41 383.86 C 591.54 383.84 581.68 383.88 571.81 383.83 C 571.75 299.73 571.92 215.62 571.73 131.52 Z" />
<path fill="#000000" opacity="1.00" d=" M 860.48 131.38 C 907.25 131.37 954.03 131.37 1000.80 131.39 C 1000.42 140.10 999.97 148.80 999.60 157.51 C 963.11 157.49 926.62 157.50 890.13 157.50 C 890.18 187.05 890.09 216.60 890.17 246.15 C 924.94 246.14 959.70 246.16 994.46 246.14 C 994.47 254.50 994.48 262.86 994.45 271.22 C 959.68 271.23 924.91 271.22 890.13 271.22 C 890.15 308.75 890.13 346.27 890.14 383.80 C 880.25 383.92 870.36 383.84 860.47 383.84 C 860.50 299.69 860.49 215.54 860.48 131.38 Z" />
</g>
</svg>
