<svg width="150" height="115" viewBox="0 0 150 115" fill="none" xmlns="http://www.w3.org/2000/svg">
<path d="M1.89347 111V99.3636H3.30256V105.136H3.43892L8.66619 99.3636H10.5071L5.62074 104.614L10.5071 111H8.80256L4.7571 105.591L3.30256 107.227V111H1.89347ZM17.1023 107.432V102.273H18.4432V111H17.1023V109.523H17.0114C16.8068 109.966 16.4886 110.343 16.0568 110.653C15.625 110.96 15.0795 111.114 14.4205 111.114C13.875 111.114 13.3902 110.994 12.9659 110.756C12.5417 110.513 12.2083 110.15 11.9659 109.665C11.7235 109.176 11.6023 108.561 11.6023 107.818V102.273H12.9432V107.727C12.9432 108.364 13.1212 108.871 13.4773 109.25C13.8371 109.629 14.2955 109.818 14.8523 109.818C15.1856 109.818 15.5246 109.733 15.8693 109.562C16.2178 109.392 16.5095 109.131 16.7443 108.778C16.983 108.426 17.1023 107.977 17.1023 107.432ZM21.081 111V99.3636H22.4219V103.659H22.5355C22.634 103.508 22.7704 103.314 22.9446 103.08C23.1226 102.841 23.3764 102.629 23.706 102.443C24.0393 102.254 24.4901 102.159 25.0582 102.159C25.7931 102.159 26.4408 102.343 27.0014 102.71C27.562 103.078 27.9995 103.598 28.3139 104.273C28.6283 104.947 28.7855 105.742 28.7855 106.659C28.7855 107.583 28.6283 108.384 28.3139 109.062C27.9995 109.737 27.5639 110.259 27.0071 110.631C26.4503 110.998 25.8082 111.182 25.081 111.182C24.5204 111.182 24.0715 111.089 23.7344 110.903C23.3973 110.714 23.1378 110.5 22.956 110.261C22.7741 110.019 22.634 109.818 22.5355 109.659H22.3764V111H21.081ZM22.3991 106.636C22.3991 107.295 22.4957 107.877 22.6889 108.381C22.8821 108.881 23.1643 109.273 23.5355 109.557C23.9067 109.837 24.3613 109.977 24.8991 109.977C25.4598 109.977 25.9276 109.83 26.3026 109.534C26.6813 109.235 26.9654 108.833 27.1548 108.33C27.348 107.822 27.4446 107.258 27.4446 106.636C27.4446 106.023 27.3499 105.47 27.1605 104.977C26.9749 104.481 26.6927 104.089 26.3139 103.801C25.9389 103.509 25.4673 103.364 24.8991 103.364C24.3537 103.364 23.8954 103.502 23.5241 103.778C23.1529 104.051 22.8726 104.434 22.6832 104.926C22.4938 105.415 22.3991 105.985 22.3991 106.636ZM34.4957 111.182C33.6548 111.182 32.9295 110.996 32.3196 110.625C31.7135 110.25 31.2457 109.727 30.9162 109.057C30.5904 108.383 30.4276 107.598 30.4276 106.705C30.4276 105.811 30.5904 105.023 30.9162 104.341C31.2457 103.655 31.7041 103.121 32.2912 102.739C32.8821 102.352 33.5715 102.159 34.3594 102.159C34.8139 102.159 35.2628 102.235 35.706 102.386C36.1491 102.538 36.5526 102.784 36.9162 103.125C37.2798 103.462 37.5696 103.909 37.7855 104.466C38.0014 105.023 38.1094 105.708 38.1094 106.523V107.091H31.3821V105.932H36.7457C36.7457 105.439 36.6473 105 36.4503 104.614C36.2571 104.227 35.9806 103.922 35.6207 103.699C35.2647 103.475 34.8442 103.364 34.3594 103.364C33.8253 103.364 33.3632 103.496 32.973 103.761C32.5866 104.023 32.2893 104.364 32.081 104.784C31.8726 105.205 31.7685 105.655 31.7685 106.136V106.909C31.7685 107.568 31.8821 108.127 32.1094 108.585C32.3404 109.04 32.6605 109.386 33.0696 109.625C33.4787 109.86 33.9541 109.977 34.4957 109.977C34.848 109.977 35.1662 109.928 35.4503 109.83C35.7382 109.727 35.9863 109.576 36.1946 109.375C36.4029 109.17 36.5639 108.917 36.6776 108.614L37.973 108.977C37.8366 109.417 37.6075 109.803 37.2855 110.136C36.9635 110.466 36.5658 110.723 36.0923 110.909C35.6188 111.091 35.0866 111.182 34.4957 111.182ZM40.1491 111V102.273H41.4446V103.591H41.5355C41.6946 103.159 41.9825 102.809 42.3991 102.54C42.8158 102.271 43.2855 102.136 43.8082 102.136C43.9067 102.136 44.0298 102.138 44.1776 102.142C44.3253 102.146 44.437 102.152 44.5128 102.159V103.523C44.4673 103.511 44.3632 103.494 44.2003 103.472C44.0412 103.445 43.8726 103.432 43.6946 103.432C43.2704 103.432 42.8916 103.521 42.5582 103.699C42.2287 103.873 41.9673 104.116 41.7741 104.426C41.5848 104.733 41.4901 105.083 41.4901 105.477V111H40.1491ZM47.4432 105.75V111H46.1023V102.273H47.3977V103.636H47.5114C47.7159 103.193 48.0265 102.837 48.4432 102.568C48.8598 102.295 49.3977 102.159 50.0568 102.159C50.6477 102.159 51.1648 102.28 51.608 102.523C52.0511 102.761 52.3958 103.125 52.642 103.614C52.8883 104.098 53.0114 104.712 53.0114 105.455V111H51.6705V105.545C51.6705 104.86 51.4924 104.326 51.1364 103.943C50.7803 103.557 50.2917 103.364 49.6705 103.364C49.2424 103.364 48.8598 103.456 48.5227 103.642C48.1894 103.828 47.9261 104.098 47.733 104.455C47.5398 104.811 47.4432 105.242 47.4432 105.75ZM59.1207 111.182C58.2798 111.182 57.5545 110.996 56.9446 110.625C56.3385 110.25 55.8707 109.727 55.5412 109.057C55.2154 108.383 55.0526 107.598 55.0526 106.705C55.0526 105.811 55.2154 105.023 55.5412 104.341C55.8707 103.655 56.3291 103.121 56.9162 102.739C57.5071 102.352 58.1965 102.159 58.9844 102.159C59.4389 102.159 59.8878 102.235 60.331 102.386C60.7741 102.538 61.1776 102.784 61.5412 103.125C61.9048 103.462 62.1946 103.909 62.4105 104.466C62.6264 105.023 62.7344 105.708 62.7344 106.523V107.091H56.0071V105.932H61.3707C61.3707 105.439 61.2723 105 61.0753 104.614C60.8821 104.227 60.6056 103.922 60.2457 103.699C59.8897 103.475 59.4692 103.364 58.9844 103.364C58.4503 103.364 57.9882 103.496 57.598 103.761C57.2116 104.023 56.9143 104.364 56.706 104.784C56.4976 105.205 56.3935 105.655 56.3935 106.136V106.909C56.3935 107.568 56.5071 108.127 56.7344 108.585C56.9654 109.04 57.2855 109.386 57.6946 109.625C58.1037 109.86 58.5791 109.977 59.1207 109.977C59.473 109.977 59.7912 109.928 60.0753 109.83C60.3632 109.727 60.6113 109.576 60.8196 109.375C61.0279 109.17 61.1889 108.917 61.3026 108.614L62.598 108.977C62.4616 109.417 62.2325 109.803 61.9105 110.136C61.5885 110.466 61.1908 110.723 60.7173 110.909C60.2438 111.091 59.7116 111.182 59.1207 111.182ZM68.5696 102.273V103.409H64.0469V102.273H68.5696ZM65.3651 100.182H66.706V108.5C66.706 108.879 66.7609 109.163 66.8707 109.352C66.9844 109.538 67.1283 109.663 67.3026 109.727C67.4806 109.788 67.6681 109.818 67.8651 109.818C68.0128 109.818 68.134 109.811 68.2287 109.795C68.3234 109.777 68.3991 109.761 68.456 109.75L68.7287 110.955C68.6378 110.989 68.5109 111.023 68.348 111.057C68.1851 111.095 67.9787 111.114 67.7287 111.114C67.3499 111.114 66.9787 111.032 66.6151 110.869C66.2552 110.706 65.956 110.458 65.7173 110.125C65.4825 109.792 65.3651 109.371 65.3651 108.864V100.182ZM74.152 111.182C73.3111 111.182 72.5857 110.996 71.9759 110.625C71.3698 110.25 70.902 109.727 70.5724 109.057C70.2467 108.383 70.0838 107.598 70.0838 106.705C70.0838 105.811 70.2467 105.023 70.5724 104.341C70.902 103.655 71.3603 103.121 71.9474 102.739C72.5384 102.352 73.2277 102.159 74.0156 102.159C74.4702 102.159 74.919 102.235 75.3622 102.386C75.8054 102.538 76.2088 102.784 76.5724 103.125C76.9361 103.462 77.2259 103.909 77.4418 104.466C77.6577 105.023 77.7656 105.708 77.7656 106.523V107.091H71.0384V105.932H76.402C76.402 105.439 76.3035 105 76.1065 104.614C75.9134 104.227 75.6368 103.922 75.277 103.699C74.9209 103.475 74.5005 103.364 74.0156 103.364C73.4815 103.364 73.0194 103.496 72.6293 103.761C72.2429 104.023 71.9455 104.364 71.7372 104.784C71.5289 105.205 71.4247 105.655 71.4247 106.136V106.909C71.4247 107.568 71.5384 108.127 71.7656 108.585C71.9967 109.04 72.3168 109.386 72.7259 109.625C73.1349 109.86 73.6103 109.977 74.152 109.977C74.5043 109.977 74.8224 109.928 75.1065 109.83C75.3944 109.727 75.6425 109.576 75.8509 109.375C76.0592 109.17 76.2202 108.917 76.3338 108.614L77.6293 108.977C77.4929 109.417 77.2637 109.803 76.9418 110.136C76.6198 110.466 76.2221 110.723 75.7486 110.909C75.2751 111.091 74.7429 111.182 74.152 111.182ZM85.9872 104.227L84.7827 104.568C84.7069 104.367 84.5952 104.172 84.4474 103.983C84.3035 103.79 84.1065 103.631 83.8565 103.506C83.6065 103.381 83.2865 103.318 82.8963 103.318C82.3622 103.318 81.9171 103.441 81.5611 103.688C81.2088 103.93 81.0327 104.239 81.0327 104.614C81.0327 104.947 81.1539 105.21 81.3963 105.403C81.6387 105.597 82.0175 105.758 82.5327 105.886L83.8281 106.205C84.6084 106.394 85.1899 106.684 85.5724 107.074C85.955 107.46 86.1463 107.958 86.1463 108.568C86.1463 109.068 86.0024 109.515 85.7145 109.909C85.4304 110.303 85.0327 110.614 84.5213 110.841C84.0099 111.068 83.4152 111.182 82.7372 111.182C81.8471 111.182 81.1103 110.989 80.527 110.602C79.9437 110.216 79.5743 109.652 79.419 108.909L80.6918 108.591C80.813 109.061 81.0421 109.413 81.3793 109.648C81.7202 109.883 82.1652 110 82.7145 110C83.3395 110 83.8357 109.867 84.2031 109.602C84.5743 109.333 84.7599 109.011 84.7599 108.636C84.7599 108.333 84.6539 108.08 84.4418 107.875C84.2296 107.667 83.9039 107.511 83.4645 107.409L82.0099 107.068C81.2107 106.879 80.6236 106.585 80.2486 106.188C79.8774 105.786 79.6918 105.284 79.6918 104.682C79.6918 104.189 79.83 103.754 80.1065 103.375C80.3868 102.996 80.7675 102.699 81.2486 102.483C81.7334 102.267 82.2827 102.159 82.8963 102.159C83.7599 102.159 84.438 102.348 84.9304 102.727C85.4266 103.106 85.7789 103.606 85.9872 104.227ZM90.1648 109.409L90.0739 110.023C90.0095 110.455 89.911 110.917 89.7784 111.409C89.6496 111.902 89.5152 112.366 89.375 112.801C89.2348 113.237 89.1193 113.583 89.0284 113.841H88.0057C88.0549 113.598 88.1193 113.278 88.1989 112.881C88.2784 112.483 88.358 112.038 88.4375 111.545C88.5208 111.057 88.589 110.557 88.642 110.045L88.7102 109.409H90.1648ZM100.922 111H97.331V99.3636H101.081C102.21 99.3636 103.176 99.5966 103.979 100.062C104.782 100.525 105.397 101.189 105.825 102.057C106.253 102.92 106.467 103.955 106.467 105.159C106.467 106.371 106.251 107.415 105.82 108.29C105.388 109.161 104.759 109.831 103.933 110.301C103.107 110.767 102.104 111 100.922 111ZM98.7401 109.75H100.831C101.793 109.75 102.59 109.564 103.223 109.193C103.856 108.822 104.327 108.294 104.638 107.608C104.948 106.922 105.104 106.106 105.104 105.159C105.104 104.22 104.95 103.411 104.643 102.733C104.337 102.051 103.878 101.528 103.268 101.165C102.659 100.797 101.899 100.614 100.99 100.614H98.7401V109.75ZM112.195 111.182C111.407 111.182 110.715 110.994 110.121 110.619C109.53 110.244 109.068 109.72 108.734 109.045C108.405 108.371 108.24 107.583 108.24 106.682C108.24 105.773 108.405 104.979 108.734 104.301C109.068 103.623 109.53 103.097 110.121 102.722C110.715 102.347 111.407 102.159 112.195 102.159C112.982 102.159 113.672 102.347 114.263 102.722C114.857 103.097 115.32 103.623 115.649 104.301C115.982 104.979 116.149 105.773 116.149 106.682C116.149 107.583 115.982 108.371 115.649 109.045C115.32 109.72 114.857 110.244 114.263 110.619C113.672 110.994 112.982 111.182 112.195 111.182ZM112.195 109.977C112.793 109.977 113.286 109.824 113.672 109.517C114.058 109.21 114.344 108.807 114.53 108.307C114.715 107.807 114.808 107.265 114.808 106.682C114.808 106.098 114.715 105.555 114.53 105.051C114.344 104.547 114.058 104.14 113.672 103.83C113.286 103.519 112.793 103.364 112.195 103.364C111.596 103.364 111.104 103.519 110.717 103.83C110.331 104.14 110.045 104.547 109.859 105.051C109.674 105.555 109.581 106.098 109.581 106.682C109.581 107.265 109.674 107.807 109.859 108.307C110.045 108.807 110.331 109.21 110.717 109.517C111.104 109.824 111.596 109.977 112.195 109.977ZM121.741 111.182C120.923 111.182 120.219 110.989 119.628 110.602C119.037 110.216 118.582 109.684 118.264 109.006C117.946 108.328 117.787 107.553 117.787 106.682C117.787 105.795 117.95 105.013 118.276 104.335C118.605 103.653 119.063 103.121 119.651 102.739C120.241 102.352 120.931 102.159 121.719 102.159C122.332 102.159 122.885 102.273 123.378 102.5C123.87 102.727 124.274 103.045 124.588 103.455C124.902 103.864 125.098 104.341 125.173 104.886H123.832C123.73 104.489 123.503 104.136 123.151 103.83C122.802 103.519 122.332 103.364 121.741 103.364C121.219 103.364 120.76 103.5 120.366 103.773C119.976 104.042 119.671 104.422 119.452 104.915C119.236 105.403 119.128 105.977 119.128 106.636C119.128 107.311 119.234 107.898 119.446 108.398C119.662 108.898 119.965 109.286 120.355 109.562C120.749 109.839 121.211 109.977 121.741 109.977C122.09 109.977 122.406 109.917 122.69 109.795C122.974 109.674 123.215 109.5 123.412 109.273C123.609 109.045 123.749 108.773 123.832 108.455H125.173C125.098 108.97 124.91 109.434 124.611 109.847C124.315 110.256 123.923 110.581 123.435 110.824C122.95 111.062 122.385 111.182 121.741 111.182ZM128.384 107.818L128.361 106.159H128.634L132.452 102.273H134.111L130.043 106.386H129.929L128.384 107.818ZM127.134 111V99.3636H128.474V111H127.134ZM132.679 111L129.27 106.682L130.224 105.75L134.384 111H132.679ZM139.136 111.182C138.295 111.182 137.57 110.996 136.96 110.625C136.354 110.25 135.886 109.727 135.557 109.057C135.231 108.383 135.068 107.598 135.068 106.705C135.068 105.811 135.231 105.023 135.557 104.341C135.886 103.655 136.345 103.121 136.932 102.739C137.523 102.352 138.212 102.159 139 102.159C139.455 102.159 139.903 102.235 140.347 102.386C140.79 102.538 141.193 102.784 141.557 103.125C141.92 103.462 142.21 103.909 142.426 104.466C142.642 105.023 142.75 105.708 142.75 106.523V107.091H136.023V105.932H141.386C141.386 105.439 141.288 105 141.091 104.614C140.898 104.227 140.621 103.922 140.261 103.699C139.905 103.475 139.485 103.364 139 103.364C138.466 103.364 138.004 103.496 137.614 103.761C137.227 104.023 136.93 104.364 136.722 104.784C136.513 105.205 136.409 105.655 136.409 106.136V106.909C136.409 107.568 136.523 108.127 136.75 108.585C136.981 109.04 137.301 109.386 137.71 109.625C138.119 109.86 138.595 109.977 139.136 109.977C139.489 109.977 139.807 109.928 140.091 109.83C140.379 109.727 140.627 109.576 140.835 109.375C141.044 109.17 141.205 108.917 141.318 108.614L142.614 108.977C142.477 109.417 142.248 109.803 141.926 110.136C141.604 110.466 141.206 110.723 140.733 110.909C140.259 111.091 139.727 111.182 139.136 111.182ZM144.79 111V102.273H146.085V103.591H146.176C146.335 103.159 146.623 102.809 147.04 102.54C147.456 102.271 147.926 102.136 148.449 102.136C148.547 102.136 148.67 102.138 148.818 102.142C148.966 102.146 149.078 102.152 149.153 102.159V103.523C149.108 103.511 149.004 103.494 148.841 103.472C148.682 103.445 148.513 103.432 148.335 103.432C147.911 103.432 147.532 103.521 147.199 103.699C146.869 103.873 146.608 104.116 146.415 104.426C146.225 104.733 146.131 105.083 146.131 105.477V111H144.79Z" fill="#326DE6"/>
<path d="M74.8994 2.65286C75.6929 2.65286 76.4859 2.82202 77.2225 3.16069L105.893 16.763C107.366 17.4967 108.499 18.8513 108.839 20.4318L115.922 51.0789C116.318 52.7158 115.922 54.4092 114.845 55.707L95.0137 80.2593C93.9942 81.5571 92.4072 82.291 90.7646 82.291H58.9777C57.3347 82.291 55.7481 81.5571 54.7281 80.2593L34.8973 55.707C33.8773 54.4092 33.4803 52.7158 33.8208 51.0789L40.9034 20.4318C41.2999 18.7949 42.3764 17.4403 43.8495 16.763L72.5203 3.10465C73.2568 2.82236 74.1064 2.65286 74.8994 2.65286ZM74.8994 0C73.7094 0 72.5199 0.28227 71.3864 0.790084L42.7164 14.4491C40.4499 15.5215 38.8634 17.4967 38.2969 19.9237L31.2142 50.5711C30.6477 52.9984 31.2142 55.4813 32.8008 57.4569L52.6321 82.0088C54.1621 83.9279 56.4847 85 58.9212 85H90.7077C93.1437 85 95.4672 83.9279 96.9968 82.0088L116.828 57.4569C118.415 55.5379 118.981 52.9984 118.415 50.5711L111.332 19.9237C110.765 17.4967 109.179 15.5215 106.913 14.4491L78.3555 0.789742C77.279 0.28227 76.0894 0 74.8994 0Z" fill="white"/>
<path fill-rule="evenodd" clip-rule="evenodd" d="M54.4691 80.2939C55.7305 81.887 57.5948 82.7654 59.5691 82.7654H59.57L90.4986 82.7103C92.4728 82.7103 94.3371 81.7766 95.5986 80.2391L114.792 56.3493C116.053 54.7566 116.492 52.7245 116.053 50.7476L109.199 20.9265C108.76 18.9494 107.444 17.3566 105.634 16.4781L77.8857 3.24256C77.0081 2.80296 76.0214 2.5835 75.0343 2.5835C74.0471 2.5835 73.06 2.80329 72.1824 3.24221L44.4343 16.533C42.6243 17.4115 41.3081 19.0042 40.8695 20.9814L34.0147 50.8024C33.5214 52.7797 34.0147 54.8114 35.2762 56.4041L54.4691 80.2939ZM102.727 48.7155H102.782C103.769 48.9898 104.372 49.8691 104.372 50.5281C104.153 51.2423 103.44 51.7913 102.618 51.7913C102.453 51.7913 102.343 51.7913 102.179 51.7361C102.124 51.6813 102.069 51.6813 102.014 51.6813C101.959 51.6813 101.904 51.6677 101.85 51.6541C101.795 51.6401 101.74 51.6265 101.685 51.6265C101.301 51.5166 101.027 51.4066 100.698 51.2418C100.616 51.2142 100.533 51.1731 100.451 51.1319C100.369 51.0907 100.287 51.0499 100.205 51.0223H100.15C99.1077 50.6376 98.1757 50.3086 97.2981 50.1986H97.1886C96.9419 50.1986 96.7872 50.2915 96.633 50.384C96.5818 50.4146 96.53 50.4457 96.4753 50.4729C96.4481 50.4729 96.4345 50.4865 96.421 50.5005C96.4074 50.5141 96.3933 50.5281 96.3657 50.5281L95.7077 50.4181C95.1595 52.1208 94.3919 53.823 93.4048 55.3613C91.54 58.3266 89.0724 60.743 86.1657 62.4456L86.44 63.1046C86.44 63.1322 86.4264 63.1458 86.4129 63.1598C86.3988 63.1734 86.3853 63.187 86.3853 63.2146C86.3739 63.2715 86.3598 63.3267 86.3463 63.3811C86.2941 63.5879 86.2437 63.7885 86.3305 64.0931C86.5894 64.8712 87.0929 65.6493 87.6568 66.5199C87.6896 66.5712 87.7229 66.6225 87.7566 66.6742V66.7294C87.8114 66.8117 87.8662 66.8805 87.921 66.9489C87.9757 67.0177 88.0305 67.086 88.0853 67.1684C88.3048 67.4431 88.5238 67.7178 88.6886 68.0473C88.7433 68.1025 88.7981 68.2121 88.8529 68.322C88.8529 68.3492 88.8669 68.3632 88.8805 68.3768C88.8941 68.3904 88.9081 68.4044 88.9081 68.4316C89.1272 68.871 89.1272 69.3652 89.0176 69.8047C88.9076 70.2437 88.5786 70.5736 88.1948 70.7932C87.9757 70.9031 87.7562 70.9583 87.5367 70.9583C86.8786 70.9583 86.2205 70.5736 85.8919 69.9142C85.8919 69.9142 85.8367 69.8595 85.8367 69.8047C85.8091 69.7495 85.7819 69.7083 85.7543 69.6667C85.7267 69.6255 85.6996 69.5848 85.672 69.53C85.5624 69.3105 85.5015 69.0905 85.4406 68.871C85.4104 68.761 85.3797 68.6511 85.3434 68.5415L85.1786 68.0473V67.9925C85.1484 67.9102 85.1186 67.8287 85.0888 67.7481C84.7422 66.803 84.4311 65.9547 84.0272 65.2467C83.8077 64.9168 83.5886 64.8068 83.3143 64.752C83.2828 64.7205 83.2696 64.7073 83.2534 64.7016C83.2416 64.6973 83.228 64.6973 83.2043 64.6973L82.8757 64.0931C81.9429 64.4256 80.9904 64.7008 80.0243 64.9168C78.4886 65.3015 76.8434 65.4658 75.2529 65.4658C72.621 65.4658 69.9886 64.972 67.5757 64.0383L67.1915 64.752C67.1367 64.8068 67.1367 64.8068 67.0819 64.8068C67.0359 64.83 66.9877 64.8506 66.9382 64.8716C66.7503 64.9518 66.5426 65.0408 66.3691 65.3015C65.9327 65.981 65.668 66.7469 65.3469 67.6749C65.3048 67.7962 65.2619 67.9202 65.2176 68.0473L65.0529 68.5415C65.0165 68.6511 64.9863 68.7545 64.9556 68.8579C64.8947 69.0656 64.8338 69.2732 64.7238 69.53C64.6691 69.5852 64.6143 69.6947 64.5595 69.8047C64.5595 69.8047 64.5048 69.8595 64.5048 69.9142C64.1757 70.5184 63.5176 70.9583 62.8595 70.9583C62.64 70.9583 62.4205 70.9031 62.2014 70.7932C61.379 70.4089 61.05 69.3652 61.4886 68.4316C61.4886 68.4316 61.5434 68.3768 61.5434 68.322C61.5981 68.2121 61.6529 68.1021 61.7077 68.0473C61.7642 67.9623 61.8172 67.8808 61.8685 67.8019C62.0157 67.5759 62.1484 67.3721 62.3114 67.1684C62.3658 67.0865 62.4205 67.0181 62.4753 66.9498C62.5301 66.8805 62.5853 66.8117 62.64 66.7294V66.6742C63.2434 65.7405 63.7371 64.9168 64.0658 64.0931C64.1753 63.7088 64.0658 63.4341 63.9562 63.2141C63.9562 63.187 63.9426 63.1734 63.9291 63.1598C63.915 63.1458 63.9014 63.1322 63.9014 63.1046L64.2305 62.3909C63.4077 61.8962 62.64 61.402 61.8724 60.7982C58.5272 58.1619 56.0048 54.5371 54.6886 50.4733L53.9205 50.5833C53.8934 50.5833 53.8793 50.5693 53.8658 50.5557C53.8522 50.5421 53.8386 50.5281 53.811 50.5281C53.8 50.5207 53.7886 50.5132 53.7772 50.5053C53.6164 50.3967 53.4048 50.2534 53.0981 50.2534H52.9886C52.111 50.3634 51.1786 50.6929 50.1367 51.0775H50.0819C49.9991 51.1051 49.9168 51.1463 49.8339 51.1875C49.752 51.2287 49.6705 51.2699 49.5886 51.2971C49.2595 51.4618 48.9853 51.5718 48.601 51.6813C48.5462 51.6813 48.4915 51.6953 48.4367 51.7089C48.3819 51.7225 48.3272 51.7361 48.2724 51.7361C48.2724 51.7913 48.2176 51.7913 48.1629 51.7913C47.9981 51.8465 47.8886 51.8465 47.7238 51.8465C46.8467 51.8465 46.1338 51.3518 45.9691 50.5829C45.8043 49.7044 46.4077 48.7707 47.3948 48.5512C47.45 48.4964 47.5048 48.4964 47.5595 48.4964C47.6143 48.4964 47.6695 48.4824 47.7243 48.4684C47.7791 48.4548 47.8338 48.4412 47.8886 48.4412C47.9372 48.4342 47.985 48.4272 48.0323 48.4202C48.3561 48.3733 48.6431 48.3313 48.9305 48.3313C49.0948 48.2765 49.3143 48.2765 49.4786 48.2765H49.5338C50.6853 48.1665 51.6724 48.0565 52.4948 47.7818C52.8238 47.6175 52.9886 47.3976 53.0981 47.1776C53.0981 47.1505 53.1117 47.1369 53.1253 47.1233C53.1393 47.1097 53.1529 47.0957 53.1529 47.0681L53.8658 46.8486C53.1529 41.796 54.1948 36.6885 56.9367 32.3498C56.9753 32.2343 57.041 32.1457 57.1146 32.0462C57.1457 32.0039 57.1781 31.9596 57.211 31.9106L56.6629 31.4161V31.3064C56.6629 31.0317 56.6629 30.757 56.3886 30.4827C55.7577 29.9036 54.9756 29.4252 54.0428 28.8547C54.0024 28.83 53.9617 28.8052 53.921 28.7802C53.7562 28.6701 53.5919 28.5604 53.4272 28.5056C53.0981 28.3406 52.8238 28.1757 52.4948 27.9562C52.44 27.9288 52.3988 27.8877 52.3577 27.8465C52.3165 27.8054 52.2753 27.7642 52.2205 27.7368C52.1934 27.7368 52.1793 27.723 52.1657 27.7092C52.1522 27.6954 52.1386 27.6816 52.111 27.6816C51.3434 27.0225 51.1786 25.9242 51.7272 25.2103C52.0014 24.8259 52.4948 24.6061 52.9886 24.6061C53.4294 24.6093 53.8552 24.7646 54.1952 25.0457C54.1952 25.0796 54.2163 25.0926 54.2452 25.1105C54.2627 25.1215 54.2837 25.1345 54.3048 25.1554C54.3687 25.2198 54.4327 25.2651 54.4862 25.3027C54.5238 25.3295 54.5558 25.3523 54.5786 25.3752C54.8529 25.6496 55.0724 25.8693 55.2919 26.144C55.4045 26.219 55.4913 26.3198 55.5697 26.4111C55.6065 26.4534 55.6411 26.4937 55.6757 26.5284C56.4434 27.3521 57.1562 28.0663 57.8691 28.5604C58.0338 28.6701 58.1981 28.725 58.3629 28.725C58.4176 28.725 58.4724 28.7113 58.5272 28.6976C58.5824 28.6839 58.6371 28.6701 58.6919 28.6701H58.8014L59.35 29.0546C62.2562 25.9794 65.9853 23.8373 70.2077 22.9036C71.1948 22.6838 72.1819 22.5741 73.1691 22.4644L73.2243 21.7504L73.3338 21.6407C73.354 21.6203 73.3754 21.5999 73.3969 21.5791C73.5498 21.4317 73.7242 21.2637 73.7724 20.9268C73.8596 20.2279 73.7733 19.4596 73.6791 18.622C73.655 18.4063 73.63 18.186 73.6077 17.9611V17.9062C73.5827 17.8054 73.5691 17.7162 73.5564 17.6333C73.5415 17.5354 73.5279 17.4462 73.4981 17.3569C73.3886 17.0274 73.3338 16.6978 73.3338 16.3135V15.8742C73.3338 15.3797 73.4986 14.9405 73.8272 14.611C74.1562 14.2814 74.5948 14.062 75.0338 14.062C75.9658 14.062 76.7338 14.8856 76.7338 15.8742V16.3683C76.6786 16.7527 76.6238 17.0826 76.5691 17.4118C76.5143 17.5767 76.4595 17.7961 76.4595 17.9611V18.016C76.4521 18.0915 76.4446 18.1665 76.4368 18.2411C76.3355 19.2498 76.244 20.1633 76.2948 20.9817C76.343 21.319 76.5178 21.487 76.6712 21.6346C76.6926 21.6552 76.7137 21.6754 76.7338 21.6956L76.8433 21.8053L76.8981 22.5192C81.0758 22.9079 85.0537 24.4901 88.3595 27.0777C89.1272 27.7368 89.8948 28.3958 90.6077 29.1646L91.2662 28.725H91.3757C91.4853 28.7802 91.5952 28.7802 91.7048 28.7802C91.8695 28.7802 92.0338 28.725 92.1981 28.6153C92.911 28.1212 93.6238 27.4621 94.3919 26.6382C94.5045 26.5631 94.5913 26.4624 94.6697 26.371C94.7065 26.3287 94.7411 26.2885 94.7757 26.2537C94.9935 25.9807 95.2117 25.7623 95.4838 25.4899L95.4886 25.485C95.5434 25.4575 95.5845 25.4163 95.6257 25.3751C95.6669 25.3338 95.7081 25.2926 95.7629 25.2652L95.8724 25.1554C96.2562 24.8808 96.6405 24.7162 97.0786 24.7162C97.5724 24.7162 98.0658 24.9357 98.34 25.32C98.8886 26.0343 98.7238 27.1326 97.9562 27.7917C97.9562 27.8255 97.9352 27.8385 97.9067 27.8564C97.8887 27.8675 97.8677 27.8806 97.8467 27.9017C97.7823 27.9659 97.7183 28.0113 97.6649 28.0489C97.6272 28.0756 97.5952 28.0984 97.5724 28.1212C97.2433 28.341 96.9691 28.5056 96.64 28.6701C96.5577 28.7253 96.4753 28.7665 96.3929 28.8078C96.3105 28.8489 96.2286 28.89 96.1467 28.9448C96.1037 28.971 96.0617 28.9969 96.0196 29.0227C95.0886 29.5919 94.3082 30.0693 93.6786 30.6473C93.4595 30.922 93.4048 31.1967 93.4048 31.4713V31.581L92.8562 32.0751C94.2894 34.2765 95.3282 36.711 95.9272 39.2695C96.5178 41.8069 96.6479 44.43 96.311 47.0133L97.0238 47.2328C97.0238 47.2604 97.0374 47.274 97.0514 47.288C97.065 47.3016 97.0786 47.3152 97.0786 47.3428L97.079 47.3432C97.1886 47.5627 97.2985 47.7823 97.6819 47.947C98.5595 48.2217 99.4919 48.3313 100.643 48.4412H100.698C100.918 48.4964 101.082 48.4964 101.247 48.4964C101.534 48.4964 101.821 48.5381 102.145 48.5854C102.192 48.5919 102.24 48.599 102.289 48.606C102.343 48.606 102.399 48.6196 102.453 48.6336C102.508 48.6472 102.563 48.6607 102.618 48.6607C102.618 48.7155 102.672 48.7155 102.727 48.7155ZM74.9786 47.1781L77.3915 46.0244L77.94 43.4438L76.2948 41.3567H73.6077L71.9629 43.4438L72.5657 46.0244L74.9786 47.1781ZM92.0886 45.8597C92.2599 44.0024 92.1302 42.1293 91.7048 40.3133C91.2657 38.3913 90.5529 36.6336 89.621 35.0957L82.9853 41.0821C82.8209 41.2467 82.711 41.4664 82.6562 41.6863C82.4919 42.455 82.9305 43.2242 83.6981 43.4438L92.0886 45.8597ZM79.8048 36.9083L86.9886 31.8008C84.3317 29.1374 80.8524 27.4532 77.1176 27.0225L77.611 35.9746L77.6114 35.9768C77.6666 36.1955 77.7214 36.4144 77.8853 36.5788C78.3786 37.1826 79.2015 37.2927 79.8048 36.9083ZM71.9624 27.1323C71.6746 27.1872 71.3867 27.242 71.0853 27.2969C67.9595 28.0108 65.1629 29.549 62.9143 31.8008L70.2077 37.0177C70.3724 37.1274 70.6467 37.1823 70.8657 37.1823C71.6886 37.1823 72.2919 36.5233 72.3467 35.7545L72.84 26.9677C72.5386 27.0225 72.2503 27.0774 71.9624 27.1323ZM66.8077 40.9168L60.2819 35.0954C58.3077 38.3358 57.4853 42.1252 57.8143 45.8597L66.3143 43.3885C66.5886 43.3333 66.8077 43.1682 66.9724 42.9487C67.4658 42.3446 67.411 41.4112 66.8077 40.9168ZM67.521 48.4956L58.801 49.9787C60.1172 53.603 62.5853 56.6236 65.6562 58.6009L69.0014 50.5281C69.111 50.2534 69.111 49.9782 69.0562 49.6492C68.8919 48.935 68.2338 48.4408 67.521 48.4956ZM74.9786 61.3468C76.2948 61.3468 77.5562 61.182 78.8176 60.9073H78.8172C79.0599 60.8346 79.3031 60.7724 79.541 60.7115C79.8407 60.6348 80.1329 60.5599 80.4076 60.4683L76.1853 52.8341C76.0065 52.5926 75.783 52.3876 75.5272 52.2303C74.9238 51.9008 74.211 52.1203 73.7724 52.615L69.4405 60.4683C71.1948 61.0177 73.0595 61.3468 74.9786 61.3468ZM84.2467 58.6009C86.3301 57.2278 88.14 55.4704 89.511 53.274C90.2238 52.2303 90.7724 51.1319 91.1014 49.9239L82.3272 48.4408C82.0529 48.4408 81.7786 48.4956 81.5595 48.6051C80.9014 48.935 80.6272 49.6492 80.7919 50.3077L84.2467 58.6009Z" fill="#326DE6"/>
</svg>
