<svg width="217" height="51" viewBox="0 0 217 51" fill="none" xmlns="http://www.w3.org/2000/svg">
<g clip-path="url(#clip0_2511_883)">
<path d="M78.1787 0H79.2283C80.502 0.265318 81.3069 1.35312 81.9202 2.41145C85.4111 7.91237 88.9462 13.3809 92.4429 18.8759C93.1358 19.9549 93.8523 21.0191 94.4567 22.1481C92.8203 22.2042 91.184 22.1717 89.5476 22.1865C88.7604 20.9129 87.9732 19.6365 87.2332 18.3335C83.4062 18.0505 79.5674 18.4573 75.7434 18.2244C75.0092 16.9037 74.0333 15.7275 73.4142 14.3419C77.135 14.3301 80.8588 14.3743 84.5796 14.3213C82.4686 11.2819 80.6878 8.02734 78.6564 4.93197C74.9178 10.6422 71.4181 16.5057 67.6678 22.2101C66.0344 22.1511 64.398 22.2071 62.7646 22.1688C66.9808 15.3737 71.3886 8.69653 75.6372 1.91913C76.1768 0.963989 77.0642 0.173931 78.1787 0Z" fill="#F80202"/>
<path d="M4.12477 2.58539C6.12082 1.00528 8.66821 0.159209 11.2126 0.173949C15.2372 0.176897 19.2617 0.179845 23.2862 0.168053C24.8459 0.162157 26.4115 0.465799 27.8621 1.04655C31.3058 2.45274 33.9092 5.72499 34.4664 9.40996C35.2006 13.4605 33.3136 17.8559 29.9201 20.1671C27.9358 21.6411 25.4267 22.1629 22.9943 22.1894C19.0612 22.1835 15.1281 22.1924 11.195 22.1835C8.46182 22.1511 5.68151 21.2402 3.65598 19.3594C1.65109 17.6171 0.41572 15.1143 0 12.5112V10.0909C0.330217 7.18719 1.80145 4.38956 4.12477 2.58539ZM10.3665 4.20089C6.81663 4.50453 3.8889 7.95956 4.19258 11.5178C4.24565 15.0376 7.37977 18.1802 10.9001 18.2097C15.0367 18.2215 19.1762 18.2097 23.3128 18.2156C26.4528 18.3394 29.4483 16.0252 30.2031 12.9888C30.8635 10.6658 30.1412 8.03915 28.4695 6.31164C27.1574 4.89956 25.2262 4.08886 23.298 4.15667C18.9875 4.15961 14.677 4.05938 10.3665 4.20089Z" fill="#F80202"/>
<path d="M36.7485 0.441957C37.1643 0.297506 37.5888 0.167795 38.034 0.194327C43.5386 0.197275 49.0403 0.170743 54.5419 0.176639C56.2874 0.197275 58.1095 0.509761 59.5394 1.57693C62.0131 3.27496 63.1984 6.57375 62.4318 9.46571C61.9777 11.3966 60.6805 13.0917 58.9527 14.0557C58.6903 14.1559 58.4279 14.2473 58.1625 14.3269C56.7473 15.2084 54.9813 15.0227 53.3862 15.0934C56.1901 17.3958 59.0264 19.6775 61.6976 22.1332C59.7193 22.2157 57.7262 22.2216 55.7508 22.1391C51.797 18.9287 48.0703 15.4324 44.1637 12.1602C43.8571 11.886 43.4885 11.6472 43.3381 11.2463C44.1077 11.0635 44.9096 11.149 45.6939 11.1343C48.8398 11.1402 51.9828 11.1579 55.1257 11.1225C57.2427 11.1814 59.0117 8.80242 58.363 6.786C58.0033 5.34444 56.6471 4.12988 55.1228 4.1741C50.4349 4.18294 45.744 4.0149 41.0679 4.19473C41.1269 10.129 41.0266 16.0662 41.118 22.0005C39.7795 22.3808 38.3672 22.0742 36.9962 22.2216C36.6129 21.3431 36.8281 20.3644 36.7869 19.4387C36.7603 13.1065 36.8281 6.77421 36.7485 0.441957Z" fill="#F80202"/>
<path d="M98.1308 1.47356C100.557 0.0939087 103.444 0.126336 106.15 0.185296C110.187 0.250151 114.232 0.0585329 118.262 0.273735C117.664 1.59443 116.776 2.75298 116.007 3.9705C114.04 4.27119 111.979 4.07368 109.977 4.10021C107.716 4.20928 105.449 4.0442 103.187 4.12969C100.781 4.28298 98.4168 5.68033 97.3259 7.86478C96.0463 10.2438 96.2497 13.4099 97.9952 15.5059C99.2689 17.1833 101.356 18.2593 103.473 18.2092C108.518 18.2299 113.566 18.1915 118.613 18.2299C117.997 19.6537 117.056 20.8978 116.213 22.189C111.873 22.1625 107.533 22.2214 103.196 22.1654C100.495 22.0917 97.8094 21.1159 95.837 19.244C93.605 17.2158 92.2311 14.2354 92.3314 11.2019C92.1869 7.19559 94.5986 3.3072 98.1308 1.47356Z" fill="#F80202"/>
<path d="M120.665 0.279973C122.066 0.106042 123.481 0.117834 124.881 0.300609C124.846 6.25257 124.902 12.2045 124.849 18.1536C131.376 18.3039 137.916 18.1624 144.447 18.2243C143.659 19.5892 142.795 20.9099 141.893 22.2041C135.572 22.1569 129.251 22.2129 122.929 22.1775C121.774 22.1834 120.559 21.2932 120.659 20.0491C120.662 13.4604 120.644 6.87165 120.665 0.279973Z" fill="#F80202"/>
<path d="M149.01 1.65093C150.912 0.465848 153.2 0.212322 155.394 0.168103C159.616 0.165155 163.838 0.212322 168.057 0.171051C168.552 0.173999 169.071 0.171051 169.505 0.451108C168.726 1.65093 167.874 2.80654 167.175 4.05648C163.832 4.19799 160.486 4.09481 157.139 4.10955C155.288 4.18325 153.345 3.9592 151.629 4.81706C149.886 5.7162 148.471 7.31989 147.967 9.23608C154.754 9.31273 161.544 9.22724 168.334 9.27735C167.647 10.6098 166.677 11.7713 165.972 13.095C159.984 13.151 153.993 13.1038 148.005 13.1156C148.477 15.2264 150.149 16.9893 152.156 17.7439C153.631 18.4043 155.282 18.1743 156.85 18.2156C161.178 18.248 165.51 18.1449 169.832 18.2687C169.121 19.6542 168.275 21.0132 167.282 22.219C163.802 22.1364 160.32 22.2131 156.841 22.1865C154.975 22.2308 153.082 22.1689 151.272 21.6795C148.147 20.7361 145.478 18.3512 144.302 15.2942C143.264 12.9328 143.273 10.2413 143.96 7.78567C144.895 5.25336 146.625 2.97458 149.01 1.65093Z" fill="#F80202"/>
<path d="M15.7705 32.5717C16.9351 32.5746 18.0997 32.5629 19.2643 32.5864C19.2289 38.6327 19.2466 44.6761 19.2555 50.7194C18.5066 50.7047 17.7607 50.6929 17.0118 50.6782C17 45.2244 17.056 39.7648 16.9852 34.311C16.6108 33.9956 16.1862 33.7538 15.7735 33.4944C15.7735 33.1849 15.7705 32.8783 15.7705 32.5717Z" fill="#020202"/>
<path d="M59.4653 32.5959C60.1906 32.5812 60.9189 32.5753 61.6471 32.5635C61.7002 38.6216 61.6471 44.6767 61.6736 50.7348C61.1636 50.7142 60.6535 50.6935 60.1464 50.67C60.0461 50.0361 59.9459 49.4023 59.8486 48.7685C58.8255 50.042 57.3454 50.9736 55.6737 51.0001H55.4998C53.8752 50.9913 52.2005 50.2602 51.3514 48.8275C50.0011 46.6931 50.004 43.9427 50.6143 41.5666C51.1362 39.5148 52.9907 37.8669 55.146 37.8433C56.7322 37.6753 58.2211 38.3562 59.4742 39.2613C59.4683 37.0385 59.4801 34.8187 59.4653 32.5959ZM52.6664 42.5954C52.4335 43.9869 52.4128 45.4609 52.8374 46.8199C53.2118 48.0669 54.3322 49.2107 55.7091 49.1635C57.2717 49.3021 58.628 48.288 59.4476 47.038C59.5095 45.113 59.4535 43.185 59.4712 41.26C58.4334 40.1987 56.9916 39.4146 55.4644 39.6504C53.9578 39.7978 52.9111 41.1863 52.6664 42.5954Z" fill="#020202"/>
<path d="M93.2126 33.6688C94.1944 32.4277 95.9487 32.295 97.4081 32.469C97.4081 33.0291 97.414 33.5921 97.417 34.1552C96.6563 34.2378 95.7099 34.0609 95.1349 34.6888C94.333 35.641 94.6573 36.9794 94.5954 38.1173C95.5713 38.1026 96.5472 38.1025 97.5231 38.1055C97.5143 38.7157 97.5025 39.3289 97.4818 39.9421C96.5266 39.9067 95.5742 39.9097 94.619 39.9097C94.5629 43.5032 94.6072 47.0968 94.5983 50.6904C93.8612 50.6875 93.1271 50.6904 92.3929 50.6727C92.4136 47.0939 92.3782 43.515 92.4136 39.9362C91.6971 39.9156 90.9807 39.9067 90.2672 39.9097C90.2436 39.6355 90.1993 39.0872 90.1787 38.813C90.907 38.5271 91.647 38.2706 92.3929 38.0318C92.3988 36.5549 92.2337 34.9069 93.2126 33.6688Z" fill="#020202"/>
<path d="M2.92461 35.6203C5.41893 32.5751 10.213 32.0562 13.5535 33.9282C13.6419 34.5885 13.6154 35.2577 13.6331 35.921C12.2031 35.3521 10.7083 34.7772 9.13977 34.8863C7.42087 34.9217 5.6489 35.6557 4.64941 37.1032C3.32264 38.9781 3.21945 41.4308 3.52608 43.6359C3.79733 45.6022 4.844 47.6009 6.73096 48.4352C9.14862 49.5053 11.8994 48.845 14.2434 47.8928C14.2375 48.5561 14.2316 49.2194 14.2257 49.8856C12.9579 50.4752 11.6017 50.8407 10.213 50.9999H8.34077C6.71032 50.826 5.05923 50.3042 3.80617 49.2135C2.28481 47.8839 1.45927 45.9147 1.21161 43.9395C0.810629 41.1036 1.08778 37.9404 2.92461 35.6203Z" fill="#020202"/>
<path d="M71.3121 33.1563C72.0581 33.171 72.804 33.1622 73.5499 33.1504C73.5912 38.9962 73.544 44.8421 73.5765 50.6879C72.8158 50.685 72.0551 50.6879 71.2944 50.6791C71.321 44.8391 71.2856 38.9962 71.3121 33.1563Z" fill="#020202"/>
<path d="M134.056 34.6504C134.525 34.6475 134.994 34.6445 135.465 34.6416C135.436 35.8031 135.424 36.9676 135.477 38.132C136.376 38.1025 137.273 38.1025 138.172 38.1173C138.166 38.7187 138.16 39.32 138.154 39.9244C137.258 39.9155 136.359 39.9126 135.462 39.8949C135.433 42.3122 135.436 44.7266 135.454 47.144C135.436 47.7925 135.775 48.4145 136.344 48.7388C136.975 48.9865 137.668 48.8243 138.328 48.8037C138.325 49.4552 138.331 50.1067 138.337 50.7611C137.084 50.7936 135.695 50.9822 134.584 50.2747C133.587 49.579 133.231 48.3202 133.222 47.1617C133.204 44.7414 133.225 42.3211 133.216 39.9008C132.496 39.9126 131.774 39.9126 131.058 39.9244C131.058 39.6355 131.058 39.0606 131.061 38.7747C131.774 38.53 132.491 38.2824 133.213 38.0524C133.508 36.9233 133.823 35.7972 134.056 34.6504Z" fill="#020202"/>
<path d="M177.38 34.6211C177.825 34.6299 178.273 34.6358 178.724 34.6417C178.721 35.7944 178.712 36.9441 178.724 38.0968C179.635 38.1027 180.546 38.1115 181.46 38.1233C181.44 38.7217 181.434 39.3231 181.428 39.9245C180.526 39.9127 179.626 39.9098 178.727 39.9068C178.707 42.1237 178.724 44.3435 178.713 46.5604C178.701 47.262 178.757 48.0992 179.361 48.568C180.004 49.0396 180.832 48.8421 181.567 48.7861C181.567 49.4317 181.569 50.0803 181.572 50.7288C180.299 50.8232 178.863 50.9588 177.757 50.1982C176.708 49.4465 176.501 48.0609 176.489 46.8611C176.484 44.544 176.495 42.2269 176.486 39.9068C175.758 39.9127 175.03 39.9157 174.305 39.9186C174.408 39.4882 174.081 38.6628 174.771 38.6068C175.319 38.4151 175.879 38.2559 176.439 38.0968C176.814 36.9559 177.061 35.7796 177.38 34.6211Z" fill="#020202"/>
<path d="M79.1723 40.1276C80.6907 38.0286 83.6892 37.1855 86.0391 38.3175C87.5486 39.0899 88.1943 40.8469 88.2268 42.4565C88.2621 45.201 88.2179 47.9427 88.2474 50.6872C87.5015 50.6902 86.7555 50.6902 86.0125 50.6902C86.0007 48.0399 86.0155 45.3927 86.0066 42.7424C86.0096 41.6428 85.6086 40.3251 84.4587 39.9389C82.4656 39.1341 80.1777 40.5138 79.5143 42.4476C79.4524 45.1922 79.4996 47.9397 79.4966 50.6872C78.7625 50.6931 78.0283 50.6872 77.2942 50.6784C77.3001 46.4923 77.2824 42.3032 77.3001 38.1141C77.7895 38.1053 78.2819 38.0964 78.7743 38.0758C78.9158 38.7568 79.0455 39.4407 79.1723 40.1276Z" fill="#020202"/>
<path d="M25.9868 38.0791C28.1067 37.5632 30.6334 37.7519 32.2698 39.3467C33.9031 40.9829 34.2216 43.471 33.9739 45.6701C33.7882 47.4507 32.9154 49.2549 31.3233 50.1717C29.9877 50.9971 28.3543 50.7908 26.8595 50.7849C24.8811 50.7672 23.1888 49.2726 22.5313 47.4714C21.8325 45.4874 21.8325 43.2381 22.5519 41.26C23.0974 39.7211 24.4182 38.5184 25.9868 38.0791ZM26.3642 39.9776C25.1435 40.4964 24.5332 41.8289 24.3711 43.0759C24.1971 44.4969 24.2266 46.0092 24.8517 47.324C25.916 49.6617 29.7342 49.7973 31.0373 47.6217C31.7715 46.4278 31.8245 44.9744 31.7449 43.6154C31.6919 42.4303 31.2968 41.1804 30.3798 40.3815C29.2536 39.5177 27.6467 39.4293 26.3642 39.9776Z" fill="#020202"/>
<path d="M36.6982 38.1114C37.4294 38.1114 38.1606 38.1114 38.8918 38.1084C39.0245 40.8353 38.8152 43.5651 38.9449 46.292C38.9596 47.3326 39.4196 48.4647 40.4191 48.9157C42.7453 49.9003 45.5964 47.5714 45.2603 45.1187C45.2485 42.781 45.2662 40.4432 45.2515 38.1055C45.9827 38.1114 46.7139 38.1114 47.4421 38.1084C47.448 42.3093 47.5247 46.5102 47.448 50.7081C46.935 50.6933 46.422 50.6786 45.909 50.655C45.8205 50.0006 45.7114 49.3461 45.5994 48.6976C44.6529 49.8001 43.3881 50.8496 41.8461 50.8024C40.652 50.7995 39.2781 50.9528 38.3022 50.1155C37.1287 49.2076 36.7395 47.6658 36.7071 46.2478C36.6953 43.5356 36.7248 40.8235 36.6982 38.1114Z" fill="#020202"/>
<path d="M100.076 38.1495C100.583 38.1259 101.093 38.1082 101.603 38.0935C101.724 38.8187 101.86 39.5468 102.057 40.2573C102.52 39.6146 102.974 38.9219 103.691 38.5357C104.475 38.0021 105.46 38.0817 106.359 38.0876C106.383 38.745 106.389 39.3994 106.4 40.0568C104.549 39.8416 102.585 41.068 102.355 42.9901C102.282 45.5489 102.349 48.1107 102.326 50.6725C101.583 50.6931 100.84 50.6931 100.097 50.6902C100.085 46.51 100.123 42.3297 100.076 38.1495Z" fill="#020202"/>
<path d="M108.83 38.6391C110.908 37.8844 113.238 37.5218 115.396 38.1439C116.888 38.5625 117.87 40.0512 117.861 41.5694C117.929 44.6088 117.861 47.6481 117.89 50.6875C117.374 50.6816 116.858 50.6728 116.345 50.661C116.26 50.0124 116.136 49.3698 116.021 48.7271C115.52 49.4199 114.88 49.9918 114.199 50.5047C114.007 50.4104 113.813 50.319 113.621 50.2276C113.606 50.3898 113.577 50.714 113.559 50.8762C112.306 50.7376 110.997 50.9558 109.779 50.5666C107.07 49.4552 106.887 45.0981 109.39 43.6625C111.274 42.4597 113.606 42.9726 115.711 42.8636C115.697 41.7581 115.764 40.1102 114.396 39.7918C112.527 39.3289 110.581 39.8802 108.818 40.517C108.812 39.8891 108.815 39.2641 108.83 38.6391ZM111.133 44.768C109.305 45.4342 109.437 48.4942 111.265 49.075C112.798 49.5289 114.382 48.6976 115.302 47.483C116.042 46.6547 115.623 45.4607 115.708 44.4584C114.187 44.5469 112.598 44.2432 111.133 44.768Z" fill="#020202"/>
<path d="M122.059 38.5654C124.221 37.395 126.871 37.7724 129.13 38.4622C129.177 39.1078 129.189 39.7564 129.197 40.402C127.428 39.8035 125.459 39.3466 123.628 39.9362C122.522 40.228 122.31 41.8819 123.292 42.4538C125.07 43.4679 127.375 43.2792 128.988 44.6471C130.008 45.4843 130.185 46.9435 129.917 48.164C129.495 49.7854 127.779 50.7965 126.169 50.7936C124.321 50.7995 122.36 50.9911 120.668 50.089C120.665 49.4611 120.668 48.8332 120.674 48.2082C122.569 49.0189 124.757 49.4758 126.765 48.8096C127.959 48.4264 128.216 46.5898 127.131 45.9353C125.323 44.9419 123.009 45.0922 121.408 43.686C119.845 42.3358 120.228 39.5028 122.059 38.5654Z" fill="#020202"/>
<path d="M140.991 38.0936C141.483 38.1024 141.978 38.0936 142.474 38.1407C142.636 38.8748 142.742 39.6177 142.875 40.3576C143.691 38.748 145.455 37.7457 147.268 38.1083C147.271 38.751 147.274 39.3936 147.288 40.0363C145.396 39.8358 143.435 41.1064 143.199 43.058C143.14 45.5962 143.178 48.1403 143.184 50.6814C142.45 50.6932 141.713 50.6873 140.979 50.6814C140.985 46.4835 140.961 42.2885 140.991 38.0936Z" fill="#020202"/>
<path d="M149.75 38.1144C150.485 38.1085 151.219 38.1085 151.956 38.1056C151.968 40.7411 151.935 43.3766 151.965 46.0121C151.974 47.0999 152.342 48.341 153.377 48.8745C155.597 49.924 158.489 47.8103 158.286 45.4048C158.259 42.9845 158.301 40.5642 158.262 38.1468C159 38.1144 159.74 38.1056 160.48 38.0879C160.536 42.3035 160.5 46.5191 160.497 50.7377C159.993 50.717 159.492 50.6964 158.991 50.6787C158.87 50.0007 158.761 49.3226 158.657 48.6446C157.646 49.9712 156.134 50.8969 154.447 51H154.256C153.005 50.9941 151.679 50.6315 150.865 49.6263C149.857 48.4766 149.742 46.8699 149.727 45.4136C149.736 42.9786 149.703 40.5465 149.75 38.1144Z" fill="#020202"/>
<path d="M165.805 38.7215C167.845 37.4833 170.475 37.6189 172.606 38.5505C172.621 39.1695 172.627 39.7886 172.636 40.4047C170.985 39.6736 168.968 39.2432 167.314 40.1984C165.746 41.1329 165.463 43.1464 165.557 44.812C165.639 46.2506 165.993 47.9781 167.397 48.7062C169.195 49.5759 171.25 49.0217 172.99 48.2788C172.987 48.8949 172.99 49.511 172.993 50.1301C171.964 50.5959 170.867 50.9261 169.738 50.9998H168.744C167.282 50.876 165.734 50.4308 164.767 49.2546C163.466 47.7157 163.213 45.5784 163.307 43.6328C163.384 41.7549 164.124 39.7326 165.805 38.7215Z" fill="#020202"/>
<path d="M184.134 38.0938C184.857 38.1114 185.585 38.1144 186.31 38.1085C186.411 40.9474 186.257 43.7892 186.39 46.6252C186.446 47.6953 187.13 48.7772 188.212 49.0455C190.176 49.5938 192.186 47.999 192.658 46.1447C192.697 43.4738 192.682 40.8 192.658 38.1291C193.389 38.1055 194.124 38.1055 194.858 38.1055C194.943 42.2917 194.822 46.4837 194.899 50.6698C194.386 50.6816 193.873 50.6905 193.363 50.7052C193.245 50.0124 193.121 49.3226 193.012 48.6298C192.122 49.8061 190.81 50.829 189.265 50.8054C188.082 50.7612 186.694 50.9823 185.741 50.1185C184.568 49.2342 184.155 47.6924 184.132 46.2862C184.12 43.5563 184.123 40.8265 184.134 38.0938Z" fill="#020202"/>
<path d="M198.475 38.1086C198.973 38.1086 199.478 38.1145 199.985 38.1263C200.085 38.8692 200.226 39.6062 200.377 40.3402C200.866 39.6475 201.341 38.8839 202.128 38.4948C202.915 38.0025 203.874 38.088 204.761 38.1057C204.761 38.7542 204.767 39.4028 204.782 40.0513C202.883 39.8184 200.943 41.0949 200.689 43.0347C200.642 45.5788 200.678 48.1258 200.672 50.6729C199.938 50.7289 199.2 50.7318 198.469 50.6847C198.469 46.4927 198.475 42.3006 198.475 38.1086Z" fill="#020202"/>
<path d="M206.436 41.5489C206.893 39.7653 208.385 38.2884 210.216 37.9641C211.973 37.687 214.022 37.7489 215.423 38.9959C216.449 39.8892 216.817 41.2659 217 42.56V45.054C214.093 45.054 211.189 45.0599 208.285 45.0511C208.456 46.3983 208.821 47.9784 210.154 48.6417C212.171 49.5408 214.485 49.0102 216.449 48.2113C216.425 48.8481 216.434 49.4907 216.339 50.1245C214.836 50.9234 213.07 51.0296 211.401 50.95C209.535 50.8615 207.621 49.871 206.837 48.1081C205.911 46.0711 205.89 43.692 206.436 41.5489ZM209.965 40.066C208.801 40.7175 208.388 42.1031 208.308 43.353C210.505 43.2587 212.704 43.3825 214.901 43.3147C214.821 42.2505 214.783 40.9888 213.898 40.2429C212.76 39.4676 211.174 39.4499 209.965 40.066Z" fill="#020202"/>
</g>
<defs>
<clipPath id="clip0_2511_883">
<rect width="217" height="51" fill="white"/>
</clipPath>
</defs>
</svg>
