<svg width="500" height="200" viewBox="0 0 500 200" fill="none" xmlns="http://www.w3.org/2000/svg">
<path fill-rule="evenodd" clip-rule="evenodd" d="M92.5 177C134.746 177 169 142.746 169 100.5C169 58.2537 134.746 24 92.5 24C50.2537 24 16 58.2537 16 100.5C16 142.746 50.2537 177 92.5 177ZM113.571 119.547L93.7972 70.7095L83.6768 96.0365L113.571 119.547ZM98.4682 57.5789L128.933 130.861C129.245 131.743 129.452 132.574 129.452 133.145C129.452 136.363 126.805 138.594 123.847 138.594C122.394 138.594 121.252 138.023 119.643 136.726L80.1476 104.808L66.9132 137.971H55.4953L88.9187 57.5789C89.7491 55.5029 91.5655 54.3612 93.7453 54.3612C95.9251 54.3612 97.5859 55.451 98.4682 57.5789Z" fill="#1B1918"/>
<path d="M273.838 123.387C273.059 123.387 272.177 123.18 271.606 122.401L246.227 89.0296V123.024H240.466V81.1408C240.466 79.4281 241.867 78.1306 243.424 78.1306C244.359 78.1306 245.137 78.3902 245.708 79.2205L270.983 112.488V78.5977H276.744V120.429C276.744 122.038 275.498 123.335 273.889 123.387H273.838ZM307.313 123.802C301.552 123.802 295.48 122.609 289.823 120.481L291.224 115.706C296.414 117.419 302.071 118.56 307.313 118.56C314.579 118.56 318.419 115.965 318.419 112.281C318.419 108.959 315.461 107.298 305.289 102.472C295.116 97.6449 291.12 94.5828 291.12 88.6144C291.12 81.0889 296.881 78.0269 307.832 78.0269C312.347 78.0269 319.353 78.961 323.35 80.1547L322.416 85.0852C317.693 83.9434 312.814 83.3725 307.936 83.2687C300.254 83.2687 297.089 84.7219 297.089 88.4068C297.089 91.9879 299.372 93.5448 310.167 98.5272C321.533 103.821 324.44 106.468 324.44 111.917C324.388 119.858 316.862 123.802 307.313 123.802ZM337.415 78.5459H343.383V122.972H337.415V78.5459ZM383.294 102.316H368.451V117.367H383.294C388.328 117.367 391.442 114.149 391.442 109.686C391.442 105.534 388.224 102.316 383.294 102.316ZM380.387 83.113H368.451V97.3335H380.387C385.162 97.3335 388.691 94.2714 388.691 90.0157C388.691 85.8118 385.681 83.113 380.387 83.113ZM383.346 122.453H365.492C363.78 122.453 362.482 121.104 362.482 119.443V81.037C362.482 79.3762 363.831 78.0269 365.492 78.0269H380.284C389.366 78.0269 394.712 82.4902 394.712 89.4967C394.712 93.3372 392.48 96.8145 389.055 98.8905C394.141 100.447 397.514 104.651 397.514 109.686C397.566 116.796 391.702 122.453 383.346 122.453ZM415.004 121.986C413.344 121.986 411.994 120.585 411.994 118.976V77.5079H417.963V116.536H441.837V121.934L415.004 121.986ZM469.707 122.245C457.458 122.245 450.14 117.73 450.14 108.544C450.14 104.184 452.58 100.084 457.303 98.1639C453.462 95.7765 451.542 92.3511 451.542 88.6144C451.542 80.3623 457.925 76.418 469.914 76.418C474.741 76.418 479.568 76.937 484.29 77.975L483.616 82.9054C478.633 82.1269 473.962 81.6598 469.447 81.6598C461.714 81.6598 457.562 83.7877 457.562 88.9258C457.562 92.9739 461.351 96.1917 466.437 96.1917H476.661C478.062 96.1917 479.204 97.2816 479.204 98.6829V98.7348C479.204 100.188 478.114 101.33 476.661 101.33H465.607C459.846 101.33 456.161 104.184 456.161 108.596C456.161 115.083 462.129 117.003 469.603 117.003C473.651 117.003 479.204 116.484 483.719 115.395L484.55 120.273C479.723 121.571 474.741 122.245 469.759 122.297M207.769 87.3688L218.253 113.578L202.424 100.915L207.769 87.3688ZM226.349 119.598L210.261 80.2585C209.793 79.1167 208.859 78.5459 207.769 78.5459C206.628 78.5459 205.59 79.2205 205.226 80.2585L187.632 124.581L193.601 123.387L200.607 105.586L221.471 122.712C222.301 123.387 222.924 123.699 223.703 123.699C225.311 123.75 226.609 122.453 226.661 120.844V120.792C226.609 120.429 226.505 120.014 226.349 119.598Z" fill="#1B1918"/>
</svg>
