<svg width="500" height="200" viewBox="0 0 500 200" fill="none" xmlns="http://www.w3.org/2000/svg">
<g clip-path="url(#clip0_36_1367)">
<path d="M176.49 72.6363C176.49 76.752 176.935 80.089 177.716 82.5362C178.607 84.9833 179.722 87.653 181.283 90.5451C181.84 91.4349 182.063 92.3248 182.063 93.1035C182.063 94.2158 181.394 95.3282 179.945 96.4405L172.923 101.112C171.92 101.78 170.916 102.113 170.025 102.113C168.91 102.113 167.795 101.557 166.681 100.556C165.12 98.8877 163.783 97.1079 162.668 95.3282C161.553 93.4372 160.439 91.3237 159.213 88.7653C150.519 98.9989 139.595 104.116 126.442 104.116C117.079 104.116 109.611 101.446 104.15 96.1068C98.6878 90.7675 95.9012 83.6485 95.9012 74.7497C95.9012 65.2948 99.2451 57.6196 106.044 51.8354C112.844 46.0512 121.872 43.1591 133.353 43.1591C137.143 43.1591 141.044 43.4928 145.168 44.049C149.292 44.6051 153.528 45.495 157.987 46.4961V38.376C157.987 29.9221 156.203 24.0267 152.748 20.5784C149.181 17.1301 143.162 15.4616 134.579 15.4616C130.678 15.4616 126.665 15.9066 122.541 16.9077C118.417 17.9088 114.404 19.1324 110.503 20.6897C108.72 21.4683 107.382 21.9132 106.602 22.1357C105.821 22.3582 105.264 22.4694 104.818 22.4694C103.258 22.4694 102.478 21.3571 102.478 19.0211V13.5706C102.478 11.7909 102.701 10.4561 103.258 9.67742C103.815 8.89878 104.818 8.12013 106.379 7.34149C110.28 5.33927 114.962 3.67075 120.423 2.33593C125.885 0.889878 131.681 0.222469 137.812 0.222469C151.076 0.222469 160.773 3.22581 167.015 9.23248C173.146 15.2392 176.267 24.3604 176.267 36.5962V72.6363H176.49ZM131.235 89.5439C134.914 89.5439 138.703 88.8765 142.716 87.5417C146.729 86.2069 150.296 83.7597 153.305 80.4227C155.089 78.3092 156.426 75.9733 157.095 73.3037C157.764 70.634 158.21 67.4082 158.21 63.6263V58.9544C154.977 58.1758 151.522 57.5084 147.955 57.0634C144.388 56.6185 140.933 56.396 137.477 56.396C130.009 56.396 124.547 57.8421 120.869 60.8454C117.191 63.8487 115.407 68.0756 115.407 73.6374C115.407 78.8654 116.745 82.7586 119.532 85.4283C122.207 88.2091 126.108 89.5439 131.235 89.5439ZM220.741 101.557C218.734 101.557 217.397 101.224 216.505 100.445C215.613 99.7775 214.833 98.2203 214.164 96.1068L187.97 10.1224C187.302 7.89766 186.967 6.45161 186.967 5.67297C186.967 3.89321 187.859 2.8921 189.642 2.8921H200.566C202.684 2.8921 204.133 3.22581 204.913 4.00445C205.805 4.67186 206.473 6.22914 207.142 8.3426L225.868 81.98L243.256 8.3426C243.814 6.11791 244.483 4.67186 245.374 4.00445C246.266 3.33704 247.826 2.8921 249.833 2.8921H258.75C260.868 2.8921 262.317 3.22581 263.208 4.00445C264.1 4.67186 264.88 6.22914 265.326 8.3426L282.938 82.8699L302.221 8.3426C302.89 6.11791 303.67 4.67186 304.45 4.00445C305.342 3.33704 306.791 2.8921 308.797 2.8921H319.163C320.947 2.8921 321.95 3.78198 321.95 5.67297C321.95 6.22914 321.838 6.78532 321.727 7.45273C321.616 8.12013 321.393 9.01001 320.947 10.2336L294.084 96.218C293.415 98.4427 292.635 99.8888 291.743 100.556C290.852 101.224 289.402 101.669 287.508 101.669H277.922C275.804 101.669 274.355 101.335 273.463 100.556C272.571 99.7775 271.791 98.3315 271.345 96.1068L254.068 24.3604L236.903 95.9956C236.346 98.2203 235.677 99.6663 234.785 100.445C233.893 101.224 232.333 101.557 230.327 101.557H220.741ZM363.972 104.561C358.176 104.561 352.38 103.893 346.806 102.558C341.233 101.224 336.886 99.7775 333.988 98.109C332.205 97.1079 330.978 95.9956 330.533 94.9944C330.087 93.9933 329.864 92.881 329.864 91.8799V86.2069C329.864 83.871 330.756 82.7586 332.428 82.7586C333.096 82.7586 333.765 82.8699 334.434 83.0923C335.103 83.3148 336.106 83.7597 337.22 84.2047C341.01 85.8732 345.134 87.208 349.481 88.0979C353.94 88.9878 358.287 89.4327 362.746 89.4327C369.768 89.4327 375.23 88.2091 379.019 85.762C382.809 83.3148 384.816 79.7553 384.816 75.1947C384.816 72.0801 383.812 69.5217 381.806 67.4082C379.8 65.2948 376.01 63.4038 370.548 61.624L354.386 56.6185C346.249 54.0601 340.23 50.2781 336.552 45.2725C332.873 40.3782 330.978 34.9277 330.978 29.1435C330.978 24.4716 331.982 20.356 333.988 16.7964C335.994 13.2369 338.669 10.1224 342.013 7.6752C345.357 5.1168 349.147 3.22581 353.606 1.89099C358.064 0.556173 362.746 0 367.65 0C370.102 0 372.666 0.111235 375.118 0.444939C377.682 0.778643 380.023 1.22358 382.363 1.66852C384.593 2.22469 386.71 2.78087 388.717 3.44828C390.723 4.11568 392.284 4.78309 393.398 5.4505C394.959 6.34038 396.073 7.23026 396.742 8.23137C397.411 9.12125 397.745 10.3448 397.745 11.9021V17.1301C397.745 19.4661 396.854 20.6897 395.182 20.6897C394.29 20.6897 392.841 20.2447 390.946 19.3548C384.593 16.4627 377.459 15.0167 369.545 15.0167C363.192 15.0167 358.176 16.0178 354.72 18.1313C351.265 20.2447 349.481 23.4705 349.481 28.0311C349.481 31.1457 350.596 33.8154 352.825 35.9288C355.055 38.0423 359.179 40.1557 365.086 42.0467L380.914 47.0523C388.94 49.6107 394.736 53.1702 398.191 57.7308C401.647 62.2914 403.319 67.5195 403.319 73.3037C403.319 78.0868 402.315 82.4249 400.42 86.2069C398.414 89.9889 395.739 93.3259 392.284 95.9956C388.828 98.7764 384.704 100.779 379.911 102.225C374.895 103.782 369.656 104.561 363.972 104.561Z" fill="#252F3E"/>
<path fill-rule="evenodd" clip-rule="evenodd" d="M385.038 158.621C348.367 185.651 295.087 200 249.275 200C185.072 200 127.223 176.307 83.5287 136.93C80.0734 133.815 83.1943 129.589 87.3185 132.036C134.579 159.399 192.875 175.973 253.177 175.973C293.861 175.973 338.558 167.52 379.688 150.167C385.819 147.386 391.058 154.171 385.038 158.621Z" fill="#FF9900"/>
<path fill-rule="evenodd" clip-rule="evenodd" d="M400.309 141.268C395.628 135.261 369.322 138.376 357.395 139.822C353.829 140.267 353.271 137.152 356.504 134.817C377.459 120.134 411.901 124.36 415.914 129.255C419.927 134.26 414.799 168.632 395.182 185.095C392.172 187.653 389.274 186.318 390.612 182.981C395.07 171.969 404.99 147.164 400.309 141.268Z" fill="#FF9900"/>
</g>
<defs>
<clipPath id="clip0_36_1367">
<rect width="342" height="200" fill="white" transform="translate(79)"/>
</clipPath>
</defs>
</svg>
