<svg width="41" height="13" viewBox="0 0 41 13" fill="none" xmlns="http://www.w3.org/2000/svg">
<g clip-path="url(#clip0_13298_2547)">
<path fill-rule="evenodd" clip-rule="evenodd" d="M41 0H0V13H41V0ZM20.3061 2L17.4936 12.4489H15.9297L18.7422 2H20.3061ZM27.0497 5.46378H28.9162C28.8565 4.9581 28.7202 4.50923 28.5071 4.11719C28.2969 3.72514 28.0241 3.39418 27.6889 3.12429C27.3537 2.85156 26.9688 2.64418 26.5341 2.50213C26.1023 2.36009 25.6335 2.28906 25.1278 2.28906C24.3608 2.28906 23.6705 2.4652 23.0568 2.81747C22.4432 3.1669 21.9574 3.67543 21.5994 4.34304C21.2415 5.01065 21.0625 5.82031 21.0625 6.77202C21.0625 7.72088 21.2386 8.52912 21.5909 9.19673C21.946 9.86435 22.429 10.3743 23.0398 10.7266C23.6534 11.0788 24.3494 11.255 25.1278 11.255C25.6875 11.255 26.1889 11.1712 26.6321 11.0036C27.0781 10.8331 27.4616 10.603 27.7827 10.3132C28.1065 10.0206 28.3636 9.68963 28.554 9.32031C28.7472 8.94815 28.8679 8.56179 28.9162 8.16122L27.0497 8.1527C27.0071 8.38565 26.9304 8.59304 26.8196 8.77486C26.7116 8.95668 26.5753 9.11151 26.4105 9.23935C26.2457 9.36435 26.0568 9.45952 25.8438 9.52486C25.6335 9.5902 25.4048 9.62287 25.1577 9.62287C24.7173 9.62287 24.3295 9.51491 23.9943 9.29901C23.6591 9.0831 23.3977 8.76349 23.2102 8.3402C23.0256 7.9169 22.9332 7.39418 22.9332 6.77202C22.9332 6.1669 23.0256 5.6527 23.2102 5.2294C23.3949 4.80327 23.6548 4.4794 23.9901 4.25781C24.3253 4.03338 24.7188 3.92117 25.1705 3.92117C25.4205 3.92117 25.652 3.95668 25.8651 4.0277C26.081 4.09872 26.2713 4.20099 26.4361 4.33452C26.6009 4.46804 26.7358 4.62997 26.8409 4.82031C26.946 5.00781 27.0156 5.2223 27.0497 5.46378ZM30.2422 11.1355H33.3359C34.2223 11.1355 34.9837 10.9608 35.62 10.6113C36.2592 10.2619 36.7493 9.76048 37.0902 9.10707C37.4339 8.45366 37.6058 7.67241 37.6058 6.76332C37.6058 5.85707 37.4339 5.07866 37.0902 4.42809C36.7493 3.77752 36.2621 3.27894 35.6286 2.93235C34.995 2.58292 34.2393 2.4082 33.3615 2.4082H30.2422V11.1355ZM33.2592 9.55451H32.0874V3.98917H33.2635C33.8089 3.98917 34.2678 4.08576 34.6399 4.27894C35.0121 4.47212 35.2919 4.77326 35.4794 5.18235C35.6697 5.59144 35.7649 6.11843 35.7649 6.76332C35.7649 7.41389 35.6697 7.94514 35.4794 8.35707C35.2919 8.76616 35.0107 9.06871 34.6357 9.26474C34.2635 9.45792 33.8047 9.55451 33.2592 9.55451ZM15.0249 11.1355V2.4082H13.1797V11.1355H15.0249ZM11.8537 5.46378H9.98722C9.95312 5.2223 9.88352 5.00781 9.77841 4.82031C9.6733 4.62997 9.53835 4.46804 9.37358 4.33452C9.20881 4.20099 9.01847 4.09872 8.80256 4.0277C8.58949 3.95668 8.35795 3.92117 8.10795 3.92117C7.65625 3.92117 7.26278 4.03338 6.92756 4.25781C6.59233 4.4794 6.33239 4.80327 6.14773 5.2294C5.96307 5.6527 5.87074 6.1669 5.87074 6.77202C5.87074 7.39418 5.96307 7.9169 6.14773 8.3402C6.33523 8.76349 6.59659 9.0831 6.93182 9.29901C7.26705 9.51491 7.65483 9.62287 8.09517 9.62287C8.34233 9.62287 8.57102 9.5902 8.78125 9.52486C8.99432 9.45952 9.18324 9.36435 9.34801 9.23935C9.51278 9.11151 9.64915 8.95668 9.7571 8.77486C9.8679 8.59304 9.9446 8.38565 9.98722 8.1527L11.8537 8.16122C11.8054 8.56179 11.6847 8.94815 11.4915 9.32031C11.3011 9.68963 11.044 10.0206 10.7202 10.3132C10.3991 10.603 10.0156 10.8331 9.5696 11.0036C9.12642 11.1712 8.625 11.255 8.06534 11.255C7.28693 11.255 6.59091 11.0788 5.97727 10.7266C5.36648 10.3743 4.88352 9.86435 4.52841 9.19673C4.17614 8.52912 4 7.72088 4 6.77202C4 5.82031 4.17898 5.01065 4.53693 4.34304C4.89489 3.67543 5.38068 3.1669 5.99432 2.81747C6.60795 2.4652 7.2983 2.28906 8.06534 2.28906C8.57102 2.28906 9.03977 2.36009 9.47159 2.50213C9.90625 2.64418 10.2912 2.85156 10.6264 3.12429C10.9616 3.39418 11.2344 3.72514 11.4446 4.11719C11.6577 4.50923 11.794 4.9581 11.8537 5.46378Z" fill="black"/>
</g>
<defs>
<clipPath id="clip0_13298_2547">
<rect width="41" height="13" fill="white"/>
</clipPath>
</defs>
</svg>
