<svg width="500" height="200" viewBox="0 0 500 200" fill="none" xmlns="http://www.w3.org/2000/svg">
<g clip-path="url(#clip0_104_49)">
<g clip-path="url(#clip1_104_49)">
<path d="M146.639 81.3831C143.283 79.1241 134.466 78.1594 128.057 79.8873C127.713 73.5029 124.419 68.1219 118.396 63.4268L116.168 61.9309L114.682 64.1757C111.762 68.6083 110.53 74.5164 110.966 79.8873C111.31 83.1965 112.46 86.9147 114.682 89.6134C106.34 94.453 98.6491 93.354 64.5925 93.354H12.0116C11.859 101.045 13.0944 115.837 22.5009 127.879C23.5409 129.21 24.6786 130.496 25.916 131.735C33.5642 139.394 45.1199 145.011 62.3985 145.025C88.7602 145.05 111.345 130.799 125.084 96.3478C129.604 96.421 141.538 97.1578 147.379 85.8727C147.522 85.6835 148.865 82.881 148.865 82.881L146.639 81.3852V81.3831ZM46.3268 74.3516H31.5412V89.1371H46.3268V74.3516ZM65.4269 74.3516H50.6413V89.1371H65.4269V74.3516ZM84.5291 74.3516H69.7435V89.1371H84.5291V74.3516ZM103.631 74.3516H88.8457V89.1371H103.631V74.3516ZM27.2246 74.3516H12.439V89.1371H27.2246V74.3516ZM46.3268 55.6768H31.5412V70.4624H46.3268V55.6768ZM65.4269 55.6768H50.6413V70.4624H65.4269V55.6768ZM84.5291 55.6768H69.7435V70.4624H84.5291V55.6768ZM84.5291 37H69.7435V51.7856H84.5291V37Z" fill="#1D63ED"/>
<path d="M486.085 118.265C486.085 122.119 483.058 125.145 479.122 125.145C475.186 125.145 472.117 122.119 472.117 118.265C472.117 114.41 475.225 111.467 479.122 111.467C483.02 111.467 486.085 114.493 486.085 118.265ZM473.859 118.265C473.859 121.291 476.098 123.694 479.165 123.694C482.232 123.694 484.347 121.291 484.347 118.307C484.347 115.324 482.149 112.835 479.126 112.835C476.104 112.835 473.861 115.281 473.861 118.265H473.859ZM478.048 121.83H476.472V115.033C477.091 114.909 477.964 114.825 479.082 114.825C480.368 114.825 480.946 115.033 481.444 115.324C481.819 115.613 482.108 116.152 482.108 116.815C482.108 117.562 481.528 118.142 480.702 118.391V118.474C481.361 118.72 481.735 119.219 481.943 120.131C482.149 121.167 482.273 121.582 482.442 121.83H480.742C480.535 121.582 480.408 120.961 480.203 120.171C480.079 119.427 479.664 119.095 478.793 119.095H478.048V121.832V121.83ZM478.086 117.976H478.831C479.702 117.976 480.406 117.687 480.406 116.982C480.406 116.36 479.953 115.942 478.955 115.942C478.542 115.942 478.251 115.985 478.086 116.03V117.976Z" fill="#1D63ED"/>
<path d="M219.012 49.4717C218.037 48.5193 216.867 48.0349 215.464 48.0349C214.062 48.0349 212.857 48.5193 211.919 49.4717C210.979 50.4242 210.519 51.6453 210.519 53.1005V77.4005C205.696 73.4136 200.129 71.4028 193.798 71.4028C186.439 71.4028 180.146 74.0607 174.932 79.3949C169.718 84.7108 167.129 91.142 167.129 98.6844C167.129 106.227 169.736 112.64 174.932 117.974C180.146 123.29 186.422 125.966 193.798 125.966C201.173 125.966 207.381 123.308 212.664 117.974C217.878 112.711 220.467 106.282 220.467 98.6844V53.1005C220.467 51.6453 219.989 50.4242 219.012 49.4717ZM209.206 105.258V105.295C208.337 107.36 207.149 109.174 205.643 110.718C204.137 112.281 202.362 113.502 200.341 114.418C198.302 115.334 196.138 115.784 193.816 115.784C191.494 115.784 189.278 115.334 187.238 114.418C185.199 113.502 183.443 112.281 181.955 110.737C180.465 109.192 179.279 107.379 178.41 105.313C177.541 103.229 177.097 101.021 177.097 98.6844C177.097 96.348 177.541 94.1398 178.41 92.0558C179.279 89.9718 180.467 88.1767 181.955 86.632C183.445 85.0873 185.218 83.8662 187.238 82.9504C189.278 82.0346 191.459 81.5848 193.816 81.5848C196.173 81.5848 198.302 82.0346 200.341 82.9504C202.38 83.8662 204.137 85.0873 205.643 86.6504C207.149 88.2134 208.337 90.0267 209.206 92.0741C210.075 94.1398 210.519 96.3317 210.519 98.666C210.519 101 210.075 103.211 209.206 105.258Z" fill="#1D63ED"/>
<path d="M439.343 88.2132C438.048 84.9793 436.076 82.0527 433.49 79.4294L433.455 79.4111C428.188 74.0952 421.891 71.4189 414.589 71.4189C407.287 71.4189 400.935 74.0769 395.721 79.4111C390.507 84.727 387.92 91.1581 387.92 98.7005C387.92 106.243 390.527 112.656 395.721 117.99C400.935 123.306 407.213 125.982 414.589 125.982C421.289 125.982 427.087 123.774 432.018 119.355C432.973 118.35 433.455 117.129 433.455 115.708C433.455 114.288 432.995 113.032 432.053 112.08C431.115 111.127 429.926 110.643 428.507 110.643C427.268 110.68 426.167 111.093 425.229 111.919C423.739 113.211 422.125 114.2 420.371 114.848C418.614 115.495 416.699 115.818 414.609 115.818C412.763 115.818 410.991 115.531 409.308 114.939C407.62 114.347 406.045 113.537 404.643 112.479C403.222 111.418 402.001 110.163 400.955 108.671C399.909 107.197 399.111 105.563 398.58 103.768H436.296C437.694 103.768 438.864 103.284 439.841 102.331C440.818 101.379 441.297 100.158 441.297 98.7025C441.297 94.9313 440.637 91.4288 439.347 88.2132H439.343ZM398.542 93.637C399.056 91.8582 399.836 90.224 400.882 88.7342C401.93 87.2608 403.17 85.9867 404.588 84.9264C406.025 83.8661 407.584 83.0581 409.304 82.4659C411.021 81.8736 412.776 81.5867 414.589 81.5867C416.402 81.5867 418.152 81.8736 419.852 82.4659C421.555 83.0581 423.118 83.8661 424.516 84.9264C425.937 85.9867 427.176 87.2424 428.223 88.7342C429.285 90.2077 430.087 91.8419 430.636 93.637H398.539H398.542Z" fill="#1D63ED"/>
<path d="M485.692 74.8319C484.804 73.9527 483.687 73.2689 482.34 72.7662C480.992 72.2635 479.521 71.9216 477.907 71.7242C476.311 71.5268 474.803 71.4373 473.405 71.4373C470.228 71.4373 467.251 71.9583 464.45 73.0003C461.648 74.0423 459.059 75.532 456.682 77.4716V76.5028C456.682 75.1026 456.204 73.9161 455.227 72.929C454.254 71.942 453.1 71.4393 451.737 71.4393C450.373 71.4393 449.164 71.942 448.191 72.929C447.215 73.9161 446.736 75.1209 446.736 76.5028V120.921C446.736 122.321 447.215 123.507 448.191 124.494C449.164 125.481 450.334 125.984 451.737 125.984C453.139 125.984 454.271 125.481 455.227 124.494C456.204 123.507 456.682 122.302 456.682 120.921V98.7025C456.682 96.3315 457.126 94.1051 457.995 92.021C458.864 89.937 460.052 88.142 461.558 86.5973C463.069 85.0526 464.841 83.8315 466.86 82.9502C468.899 82.0527 471.065 81.603 473.389 81.603C475.713 81.603 477.907 82.0161 479.914 82.8241C480.71 83.1843 481.403 83.3634 482.006 83.3634C482.698 83.3634 483.353 83.2372 483.956 82.9686C484.558 82.6999 485.091 82.3397 485.535 81.8736C485.979 81.4076 486.331 80.8683 486.597 80.2394C486.864 79.6288 487.006 78.9633 487.006 78.2449C487.006 76.8447 486.563 75.7132 485.677 74.8319H485.694H485.692Z" fill="#1D63ED"/>
<path d="M277.487 88.2317C276.193 85.0161 274.259 82.0712 271.654 79.4133C266.389 74.0974 260.094 71.4211 252.788 71.4211C245.482 71.4211 239.136 74.0791 233.922 79.4133C228.708 84.7292 226.121 91.1603 226.121 98.7027C226.121 106.245 228.728 112.658 233.922 117.992C239.136 123.308 245.413 125.984 252.788 125.984C260.163 125.984 266.371 123.326 271.654 117.992C276.868 112.729 279.457 106.3 279.457 98.7027C279.42 94.9315 278.765 91.4473 277.489 88.2317H277.487ZM268.196 105.258V105.295C267.327 107.36 266.139 109.174 264.633 110.718C263.127 112.281 261.352 113.502 259.331 114.418C257.31 115.334 255.128 115.784 252.806 115.784C250.484 115.784 248.268 115.334 246.229 114.418C244.189 113.502 242.433 112.281 240.945 110.737C239.456 109.192 238.269 107.379 237.4 105.313C236.531 103.229 236.087 101.021 236.087 98.6844C236.087 96.348 236.531 94.1398 237.4 92.0558C238.269 89.9718 239.458 88.1767 240.945 86.632C242.435 85.0874 244.208 83.8662 246.229 82.9504C248.268 82.0346 250.45 81.5848 252.806 81.5848C255.163 81.5848 257.292 82.0346 259.331 82.9504C261.37 83.8662 263.127 85.0873 264.633 86.6504C266.139 88.2134 267.327 90.0267 268.196 92.0741C269.065 94.1398 269.509 96.3317 269.509 98.666C269.509 101 269.065 103.211 268.196 105.258Z" fill="#1D63ED"/>
<path d="M384.159 76.4846C384.159 75.8028 384.016 75.1556 383.752 74.545C383.485 73.9345 383.131 73.3789 382.687 72.9108C382.244 72.4447 381.712 72.0662 381.11 71.8159C380.507 71.5655 379.852 71.4211 379.16 71.4211C378.167 71.4211 377.28 71.6734 376.5 72.1944L348.024 91.1439V53.137C348.024 51.7002 347.546 50.4974 346.571 49.5083C345.596 48.5212 344.444 48.0186 343.079 48.0186C341.713 48.0186 340.508 48.5212 339.531 49.5083C338.556 50.4954 338.078 51.7002 338.078 53.137V120.849C338.078 122.25 338.556 123.454 339.531 124.46C340.506 125.465 341.676 125.968 343.079 125.968C344.481 125.968 345.614 125.465 346.571 124.46C347.546 123.454 348.024 122.25 348.024 120.849V103.265L353.841 99.3681L375.845 124.639C376.732 125.518 377.85 125.95 379.179 125.95C379.87 125.95 380.526 125.823 381.128 125.555C381.731 125.302 382.264 124.926 382.705 124.46C383.149 123.994 383.503 123.454 383.77 122.826C384.036 122.215 384.177 121.549 384.177 120.886C384.177 119.557 383.717 118.371 382.793 117.331L362.313 93.749L382.26 80.4939C383.536 79.6147 384.157 78.2674 384.157 76.452V76.4886L384.159 76.4846Z" fill="#1D63ED"/>
<path d="M299.849 86.5975C301.373 85.0528 303.148 83.8316 305.187 82.9504C307.226 82.0529 309.39 81.6031 311.712 81.6031C313.804 81.6031 315.737 81.9634 317.528 82.6797C319.301 83.3982 321.004 84.4585 322.616 85.8404C323.573 86.6117 324.656 87.0065 325.86 87.0065C327.297 87.0065 328.467 86.5221 329.408 85.5514C330.348 84.5806 330.808 83.3595 330.808 81.9043C330.808 80.4492 330.24 79.1019 329.088 78.0619C324.194 73.6435 318.397 71.4333 311.712 71.4333C304.353 71.4333 298.06 74.0913 292.846 79.4255C287.632 84.7414 285.045 91.1725 285.045 98.7149C285.045 106.257 287.652 112.67 292.846 118.004C298.06 123.32 304.336 125.996 311.712 125.996C318.379 125.996 324.177 123.788 329.088 119.368C330.134 118.291 330.667 117.052 330.667 115.615C330.667 114.178 330.205 112.939 329.267 111.986C328.327 111.034 327.141 110.549 325.722 110.549C324.517 110.586 323.469 110.944 322.584 111.626C320.988 113.026 319.321 114.068 317.53 114.768C315.758 115.468 313.824 115.81 311.714 115.81C309.392 115.81 307.228 115.361 305.189 114.463C303.15 113.566 301.377 112.344 299.851 110.818C298.326 109.292 297.12 107.46 296.251 105.394C295.382 103.31 294.938 101.084 294.938 98.7129C294.938 96.3419 295.382 94.1154 296.251 92.0314C297.12 89.9473 298.324 88.1523 299.851 86.6076V86.5893L299.849 86.5975Z" fill="#1D63ED"/>
</g>
<path d="M182.42 158.109C182.42 163.195 183.04 166.849 184.279 169.071C185.519 171.251 187.356 172.341 189.792 172.341C191.331 172.341 192.677 172.234 193.831 172.02C194.985 171.764 196.032 171.636 196.972 171.636C198.682 171.636 199.921 171.999 200.691 172.725C201.46 173.409 201.845 174.307 201.845 175.418C201.845 176.871 201.31 177.982 200.242 178.752C199.216 179.521 197.891 180.055 196.267 180.354C194.686 180.653 193.062 180.803 191.395 180.803C186.779 180.803 183.104 179.948 180.369 178.239C177.676 176.529 175.731 174.008 174.535 170.674C173.381 167.298 172.804 163.109 172.804 158.109C172.804 153.108 173.381 148.877 174.535 145.415C175.731 141.911 177.676 139.261 180.369 137.466C183.104 135.671 186.779 134.773 191.395 134.773C193.062 134.773 194.686 134.923 196.267 135.222C197.891 135.521 199.216 136.056 200.242 136.825C201.31 137.594 201.845 138.705 201.845 140.158C201.845 141.227 201.46 142.124 200.691 142.851C199.921 143.578 198.682 143.941 196.972 143.941C196.032 143.941 194.985 143.834 193.831 143.62C192.677 143.364 191.331 143.236 189.792 143.236C186.801 143.236 184.813 144.454 183.83 146.89C182.89 149.283 182.42 153.023 182.42 158.109ZM223.422 180.867C219.704 180.867 216.541 180.141 213.934 178.687C211.327 177.192 209.34 174.755 207.972 171.379C206.647 168.003 205.985 163.43 205.985 157.66C205.985 151.89 206.647 147.339 207.972 144.005C209.34 140.671 211.327 138.299 213.934 136.889C216.541 135.479 219.704 134.773 223.422 134.773C227.183 134.773 230.346 135.479 232.91 136.889C235.517 138.299 237.483 140.671 238.808 144.005C240.176 147.339 240.859 151.89 240.859 157.66C240.859 163.43 240.176 168.003 238.808 171.379C237.483 174.755 235.517 177.192 232.91 178.687C230.346 180.141 227.183 180.867 223.422 180.867ZM223.422 172.405C225.132 172.405 226.585 171.999 227.781 171.187C229.021 170.375 229.961 168.9 230.602 166.763C231.286 164.626 231.628 161.592 231.628 157.66C231.628 153.685 231.286 150.672 230.602 148.621C229.961 146.527 229.021 145.116 227.781 144.39C226.585 143.62 225.132 143.236 223.422 143.236C221.755 143.236 220.302 143.62 219.063 144.39C217.823 145.116 216.862 146.527 216.178 148.621C215.537 150.672 215.216 153.685 215.216 157.66C215.216 161.592 215.537 164.626 216.178 166.763C216.862 168.9 217.823 170.375 219.063 171.187C220.302 171.999 221.755 172.405 223.422 172.405ZM257.441 176.572C257.441 179.435 255.945 180.867 252.953 180.867C251.5 180.867 250.346 180.504 249.492 179.777C248.637 179.051 248.209 177.982 248.209 176.572V151.377C248.209 147.36 248.744 144.155 249.812 141.761C250.881 139.325 252.633 137.551 255.069 136.44C257.505 135.329 260.753 134.773 264.813 134.773C270.198 134.773 274.259 136.034 276.994 138.556C279.772 141.035 281.161 145.309 281.161 151.377V176.572C281.161 179.435 279.665 180.867 276.673 180.867C275.22 180.867 274.066 180.504 273.212 179.777C272.357 179.051 271.929 177.982 271.929 176.572V151.377C271.929 148.215 271.374 145.971 270.263 144.646C269.194 143.278 267.378 142.595 264.813 142.595C262.805 142.595 261.266 142.894 260.198 143.492C259.129 144.09 258.403 145.031 258.018 146.313C257.633 147.595 257.441 149.283 257.441 151.377V176.572ZM300.552 180.867C299.483 180.867 298.393 180.632 297.282 180.162C296.214 179.649 295.679 178.837 295.679 177.726V147.723C295.679 146.356 296.021 145.415 296.705 144.902C297.389 144.39 297.945 144.069 298.372 143.941H285.999C284.973 143.941 284.204 143.492 283.691 142.595C283.221 141.654 282.986 140.693 282.986 139.71C282.986 138.641 283.242 137.68 283.755 136.825C284.268 135.927 285.016 135.479 285.999 135.479H314.655C315.638 135.479 316.386 135.927 316.899 136.825C317.412 137.68 317.668 138.641 317.668 139.71C317.668 140.693 317.412 141.654 316.899 142.595C316.429 143.492 315.681 143.941 314.655 143.941H304.911V177.726C304.911 178.794 304.462 179.585 303.565 180.098C302.71 180.611 301.706 180.867 300.552 180.867ZM328.874 176.572C328.874 179.435 327.378 180.867 324.386 180.867C322.933 180.867 321.779 180.504 320.924 179.777C320.07 179.051 319.642 177.982 319.642 176.572V151.185C319.642 145.287 320.839 141.077 323.232 138.556C325.626 136.034 329.365 134.773 334.451 134.773C339.665 134.773 343.512 136.056 345.991 138.62C348.47 141.184 349.709 145.373 349.709 151.185V176.572C349.709 179.435 348.213 180.867 345.221 180.867C343.768 180.867 342.614 180.504 341.76 179.777C340.905 179.051 340.477 177.982 340.477 176.572V161.122C339.665 161.848 338.768 162.468 337.785 162.981C336.845 163.494 335.733 163.75 334.451 163.75C332.571 163.75 331.16 164.092 330.22 164.776C329.323 165.46 328.874 166.678 328.874 168.43V176.572ZM328.489 157.788C329.173 157.104 329.985 156.57 330.925 156.186C331.908 155.801 333.084 155.609 334.451 155.609C336.075 155.609 337.315 155.48 338.17 155.224C339.067 154.967 339.687 154.476 340.029 153.749C340.371 153.023 340.541 151.954 340.541 150.544C340.541 147.381 340.093 145.223 339.195 144.069C338.298 142.872 336.695 142.274 334.387 142.274C332.25 142.274 330.776 142.894 329.964 144.133C329.194 145.33 328.81 147.552 328.81 150.8C328.81 152.467 328.788 153.878 328.746 155.032C328.703 156.186 328.617 157.104 328.489 157.788ZM363.147 180.867C359.984 180.867 358.403 179.435 358.403 176.572V139.069C358.403 137.573 358.766 136.483 359.492 135.799C360.219 135.115 361.373 134.773 362.954 134.773C366.074 134.773 367.634 136.205 367.634 139.069V176.572C367.634 178.025 367.271 179.115 366.544 179.841C365.861 180.525 364.728 180.867 363.147 180.867ZM385.657 176.572C385.657 179.435 384.161 180.867 381.169 180.867C379.716 180.867 378.562 180.504 377.708 179.777C376.853 179.051 376.425 177.982 376.425 176.572V151.377C376.425 147.36 376.96 144.155 378.028 141.761C379.097 139.325 380.849 137.551 383.285 136.44C385.721 135.329 388.969 134.773 393.029 134.773C398.415 134.773 402.475 136.034 405.21 138.556C407.988 141.035 409.377 145.309 409.377 151.377V176.572C409.377 179.435 407.881 180.867 404.889 180.867C403.436 180.867 402.282 180.504 401.428 179.777C400.573 179.051 400.145 177.982 400.145 176.572V151.377C400.145 148.215 399.59 145.971 398.479 144.646C397.41 143.278 395.594 142.595 393.029 142.595C391.021 142.595 389.482 142.894 388.414 143.492C387.345 144.09 386.619 145.031 386.234 146.313C385.849 147.595 385.657 149.283 385.657 151.377V176.572ZM420.951 180.354C420.138 180.354 419.455 180.034 418.899 179.393C418.343 178.752 418.066 177.94 418.066 176.957V146.954C418.066 142.937 419.305 140.03 421.784 138.235C424.263 136.397 428.259 135.479 433.772 135.479H441.786C443.196 135.479 444.286 135.863 445.055 136.633C445.867 137.359 446.273 138.406 446.273 139.774C446.273 141.099 445.867 142.124 445.055 142.851C444.286 143.578 443.196 143.941 441.786 143.941H433.323C431.186 143.941 429.648 144.368 428.708 145.223C427.767 146.078 427.297 147.467 427.297 149.39C427.297 150.074 427.254 150.929 427.169 151.954C427.084 152.937 426.955 154.07 426.784 155.352C427.511 154.754 428.43 154.284 429.541 153.942C430.652 153.557 431.742 153.365 432.811 153.365H439.157C440.354 153.365 441.273 153.728 441.914 154.455C442.598 155.181 442.94 156.186 442.94 157.468C442.94 158.75 442.598 159.776 441.914 160.545C441.23 161.314 440.311 161.699 439.157 161.699H432.298C430.332 161.699 429.007 162.105 428.323 162.917C427.639 163.686 427.297 165.267 427.297 167.661V171.892H441.786C443.367 171.892 444.5 172.234 445.183 172.918C445.91 173.602 446.273 174.713 446.273 176.251C446.273 177.704 445.931 178.752 445.247 179.393C444.564 180.034 443.41 180.354 441.786 180.354H420.951ZM457.235 180.739C455.782 180.739 454.628 180.418 453.773 179.777C452.919 179.093 452.491 178.132 452.491 176.892V149.198C452.491 144.24 453.795 140.607 456.402 138.299C459.052 135.949 463.176 134.773 468.775 134.773C473.348 134.773 476.831 135.927 479.224 138.235C481.66 140.5 482.878 143.791 482.878 148.108C482.878 149.604 482.836 151.057 482.75 152.467C482.665 153.835 482.537 154.796 482.366 155.352C481.724 157.703 480.549 159.498 478.84 160.737C481.147 162.66 482.301 164.883 482.301 167.404V176.892C482.301 179.542 480.827 180.867 477.878 180.867C476.425 180.867 475.271 180.547 474.416 179.905C473.561 179.222 473.134 178.217 473.134 176.892V168.43C473.134 166.122 472.771 164.498 472.044 163.558C471.36 162.618 469.95 162.148 467.813 162.148C465.505 162.148 463.902 162.66 463.005 163.686C462.15 164.669 461.723 166.507 461.723 169.199V176.892C461.723 179.457 460.227 180.739 457.235 180.739ZM461.21 156.891C462.278 155.993 463.219 155.416 464.031 155.16C464.885 154.861 466.103 154.711 467.685 154.711C469.822 154.711 471.382 154.604 472.365 154.39C473.39 154.177 474.053 153.728 474.352 153.044C474.651 152.36 474.801 151.292 474.801 149.839C474.801 146.933 474.352 144.924 473.455 143.813C472.6 142.659 471.04 142.082 468.775 142.082C466.253 142.082 464.458 142.659 463.39 143.813C462.364 144.967 461.851 146.975 461.851 149.839C461.851 151.249 461.787 152.51 461.659 153.621C461.573 154.69 461.424 155.779 461.21 156.891Z" fill="#1D63ED"/>
</g>
<defs>
<clipPath id="clip0_104_49">
<rect width="500" height="200" fill="white"/>
</clipPath>
<clipPath id="clip1_104_49">
<rect width="475" height="108.025" fill="white" transform="translate(12 37)"/>
</clipPath>
</defs>
</svg>
