<svg width="198" height="45" viewBox="0 0 198 45" fill="none" xmlns="http://www.w3.org/2000/svg">
<mask id="mask0_379_1231" style="mask-type:luminance" maskUnits="userSpaceOnUse" x="0" y="0" width="198" height="45">
<path d="M197.871 0H0V45H197.871V0Z" fill="white"/>
</mask>
<g mask="url(#mask0_379_1231)">
<path d="M56.0866 18.4887C54.6886 17.5476 51.0157 17.1458 48.3459 17.8656C48.2026 15.206 46.8304 12.9645 44.3214 11.0086L43.3933 10.3855L42.7743 11.3206C41.5579 13.1671 41.0447 15.6282 41.2263 17.8656C41.3696 19.2441 41.8487 20.793 42.7743 21.9172C39.2993 23.9332 36.0955 23.4754 21.9085 23.4754H0.0048474C-0.0587212 26.6792 0.45591 32.8411 4.37438 37.8575C4.80761 38.4119 5.28154 38.9476 5.79701 39.4638C8.98302 42.6543 13.7968 44.9942 20.9945 45C31.976 45.0104 41.3842 39.0739 47.1074 24.7225C48.9903 24.753 53.9617 25.0599 56.3949 20.3589C56.4544 20.2801 57.0139 19.1127 57.0139 19.1127L56.0866 18.4896V18.4887ZM14.2995 15.5596H8.1403V21.7188H14.2995V15.5596ZM22.2561 15.5596H16.0968V21.7188H22.2561V15.5596ZM30.2135 15.5596H24.0542V21.7188H30.2135V15.5596ZM38.1708 15.5596H32.0117V21.7188H38.1708V15.5596ZM6.34213 15.5596H0.18289V21.7188H6.34213V15.5596ZM14.2995 7.7802H8.1403V13.9394H14.2995V7.7802ZM22.2561 7.7802H16.0968V13.9394H22.2561V7.7802ZM30.2135 7.7802H24.0542V13.9394H30.2135V7.7802ZM30.2135 0H24.0542V6.15924H30.2135V0Z" fill="#1D63ED"/>
<path d="M197.491 33.8526C197.491 35.4581 196.23 36.7186 194.59 36.7186C192.95 36.7186 191.672 35.4581 191.672 33.8526C191.672 32.2467 192.967 31.0208 194.59 31.0208C196.214 31.0208 197.491 32.2813 197.491 33.8526ZM192.398 33.8526C192.398 35.1131 193.33 36.1142 194.608 36.1142C195.885 36.1142 196.767 35.1131 196.767 33.8701C196.767 32.6275 195.851 31.5906 194.592 31.5906C193.333 31.5906 192.398 32.6095 192.398 33.8526H192.398ZM194.143 35.3377H193.486V32.5062C193.744 32.4546 194.108 32.4196 194.573 32.4196C195.109 32.4196 195.35 32.5062 195.557 32.6275C195.713 32.7478 195.834 32.9724 195.834 33.2486C195.834 33.5597 195.592 33.8014 195.248 33.9051V33.9397C195.523 34.0421 195.678 34.25 195.765 34.6299C195.851 35.0615 195.903 35.2344 195.973 35.3377H195.265C195.179 35.2344 195.126 34.9757 195.04 34.6466C194.989 34.3366 194.816 34.1983 194.453 34.1983H194.143V35.3385V35.3377ZM194.158 33.7322H194.469C194.832 33.7322 195.125 33.6118 195.125 33.3181C195.125 33.059 194.936 32.8849 194.52 32.8849C194.348 32.8849 194.227 32.9028 194.158 32.9216V33.7322Z" fill="#1D63ED"/>
<path d="M86.234 5.19533C85.8279 4.79859 85.3405 4.5968 84.756 4.5968C84.172 4.5968 83.67 4.79859 83.2793 5.19533C82.8877 5.59211 82.6961 6.10079 82.6961 6.70698V16.8296C80.687 15.1688 78.3679 14.3312 75.7306 14.3312C72.6651 14.3312 70.0436 15.4384 67.8716 17.6604C65.6996 19.8749 64.6211 22.5539 64.6211 25.6959C64.6211 28.8379 65.7071 31.5094 67.8716 33.7314C70.0436 35.9458 72.658 37.0606 75.7306 37.0606C78.8028 37.0606 81.3889 35.9533 83.5896 33.7314C85.7616 31.5389 86.8401 28.8608 86.8401 25.6959V6.70698C86.8401 6.10079 86.641 5.59211 86.234 5.19533ZM82.1491 28.4342V28.4497C81.7871 29.3099 81.2922 30.0655 80.6649 30.7087C80.0375 31.3598 79.2981 31.8684 78.4562 32.25C77.6068 32.6316 76.7054 32.8191 75.7381 32.8191C74.7708 32.8191 73.8477 32.6316 72.9979 32.25C72.1485 31.8684 71.417 31.3598 70.7972 30.7166C70.1765 30.073 69.6824 29.3178 69.3204 28.4572C68.9584 27.589 68.7735 26.6692 68.7735 25.6959C68.7735 24.7226 68.9584 23.8027 69.3204 22.9346C69.6824 22.0665 70.1773 21.3187 70.7972 20.6752C71.4179 20.0317 72.1564 19.5231 72.9979 19.1416C73.8477 18.7601 74.7562 18.5727 75.7381 18.5727C76.72 18.5727 77.6068 18.7601 78.4562 19.1416C79.3056 19.5231 80.0375 20.0317 80.6649 20.6829C81.2922 21.334 81.7871 22.0893 82.1491 22.9422C82.5111 23.8027 82.6961 24.7158 82.6961 25.6882C82.6961 26.6605 82.5111 27.5815 82.1491 28.4342Z" fill="#1D63ED"/>
<path d="M178.018 21.334C177.479 19.9869 176.657 18.7677 175.58 17.6749L175.565 17.6673C173.371 15.4529 170.748 14.338 167.706 14.338C164.664 14.338 162.018 15.4453 159.846 17.6673C157.674 19.8818 156.597 22.5608 156.597 25.7027C156.597 28.8447 157.683 31.5162 159.846 33.7381C162.018 35.9526 164.634 37.0674 167.706 37.0674C170.497 37.0674 172.912 36.1476 174.967 34.3068C175.364 33.8881 175.565 33.3795 175.565 32.7875C175.565 32.196 175.374 31.6728 174.981 31.2762C174.59 30.8792 174.095 30.6776 173.504 30.6776C172.988 30.693 172.529 30.8651 172.138 31.2091C171.518 31.7474 170.845 32.1593 170.115 32.4293C169.383 32.6988 168.585 32.8334 167.715 32.8334C166.946 32.8334 166.207 32.7138 165.506 32.4672C164.803 32.2206 164.147 31.8832 163.563 31.4424C162.971 31.0004 162.462 30.4776 162.027 29.8561C161.591 29.2421 161.259 28.5614 161.037 27.8137H176.749C177.331 27.8137 177.818 27.6121 178.225 27.2151C178.632 26.8185 178.832 26.3099 178.832 25.7035C178.832 24.1326 178.557 22.6735 178.02 21.334H178.018ZM161.021 23.5934C161.236 22.8524 161.561 22.1717 161.996 21.5511C162.433 20.9373 162.949 20.4065 163.54 19.9648C164.139 19.5231 164.788 19.1866 165.505 18.9399C166.22 18.6931 166.951 18.5736 167.706 18.5736C168.461 18.5736 169.19 18.6931 169.899 18.9399C170.608 19.1866 171.259 19.5231 171.841 19.9648C172.433 20.4065 172.95 20.9296 173.386 21.5511C173.828 22.1649 174.162 22.8456 174.391 23.5934H161.02H161.021Z" fill="#1D63ED"/>
<path d="M197.327 15.7597C196.957 15.3934 196.491 15.1086 195.93 14.8992C195.369 14.6897 194.756 14.5473 194.084 14.4651C193.419 14.3829 192.791 14.3456 192.208 14.3456C190.885 14.3456 189.645 14.5626 188.478 14.9967C187.311 15.4307 186.232 16.0513 185.242 16.8593V16.4557C185.242 15.8724 185.043 15.3782 184.636 14.967C184.23 14.5558 183.75 14.3464 183.182 14.3464C182.614 14.3464 182.11 14.5558 181.705 14.967C181.298 15.3782 181.099 15.8801 181.099 16.4557V34.959C181.099 35.5422 181.298 36.0363 181.705 36.4474C182.11 36.8586 182.597 37.0681 183.182 37.0681C183.766 37.0681 184.237 36.8586 184.636 36.4474C185.043 36.0363 185.242 35.5343 185.242 34.959V25.7035C185.242 24.7158 185.427 23.7883 185.789 22.9201C186.151 22.052 186.646 21.3043 187.273 20.6608C187.902 20.0173 188.641 19.5086 189.482 19.1415C190.331 18.7676 191.233 18.5803 192.201 18.5803C193.17 18.5803 194.084 18.7524 194.92 19.089C195.251 19.239 195.54 19.3136 195.791 19.3136C196.079 19.3136 196.352 19.2611 196.603 19.1492C196.854 19.0372 197.076 18.8872 197.261 18.693C197.446 18.4989 197.593 18.2743 197.704 18.0123C197.815 17.7579 197.874 17.4807 197.874 17.1814C197.874 16.5981 197.689 16.1268 197.32 15.7597H197.327H197.327Z" fill="#1D63ED"/>
<path d="M110.595 21.3417C110.056 20.0021 109.25 18.7754 108.165 17.6682C105.972 15.4537 103.349 14.3389 100.306 14.3389C97.2625 14.3389 94.6189 15.4461 92.4469 17.6682C90.2749 19.8826 89.1973 22.5616 89.1973 25.7036C89.1973 28.8455 90.2833 31.5169 92.4469 33.7389C94.6189 35.9534 97.2337 37.0681 100.306 37.0681C103.378 37.0681 105.964 35.9609 108.165 33.7389C110.337 31.5465 111.415 28.8684 111.415 25.7036C111.4 24.1326 111.127 22.6812 110.596 21.3417H110.595ZM106.724 28.4343V28.4497C106.362 29.3099 105.868 30.0656 105.24 30.7088C104.613 31.3599 103.873 31.8685 103.032 32.2501C102.19 32.6317 101.281 32.8191 100.313 32.8191C99.3462 32.8191 98.423 32.6317 97.5737 32.2501C96.7239 31.8685 95.9924 31.3599 95.3725 30.7167C94.7522 30.0731 94.2578 29.3179 93.8958 28.4572C93.5338 27.5891 93.3488 26.6693 93.3488 25.6959C93.3488 24.7227 93.5338 23.8028 93.8958 22.9347C94.2578 22.0665 94.7531 21.3188 95.3725 20.6753C95.9932 20.0318 96.7318 19.5231 97.5737 19.1416C98.423 18.7601 99.332 18.5728 100.313 18.5728C101.295 18.5728 102.182 18.7601 103.032 19.1416C103.881 19.5231 104.613 20.0318 105.24 20.6829C105.868 21.334 106.362 22.0894 106.724 22.9423C107.086 23.8028 107.271 24.7159 107.271 25.6883C107.271 26.6606 107.086 27.5816 106.724 28.4343Z" fill="#1D63ED"/>
<path d="M155.031 16.4482C155.031 16.1642 154.971 15.8946 154.861 15.6402C154.75 15.3859 154.603 15.1544 154.418 14.9594C154.233 14.7653 154.012 14.6076 153.761 14.5033C153.51 14.399 153.237 14.3389 152.949 14.3389C152.535 14.3389 152.165 14.444 151.84 14.661L139.978 22.5548V6.72226C139.978 6.12373 139.779 5.62268 139.373 5.21065C138.967 4.79946 138.487 4.59009 137.918 4.59009C137.349 4.59009 136.847 4.79946 136.44 5.21065C136.034 5.62185 135.835 6.12373 135.835 6.72226V34.9291C135.835 35.5127 136.034 36.0142 136.44 36.4333C136.846 36.852 137.334 37.0615 137.918 37.0615C138.502 37.0615 138.974 36.852 139.373 36.4333C139.779 36.0142 139.978 35.5127 139.978 34.9291V27.6041L142.401 25.9808L151.568 36.5079C151.937 36.874 152.403 37.054 152.956 37.054C153.244 37.054 153.518 37.0011 153.768 36.8894C154.019 36.7841 154.242 36.6274 154.425 36.4333C154.61 36.2392 154.758 36.0142 154.869 35.7526C154.98 35.4981 155.038 35.2207 155.038 34.9445C155.038 34.3909 154.847 33.8968 154.462 33.4636L145.931 23.64L154.24 18.1183C154.771 17.7521 155.03 17.1908 155.03 16.4346V16.4498L155.031 16.4482Z" fill="#1D63ED"/>
<path d="M119.909 20.6608C120.544 20.0174 121.283 19.5086 122.133 19.1416C122.982 18.7677 123.884 18.5803 124.851 18.5803C125.722 18.5803 126.528 18.7304 127.274 19.0288C128.012 19.3281 128.722 19.7698 129.393 20.3454C129.792 20.6667 130.243 20.8312 130.744 20.8312C131.343 20.8312 131.83 20.6294 132.222 20.2251C132.614 19.8206 132.806 19.312 132.806 18.7058C132.806 18.0996 132.569 17.5384 132.089 17.1051C130.05 15.2646 127.636 14.3439 124.851 14.3439C121.785 14.3439 119.164 15.4511 116.992 17.6732C114.82 19.8876 113.742 22.5666 113.742 25.7086C113.742 28.8504 114.828 31.5219 116.992 33.7438C119.164 35.9583 121.778 37.0731 124.851 37.0731C127.628 37.0731 130.043 36.1533 132.089 34.312C132.525 33.8634 132.747 33.3473 132.747 32.7487C132.747 32.15 132.554 31.6339 132.164 31.2369C131.772 30.8403 131.278 30.6383 130.687 30.6383C130.185 30.6537 129.748 30.8029 129.38 31.087C128.715 31.6702 128.021 32.1042 127.274 32.3958C126.536 32.6874 125.731 32.8299 124.852 32.8299C123.884 32.8299 122.983 32.6428 122.134 32.2688C121.284 31.8951 120.546 31.3861 119.91 30.7504C119.275 30.1147 118.772 29.3515 118.41 28.4909C118.048 27.6228 117.863 26.6955 117.863 25.7077C117.863 24.7201 118.048 23.7926 118.41 22.9244C118.772 22.0563 119.274 21.3085 119.91 20.665V20.6574L119.909 20.6608Z" fill="#1D63ED"/>
</g>
</svg>
