<svg width="92" height="115" viewBox="0 0 92 115" fill="none" xmlns="http://www.w3.org/2000/svg">
<path d="M1.89347 111V99.3636H5.82528C6.73816 99.3636 7.48438 99.5284 8.06392 99.858C8.64725 100.184 9.07907 100.625 9.35938 101.182C9.63968 101.739 9.77983 102.36 9.77983 103.045C9.77983 103.731 9.63968 104.354 9.35938 104.915C9.08286 105.475 8.65483 105.922 8.07528 106.256C7.49574 106.585 6.75331 106.75 5.84801 106.75H3.02983V105.5H5.80256C6.42756 105.5 6.92945 105.392 7.30824 105.176C7.68703 104.96 7.96165 104.669 8.1321 104.301C8.30634 103.93 8.39347 103.511 8.39347 103.045C8.39347 102.58 8.30634 102.163 8.1321 101.795C7.96165 101.428 7.68513 101.14 7.30256 100.932C6.91998 100.72 6.41241 100.614 5.77983 100.614H3.30256V111H1.89347ZM11.8679 111V102.273H13.1634V103.591H13.2543C13.4134 103.159 13.7012 102.809 14.1179 102.54C14.5346 102.271 15.0043 102.136 15.527 102.136C15.6255 102.136 15.7486 102.138 15.8963 102.142C16.044 102.146 16.1558 102.152 16.2315 102.159V103.523C16.1861 103.511 16.0819 103.494 15.919 103.472C15.7599 103.445 15.5914 103.432 15.4134 103.432C14.9891 103.432 14.6103 103.521 14.277 103.699C13.9474 103.873 13.6861 104.116 13.4929 104.426C13.3035 104.733 13.2088 105.083 13.2088 105.477V111H11.8679ZM21.1009 111.182C20.313 111.182 19.6217 110.994 19.027 110.619C18.4361 110.244 17.974 109.72 17.6406 109.045C17.3111 108.371 17.1463 107.583 17.1463 106.682C17.1463 105.773 17.3111 104.979 17.6406 104.301C17.974 103.623 18.4361 103.097 19.027 102.722C19.6217 102.347 20.313 102.159 21.1009 102.159C21.8887 102.159 22.5781 102.347 23.169 102.722C23.7637 103.097 24.2259 103.623 24.5554 104.301C24.8887 104.979 25.0554 105.773 25.0554 106.682C25.0554 107.583 24.8887 108.371 24.5554 109.045C24.2259 109.72 23.7637 110.244 23.169 110.619C22.5781 110.994 21.8887 111.182 21.1009 111.182ZM21.1009 109.977C21.6993 109.977 22.1918 109.824 22.5781 109.517C22.9645 109.21 23.2505 108.807 23.4361 108.307C23.6217 107.807 23.7145 107.265 23.7145 106.682C23.7145 106.098 23.6217 105.555 23.4361 105.051C23.2505 104.547 22.9645 104.14 22.5781 103.83C22.1918 103.519 21.6993 103.364 21.1009 103.364C20.5024 103.364 20.0099 103.519 19.6236 103.83C19.2372 104.14 18.9512 104.547 18.7656 105.051C18.58 105.555 18.4872 106.098 18.4872 106.682C18.4872 107.265 18.58 107.807 18.7656 108.307C18.9512 108.807 19.2372 109.21 19.6236 109.517C20.0099 109.824 20.5024 109.977 21.1009 109.977ZM27.1023 111V102.273H28.3977V103.636H28.5114C28.6932 103.17 28.9867 102.809 29.392 102.551C29.7973 102.29 30.2841 102.159 30.8523 102.159C31.428 102.159 31.9072 102.29 32.2898 102.551C32.6761 102.809 32.9773 103.17 33.1932 103.636H33.2841C33.5076 103.186 33.8428 102.828 34.2898 102.562C34.7367 102.294 35.2727 102.159 35.8977 102.159C36.678 102.159 37.3163 102.403 37.8125 102.892C38.3087 103.377 38.5568 104.133 38.5568 105.159V111H37.2159V105.159C37.2159 104.515 37.0398 104.055 36.6875 103.778C36.3352 103.502 35.9205 103.364 35.4432 103.364C34.8295 103.364 34.3542 103.549 34.017 103.92C33.6799 104.288 33.5114 104.754 33.5114 105.318V111H32.1477V105.023C32.1477 104.527 31.9867 104.127 31.6648 103.824C31.3428 103.517 30.928 103.364 30.4205 103.364C30.072 103.364 29.7462 103.456 29.4432 103.642C29.1439 103.828 28.9015 104.085 28.7159 104.415C28.5341 104.741 28.4432 105.117 28.4432 105.545V111H27.1023ZM44.6676 111.182C43.8267 111.182 43.1013 110.996 42.4915 110.625C41.8854 110.25 41.4176 109.727 41.0881 109.057C40.7623 108.383 40.5994 107.598 40.5994 106.705C40.5994 105.811 40.7623 105.023 41.0881 104.341C41.4176 103.655 41.8759 103.121 42.4631 102.739C43.054 102.352 43.7434 102.159 44.5312 102.159C44.9858 102.159 45.4347 102.235 45.8778 102.386C46.321 102.538 46.7244 102.784 47.0881 103.125C47.4517 103.462 47.7415 103.909 47.9574 104.466C48.1733 105.023 48.2812 105.708 48.2812 106.523V107.091H41.554V105.932H46.9176C46.9176 105.439 46.8191 105 46.6222 104.614C46.429 104.227 46.1525 103.922 45.7926 103.699C45.4366 103.475 45.0161 103.364 44.5312 103.364C43.9972 103.364 43.535 103.496 43.1449 103.761C42.7585 104.023 42.4612 104.364 42.2528 104.784C42.0445 105.205 41.9403 105.655 41.9403 106.136V106.909C41.9403 107.568 42.054 108.127 42.2812 108.585C42.5123 109.04 42.8324 109.386 43.2415 109.625C43.6506 109.86 44.1259 109.977 44.6676 109.977C45.0199 109.977 45.3381 109.928 45.6222 109.83C45.91 109.727 46.1581 109.576 46.3665 109.375C46.5748 109.17 46.7358 108.917 46.8494 108.614L48.1449 108.977C48.0085 109.417 47.7794 109.803 47.4574 110.136C47.1354 110.466 46.7377 110.723 46.2642 110.909C45.7907 111.091 45.2585 111.182 44.6676 111.182ZM54.1165 102.273V103.409H49.5938V102.273H54.1165ZM50.9119 100.182H52.2528V108.5C52.2528 108.879 52.3078 109.163 52.4176 109.352C52.5313 109.538 52.6752 109.663 52.8494 109.727C53.0275 109.788 53.215 109.818 53.4119 109.818C53.5597 109.818 53.6809 109.811 53.7756 109.795C53.8703 109.777 53.946 109.761 54.0028 109.75L54.2756 110.955C54.1847 110.989 54.0578 111.023 53.8949 111.057C53.732 111.095 53.5256 111.114 53.2756 111.114C52.8968 111.114 52.5256 111.032 52.1619 110.869C51.8021 110.706 51.5028 110.458 51.2642 110.125C51.0294 109.792 50.9119 109.371 50.9119 108.864V100.182ZM57.6619 105.75V111H56.321V99.3636H57.6619V103.636H57.7756C57.9801 103.186 58.2869 102.828 58.696 102.562C59.1089 102.294 59.6581 102.159 60.3438 102.159C60.9384 102.159 61.4593 102.278 61.9062 102.517C62.3532 102.752 62.6998 103.114 62.946 103.602C63.196 104.087 63.321 104.705 63.321 105.455V111H61.9801V105.545C61.9801 104.852 61.8002 104.316 61.4403 103.938C61.0843 103.555 60.59 103.364 59.9574 103.364C59.518 103.364 59.1241 103.456 58.7756 103.642C58.4309 103.828 58.1581 104.098 57.9574 104.455C57.7604 104.811 57.6619 105.242 57.6619 105.75ZM69.4332 111.182C68.5923 111.182 67.867 110.996 67.2571 110.625C66.651 110.25 66.1832 109.727 65.8537 109.057C65.5279 108.383 65.3651 107.598 65.3651 106.705C65.3651 105.811 65.5279 105.023 65.8537 104.341C66.1832 103.655 66.6416 103.121 67.2287 102.739C67.8196 102.352 68.509 102.159 69.2969 102.159C69.7514 102.159 70.2003 102.235 70.6435 102.386C71.0866 102.538 71.4901 102.784 71.8537 103.125C72.2173 103.462 72.5071 103.909 72.723 104.466C72.9389 105.023 73.0469 105.708 73.0469 106.523V107.091H66.3196V105.932H71.6832C71.6832 105.439 71.5848 105 71.3878 104.614C71.1946 104.227 70.9181 103.922 70.5582 103.699C70.2022 103.475 69.7817 103.364 69.2969 103.364C68.7628 103.364 68.3007 103.496 67.9105 103.761C67.5241 104.023 67.2268 104.364 67.0185 104.784C66.8101 105.205 66.706 105.655 66.706 106.136V106.909C66.706 107.568 66.8196 108.127 67.0469 108.585C67.2779 109.04 67.598 109.386 68.0071 109.625C68.4162 109.86 68.8916 109.977 69.4332 109.977C69.7855 109.977 70.1037 109.928 70.3878 109.83C70.6757 109.727 70.9238 109.576 71.1321 109.375C71.3404 109.17 71.5014 108.917 71.6151 108.614L72.9105 108.977C72.7741 109.417 72.545 109.803 72.223 110.136C71.901 110.466 71.5033 110.723 71.0298 110.909C70.5563 111.091 70.0241 111.182 69.4332 111.182ZM80.5866 107.432V102.273H81.9276V111H80.5866V109.523H80.4957C80.2912 109.966 79.973 110.343 79.5412 110.653C79.1094 110.96 78.5639 111.114 77.9048 111.114C77.3594 111.114 76.8745 110.994 76.4503 110.756C76.026 110.513 75.6927 110.15 75.4503 109.665C75.2079 109.176 75.0866 108.561 75.0866 107.818V102.273H76.4276V107.727C76.4276 108.364 76.6056 108.871 76.9616 109.25C77.3215 109.629 77.7798 109.818 78.3366 109.818C78.67 109.818 79.009 109.733 79.3537 109.562C79.7022 109.392 79.9938 109.131 80.2287 108.778C80.4673 108.426 80.5866 107.977 80.5866 107.432ZM90.5653 104.227L89.3608 104.568C89.285 104.367 89.1733 104.172 89.0256 103.983C88.8816 103.79 88.6847 103.631 88.4347 103.506C88.1847 103.381 87.8646 103.318 87.4744 103.318C86.9403 103.318 86.4953 103.441 86.1392 103.688C85.7869 103.93 85.6108 104.239 85.6108 104.614C85.6108 104.947 85.732 105.21 85.9744 105.403C86.2169 105.597 86.5956 105.758 87.1108 105.886L88.4062 106.205C89.1866 106.394 89.768 106.684 90.1506 107.074C90.5331 107.46 90.7244 107.958 90.7244 108.568C90.7244 109.068 90.5805 109.515 90.2926 109.909C90.0085 110.303 89.6108 110.614 89.0994 110.841C88.5881 111.068 87.9934 111.182 87.3153 111.182C86.4252 111.182 85.6884 110.989 85.1051 110.602C84.5218 110.216 84.1525 109.652 83.9972 108.909L85.2699 108.591C85.3911 109.061 85.6203 109.413 85.9574 109.648C86.2983 109.883 86.7434 110 87.2926 110C87.9176 110 88.4138 109.867 88.7812 109.602C89.1525 109.333 89.3381 109.011 89.3381 108.636C89.3381 108.333 89.232 108.08 89.0199 107.875C88.8078 107.667 88.482 107.511 88.0426 107.409L86.5881 107.068C85.7888 106.879 85.2017 106.585 84.8267 106.188C84.4555 105.786 84.2699 105.284 84.2699 104.682C84.2699 104.189 84.4081 103.754 84.6847 103.375C84.965 102.996 85.3456 102.699 85.8267 102.483C86.3116 102.267 86.8608 102.159 87.4744 102.159C88.3381 102.159 89.0161 102.348 89.5085 102.727C90.0047 103.106 90.357 103.606 90.5653 104.227Z" fill="#DA4E31"/>
<g clip-path="url(#clip0_381_2177)">
<path d="M46.5003 0.22522C23.029 0.22522 4 19.1758 4 42.5542C4 65.9316 23.029 84.8836 46.5003 84.8836C69.9716 84.8836 89 65.9316 89 42.5542C89 19.1755 69.971 0.22522 46.5003 0.22522ZM46.5003 79.4485C39.8225 79.4485 34.4081 75.0055 34.4081 69.5261H58.5926C58.5926 75.0045 53.1785 79.4485 46.5003 79.4485ZM66.473 66.2402H26.5257V59.0252H66.4737V66.2399H66.473V66.2402ZM66.3296 55.3121H26.6395C26.5074 55.1606 26.3726 55.0112 26.2451 54.8574C22.1561 49.912 21.1929 47.3306 20.2579 44.6995C20.242 44.6129 25.2161 45.7115 28.7433 46.5018C28.7433 46.5018 30.5582 46.9202 33.2118 47.402C30.6641 44.4277 29.151 40.6464 29.151 36.7811C29.151 28.296 35.6854 20.8813 33.328 14.8883C35.6223 15.0741 38.076 19.7109 38.2421 26.9606C40.6812 23.6033 41.7018 17.4727 41.7018 13.7139C41.7018 9.8219 44.2767 5.30085 46.8523 5.14641C44.5563 8.91511 47.4466 12.1457 50.0165 20.1603C50.9801 23.1707 50.8572 28.2371 51.601 31.4499C51.848 24.777 52.9998 15.0404 57.2502 11.6791C55.3752 15.9121 57.5278 21.2093 59 23.7557C61.3753 27.8644 62.815 30.977 62.815 36.8642C62.815 40.8114 61.3518 44.5275 58.8838 47.4328C61.6901 46.9083 63.6282 46.4354 63.6282 46.4354L72.7424 44.6644C72.7431 44.6638 71.4186 50.0883 66.3296 55.3121Z" fill="#DA4E31"/>
</g>
<defs>
<clipPath id="clip0_381_2177">
<rect width="85" height="85" fill="white" transform="translate(4)"/>
</clipPath>
</defs>
</svg>
