<svg width="500" height="200" viewBox="0 0 500 200" fill="none" xmlns="http://www.w3.org/2000/svg">
<g clip-path="url(#clip0_63_594)">
<path fill-rule="evenodd" clip-rule="evenodd" d="M450.227 41.4492C430.209 41.4492 418.9 45.3211 412.407 54.3946C405.623 63.8718 404.26 78.8313 404.26 99.9008C404.26 141.262 410.648 158.551 450.227 158.551C454.981 158.551 471.231 158.461 480.717 157.301C484.408 156.688 486.061 153.856 486.061 151.322V146.754C486.061 143.2 483.38 140.517 479.822 140.517H450.226C427.894 140.517 423.867 135.244 423.295 105.263V95.5579C423.485 64.8781 427.512 59.4835 450.227 59.4835C471.172 59.4835 475.189 64.2711 475.886 91.2808H442.604V109.515H486.378C495 109.515 495 103.474 495 101.491V95.6691C494.375 53.6105 484.331 41.4492 450.227 41.4492ZM392.587 43.0568L392.111 42.931C388.035 42.0724 376.894 41.4492 371.37 41.4492C351.824 41.4492 341.493 49.6479 341.493 65.159V151.52C341.493 155.074 343.976 157.558 347.534 157.558H354.487C358.045 157.558 360.529 155.076 360.529 151.52V66.7446C360.529 62.9166 361.496 59.4835 373.159 59.4835L390.429 59.4689C392.12 59.6707 393.734 59.2026 394.976 58.148C396.333 57.0027 397.079 55.3307 397.079 53.4453V49.076C397.079 46.209 395.44 44.0149 392.587 43.0568ZM309.109 42.8403H302.156C298.599 42.8403 296.114 45.3226 296.114 48.8785V140.519H267.198C249.312 140.519 242.055 139.379 242.055 110.82V48.8785C242.055 45.3241 239.57 42.8403 236.013 42.8403H229.257C225.7 42.8403 223.018 45.4352 223.018 48.8785V110.82C223.018 151.409 237.712 158.551 268.588 158.551C279.695 158.551 294.907 158.551 309.413 156.505L309.749 156.438C313.332 155.541 315.15 153.486 315.15 150.329V48.8785C315.15 45.3241 312.665 42.8403 309.109 42.8403Z" fill="#272727"/>
<path fill-rule="evenodd" clip-rule="evenodd" d="M201.571 45.6768C200.679 43.7752 198.765 42.6416 196.452 42.6416H187.515C184.919 42.6416 182.978 43.6889 181.956 45.5744L168.71 64.9632L180.306 80.8502L200.552 51.756C202.775 49.0514 202.005 46.6027 201.571 45.6768Z" fill="#74BB11"/>
<path fill-rule="evenodd" clip-rule="evenodd" d="M131.738 45.354L131.727 45.3365C129.707 42.6406 127.021 42.6406 126.137 42.6406H117.396C115.156 42.6406 113.322 43.6719 112.364 45.4667C111.378 47.3053 111.587 49.5141 112.951 51.5605L145.335 96.5343L108.096 148.567C106.795 150.524 106.613 152.7 107.595 154.537C108.559 156.332 110.394 157.36 112.63 157.36H121.566C123.864 157.36 125.885 156.165 126.895 154.282L168.577 96.742L131.738 45.354Z" fill="#009CD9"/>
<path fill-rule="evenodd" clip-rule="evenodd" d="M206.018 149.022L180.036 113.302L168.608 129.085L189.155 156.557L189.689 156.791C190.504 157.158 191.387 157.351 192.281 157.358H201.02C203.131 157.358 204.923 156.419 205.937 154.778C206.977 153.096 207.006 151 206.018 149.022Z" fill="#EB2084"/>
<path fill-rule="evenodd" clip-rule="evenodd" d="M73.7264 108.72V139.055C64.878 140.415 51.3909 140.716 46.7945 140.716C26.4608 140.716 24.2327 135.151 24.2327 123.33C24.2327 112.269 28.3648 108.719 41.2329 108.719L73.7264 108.72ZM45.8016 41.4482C39.5187 41.4482 30.9507 41.6121 20.2904 42.8964L19.8085 43.0031C16.7029 43.8881 15.1303 45.9316 15.1303 49.0765V53.4443C15.1303 57.1684 17.4446 59.4825 21.1708 59.4825H45.803C65.6358 59.4825 73.7264 64.8654 73.7264 78.0609V90.8849H41.2329C15.837 90.8849 5 100.587 5 123.329C5 148.675 16.2166 158.552 45.0073 158.552C56.6692 158.552 78.1359 157.643 86.0702 155.22C92.7605 153.359 92.7605 148.239 92.7605 146.557V76.8717C92.7605 53.0362 77.4 41.4482 45.803 41.4482H45.8016Z" fill="#272727"/>
</g>
<defs>
<clipPath id="clip0_63_594">
<rect width="490" height="140" fill="white" transform="translate(5 30)"/>
</clipPath>
</defs>
</svg>
