<svg width="89" height="115" viewBox="0 0 89 115" fill="none" xmlns="http://www.w3.org/2000/svg">
<path d="M11.0739 99.3636V111H9.71023L3.36932 101.864H3.25568V111H1.84659V99.3636H3.21023L9.57386 108.523H9.6875V99.3636H11.0739ZM16.2798 111.205C15.7268 111.205 15.2249 111.1 14.7741 110.892C14.3234 110.68 13.9654 110.375 13.7003 109.977C13.4351 109.576 13.3026 109.091 13.3026 108.523C13.3026 108.023 13.401 107.617 13.598 107.307C13.795 106.992 14.0582 106.746 14.3878 106.568C14.7173 106.39 15.081 106.258 15.4787 106.17C15.8802 106.08 16.2836 106.008 16.6889 105.955C17.2192 105.886 17.6491 105.835 17.9787 105.801C18.312 105.763 18.5545 105.701 18.706 105.614C18.8613 105.527 18.9389 105.375 18.9389 105.159V105.114C18.9389 104.553 18.7855 104.117 18.4787 103.807C18.1757 103.496 17.7154 103.341 17.098 103.341C16.4579 103.341 15.956 103.481 15.5923 103.761C15.2287 104.042 14.973 104.341 14.8253 104.659L13.5526 104.205C13.7798 103.674 14.0829 103.261 14.4616 102.966C14.8442 102.667 15.2609 102.458 15.7116 102.341C16.1662 102.22 16.6132 102.159 17.0526 102.159C17.3329 102.159 17.6548 102.193 18.0185 102.261C18.3859 102.326 18.7401 102.46 19.081 102.665C19.4257 102.869 19.7116 103.178 19.9389 103.591C20.1662 104.004 20.2798 104.557 20.2798 105.25V111H18.9389V109.818H18.8707C18.7798 110.008 18.6283 110.21 18.4162 110.426C18.2041 110.642 17.9219 110.826 17.5696 110.977C17.2173 111.129 16.7874 111.205 16.2798 111.205ZM16.4844 110C17.0147 110 17.4616 109.896 17.8253 109.688C18.1927 109.479 18.4692 109.21 18.6548 108.881C18.8442 108.551 18.9389 108.205 18.9389 107.841V106.614C18.8821 106.682 18.7571 106.744 18.5639 106.801C18.3745 106.854 18.1548 106.902 17.9048 106.943C17.6586 106.981 17.4181 107.015 17.1832 107.045C16.9522 107.072 16.7647 107.095 16.6207 107.114C16.2723 107.159 15.9465 107.233 15.6435 107.335C15.3442 107.434 15.1018 107.583 14.9162 107.784C14.7344 107.981 14.6435 108.25 14.6435 108.591C14.6435 109.057 14.8158 109.409 15.1605 109.648C15.509 109.883 15.9503 110 16.4844 110ZM26.5227 102.273V103.409H22V102.273H26.5227ZM23.3182 100.182H24.6591V108.5C24.6591 108.879 24.714 109.163 24.8239 109.352C24.9375 109.538 25.0814 109.663 25.2557 109.727C25.4337 109.788 25.6212 109.818 25.8182 109.818C25.9659 109.818 26.0871 109.811 26.1818 109.795C26.2765 109.777 26.3523 109.761 26.4091 109.75L26.6818 110.955C26.5909 110.989 26.464 111.023 26.3011 111.057C26.1383 111.095 25.9318 111.114 25.6818 111.114C25.303 111.114 24.9318 111.032 24.5682 110.869C24.2083 110.706 23.9091 110.458 23.6705 110.125C23.4356 109.792 23.3182 109.371 23.3182 108.864V100.182ZM28.5398 111V102.273H29.8807V111H28.5398ZM29.2216 100.818C28.9602 100.818 28.7348 100.729 28.5455 100.551C28.3598 100.373 28.267 100.159 28.267 99.9091C28.267 99.6591 28.3598 99.4451 28.5455 99.267C28.7348 99.089 28.9602 99 29.2216 99C29.483 99 29.7064 99.089 29.892 99.267C30.0814 99.4451 30.1761 99.6591 30.1761 99.9091C30.1761 100.159 30.0814 100.373 29.892 100.551C29.7064 100.729 29.483 100.818 29.2216 100.818ZM39.473 102.273L36.2457 111H34.8821L31.6548 102.273H33.1094L35.5185 109.227H35.6094L38.0185 102.273H39.473ZM44.5895 111.182C43.7486 111.182 43.0232 110.996 42.4134 110.625C41.8073 110.25 41.3395 109.727 41.0099 109.057C40.6842 108.383 40.5213 107.598 40.5213 106.705C40.5213 105.811 40.6842 105.023 41.0099 104.341C41.3395 103.655 41.7978 103.121 42.3849 102.739C42.9759 102.352 43.6652 102.159 44.4531 102.159C44.9077 102.159 45.3565 102.235 45.7997 102.386C46.2429 102.538 46.6463 102.784 47.0099 103.125C47.3736 103.462 47.6634 103.909 47.8793 104.466C48.0952 105.023 48.2031 105.708 48.2031 106.523V107.091H41.4759V105.932H46.8395C46.8395 105.439 46.741 105 46.544 104.614C46.3509 104.227 46.0743 103.922 45.7145 103.699C45.3584 103.475 44.938 103.364 44.4531 103.364C43.919 103.364 43.4569 103.496 43.0668 103.761C42.6804 104.023 42.383 104.364 42.1747 104.784C41.9664 105.205 41.8622 105.655 41.8622 106.136V106.909C41.8622 107.568 41.9759 108.127 42.2031 108.585C42.4342 109.04 42.7543 109.386 43.1634 109.625C43.5724 109.86 44.0478 109.977 44.5895 109.977C44.9418 109.977 45.2599 109.928 45.544 109.83C45.8319 109.727 46.08 109.576 46.2884 109.375C46.4967 109.17 46.6577 108.917 46.7713 108.614L48.0668 108.977C47.9304 109.417 47.7012 109.803 47.3793 110.136C47.0573 110.466 46.6596 110.723 46.1861 110.909C45.7126 111.091 45.1804 111.182 44.5895 111.182ZM59.3793 99.3636H60.7884V107.682C60.7884 108.424 60.652 109.055 60.3793 109.574C60.1065 110.093 59.7221 110.487 59.2259 110.756C58.7296 111.025 58.1444 111.159 57.4702 111.159C56.8338 111.159 56.2675 111.044 55.7713 110.812C55.2751 110.578 54.8849 110.244 54.6009 109.812C54.3168 109.381 54.1747 108.867 54.1747 108.273H55.5611C55.5611 108.602 55.6425 108.89 55.8054 109.136C55.9721 109.379 56.1993 109.568 56.4872 109.705C56.7751 109.841 57.1027 109.909 57.4702 109.909C57.8755 109.909 58.2202 109.824 58.5043 109.653C58.7884 109.483 59.0043 109.233 59.152 108.903C59.3035 108.57 59.3793 108.163 59.3793 107.682V99.3636ZM65.9986 111.205C65.4455 111.205 64.9437 111.1 64.4929 110.892C64.0421 110.68 63.6842 110.375 63.419 109.977C63.1539 109.576 63.0213 109.091 63.0213 108.523C63.0213 108.023 63.1198 107.617 63.3168 107.307C63.5137 106.992 63.777 106.746 64.1065 106.568C64.4361 106.39 64.7997 106.258 65.1974 106.17C65.599 106.08 66.0024 106.008 66.4077 105.955C66.938 105.886 67.3679 105.835 67.6974 105.801C68.0308 105.763 68.2732 105.701 68.4247 105.614C68.58 105.527 68.6577 105.375 68.6577 105.159V105.114C68.6577 104.553 68.5043 104.117 68.1974 103.807C67.8944 103.496 67.4342 103.341 66.8168 103.341C66.1766 103.341 65.6747 103.481 65.3111 103.761C64.9474 104.042 64.6918 104.341 64.544 104.659L63.2713 104.205C63.4986 103.674 63.8016 103.261 64.1804 102.966C64.563 102.667 64.9796 102.458 65.4304 102.341C65.8849 102.22 66.3319 102.159 66.7713 102.159C67.0516 102.159 67.3736 102.193 67.7372 102.261C68.1046 102.326 68.4588 102.46 68.7997 102.665C69.1444 102.869 69.4304 103.178 69.6577 103.591C69.8849 104.004 69.9986 104.557 69.9986 105.25V111H68.6577V109.818H68.5895C68.4986 110.008 68.3471 110.21 68.1349 110.426C67.9228 110.642 67.6406 110.826 67.2884 110.977C66.9361 111.129 66.5062 111.205 65.9986 111.205ZM66.2031 110C66.7334 110 67.1804 109.896 67.544 109.688C67.9115 109.479 68.188 109.21 68.3736 108.881C68.563 108.551 68.6577 108.205 68.6577 107.841V106.614C68.6009 106.682 68.4759 106.744 68.2827 106.801C68.0933 106.854 67.8736 106.902 67.6236 106.943C67.3774 106.981 67.1368 107.015 66.902 107.045C66.6709 107.072 66.4834 107.095 66.3395 107.114C65.991 107.159 65.6652 107.233 65.3622 107.335C65.063 107.434 64.8205 107.583 64.6349 107.784C64.4531 107.981 64.3622 108.25 64.3622 108.591C64.3622 109.057 64.5346 109.409 64.8793 109.648C65.2277 109.883 65.669 110 66.2031 110ZM79.2699 102.273L76.0426 111H74.679L71.4517 102.273H72.9062L75.3153 109.227H75.4062L77.8153 102.273H79.2699ZM83.3423 111.205C82.7893 111.205 82.2874 111.1 81.8366 110.892C81.3859 110.68 81.0279 110.375 80.7628 109.977C80.4976 109.576 80.3651 109.091 80.3651 108.523C80.3651 108.023 80.4635 107.617 80.6605 107.307C80.8575 106.992 81.1207 106.746 81.4503 106.568C81.7798 106.39 82.1435 106.258 82.5412 106.17C82.9427 106.08 83.3461 106.008 83.7514 105.955C84.2817 105.886 84.7116 105.835 85.0412 105.801C85.3745 105.763 85.617 105.701 85.7685 105.614C85.9238 105.527 86.0014 105.375 86.0014 105.159V105.114C86.0014 104.553 85.848 104.117 85.5412 103.807C85.2382 103.496 84.7779 103.341 84.1605 103.341C83.5204 103.341 83.0185 103.481 82.6548 103.761C82.2912 104.042 82.0355 104.341 81.8878 104.659L80.6151 104.205C80.8423 103.674 81.1454 103.261 81.5241 102.966C81.9067 102.667 82.3234 102.458 82.7741 102.341C83.2287 102.22 83.6757 102.159 84.1151 102.159C84.3954 102.159 84.7173 102.193 85.081 102.261C85.4484 102.326 85.8026 102.46 86.1435 102.665C86.4882 102.869 86.7741 103.178 87.0014 103.591C87.2287 104.004 87.3423 104.557 87.3423 105.25V111H86.0014V109.818H85.9332C85.8423 110.008 85.6908 110.21 85.4787 110.426C85.2666 110.642 84.9844 110.826 84.6321 110.977C84.2798 111.129 83.8499 111.205 83.3423 111.205ZM83.5469 110C84.0772 110 84.5241 109.896 84.8878 109.688C85.2552 109.479 85.5317 109.21 85.7173 108.881C85.9067 108.551 86.0014 108.205 86.0014 107.841V106.614C85.9446 106.682 85.8196 106.744 85.6264 106.801C85.437 106.854 85.2173 106.902 84.9673 106.943C84.7211 106.981 84.4806 107.015 84.2457 107.045C84.0147 107.072 83.8272 107.095 83.6832 107.114C83.3348 107.159 83.009 107.233 82.706 107.335C82.4067 107.434 82.1643 107.583 81.9787 107.784C81.7969 107.981 81.706 108.25 81.706 108.591C81.706 109.057 81.8783 109.409 82.223 109.648C82.5715 109.883 83.0128 110 83.5469 110Z" fill="#5382A1"/>
<g clip-path="url(#clip0_381_2218)">
<path d="M33.2809 65.7087C33.2809 65.7087 30.0385 67.594 35.5884 68.2321C42.312 68.9992 45.7481 68.8894 53.1574 67.4869C53.1574 67.4869 55.1056 68.7081 57.826 69.7662C41.2163 76.8848 20.2346 69.3538 33.2809 65.7087ZM31.2512 56.4192C31.2512 56.4192 27.6146 59.111 33.1686 59.6856C40.3508 60.4264 46.0227 60.4869 55.8376 58.5972C55.8376 58.5972 57.1949 59.9732 59.3298 60.726C39.2473 66.5985 16.8793 61.189 31.2512 56.4192Z" fill="#5382A1"/>
<path d="M48.3613 40.6613C52.4542 45.3731 47.2862 49.6132 47.2862 49.6132C47.2862 49.6132 57.678 44.2487 52.9054 37.5306C48.448 31.2663 45.0296 28.1532 63.5348 17.4211C63.5348 17.4211 34.4879 24.6759 48.3613 40.6613Z" fill="#E76F00"/>
<path d="M70.3294 72.5799C70.3294 72.5799 72.7288 74.5566 67.6866 76.0863C58.0993 78.9906 27.7829 79.8678 19.361 76.2019C16.3337 74.8851 22.011 73.0572 23.7967 72.6737C25.6591 72.2698 26.7236 72.3453 26.7236 72.3453C23.3567 69.9731 4.96184 77.0022 17.38 79.015C51.2456 84.5071 79.1137 76.5422 70.3294 72.5799ZM34.8396 46.7943C34.8396 46.7943 19.419 50.4571 29.3789 51.7868C33.5842 52.3499 41.9675 52.2227 49.7764 51.5682C56.1582 51.0303 62.5665 49.8855 62.5665 49.8855C62.5665 49.8855 60.3161 50.8491 58.6882 51.9609C43.0286 56.0793 12.7769 54.1634 21.486 49.9505C28.8513 46.3903 34.8396 46.7943 34.8396 46.7943ZM62.503 62.2568C78.4221 53.9849 71.0618 46.0357 65.9244 47.1067C64.665 47.3685 64.1037 47.5956 64.1037 47.5956C64.1037 47.5956 64.5712 46.8636 65.464 46.5467C75.627 42.9733 83.4432 57.085 62.183 62.674C62.183 62.674 62.4295 62.454 62.503 62.2568Z" fill="#5382A1"/>
<path d="M52.9053 0.0910645C52.9053 0.0910645 61.7215 8.91042 44.5437 22.4714C30.769 33.3499 41.4026 39.5524 44.538 46.6391C36.4974 39.3845 30.5965 32.9983 34.5554 27.0547C40.3657 18.3294 56.4624 14.0996 52.9053 0.0910645Z" fill="#E76F00"/>
<path d="M36.4038 84.6723C51.6837 85.6504 75.1481 84.1293 75.7037 76.8992C75.7037 76.8992 74.6358 79.6402 63.0758 81.8169C50.0337 84.271 33.9486 83.9848 24.4082 82.4116C24.4084 82.4116 26.361 84.0283 36.4038 84.6723Z" fill="#5382A1"/>
</g>
<defs>
<clipPath id="clip0_381_2218">
<rect width="62.9" height="85" fill="white" transform="translate(13)"/>
</clipPath>
</defs>
</svg>
