<svg width="120" height="39" viewBox="0 0 120 39" fill="none" xmlns="http://www.w3.org/2000/svg">
<path d="M0 31.2517L0.234444 30.9234L11.3221 9.88489L11.3455 9.66215L6.45798 0.481284C6.04829 -0.287755 4.89539 -0.0933974 4.76111 0.76752L0 31.2517Z" fill="#FFC24A"/>
<path d="M0.138672 31.0011L0.315913 30.6555L11.2863 9.83741L6.41213 0.619209C6.00685 -0.141879 4.97796 0.0521478 4.84401 0.90412L0.138672 31.0011Z" fill="#FFA712"/>
<path d="M0.138672 31.0011L0.315913 30.6555L11.2863 9.83741L6.41213 0.619209C6.00685 -0.141879 4.97796 0.0521478 4.84401 0.90412L0.138672 31.0011Z" fill="#FFA000"/>
<path d="M14.9099 16.607L18.5491 12.88L14.9089 5.9306C14.5633 5.27277 13.5984 5.27089 13.2565 5.9306L11.3115 9.64107V9.9569L14.9099 16.607Z" fill="#F4BD62"/>
<path d="M14.8439 16.4514L18.3819 12.8279L14.8439 6.09087C14.508 5.45037 13.6918 5.38434 13.3594 6.02461L11.4042 9.7903L11.3457 9.98289L14.8439 16.4514Z" fill="#FFA50E"/>
<path d="M11.3206 9.61816L0 31.2507L0.106234 31.1438L0.4923 30.987L14.6802 16.8519L14.8598 16.3627L11.3206 9.61816Z" fill="#F6820C"/>
<path d="M15.3631 38.3797L28.2034 31.2185L24.5377 8.63523C24.4228 7.9287 23.5562 7.64931 23.0505 8.15597L0 31.2512L12.7667 38.3793C13.1635 38.6008 13.6104 38.7171 14.0649 38.7172C14.5193 38.7173 14.9663 38.6012 15.3632 38.3798" fill="#FDE068"/>
<path d="M28.0885 31.1593L24.4496 8.74833C24.3358 8.04709 23.6147 7.75699 23.1129 8.25978L0.143555 31.2079L12.77 38.2644C13.5706 38.7115 14.5457 38.7117 15.3468 38.2651L28.0885 31.1593Z" fill="#FCCA3F"/>
<path d="M15.3631 38.169C14.557 38.6192 13.5734 38.6189 12.7666 38.1684L0.1027 31.1429L0 31.2514L12.7667 38.3795C13.5735 38.8301 14.5561 38.8301 15.3632 38.3801L28.2035 31.2189L28.1721 31.0254L15.3631 38.169Z" fill="#EEAB37"/>
<path d="M37.9265 27.9348H35.7412V10.9275H45.6576V13.0173H37.9265V18.5999H44.9108V20.6444H37.9265V27.9348ZM49.4993 13.3736C49.1981 13.6747 48.8345 13.8265 48.4073 13.8265C48.2039 13.8301 48.002 13.7917 47.8141 13.7137C47.6262 13.6358 47.4564 13.52 47.3152 13.3736C47.1694 13.232 47.054 13.0621 46.9761 12.8743C46.8982 12.6865 46.8595 12.4848 46.8623 12.2815C46.8587 12.0782 46.8971 11.8763 46.9751 11.6884C47.053 11.5005 47.1688 11.3307 47.3152 11.1895C47.4568 11.0437 47.6267 10.9283 47.8145 10.8504C48.0023 10.7725 48.204 10.7338 48.4073 10.7365C48.6106 10.733 48.8125 10.7714 49.0004 10.8494C49.1883 10.9273 49.3581 11.0431 49.4993 11.1895C49.6451 11.3311 49.7605 11.501 49.8384 11.6888C49.9163 11.8766 49.955 12.0783 49.9523 12.2815C49.9558 12.4849 49.9174 12.6868 49.8394 12.8747C49.7615 13.0626 49.6457 13.2324 49.4993 13.3736ZM49.4993 27.9348H47.314V16.2958H49.4993V27.9348ZM54.2163 27.9348H52.0298V16.2958H54.1196V18.1959H54.2138C54.4342 17.5629 54.8909 17.0402 55.5801 16.6288C56.2694 16.2175 56.9268 16.0106 57.5879 16.0106C58.249 16.0106 58.784 16.1061 59.2284 16.2958L58.3959 18.3403C58.1106 18.2179 57.7225 18.1738 57.2328 18.1738C56.4408 18.1738 55.7393 18.486 55.1308 19.1116C54.5224 19.7372 54.2163 20.5562 54.2163 21.5699V27.9348ZM64.975 28.302C63.217 28.302 61.7883 27.7168 60.6877 26.544C59.5871 25.3712 59.0349 23.8923 59.0349 22.1024C59.0349 20.4081 59.5687 18.9512 60.6264 17.7319C61.6842 16.5125 63.0749 15.9029 64.724 15.9029C66.4379 15.9029 67.8311 16.466 68.8693 17.5899C69.9075 18.7137 70.4241 20.2183 70.4241 22.1037L70.3996 22.5077H61.2178C61.2814 23.6793 61.6732 24.606 62.393 25.2867C62.727 25.6148 63.1225 25.8739 63.5567 26.0491C63.9909 26.2243 64.4554 26.3122 64.9236 26.3077C66.4906 26.3077 67.552 25.643 68.1066 24.3122L70.0654 25.1202C69.6981 26.0225 69.0591 26.7791 68.1886 27.3887C67.3182 27.9984 66.2482 28.3032 64.9811 28.3032L64.975 28.302ZM68.109 20.7117C68.0601 20.0469 67.7565 19.414 67.1945 18.8117C66.6326 18.2093 65.7964 17.9094 64.6885 17.9094C63.8805 17.9094 63.1802 18.1628 62.5865 18.6684C61.9927 19.174 61.585 19.856 61.3622 20.7129H68.0956L68.109 20.7117ZM78.3474 28.302C77.4598 28.302 76.6641 28.1123 75.9601 27.7315C75.2562 27.3508 74.7285 26.877 74.3686 26.3065H74.2866V27.9225H72.1968V10.9275H74.3821V16.2958L74.2866 17.9119H74.3821C74.731 17.3414 75.2574 16.8663 75.9736 16.4868C76.6898 16.1073 77.4745 15.9163 78.3609 15.9163C79.8667 15.9163 81.1766 16.5101 82.2564 17.6976C83.3362 18.8851 83.8969 20.3579 83.8969 22.1049C83.8969 23.8519 83.3509 25.3369 82.2564 26.5122C81.1619 27.6875 79.8655 28.2935 78.3609 28.2935L78.3474 28.302ZM77.9801 26.3065C78.9938 26.3065 79.8655 25.9221 80.5927 25.1557C81.3199 24.3893 81.6847 23.3708 81.6847 22.1037C81.6847 20.8366 81.3199 19.8192 80.5927 19.0516C79.8655 18.284 78.9926 17.9008 77.9801 17.9008C77.4865 17.8912 76.9967 17.9878 76.5438 18.1843C76.0909 18.3808 75.6855 18.6724 75.3553 19.0394C74.6355 19.8107 74.2743 20.8207 74.2743 22.1037C74.2743 23.3867 74.6343 24.4077 75.3553 25.168C76.0764 25.9282 76.9505 26.309 77.9801 26.309V26.3065ZM89.6264 28.302C88.4021 28.302 87.3578 27.9348 86.5266 27.2333C85.6953 26.5318 85.2779 25.5781 85.2779 24.4175C85.2779 23.1504 85.7676 22.1575 86.7506 21.4365C87.7337 20.7154 88.9445 20.3554 90.3866 20.3554C91.6696 20.3554 92.7225 20.5929 93.5452 21.068V20.735C93.5452 19.878 93.2514 19.1949 92.6662 18.6807C92.081 18.1665 91.3599 17.9094 90.5042 17.9094C89.87 17.9094 89.2958 18.06 88.7817 18.3624C88.2924 18.6337 87.9173 19.0722 87.7251 19.5976L85.7296 18.7431C85.9989 18.0453 86.529 17.4013 87.3211 16.8088C88.1132 16.2163 89.1575 15.9176 90.4552 15.9176C91.9439 15.9176 93.1791 16.3534 94.161 17.2238C95.1428 18.0943 95.6338 19.3222 95.6338 20.9051V27.936H93.5562V26.32H93.4607C92.5891 27.6495 91.3146 28.3155 89.6362 28.3155L89.6264 28.302ZM89.9937 26.3065C90.8959 26.3065 91.7162 25.9698 92.4519 25.2965C93.1877 24.6232 93.5562 23.8274 93.5562 22.9092C92.9392 22.4024 92.0137 22.1502 90.7772 22.1502C89.7157 22.1502 88.9163 22.3804 88.3776 22.8394C87.839 23.2985 87.5696 23.8372 87.5696 24.4554C87.5696 25.0259 87.8145 25.4765 88.3066 25.8095C88.7988 26.1425 89.3595 26.309 89.9937 26.309V26.3065ZM101.991 28.302C100.694 28.302 99.6199 27.9837 98.7715 27.352C97.9449 26.7453 97.3002 25.9239 96.907 24.977L98.8658 24.169C99.4828 25.6381 100.537 26.3542 102.024 26.3542C102.705 26.3542 103.263 26.2037 103.699 25.9013C104.135 25.5989 104.353 25.2035 104.353 24.7138C104.353 23.9547 103.823 23.4405 102.761 23.1712L100.411 22.6007C99.6664 22.411 98.9612 22.0498 98.2965 21.5197C97.6317 20.9896 97.3024 20.2991 97.3024 19.3834C97.3024 18.355 97.7578 17.5189 98.6687 16.8774C99.5795 16.2359 100.661 15.9151 101.913 15.9151C102.941 15.9151 103.872 16.16 104.667 16.6154C105.463 17.0708 106.053 17.7515 106.402 18.6231L104.502 19.4067C104.074 18.3783 103.187 17.8641 101.842 17.8641C101.193 17.8641 100.646 17.9865 100.201 18.2681C99.757 18.5497 99.5366 18.901 99.5366 19.3601C99.5366 20.0249 100.051 20.4766 101.079 20.7142L103.383 21.2602C104.475 21.5136 105.283 21.9494 105.807 22.5664C106.331 23.1835 106.591 23.8813 106.591 24.6562C106.591 25.7017 106.162 26.5722 105.308 27.2688C104.453 27.9654 103.351 28.3143 102.006 28.3143L101.991 28.302ZM113.63 28.302C111.872 28.302 110.442 27.7168 109.343 26.544C108.243 25.3712 107.69 23.8923 107.69 22.1024C107.69 20.4081 108.224 18.9512 109.282 17.7319C110.339 16.5125 111.73 15.9029 113.379 15.9029C115.093 15.9029 116.486 16.466 117.524 17.5899C118.563 18.7137 119.079 20.2183 119.079 22.1037V22.5077H109.897C109.959 23.6793 110.353 24.606 111.073 25.2867C111.407 25.6147 111.802 25.8737 112.236 26.0489C112.67 26.2241 113.134 26.312 113.602 26.3077C115.169 26.3077 116.23 25.643 116.785 24.3122L118.744 25.1202C118.377 26.0225 117.737 26.7791 116.867 27.3887C115.997 27.9984 114.927 28.3032 113.66 28.3032L113.63 28.302ZM116.764 20.7117C116.715 20.0469 116.412 19.414 115.85 18.8117C115.288 18.2093 114.452 17.9094 113.344 17.9094C112.573 17.8958 111.825 18.1665 111.242 18.6697C110.648 19.1765 110.24 19.8572 110.017 20.7142H116.751L116.764 20.7117Z" fill="#63666A"/>
<path d="M57.7303 36V31.0682H59.4987C59.8886 31.0682 60.2103 31.1363 60.4639 31.2725C60.7223 31.404 60.9125 31.5825 61.0346 31.808C61.1614 32.0287 61.2249 32.28 61.2249 32.5618C61.2249 32.8248 61.1638 33.0691 61.0417 33.2945C60.9195 33.52 60.7293 33.7008 60.471 33.837C60.2127 33.9733 59.8815 34.0414 59.4776 34.0414H58.5758V36H57.7303ZM60.3019 36L59.2662 33.823H60.1821L61.2671 36H60.3019ZM58.5758 33.4143H59.4424C59.757 33.4143 59.9872 33.3392 60.1328 33.1889C60.2831 33.0339 60.3583 32.8319 60.3583 32.583C60.3583 32.3387 60.2855 32.1438 60.1399 31.9982C59.9942 31.8479 59.7617 31.7727 59.4424 31.7727H58.5758V33.4143ZM63.3797 36.0845C63.0274 36.0845 62.7174 36.0094 62.4497 35.8591C62.1819 35.7041 61.9729 35.488 61.8226 35.2109C61.6723 34.9338 61.5972 34.6144 61.5972 34.2527C61.5972 33.877 61.67 33.5482 61.8156 33.2664C61.9659 32.9845 62.1749 32.7638 62.4426 32.6041C62.715 32.4444 63.0297 32.3645 63.3867 32.3645C63.7343 32.3645 64.0372 32.442 64.2956 32.597C64.5539 32.752 64.7535 32.9611 64.8944 33.2241C65.0353 33.4824 65.1058 33.7736 65.1058 34.0977C65.1058 34.1447 65.1058 34.1964 65.1058 34.2527C65.1058 34.3091 65.1011 34.3678 65.0917 34.4289H62.2031V33.8864H64.2533C64.2439 33.628 64.157 33.4261 63.9926 33.2805C63.8282 33.1302 63.6239 33.055 63.3797 33.055C63.2059 33.055 63.0462 33.0949 62.9006 33.1748C62.755 33.2546 62.6399 33.3744 62.5553 33.5341C62.4708 33.6891 62.4285 33.8864 62.4285 34.1259V34.3302C62.4285 34.551 62.4684 34.7412 62.5483 34.9009C62.6328 35.0606 62.7456 35.1827 62.8865 35.2673C63.0321 35.3471 63.1941 35.387 63.3726 35.387C63.5699 35.387 63.7319 35.3448 63.8588 35.2602C63.9903 35.1757 64.0866 35.063 64.1476 34.922H65.0072C64.9414 35.1428 64.8334 35.3424 64.6831 35.5209C64.5328 35.6947 64.3472 35.8333 64.1265 35.9366C63.9057 36.0352 63.6568 36.0845 63.3797 36.0845ZM66.9291 36.0845C66.6379 36.0845 66.396 36.0352 66.2035 35.9366C66.0109 35.838 65.8676 35.7064 65.7737 35.542C65.6797 35.3777 65.6328 35.1992 65.6328 35.0066C65.6328 34.7811 65.6891 34.5862 65.8019 34.4218C65.9193 34.2574 66.0907 34.1306 66.3162 34.0414C66.5416 33.9474 66.8188 33.9005 67.1475 33.9005H68.0423C68.0423 33.7126 68.0165 33.5576 67.9648 33.4355C67.9132 33.3086 67.8333 33.2147 67.7253 33.1536C67.6172 33.0926 67.4787 33.062 67.3096 33.062C67.117 33.062 66.9526 33.1067 66.8164 33.1959C66.6802 33.2805 66.5957 33.412 66.5628 33.5905H65.7314C65.7596 33.3368 65.8441 33.1208 65.985 32.9423C66.126 32.7591 66.3115 32.6182 66.5416 32.5195C66.7765 32.4162 67.0325 32.3645 67.3096 32.3645C67.6431 32.3645 67.9272 32.4233 68.1621 32.5407C68.3969 32.6534 68.5754 32.8178 68.6975 33.0339C68.8244 33.2452 68.8878 33.5012 68.8878 33.8018V36H68.1691L68.0846 35.4293C68.0376 35.5233 67.9766 35.6102 67.9014 35.69C67.831 35.7698 67.7488 35.8403 67.6548 35.9014C67.5609 35.9577 67.4529 36.0023 67.3307 36.0352C67.2133 36.0681 67.0794 36.0845 66.9291 36.0845ZM67.1194 35.4152C67.2556 35.4152 67.3754 35.3917 67.4787 35.3448C67.5867 35.2931 67.6783 35.2227 67.7535 35.1334C67.8333 35.0395 67.8944 34.9361 67.9366 34.8234C67.9789 34.7107 68.0071 34.5909 68.0212 34.4641V34.45H67.2391C67.0747 34.45 66.9385 34.4711 66.8305 34.5134C66.7225 34.551 66.645 34.6073 66.598 34.6825C66.551 34.7577 66.5275 34.8445 66.5275 34.9432C66.5275 35.0418 66.551 35.1264 66.598 35.1968C66.645 35.2673 66.7131 35.3213 66.8023 35.3589C66.8916 35.3964 66.9972 35.4152 67.1194 35.4152ZM69.6502 36V30.9273H70.4957V36H69.6502ZM72.8412 36C72.6016 36 72.3926 35.9624 72.2141 35.8873C72.0403 35.8121 71.9041 35.6877 71.8055 35.5139C71.7068 35.3401 71.6575 35.1052 71.6575 34.8093V33.1607H71.0516V32.4491H71.6575L71.7562 31.512H72.503V32.4491H73.4682V33.1607H72.503V34.8093C72.503 34.9878 72.5405 35.1123 72.6157 35.1827C72.6955 35.2485 72.8271 35.2814 73.0102 35.2814H73.4471V36H72.8412ZM74.1579 36V32.4491H75.0034V36H74.1579ZM74.5807 31.8855C74.4257 31.8855 74.2965 31.8385 74.1932 31.7445C74.0945 31.6459 74.0452 31.5261 74.0452 31.3852C74.0452 31.2396 74.0945 31.1222 74.1932 31.033C74.2965 30.939 74.4257 30.892 74.5807 30.892C74.7357 30.892 74.8625 30.939 74.9611 31.033C75.0645 31.1222 75.1161 31.2396 75.1161 31.3852C75.1161 31.5261 75.0645 31.6459 74.9611 31.7445C74.8625 31.8385 74.7357 31.8855 74.5807 31.8855ZM75.8395 36V32.4491H76.5863L76.6568 32.9352C76.7695 32.7567 76.9174 32.6182 77.1006 32.5195C77.2885 32.4162 77.5022 32.3645 77.7418 32.3645C77.9203 32.3645 78.0799 32.388 78.2209 32.435C78.3665 32.482 78.4933 32.5524 78.6013 32.6464C78.714 32.7403 78.8056 32.8577 78.8761 32.9986C79.0076 32.8014 79.179 32.6464 79.3904 32.5336C79.6018 32.4209 79.8319 32.3645 80.0809 32.3645C80.3768 32.3645 80.6281 32.4256 80.8347 32.5477C81.0414 32.6652 81.1987 32.8413 81.3068 33.0761C81.4148 33.3063 81.4688 33.5905 81.4688 33.9286V36H80.6304V34.0132C80.6304 33.7126 80.5693 33.4824 80.4472 33.3227C80.3251 33.163 80.1443 33.0832 79.9047 33.0832C79.7403 33.0832 79.5947 33.1231 79.4679 33.203C79.3458 33.2828 79.2495 33.4002 79.179 33.5552C79.1086 33.7055 79.0734 33.8911 79.0734 34.1118V36H78.2349V34.0132C78.2349 33.7126 78.1739 33.4824 78.0518 33.3227C77.9296 33.163 77.7465 33.0832 77.5022 33.0832C77.3472 33.0832 77.2063 33.1231 77.0795 33.203C76.9574 33.2828 76.8611 33.4002 76.7906 33.5552C76.7202 33.7055 76.6849 33.8911 76.6849 34.1118V36H75.8395ZM83.8839 36.0845C83.5316 36.0845 83.2216 36.0094 82.9539 35.8591C82.6861 35.7041 82.4771 35.488 82.3268 35.2109C82.1765 34.9338 82.1014 34.6144 82.1014 34.2527C82.1014 33.877 82.1742 33.5482 82.3198 33.2664C82.4701 32.9845 82.6791 32.7638 82.9468 32.6041C83.2192 32.4444 83.5339 32.3645 83.8909 32.3645C84.2385 32.3645 84.5414 32.442 84.7998 32.597C85.0581 32.752 85.2577 32.9611 85.3986 33.2241C85.5395 33.4824 85.61 33.7736 85.61 34.0977C85.61 34.1447 85.61 34.1964 85.61 34.2527C85.61 34.3091 85.6053 34.3678 85.5959 34.4289H82.7073V33.8864H84.7575C84.7481 33.628 84.6612 33.4261 84.4968 33.2805C84.3324 33.1302 84.1281 33.055 83.8839 33.055C83.7101 33.055 83.5504 33.0949 83.4048 33.1748C83.2592 33.2546 83.1441 33.3744 83.0595 33.5341C82.975 33.6891 82.9327 33.8864 82.9327 34.1259V34.3302C82.9327 34.551 82.9726 34.7412 83.0525 34.9009C83.137 35.0606 83.2498 35.1827 83.3907 35.2673C83.5363 35.3471 83.6983 35.387 83.8768 35.387C84.0741 35.387 84.2361 35.3448 84.363 35.2602C84.4945 35.1757 84.5908 35.063 84.6518 34.922H85.5114C85.4456 35.1428 85.3376 35.3424 85.1873 35.5209C85.037 35.6947 84.8514 35.8333 84.6307 35.9366C84.4099 36.0352 84.161 36.0845 83.8839 36.0845ZM87.8571 36V31.0682H89.4493C90.0224 31.0682 90.4944 31.1692 90.8655 31.3711C91.2412 31.5731 91.5183 31.8596 91.6968 32.2307C91.88 32.597 91.9716 33.0339 91.9716 33.5411C91.9716 34.039 91.88 34.4735 91.6968 34.8445C91.5183 35.2109 91.2412 35.4951 90.8655 35.697C90.4944 35.899 90.0224 36 89.4493 36H87.8571ZM88.7025 35.2814H89.4071C89.8345 35.2814 90.1703 35.2133 90.4146 35.077C90.6635 34.9361 90.8396 34.7365 90.943 34.4782C91.051 34.2152 91.105 33.9028 91.105 33.5411C91.105 33.1748 91.051 32.8624 90.943 32.6041C90.8396 32.3411 90.6635 32.1391 90.4146 31.9982C90.1703 31.8526 89.8345 31.7798 89.4071 31.7798H88.7025V35.2814ZM93.8117 36.0845C93.5205 36.0845 93.2786 36.0352 93.086 35.9366C92.8934 35.838 92.7502 35.7064 92.6562 35.542C92.5623 35.3777 92.5153 35.1992 92.5153 35.0066C92.5153 34.7811 92.5717 34.5862 92.6844 34.4218C92.8018 34.2574 92.9733 34.1306 93.1987 34.0414C93.4242 33.9474 93.7013 33.9005 94.0301 33.9005H94.9249C94.9249 33.7126 94.899 33.5576 94.8474 33.4355C94.7957 33.3086 94.7158 33.2147 94.6078 33.1536C94.4998 33.0926 94.3612 33.062 94.1921 33.062C93.9996 33.062 93.8352 33.1067 93.6989 33.1959C93.5627 33.2805 93.4782 33.412 93.4453 33.5905H92.6139C92.6421 33.3368 92.7267 33.1208 92.8676 32.9423C93.0085 32.7591 93.194 32.6182 93.4242 32.5195C93.659 32.4162 93.915 32.3645 94.1921 32.3645C94.5256 32.3645 94.8098 32.4233 95.0446 32.5407C95.2795 32.6534 95.458 32.8178 95.5801 33.0339C95.7069 33.2452 95.7703 33.5012 95.7703 33.8018V36H95.0517L94.9671 35.4293C94.9202 35.5233 94.8591 35.6102 94.7839 35.69C94.7135 35.7698 94.6313 35.8403 94.5374 35.9014C94.4434 35.9577 94.3354 36.0023 94.2133 36.0352C94.0958 36.0681 93.962 36.0845 93.8117 36.0845ZM94.0019 35.4152C94.1381 35.4152 94.2579 35.3917 94.3612 35.3448C94.4693 35.2931 94.5608 35.2227 94.636 35.1334C94.7158 35.0395 94.7769 34.9361 94.8192 34.8234C94.8614 34.7107 94.8896 34.5909 94.9037 34.4641V34.45H94.1217C93.9573 34.45 93.8211 34.4711 93.713 34.5134C93.605 34.551 93.5275 34.6073 93.4805 34.6825C93.4336 34.7577 93.4101 34.8445 93.4101 34.9432C93.4101 35.0418 93.4336 35.1264 93.4805 35.1968C93.5275 35.2673 93.5956 35.3213 93.6849 35.3589C93.7741 35.3964 93.8798 35.4152 94.0019 35.4152ZM98.0207 36C97.7811 36 97.5721 35.9624 97.3936 35.8873C97.2198 35.8121 97.0836 35.6877 96.985 35.5139C96.8864 35.3401 96.837 35.1052 96.837 34.8093V33.1607H96.2311V32.4491H96.837L96.9357 31.512H97.6825V32.4491H98.6477V33.1607H97.6825V34.8093C97.6825 34.9878 97.7201 35.1123 97.7952 35.1827C97.8751 35.2485 98.0066 35.2814 98.1898 35.2814H98.6266V36H98.0207ZM100.486 36.0845C100.195 36.0845 99.9528 36.0352 99.7602 35.9366C99.5676 35.838 99.4244 35.7064 99.3304 35.542C99.2365 35.3777 99.1895 35.1992 99.1895 35.0066C99.1895 34.7811 99.2459 34.5862 99.3586 34.4218C99.476 34.2574 99.6475 34.1306 99.8729 34.0414C100.098 33.9474 100.375 33.9005 100.704 33.9005H101.599C101.599 33.7126 101.573 33.5576 101.522 33.4355C101.47 33.3086 101.39 33.2147 101.282 33.1536C101.174 33.0926 101.035 33.062 100.866 33.062C100.674 33.062 100.509 33.1067 100.373 33.1959C100.237 33.2805 100.152 33.412 100.12 33.5905H99.2881C99.3163 33.3368 99.4009 33.1208 99.5418 32.9423C99.6827 32.7591 99.8682 32.6182 100.098 32.5195C100.333 32.4162 100.589 32.3645 100.866 32.3645C101.2 32.3645 101.484 32.4233 101.719 32.5407C101.954 32.6534 102.132 32.8178 102.254 33.0339C102.381 33.2452 102.445 33.5012 102.445 33.8018V36H101.726L101.641 35.4293C101.594 35.5233 101.533 35.6102 101.458 35.69C101.388 35.7698 101.305 35.8403 101.212 35.9014C101.118 35.9577 101.01 36.0023 100.887 36.0352C100.77 36.0681 100.636 36.0845 100.486 36.0845ZM100.676 35.4152C100.812 35.4152 100.932 35.3917 101.035 35.3448C101.143 35.2931 101.235 35.2227 101.31 35.1334C101.39 35.0395 101.451 34.9361 101.493 34.8234C101.536 34.7107 101.564 34.5909 101.578 34.4641V34.45H100.796C100.631 34.45 100.495 34.4711 100.387 34.5134C100.279 34.551 100.202 34.6073 100.155 34.6825C100.108 34.7577 100.084 34.8445 100.084 34.9432C100.084 35.0418 100.108 35.1264 100.155 35.1968C100.202 35.2673 100.27 35.3213 100.359 35.3589C100.448 35.3964 100.554 35.4152 100.676 35.4152ZM105.236 36.0845C105.048 36.0845 104.879 36.0587 104.729 36.007C104.578 35.9601 104.447 35.8943 104.334 35.8098C104.222 35.7205 104.128 35.6195 104.052 35.5068L103.961 36H103.207V30.9273H104.052V32.9705C104.165 32.7967 104.318 32.6534 104.51 32.5407C104.703 32.4233 104.942 32.3645 105.229 32.3645C105.562 32.3645 105.856 32.4467 106.11 32.6111C106.368 32.7708 106.57 32.9916 106.716 33.2734C106.866 33.5505 106.941 33.8699 106.941 34.2316C106.941 34.5839 106.868 34.9009 106.723 35.1827C106.577 35.4645 106.375 35.6853 106.117 35.845C105.863 36.0047 105.57 36.0845 105.236 36.0845ZM105.06 35.3518C105.257 35.3518 105.433 35.3048 105.588 35.2109C105.743 35.1123 105.863 34.9808 105.948 34.8164C106.037 34.6473 106.082 34.45 106.082 34.2245C106.082 34.0038 106.037 33.8089 105.948 33.6398C105.863 33.4707 105.743 33.3392 105.588 33.2452C105.433 33.1513 105.257 33.1043 105.06 33.1043C104.858 33.1043 104.679 33.1513 104.524 33.2452C104.374 33.3392 104.254 33.4707 104.165 33.6398C104.081 33.8089 104.038 34.0038 104.038 34.2245C104.038 34.45 104.081 34.6473 104.165 34.8164C104.254 34.9808 104.374 35.1123 104.524 35.2109C104.679 35.3048 104.858 35.3518 105.06 35.3518ZM108.804 36.0845C108.513 36.0845 108.271 36.0352 108.079 35.9366C107.886 35.838 107.743 35.7064 107.649 35.542C107.555 35.3777 107.508 35.1992 107.508 35.0066C107.508 34.7811 107.564 34.5862 107.677 34.4218C107.795 34.2574 107.966 34.1306 108.192 34.0414C108.417 33.9474 108.694 33.9005 109.023 33.9005H109.918C109.918 33.7126 109.892 33.5576 109.84 33.4355C109.788 33.3086 109.709 33.2147 109.601 33.1536C109.493 33.0926 109.354 33.062 109.185 33.062C108.992 33.062 108.828 33.1067 108.692 33.1959C108.556 33.2805 108.471 33.412 108.438 33.5905H107.607C107.635 33.3368 107.719 33.1208 107.86 32.9423C108.001 32.7591 108.187 32.6182 108.417 32.5195C108.652 32.4162 108.908 32.3645 109.185 32.3645C109.518 32.3645 109.803 32.4233 110.037 32.5407C110.272 32.6534 110.451 32.8178 110.573 33.0339C110.7 33.2452 110.763 33.5012 110.763 33.8018V36H110.044L109.96 35.4293C109.913 35.5233 109.852 35.6102 109.777 35.69C109.706 35.7698 109.624 35.8403 109.53 35.9014C109.436 35.9577 109.328 36.0023 109.206 36.0352C109.089 36.0681 108.955 36.0845 108.804 36.0845ZM108.995 35.4152C109.131 35.4152 109.251 35.3917 109.354 35.3448C109.462 35.2931 109.554 35.2227 109.629 35.1334C109.709 35.0395 109.77 34.9361 109.812 34.8234C109.854 34.7107 109.882 34.5909 109.897 34.4641V34.45H109.114C108.95 34.45 108.814 34.4711 108.706 34.5134C108.598 34.551 108.52 34.6073 108.473 34.6825C108.426 34.7577 108.403 34.8445 108.403 34.9432C108.403 35.0418 108.426 35.1264 108.473 35.1968C108.52 35.2673 108.588 35.3213 108.678 35.3589C108.767 35.3964 108.873 35.4152 108.995 35.4152ZM112.942 36.0845C112.627 36.0845 112.352 36.0352 112.117 35.9366C111.887 35.8333 111.704 35.6923 111.568 35.5139C111.436 35.3307 111.359 35.1217 111.335 34.8868H112.181C112.204 34.9855 112.247 35.077 112.308 35.1616C112.369 35.2414 112.451 35.3048 112.554 35.3518C112.662 35.3988 112.789 35.4223 112.935 35.4223C113.076 35.4223 113.191 35.4035 113.28 35.3659C113.369 35.3236 113.435 35.2696 113.477 35.2039C113.519 35.1381 113.541 35.0677 113.541 34.9925C113.541 34.8798 113.51 34.7929 113.449 34.7318C113.388 34.6708 113.299 34.6238 113.181 34.5909C113.068 34.5533 112.932 34.5181 112.773 34.4852C112.603 34.4523 112.439 34.4124 112.279 34.3655C112.124 34.3138 111.983 34.2504 111.857 34.1752C111.735 34.1001 111.636 34.0038 111.561 33.8864C111.49 33.7689 111.455 33.6257 111.455 33.4566C111.455 33.2499 111.509 33.0644 111.617 32.9C111.73 32.7356 111.89 32.6064 112.096 32.5125C112.308 32.4139 112.559 32.3645 112.85 32.3645C113.263 32.3645 113.592 32.4608 113.836 32.6534C114.085 32.8413 114.231 33.1067 114.273 33.4495H113.47C113.447 33.318 113.381 33.217 113.273 33.1466C113.165 33.0714 113.022 33.0339 112.843 33.0339C112.66 33.0339 112.519 33.0691 112.42 33.1395C112.326 33.2053 112.279 33.2945 112.279 33.4073C112.279 33.4777 112.308 33.5435 112.364 33.6045C112.425 33.6609 112.512 33.7102 112.625 33.7525C112.737 33.7901 112.876 33.8277 113.04 33.8652C113.303 33.9169 113.536 33.978 113.738 34.0484C113.94 34.1189 114.099 34.2222 114.217 34.3584C114.334 34.4946 114.393 34.6872 114.393 34.9361C114.398 35.1616 114.339 35.3612 114.217 35.535C114.099 35.7088 113.933 35.845 113.717 35.9436C113.501 36.0376 113.242 36.0845 112.942 36.0845ZM116.735 36.0845C116.383 36.0845 116.073 36.0094 115.805 35.8591C115.537 35.7041 115.328 35.488 115.178 35.2109C115.028 34.9338 114.953 34.6144 114.953 34.2527C114.953 33.877 115.026 33.5482 115.171 33.2664C115.321 32.9845 115.53 32.7638 115.798 32.6041C116.071 32.4444 116.385 32.3645 116.742 32.3645C117.09 32.3645 117.393 32.442 117.651 32.597C117.909 32.752 118.109 32.9611 118.25 33.2241C118.391 33.4824 118.461 33.7736 118.461 34.0977C118.461 34.1447 118.461 34.1964 118.461 34.2527C118.461 34.3091 118.457 34.3678 118.447 34.4289H115.559V33.8864H117.609C117.599 33.628 117.513 33.4261 117.348 33.2805C117.184 33.1302 116.979 33.055 116.735 33.055C116.561 33.055 116.402 33.0949 116.256 33.1748C116.111 33.2546 115.995 33.3744 115.911 33.5341C115.826 33.6891 115.784 33.8864 115.784 34.1259V34.3302C115.784 34.551 115.824 34.7412 115.904 34.9009C115.988 35.0606 116.101 35.1827 116.242 35.2673C116.388 35.3471 116.55 35.387 116.728 35.387C116.925 35.387 117.087 35.3448 117.214 35.2602C117.346 35.1757 117.442 35.063 117.503 34.922H118.363C118.297 35.1428 118.189 35.3424 118.039 35.5209C117.888 35.6947 117.703 35.8333 117.482 35.9366C117.261 36.0352 117.012 36.0845 116.735 36.0845Z" fill="#63666A"/>
</svg>
