<svg width="500" height="200" viewBox="0 0 500 200" fill="none" xmlns="http://www.w3.org/2000/svg">
<path fill-rule="evenodd" clip-rule="evenodd" d="M456.987 88.3759C456.556 88.4624 456.125 89.4123 456.125 89.9301C456.038 93.3832 455.952 102.535 455.952 108.751C455.952 108.924 456.21 109.269 456.47 109.269C457.765 109.355 460.873 109.441 463.549 109.441C467.261 109.441 469.42 108.924 470.629 108.406C473.736 106.852 475.204 103.484 475.204 99.7718C475.204 91.3977 469.333 88.2031 460.613 88.2031C460.009 88.1174 458.283 88.1174 456.987 88.3759ZM479.262 126.967C479.262 118.42 472.959 113.672 461.563 113.672C461.046 113.672 457.42 113.585 456.556 113.758C456.297 113.845 455.952 114.017 455.952 114.277C455.952 120.406 455.865 130.162 456.125 133.96C456.297 135.601 457.506 137.932 458.974 138.622C460.527 139.486 464.067 139.658 466.484 139.658C473.305 139.658 479.262 135.86 479.262 126.967ZM439.376 83.6279C440.239 83.6279 442.829 83.8864 449.477 83.8864C455.779 83.8864 460.786 83.7144 466.916 83.7144C474.427 83.7144 484.787 86.3905 484.787 97.6134C484.787 103.139 480.902 107.542 475.808 109.701C475.55 109.787 475.55 109.959 475.808 110.046C483.06 111.859 489.45 116.349 489.45 124.809C489.45 133.097 484.269 138.363 476.758 141.644C472.182 143.63 466.484 144.32 460.7 144.32C456.297 144.32 444.47 143.803 437.908 143.975C437.218 143.716 438.512 140.608 439.117 140.09C440.671 140.004 441.879 139.917 443.52 139.4C445.851 138.795 446.109 138.105 446.455 134.565C446.628 131.543 446.628 120.837 446.628 113.24C446.628 102.794 446.714 95.7144 446.628 92.2612C446.542 89.5851 445.592 88.7216 443.693 88.2031C442.225 87.9446 439.807 87.5989 437.822 87.3404C437.39 86.9082 438.857 83.9728 439.376 83.6279ZM389.561 137.328C391.633 138.967 395.691 139.658 399.317 139.658C403.979 139.658 408.641 138.795 413.13 134.737C417.706 130.593 420.9 124.205 420.9 114.017C420.9 104.261 417.188 96.3186 409.591 91.657C405.274 88.9801 399.748 87.8582 393.36 87.8582C391.461 87.8582 389.647 87.9446 388.525 88.4624C388.266 88.6352 387.662 89.4123 387.662 89.8436C387.489 91.5706 387.489 104.865 387.489 112.636C387.489 120.665 387.489 131.888 387.662 133.183C387.662 134.479 388.266 136.464 389.561 137.328ZM369.963 83.6279C371.603 83.6279 377.906 83.8864 380.927 83.8864C386.367 83.8864 390.251 83.6279 400.525 83.6279C409.159 83.6279 416.411 85.9591 421.591 90.3614C427.893 95.8008 431.174 103.312 431.174 112.463C431.174 125.5 425.217 133.011 419.26 137.328C413.303 141.731 405.533 144.32 394.482 144.32C388.612 144.32 378.511 144.148 370.136 144.061H370.049C369.618 143.285 370.74 140.263 371.431 140.177C373.675 139.917 374.28 139.831 375.402 139.4C377.215 138.709 377.561 137.759 377.82 134.565C378.078 128.608 377.992 121.442 377.992 113.327C377.992 107.542 378.078 96.2322 377.906 92.6062C377.647 89.5851 376.352 88.8081 373.762 88.2895C372.467 88.031 370.74 87.6853 368.323 87.4268C367.977 86.8218 369.532 84.1457 369.963 83.6279Z" fill="#8E714E"/>
<path fill-rule="evenodd" clip-rule="evenodd" d="M265.5 140.694C263.341 140.435 261.787 140.09 259.887 139.226C259.629 139.053 259.197 138.191 259.197 137.845C259.024 134.823 259.024 126.19 259.024 120.406C259.024 115.743 258.248 111.686 256.261 108.837C253.93 105.556 250.563 103.657 246.247 103.657C242.448 103.657 237.354 106.247 233.124 109.873C233.038 109.959 232.347 110.564 232.433 109.614C232.433 108.664 232.606 106.765 232.693 105.47C232.779 104.261 232.088 103.657 232.088 103.657C229.325 105.038 221.555 106.851 218.706 107.11C216.634 107.542 216.117 109.528 218.275 110.218H218.361C220.692 110.909 222.246 111.686 223.454 112.463C224.318 113.154 224.231 114.103 224.231 114.881C224.318 121.356 224.318 131.284 224.059 136.723C223.973 138.881 223.369 139.658 221.815 140.003L221.987 139.917C220.778 140.176 219.828 140.435 218.361 140.608C217.843 141.125 217.843 143.889 218.361 144.493C219.311 144.493 224.318 144.234 228.462 144.234C234.16 144.234 237.096 144.493 238.563 144.493C239.168 143.802 239.34 141.212 238.995 140.608C237.354 140.521 236.146 140.349 235.024 140.003C233.47 139.658 233.038 138.881 232.951 137.068C232.779 132.492 232.779 122.823 232.779 116.262C232.779 114.448 233.297 113.585 233.815 113.067C235.8 111.341 238.995 110.132 241.844 110.132C244.606 110.132 246.42 110.995 247.801 112.118C249.7 113.671 250.304 115.916 250.563 117.557C250.995 121.269 250.823 128.608 250.823 134.996C250.823 138.449 250.563 139.313 249.269 139.744C248.664 140.003 247.11 140.349 245.297 140.521C244.693 141.125 244.866 143.802 245.297 144.406C247.801 144.406 250.736 144.147 255.053 144.147C260.405 144.147 263.859 144.406 265.24 144.406C265.672 143.889 265.845 141.385 265.5 140.694ZM289.414 107.715C284.838 107.715 281.989 111.255 281.989 116.78C281.989 122.391 284.493 128.866 291.573 128.866C292.781 128.866 295.026 128.348 296.061 127.14C297.702 125.586 298.825 122.477 298.825 119.197C298.825 112.032 295.284 107.715 289.414 107.715ZM288.809 145.874C287.083 145.874 285.874 146.392 285.098 146.824C281.471 149.154 279.831 151.399 279.831 154.076C279.831 156.579 280.78 158.565 282.853 160.292C285.356 162.45 288.809 163.487 293.212 163.487C302.018 163.487 305.904 158.738 305.904 154.076C305.904 150.795 304.263 148.637 300.896 147.428C298.479 146.392 294.076 145.874 288.809 145.874ZM289.414 168.321C284.148 168.321 280.349 167.198 277.068 164.695C273.874 162.277 272.492 158.651 272.492 156.148C272.492 155.457 272.665 153.558 274.219 151.831C275.169 150.795 277.24 148.81 282.162 145.443C282.334 145.356 282.421 145.27 282.421 145.097C282.421 144.924 282.248 144.751 282.076 144.666C278.018 143.112 276.809 140.608 276.463 139.226V139.053C276.378 138.536 276.205 138.018 276.982 137.499C277.586 137.068 278.45 136.55 279.399 135.946C280.866 135.083 282.421 134.133 283.371 133.356C283.543 133.183 283.543 133.011 283.543 132.838C283.543 132.665 283.371 132.492 283.198 132.406C277.155 130.42 274.133 125.931 274.133 119.197C274.133 114.794 276.118 110.822 279.658 108.319C282.076 106.419 288.119 104.089 292.09 104.089H292.35C296.407 104.175 298.652 105.038 301.846 106.161C303.573 106.765 305.213 107.023 307.458 107.023C310.825 107.023 312.292 105.988 313.501 104.78C313.587 104.952 313.76 105.384 313.846 106.506C313.933 107.628 313.587 109.268 312.724 110.477C312.033 111.427 310.48 112.118 308.926 112.118H308.493C306.939 111.945 306.249 111.772 306.249 111.772L305.904 111.945C305.817 112.118 305.904 112.29 305.99 112.549L306.077 112.722C306.249 113.499 306.594 115.83 306.594 116.435C306.594 123.514 303.745 126.621 300.724 128.952C297.788 131.111 294.421 132.492 290.623 132.838C290.536 132.838 290.191 132.838 289.414 132.924C288.982 132.924 288.378 133.011 288.291 133.011H288.205C287.514 133.183 285.788 134.046 285.788 135.514C285.788 136.809 286.565 138.363 290.277 138.622C291.054 138.709 291.831 138.709 292.694 138.795C297.615 139.14 303.745 139.572 306.594 140.521C310.565 141.989 313.069 145.528 313.069 149.759C313.069 156.148 308.493 162.105 300.896 165.817C297.184 167.457 293.472 168.321 289.414 168.321ZM338.624 108.146C336.811 108.146 335.17 108.578 333.962 109.441C330.595 111.513 328.868 115.658 328.868 121.7C328.868 133.011 334.566 140.953 342.682 140.953C345.099 140.953 346.998 140.263 348.639 138.881C351.142 136.809 352.438 132.665 352.438 126.881C352.438 115.658 346.826 108.146 338.624 108.146ZM340.178 145.097C325.502 145.097 320.235 134.305 320.235 124.204C320.235 117.125 323.084 111.686 328.782 107.801C332.84 105.297 337.674 103.916 341.991 103.916C353.214 103.916 361.071 111.945 361.071 123.514C361.071 131.37 357.963 137.586 352.006 141.385C349.157 143.284 344.237 145.097 340.178 145.097ZM186.331 108.146C184.518 108.146 182.878 108.578 181.669 109.441C178.302 111.513 176.575 115.658 176.575 121.7C176.575 133.011 182.273 140.953 190.389 140.953C192.806 140.953 194.705 140.263 196.346 138.881C198.849 136.809 200.145 132.665 200.145 126.881C200.145 115.658 194.619 108.146 186.331 108.146ZM187.886 145.097C173.209 145.097 167.942 134.305 167.942 124.204C167.942 117.125 170.791 111.686 176.489 107.801C180.547 105.297 185.382 103.916 189.698 103.916C200.922 103.916 208.778 111.945 208.778 123.514C208.778 131.37 205.67 137.586 199.713 141.385C196.95 143.284 192.029 145.097 187.886 145.097ZM89.2059 144.234C89.033 143.975 88.8602 143.198 88.9466 142.248C88.9466 141.558 89.1195 141.125 89.2059 140.953C91.0185 140.694 91.9684 140.435 93.004 140.176C94.731 139.744 95.4216 138.795 95.508 136.637C95.7673 131.457 95.7673 121.614 95.6809 114.794V114.621C95.6809 113.844 95.6809 112.894 94.731 112.204C93.3497 111.341 91.7091 110.564 89.5508 109.959C88.7738 109.7 88.256 109.268 88.3424 108.75C88.3424 108.233 88.8602 107.628 89.983 107.456C92.8319 107.196 100.256 105.384 103.191 104.089C103.364 104.261 103.624 104.78 103.624 105.47L103.537 106.419C103.451 107.369 103.364 108.492 103.364 109.614C103.364 109.959 103.71 110.218 104.055 110.218C104.228 110.218 104.401 110.132 104.573 110.045C110.099 105.729 115.106 104.175 117.695 104.175C121.927 104.175 125.207 106.161 127.711 110.305C127.883 110.564 128.056 110.649 128.315 110.649C128.488 110.649 128.746 110.564 128.833 110.391C133.927 106.506 139.02 104.175 142.387 104.175C150.416 104.175 155.165 110.132 155.165 120.233C155.165 123.082 155.165 126.794 155.079 130.162C155.079 133.183 154.992 135.946 154.992 137.931C154.992 138.363 155.596 139.744 156.546 140.003C157.755 140.608 159.395 140.867 161.553 141.212H161.64C161.813 141.816 161.467 144.061 161.122 144.493C160.604 144.493 159.826 144.493 158.964 144.406C157.323 144.32 154.992 144.234 152.402 144.234C147.049 144.234 144.287 144.32 141.61 144.493C141.438 143.802 141.351 141.73 141.61 141.212C143.164 140.953 143.941 140.694 144.891 140.435C146.618 139.917 147.049 139.14 147.136 136.895C147.136 135.255 147.481 121.269 146.963 117.902C146.445 114.448 143.855 110.391 138.157 110.391C135.998 110.391 132.632 111.255 129.351 113.758C129.179 113.931 129.006 114.362 129.006 114.621V114.708C129.351 116.52 129.351 118.593 129.351 121.787V127.398C129.351 131.284 129.264 134.91 129.351 137.672C129.351 139.572 130.473 140.003 131.423 140.349C131.941 140.435 132.286 140.521 132.718 140.608C133.495 140.78 134.272 140.953 135.481 141.212C135.654 141.558 135.654 142.679 135.394 143.629C135.308 144.147 135.135 144.406 135.049 144.493C132.114 144.406 129.092 144.32 124.689 144.32C123.394 144.32 121.149 144.406 119.25 144.406C117.695 144.406 116.228 144.493 115.365 144.493C115.279 144.32 115.106 143.716 115.106 142.766C115.106 141.989 115.279 141.385 115.452 141.212C115.883 141.125 116.228 141.04 116.66 141.04C117.695 140.867 118.559 140.694 119.422 140.521C120.89 140.09 121.408 139.313 121.494 137.414C121.754 133.097 122.012 120.751 121.408 117.643C120.372 112.636 117.523 110.132 112.948 110.132C110.271 110.132 106.904 111.427 104.141 113.499C103.71 113.844 103.364 114.708 103.364 115.485V120.578C103.364 126.794 103.364 134.565 103.451 137.931C103.537 138.967 103.882 140.176 105.868 140.608C106.3 140.694 106.99 140.867 107.854 140.953L109.408 141.212C109.581 141.73 109.494 143.802 109.149 144.493C108.285 144.493 107.25 144.406 106.04 144.406C104.228 144.32 101.897 144.234 99.3069 144.234C96.2851 144.234 94.1268 144.32 92.3998 144.406C91.1914 144.234 90.2414 144.234 89.2059 144.234Z" fill="#442D22"/>
<path fill-rule="evenodd" clip-rule="evenodd" d="M43.7938 164.954L40.2542 163.745C40.2542 163.745 40.6863 145.701 34.2114 144.406C29.8947 139.399 34.902 -67.9747 50.4416 143.716C50.4416 143.716 45.0894 146.392 44.1395 150.968C43.1031 155.457 43.7938 164.954 43.7938 164.954Z" fill="white"/>
<path fill-rule="evenodd" clip-rule="evenodd" d="M43.7938 164.954L40.2542 163.745C40.2542 163.745 40.6863 145.701 34.2114 144.406C29.8947 139.399 34.902 -67.9747 50.4416 143.716C50.4416 143.716 45.0894 146.392 44.1395 150.968C43.1031 155.457 43.7938 164.954 43.7938 164.954Z" fill="#A6A385"/>
<path fill-rule="evenodd" clip-rule="evenodd" d="M45.6936 147.515C45.6936 147.515 76.6872 127.14 69.4352 84.7498C62.4424 53.929 45.9521 43.828 44.1395 39.9427C42.154 37.1801 40.2542 32.3457 40.2542 32.3457L41.5498 118.075C41.5498 118.161 38.8729 144.32 45.6936 147.515Z" fill="white"/>
<path fill-rule="evenodd" clip-rule="evenodd" d="M45.6936 147.515C45.6936 147.515 76.6872 127.14 69.4352 84.7498C62.4424 53.929 45.9521 43.828 44.1395 39.9427C42.154 37.1801 40.2542 32.3457 40.2542 32.3457L41.5498 118.075C41.5498 118.161 38.8729 144.32 45.6936 147.515Z" fill="#499D4A"/>
<path fill-rule="evenodd" clip-rule="evenodd" d="M38.4416 148.637C38.4416 148.637 9.34696 128.78 11.0739 93.8152C12.7137 58.8498 33.2614 41.6697 37.2324 38.5614C39.8228 35.7989 39.9093 34.7625 40.0821 32C41.8947 35.8853 41.5498 90.1028 41.8083 96.4913C42.5854 121.096 40.427 143.975 38.4416 148.637Z" fill="white"/>
<path fill-rule="evenodd" clip-rule="evenodd" d="M38.4416 148.637C38.4416 148.637 9.34696 128.78 11.0739 93.8152C12.7137 58.8498 33.2614 41.6697 37.2324 38.5614C39.8228 35.7989 39.9093 34.7625 40.0821 32C41.8947 35.8853 41.5498 90.1028 41.8083 96.4913C42.5854 121.096 40.427 143.975 38.4416 148.637Z" fill="#58AA50"/>
</svg>
