<svg width="500" height="200" viewBox="0 0 500 200" fill="none" xmlns="http://www.w3.org/2000/svg">
<g clip-path="url(#clip0_38_1174)">
<path d="M73.415 152.923H53.6225V132.973H74.4918C82.1282 132.973 85.9502 136.393 85.9502 143.103C85.9502 149.651 81.7718 152.926 73.4188 152.926M87.6451 132.741C84.9341 130.309 81.1386 129.093 76.2587 129.093L47.9122 129.245V176.973H53.6225L53.5694 156.654H74.6625C79.9518 156.654 84.1151 155.438 87.1522 153.006C90.1893 150.574 91.7098 147.192 91.7098 142.875C91.7098 138.559 90.3524 135.177 87.6413 132.745L87.6451 132.741ZM124.602 166.956C124.058 168.518 123.125 169.915 121.891 171.014C119.332 173.522 115.43 174.765 110.137 174.765C105.398 174.765 101.796 173.549 99.2173 171.117C96.639 168.685 95.4067 165.428 95.4067 161.351C95.4067 159.223 95.7403 157.342 96.4039 155.697C97.0332 154.103 98.0221 152.678 99.2931 151.532C101.917 149.138 105.534 147.933 110.137 147.933C120.375 147.933 125.429 152.406 125.429 161.347C125.429 163.475 125.137 165.337 124.557 166.948M125.592 149.343C122.111 146.162 116.958 144.57 110.133 144.57C103.688 144.57 98.7016 146.197 95.1867 149.446C92.0131 152.387 90.4282 156.354 90.4282 161.347C90.4282 166.306 92.0662 170.308 95.3422 173.355C97.1508 174.997 99.259 176.186 101.663 176.92C104.067 177.653 106.895 178.06 110.133 178.06C116.958 178.06 122.092 176.486 125.679 173.34C128.853 170.467 130.438 166.485 130.438 161.389C130.438 156.259 128.834 152.258 125.622 149.381L125.592 149.343ZM168.817 168.332C168.817 174.792 163.073 177.968 151.588 177.968C148.077 177.968 145.119 177.74 142.715 177.3C140.311 176.859 138.362 176.11 136.861 175.08C135.714 174.3 134.768 173.258 134.101 172.04C133.418 170.813 132.974 169.19 132.774 167.271L138.082 167.222C138.082 169.749 139.018 171.611 140.888 172.808C142.897 174.244 146.45 174.963 151.554 174.963C159.581 174.963 163.596 172.949 163.596 168.913C163.596 166.557 162.25 164.934 159.558 164.049C159.012 163.878 155.766 163.426 149.813 162.692C143.86 161.959 140.16 161.298 138.692 160.716C135.522 159.451 133.938 157.182 133.938 153.899C133.879 152.42 134.249 150.955 135.003 149.681C135.756 148.408 136.861 147.38 138.184 146.721C139.587 146.075 141.331 145.57 143.432 145.209C145.532 144.848 147.963 144.669 150.727 144.669C161.784 144.669 167.312 148.146 167.312 155.1H162.231C162.231 150.213 158.345 147.766 150.572 147.766C146.617 147.766 143.671 148.26 141.726 149.286C139.781 150.312 138.806 151.794 138.806 153.846C138.806 155.761 140.118 157.144 142.742 157.999C144.277 158.444 147.804 158.957 153.328 159.538C158.272 159.983 161.662 160.614 163.505 161.438C167.016 162.806 168.813 165.124 168.813 168.408L168.817 168.332ZM189.808 177.072L187.635 177.376L186.278 177.478C182.797 177.478 180.287 176.973 178.751 175.958C177.216 174.944 176.476 173.177 176.476 170.638V148.864H170.144V145.661H176.438L176.488 135.37H181.36V145.661H189.846V148.917L181.36 148.864V170.057C181.36 171.634 181.739 172.724 182.611 173.325C183.483 173.925 184.939 174.225 187.085 174.225C187.389 174.263 187.73 174.248 188.109 174.187C188.488 174.127 189.046 173.997 189.796 173.8L189.849 177.068L189.808 177.072ZM223.504 169.806C222.152 170.912 220.61 171.763 218.954 172.318C217.248 172.899 215.292 173.192 213.077 173.192C202.885 173.192 197.797 169.012 197.797 160.538C197.797 156.612 199.101 153.538 201.702 151.319C204.303 149.1 207.981 147.99 212.717 147.99C217.487 147.99 221.108 149.107 223.58 151.346C226.052 153.584 227.288 156.578 227.288 160.336C227.288 164.433 226.026 167.556 223.504 169.814M232.161 145.646H227.288L227.235 151.03C225.089 148.845 223.557 147.458 222.632 146.881C219.902 145.38 216.376 144.627 212.046 144.627C205.702 144.627 200.86 146.079 197.524 148.982C194.354 151.642 192.769 155.507 192.769 160.561C192.769 163.053 193.171 165.284 193.971 167.249C194.771 169.213 195.943 170.878 197.478 172.242C200.826 175.042 205.555 176.445 211.667 176.445C219.007 176.445 224.179 174.431 227.288 170.365V175.939C227.288 179.492 226.17 182.247 223.937 184.193C221.703 186.138 218.029 187.119 212.914 187.119C208.106 187.119 204.679 186.454 202.677 185.128C201.141 184.109 200.083 182.338 199.507 179.819H194.521C195.067 183.334 196.549 185.88 198.972 187.449C201.77 189.258 206.495 190.163 213.145 190.163C225.87 190.163 232.233 185.424 232.233 175.943V145.608L232.161 145.646ZM258.513 148.819C257.162 148.59 255.795 148.47 254.425 148.461C246.417 148.461 242.413 152.862 242.413 161.666V176.973H237.598L237.545 145.649L242.417 145.699V151.285H242.671C243.49 149.081 244.783 147.409 246.558 146.276C248.499 145.136 251.396 144.623 255.248 144.623H258.52V148.815L258.513 148.819ZM263.048 159.329C263.662 155.769 265.042 153.014 267.188 151.061C268.591 149.932 270.172 149.085 271.943 148.515C273.714 147.945 275.712 147.667 277.926 147.667C282.256 147.667 285.79 148.857 288.535 151.239C291.28 153.622 292.687 156.316 292.687 159.333H263.086M293.165 149.67C291.383 147.911 289.207 146.606 286.818 145.866C284.292 145.041 281.342 144.631 277.964 144.631C271.651 144.631 266.756 146.102 263.275 149.039C259.794 151.976 258.054 155.982 258.054 161.047C258.054 166.112 259.722 170.167 263.067 173.101C266.68 176.384 271.78 178.025 278.366 178.025C280.99 178.025 283.42 177.721 285.654 177.132C287.887 176.543 289.84 175.688 291.512 174.605C294.446 172.493 296.301 169.893 297.085 166.793H291.777C289.968 172.113 285.472 174.826 278.279 174.826C273.198 174.826 269.292 173.519 266.525 170.897C264.174 168.617 262.998 165.744 262.998 162.172H297.73C297.73 156.859 296.213 152.691 293.074 149.632L293.165 149.67Z" fill="#231F20"/>
<path d="M349.297 164.174C349.297 173.473 341.812 178.12 326.85 178.12C317.883 178.12 311.335 176.524 307.209 173.313C303.797 170.68 302.147 166.663 302.147 161.267H308.214C308.214 169.95 314.432 174.29 326.888 174.29C332.856 174.29 337.175 173.401 339.833 171.63C342.085 170.061 343.245 167.602 343.245 164.258C343.245 160.944 341.71 158.623 338.638 157.289C336.894 156.529 332.647 155.666 325.898 154.572C317.405 153.272 311.896 151.976 309.374 150.681C305.727 148.769 303.899 145.524 303.899 140.945C303.899 136.678 305.416 133.497 308.555 131.415C311.892 129.127 317.629 127.983 325.747 127.983C340.42 127.983 347.75 132.866 347.75 142.632H341.638C341.638 135.317 336.189 131.662 325.333 131.662C319.873 131.662 315.877 132.399 313.352 133.866C310.963 135.439 309.769 137.742 309.769 140.789C309.769 143.97 311.304 146.208 314.375 147.508C316.006 148.26 320.821 149.301 328.807 150.639C336.314 151.767 341.376 153.082 343.973 154.591C347.556 156.438 349.346 159.633 349.346 164.182L349.297 164.174ZM398.239 168.924C395.969 170.742 393.383 172.122 390.611 172.994C387.775 173.899 384.601 174.351 381.086 174.351C373.882 174.351 368.118 172.451 363.697 168.537C359.276 164.623 357.062 159.504 357.062 153.056C357.062 146.33 359.254 141.097 363.641 137.343C368.027 133.588 373.878 131.711 381.082 131.711C388.423 131.711 394.194 133.672 398.391 137.601C400.609 139.512 402.247 141.781 403.309 144.308C404.371 146.835 404.901 149.78 404.901 153.059C404.901 159.747 402.68 165.037 398.243 168.928M401.447 172.094C404.587 169.874 406.907 167.154 408.413 164.026C409.918 160.899 410.669 157.186 410.669 153.09C410.669 145.68 408.212 139.737 403.298 135.23C400.67 132.771 397.496 130.943 393.818 129.75C390.14 128.557 385.856 127.957 381.078 127.957C371.8 127.957 364.516 130.21 359.227 134.721C353.938 139.231 351.295 145.342 351.295 153.059C351.295 160.572 353.96 166.633 359.257 171.242C364.554 175.852 371.884 178.158 381.128 178.158C384.741 178.158 387.896 177.911 390.592 177.425C393.288 176.939 395.57 176.182 397.447 175.168L406.35 181.35L410.066 177.93L401.447 172.071V172.094ZM455.782 176.969H414.612V129.184L420.273 129.081V172.971H455.839L455.786 176.961L455.782 176.969Z" fill="#367FAF"/>
<path d="M277.615 90.7129C278.362 84.4809 278.138 83.5689 282.772 84.5797L283.909 84.6823C287.474 84.8457 292.126 84.1123 294.867 82.8355C300.756 80.0995 304.248 75.5243 298.443 76.7251C285.195 79.4611 284.285 74.9695 284.285 74.9695C298.276 54.1683 304.115 27.7621 299.072 21.3021C285.308 3.67014 261.474 12.0111 261.08 12.2277L260.955 12.2505C258.338 11.7071 255.407 11.3765 252.12 11.3271C246.129 11.2283 241.579 12.9003 238.091 15.5261C238.091 15.5261 195.579 -2.02987 197.52 37.6041C197.937 46.0325 209.578 101.391 223.455 84.6709C228.528 78.5529 233.427 73.3849 233.427 73.3849C235.861 75.0075 238.735 75.8321 241.833 75.5357L242.068 75.3343C241.997 76.1281 242.029 76.9276 242.163 77.7131C238.588 81.7145 239.638 82.4251 232.494 83.8957C225.264 85.3891 229.51 88.0491 232.286 88.7445C235.649 89.5881 243.433 90.7813 248.685 83.4055L248.476 84.2491C249.879 85.3739 249.784 92.3317 249.982 97.3021C250.179 102.273 250.512 106.916 251.525 109.652C252.537 112.388 253.724 119.433 263.127 117.416C270.976 115.728 276.982 113.304 277.528 90.7281" fill="#231F20"/>
<path d="M277.615 90.7129C278.362 84.4809 278.138 83.5689 282.772 84.5797L283.909 84.6823C287.474 84.8457 292.126 84.1123 294.867 82.8355C300.756 80.0995 304.248 75.5243 298.443 76.7251C285.195 79.4611 284.285 74.9695 284.285 74.9695C298.276 54.1683 304.115 27.7621 299.072 21.3021C285.308 3.67014 261.474 12.0111 261.08 12.2277L260.955 12.2505C258.338 11.7071 255.407 11.3765 252.12 11.3271C246.129 11.2283 241.579 12.9003 238.091 15.5261C238.091 15.5261 195.579 -2.02987 197.52 37.6041C197.937 46.0325 209.578 101.391 223.455 84.6709C228.528 78.5529 233.427 73.3849 233.427 73.3849C235.861 75.0075 238.735 75.8321 241.833 75.5357L242.068 75.3343C241.997 76.1281 242.029 76.9276 242.163 77.7131C238.588 81.7145 239.638 82.4251 232.494 83.8957C225.264 85.3891 229.51 88.0491 232.286 88.7445C235.649 89.5881 243.433 90.7813 248.685 83.4055L248.476 84.2491C249.879 85.3739 249.784 92.3317 249.982 97.3021C250.179 102.273 250.512 106.916 251.525 109.652C252.537 112.388 253.724 119.433 263.127 117.416C270.976 115.728 276.982 113.304 277.528 90.7281" stroke="#231F20" stroke-width="2.598"/>
<path d="M298.473 76.725C285.225 79.461 284.315 74.9694 284.315 74.9694C298.306 54.1682 304.145 27.762 299.103 21.2982C285.339 3.66623 261.504 12.0072 261.11 12.2238L260.981 12.2466C258.365 11.7032 255.434 11.3726 252.147 11.3232C246.156 11.2244 241.606 12.8964 238.117 15.5222C238.117 15.5222 195.605 -2.03377 197.547 37.6002C197.964 46.0362 209.604 101.387 223.482 84.667C228.555 78.549 233.454 73.381 233.454 73.381C235.888 75.0036 238.8 75.8282 241.856 75.5318L242.095 75.3304C242.019 76.0904 242.057 76.8314 242.19 77.7092C238.614 81.7106 239.664 82.4212 232.521 83.8918C225.29 85.3852 229.537 88.0452 232.312 88.7406C235.676 89.5842 243.46 90.7774 248.711 83.4016L248.503 84.2452C249.906 85.37 250.892 91.5602 250.721 97.1652C250.55 102.77 250.448 106.627 251.555 109.637C252.662 112.646 253.754 119.418 263.158 117.4C271.006 115.713 275.079 111.343 275.644 104.055C276.045 98.8714 276.955 99.639 277.009 95.0106L277.737 92.818C278.578 85.788 277.869 83.527 282.704 84.5834L283.841 84.686C287.405 84.8494 292.061 84.116 294.799 82.8392C300.687 80.1032 304.18 75.528 298.375 76.7288L298.473 76.725Z" fill="#417BA2"/>
<path d="M249.348 80.7532C248.984 93.8252 249.439 106.985 250.713 110.184C251.987 113.384 254.721 119.608 264.121 117.587C271.969 115.899 274.828 112.635 276.064 105.427L278.965 82.3872M238.125 15.2298C238.125 15.2298 195.582 -2.19701 197.554 37.4294C197.933 45.8654 209.612 101.22 223.489 84.5C228.562 78.42 233.147 73.594 233.147 73.594M261.065 12.0492C259.548 12.5128 284.725 2.84179 299.012 21.1692C304.054 27.6292 298.253 54.0392 284.224 74.8404" stroke="white" stroke-width="0.866" stroke-linecap="round" stroke-linejoin="round"/>
<path d="M284.22 74.8061C284.22 74.8061 285.13 79.3015 298.382 76.5617C304.183 75.3609 300.657 79.9323 294.807 82.6721C289.976 84.9141 279.147 85.4955 278.965 82.3909C278.51 74.3729 284.668 76.8125 284.22 74.8061ZM284.22 74.8061C283.818 72.9973 281.066 71.2227 279.246 66.7995C277.653 62.9349 257.444 33.3139 284.857 37.7143C285.862 37.5053 277.706 11.5817 252.052 11.1599C226.397 10.7381 227.247 42.7759 227.247 42.7759" stroke="white" stroke-width="0.866" stroke-linecap="round" stroke-linejoin="bevel"/>
<path d="M242.167 77.5421C238.591 81.5435 239.642 82.2541 232.498 83.7247C225.267 85.2181 229.514 87.8781 232.29 88.5735C235.653 89.4171 243.437 90.6103 248.689 83.2345C250.289 80.9925 248.681 77.4053 246.482 76.4895C245.42 76.0487 243.998 75.5015 242.175 77.5421H242.167Z" stroke="white" stroke-width="0.866" stroke-linejoin="round"/>
<path d="M241.932 77.4738C241.572 75.1178 242.705 72.321 243.915 69.0378C245.735 64.1206 249.982 59.2034 246.58 43.6082C244.078 31.9878 227.251 41.1876 227.243 42.7646C227.235 44.3416 228.001 50.7522 226.962 58.2192C225.597 67.9624 233.143 76.2046 241.837 75.3572" stroke="white" stroke-width="0.866" stroke-linecap="round" stroke-linejoin="round"/>
<path d="M237.928 42.5325C237.852 43.0721 238.914 44.5085 240.29 44.6985C241.666 44.8885 242.849 43.7675 242.921 43.2317C242.994 42.6959 241.936 42.0993 240.555 41.9017C239.175 41.7041 237.996 41.9891 237.924 42.5287L237.928 42.5325Z" fill="white" stroke="white" stroke-width="0.289"/>
<path d="M279.917 41.4344C279.993 41.974 278.931 43.4104 277.555 43.6004C276.178 43.7904 274.995 42.6694 274.919 42.1336C274.844 41.5978 275.905 41.0012 277.285 40.8112C278.666 40.6212 279.845 40.8986 279.921 41.4382L279.917 41.4344Z" fill="white" stroke="white" stroke-width="0.144"/>
<path d="M284.85 37.7104C285.077 41.9284 283.94 44.8089 283.799 49.3005C283.587 55.8365 286.909 63.311 281.904 70.797" stroke="white" stroke-width="0.866" stroke-linecap="round" stroke-linejoin="round"/>
</g>
<defs>
<clipPath id="clip0_38_1174">
<rect width="500" height="200" fill="white"/>
</clipPath>
</defs>
</svg>
