<svg width="128" height="27" viewBox="0 0 128 27" fill="none" xmlns="http://www.w3.org/2000/svg">
<path fill-rule="evenodd" clip-rule="evenodd" d="M37.3495 15.0132C37.0539 14.4237 36.9045 13.798 36.9045 13.1427C36.9045 11.9587 37.3281 10.9405 38.1739 10.0947C38.8538 9.41486 39.642 9.0158 40.542 8.88771C41.4403 8.76126 42.2926 8.89592 43.094 9.30155C42.8017 9.59551 42.3813 10.011 41.8459 10.5365C41.304 11.0686 40.7456 11.6237 40.1594 12.2067C39.5796 12.788 39.0279 13.3365 38.5089 13.8554C37.9916 14.3744 37.604 14.7636 37.3495 15.0132M46.2553 14.7997C45.8661 14.7997 45.513 14.9574 45.2568 15.2119V15.2119L44.2698 16.2006C43.5933 16.8772 42.8066 17.2861 41.9067 17.4191C41.0067 17.5554 40.1544 17.424 39.3514 17.02L46.2487 10.121V10.1194C46.5066 9.86155 46.6659 9.50519 46.6659 9.11434C46.6659 8.73498 46.5148 8.39175 46.2717 8.13721V8.129C45.5738 7.42941 44.7872 6.90882 43.9053 6.56231C43.0267 6.21087 42.1333 6.03516 41.2235 6.03516C40.317 6.03516 39.4203 6.21087 38.5418 6.56231C37.6615 6.90882 36.8733 7.42941 36.1753 8.129C35.4757 8.82695 34.9584 9.61521 34.6185 10.484C34.2769 11.3511 34.111 12.2379 34.111 13.1476C34.111 14.0607 34.2769 14.9525 34.6185 15.8311C34.9584 16.708 35.4757 17.4979 36.1753 18.1959C36.8535 18.8774 37.6254 19.393 38.4908 19.7527C39.3596 20.1123 40.271 20.293 41.2235 20.293C42.1744 20.293 43.0874 20.1123 43.9562 19.7527C44.8249 19.393 45.5951 18.8774 46.2717 18.1959L47.2472 17.2237C47.51 16.9658 47.6709 16.6111 47.6709 16.2137C47.6709 15.4336 47.037 14.7997 46.2553 14.7997" fill="white"/>
<path fill-rule="evenodd" clip-rule="evenodd" d="M76.4134 17.8342C76.3 17.1297 76.1999 16.4826 75.6973 15.5153C75.1981 14.5497 74.5149 13.7467 73.6478 13.1111C74.5149 12.469 75.1981 11.6709 75.6973 10.7151C76.1999 9.75604 76.4528 8.70009 76.4528 7.54232H76.4511C76.4511 7.53411 76.4528 7.5259 76.4528 7.51604C76.4528 6.75733 75.8386 6.1415 75.0799 6.1415C74.3228 6.1415 73.707 6.75733 73.707 7.51604C73.707 7.5259 73.7102 7.53411 73.7102 7.54232H73.707C73.707 8.12367 73.5969 8.66889 73.3818 9.18291C73.1634 9.69692 72.8661 10.1469 72.4851 10.5295C72.1025 10.9105 71.6607 11.2094 71.1566 11.4278C70.6508 11.6413 70.1088 11.7481 69.5324 11.7481C68.7491 11.7481 68.0035 11.8712 67.2941 12.1209C66.5813 12.3672 65.9277 12.7137 65.33 13.167V1.88156C65.33 1.87499 65.3316 1.86842 65.3316 1.86185C65.3316 1.10314 64.7158 0.487305 63.9554 0.487305C63.1967 0.487305 62.5825 1.10314 62.5809 1.85857H62.5776V17.3267V18.7144H62.5792C62.5792 19.4748 63.1951 20.0889 63.9538 20.0889C64.7125 20.0889 65.3283 19.4748 65.3283 18.7144H65.33V18.5748C65.33 18 65.4367 17.5435 65.6518 17.0443C65.8686 16.5384 66.1675 16.0967 66.5485 15.7173C66.9295 15.3347 67.3762 15.0391 67.8935 14.8223C68.4108 14.6039 68.9543 14.4988 69.5324 14.4988C70.1088 14.4988 70.6508 14.6039 71.1566 14.8223C71.6607 15.0391 72.1025 15.3347 72.4835 15.7173C72.8661 16.0967 73.1634 16.5384 73.3818 17.0443C73.5969 17.5435 73.707 18.2119 73.707 18.4418V18.6898H73.7086V18.6914C73.7086 19.4501 74.3228 20.066 75.0799 20.066C75.8386 20.066 76.4544 19.4501 76.4544 18.6914C76.4544 18.6848 76.4511 18.6766 76.4511 18.6684L76.4134 17.8342Z" fill="white"/>
<path fill-rule="evenodd" clip-rule="evenodd" d="M60.4177 12.9557C60.0367 12.5812 59.5917 12.2889 59.0826 12.0688C58.5784 11.8554 58.0332 11.7437 57.4535 11.7437H51.8633C51.4725 11.7437 51.1391 11.6025 50.8731 11.3233C50.6005 11.0457 50.4707 10.7091 50.4707 10.31C50.4707 9.91425 50.6005 9.58252 50.8731 9.31483C51.1391 9.04222 51.4725 8.90756 51.8633 8.90756H59.0859C59.0941 8.9092 59.1023 8.91084 59.1105 8.91084C59.8741 8.91084 60.4916 8.29172 60.4916 7.52809C60.4916 6.76445 59.8741 6.14697 59.1105 6.14697V6.14697H51.8633C51.2853 6.14697 50.745 6.25864 50.2375 6.47378C49.7301 6.69219 49.2916 6.98451 48.9188 7.35894C48.5427 7.73008 48.2488 8.17513 48.0287 8.68093C47.8152 9.19002 47.7085 9.73196 47.7085 10.31C47.7085 10.8897 47.8152 11.4333 48.0287 11.944C48.2488 12.4515 48.5427 12.8965 48.9188 13.2775C49.2916 13.6635 49.7301 13.964 50.2375 14.1791C50.745 14.3975 51.2853 14.5059 51.8633 14.5059H57.4535C57.869 14.5059 58.2073 14.6389 58.4766 14.9083C58.7476 15.1776 58.8839 15.5093 58.8839 15.8985C58.8839 16.3124 58.7476 16.654 58.4766 16.9216C58.2073 17.1893 57.869 17.3207 57.4535 17.3207H50.3279V17.324C50.3262 17.324 50.3246 17.3223 50.3229 17.3223C49.5593 17.3223 48.9402 17.9415 48.9402 18.7051C48.9402 19.4687 49.5593 20.0879 50.3229 20.0879C50.3295 20.0879 50.3377 20.0846 50.3476 20.0846H57.4535C58.0332 20.0846 58.5784 19.9745 59.0826 19.761C59.5917 19.5459 60.0367 19.2421 60.4177 18.8628C60.8003 18.4768 61.1025 18.0334 61.3193 17.526C61.5377 17.0218 61.6461 16.4799 61.6461 15.8985C61.6461 15.3205 61.5377 14.7802 61.3193 14.2727C61.1025 13.7653 60.8003 13.3284 60.4177 12.9557" fill="white"/>
<path fill-rule="evenodd" clip-rule="evenodd" d="M11.3945 14.9844C11.1761 15.5034 10.8789 15.955 10.4946 16.336C10.1103 16.7203 9.66364 17.0192 9.15783 17.2376C8.6471 17.4527 8.10352 17.5627 7.52546 17.5627C6.94739 17.5627 6.3956 17.4527 5.8783 17.2376C5.361 17.0192 4.90775 16.7203 4.52675 16.336C4.14247 15.955 3.8403 15.5034 3.62352 14.9844C3.40839 14.4655 3.29672 13.9137 3.29672 13.334V9.1381H7.52546C8.10352 9.1381 8.6471 9.24977 9.15783 9.46819C9.66364 9.68332 10.1103 9.98549 10.4946 10.3698C10.8789 10.7524 11.1761 11.1958 11.3945 11.7033C11.6146 12.2091 11.7197 12.7592 11.7197 13.334C11.7197 13.9137 11.6146 14.4655 11.3945 14.9844M12.4521 8.40895C11.8182 7.77505 11.0858 7.28238 10.2433 6.91945C9.40745 6.55488 8.49766 6.37587 7.52546 6.37587H3.29672V2.10608V2.10115V2.09787V2.05845H3.29343C3.27044 1.31781 2.66446 0.72168 1.91725 0.72168C1.17003 0.72168 0.564051 1.31781 0.541059 2.05845H0.536133V13.3291C0.536133 14.2865 0.713494 15.1881 1.07807 16.0371C1.43936 16.8861 1.94352 17.6317 2.58728 18.2755C3.22775 18.9159 3.97332 19.4201 4.82399 19.7814C5.67138 20.146 6.57132 20.3266 7.52546 20.3266C8.49766 20.3266 9.40745 20.146 10.2483 19.7814C11.0858 19.4201 11.8215 18.9192 12.4521 18.2787C13.0844 17.6317 13.5804 16.8878 13.9416 16.0404C14.3029 15.1897 14.4885 14.2881 14.4885 13.334C14.4885 12.3618 14.3029 11.4553 13.9416 10.6161C13.5804 9.77857 13.0844 9.04285 12.4521 8.40895" fill="white"/>
<path fill-rule="evenodd" clip-rule="evenodd" d="M18.1328 1.94574C18.1328 1.18211 17.5136 0.562988 16.75 0.562988C15.9929 0.562988 15.3804 1.17061 15.3689 1.9244H15.3672V18.6998C15.3672 19.465 15.9864 20.0842 16.75 20.0842C17.5136 20.0842 18.1328 19.465 18.1328 18.6998C18.1328 18.6899 18.1295 18.6784 18.1295 18.6702V1.97859C18.1295 1.96709 18.1328 1.95724 18.1328 1.94574" fill="white"/>
<path fill-rule="evenodd" clip-rule="evenodd" d="M31.7774 6.14111C31.0138 6.14111 30.3946 6.76023 30.3946 7.52387C30.3946 7.53372 30.3979 7.54358 30.3979 7.55343V13.1025C30.3979 13.6822 30.2912 14.2291 30.0728 14.748C29.8527 15.2637 29.5522 15.7153 29.1695 16.0996C28.7869 16.4855 28.3353 16.7811 27.818 17.0028C27.299 17.2212 26.7522 17.3247 26.1692 17.3247C25.5911 17.3247 25.0443 17.2212 24.5368 17.0028C24.0277 16.7811 23.586 16.4855 23.2033 16.0996C22.8174 15.7153 22.5185 15.2637 22.3001 14.748C22.085 14.2291 21.9716 13.6822 21.9716 13.1025V7.54358C21.9716 7.53865 21.9749 7.53044 21.9749 7.52387C21.9749 6.76023 21.3558 6.14111 20.5905 6.14111C19.8285 6.14111 19.2094 6.76023 19.2094 7.52387C19.2094 7.5288 19.2094 7.53208 19.2094 7.53537V13.1025C19.2094 14.0501 19.3901 14.9533 19.7546 15.804C20.1143 16.6547 20.6102 17.3969 21.2441 18.0407C21.878 18.6828 22.6203 19.1804 23.4644 19.5483C24.3151 19.9112 25.2183 20.0902 26.1692 20.0902C27.143 20.0902 28.0495 19.9112 28.892 19.5483C29.7262 19.1804 30.4718 18.6828 31.1074 18.0407C31.7544 17.3969 32.2553 16.6547 32.6199 15.804C32.9795 14.9533 33.1634 14.0501 33.1634 13.1025V7.51566H33.1585C33.1552 6.75531 32.5377 6.14111 31.7774 6.14111" fill="white"/>
<path fill-rule="evenodd" clip-rule="evenodd" d="M91.3956 7.52227C91.3939 6.75864 90.7748 6.14116 90.0128 6.14116C89.2492 6.14116 88.63 6.76028 88.63 7.52391C88.63 7.52884 88.63 7.53377 88.6317 7.54034V13.1453C88.6317 13.725 88.5233 14.2751 88.3049 14.7941C88.0865 15.3097 87.7909 15.763 87.4017 16.1456C87.0223 16.5266 86.5756 16.8288 86.0698 17.0472C85.5591 17.2656 85.0155 17.3724 84.4358 17.3724C83.8577 17.3724 83.3092 17.2656 82.787 17.0472C82.2697 16.8288 81.8214 16.5266 81.4404 16.1456C81.0544 15.763 80.7523 15.3097 80.5339 14.7941C80.3187 14.2751 80.2087 13.725 80.2087 13.1453V7.52227H80.2054C80.2054 7.52063 80.2071 7.51899 80.2071 7.51734C80.2071 6.75535 79.5896 6.13623 78.8259 6.13623C78.064 6.13623 77.4465 6.75535 77.4465 7.51734V7.52391V13.1453C77.4465 14.0978 77.6238 14.9977 77.9884 15.8484C78.353 16.7007 78.8539 17.443 79.4943 18.0867C80.1381 18.7272 80.882 19.2281 81.7343 19.5927C82.585 19.9523 83.4849 20.1362 84.4374 20.1362C85.2241 20.1362 85.9746 20.0098 86.6906 19.7667C87.4017 19.5155 88.0536 19.164 88.6317 18.7058V18.7371C88.6317 19.3184 88.5233 19.8636 88.3049 20.3809C88.0865 20.8999 87.7909 21.3466 87.4017 21.7325C87.0223 22.1168 86.5756 22.414 86.0698 22.6324C85.5591 22.8475 85.0155 22.9592 84.4374 22.9592H83.0366V22.9609H83.0333C82.273 22.9609 81.6571 23.5767 81.6571 24.3354C81.6571 25.0958 82.273 25.7116 83.0333 25.7116H83.0366V25.7182H84.4374C85.408 25.7182 86.3161 25.5392 87.1553 25.1779C87.9945 24.8133 88.7286 24.3108 89.3592 23.6687C89.9931 23.0266 90.4907 22.2859 90.8536 21.4484C91.2133 20.6092 91.3956 19.7076 91.3956 18.7321V7.52227Z" fill="white"/>
<path fill-rule="evenodd" clip-rule="evenodd" d="M127.085 13.2615C127.085 20.3161 121.366 26.0357 114.31 26.0357C107.256 26.0357 101.536 20.3161 101.536 13.2615C101.536 6.2069 107.256 0.487305 114.31 0.487305C121.366 0.487305 127.085 6.2069 127.085 13.2615ZM123.978 18.9936L123.956 18.9244V18.9258L123.953 18.9185L123.951 18.9124L123.951 18.9108L123.949 18.9071C123.939 18.8753 123.913 18.8104 123.889 18.7526C123.876 18.7275 123.862 18.7024 123.848 18.6783L123.85 18.6802L123.858 18.6935C123.851 18.6822 123.845 18.6698 123.84 18.6577C123.836 18.6497 123.832 18.6418 123.828 18.6343L123.823 18.6281C123.82 18.6243 123.816 18.6202 123.814 18.6155C123.805 18.604 123.798 18.5924 123.79 18.5794C122.621 16.6181 120.862 15.0493 118.758 14.1198C120.862 13.1889 122.621 11.6201 123.79 9.65872C123.798 9.64573 123.805 9.63418 123.814 9.62264C123.816 9.61903 123.818 9.61614 123.821 9.61325C123.823 9.61037 123.826 9.60748 123.828 9.60387C123.832 9.5964 123.836 9.58847 123.84 9.58045L123.84 9.58042C123.845 9.56831 123.851 9.55598 123.858 9.5447L123.858 9.54499L123.839 9.57464C123.857 9.54538 123.873 9.51597 123.889 9.48553C123.913 9.4278 123.939 9.36285 123.949 9.3311C123.95 9.32987 123.95 9.32812 123.951 9.32573C123.952 9.32251 123.954 9.31814 123.956 9.31234V9.31378L123.978 9.2445C123.981 9.23311 123.985 9.22197 123.989 9.21076L123.989 9.21068C123.994 9.19494 123.999 9.17908 124.003 9.16224C124.018 9.07564 124.029 8.98761 124.029 8.89668C124.029 8.15774 123.428 7.55735 122.689 7.55735C122.236 7.55735 121.839 7.78394 121.597 8.12743C121.584 8.14764 121.571 8.16784 121.558 8.1866C120.009 10.542 117.343 12.0978 114.314 12.0978C111.272 12.0978 108.599 10.5319 107.052 8.16351C107.047 8.15629 107.042 8.14764 107.036 8.13898C106.795 7.78827 106.391 7.55735 105.933 7.55735C105.193 7.55735 104.592 8.15774 104.592 8.89668C104.592 9.16801 104.675 9.42058 104.813 9.6313C104.816 9.63492 104.818 9.63854 104.82 9.64181L104.823 9.64717C105.992 11.6158 107.755 13.1875 109.866 14.1198C107.755 15.0507 105.992 16.6224 104.823 18.5895C104.82 18.5953 104.818 18.6011 104.813 18.6069C104.675 18.8176 104.592 19.0687 104.592 19.3415C104.592 20.0804 105.193 20.6808 105.933 20.6808C106.391 20.6808 106.795 20.4499 107.036 20.0992C107.042 20.0905 107.047 20.0819 107.052 20.0746C108.599 17.7063 111.272 16.1403 114.314 16.1403C117.343 16.1403 120.009 17.6962 121.558 20.0515L121.597 20.1107C121.839 20.4542 122.236 20.6808 122.689 20.6808C123.428 20.6808 124.029 20.0804 124.029 19.3415C124.029 19.2505 124.018 19.1625 124.003 19.0774C123.999 19.0612 123.994 19.0459 123.989 19.0306C123.987 19.0239 123.985 19.0172 123.983 19.0105C123.981 19.0049 123.979 18.9994 123.978 18.9936ZM123.829 18.6473C123.835 18.658 123.842 18.668 123.848 18.6783C123.842 18.6677 123.836 18.6574 123.829 18.6473ZM110.156 9.73414C110.146 9.72777 110.135 9.72135 110.125 9.71472C109.874 9.53431 109.708 9.23989 109.708 8.9065C109.708 8.35517 110.155 7.90921 110.707 7.90921C110.881 7.90921 111.041 7.95684 111.184 8.03622L111.187 8.03189C112.098 8.58754 113.169 8.9065 114.315 8.9065C115.423 8.9065 116.461 8.60486 117.353 8.0824C117.361 8.07807 117.37 8.07374 117.376 8.06797C117.533 7.96838 117.716 7.90921 117.914 7.90921C118.465 7.90921 118.913 8.35517 118.913 8.9065C118.913 9.24566 118.744 9.54441 118.484 9.72482C118.478 9.72869 118.473 9.73228 118.467 9.73571C118.46 9.73994 118.454 9.74392 118.448 9.74791C117.255 10.5157 115.839 10.9631 114.316 10.9631C112.802 10.9631 111.394 10.5215 110.206 9.76523C110.19 9.75454 110.173 9.7444 110.156 9.73414ZM111.181 6.91424L111.242 6.95176C112.161 7.53772 113.225 7.84657 114.315 7.84657C115.411 7.84657 116.479 7.53339 117.409 6.93588C117.41 6.93546 117.412 6.9339 117.415 6.93188C117.418 6.93047 117.42 6.92885 117.423 6.92722C117.426 6.92505 117.429 6.92287 117.432 6.92123C117.434 6.91988 117.436 6.91889 117.436 6.91856C117.683 6.74682 117.83 6.46538 117.83 6.16663C117.83 5.6615 117.419 5.25017 116.914 5.25017C116.739 5.25017 116.567 5.30068 116.41 5.40171C115.116 6.16086 113.43 6.1421 112.157 5.36852C112.144 5.35986 112.131 5.35408 112.118 5.34975C111.987 5.28336 111.849 5.25017 111.708 5.25017C111.203 5.25017 110.792 5.6615 110.792 6.16663C110.792 6.45961 110.934 6.73527 111.181 6.91424ZM111.908 4.25043L111.861 4.22012C111.67 4.08301 111.559 3.86653 111.559 3.63994C111.559 3.24737 111.878 2.92697 112.27 2.92697C112.38 2.92697 112.487 2.95439 112.588 3.00635C112.599 3.00924 112.61 3.01357 112.618 3.01934C113.617 3.62695 114.942 3.64282 115.958 3.04676C116.082 2.96738 116.215 2.92697 116.352 2.92697C116.743 2.92697 117.063 3.24737 117.063 3.63994C117.063 3.8723 116.949 4.09023 116.757 4.22301C116.01 4.70505 115.173 4.95041 114.314 4.95041C113.46 4.95041 112.628 4.70794 111.908 4.25043Z" fill="white"/>
</svg>
