<svg width="422" height="61" viewBox="0 0 422 61" fill="none" xmlns="http://www.w3.org/2000/svg">
<g clip-path="url(#clip0_372_1396)">
<path d="M402.372 6.37893C402.372 5.41891 402.052 4.6509 399.35 4.43755V3.14331H421.58V4.43755C418.885 4.6509 418.55 5.41891 418.55 6.37893V35.2789C418.55 54.2517 405.295 60.5309 388.783 60.5309C372.299 60.5309 359.022 54.2517 359.022 35.2789V6.37893C359.022 5.41891 358.702 4.6509 356 4.43755V3.14331H378.23V4.43755C375.52 4.6509 375.2 5.41891 375.2 6.37893V35.2789C375.2 43.592 380.157 46.9342 388.783 46.9342C397.416 46.9342 402.372 43.592 402.372 35.2789V6.37893Z" fill="white"/>
<path d="M128.001 6.29154C128.001 5.34574 127.681 4.57773 125 4.3644V3.07727H150.842V4.3644C148.375 4.4711 147.841 5.11108 147.841 5.74397C147.841 6.94577 166.394 26.651 173.89 34.9142V6.29154C173.89 5.01152 173.022 4.47106 171.628 4.3644V3.07727H191.262V4.3644C188.581 4.57773 188.261 5.34574 188.261 6.29154V56.255C188.261 57.2221 188.581 57.9759 191.262 58.1821V59.4693H170.889V58.1821C172.823 58.1821 173.363 57.7625 173.363 57.0159C173.363 55.6007 170.675 54.1998 142.373 22.5904V56.255C142.373 57.2221 142.693 57.9759 145.367 58.1821V59.4693H125V58.1821C127.681 57.9759 128.001 57.2221 128.001 56.255V6.29154Z" fill="white"/>
<path d="M208.031 6.29154C208.031 5.34574 207.704 4.57773 205.023 4.3644V3.07727H245.87C257.44 3.07727 265.917 7.35823 265.917 17.9824C265.917 24.4038 261.629 28.3648 255.62 29.6732V29.8723C262.809 31.8208 268.057 35.6609 268.057 43.6041C268.057 52.1731 261.629 59.4693 246.404 59.4693H205.023V58.1821C207.704 57.9759 208.031 57.2221 208.031 56.255V6.29154ZM224.11 24.2971H238.695C247.89 24.2971 250.272 23.6714 250.272 19.3406C250.272 15.0668 247.89 14.4339 238.695 14.4339H224.11V24.2971ZM224.11 48.0913H242.336C249.838 48.0913 252.839 46.3917 252.839 41.6699C252.839 36.9765 249.838 35.2271 242.336 35.2271H224.11V48.0913Z" fill="white"/>
<path d="M331.367 23.8648L330.279 23.1323C330.386 22.6915 330.514 22.279 330.514 21.511C330.514 19.3421 322.244 16.5829 313.141 16.5829C304.451 16.5829 293.194 20.3448 293.194 31.2534C293.194 42.2118 304.451 45.9665 313.141 45.9665C316.889 45.9665 331.14 43.0438 331.14 39.9575C331.14 39.3033 330.713 38.8766 330.514 38.3433L331.673 37.5824L342.724 54.4288L341.43 55.1755C341.11 54.4288 340.697 54.3222 339.944 54.3222C337.789 54.3222 327.812 60.1249 311.854 60.1249C294.681 60.1249 276.469 50.4679 276.469 31.2534C276.469 12.0673 294.681 2.41736 311.854 2.41736C320.416 2.41736 326.539 3.49826 330.82 4.68583C335.008 5.86631 337.149 6.72677 338.223 6.72677C338.863 6.72677 339.41 6.39253 339.844 5.8663L341.01 6.19341L331.367 23.8648Z" fill="white"/>
<path fill-rule="evenodd" clip-rule="evenodd" d="M54.6819 10.7744C54.113 11.514 50.5858 12.73 50.3938 14.5931C50.2089 17.5728 54.6819 45.4487 54.6819 45.4487C54.6819 45.4487 61.4944 30.1667 64.6589 23.4466C68.4848 15.2403 70.3408 12.4455 69.3239 8.25704C68.2928 2.28361 63.0803 -0.411535 58.4082 0.0507069C53.1957 0.882718 49.5547 4.89345 49.5547 10.2126H53.5654C53.5654 10.2126 54.5894 10.3123 54.6819 10.7744Z" fill="white"/>
<path fill-rule="evenodd" clip-rule="evenodd" d="M84.7957 15.8021C81.2543 13.1994 72.7706 11.7985 69.1368 20.3746L54.6797 52.3537L83.9566 32.4992C92.0634 26.4262 88.4367 18.6039 84.7957 15.8021Z" fill="white"/>
<path fill-rule="evenodd" clip-rule="evenodd" d="M46.5724 11.2396C47.7884 3.68744 40.4141 -0.415729 35.3723 0.0536198C31.0913 0.878524 24.3783 5.45814 26.981 13.4725L41.2461 45.7361L46.5724 11.2396Z" fill="white"/>
<path fill-rule="evenodd" clip-rule="evenodd" d="M11.609 56.6361H42.2797L15.4277 37.9051C8.8072 33.7024 1.82404 38.3602 0.515572 43.2101C-1.1698 48.7355 0.963529 56.2592 11.609 56.6361Z" fill="white"/>
<path fill-rule="evenodd" clip-rule="evenodd" d="M11.3309 31.7539L41.255 52.348C41.255 52.348 28.8601 24.472 26.4351 19.0746C23.2635 12.4469 15.1496 12.7314 11.3309 15.6114C6.85795 18.975 5.27215 26.8116 11.3309 31.7539Z" fill="white"/>
<path fill-rule="evenodd" clip-rule="evenodd" d="M53.5625 56.6361C53.5625 56.6361 82.1852 56.7215 86.1888 56.5509C94.1107 56.174 96.3578 48.7357 95.8885 45.173C94.6725 39.3916 88.8982 33.1479 80.2225 38.2751L53.5625 56.6361Z" fill="white"/>
</g>
<defs>
<clipPath id="clip0_372_1396">
<rect width="422" height="61" fill="white"/>
</clipPath>
</defs>
</svg>
