<svg width="500" height="200" viewBox="0 0 500 200" fill="none" xmlns="http://www.w3.org/2000/svg">
<g clip-path="url(#clip0_38_1412)">
<path d="M65.8085 145.335H60.0286V115.31H65.8085V145.335ZM60.0995 115.305L60.0286 96.7104H65.8085L65.7849 115.328L60.0995 115.305ZM60.0286 145.335H54.248V126.641H17.1085V145.335H5.73782V96.7104H17.1085V115.31H60.0286V145.335ZM60.0286 96.7104H54.248V115.328L60.0995 115.305L60.0286 96.7104ZM125.594 120.691C129.573 123.146 131.564 126.891 131.564 131.926C131.564 135.577 130.395 138.661 128.058 141.179C125.531 143.949 122.119 145.334 117.824 145.334H101.103V134.005H117.825C119.468 134.005 120.288 132.776 120.288 130.321C120.288 127.867 119.468 126.64 117.825 126.64H101.103V115.404H116.973C118.615 115.404 119.436 114.177 119.436 111.722C119.436 109.268 118.615 108.04 116.973 108.04H101.103V96.7104H116.973C121.268 96.7104 124.678 98.0948 127.205 100.864C129.479 103.382 130.616 106.467 130.616 110.117C130.616 114.649 128.941 118.174 125.594 120.691ZM101.101 145.335H70.5456V115.405H101.102V126.641H81.9155V134.005H101.103L101.101 145.335ZM101.101 108.04H81.9163L81.94 115.753L70.5693 115.469L70.5456 96.7104H101.103L101.101 108.04Z" fill="#BA160C"/>
<path d="M136.799 84.0706V78.8784H145.288V75.7628C145.288 74.6382 144.912 74.0755 144.159 74.0755H136.799V68.8841H144.159C146.041 68.8841 147.568 69.5614 148.739 70.9183C149.911 72.2744 150.498 73.8887 150.498 75.7636V91.1667H145.288V84.0714L136.799 84.0706ZM206.077 91.1667H188.794C186.769 91.1667 185.046 90.4965 183.628 89.1537C182.21 87.8125 181.502 86.1322 181.502 84.1137V75.9362C181.502 73.917 182.21 72.2367 183.628 70.8947C185.046 69.5535 186.769 68.8833 188.794 68.8833H206.077V74.0747H188.794C187.406 74.0747 186.711 74.6955 186.711 75.9362V84.1137C186.711 85.3537 187.406 85.9737 188.794 85.9737H206.077V91.1667ZM260.915 91.1667H255.66V82.5999H242.287V91.1667H237.077V68.8841H242.287V77.4077H255.66V68.8849H260.915V91.1667ZM315.754 74.0755H297.127V77.4077H314.538V82.5999H297.127V85.9745H315.71V91.1659H291.917V68.8833H315.754L315.754 74.0755ZM136.799 68.8841V74.0755H129.396C128.673 74.0755 128.311 74.6382 128.311 75.7628V78.8784H136.799V84.0706H128.311V91.1659H123.101V75.7628C123.101 73.8879 123.687 72.2728 124.86 70.9175C126.031 69.5614 127.544 68.8833 129.396 68.8833L136.799 68.8841ZM78.1187 83.8971V78.7057H85.7604C86.5125 78.7057 86.8897 77.9414 86.8897 76.4134C86.8897 74.8556 86.5125 74.0763 85.7604 74.0763H78.1187V68.8849H85.7604C87.7001 68.8849 89.2626 69.6775 90.4495 71.2644C91.5497 72.7068 92.1002 74.4216 92.1002 76.4126C92.1002 78.4028 91.5489 80.1042 90.4495 81.5184C89.2626 83.1045 87.7001 83.8979 85.7604 83.8979L78.1187 83.8971ZM33.1352 91.1667H27.9248V84.0714H19.4365V78.8784H27.9248V75.7628C27.9248 74.6382 27.5483 74.0755 26.7962 74.0755H19.4365V68.8841H26.7962C28.6785 68.8841 30.2048 69.5614 31.3766 70.9175C32.5493 72.2736 33.1352 73.8887 33.1352 75.7636V91.1667ZM78.1187 68.8849V74.0763L69.3478 74.0755V78.7057H78.1187V83.8971H69.3478V91.1659H64.1373V68.8833H78.1187V68.8849ZM19.4373 84.0706H10.9483V91.1659H5.73782V75.7628C5.73782 73.8879 6.32455 72.2728 7.49564 70.9175C8.66831 69.5614 10.1812 68.8833 12.0335 68.8833L19.4365 68.8841V74.0755L12.0335 74.0747C11.309 74.0747 10.9483 74.6382 10.9483 75.762V78.8776H19.4373V84.0706Z" fill="#666666"/>
<path d="M195.913 145.334H184.543V129.85H166.02V118.52H184.543V111.722C184.543 109.268 183.722 108.041 182.079 108.041H166.021V96.7095H182.08C186.186 96.7095 189.517 98.1888 192.076 101.147C194.634 104.105 195.914 107.631 195.914 111.721L195.913 145.334ZM166.02 129.85H147.497V145.334H136.125V111.722C136.125 107.631 137.404 104.106 139.962 101.147C142.52 98.1888 145.822 96.7103 149.864 96.7103H166.018V108.04H149.864C148.285 108.04 147.496 109.268 147.496 111.721V118.52H166.02V129.85ZM258.999 130.321C258.999 134.414 257.768 137.906 255.303 140.802C252.651 143.824 249.302 145.334 245.261 145.334H203.193V134.004H245.261C246.84 134.004 247.629 132.777 247.629 130.322C247.629 127.868 246.84 126.641 245.261 126.641H214.657C210.615 126.641 207.267 125.129 204.614 122.108C202.087 119.276 200.824 115.814 200.824 111.722C200.824 107.631 202.119 104.107 204.709 101.147C207.298 98.1888 210.615 96.7103 214.657 96.7103H256.725V108.041H214.657C213.078 108.041 212.288 109.268 212.288 111.723C212.288 114.115 213.078 115.311 214.657 115.311H245.261C249.303 115.311 252.651 116.821 255.303 119.844C257.768 122.739 258.999 126.232 258.999 130.323V130.321Z" fill="#BA160C"/>
<path d="M263.737 145.335V96.7104H315.754V108.041H275.107V115.311H313.101V126.642H275.107V134.005H315.659V145.335L263.737 145.335Z" fill="#BA160C"/>
<path d="M490.083 162.393C489.956 162.06 489.852 161.47 489.852 161.083C489.852 160.032 489.039 158.645 487.838 157.645C487.25 157.154 486.401 156.201 485.951 155.526C484.993 154.089 483.956 153.527 480.125 152.364C475.925 151.092 474.634 149.998 474.254 147.394L474.065 146.096L473.301 147.201C471.804 149.363 470.813 149.708 468.783 148.776C467.495 148.184 466.556 148.13 465.487 148.586C464.805 148.876 464.678 148.864 464.232 148.462C463.755 148.033 463.707 148.032 463.032 148.43C462.499 148.743 462.069 148.805 461.262 148.684C459.972 148.492 459.283 148.866 458.419 150.23C456.785 152.81 455.621 151.629 455.626 147.397C455.633 142.696 457.854 140.031 464.256 137.047C467.551 135.511 469.043 134.516 469.961 133.242C470.669 132.26 470.731 132.226 471.039 132.646C471.694 133.539 473.952 138.143 475.03 140.786C476.259 143.796 476.63 144.354 477.096 143.89C477.489 143.498 476.538 140.724 474.691 136.876C470.107 127.326 463.336 120.496 454.885 116.898C451.006 115.247 449.099 114.895 444.063 114.905C440.235 114.913 439.296 114.993 436.709 115.542C432.927 116.343 428.697 117.692 423.305 119.815C417.873 121.954 417.869 121.954 412.391 120C410.173 119.209 407.514 118.348 406.481 118.086C404.372 117.549 401.258 117.455 399.508 117.875C397.488 118.359 394.647 119.873 391.158 122.324C386.971 125.265 384.719 126.43 381.718 127.207C379.119 127.88 378.021 128.465 377.374 129.522C376.858 130.367 376.807 131.045 377.199 131.9C377.466 132.486 380.029 134.35 383.027 136.14C383.839 136.625 384.565 137.119 384.638 137.238C384.813 137.52 380.753 139.538 377.786 140.642C372.513 142.606 366.845 143.848 358.3 144.913C352.606 145.622 351.636 145.822 347.387 147.15C345.69 147.682 343.235 148.335 341.93 148.606C336.174 149.796 330.958 148.385 330.167 145.425C330.023 144.883 329.765 144.282 329.594 144.086C328.541 142.883 328.151 139.988 328.829 138.412C329.026 137.957 329.419 136.202 329.706 134.512C330.691 128.692 331.693 125.544 333.849 121.483C337.629 114.368 345.152 105.335 354.267 96.9707C360.289 91.4442 366.011 87.1938 379.242 78.423C387.419 73.0016 387.498 72.9318 388.439 70.3176C388.647 69.7369 389.662 65.9982 390.693 62.0083C393.903 49.5827 395.963 44.892 399.786 41.2945C401.944 39.265 405.382 37.9999 407.382 38.5006C408.522 38.7855 408.579 39.3451 407.788 42.5031C406.47 47.7651 406.026 51.0918 406.014 55.7865C406.002 60.4199 406.289 62.2131 407.393 64.3838C408.908 67.3613 409.929 67.9366 415.862 69.1475C436.845 73.4325 450.845 79.8733 460.792 89.8174C470.005 99.0277 477.513 113.442 482.398 131.295L483.328 134.693L485.108 136.051C489.647 139.517 492.19 143.008 493.546 147.633C494.262 150.08 494.154 155.282 493.321 158.351C492.433 161.623 491.675 163 490.758 163C490.501 163 490.218 162.746 490.083 162.393ZM490.472 155.528C490.558 155.189 490.571 153.726 490.502 152.277C490.281 147.665 488.853 144.371 485.582 140.932C483.069 138.29 478.517 135.103 477.257 135.103C476.775 135.103 476.747 135.187 476.872 136.239C476.946 136.864 477.449 138.534 477.99 139.949C478.53 141.365 479.032 143.025 479.104 143.64C479.221 144.619 479.162 144.831 478.624 145.366C477.885 146.104 477.189 146.138 476.124 145.492C475.685 145.225 475.274 145.059 475.21 145.122C475.147 145.184 475.169 145.666 475.258 146.191C475.581 148.1 476.691 148.867 480.949 150.123C487.191 151.965 488.474 152.81 489.46 155.73C489.671 156.352 490.297 156.227 490.472 155.528ZM341.782 146.781C342.875 146.584 345.064 146.015 346.646 145.516C350.045 144.444 352.649 143.904 359.842 142.781C368.28 141.464 371.675 140.764 375.437 139.567C377.829 138.806 380.014 137.826 379.999 137.522C379.994 137.427 379.289 136.923 378.43 136.403C377.572 135.883 375.968 134.58 374.865 133.507C373.763 132.435 372.757 131.556 372.63 131.556C372.033 131.556 370.527 132.395 368.627 133.785C363.186 137.763 361.279 138.551 352.606 140.394C348.302 141.308 346.775 141.827 344.762 143.058C341.979 144.759 341.38 145.041 339.554 145.506C338.535 145.765 336.924 145.978 335.975 145.978C333.494 145.978 333.218 146.747 335.551 147.157C336.926 147.4 339.05 147.271 341.782 146.781ZM459.989 146.294C460.168 146.078 460.772 145.699 461.332 145.452L462.349 145.002L464.535 145.663C467.272 146.49 470.86 146.613 471.831 145.911L473.225 144.903C473.715 144.55 474.21 144.371 474.471 144.454C474.71 144.529 474.906 144.555 474.906 144.51C474.906 144.269 471.554 136.629 471.236 136.147L470.86 135.574L469.666 136.515C469.009 137.032 466.784 138.467 464.72 139.703C459.419 142.879 457.756 144.498 458.158 146.092C458.274 146.555 458.458 146.687 458.985 146.687C459.359 146.687 459.811 146.51 459.989 146.294ZM360.072 132.68C360.647 132.387 361.22 131.976 361.347 131.766C362.343 130.12 358.371 130.293 357.3 131.943C357.018 132.38 357.025 132.499 357.357 132.829C357.889 133.359 358.842 133.307 360.073 132.68L360.072 132.68ZM367.549 127.512C370.103 126.83 372.659 125.991 373.44 125.58C375.075 124.72 376.465 123.229 377.453 121.273C377.847 120.493 378.583 119.471 379.089 119.005C379.594 118.536 380.008 117.982 380.008 117.772C380.008 115.931 373.66 115.095 369.569 116.396C364.61 117.973 359.874 123.006 359.76 126.819C359.69 129.157 360.975 129.272 367.549 127.512ZM464.942 120.288C464.942 119.86 463.359 117.764 462.24 116.71C460.069 114.663 457.851 113.403 453.579 111.786C451.041 110.826 449.995 110.238 449.995 109.77C449.995 109.66 450.208 109.358 450.469 109.097C451.801 107.77 458.181 109.406 462.682 112.229C464.46 113.343 466.488 114.917 468.179 116.494C469.472 117.699 469.686 117.824 469.686 117.373C469.686 116.663 468.512 114.52 467.082 112.622C463.505 107.872 457.686 104.174 451.174 102.511C445.913 101.169 441.348 101.092 437.454 102.281C433.854 103.382 429.673 105.974 425.475 109.711C419.568 114.969 417.818 116.435 416.308 117.391C415.4 117.965 414.69 118.538 414.728 118.664C414.767 118.79 415.448 119.1 416.242 119.353L417.686 119.813L421.207 118.201C428.169 115.014 434.56 112.962 439.319 112.386C446.58 111.508 454.699 113.795 461.976 118.767C464.194 120.283 464.942 120.665 464.942 120.288ZM400.648 140.29C393.18 139.371 386.125 136.77 380.363 132.813C379.057 131.916 378.686 131.529 378.626 131.002C378.475 129.695 379.677 128.921 382.923 128.237C385.78 127.635 387.668 126.681 391.988 123.656C397.829 119.567 400.139 118.639 403.946 118.848C405.728 118.946 406.841 119.245 412.747 121.211C421.6 124.157 430.989 127.49 431.695 127.938C433.313 128.964 430.518 132.753 426.138 135.473C422.836 137.525 418.475 139.136 413.996 139.96C411.527 140.414 403.305 140.618 400.648 140.29ZM345.471 103.579C345.378 103.34 345.363 102.17 345.438 100.979C345.767 95.7441 348.623 89.8244 352.513 86.3172C354.004 84.9721 356.385 83.5649 357.169 83.5649C357.948 83.5649 358.434 84.3772 359.017 86.6609C359.324 87.8632 359.805 89.1566 360.085 89.5341C360.365 89.9123 360.559 90.2529 360.515 90.2914C360.471 90.3306 359.367 91.2064 358.063 92.2392C354.875 94.7608 350.463 98.8236 347.811 101.677C346.002 103.625 345.611 103.942 345.471 103.579Z" fill="#050505"/>
</g>
<defs>
<clipPath id="clip0_38_1412">
<rect width="490" height="125" fill="white" transform="translate(5 38)"/>
</clipPath>
</defs>
</svg>
