<svg width="500" height="200" viewBox="0 0 500 200" fill="none" xmlns="http://www.w3.org/2000/svg">
<path d="M141.835 119.082C141.835 126.101 137.988 129.62 130.991 129.968H45.6665C38.674 129.968 34.822 126.459 34.822 119.082C34.822 112.063 38.6696 108.545 45.6665 108.196H131.338C138.33 108.545 141.835 112.059 141.835 119.082ZM131.338 135.228H45.6665C38.674 135.228 34.822 138.738 34.822 146.114C34.822 153.133 38.6696 156.652 45.6665 157H131.338C138.33 157 142.182 153.49 142.182 146.114C141.835 138.742 138.335 135.228 131.338 135.228ZM157.915 75.9044C150.923 75.9044 147.071 79.414 147.071 86.442V145.761C147.071 152.781 150.919 156.299 157.915 156.647C168.413 156.299 174 145.761 174 124.351V97.6718C174 83.2807 168.361 76.2527 157.915 75.9044ZM19.0845 75.9044C8.58707 76.2527 3 83.2763 3 97.6675V124.347C3 145.761 8.63913 156.29 19.0845 156.643C26.077 156.643 29.929 153.133 29.929 145.757V86.7859C29.582 79.7667 26.0814 76.2527 19.0845 75.9044ZM157.915 70.6792C157.915 52.774 148.472 44.3527 131.338 44H45.6665C28.1852 44.3483 19.0889 53.1267 19.0889 70.6792C29.5863 70.6792 35.1734 76.3398 35.1734 86.8251C35.1734 97.3104 40.8125 102.971 51.2579 102.971H126.093C136.591 102.971 142.178 97.3104 142.178 86.8251C141.831 75.9392 147.817 71.0275 157.915 70.6792Z" fill="#E42528"/>
<path d="M226.226 90.0841H233.159C232.77 87.2872 231.944 84.8326 230.68 82.7203C229.416 80.5612 227.821 78.7693 225.896 77.3445C223.999 75.9198 221.835 74.8402 219.402 74.1059C216.967 73.3686 214.389 73 211.669 73C207.679 73 204.128 73.7358 201.013 75.2074C197.949 76.6321 195.371 78.5952 193.28 81.0966C191.236 83.6009 189.679 86.5456 188.609 89.9305C187.536 93.2657 187 96.8496 187 100.682C187 104.485 187.487 108.069 188.461 111.434C189.482 114.769 190.99 117.665 192.985 120.123C194.979 122.58 197.485 124.519 200.5 125.937C203.516 127.312 207.043 128 211.082 128C217.745 128 222.999 126.16 226.844 122.479C230.686 118.799 232.947 113.646 233.629 107.019H226.696C226.551 109.178 226.113 111.191 225.382 113.057C224.652 114.924 223.63 116.543 222.316 117.915C221.052 119.241 219.52 120.294 217.719 121.075C215.968 121.812 213.95 122.181 211.665 122.181C208.551 122.181 205.876 121.591 203.64 120.412C201.402 119.233 199.553 117.662 198.095 115.699C196.683 113.686 195.639 111.355 194.964 108.704C194.282 106.004 193.941 103.157 193.941 100.164C193.941 97.4142 194.282 94.7636 194.964 92.2125C195.645 89.6613 196.689 87.4042 198.095 85.4412C199.553 83.4283 201.377 81.8193 203.566 80.6139C205.805 79.4349 208.48 78.8454 211.591 78.8454C215.238 78.8454 218.376 79.7786 221.003 81.6452C223.679 83.5117 225.419 86.3101 226.222 90.0402L226.226 90.0841ZM245.828 107.831C245.828 105.525 246.118 103.489 246.698 101.722C247.33 99.9083 248.181 98.387 249.251 97.1582C250.324 95.9295 251.565 94.9962 252.974 94.3584C254.433 93.7206 255.965 93.4017 257.572 93.4017C259.178 93.4017 260.686 93.7206 262.095 94.3584C263.553 94.9962 264.817 95.9295 265.887 97.1582C266.96 98.387 267.787 99.9083 268.366 101.722C268.999 103.489 269.315 105.525 269.315 107.831C269.315 110.136 268.999 112.184 268.366 113.975C267.787 115.742 266.96 117.238 265.887 118.464C264.815 119.643 263.55 120.55 262.095 121.185C260.683 121.823 259.175 122.141 257.572 122.141C255.965 122.141 254.433 121.823 252.974 121.185C251.562 120.547 250.321 119.64 249.251 118.464C248.179 117.235 247.328 115.739 246.698 113.975C246.118 112.161 245.828 110.113 245.828 107.831ZM239.305 107.831C239.305 110.628 239.693 113.229 240.47 115.633C241.247 118.038 242.414 120.149 243.971 121.966C245.528 123.733 247.449 125.131 249.734 126.161C252.019 127.144 254.646 127.636 257.615 127.636C260.631 127.636 263.258 127.144 265.496 126.161C267.781 125.131 269.702 123.733 271.259 121.966C272.816 120.152 273.983 118.041 274.76 115.633C275.537 113.229 275.926 110.628 275.926 107.831C275.926 105.034 275.537 102.433 274.76 100.028C273.983 97.5707 272.816 95.4599 271.259 93.6958C269.702 91.8819 267.781 90.4586 265.496 89.4258C263.258 88.396 260.631 87.8811 257.615 87.8811C254.649 87.8811 252.022 88.396 249.734 89.4258C247.449 90.4557 245.528 91.879 243.971 93.6958C242.414 95.4628 241.247 97.5737 240.47 100.028C239.693 102.433 239.305 105.034 239.305 107.831ZM314.434 126.824V88.7632H308.232V110.266C308.232 111.984 307.989 113.593 307.501 115.094C307.066 116.518 306.385 117.771 305.457 118.85C304.529 119.933 303.362 120.766 301.956 121.352C300.593 121.937 298.964 122.229 297.067 122.229C294.684 122.229 292.811 121.542 291.448 120.167C290.085 118.792 289.404 116.927 289.404 114.571V88.8027H283.202V113.834C283.202 115.897 283.396 117.787 283.785 119.504C284.22 121.172 284.949 122.634 285.972 123.892C286.993 125.121 288.331 126.078 289.987 126.762C291.64 127.4 293.707 127.719 296.189 127.719C298.961 127.719 301.367 127.178 303.409 126.095C305.453 124.966 307.132 123.211 308.445 120.829H308.593V126.868L314.434 126.824ZM349.429 100.985H355.857C355.613 98.7264 355.029 96.7881 354.104 95.1703C353.176 93.5027 351.985 92.1276 350.529 91.0452C349.117 89.9627 347.464 89.1772 345.571 88.6886C343.721 88.1473 341.726 87.8767 339.586 87.8767C336.62 87.8767 334.018 88.418 331.779 89.5004C329.541 90.5303 327.668 91.9931 326.16 93.8889C324.701 95.7027 323.607 97.8618 322.876 100.366C322.145 102.824 321.78 105.474 321.78 108.318C321.78 111.165 322.145 113.79 322.876 116.195C323.653 118.55 324.772 120.587 326.234 122.304C327.742 124.021 329.59 125.346 331.779 126.28C334.018 127.216 336.572 127.684 339.443 127.684C344.256 127.684 348.05 126.408 350.825 123.857C353.646 121.306 355.397 117.674 356.079 112.961H349.729C349.34 115.907 348.27 118.189 346.519 119.807C344.817 121.428 342.433 122.238 339.369 122.238C337.426 122.238 335.747 121.846 334.332 121.062C332.92 120.278 331.778 119.247 330.905 117.968C330.029 116.643 329.373 115.146 328.935 113.479C328.546 111.811 328.352 110.094 328.352 108.327C328.352 106.413 328.546 104.573 328.935 102.806C329.323 100.992 329.955 99.3831 330.831 97.9789C331.759 96.6038 332.977 95.4994 334.484 94.6656C335.992 93.8318 337.865 93.4149 340.104 93.4149C342.731 93.4149 344.823 94.0776 346.38 95.4029C347.937 96.7282 348.959 98.5932 349.446 100.998L349.429 100.985ZM363.011 74.2156V126.78H369.214V105.277C369.214 103.559 369.431 101.988 369.866 100.564C370.353 99.0921 371.059 97.8165 371.984 96.7369C372.912 95.6545 374.054 94.8207 375.411 94.2355C376.823 93.6504 378.476 93.3579 380.369 93.3579C382.753 93.3579 384.626 94.0454 385.989 95.4204C387.352 96.7954 388.033 98.6605 388.033 101.016V126.833H394.235V101.801C394.235 99.7386 394.017 97.8735 393.583 96.2059C393.194 94.4886 392.488 93.0156 391.464 91.7868C390.444 90.558 389.106 89.6014 387.45 88.9168C385.797 88.2293 383.73 87.8855 381.248 87.8855C380.129 87.8855 378.962 88.0084 377.747 88.2541C376.578 88.4999 375.436 88.8919 374.32 89.4302C373.247 89.9217 372.275 90.5844 371.406 91.4182C370.53 92.2022 369.848 93.1823 369.361 94.3584H369.214V74.2595L363.011 74.2156ZM411.58 120.886V80.14H423.253C426.463 80.14 429.163 80.6081 431.352 81.5442C433.541 82.4278 435.317 83.7531 436.68 85.5202C438.092 87.2375 439.089 89.3483 439.672 91.8526C440.304 94.3101 440.62 97.1085 440.62 100.248C440.62 103.486 440.279 106.26 439.598 108.568C438.966 110.827 438.14 112.717 437.119 114.238C436.098 115.759 434.931 116.962 433.618 117.845C432.354 118.729 431.049 119.416 429.703 119.908C428.39 120.347 427.149 120.639 425.98 120.785C424.812 120.885 423.841 120.935 423.066 120.935L411.58 120.886ZM404.647 74.2595V126.824H422.479C426.808 126.824 430.554 126.21 433.718 124.981C436.907 123.752 439.51 121.985 441.525 119.68C443.569 117.324 445.077 114.453 446.048 111.065C447.022 107.63 447.509 103.704 447.509 99.2866C447.509 90.8433 445.345 84.5605 441.016 80.4384C436.687 76.3425 430.511 74.2946 422.488 74.2946L404.647 74.2595ZM462.928 96.8598V80.1838H476.793C478.301 80.1838 479.712 80.2818 481.025 80.4779C482.388 80.6241 483.58 80.9928 484.6 81.5837C485.621 82.1689 486.424 83.0027 487.01 84.0851C487.59 85.1676 487.88 86.6407 487.88 88.5043C487.88 91.3012 487.004 93.412 485.253 94.8368C483.551 96.2118 480.729 96.8993 476.789 96.8993L462.928 96.8598ZM455.995 74.2595V126.824H481.169C483.778 126.824 486.04 126.407 487.953 125.573C489.948 124.69 491.601 123.56 492.912 122.185C494.274 120.761 495.297 119.141 495.978 117.327C496.659 115.513 497 113.648 497 111.732C497 108.493 496.149 105.743 494.447 103.482C492.745 101.223 490.289 99.7503 487.079 99.0628V98.9136C489.561 97.9306 491.446 96.4341 492.733 94.4242C494.096 92.3617 494.777 89.9334 494.777 87.1395C494.777 84.4889 494.169 82.2552 492.951 80.4384C491.782 78.6245 490.333 77.2012 488.602 76.1684C487.824 75.6769 486.876 75.3083 485.757 75.0626C484.684 74.8168 483.517 74.6457 482.256 74.5491C480.992 74.4028 479.687 74.3297 478.341 74.3297C477.077 74.28 475.886 74.2551 474.766 74.2551L455.995 74.2595ZM462.928 120.935V102.749H478.759C480.218 102.749 481.628 102.895 482.991 103.188C484.354 103.434 485.545 103.902 486.566 104.592C487.639 105.23 488.49 106.114 489.119 107.243C489.751 108.372 490.067 109.795 490.067 111.513C490.067 114.459 489.192 116.766 487.44 118.433C485.738 120.101 483.355 120.935 480.29 120.935H462.928Z" fill="black"/>
</svg>
