<svg width="158" height="115" viewBox="0 0 158 115" fill="none" xmlns="http://www.w3.org/2000/svg">
<path d="M1.75284 99.3636H3.43466L7.3892 109.023H7.52557L11.4801 99.3636H13.1619V111H11.8438V102.159H11.7301L8.09375 111H6.82102L3.18466 102.159H3.07102V111H1.75284V99.3636ZM22.3509 102.273C22.2827 101.697 22.0062 101.25 21.5213 100.932C21.0365 100.614 20.4418 100.455 19.7372 100.455C19.2221 100.455 18.7713 100.538 18.3849 100.705C18.0024 100.871 17.7031 101.1 17.4872 101.392C17.2751 101.684 17.169 102.015 17.169 102.386C17.169 102.697 17.2429 102.964 17.3906 103.188C17.5421 103.407 17.7353 103.591 17.9702 103.739C18.205 103.883 18.4512 104.002 18.7088 104.097C18.9664 104.187 19.2031 104.261 19.419 104.318L20.6009 104.636C20.9039 104.716 21.241 104.826 21.6122 104.966C21.9872 105.106 22.3452 105.297 22.6861 105.54C23.0308 105.778 23.3149 106.085 23.5384 106.46C23.7618 106.835 23.8736 107.295 23.8736 107.841C23.8736 108.47 23.7088 109.038 23.3793 109.545C23.0535 110.053 22.5762 110.456 21.9474 110.756C21.3224 111.055 20.563 111.205 19.669 111.205C18.8357 111.205 18.1141 111.07 17.5043 110.801C16.8982 110.532 16.4209 110.157 16.0724 109.676C15.7277 109.195 15.5327 108.636 15.4872 108H16.9418C16.9796 108.439 17.1274 108.803 17.3849 109.091C17.6463 109.375 17.9759 109.587 18.3736 109.727C18.7751 109.864 19.2069 109.932 19.669 109.932C20.2069 109.932 20.6899 109.845 21.1179 109.67C21.5459 109.492 21.8849 109.246 22.1349 108.932C22.3849 108.614 22.5099 108.242 22.5099 107.818C22.5099 107.432 22.402 107.117 22.1861 106.875C21.9702 106.633 21.6861 106.436 21.3338 106.284C20.9815 106.133 20.6009 106 20.1918 105.886L18.7599 105.477C17.8509 105.216 17.1312 104.843 16.6009 104.358C16.0705 103.873 15.8054 103.239 15.8054 102.455C15.8054 101.803 15.9815 101.235 16.3338 100.75C16.6899 100.261 17.1671 99.8826 17.7656 99.6136C18.3679 99.3409 19.0402 99.2045 19.7827 99.2045C20.5327 99.2045 21.1993 99.339 21.7827 99.608C22.366 99.8731 22.8281 100.237 23.169 100.699C23.5137 101.161 23.6955 101.686 23.7145 102.273H22.3509ZM37.054 102.273C36.9858 101.697 36.7093 101.25 36.2244 100.932C35.7396 100.614 35.1449 100.455 34.4403 100.455C33.9252 100.455 33.4744 100.538 33.0881 100.705C32.7055 100.871 32.4063 101.1 32.1903 101.392C31.9782 101.684 31.8722 102.015 31.8722 102.386C31.8722 102.697 31.946 102.964 32.0938 103.188C32.2453 103.407 32.4384 103.591 32.6733 103.739C32.9081 103.883 33.1544 104.002 33.4119 104.097C33.6695 104.187 33.9062 104.261 34.1222 104.318L35.304 104.636C35.607 104.716 35.9441 104.826 36.3153 104.966C36.6903 105.106 37.0483 105.297 37.3892 105.54C37.7339 105.778 38.018 106.085 38.2415 106.46C38.465 106.835 38.5767 107.295 38.5767 107.841C38.5767 108.47 38.4119 109.038 38.0824 109.545C37.7566 110.053 37.2794 110.456 36.6506 110.756C36.0256 111.055 35.2661 111.205 34.3722 111.205C33.5388 111.205 32.8172 111.07 32.2074 110.801C31.6013 110.532 31.1241 110.157 30.7756 109.676C30.4309 109.195 30.2358 108.636 30.1903 108H31.6449C31.6828 108.439 31.8305 108.803 32.0881 109.091C32.3494 109.375 32.679 109.587 33.0767 109.727C33.4782 109.864 33.91 109.932 34.3722 109.932C34.91 109.932 35.393 109.845 35.821 109.67C36.2491 109.492 36.5881 109.246 36.8381 108.932C37.0881 108.614 37.2131 108.242 37.2131 107.818C37.2131 107.432 37.1051 107.117 36.8892 106.875C36.6733 106.633 36.3892 106.436 36.0369 106.284C35.6847 106.133 35.304 106 34.8949 105.886L33.4631 105.477C32.554 105.216 31.8343 104.843 31.304 104.358C30.7737 103.873 30.5085 103.239 30.5085 102.455C30.5085 101.803 30.6847 101.235 31.0369 100.75C31.393 100.261 31.8703 99.8826 32.4688 99.6136C33.071 99.3409 33.7434 99.2045 34.4858 99.2045C35.2358 99.2045 35.9025 99.339 36.4858 99.608C37.0691 99.8731 37.5313 100.237 37.8722 100.699C38.2169 101.161 38.3987 101.686 38.4176 102.273H37.054ZM45.1207 107.364H46.6662L47.9616 109.068L48.3026 109.523L50.2344 112.091H48.6889L47.4162 110.386L47.098 109.955L45.1207 107.364ZM50.7116 105.182C50.7116 106.409 50.4901 107.47 50.0469 108.364C49.6037 109.258 48.9957 109.947 48.223 110.432C47.4503 110.917 46.5677 111.159 45.5753 111.159C44.5829 111.159 43.7003 110.917 42.9276 110.432C42.1548 109.947 41.5469 109.258 41.1037 108.364C40.6605 107.47 40.4389 106.409 40.4389 105.182C40.4389 103.955 40.6605 102.894 41.1037 102C41.5469 101.106 42.1548 100.417 42.9276 99.9318C43.7003 99.447 44.5829 99.2045 45.5753 99.2045C46.5677 99.2045 47.4503 99.447 48.223 99.9318C48.9957 100.417 49.6037 101.106 50.0469 102C50.4901 102.894 50.7116 103.955 50.7116 105.182ZM49.348 105.182C49.348 104.174 49.1795 103.324 48.8423 102.631C48.509 101.938 48.0563 101.413 47.4844 101.057C46.9162 100.701 46.2798 100.523 45.5753 100.523C44.8707 100.523 44.2325 100.701 43.6605 101.057C43.0923 101.413 42.6397 101.938 42.3026 102.631C41.9692 103.324 41.8026 104.174 41.8026 105.182C41.8026 106.189 41.9692 107.04 42.3026 107.733C42.6397 108.426 43.0923 108.951 43.6605 109.307C44.2325 109.663 44.8707 109.841 45.5753 109.841C46.2798 109.841 46.9162 109.663 47.4844 109.307C48.0563 108.951 48.509 108.426 48.8423 107.733C49.1795 107.04 49.348 106.189 49.348 105.182ZM53.081 111V99.3636H54.4901V109.75H59.8991V111H53.081ZM67.0582 111H65.581L69.8537 99.3636H71.3082L75.581 111H74.1037L70.6264 101.205H70.5355L67.0582 111ZM67.6037 106.455H73.5582V107.705H67.6037V106.455ZM76.9616 111V109.977L81.9162 103.614V103.523H77.1207V102.273H83.6435V103.341L78.8253 109.659V109.75H83.8026V111H76.9616ZM91.3679 107.432V102.273H92.7088V111H91.3679V109.523H91.277C91.0724 109.966 90.7543 110.343 90.3224 110.653C89.8906 110.96 89.3452 111.114 88.6861 111.114C88.1406 111.114 87.6558 110.994 87.2315 110.756C86.8073 110.513 86.474 110.15 86.2315 109.665C85.9891 109.176 85.8679 108.561 85.8679 107.818V102.273H87.2088V107.727C87.2088 108.364 87.3868 108.871 87.7429 109.25C88.1027 109.629 88.5611 109.818 89.1179 109.818C89.4512 109.818 89.7902 109.733 90.1349 109.562C90.4834 109.392 90.7751 109.131 91.0099 108.778C91.2486 108.426 91.3679 107.977 91.3679 107.432ZM95.1648 111V102.273H96.4602V103.591H96.5511C96.7102 103.159 96.9981 102.809 97.4148 102.54C97.8314 102.271 98.3011 102.136 98.8239 102.136C98.9223 102.136 99.0455 102.138 99.1932 102.142C99.3409 102.146 99.4527 102.152 99.5284 102.159V103.523C99.483 103.511 99.3788 103.494 99.2159 103.472C99.0568 103.445 98.8883 103.432 98.7102 103.432C98.286 103.432 97.9072 103.521 97.5739 103.699C97.2443 103.873 96.983 104.116 96.7898 104.426C96.6004 104.733 96.5057 105.083 96.5057 105.477V111H95.1648ZM104.511 111.182C103.67 111.182 102.945 110.996 102.335 110.625C101.729 110.25 101.261 109.727 100.932 109.057C100.606 108.383 100.443 107.598 100.443 106.705C100.443 105.811 100.606 105.023 100.932 104.341C101.261 103.655 101.72 103.121 102.307 102.739C102.898 102.352 103.587 102.159 104.375 102.159C104.83 102.159 105.278 102.235 105.722 102.386C106.165 102.538 106.568 102.784 106.932 103.125C107.295 103.462 107.585 103.909 107.801 104.466C108.017 105.023 108.125 105.708 108.125 106.523V107.091H101.398V105.932H106.761C106.761 105.439 106.663 105 106.466 104.614C106.273 104.227 105.996 103.922 105.636 103.699C105.28 103.475 104.86 103.364 104.375 103.364C103.841 103.364 103.379 103.496 102.989 103.761C102.602 104.023 102.305 104.364 102.097 104.784C101.888 105.205 101.784 105.655 101.784 106.136V106.909C101.784 107.568 101.898 108.127 102.125 108.585C102.356 109.04 102.676 109.386 103.085 109.625C103.494 109.86 103.97 109.977 104.511 109.977C104.864 109.977 105.182 109.928 105.466 109.83C105.754 109.727 106.002 109.576 106.21 109.375C106.419 109.17 106.58 108.917 106.693 108.614L107.989 108.977C107.852 109.417 107.623 109.803 107.301 110.136C106.979 110.466 106.581 110.723 106.108 110.909C105.634 111.091 105.102 111.182 104.511 111.182ZM124.21 103H122.801C122.718 102.595 122.572 102.239 122.364 101.932C122.159 101.625 121.909 101.367 121.614 101.159C121.322 100.947 120.998 100.788 120.642 100.682C120.286 100.576 119.915 100.523 119.528 100.523C118.824 100.523 118.186 100.701 117.614 101.057C117.045 101.413 116.593 101.938 116.256 102.631C115.922 103.324 115.756 104.174 115.756 105.182C115.756 106.189 115.922 107.04 116.256 107.733C116.593 108.426 117.045 108.951 117.614 109.307C118.186 109.663 118.824 109.841 119.528 109.841C119.915 109.841 120.286 109.788 120.642 109.682C120.998 109.576 121.322 109.419 121.614 109.21C121.909 108.998 122.159 108.739 122.364 108.432C122.572 108.121 122.718 107.765 122.801 107.364H124.21C124.104 107.958 123.911 108.491 123.631 108.96C123.35 109.43 123.002 109.83 122.585 110.159C122.169 110.485 121.701 110.733 121.182 110.903C120.667 111.074 120.116 111.159 119.528 111.159C118.536 111.159 117.653 110.917 116.881 110.432C116.108 109.947 115.5 109.258 115.057 108.364C114.614 107.47 114.392 106.409 114.392 105.182C114.392 103.955 114.614 102.894 115.057 102C115.5 101.106 116.108 100.417 116.881 99.9318C117.653 99.447 118.536 99.2045 119.528 99.2045C120.116 99.2045 120.667 99.2898 121.182 99.4602C121.701 99.6307 122.169 99.8807 122.585 100.21C123.002 100.536 123.35 100.934 123.631 101.403C123.911 101.869 124.104 102.402 124.21 103ZM127.646 99.3636V111H126.305V99.3636H127.646ZM133.648 111.182C132.86 111.182 132.169 110.994 131.574 110.619C130.983 110.244 130.521 109.72 130.188 109.045C129.858 108.371 129.693 107.583 129.693 106.682C129.693 105.773 129.858 104.979 130.188 104.301C130.521 103.623 130.983 103.097 131.574 102.722C132.169 102.347 132.86 102.159 133.648 102.159C134.436 102.159 135.125 102.347 135.716 102.722C136.311 103.097 136.773 103.623 137.102 104.301C137.436 104.979 137.602 105.773 137.602 106.682C137.602 107.583 137.436 108.371 137.102 109.045C136.773 109.72 136.311 110.244 135.716 110.619C135.125 110.994 134.436 111.182 133.648 111.182ZM133.648 109.977C134.246 109.977 134.739 109.824 135.125 109.517C135.511 109.21 135.797 108.807 135.983 108.307C136.169 107.807 136.261 107.265 136.261 106.682C136.261 106.098 136.169 105.555 135.983 105.051C135.797 104.547 135.511 104.14 135.125 103.83C134.739 103.519 134.246 103.364 133.648 103.364C133.049 103.364 132.557 103.519 132.17 103.83C131.784 104.14 131.498 104.547 131.312 105.051C131.127 105.555 131.034 106.098 131.034 106.682C131.034 107.265 131.127 107.807 131.312 108.307C131.498 108.807 131.784 109.21 132.17 109.517C132.557 109.824 133.049 109.977 133.648 109.977ZM145.149 107.432V102.273H146.49V111H145.149V109.523H145.058C144.854 109.966 144.536 110.343 144.104 110.653C143.672 110.96 143.126 111.114 142.467 111.114C141.922 111.114 141.437 110.994 141.013 110.756C140.589 110.513 140.255 110.15 140.013 109.665C139.77 109.176 139.649 108.561 139.649 107.818V102.273H140.99V107.727C140.99 108.364 141.168 108.871 141.524 109.25C141.884 109.629 142.342 109.818 142.899 109.818C143.232 109.818 143.571 109.733 143.916 109.562C144.265 109.392 144.556 109.131 144.791 108.778C145.03 108.426 145.149 107.977 145.149 107.432ZM152.241 111.182C151.514 111.182 150.872 110.998 150.315 110.631C149.759 110.259 149.323 109.737 149.009 109.062C148.694 108.384 148.537 107.583 148.537 106.659C148.537 105.742 148.694 104.947 149.009 104.273C149.323 103.598 149.76 103.078 150.321 102.71C150.882 102.343 151.529 102.159 152.264 102.159C152.832 102.159 153.281 102.254 153.611 102.443C153.944 102.629 154.198 102.841 154.372 103.08C154.55 103.314 154.688 103.508 154.787 103.659H154.901V99.3636H156.241V111H154.946V109.659H154.787C154.688 109.818 154.548 110.019 154.366 110.261C154.185 110.5 153.925 110.714 153.588 110.903C153.251 111.089 152.802 111.182 152.241 111.182ZM152.423 109.977C152.961 109.977 153.416 109.837 153.787 109.557C154.158 109.273 154.44 108.881 154.634 108.381C154.827 107.877 154.923 107.295 154.923 106.636C154.923 105.985 154.829 105.415 154.639 104.926C154.45 104.434 154.17 104.051 153.798 103.778C153.427 103.502 152.969 103.364 152.423 103.364C151.855 103.364 151.382 103.509 151.003 103.801C150.628 104.089 150.346 104.481 150.156 104.977C149.971 105.47 149.878 106.023 149.878 106.636C149.878 107.258 149.973 107.822 150.162 108.33C150.355 108.833 150.639 109.235 151.014 109.534C151.393 109.83 151.863 109.977 152.423 109.977Z" fill="#00BCF2"/>
<g clip-path="url(#clip0_385_187)">
<path d="M73.6307 84.85C69.7176 84.0717 66.3392 81.3956 64.6968 77.7732C63.9743 76.1797 63.6668 74.6742 63.6722 72.7544C63.6868 67.2369 67.1562 62.6297 72.5461 60.9688C73.539 60.6629 74.1942 60.5821 75.7166 60.578C76.772 60.5756 77.9359 60.631 78.3031 60.7022L78.9706 60.8315L79.7921 59.2363C81.4696 55.9791 84.084 53.4202 87.4637 51.7275C90.2518 50.331 92.0039 49.9249 95.2403 49.9249C97.5072 49.9249 98.0331 49.9796 99.4956 50.3671C105.811 52.0405 110.734 56.9971 112.283 63.2428C112.671 64.8067 112.865 68.3132 112.639 69.6888L112.485 70.6281L113.369 70.8261C115.586 71.3222 117.499 72.8709 118.477 74.9611C119.445 77.0282 119.268 79.7028 118.034 81.6568C117.404 82.6542 116.17 83.7627 115.14 84.2558C114.612 84.5085 114.05 84.7837 113.89 84.8673C113.532 85.0551 74.5777 85.0384 73.6307 84.85ZM114.128 82.5443C115.224 81.9994 116.308 80.781 116.759 79.5876C117.693 77.1118 116.446 74.2352 113.959 73.1284C113.331 72.8489 112.862 72.7843 111.552 72.7967C110.657 72.8052 109.925 72.7487 109.925 72.6712C109.925 72.5938 110.091 71.8675 110.294 71.0572C110.814 68.9842 110.809 65.6787 110.282 63.66C109.122 59.2086 106.113 55.4957 101.998 53.4367C100.19 52.5319 98.47 52.1181 96.1198 52.0221C92.6422 51.8802 90.2144 52.4282 87.539 53.959C84.4191 55.744 81.7298 58.9787 80.6874 62.1999C80.4869 62.8194 80.2438 63.3253 80.1471 63.3241C80.05 63.3229 79.4833 63.1613 78.8867 62.9649C77.227 62.4186 74.3965 62.4518 72.7401 63.0371C71.0728 63.6261 69.8724 64.3812 68.6227 65.627C66.7494 67.4945 65.7089 70.0396 65.7089 72.7544C65.7089 76.7859 67.9296 80.3201 71.5425 82.0385C73.6189 83.0261 72.9004 82.9965 93.9884 82.9636L113.345 82.9335L114.128 82.5443ZM58.2787 74.7417C51.2758 73.7927 45.8856 72.0343 41.8985 69.3981C40.2533 68.3104 39.1175 67.0938 38.4771 65.7335L38 64.72L38.0437 37.2822L38.0874 9.84443L38.4858 9.09687C39.493 7.20722 41.4566 5.59477 44.5829 4.0905C48.5359 2.18837 53.0944 0.999213 59.4467 0.212963C62.0626 -0.110814 70.946 -0.053564 73.6307 0.304383C83.5168 1.62244 91.1885 4.85253 93.6341 8.72642C94.5977 10.253 94.5728 9.69963 94.5728 29.646V47.9591L94.0305 48.0431C93.7323 48.0892 93.0566 48.1732 92.529 48.2295C87.0848 48.8108 81.439 52.5744 78.545 57.5516L77.9524 58.5705L75.6248 58.6804C72.8744 58.8103 71.473 59.1626 69.382 60.2498C65.7917 62.1164 63.2257 65.3526 62.1793 69.3336C61.8903 70.4332 61.8049 71.2302 61.799 72.8796L61.7869 75.0072L60.8648 74.9874C60.3577 74.9765 59.1918 74.8661 58.2741 74.7417H58.2787ZM72.5149 49.4516C71.2012 48.3369 70.0652 47.3707 69.9902 47.3046C69.9149 47.2386 70.1883 46.9887 70.5966 46.7493C71.5023 46.2186 72.6683 44.9484 73.1635 43.9531C74.3736 41.5211 74.3466 38.4961 73.0931 36.089C71.7149 33.4416 68.8306 32.0528 65.5628 32.4631C63.7736 32.6878 62.6527 33.1897 61.4706 34.2955C59.6047 36.0409 58.9584 37.7535 59.0566 40.6928C59.1124 42.3639 59.1719 42.6644 59.6499 43.6787C60.6785 45.8618 62.8291 47.4936 65.02 47.753C65.8443 47.8506 65.9158 47.9047 67.5536 49.666L69.2392 51.4785H72.071H74.903L72.5149 49.4516ZM65.3688 43.7608C64.2212 43.1785 63.7854 42.1809 63.7854 40.1358C63.7854 38.805 63.8497 38.4165 64.1768 37.7511C64.7001 36.6886 65.7433 36.0498 66.7667 36.1652C67.7733 36.2786 68.2965 36.6858 68.829 37.7698C69.233 38.5926 69.2914 38.9044 69.2867 40.2148C69.2867 41.8311 68.9949 42.6597 68.1819 43.4159C67.3326 44.2059 66.4576 44.3132 65.3688 43.7608ZM53.8218 47.634C56.8393 46.938 58.4783 44.4109 57.6094 41.7946C57.1719 40.4772 56.2471 39.6544 53.9885 38.5728C52.9454 38.0733 52.0126 37.5625 51.9156 37.4378C51.5358 36.9499 51.5366 36.6269 51.9156 36.1828C52.5033 35.4996 53.8412 35.4669 55.6527 36.0915L57.0345 36.5681L56.9872 34.7239L56.9398 32.8796L56.0221 32.6615C54.6341 32.3316 51.6341 32.3477 50.4538 32.6915C48.0872 33.3808 46.8401 34.9276 46.8479 37.164C46.86 39.4655 47.8928 40.5565 51.5443 42.1059C53.0891 42.7614 53.266 43.9864 51.8851 44.466C51.246 44.6879 51.0641 44.6836 50.0529 44.4225C49.4353 44.2631 48.4983 43.9087 47.9706 43.6351L47.0111 43.1375V45.134V47.1305L47.9706 47.3976C48.4983 47.5445 49.0052 47.6909 49.097 47.7229C49.4784 47.8557 53.157 47.7865 53.818 47.634H53.8218ZM86.0625 45.8883V44.1362H83.3925H80.7227V38.3792V32.6222H78.5534H76.3841V40.1313V47.6404H81.2233H86.0625V45.8883ZM73.2136 15.8451C77.5649 15.3408 81.1357 14.4286 83.3925 13.2449C84.8753 12.4672 85.2309 12.1871 85.8008 11.3472C87.5634 8.74988 83.6167 6.13838 75.9668 4.84009C68.7798 3.62034 59.3085 3.89625 53.2466 5.50197C40.7388 8.81515 45.6695 14.9012 61.8336 16.1011C64.4865 16.298 70.466 16.1635 73.2136 15.8451Z" fill="#00BCF2"/>
</g>
<defs>
<clipPath id="clip0_385_187">
<rect width="81.0973" height="85" fill="white" transform="translate(38)"/>
</clipPath>
</defs>
</svg>
