<svg width="500" height="200" viewBox="0 0 500 200" fill="none" xmlns="http://www.w3.org/2000/svg">
<path d="M99.5426 54.3686C73.376 54.3686 55.7715 69.4124 55.7715 99.0998V117.184C58.4922 115.984 61.373 115.344 64.3337 115.184C67.2944 115.104 70.2552 115.744 72.8959 117.184V99.0998C72.8959 79.975 83.4585 69.8925 99.3825 69.8925C115.307 69.8925 125.869 79.975 125.869 99.0998V145.351H142.993V99.0998C142.993 69.4124 125.309 54.3686 99.3025 54.3686M152.276 101.02C152.276 73.8935 171.881 54.2886 200.048 54.2886C228.215 54.2886 247.26 73.9735 247.26 101.02V107.102H170.36C172.361 121.746 185.244 132.468 200.048 131.748C211.651 131.748 219.653 128.227 224.694 120.705H243.419C236.377 137.269 220.293 147.832 199.728 147.832C172.041 147.832 152.516 128.227 152.516 101.1M229.895 92.2181C226.695 78.6147 214.131 69.3323 200.208 70.1325C186.364 69.4124 174.041 78.6947 171.081 92.2181H229.895ZM256.702 101.02C256.702 73.9735 276.467 54.2886 304.634 54.2886C330.001 53.2483 351.366 73.0132 352.406 98.3796C352.406 99.2599 352.486 100.14 352.406 101.02C352.406 128.227 332.801 147.752 304.634 147.752C276.467 147.752 256.702 128.227 256.702 101.02ZM334.562 101.02C335.522 85.0163 323.279 71.3328 307.275 70.3726C306.155 70.2926 305.034 70.2926 303.914 70.3726C287.59 69.7324 273.906 82.3756 273.266 98.6997C273.266 99.4999 273.266 100.22 273.266 101.02C272.306 117.024 284.549 130.788 300.553 131.668C301.673 131.748 302.794 131.748 303.914 131.668C322.559 132.228 334.562 119.185 334.562 101.02ZM449.871 163.436H451.871C462.914 163.436 466.915 158.395 466.915 145.752V60.3701H484.039V144.791C484.039 166.877 475.477 178 453.392 178H449.871V163.436ZM441.389 153.914H424.264V132.788H381.053C372.971 133.108 365.289 128.867 361.448 121.746C358.248 115.104 359.208 107.262 363.929 101.66L402.579 50.8477C408.02 43.1657 417.943 40.045 426.825 43.1657C435.547 45.9665 441.469 54.1285 441.389 63.2508V117.745H451.391V132.788H441.389V153.914ZM378.013 111.103C377.372 111.743 376.972 112.703 376.972 113.583C376.972 116.064 378.973 117.985 381.373 117.985H424.104V63.2508C424.104 60.21 422.104 59.2498 421.063 59.2498H419.543C418.103 59.3298 416.822 60.05 416.022 61.2503L378.013 111.103Z" fill="black"/>
<path d="M475.557 21C467.475 21 460.994 27.5616 460.994 35.5637C460.994 43.5657 467.555 50.1273 475.557 50.1273C483.639 50.1273 490.121 43.5657 490.121 35.5637C490.121 27.5616 483.559 21 475.557 21ZM63.2934 123.666C60.1726 123.506 57.0518 124.546 54.7313 126.707L38.6472 116.224C39.0473 114.944 39.2874 113.583 39.2073 112.223C39.2073 104.141 32.7257 97.5793 24.6437 97.5793C16.5617 97.5793 10 104.061 10 112.143C10 120.225 16.4816 126.787 24.5637 126.787C24.5637 126.787 24.5637 126.787 24.6437 126.787C27.7645 126.947 30.8853 125.906 33.2058 123.746L49.2899 134.789C48.8898 136.069 48.7297 137.429 48.8098 138.79C48.7297 140.15 48.8898 141.51 49.2899 142.791L33.2058 153.913C30.8052 151.913 27.7645 150.873 24.6437 150.873C16.5617 150.873 10.08 157.434 10.08 165.436C10.08 173.518 16.6417 180 24.6437 180C32.6457 180 39.2073 173.438 39.2073 165.436C39.2874 164.076 39.1273 162.716 38.6472 161.435L54.7313 150.393C57.1319 152.393 60.1726 153.433 63.2934 153.433C71.2954 153.433 77.8571 146.952 77.8571 138.87C77.8571 138.87 77.8571 138.87 77.8571 138.79C77.9371 130.628 71.4555 123.906 63.2934 123.666Z" fill="#018BFF"/>
</svg>
