<svg width="219" height="75" viewBox="0 0 219 75" fill="none" xmlns="http://www.w3.org/2000/svg">
<path fill-rule="evenodd" clip-rule="evenodd" d="M10.9527 3.1043C17.1355 1.14593 25.371 0 34.464 0C43.557 0 51.7925 1.14593 57.9753 3.1043C61.0667 4.08348 63.6608 5.25538 65.6105 6.71541C67.5601 8.17545 68.928 10.0521 68.928 12.1638V62.8461C68.928 64.9578 67.5601 66.8345 65.6105 68.2945C63.6608 69.7545 61.0667 70.9264 57.9753 71.9056C52.3578 73.6849 45.0358 74.7825 36.9257 74.9703C36.9257 75.0099 32.0023 75.0099 32.0023 74.9703C23.8922 74.7825 16.5703 73.6849 10.9527 71.9056C7.86129 70.9264 5.26721 69.7545 3.31755 68.2945C1.36788 66.8345 0 64.9578 0 62.8461V12.1638C0 10.0521 1.36788 8.17545 3.31755 6.71541C5.26721 5.25538 7.86129 4.08348 10.9527 3.1043ZM56.206 6.88963C50.8063 5.17932 43.0453 4.05459 34.464 4.05459C25.8827 4.05459 18.1218 5.17932 12.7221 6.88963C10.0222 7.74479 7.92423 8.75138 6.63509 9.71676C5.34596 10.6821 4.92343 11.4764 4.92343 12.1638C4.92343 12.8512 5.34596 13.6454 6.63509 14.6108C7.92423 15.5762 10.0222 16.5827 12.7221 17.4379C18.1218 19.1482 25.8827 20.2729 34.464 20.2729C37.9953 20.2729 48.0222 20.0301 56.206 17.4379C58.9058 16.5827 61.0038 15.5762 62.2929 14.6108C63.5821 13.6454 64.0046 12.8512 64.0046 12.1638C64.0046 11.4764 63.5821 10.6821 62.2929 9.71676C61.0038 8.75138 58.9058 7.74479 56.206 6.88963ZM10.9527 31.3597C8.64677 30.6293 6.6149 29.7942 4.92343 28.8098V32.4367C4.92343 33.1241 5.34596 33.9183 6.63509 34.8837C7.92423 35.8491 10.0222 36.8557 12.7221 37.7108C18.1218 39.4212 25.8827 40.5459 34.464 40.5459C37.9952 40.5459 48.0222 40.303 56.206 37.7108C58.3184 37.0418 61.4505 35.8372 63.1007 34.1868C63.7633 33.524 64.0046 32.9523 64.0046 32.4367V28.8098C61.8204 30.081 59.0173 31.0297 57.9753 31.3597C49.3875 34.0799 39.4196 34.464 34.464 34.464C25.371 34.464 17.1355 33.3181 10.9527 31.3597ZM4.92188 48.6552C6.61335 49.6397 8.64522 50.4748 10.9512 51.2052C17.134 53.1636 25.3694 54.3095 34.4625 54.3095C39.418 54.3095 49.3859 53.9254 57.9738 51.2052C59.0157 50.8752 61.8189 49.9264 64.003 48.6553V52.2822C64.003 52.7977 63.7618 53.3695 63.0991 54.0323C61.4489 55.6827 58.3168 56.8872 56.2044 57.5563C48.0206 60.1485 37.9937 60.3914 34.4625 60.3914C25.8811 60.3914 18.1202 59.2666 12.7205 57.5563C10.0207 56.7012 7.92267 55.6946 6.63354 54.7292C5.3444 53.7638 4.92188 52.9696 4.92188 52.2822V48.6552Z" fill="#E11A1F"/>
<path d="M98.3852 53H96.2716C96.1466 52.392 95.9278 51.858 95.6153 51.3977C95.3085 50.9375 94.9335 50.5511 94.4903 50.2386C94.0528 49.9205 93.567 49.6818 93.0329 49.5227C92.4988 49.3636 91.942 49.2841 91.3625 49.2841C90.3056 49.2841 89.3483 49.5511 88.4903 50.0852C87.638 50.6193 86.9591 51.4062 86.4534 52.446C85.9534 53.4858 85.7034 54.7614 85.7034 56.2727C85.7034 57.7841 85.9534 59.0597 86.4534 60.0994C86.9591 61.1392 87.638 61.9261 88.4903 62.4602C89.3483 62.9943 90.3056 63.2614 91.3625 63.2614C91.942 63.2614 92.4988 63.1818 93.0329 63.0227C93.567 62.8636 94.0528 62.6278 94.4903 62.3153C94.9335 61.9972 95.3085 61.608 95.6153 61.1477C95.9278 60.6818 96.1466 60.1477 96.2716 59.5455H98.3852C98.2261 60.4375 97.9363 61.2358 97.5159 61.9403C97.0954 62.6449 96.5727 63.2443 95.9477 63.7386C95.3227 64.2273 94.621 64.5994 93.8426 64.8551C93.0698 65.1108 92.2431 65.2386 91.3625 65.2386C89.8738 65.2386 88.55 64.875 87.3909 64.1477C86.2318 63.4205 85.3198 62.3864 84.6551 61.0455C83.9903 59.7045 83.6579 58.1136 83.6579 56.2727C83.6579 54.4318 83.9903 52.8409 84.6551 51.5C85.3198 50.1591 86.2318 49.125 87.3909 48.3977C88.55 47.6705 89.8738 47.3068 91.3625 47.3068C92.2431 47.3068 93.0698 47.4347 93.8426 47.6903C94.621 47.946 95.3227 48.321 95.9477 48.8153C96.5727 49.304 97.0954 49.9006 97.5159 50.6051C97.9363 51.304 98.2261 52.1023 98.3852 53ZM107.566 65.2727C106.384 65.2727 105.347 64.9915 104.455 64.429C103.569 63.8665 102.876 63.0795 102.376 62.0682C101.881 61.0568 101.634 59.875 101.634 58.5227C101.634 57.1591 101.881 55.9687 102.376 54.9517C102.876 53.9347 103.569 53.1449 104.455 52.5824C105.347 52.0199 106.384 51.7386 107.566 51.7386C108.748 51.7386 109.782 52.0199 110.668 52.5824C111.56 53.1449 112.254 53.9347 112.748 54.9517C113.248 55.9687 113.498 57.1591 113.498 58.5227C113.498 59.875 113.248 61.0568 112.748 62.0682C112.254 63.0795 111.56 63.8665 110.668 64.429C109.782 64.9915 108.748 65.2727 107.566 65.2727ZM107.566 63.4659C108.464 63.4659 109.202 63.2358 109.782 62.7756C110.362 62.3153 110.791 61.7102 111.069 60.9602C111.347 60.2102 111.487 59.3977 111.487 58.5227C111.487 57.6477 111.347 56.8324 111.069 56.0767C110.791 55.321 110.362 54.7102 109.782 54.2443C109.202 53.7784 108.464 53.5455 107.566 53.5455C106.668 53.5455 105.93 53.7784 105.35 54.2443C104.771 54.7102 104.342 55.321 104.063 56.0767C103.785 56.8324 103.646 57.6477 103.646 58.5227C103.646 59.3977 103.785 60.2102 104.063 60.9602C104.342 61.7102 104.771 62.3153 105.35 62.7756C105.93 63.2358 106.668 63.4659 107.566 63.4659ZM117.288 65V51.9091H119.231V53.9545H119.402C119.675 53.2557 120.115 52.7131 120.723 52.3267C121.331 51.9347 122.061 51.7386 122.913 51.7386C123.777 51.7386 124.496 51.9347 125.07 52.3267C125.649 52.7131 126.101 53.2557 126.425 53.9545H126.561C126.896 53.2784 127.399 52.7415 128.07 52.3438C128.74 51.9403 129.544 51.7386 130.481 51.7386C131.652 51.7386 132.609 52.1051 133.354 52.8381C134.098 53.5653 134.47 54.6989 134.47 56.2386V65H132.459V56.2386C132.459 55.2727 132.195 54.5824 131.666 54.1676C131.138 53.7528 130.516 53.5455 129.8 53.5455C128.879 53.5455 128.166 53.8239 127.66 54.3807C127.155 54.9318 126.902 55.6307 126.902 56.4773V65H124.856V56.0341C124.856 55.2898 124.615 54.6903 124.132 54.2358C123.649 53.7756 123.027 53.5455 122.266 53.5455C121.743 53.5455 121.254 53.6847 120.8 53.9631C120.351 54.2415 119.987 54.6278 119.709 55.1222C119.436 55.6108 119.3 56.1761 119.3 56.8182V65H117.288ZM138.868 65V51.9091H140.811V53.9545H140.981C141.254 53.2557 141.694 52.7131 142.302 52.3267C142.91 51.9347 143.64 51.7386 144.493 51.7386C145.356 51.7386 146.075 51.9347 146.649 52.3267C147.228 52.7131 147.68 53.2557 148.004 53.9545H148.14C148.476 53.2784 148.978 52.7415 149.649 52.3438C150.319 51.9403 151.123 51.7386 152.061 51.7386C153.231 51.7386 154.189 52.1051 154.933 52.8381C155.677 53.5653 156.049 54.6989 156.049 56.2386V65H154.038V56.2386C154.038 55.2727 153.774 54.5824 153.245 54.1676C152.717 53.7528 152.095 53.5455 151.379 53.5455C150.459 53.5455 149.745 53.8239 149.24 54.3807C148.734 54.9318 148.481 55.6307 148.481 56.4773V65H146.436V56.0341C146.436 55.2898 146.194 54.6903 145.711 54.2358C145.228 53.7756 144.606 53.5455 143.845 53.5455C143.322 53.5455 142.834 53.6847 142.379 53.9631C141.93 54.2415 141.566 54.6278 141.288 55.1222C141.015 55.6108 140.879 56.1761 140.879 56.8182V65H138.868ZM164.299 65.3068C163.47 65.3068 162.717 65.1506 162.041 64.8381C161.365 64.5199 160.828 64.0625 160.43 63.4659C160.032 62.8636 159.833 62.1364 159.833 61.2841C159.833 60.5341 159.981 59.9261 160.277 59.4602C160.572 58.9886 160.967 58.6193 161.461 58.3523C161.956 58.0852 162.501 57.8864 163.098 57.7557C163.7 57.6193 164.305 57.5114 164.913 57.4318C165.708 57.3295 166.353 57.2528 166.848 57.2017C167.348 57.1449 167.711 57.0511 167.938 56.9205C168.171 56.7898 168.288 56.5625 168.288 56.2386V56.1705C168.288 55.3295 168.058 54.6761 167.598 54.2102C167.143 53.7443 166.453 53.5114 165.527 53.5114C164.566 53.5114 163.813 53.7216 163.268 54.142C162.723 54.5625 162.339 55.0114 162.117 55.4886L160.208 54.8068C160.549 54.0114 161.004 53.392 161.572 52.9489C162.146 52.5 162.771 52.1875 163.447 52.0114C164.129 51.8295 164.799 51.7386 165.458 51.7386C165.879 51.7386 166.362 51.7898 166.907 51.892C167.458 51.9886 167.99 52.1903 168.501 52.4972C169.018 52.804 169.447 53.267 169.788 53.8864C170.129 54.5057 170.299 55.3352 170.299 56.375V65H168.288V63.2273H168.186C168.049 63.5114 167.822 63.8153 167.504 64.1392C167.186 64.4631 166.762 64.7386 166.234 64.9659C165.706 65.1932 165.061 65.3068 164.299 65.3068ZM164.606 63.5C165.402 63.5 166.072 63.3438 166.617 63.0312C167.169 62.7188 167.583 62.3153 167.862 61.821C168.146 61.3267 168.288 60.8068 168.288 60.2614V58.4205C168.203 58.5227 168.015 58.6165 167.725 58.7017C167.441 58.7812 167.112 58.8523 166.737 58.9148C166.367 58.9716 166.007 59.0227 165.654 59.0682C165.308 59.108 165.027 59.142 164.811 59.1705C164.288 59.2386 163.799 59.3494 163.345 59.5028C162.896 59.6506 162.532 59.875 162.254 60.1761C161.981 60.4716 161.845 60.875 161.845 61.3864C161.845 62.0852 162.103 62.6136 162.62 62.9716C163.143 63.3239 163.805 63.5 164.606 63.5ZM176.702 57.125V65H174.69V51.9091H176.634V53.9545H176.804C177.111 53.2898 177.577 52.7557 178.202 52.3523C178.827 51.9432 179.634 51.7386 180.622 51.7386C181.509 51.7386 182.284 51.9205 182.949 52.2841C183.614 52.642 184.131 53.1875 184.5 53.9205C184.869 54.6477 185.054 55.5682 185.054 56.6818V65H183.043V56.8182C183.043 55.7898 182.776 54.9886 182.242 54.4148C181.707 53.8352 180.975 53.5455 180.043 53.5455C179.401 53.5455 178.827 53.6847 178.321 53.9631C177.821 54.2415 177.426 54.6477 177.136 55.1818C176.847 55.7159 176.702 56.3636 176.702 57.125ZM194.393 65.2727C193.302 65.2727 192.339 64.9972 191.503 64.446C190.668 63.8892 190.015 63.1051 189.543 62.0938C189.072 61.0767 188.836 59.875 188.836 58.4886C188.836 57.1136 189.072 55.9205 189.543 54.9091C190.015 53.8977 190.671 53.1165 191.512 52.5653C192.353 52.0142 193.325 51.7386 194.427 51.7386C195.279 51.7386 195.952 51.8807 196.447 52.1648C196.947 52.4432 197.327 52.7614 197.589 53.1193C197.856 53.4716 198.063 53.7614 198.211 53.9886H198.381V47.5455H200.393V65H198.45V62.9886H198.211C198.063 63.2273 197.853 63.5284 197.58 63.892C197.307 64.25 196.918 64.571 196.413 64.8551C195.907 65.1335 195.234 65.2727 194.393 65.2727ZM194.665 63.4659C195.472 63.4659 196.154 63.2557 196.711 62.8352C197.268 62.4091 197.691 61.821 197.981 61.071C198.271 60.3153 198.415 59.4432 198.415 58.4545C198.415 57.4773 198.273 56.6222 197.989 55.8892C197.705 55.1506 197.285 54.5767 196.728 54.1676C196.171 53.7528 195.484 53.5455 194.665 53.5455C193.813 53.5455 193.103 53.7642 192.535 54.2017C191.972 54.6335 191.549 55.2216 191.265 55.9659C190.986 56.7045 190.847 57.5341 190.847 58.4545C190.847 59.3864 190.989 60.233 191.273 60.9943C191.563 61.75 191.989 62.3523 192.552 62.8011C193.12 63.2443 193.825 63.4659 194.665 63.4659ZM214.348 54.8409L212.542 55.3523C212.428 55.0511 212.26 54.7585 212.039 54.4744C211.823 54.1847 211.527 53.946 211.152 53.7585C210.777 53.571 210.297 53.4773 209.712 53.4773C208.911 53.4773 208.243 53.6619 207.709 54.0312C207.181 54.3949 206.917 54.858 206.917 55.4205C206.917 55.9205 207.098 56.3153 207.462 56.6051C207.826 56.8949 208.394 57.1364 209.167 57.3295L211.11 57.8068C212.28 58.0909 213.152 58.5256 213.726 59.1108C214.3 59.6903 214.587 60.4375 214.587 61.3523C214.587 62.1023 214.371 62.7727 213.939 63.3636C213.513 63.9545 212.917 64.4205 212.15 64.7614C211.383 65.1023 210.491 65.2727 209.473 65.2727C208.138 65.2727 207.033 64.983 206.158 64.4034C205.283 63.8239 204.729 62.9773 204.496 61.8636L206.405 61.3864C206.587 62.0909 206.931 62.6193 207.437 62.9716C207.948 63.3239 208.616 63.5 209.439 63.5C210.377 63.5 211.121 63.3011 211.672 62.9034C212.229 62.5 212.508 62.017 212.508 61.4545C212.508 61 212.348 60.6193 212.03 60.3125C211.712 60 211.223 59.767 210.564 59.6136L208.383 59.1023C207.184 58.8182 206.303 58.3778 205.741 57.7812C205.184 57.179 204.905 56.4261 204.905 55.5227C204.905 54.7841 205.113 54.1307 205.527 53.5625C205.948 52.9943 206.519 52.5483 207.241 52.2244C207.968 51.9006 208.792 51.7386 209.712 51.7386C211.008 51.7386 212.025 52.0227 212.763 52.5909C213.508 53.1591 214.036 53.9091 214.348 54.8409Z" fill="#000918"/>
<path d="M83.8239 39V11.3636H94.7273C96.8234 11.3636 98.6091 11.764 100.085 12.5646C101.56 13.3563 102.684 14.4583 103.458 15.8707C104.241 17.2741 104.632 18.8935 104.632 20.7287C104.632 22.5639 104.236 24.1832 103.445 25.5866C102.653 26.9901 101.506 28.0831 100.004 28.8658C98.5102 29.6484 96.7019 30.0398 94.5788 30.0398H87.6293V25.3572H93.6342C94.7588 25.3572 95.6854 25.1638 96.4141 24.777C97.1518 24.3812 97.7005 23.8369 98.0604 23.1442C98.4292 22.4425 98.6136 21.6373 98.6136 20.7287C98.6136 19.8111 98.4292 19.0104 98.0604 18.3267C97.7005 17.634 97.1518 17.0987 96.4141 16.7209C95.6764 16.334 94.7408 16.1406 93.6072 16.1406H89.6669V39H83.8239ZM108.427 39V11.3636H114.27V34.1825H126.118V39H108.427ZM141.917 10.0682L133.011 43.1562H128.058L136.964 10.0682H141.917ZM159.787 19.3118C159.679 18.2232 159.215 17.3776 158.397 16.7749C157.578 16.1721 156.467 15.8707 155.064 15.8707C154.11 15.8707 153.305 16.0057 152.648 16.2756C151.992 16.5365 151.488 16.9008 151.137 17.3686C150.795 17.8364 150.624 18.3672 150.624 18.9609C150.606 19.4557 150.71 19.8875 150.934 20.2564C151.168 20.6252 151.488 20.9446 151.893 21.2145C152.297 21.4754 152.765 21.7048 153.296 21.9027C153.827 22.0916 154.394 22.2536 154.996 22.3885L157.479 22.9822C158.685 23.2521 159.791 23.612 160.799 24.0618C161.806 24.5116 162.679 25.0649 163.417 25.7216C164.154 26.3783 164.726 27.152 165.131 28.0426C165.544 28.9332 165.756 29.9543 165.765 31.1058C165.756 32.7971 165.324 34.2635 164.469 35.505C163.624 36.7375 162.4 37.6955 160.799 38.3793C159.206 39.054 157.286 39.3913 155.037 39.3913C152.806 39.3913 150.863 39.0495 149.207 38.3658C147.561 37.6821 146.274 36.67 145.348 35.3295C144.43 33.9801 143.949 32.3113 143.904 30.3232H149.558C149.621 31.2498 149.886 32.0234 150.354 32.6442C150.831 33.2559 151.465 33.7192 152.257 34.0341C153.058 34.34 153.962 34.4929 154.969 34.4929C155.959 34.4929 156.818 34.349 157.547 34.0611C158.284 33.7732 158.856 33.3729 159.26 32.8601C159.665 32.3473 159.868 31.758 159.868 31.0923C159.868 30.4716 159.683 29.9498 159.314 29.527C158.955 29.1042 158.424 28.7443 157.722 28.4474C157.029 28.1506 156.179 27.8807 155.172 27.6378L152.162 26.8821C149.832 26.3153 147.993 25.4292 146.643 24.2237C145.294 23.0182 144.624 21.3944 144.633 19.3523C144.624 17.679 145.069 16.2171 145.969 14.9666C146.877 13.7161 148.123 12.7401 149.706 12.0384C151.29 11.3366 153.089 10.9858 155.104 10.9858C157.155 10.9858 158.946 11.3366 160.475 12.0384C162.013 12.7401 163.21 13.7161 164.064 14.9666C164.919 16.2171 165.36 17.6655 165.387 19.3118H159.787ZM180.126 29.392H185.092L187.588 32.6037L190.044 35.4645L194.673 41.267H189.221L186.037 37.3537L184.404 35.0327L180.126 29.392ZM195.091 25.1818C195.091 28.1955 194.52 30.7595 193.377 32.8736C192.244 34.9877 190.697 36.6025 188.735 37.718C186.783 38.8246 184.588 39.3778 182.15 39.3778C179.694 39.3778 177.49 38.8201 175.538 37.7045C173.586 36.589 172.043 34.9742 170.909 32.8601C169.776 30.746 169.209 28.1866 169.209 25.1818C169.209 22.1681 169.776 19.6042 170.909 17.4901C172.043 15.3759 173.586 13.7656 175.538 12.6591C177.49 11.5436 179.694 10.9858 182.15 10.9858C184.588 10.9858 186.783 11.5436 188.735 12.6591C190.697 13.7656 192.244 15.3759 193.377 17.4901C194.52 19.6042 195.091 22.1681 195.091 25.1818ZM189.167 25.1818C189.167 23.2296 188.875 21.5833 188.29 20.2429C187.714 18.9025 186.9 17.8859 185.848 17.1932C184.795 16.5005 183.563 16.1541 182.15 16.1541C180.738 16.1541 179.505 16.5005 178.453 17.1932C177.4 17.8859 176.582 18.9025 175.997 20.2429C175.421 21.5833 175.133 23.2296 175.133 25.1818C175.133 27.134 175.421 28.7803 175.997 30.1207C176.582 31.4612 177.4 32.4777 178.453 33.1705C179.505 33.8632 180.738 34.2095 182.15 34.2095C183.563 34.2095 184.795 33.8632 185.848 33.1705C186.9 32.4777 187.714 31.4612 188.29 30.1207C188.875 28.7803 189.167 27.134 189.167 25.1818ZM199.42 39V11.3636H205.263V34.1825H217.111V39H199.42Z" fill="#000918"/>
</svg>
