<svg width="500" height="200" viewBox="0 0 500 200" fill="none" xmlns="http://www.w3.org/2000/svg">
<g clip-path="url(#clip0_38_1369)">
<path d="M201.021 98.4385C195.586 98.4385 191.167 100.051 187.78 103.272C184.393 106.497 182.675 110.723 182.675 115.903C182.675 118.587 183.101 121.034 183.942 123.277C184.783 125.524 186.092 127.606 187.851 129.487C189.61 131.369 193.131 133.926 198.379 137.178C204.819 141.117 209.033 144.314 211.056 146.81C213.079 149.303 214.084 151.917 214.084 154.642C214.084 158.29 212.885 161.203 210.421 163.392C207.954 165.582 204.653 166.673 200.563 166.673C196.247 166.673 192.487 165.149 189.259 162.123C186.031 159.091 184.401 155.081 184.365 150.055H182.357V168.296H184.365C184.978 166.569 185.826 165.686 186.935 165.686C187.469 165.686 188.72 166.054 190.668 166.744C195.407 168.433 199.299 169.248 202.358 169.248C207.63 169.248 212.13 167.399 215.879 163.639C219.624 159.881 221.513 155.348 221.513 150.055C221.513 145.952 220.266 142.3 217.817 139.119C215.367 135.932 210.604 132.226 203.485 127.97C197.359 124.282 193.383 121.279 191.548 118.937C189.71 116.599 188.766 114.013 188.766 111.175C188.766 108.106 189.892 105.64 192.111 103.801C194.331 101.961 197.24 101.05 200.88 101.05C204.975 101.05 208.389 102.268 211.091 104.719C213.79 107.174 215.35 110.577 215.809 114.95H217.817V99.1449H215.95C215.722 99.9504 215.511 100.465 215.316 100.697C215.127 100.927 214.764 101.05 214.225 101.05C213.575 101.05 212.418 100.776 210.773 100.238C207.252 99.0499 204.006 98.4385 201.02 98.4385H201.021ZM266.62 98.4385C259.999 98.4385 253.987 100.003 248.557 103.131C243.117 106.254 238.811 110.591 235.634 116.115C232.457 121.639 230.88 127.504 230.88 133.756C230.88 142.154 233.624 149.636 239.155 156.195C244.689 162.748 251.32 166.832 259.014 168.402C260.774 169.32 263.29 171.691 266.585 175.529C270.298 179.86 273.439 182.983 276.022 184.843C278.547 186.667 281.354 188.062 284.331 188.972C287.279 189.87 290.465 190.313 293.91 190.313C298.082 190.313 301.817 189.585 305.107 188.089L304.368 186.254C302.458 186.945 300.421 187.278 298.276 187.278C295.364 187.278 292.422 186.316 289.473 184.385C286.528 182.448 282.845 178.755 278.452 173.306C276.387 170.696 274.961 169.048 274.155 168.402C282.575 166.755 289.497 162.667 294.896 156.124C300.293 149.584 302.994 142.121 302.994 133.755C302.994 123.823 299.467 115.475 292.466 108.67C285.458 101.864 276.842 98.4385 266.62 98.4385ZM307.572 98.4385L307.678 100.591C312.086 100.591 314.555 101.892 315.107 104.507C315.313 105.443 315.407 107.17 315.424 109.658L315.389 157.253C315.352 160.808 314.847 163.077 313.875 164.062C312.901 165.04 311.256 165.653 308.875 165.897L308.769 168.049H352.714L353.841 157.253H351.833C351.26 160.194 349.946 162.301 347.855 163.498C345.757 164.703 342.049 165.297 336.693 165.297H332.537C327.717 165.297 324.929 163.551 324.192 160.04C324.041 159.345 323.988 158.601 323.981 157.782L324.156 109.658C324.156 106.109 324.603 103.731 325.53 102.566C326.466 101.406 328.155 100.757 330.6 100.591L330.495 98.4385H307.572ZM267.324 101.049C274.793 101.049 280.89 103.997 285.599 109.94C290.308 115.887 292.642 124.036 292.642 134.356C292.642 144.134 290.274 151.963 285.529 157.853C280.784 163.741 274.468 166.673 266.62 166.673C259.081 166.673 252.966 163.649 248.275 157.571C243.587 151.492 241.268 143.601 241.268 133.897C241.268 123.925 243.616 115.942 248.345 109.976C253.072 104.016 259.402 101.05 267.325 101.05L267.324 101.049ZM368.383 111.281C367.311 111.281 366.495 111.644 365.883 112.375C365.258 113.103 365.066 113.985 365.284 115.056C365.495 116.096 366.081 117.006 367.01 117.773C367.934 118.539 368.931 118.937 370.003 118.937C371.04 118.937 371.83 118.539 372.397 117.773C372.965 117.006 373.138 116.096 372.925 115.056C372.707 113.985 372.142 113.103 371.271 112.374C370.389 111.644 369.42 111.281 368.383 111.281ZM397.362 118.585C395.541 125.604 391.594 129.403 385.532 130.015L385.602 132.027H392.68L392.539 155.807C392.55 159.872 392.674 162.579 392.961 163.957C393.659 167.254 395.808 168.932 399.405 168.932C404.61 168.932 410.069 165.755 415.778 159.405L414.054 157.924C409.931 162.105 406.286 164.204 403.102 164.204C401.146 164.204 399.933 163.076 399.475 160.852C399.35 160.311 399.3 159.68 399.3 158.946L399.37 132.027H410.18L410.074 128.816H399.405V118.585H397.362ZM439.159 127.546C433.112 127.546 428.194 130.487 424.37 136.331C420.566 142.185 419.389 148.67 420.884 155.807C421.765 159.986 423.518 163.226 426.201 165.509C428.88 167.792 432.279 168.932 436.343 168.932C440.125 168.932 445.393 167.971 447.61 166.038C449.833 164.106 451.88 160.975 453.772 156.689L452.259 155.1C449.241 160.663 443.153 163.463 438.561 163.463C432.248 163.463 428.382 159.992 426.941 153.09C426.747 152.157 426.606 151.215 426.518 150.267C434.029 149.076 439.72 146.966 443.561 143.917C447.399 140.865 451.253 137.631 450.533 134.214C450.105 132.184 449.053 130.587 447.434 129.381C445.795 128.175 441.539 127.546 439.159 127.546ZM373.067 127.793L360.038 130.792V133.121L364.545 132.556C366.728 132.556 368.013 133.546 368.418 135.519C368.555 136.18 368.642 137.108 368.665 138.272L368.524 159.617C368.488 162.57 368.16 164.287 367.503 164.803C366.839 165.319 365.09 165.58 362.256 165.58L362.186 167.59H382.855L382.82 165.579C379.948 165.579 378.086 165.352 377.257 164.908C376.441 164.469 375.879 163.667 375.637 162.439C375.45 161.555 375.368 160.03 375.355 157.924L375.426 127.793H373.066H373.067ZM435.85 131.744C437.108 131.744 438.323 132.231 439.546 133.191C440.754 134.147 441.489 135.21 441.73 136.366C442.909 142.042 437.888 145.964 426.588 148.15C426.267 144.013 426.982 140.255 428.807 136.86C430.619 133.468 432.978 131.744 435.85 131.744Z" fill="#003B57"/>
<path d="M171.837 16.9443H59.7145C52.1994 16.9443 46.0515 23.1052 46.0515 30.6342V154.528C46.0515 162.057 52.1994 168.218 59.7145 168.218H133.561C132.722 131.402 145.27 59.9522 171.837 16.9443Z" fill="#0F80CC"/>
<path d="M167.763 20.938H59.7146C54.3785 20.938 50.0366 25.2876 50.0366 30.6351V145.489C74.5073 136.079 111.235 127.96 136.629 128.328C141.733 101.592 156.731 49.1951 167.763 20.938Z" fill="url(#paint0_linear_38_1369)"/>
<path d="M197.989 12.8891C190.31 6.02819 181.012 8.78373 171.837 16.9442C170.474 18.1559 169.115 19.501 167.763 20.9378C152.066 37.6235 137.495 68.5292 132.968 92.1333C134.732 95.7167 136.109 100.289 137.016 103.782C137.248 104.678 137.458 105.519 137.626 106.234C138.024 107.928 138.239 109.026 138.239 109.026C138.239 109.026 138.098 108.493 137.52 106.815C137.41 106.493 137.287 106.142 137.142 105.728C137.067 105.526 136.986 105.326 136.9 105.128C135.877 102.743 133.044 97.7091 131.798 95.5171C130.809 98.4213 129.877 101.344 129 104.284C132.599 110.882 134.792 122.188 134.792 122.188C134.792 122.188 134.602 121.455 133.698 118.898C132.895 116.636 128.896 109.616 127.949 107.975C126.328 113.969 125.685 118.015 126.265 119C127.393 120.909 128.466 124.203 129.409 127.845C131.539 136.051 133.018 146.042 133.018 146.042C133.018 146.042 133.066 146.705 133.147 147.723C132.851 154.614 133.028 161.76 133.561 168.217C134.266 176.767 135.594 184.11 137.287 188.041L138.437 187.414C135.951 179.67 134.941 169.522 135.383 157.818C136.053 139.929 140.161 118.355 147.753 95.8691C160.579 61.9253 178.373 34.6908 194.66 21.6842C179.815 35.1171 159.725 78.5967 153.711 94.6973C146.977 112.728 142.204 129.648 139.329 145.858C144.291 130.661 160.335 124.129 160.335 124.129C160.335 124.129 168.204 114.404 177.4 100.512C171.892 101.771 162.846 103.926 159.817 105.201C155.347 107.08 154.143 107.721 154.143 107.721C154.143 107.721 168.619 98.8873 181.039 94.8881C198.12 67.9329 216.729 29.6395 197.989 12.8891Z" fill="#003B57"/>
</g>
<defs>
<linearGradient id="paint0_linear_38_1369" x1="6838.4" y1="275.769" x2="6838.4" y2="11783.4" gradientUnits="userSpaceOnUse">
<stop stop-color="#97D9F6"/>
<stop offset="0.92024" stop-color="#0F80CC"/>
<stop offset="1" stop-color="#0F80CC"/>
</linearGradient>
<clipPath id="clip0_38_1369">
<rect width="408" height="182" fill="white" transform="translate(46 9)"/>
</clipPath>
</defs>
</svg>
