<svg width="205" height="85" viewBox="0 0 205 85" fill="none" xmlns="http://www.w3.org/2000/svg">
<g clip-path="url(#clip0_427_27)">
<path fill-rule="evenodd" clip-rule="evenodd" d="M10.9879 61.1223C10.1459 62.3317 8.93311 65.225 8.93311 65.225L21.0971 61.6469C21.0971 61.6469 20.0968 59.6504 19.7281 57.4417C19.3592 55.2332 19.7802 53.4972 19.7802 53.4972L22.2017 52.4978C22.2017 52.4978 21.8908 54.4983 21.8908 56.5506C21.8908 58.601 23.0959 60.5454 23.0959 60.5454C23.0959 60.5454 25.3071 56.9692 26.7301 54.4443C28.1516 51.9192 29.3643 49.1318 29.3643 49.1318L31.1525 48.395C31.1525 48.395 29.8355 52.1296 28.7829 54.3902C27.7306 56.653 25.4131 60.3854 25.4131 60.3854C25.4131 60.3854 29.2039 59.28 31.5214 58.6281C33.8386 57.9761 36.8916 56.3346 36.8916 56.3346C36.8916 56.3346 34.3639 53.8095 33.4679 52.39C32.5717 50.9701 31.5735 48.1809 31.5735 48.1809L32.68 47.7084C32.68 47.7084 33.7324 50.3915 34.9972 52.0215C36.2603 53.6514 37.9983 55.2834 37.9983 55.2834C37.9983 55.2834 38.9464 52.496 39.2612 49.8649C39.5779 47.2358 39.3674 44.921 39.3674 44.921L40.7887 44.2901C40.7887 44.2901 40.8949 47.3418 40.6844 49.971C40.4739 52.6002 39.7361 55.4414 39.7361 55.4414L49.2141 50.1812L41.3158 44.2903L42.3683 43.8698L49.9517 49.2341L49.635 41.3447L51.4251 40.6079C51.4251 40.6079 52.6882 45.9724 51.4251 58.6281C50.1623 71.2839 42.9998 82.6821 42.9998 82.6821C42.9998 82.6821 10.7736 82.6821 6.88431 68.4851C5.60201 63.8093 13.2434 57.5999 13.2434 57.5999C13.2434 57.5999 11.8317 59.9127 10.9879 61.1223ZM11.04 70.5374C12.3029 72.1152 14.0409 73.535 14.0409 73.535L21.2555 63.3308L9.09149 66.2243C9.09348 66.2243 9.77713 68.9596 11.04 70.5374ZM22.8371 64.0156L14.8326 74.1676L29.3681 69.434C29.3681 69.434 26.9968 68.2246 25.6816 67.0152C24.3628 65.8038 22.8371 64.0156 22.8371 64.0156ZM20.2031 77.2693C22.3098 78.1645 24.942 79.0055 24.942 79.0055L30.2082 71.01L15.7789 74.7444C15.7789 74.7444 18.0962 76.3763 20.2031 77.2693ZM32.6297 70.7475L26.2514 79.2157C26.2514 79.2157 31.8399 78.0584 35.1055 77.1113C38.369 76.1641 45.0043 73.9033 45.0043 73.9033C45.0043 73.9033 39.5276 73.3248 37.3165 72.6418C35.1055 71.9571 32.6297 70.7475 32.6297 70.7475ZM35.8431 81.056C39.0024 81.4243 42.5827 81.7406 42.5827 81.7406C42.5827 81.7406 43.3724 79.6901 43.7934 78.585C44.2144 77.4796 45.2688 74.5882 45.2688 74.5882C45.2688 74.5882 38.844 77.0611 36.3182 77.7979C33.7903 78.5348 28.1554 79.7443 28.1554 79.7443C28.1554 79.7443 32.6838 80.6894 35.8431 81.056ZM27.8386 66.0139C29.2599 67.0653 31.4189 68.433 31.4189 68.433C31.4189 68.433 34.0511 64.5924 34.7887 62.9103C35.5265 61.2264 36.9477 58.387 36.9477 58.387C36.9477 58.387 32.9986 59.8511 30.9458 60.4393C28.893 61.0258 24.3105 62.4898 24.3105 62.4898C24.3105 62.4898 26.4174 64.9627 27.8386 66.0139ZM39.1066 57.8083C39.1066 57.8083 37.7896 61.2264 36.9477 62.8042C36.1057 64.384 34.3677 67.9603 34.3677 67.9603C34.3677 67.9603 38.8961 66.1722 40.8968 65.225C42.8974 64.2779 48.6367 61.7993 48.6367 61.7993C48.6367 61.7993 45.6878 61.1221 43.3706 60.017C41.0551 58.9136 39.1066 57.8083 39.1066 57.8083ZM40.107 56.6508C40.107 56.6508 42.3721 58.1227 43.9518 58.9136C45.5314 59.7025 49.2701 60.8155 49.2701 60.8155C49.2701 60.8155 49.7432 57.3878 49.8493 55.916C49.9556 54.4423 49.8493 50.9721 49.8493 50.9721C49.8493 50.9721 46.9005 52.8663 45.6377 53.5492C44.3728 54.232 40.107 56.6508 40.107 56.6508ZM49.0055 62.5959C49.0055 62.5959 43.7394 65.279 41.5012 66.2782C39.2632 67.2775 33.8927 69.5381 33.8927 69.5381C33.8927 69.5381 36.1037 71.0118 38.6316 71.6427C41.1594 72.2734 45.8983 72.7479 45.8983 72.7479C45.8983 72.7479 47.1806 69.328 47.6556 67.5398C48.1307 65.7516 49.0055 62.5959 49.0055 62.5959Z" fill="url(#paint0_linear_427_27)"/>
<path fill-rule="evenodd" clip-rule="evenodd" d="M19.8027 10.8212C19.8027 10.8212 22.6549 8.00273 26.664 6.23998C31.1345 4.27436 37.0435 2.31836 37.0435 2.31836C37.0435 2.31836 38.8974 6.7377 39.9575 9.34746C41.0177 11.9572 43.8951 16.7219 43.8951 16.7219L41.6994 16.3804L39.2005 11.6157L33.8262 15.7379L31.8488 15.2847L38.6327 10.9351C38.6327 10.9351 33.7492 10.3676 31.5168 10.0281C29.2826 9.68862 25.347 8.59109 25.347 8.59109L31.5168 14.9433L28.5255 14.6404L24.6653 8.77836C24.6653 8.77836 23.4544 9.53456 22.6589 10.4412C21.8632 11.3496 21.562 12.8235 21.562 12.8235L19.8027 10.8212ZM26.2508 7.87158L38.7083 9.87572C38.7083 9.87572 37.762 7.64397 37.3835 6.47307C37.0051 5.30033 36.7018 3.22082 36.7018 3.22082C36.7018 3.22082 34.2029 3.97735 31.6289 5.03637C29.0546 6.09555 26.2508 7.87191 26.2508 7.87191V7.87158Z" fill="url(#paint1_linear_427_27)"/>
<path fill-rule="evenodd" clip-rule="evenodd" d="M26.9024 43.3986C29.944 39.1551 30.7086 34.6335 31.1084 31.4065C32.2478 22.215 21.1187 13.8126 20.1552 12.6744C19.1913 11.5364 19.8056 10.6606 19.8056 10.6606C19.8056 10.6606 20.5066 12.3235 25.8037 13.2126C32.4272 14.3238 51.9276 17.2596 60.7296 19.9389C75.1009 24.3156 80.5349 34.9074 80.5349 34.9074C80.5349 34.9074 73.2528 36.117 64.3542 38.2176C55.5735 40.2911 45.2209 43.2405 38.7362 45.9353C34.6789 47.6212 30.0037 49.419 26.2554 51.1877C17.944 55.1093 12.0078 58.6277 12.0078 58.6277C12.0078 58.6277 21.2791 51.2417 26.9024 43.3986ZM23.4845 13.9881C23.4845 13.9881 25.2515 15.6507 26.252 16.7888C27.252 17.927 29.5308 21.077 29.5308 21.077C29.5308 21.077 29.048 18.5288 28.4782 16.8758C28.0824 15.7261 27.7773 15.213 27.7773 15.213L23.4845 13.9881ZM29.5308 15.6507L31.3712 22.217L37.8558 17.0531L29.5308 15.6507ZM39.171 17.6338L32.748 23.2624L40.231 25.4692C40.231 25.4692 40.4104 22.8344 40.0957 21.079C39.7791 19.3237 39.1708 17.634 39.1708 17.634L39.171 17.6338ZM40.7506 17.9057C40.7506 17.9057 41.3376 19.7053 41.494 21.079C41.6524 22.4522 41.6524 25.4691 41.6524 25.4691L50.9371 19.8192C50.9371 19.8192 47.579 18.9184 45.281 18.4903C42.981 18.062 40.7506 17.9057 40.7506 17.9057ZM52.7852 20.3805L42.9808 26.2562C42.9808 26.2562 44.6706 27.2013 46.001 27.944C47.3296 28.6866 48.8629 29.6762 48.8629 29.6762C48.8629 29.6762 50.3499 27.7858 51.1629 25.8936C51.9739 24.005 52.7852 20.3805 52.7852 20.3805ZM54.025 20.3805C54.025 20.3805 53.687 22.9461 53.0555 24.8829C52.424 26.8194 51.5685 29.2267 51.5685 29.2267C51.5685 29.2267 56.0083 27.155 57.9682 26.6612C59.9284 26.1655 66.0808 24.5009 66.0808 24.5009C66.0808 24.5009 62.2939 22.9249 60.0635 22.2054C57.8351 21.4839 54.025 20.3805 54.025 20.3805ZM67.0519 25.4692C67.0519 25.4692 60.9902 27.2921 58.5996 28.1022C56.2108 28.9124 51.8155 31.096 51.8155 31.096C51.8155 31.096 53.4842 32.3788 54.6775 33.6614C55.871 34.9442 57.6746 37.421 57.6746 37.421C57.6746 37.421 61.4828 32.9632 63.2651 30.6003C65.0456 28.2374 67.0519 25.4692 67.0519 25.4692ZM68.2029 25.6024C68.2029 25.6024 66.9631 28.5518 65.453 30.8028C63.943 33.0538 59.4338 37.5348 59.4338 37.5348C59.4338 37.5348 65.8799 36.0263 70.3425 35.2607C74.8054 34.4948 78.9284 34.3154 78.9284 34.3154C78.9284 34.3154 76.3812 31.4104 74.1275 29.5876C71.8759 27.7647 68.2029 25.6024 68.2029 25.6024ZM32.1261 25.4692C32.1261 25.4692 32.5006 26.9893 32.5838 29.2288C32.6455 30.8955 32.2921 33.3606 32.2921 33.3606L38.8637 27.2825C38.8637 27.2825 37.031 26.5978 35.4939 26.1406C33.9567 25.6816 32.1261 25.4692 32.1261 25.4692ZM39.5511 28.8179L32.7478 34.6453C32.7478 34.6453 33.8583 35.222 34.5129 35.8759C35.1675 36.5299 35.9845 37.421 35.9845 37.421C35.9845 37.421 37.7842 34.9037 38.3075 33.1194C38.8308 31.3332 39.5511 28.8179 39.5511 28.8179ZM41.2525 28.2625C41.2525 28.2625 40.9898 30.039 40.4994 31.5687C40.0088 33.0983 38.8637 35.7776 38.8637 35.7776L46.65 31.2021L41.2525 28.2625ZM46.2675 33.4918L36.9981 38.59C36.9981 38.59 37.62 40.027 37.9464 40.9432C38.2728 41.8595 38.7303 43.2967 38.7303 43.2967C38.7303 43.2967 41.5113 40.3877 43.114 38.2639C44.7207 36.1382 46.2675 33.4918 46.2675 33.4918ZM49.4307 32.8378C49.4307 32.8378 46.9435 36.2694 45.4063 37.9689C43.869 39.6682 40.6306 43.2947 40.6306 43.2947L56.1374 38.2292C56.1374 38.2292 54.7316 36.661 53.1269 35.3531C51.524 34.0473 49.4307 32.8378 49.4307 32.8378ZM30.4248 39.4715C29.7373 40.7465 28.4937 42.7719 28.4937 42.7719L34.1865 38.7211C34.1865 38.7211 33.5319 37.8069 32.9429 37.423C32.3539 37.041 31.6008 36.7595 31.6008 36.7595C31.6008 36.7595 31.1102 38.1965 30.4248 39.4715ZM33.1399 41.1708L27.3852 44.6681L23.5539 49.4384C23.5539 49.4384 27.1514 47.085 28.9185 45.4841C30.6854 43.883 33.1399 41.1708 33.1399 41.1708ZM35.4939 40.2875C35.4939 40.2875 33.499 42.8683 31.9599 44.3401C30.4228 45.812 25.908 49.4384 25.908 49.4384C25.908 49.4384 31.9272 46.7591 33.1379 46.1379C34.3487 45.5168 37.2609 44.2745 37.2609 44.2745C37.2609 44.2745 36.8688 42.5096 36.5077 41.8885C36.1485 41.2693 35.4939 40.2875 35.4939 40.2875Z" fill="url(#paint2_radial_427_27)"/>
</g>
<path d="M101.921 64H100.16C100.055 63.4934 99.8732 63.0483 99.6127 62.6648C99.3571 62.2812 99.0446 61.9593 98.6752 61.6989C98.3107 61.4337 97.9058 61.2348 97.4608 61.1023C97.0157 60.9697 96.5517 60.9034 96.0687 60.9034C95.188 60.9034 94.3902 61.1259 93.6752 61.571C92.965 62.0161 92.3992 62.6719 91.9778 63.5384C91.5611 64.4048 91.3528 65.4678 91.3528 66.7273C91.3528 67.9867 91.5611 69.0497 91.9778 69.9162C92.3992 70.7827 92.965 71.4384 93.6752 71.8835C94.3902 72.3286 95.188 72.5511 96.0687 72.5511C96.5517 72.5511 97.0157 72.4848 97.4608 72.3523C97.9058 72.2197 98.3107 72.0232 98.6752 71.7628C99.0446 71.4976 99.3571 71.1733 99.6127 70.7898C99.8732 70.4015 100.055 69.9564 100.16 69.4545H101.921C101.788 70.1979 101.547 70.8632 101.197 71.4503C100.846 72.0374 100.411 72.5369 99.8897 72.9489C99.3689 73.3561 98.7842 73.6662 98.1355 73.8793C97.4915 74.0923 96.8026 74.1989 96.0687 74.1989C94.8282 74.1989 93.725 73.8958 92.7591 73.2898C91.7931 72.6837 91.0332 71.822 90.4792 70.7045C89.9252 69.5871 89.6483 68.2614 89.6483 66.7273C89.6483 65.1932 89.9252 63.8674 90.4792 62.75C91.0332 61.6326 91.7931 60.7708 92.7591 60.1648C93.725 59.5587 94.8282 59.2557 96.0687 59.2557C96.8026 59.2557 97.4915 59.3622 98.1355 59.5753C98.7842 59.7884 99.3689 60.1009 99.8897 60.5128C100.411 60.92 100.846 61.4171 101.197 62.0043C101.547 62.5866 101.788 63.2519 101.921 64ZM109.972 74.2273C108.987 74.2273 108.123 73.9929 107.379 73.5241C106.641 73.0554 106.063 72.3996 105.646 71.5568C105.235 70.714 105.029 69.7292 105.029 68.6023C105.029 67.4659 105.235 66.474 105.646 65.6264C106.063 64.7789 106.641 64.1207 107.379 63.652C108.123 63.1832 108.987 62.9489 109.972 62.9489C110.957 62.9489 111.818 63.1832 112.557 63.652C113.3 64.1207 113.878 64.7789 114.29 65.6264C114.707 66.474 114.915 67.4659 114.915 68.6023C114.915 69.7292 114.707 70.714 114.29 71.5568C113.878 72.3996 113.3 73.0554 112.557 73.5241C111.818 73.9929 110.957 74.2273 109.972 74.2273ZM109.972 72.7216C110.72 72.7216 111.335 72.5298 111.818 72.1463C112.301 71.7628 112.659 71.2585 112.891 70.6335C113.123 70.0085 113.239 69.3314 113.239 68.6023C113.239 67.8731 113.123 67.1937 112.891 66.5639C112.659 65.9342 112.301 65.4252 111.818 65.0369C111.335 64.6487 110.72 64.4545 109.972 64.4545C109.224 64.4545 108.608 64.6487 108.125 65.0369C107.642 65.4252 107.285 65.9342 107.053 66.5639C106.821 67.1937 106.705 67.8731 106.705 68.6023C106.705 69.3314 106.821 70.0085 107.053 70.6335C107.285 71.2585 107.642 71.7628 108.125 72.1463C108.608 72.5298 109.224 72.7216 109.972 72.7216ZM118.474 74V63.0909H120.093V64.7955H120.235C120.462 64.2131 120.829 63.7609 121.336 63.4389C121.842 63.1122 122.451 62.9489 123.161 62.9489C123.881 62.9489 124.48 63.1122 124.958 63.4389C125.441 63.7609 125.817 64.2131 126.087 64.7955H126.201C126.48 64.232 126.899 63.7846 127.458 63.4531C128.017 63.117 128.687 62.9489 129.468 62.9489C130.443 62.9489 131.241 63.2543 131.861 63.8651C132.482 64.4711 132.792 65.4157 132.792 66.6989V74H131.116V66.6989C131.116 65.8939 130.895 65.3187 130.455 64.973C130.015 64.6274 129.496 64.4545 128.9 64.4545C128.133 64.4545 127.538 64.6866 127.117 65.1506C126.696 65.6098 126.485 66.1922 126.485 66.8977V74H124.78V66.5284C124.78 65.9081 124.579 65.4086 124.177 65.0298C123.774 64.6463 123.256 64.4545 122.621 64.4545C122.186 64.4545 121.778 64.5705 121.4 64.8026C121.026 65.0346 120.723 65.3565 120.491 65.7685C120.263 66.1757 120.15 66.6468 120.15 67.1818V74H118.474ZM136.856 74V63.0909H138.476V64.7955H138.618C138.845 64.2131 139.212 63.7609 139.719 63.4389C140.225 63.1122 140.834 62.9489 141.544 62.9489C142.264 62.9489 142.863 63.1122 143.341 63.4389C143.824 63.7609 144.2 64.2131 144.47 64.7955H144.584C144.863 64.232 145.282 63.7846 145.841 63.4531C146.399 63.117 147.069 62.9489 147.851 62.9489C148.826 62.9489 149.624 63.2543 150.244 63.8651C150.864 64.4711 151.175 65.4157 151.175 66.6989V74H149.498V66.6989C149.498 65.8939 149.278 65.3187 148.838 64.973C148.398 64.6274 147.879 64.4545 147.282 64.4545C146.515 64.4545 145.921 64.6866 145.5 65.1506C145.078 65.6098 144.868 66.1922 144.868 66.8977V74H143.163V66.5284C143.163 65.9081 142.962 65.4086 142.559 65.0298C142.157 64.6463 141.639 64.4545 141.004 64.4545C140.568 64.4545 140.161 64.5705 139.782 64.8026C139.408 65.0346 139.105 65.3565 138.873 65.7685C138.646 66.1757 138.532 66.6468 138.532 67.1818V74H136.856ZM158.449 74.2557C157.758 74.2557 157.131 74.1255 156.567 73.8651C156.004 73.5999 155.556 73.2188 155.225 72.7216C154.894 72.2197 154.728 71.6136 154.728 70.9034C154.728 70.2784 154.851 69.7718 155.097 69.3835C155.343 68.9905 155.672 68.6828 156.084 68.4602C156.496 68.2377 156.951 68.072 157.448 67.9631C157.95 67.8494 158.454 67.7595 158.961 67.6932C159.624 67.608 160.161 67.544 160.573 67.5014C160.99 67.4541 161.293 67.3759 161.482 67.267C161.676 67.1581 161.773 66.9687 161.773 66.6989V66.642C161.773 65.9413 161.581 65.3968 161.198 65.0085C160.819 64.6203 160.244 64.4261 159.472 64.4261C158.672 64.4261 158.045 64.6013 157.59 64.9517C157.135 65.3021 156.816 65.6761 156.631 66.0739L155.04 65.5057C155.324 64.8428 155.703 64.3267 156.177 63.9574C156.655 63.5833 157.176 63.3229 157.739 63.1761C158.307 63.0246 158.866 62.9489 159.415 62.9489C159.766 62.9489 160.168 62.9915 160.623 63.0767C161.082 63.1572 161.525 63.3253 161.951 63.581C162.382 63.8366 162.739 64.2225 163.023 64.7386C163.307 65.2547 163.449 65.946 163.449 66.8125V74H161.773V72.5227H161.688C161.574 72.7595 161.385 73.0128 161.12 73.2827C160.855 73.5526 160.502 73.7822 160.062 73.9716C159.621 74.161 159.084 74.2557 158.449 74.2557ZM158.705 72.75C159.368 72.75 159.927 72.6198 160.381 72.3594C160.84 72.099 161.186 71.7628 161.418 71.3509C161.655 70.9389 161.773 70.5057 161.773 70.0511V68.517C161.702 68.6023 161.546 68.6804 161.305 68.7514C161.068 68.8177 160.793 68.8769 160.481 68.929C160.173 68.9763 159.872 69.0189 159.579 69.0568C159.29 69.09 159.055 69.1184 158.876 69.142C158.44 69.1989 158.033 69.2912 157.654 69.419C157.28 69.5421 156.977 69.7292 156.745 69.9801C156.518 70.2263 156.404 70.5625 156.404 70.9886C156.404 71.571 156.619 72.0114 157.05 72.3097C157.486 72.6032 158.037 72.75 158.705 72.75ZM169.185 67.4375V74H167.509V63.0909H169.128V64.7955H169.27C169.526 64.2415 169.914 63.7964 170.435 63.4602C170.956 63.1193 171.628 62.9489 172.452 62.9489C173.191 62.9489 173.837 63.1004 174.391 63.4034C174.945 63.7017 175.376 64.1562 175.683 64.767C175.991 65.3731 176.145 66.1402 176.145 67.0682V74H174.469V67.1818C174.469 66.3248 174.246 65.6572 173.801 65.179C173.356 64.696 172.745 64.4545 171.969 64.4545C171.434 64.4545 170.956 64.5705 170.534 64.8026C170.118 65.0346 169.789 65.3731 169.547 65.8182C169.306 66.2633 169.185 66.803 169.185 67.4375ZM184.327 74.2273C183.418 74.2273 182.616 73.9976 181.92 73.5384C181.224 73.0743 180.679 72.4209 180.286 71.5781C179.893 70.7306 179.697 69.7292 179.697 68.5739C179.697 67.428 179.893 66.4337 180.286 65.5909C180.679 64.7481 181.226 64.0971 181.927 63.6378C182.627 63.1785 183.437 62.9489 184.356 62.9489C185.066 62.9489 185.627 63.0672 186.039 63.304C186.456 63.536 186.773 63.8011 186.991 64.0994C187.213 64.393 187.386 64.6345 187.509 64.8239H187.651V59.4545H189.327V74H187.708V72.3239H187.509C187.386 72.5227 187.211 72.7737 186.983 73.0767C186.756 73.375 186.432 73.6425 186.01 73.8793C185.589 74.1113 185.028 74.2273 184.327 74.2273ZM184.555 72.7216C185.227 72.7216 185.795 72.5464 186.259 72.196C186.723 71.8409 187.076 71.3509 187.317 70.7259C187.559 70.0961 187.68 69.3693 187.68 68.5455C187.68 67.7311 187.561 67.0185 187.324 66.4077C187.088 65.7921 186.737 65.3139 186.273 64.973C185.809 64.6274 185.236 64.4545 184.555 64.4545C183.844 64.4545 183.252 64.6368 182.779 65.0014C182.31 65.3613 181.957 65.8513 181.721 66.4716C181.489 67.0871 181.373 67.7784 181.373 68.5455C181.373 69.322 181.491 70.0275 181.728 70.6619C181.969 71.2917 182.324 71.7936 182.793 72.1676C183.267 72.5369 183.854 72.7216 184.555 72.7216ZM201.357 65.5341L199.851 65.9602C199.757 65.7093 199.617 65.4654 199.432 65.2287C199.252 64.9872 199.006 64.7884 198.694 64.6321C198.381 64.4759 197.981 64.3977 197.493 64.3977C196.826 64.3977 196.269 64.5516 195.824 64.8594C195.384 65.1624 195.164 65.5483 195.164 66.017C195.164 66.4337 195.315 66.7628 195.618 67.0043C195.921 67.2457 196.395 67.447 197.039 67.608L198.658 68.0057C199.634 68.2424 200.36 68.6046 200.839 69.0923C201.317 69.5753 201.556 70.1979 201.556 70.9602C201.556 71.5852 201.376 72.1439 201.016 72.6364C200.661 73.1288 200.164 73.517 199.525 73.8011C198.885 74.0852 198.142 74.2273 197.295 74.2273C196.182 74.2273 195.261 73.9858 194.532 73.5028C193.803 73.0199 193.341 72.3144 193.147 71.3864L194.738 70.9886C194.889 71.5758 195.176 72.0161 195.597 72.3097C196.023 72.6032 196.58 72.75 197.266 72.75C198.047 72.75 198.668 72.5843 199.127 72.2528C199.591 71.9167 199.823 71.5142 199.823 71.0455C199.823 70.6667 199.69 70.3494 199.425 70.0938C199.16 69.8333 198.753 69.6392 198.204 69.5114L196.385 69.0852C195.386 68.8485 194.653 68.4815 194.184 67.9844C193.72 67.4825 193.488 66.8551 193.488 66.1023C193.488 65.4867 193.661 64.9422 194.006 64.4688C194.357 63.9953 194.832 63.6236 195.434 63.3537C196.04 63.0838 196.726 62.9489 197.493 62.9489C198.573 62.9489 199.421 63.1856 200.036 63.6591C200.656 64.1326 201.097 64.7576 201.357 65.5341Z" fill="#000918"/>
<path d="M87.7342 29.1811V24.3636H110.432V29.1811H101.971V52H96.1951V29.1811H87.7342ZM125.825 35.9013V40.4624H113.222V35.9013H125.825ZM145.824 32.3118C145.716 31.2232 145.253 30.3776 144.434 29.7749C143.615 29.1721 142.504 28.8707 141.101 28.8707C140.147 28.8707 139.342 29.0057 138.685 29.2756C138.029 29.5365 137.525 29.9008 137.174 30.3686C136.832 30.8364 136.661 31.3672 136.661 31.9609C136.643 32.4557 136.747 32.8875 136.972 33.2564C137.205 33.6252 137.525 33.9446 137.93 34.2145C138.335 34.4754 138.802 34.7048 139.333 34.9027C139.864 35.0916 140.431 35.2536 141.033 35.3885L143.516 35.9822C144.722 36.2521 145.828 36.612 146.836 37.0618C147.844 37.5116 148.716 38.0649 149.454 38.7216C150.192 39.3783 150.763 40.152 151.168 41.0426C151.581 41.9332 151.793 42.9543 151.802 44.1058C151.793 45.7971 151.361 47.2635 150.506 48.505C149.661 49.7375 148.437 50.6955 146.836 51.3793C145.244 52.054 143.323 52.3913 141.074 52.3913C138.843 52.3913 136.9 52.0495 135.244 51.3658C133.598 50.6821 132.312 49.67 131.385 48.3295C130.467 46.9801 129.986 45.3113 129.941 43.3232H135.595C135.658 44.2498 135.924 45.0234 136.391 45.6442C136.868 46.2559 137.502 46.7192 138.294 47.0341C139.095 47.34 139.999 47.4929 141.006 47.4929C141.996 47.4929 142.855 47.349 143.584 47.0611C144.321 46.7732 144.893 46.3729 145.298 45.8601C145.702 45.3473 145.905 44.758 145.905 44.0923C145.905 43.4716 145.72 42.9498 145.352 42.527C144.992 42.1042 144.461 41.7443 143.759 41.4474C143.067 41.1506 142.216 40.8807 141.209 40.6378L138.2 39.8821C135.87 39.3153 134.03 38.4292 132.68 37.2237C131.331 36.0182 130.661 34.3944 130.67 32.3523C130.661 30.679 131.106 29.2171 132.006 27.9666C132.914 26.7161 134.16 25.7401 135.744 25.0384C137.327 24.3366 139.126 23.9858 141.141 23.9858C143.192 23.9858 144.983 24.3366 146.512 25.0384C148.05 25.7401 149.247 26.7161 150.102 27.9666C150.956 29.2171 151.397 30.6655 151.424 32.3118H145.824ZM166.163 42.392H171.129L173.626 45.6037L176.081 48.4645L180.71 54.267H175.258L172.074 50.3537L170.441 48.0327L166.163 42.392ZM181.128 38.1818C181.128 41.1955 180.557 43.7595 179.415 45.8736C178.281 47.9877 176.734 49.6025 174.773 50.718C172.82 51.8246 170.625 52.3778 168.187 52.3778C165.731 52.3778 163.527 51.8201 161.575 50.7045C159.623 49.589 158.08 47.9742 156.947 45.8601C155.813 43.746 155.246 41.1866 155.246 38.1818C155.246 35.1681 155.813 32.6042 156.947 30.4901C158.08 28.3759 159.623 26.7656 161.575 25.6591C163.527 24.5436 165.731 23.9858 168.187 23.9858C170.625 23.9858 172.82 24.5436 174.773 25.6591C176.734 26.7656 178.281 28.3759 179.415 30.4901C180.557 32.6042 181.128 35.1681 181.128 38.1818ZM175.204 38.1818C175.204 36.2296 174.912 34.5833 174.327 33.2429C173.751 31.9025 172.937 30.8859 171.885 30.1932C170.832 29.5005 169.6 29.1541 168.187 29.1541C166.775 29.1541 165.542 29.5005 164.49 30.1932C163.437 30.8859 162.619 31.9025 162.034 33.2429C161.458 34.5833 161.17 36.2296 161.17 38.1818C161.17 40.134 161.458 41.7803 162.034 43.1207C162.619 44.4612 163.437 45.4777 164.49 46.1705C165.542 46.8632 166.775 47.2095 168.187 47.2095C169.6 47.2095 170.832 46.8632 171.885 46.1705C172.937 45.4777 173.751 44.4612 174.327 43.1207C174.912 41.7803 175.204 40.134 175.204 38.1818ZM185.457 52V24.3636H191.3V47.1825H203.148V52H185.457Z" fill="#000918"/>
<defs>
<linearGradient id="paint0_linear_427_27" x1="6.73926" y1="61.645" x2="51.9865" y2="61.645" gradientUnits="userSpaceOnUse">
<stop stop-color="#706F70"/>
<stop offset="1" stop-color="#D9D9D9"/>
</linearGradient>
<linearGradient id="paint1_linear_427_27" x1="19.8027" y1="9.52012" x2="43.8951" y2="9.52012" gradientUnits="userSpaceOnUse">
<stop stop-color="#706F70"/>
<stop offset="1" stop-color="#D9D9D9"/>
</linearGradient>
<radialGradient id="paint2_radial_427_27" cx="0" cy="0" r="1" gradientUnits="userSpaceOnUse" gradientTransform="translate(2137.59 2016.55) scale(2789.52 2789.52)">
<stop stop-color="#E82323"/>
<stop offset="0.0744" stop-color="#E91A24"/>
<stop offset="0.2677" stop-color="#C31B24"/>
<stop offset="0.3685" stop-color="#A62022"/>
<stop offset="1" stop-color="#A51E2C"/>
</radialGradient>
<clipPath id="clip0_427_27">
<rect width="86.1372" height="85" fill="white"/>
</clipPath>
</defs>
</svg>
