<svg width="88" height="115" viewBox="0 0 88 115" fill="none" xmlns="http://www.w3.org/2000/svg">
<path d="M7.98011 111H6.50284L10.7756 99.3636H12.2301L16.5028 111H15.0256L11.5483 101.205H11.4574L7.98011 111ZM8.52557 106.455H14.4801V107.705H8.52557V106.455ZM21.429 111.182C20.7017 111.182 20.0597 110.998 19.5028 110.631C18.946 110.259 18.5104 109.737 18.196 109.062C17.8816 108.384 17.7244 107.583 17.7244 106.659C17.7244 105.742 17.8816 104.947 18.196 104.273C18.5104 103.598 18.9479 103.078 19.5085 102.71C20.0691 102.343 20.7169 102.159 21.4517 102.159C22.0199 102.159 22.4688 102.254 22.7983 102.443C23.1316 102.629 23.3854 102.841 23.5597 103.08C23.7377 103.314 23.8759 103.508 23.9744 103.659H24.0881V99.3636H25.429V111H24.1335V109.659H23.9744C23.8759 109.818 23.7358 110.019 23.554 110.261C23.3722 110.5 23.1127 110.714 22.7756 110.903C22.4384 111.089 21.9896 111.182 21.429 111.182ZM21.6108 109.977C22.1487 109.977 22.6032 109.837 22.9744 109.557C23.3456 109.273 23.6278 108.881 23.821 108.381C24.0142 107.877 24.1108 107.295 24.1108 106.636C24.1108 105.985 24.0161 105.415 23.8267 104.926C23.6373 104.434 23.357 104.051 22.9858 103.778C22.6146 103.502 22.1563 103.364 21.6108 103.364C21.0426 103.364 20.5691 103.509 20.1903 103.801C19.8153 104.089 19.5331 104.481 19.3438 104.977C19.1581 105.47 19.0653 106.023 19.0653 106.636C19.0653 107.258 19.16 107.822 19.3494 108.33C19.5426 108.833 19.8267 109.235 20.2017 109.534C20.5805 109.83 21.0502 109.977 21.6108 109.977ZM31.6165 111.182C30.8286 111.182 30.1373 110.994 29.5426 110.619C28.9517 110.244 28.4896 109.72 28.1562 109.045C27.8267 108.371 27.6619 107.583 27.6619 106.682C27.6619 105.773 27.8267 104.979 28.1562 104.301C28.4896 103.623 28.9517 103.097 29.5426 102.722C30.1373 102.347 30.8286 102.159 31.6165 102.159C32.4044 102.159 33.0938 102.347 33.6847 102.722C34.2794 103.097 34.7415 103.623 35.071 104.301C35.4044 104.979 35.571 105.773 35.571 106.682C35.571 107.583 35.4044 108.371 35.071 109.045C34.7415 109.72 34.2794 110.244 33.6847 110.619C33.0938 110.994 32.4044 111.182 31.6165 111.182ZM31.6165 109.977C32.215 109.977 32.7074 109.824 33.0938 109.517C33.4801 109.21 33.7661 108.807 33.9517 108.307C34.1373 107.807 34.2301 107.265 34.2301 106.682C34.2301 106.098 34.1373 105.555 33.9517 105.051C33.7661 104.547 33.4801 104.14 33.0938 103.83C32.7074 103.519 32.215 103.364 31.6165 103.364C31.018 103.364 30.5256 103.519 30.1392 103.83C29.7528 104.14 29.4669 104.547 29.2812 105.051C29.0956 105.555 29.0028 106.098 29.0028 106.682C29.0028 107.265 29.0956 107.807 29.2812 108.307C29.4669 108.807 29.7528 109.21 30.1392 109.517C30.5256 109.824 31.018 109.977 31.6165 109.977ZM37.7997 111V99.3636H39.1406V103.659H39.2543C39.3527 103.508 39.4891 103.314 39.6634 103.08C39.8414 102.841 40.0952 102.629 40.4247 102.443C40.758 102.254 41.2088 102.159 41.777 102.159C42.5118 102.159 43.1596 102.343 43.7202 102.71C44.2808 103.078 44.7183 103.598 45.0327 104.273C45.3471 104.947 45.5043 105.742 45.5043 106.659C45.5043 107.583 45.3471 108.384 45.0327 109.062C44.7183 109.737 44.2827 110.259 43.7259 110.631C43.169 110.998 42.527 111.182 41.7997 111.182C41.2391 111.182 40.7902 111.089 40.4531 110.903C40.116 110.714 39.8565 110.5 39.6747 110.261C39.4929 110.019 39.3527 109.818 39.2543 109.659H39.0952V111H37.7997ZM39.1179 106.636C39.1179 107.295 39.2145 107.877 39.4077 108.381C39.6009 108.881 39.883 109.273 40.2543 109.557C40.6255 109.837 41.08 109.977 41.6179 109.977C42.1785 109.977 42.6463 109.83 43.0213 109.534C43.4001 109.235 43.6842 108.833 43.8736 108.33C44.0668 107.822 44.1634 107.258 44.1634 106.636C44.1634 106.023 44.0687 105.47 43.8793 104.977C43.6937 104.481 43.4115 104.089 43.0327 103.801C42.6577 103.509 42.1861 103.364 41.6179 103.364C41.0724 103.364 40.6141 103.502 40.2429 103.778C39.8717 104.051 39.5914 104.434 39.402 104.926C39.2126 105.415 39.1179 105.985 39.1179 106.636ZM51.2145 111.182C50.3736 111.182 49.6482 110.996 49.0384 110.625C48.4323 110.25 47.9645 109.727 47.6349 109.057C47.3092 108.383 47.1463 107.598 47.1463 106.705C47.1463 105.811 47.3092 105.023 47.6349 104.341C47.9645 103.655 48.4228 103.121 49.0099 102.739C49.6009 102.352 50.2902 102.159 51.0781 102.159C51.5327 102.159 51.9815 102.235 52.4247 102.386C52.8679 102.538 53.2713 102.784 53.6349 103.125C53.9986 103.462 54.2884 103.909 54.5043 104.466C54.7202 105.023 54.8281 105.708 54.8281 106.523V107.091H48.1009V105.932H53.4645C53.4645 105.439 53.366 105 53.169 104.614C52.9759 104.227 52.6993 103.922 52.3395 103.699C51.9834 103.475 51.563 103.364 51.0781 103.364C50.544 103.364 50.0819 103.496 49.6918 103.761C49.3054 104.023 49.008 104.364 48.7997 104.784C48.5914 105.205 48.4872 105.655 48.4872 106.136V106.909C48.4872 107.568 48.6009 108.127 48.8281 108.585C49.0592 109.04 49.3793 109.386 49.7884 109.625C50.1974 109.86 50.6728 109.977 51.2145 109.977C51.5668 109.977 51.8849 109.928 52.169 109.83C52.4569 109.727 52.705 109.576 52.9134 109.375C53.1217 109.17 53.2827 108.917 53.3963 108.614L54.6918 108.977C54.5554 109.417 54.3262 109.803 54.0043 110.136C53.6823 110.466 53.2846 110.723 52.8111 110.909C52.3376 111.091 51.8054 111.182 51.2145 111.182ZM62.2315 99.3636L65.2315 104.205H65.3224L68.3224 99.3636H69.9815L66.3224 105.182L69.9815 111H68.3224L65.3224 106.25H65.2315L62.2315 111H60.5724L64.3224 105.182L60.5724 99.3636H62.2315ZM75.4062 111H71.8153V99.3636H75.5653C76.6941 99.3636 77.66 99.5966 78.4631 100.062C79.2661 100.525 79.8816 101.189 80.3097 102.057C80.7377 102.92 80.9517 103.955 80.9517 105.159C80.9517 106.371 80.7358 107.415 80.304 108.29C79.8722 109.161 79.2434 109.831 78.4176 110.301C77.5919 110.767 76.5881 111 75.4062 111ZM73.2244 109.75H75.3153C76.2775 109.75 77.0748 109.564 77.7074 109.193C78.34 108.822 78.8116 108.294 79.1222 107.608C79.4328 106.922 79.5881 106.106 79.5881 105.159C79.5881 104.22 79.4347 103.411 79.1278 102.733C78.821 102.051 78.3627 101.528 77.7528 101.165C77.143 100.797 76.3835 100.614 75.4744 100.614H73.2244V109.75Z" fill="#470137"/>
<path fill-rule="evenodd" clip-rule="evenodd" d="M15.4386 0H71.7406C80.2671 0 87.1792 6.9121 87.1792 15.4386V69.5614C87.1792 78.0879 80.2671 85 71.7406 85H15.4386C6.9121 85 0 78.0879 0 69.5614V15.4386C0 6.9121 6.9121 0 15.4386 0ZM62.6135 60.6589C59.9214 60.7001 57.2539 60.141 54.8049 59.0223C52.5241 57.9657 50.6171 56.2426 49.3355 54.0802C48.0108 51.8777 47.3479 49.1194 47.3468 45.8055C47.3277 43.1235 48.0135 40.4836 49.3355 38.15C50.6985 35.7729 52.703 33.8274 55.1196 32.5359C57.6522 31.133 60.7144 30.4315 64.3063 30.4315C64.5002 30.4315 64.7537 30.4315 65.0667 30.4604C65.2232 30.4749 65.3934 30.4872 65.5782 30.5006C65.763 30.514 65.9624 30.5285 66.1776 30.5472V19.0197C66.1776 18.7475 66.295 18.6114 66.5281 18.6114H73.8961C73.9775 18.5997 74.0602 18.6207 74.1262 18.6698C74.1921 18.7189 74.236 18.7921 74.2482 18.8734C74.2516 18.9028 74.2516 18.9325 74.2482 18.9618V53.5239C74.2482 54.1874 74.2771 54.9087 74.335 55.6879C74.3928 56.467 74.4416 57.1691 74.4813 57.794C74.4884 57.9155 74.4588 58.0362 74.3963 58.1406C74.3338 58.245 74.2413 58.3282 74.1308 58.3792C72.2297 59.1717 70.2497 59.7596 68.2242 60.1332C66.3733 60.4745 64.4956 60.6505 62.6135 60.6589ZM66.1861 53.4082V37.4422C65.8701 37.3577 65.5474 37.3008 65.2215 37.2721C64.823 37.2319 64.4227 37.212 64.0222 37.2126C62.6027 37.1987 61.1999 37.5193 59.9273 38.1483C58.6908 38.7651 57.6356 39.6925 56.8651 40.8396C56.0655 42.0089 55.6657 43.5485 55.6657 45.4584C55.6372 46.7332 55.8454 48.0023 56.2799 49.2011C56.6334 50.167 57.1917 51.0451 57.9165 51.7751C58.6116 52.4456 59.4523 52.9463 60.373 53.2381C61.3462 53.5524 62.3632 53.7098 63.3859 53.7042C63.9303 53.7042 64.4367 53.685 64.9051 53.6464C65.3364 53.6113 65.7628 53.5315 66.1776 53.4082H66.1861ZM45.8292 22.3541L34.9516 40.3071L46.5897 59.3727C46.6645 59.5062 46.6852 59.6633 46.6475 59.8116C46.6228 59.8977 46.5613 59.8953 46.4593 59.8914C46.3999 59.8891 46.3268 59.8863 46.2392 59.9001H37.9372C37.352 59.9001 36.9437 59.8797 36.709 59.4901C35.9298 57.9692 35.1501 56.4585 34.3698 54.958C33.5895 53.4576 32.761 51.9265 31.8843 50.3647C31.0087 48.8064 30.1417 47.2271 29.2831 45.6268H29.2236C28.4433 47.1874 27.6341 48.7474 26.7959 50.3069C25.9578 51.8664 25.1293 53.4162 24.3104 54.9563C23.4916 56.4954 22.6534 58.0265 21.796 59.5497C21.6395 59.9001 21.3673 59.9375 20.9777 59.9375H12.9616C12.9235 59.9375 12.8895 59.9412 12.8597 59.9445C12.7681 59.9545 12.715 59.9603 12.6996 59.8423C12.6774 59.6996 12.7083 59.5537 12.7863 59.4323L24.074 40.8889L13.0789 22.2945C12.9616 22.1397 12.9429 22.0121 13.0211 21.9152C13.0645 21.8661 13.1189 21.8279 13.1797 21.8037C13.2406 21.7795 13.3063 21.7699 13.3716 21.7757H21.6174C21.7974 21.766 21.9773 21.7956 22.1448 21.8624C22.2842 21.9427 22.4039 22.0532 22.4952 22.1857C23.1961 23.744 23.9759 25.3034 24.8344 26.864C25.693 28.4246 26.5606 29.9608 27.4373 31.4726C28.3128 32.9935 29.1215 34.5337 29.8632 36.0932H29.9228C30.7019 34.4952 31.4913 32.9357 32.2909 31.4148C33.0905 29.8939 33.9093 28.3628 34.7474 26.8215C35.5844 25.2813 36.3931 23.7502 37.1734 22.2282C37.2189 22.0837 37.2996 21.9528 37.4082 21.8471C37.5525 21.7737 37.715 21.7436 37.876 21.7604H45.5315C45.6042 21.7467 45.6793 21.7572 45.7455 21.79C45.8117 21.8229 45.8655 21.8765 45.8985 21.9426C45.9316 22.0087 45.9422 22.0838 45.9288 22.1566C45.9154 22.2293 45.8786 22.2956 45.8241 22.3456L45.8292 22.3541Z" fill="#470137"/>
</svg>
