<svg width="80" height="115" viewBox="0 0 80 115" fill="none" xmlns="http://www.w3.org/2000/svg">
<path d="M12.8942 111H11.4169L15.6896 99.3636H17.1442L21.4169 111H19.9396L16.4624 101.205H16.3714L12.8942 111ZM13.4396 106.455H19.3942V107.705H13.4396V106.455ZM24.3885 105.75V111H23.0476V102.273H24.343V103.636H24.4567C24.6612 103.193 24.9718 102.837 25.3885 102.568C25.8052 102.295 26.343 102.159 27.0021 102.159C27.593 102.159 28.1101 102.28 28.5533 102.523C28.9964 102.761 29.3411 103.125 29.5874 103.614C29.8336 104.098 29.9567 104.712 29.9567 105.455V111H28.6158V105.545C28.6158 104.86 28.4377 104.326 28.0817 103.943C27.7256 103.557 27.237 103.364 26.6158 103.364C26.1877 103.364 25.8052 103.456 25.468 103.642C25.1347 103.828 24.8714 104.098 24.6783 104.455C24.4851 104.811 24.3885 105.242 24.3885 105.75ZM35.9297 114.455C35.282 114.455 34.7251 114.371 34.2592 114.205C33.7933 114.042 33.4051 113.826 33.0945 113.557C32.7876 113.292 32.5433 113.008 32.3615 112.705L33.4297 111.955C33.5509 112.114 33.7043 112.295 33.8899 112.5C34.0755 112.708 34.3293 112.888 34.6513 113.04C34.977 113.195 35.4032 113.273 35.9297 113.273C36.6342 113.273 37.2157 113.102 37.674 112.761C38.1323 112.42 38.3615 111.886 38.3615 111.159V109.386H38.2479C38.1494 109.545 38.0092 109.742 37.8274 109.977C37.6494 110.208 37.3918 110.415 37.0547 110.597C36.7214 110.775 36.2706 110.864 35.7024 110.864C34.9979 110.864 34.3653 110.697 33.8047 110.364C33.2479 110.03 32.8066 109.545 32.4808 108.909C32.1589 108.273 31.9979 107.5 31.9979 106.591C31.9979 105.697 32.1551 104.919 32.4695 104.256C32.7839 103.589 33.2214 103.074 33.782 102.71C34.3426 102.343 34.9903 102.159 35.7251 102.159C36.2933 102.159 36.7441 102.254 37.0774 102.443C37.4145 102.629 37.6721 102.841 37.8501 103.08C38.032 103.314 38.1721 103.508 38.2706 103.659H38.407V102.273H39.7024V111.25C39.7024 112 39.532 112.61 39.1911 113.08C38.8539 113.553 38.3994 113.9 37.8274 114.119C37.2592 114.343 36.6267 114.455 35.9297 114.455ZM35.8842 109.659C36.4221 109.659 36.8767 109.536 37.2479 109.29C37.6191 109.044 37.9013 108.689 38.0945 108.227C38.2876 107.765 38.3842 107.212 38.3842 106.568C38.3842 105.939 38.2895 105.384 38.1001 104.903C37.9107 104.422 37.6304 104.045 37.2592 103.773C36.888 103.5 36.4297 103.364 35.8842 103.364C35.3161 103.364 34.8426 103.508 34.4638 103.795C34.0888 104.083 33.8066 104.47 33.6172 104.955C33.4316 105.439 33.3388 105.977 33.3388 106.568C33.3388 107.174 33.4335 107.71 33.6229 108.176C33.8161 108.638 34.1001 109.002 34.4751 109.267C34.8539 109.528 35.3236 109.659 35.8842 109.659ZM47.657 107.432V102.273H48.9979V111H47.657V109.523H47.5661C47.3615 109.966 47.0433 110.343 46.6115 110.653C46.1797 110.96 45.6342 111.114 44.9751 111.114C44.4297 111.114 43.9448 110.994 43.5206 110.756C43.0964 110.513 42.763 110.15 42.5206 109.665C42.2782 109.176 42.157 108.561 42.157 107.818V102.273H43.4979V107.727C43.4979 108.364 43.6759 108.871 44.032 109.25C44.3918 109.629 44.8501 109.818 45.407 109.818C45.7403 109.818 46.0793 109.733 46.424 109.562C46.7725 109.392 47.0642 109.131 47.299 108.778C47.5376 108.426 47.657 107.977 47.657 107.432ZM52.7947 99.3636V111H51.4538V99.3636H52.7947ZM57.8189 111.205C57.2659 111.205 56.764 111.1 56.3132 110.892C55.8625 110.68 55.5045 110.375 55.2393 109.977C54.9742 109.576 54.8416 109.091 54.8416 108.523C54.8416 108.023 54.9401 107.617 55.1371 107.307C55.334 106.992 55.5973 106.746 55.9268 106.568C56.2564 106.39 56.62 106.258 57.0178 106.17C57.4193 106.08 57.8227 106.008 58.228 105.955C58.7583 105.886 59.1882 105.835 59.5178 105.801C59.8511 105.763 60.0935 105.701 60.245 105.614C60.4003 105.527 60.478 105.375 60.478 105.159V105.114C60.478 104.553 60.3246 104.117 60.0178 103.807C59.7147 103.496 59.2545 103.341 58.6371 103.341C57.9969 103.341 57.495 103.481 57.1314 103.761C56.7678 104.042 56.5121 104.341 56.3643 104.659L55.0916 104.205C55.3189 103.674 55.6219 103.261 56.0007 102.966C56.3833 102.667 56.8 102.458 57.2507 102.341C57.7053 102.22 58.1522 102.159 58.5916 102.159C58.8719 102.159 59.1939 102.193 59.5575 102.261C59.925 102.326 60.2791 102.46 60.62 102.665C60.9647 102.869 61.2507 103.178 61.478 103.591C61.7053 104.004 61.8189 104.557 61.8189 105.25V111H60.478V109.818H60.4098C60.3189 110.008 60.1674 110.21 59.9553 110.426C59.7431 110.642 59.4609 110.826 59.1087 110.977C58.7564 111.129 58.3265 111.205 57.8189 111.205ZM58.0234 110C58.5537 110 59.0007 109.896 59.3643 109.688C59.7318 109.479 60.0083 109.21 60.1939 108.881C60.3833 108.551 60.478 108.205 60.478 107.841V106.614C60.4212 106.682 60.2962 106.744 60.103 106.801C59.9136 106.854 59.6939 106.902 59.4439 106.943C59.1977 106.981 58.9571 107.015 58.7223 107.045C58.4912 107.072 58.3037 107.095 58.1598 107.114C57.8113 107.159 57.4856 107.233 57.1825 107.335C56.8833 107.434 56.6409 107.583 56.4553 107.784C56.2734 107.981 56.1825 108.25 56.1825 108.591C56.1825 109.057 56.3549 109.409 56.6996 109.648C57.0481 109.883 57.4893 110 58.0234 110ZM64.2663 111V102.273H65.5618V103.591H65.6527C65.8118 103.159 66.0997 102.809 66.5163 102.54C66.933 102.271 67.4027 102.136 67.9254 102.136C68.0239 102.136 68.147 102.138 68.2947 102.142C68.4425 102.146 68.5542 102.152 68.63 102.159V103.523C68.5845 103.511 68.4804 103.494 68.3175 103.472C68.1584 103.445 67.9898 103.432 67.8118 103.432C67.3875 103.432 67.0088 103.521 66.6754 103.699C66.3459 103.873 66.0845 104.116 65.8913 104.426C65.7019 104.733 65.6072 105.083 65.6072 105.477V111H64.2663Z" fill="#C3002F"/>
<path fill-rule="evenodd" clip-rule="evenodd" d="M39.5674 0L0 14.11L6.03498 66.4275L39.5674 85L73.0998 66.4275L79.1348 14.11L39.5674 0ZM14.8325 64.8546L39.5674 9.39229L64.2174 64.8546H54.9949L50.0224 52.4446H29.0274L24.0549 64.8546H14.8325ZM39.5674 27.4123L32.3424 44.7946H46.7924L39.5674 27.4123Z" fill="#C3002F"/>
</svg>
