<svg width="500" height="200" viewBox="0 0 500 200" fill="none" xmlns="http://www.w3.org/2000/svg">
<g clip-path="url(#clip0_63_648)">
<path d="M128.094 35.1084V135.282L140.967 135.331V87.6502H172.07V75.0304H140.967V47.7283H181.455V35.1084H128.094ZM204.697 55.4377C209.365 55.4377 213.099 51.6566 213.099 47.0408C213.099 42.425 209.315 38.6439 204.697 38.6439C200.029 38.6439 196.294 42.425 196.294 47.0408C196.294 51.6566 200.078 55.4377 204.697 55.4377ZM198.162 68.0575V135.282H211.035V68.0575H198.162Z" fill="black"/>
<path fill-rule="evenodd" clip-rule="evenodd" d="M258.844 66.0938C241.696 66.0938 229.756 80.5796 229.756 97.7662C229.756 114.953 241.696 129.439 258.844 129.439C266.706 129.439 273.143 126.394 277.86 121.484V130.372C277.86 141.518 269.114 150.799 257.665 150.799C253.538 150.799 249.459 149.228 246.216 146.969L239.73 158.165C244.89 161.504 251.032 163.419 257.616 163.419C275.895 163.419 290.684 148.638 290.684 130.372V68.0579H277.86V74.0487C273.143 69.1382 266.706 66.0938 258.844 66.0938ZM242.679 97.7662C242.679 87.1105 250.835 78.7136 260.269 78.7136C269.703 78.7136 277.86 87.1105 277.86 97.7662C277.86 108.422 269.703 116.819 260.269 116.819C250.835 116.819 242.679 108.422 242.679 97.7662Z" fill="black"/>
<path d="M337.216 78.7136C329.6 78.7136 323.409 85.1954 323.409 92.8066V135.282H310.536V68.0579H323.409V74.196C327.193 69.3346 332.745 66.0938 340.017 66.0938C349.058 66.0938 355.986 70.5623 360.016 77.4369C364.487 70.8078 371.759 66.0938 380.554 66.0938C395.246 66.0938 404.385 77.9279 404.434 92.5611V135.282H391.561V92.7575C391.561 85.1463 385.37 78.6645 377.754 78.6645C370.138 78.6645 363.946 85.1463 363.946 92.7575V135.282H351.073V92.7575C351.024 85.1463 344.833 78.7136 337.216 78.7136Z" fill="black"/>
<path fill-rule="evenodd" clip-rule="evenodd" d="M473.126 75.6691C467.377 69.7275 459.516 66.0938 450.425 66.0938C431.262 66.0938 417.603 82.3474 417.603 101.695C417.603 121.042 431.213 137.295 450.425 137.295C459.516 137.295 467.377 133.612 473.126 127.72V135.282H486V68.0579H473.126V75.6691ZM430.525 101.695C430.525 88.8783 440.352 78.7136 451.85 78.7136C463.299 78.7136 473.175 88.8292 473.175 101.695C473.175 114.511 463.348 124.675 451.85 124.675C440.352 124.626 430.525 114.511 430.525 101.695Z" fill="black"/>
<path d="M57.2886 100.024C57.2886 88.0918 66.9684 78.3691 78.9575 78.3691C90.8976 78.3691 100.626 88.0427 100.626 100.024C100.626 111.957 90.9467 121.679 78.9575 121.679C67.0175 121.679 57.2886 111.957 57.2886 100.024Z" fill="#1ABCFE"/>
<path d="M14 143.286C14 131.354 23.6798 121.631 35.669 121.631H57.3379V143.286C57.3379 155.218 47.6581 164.941 35.669 164.941C23.6798 164.941 14 155.267 14 143.286Z" fill="#0ACF83"/>
<path d="M57.2886 35.1087V78.3698H78.9575C90.8976 78.3698 100.626 68.6962 100.626 56.7147C100.626 44.7823 90.9467 35.0596 78.9575 35.0596H57.2886V35.1087Z" fill="#FF7262"/>
<path d="M14 56.7635C14 68.6959 23.6798 78.4186 35.669 78.4186H57.3379V35.1084H35.669C23.6798 35.1084 14 44.782 14 56.7635Z" fill="#F24E1E"/>
<path d="M14 100.024C14 111.957 23.6798 121.679 35.669 121.679H57.3379V78.3691H35.669C23.6798 78.3691 14 88.0918 14 100.024Z" fill="#A259FF"/>
</g>
<defs>
<clipPath id="clip0_63_648">
<rect width="472" height="130" fill="white" transform="translate(14 35)"/>
</clipPath>
</defs>
</svg>
