<svg width="88" height="115" viewBox="0 0 88 115" fill="none" xmlns="http://www.w3.org/2000/svg">
<path d="M11.076 99.3636V111H9.6669V99.3636H11.076ZM15.0604 99.3636V111H13.7195V99.3636H15.0604ZM18.8572 99.3636V111H17.5163V99.3636H18.8572ZM26.8132 107.432V102.273H28.1541V111H26.8132V109.523H26.7223C26.5178 109.966 26.1996 110.343 25.7678 110.653C25.3359 110.96 24.7905 111.114 24.1314 111.114C23.5859 111.114 23.1011 110.994 22.6768 110.756C22.2526 110.513 21.9193 110.15 21.6768 109.665C21.4344 109.176 21.3132 108.561 21.3132 107.818V102.273H22.6541V107.727C22.6541 108.364 22.8321 108.871 23.1882 109.25C23.5481 109.629 24.0064 109.818 24.5632 109.818C24.8965 109.818 25.2356 109.733 25.5803 109.562C25.9287 109.392 26.2204 109.131 26.4553 108.778C26.6939 108.426 26.8132 107.977 26.8132 107.432ZM36.7919 104.227L35.5874 104.568C35.5116 104.367 35.3999 104.172 35.2521 103.983C35.1082 103.79 34.9112 103.631 34.6612 103.506C34.4112 103.381 34.0911 103.318 33.701 103.318C33.1669 103.318 32.7218 103.441 32.3658 103.688C32.0135 103.93 31.8374 104.239 31.8374 104.614C31.8374 104.947 31.9586 105.21 32.201 105.403C32.4434 105.597 32.8222 105.758 33.3374 105.886L34.6328 106.205C35.4131 106.394 35.9946 106.684 36.3771 107.074C36.7597 107.46 36.951 107.958 36.951 108.568C36.951 109.068 36.8071 109.515 36.5192 109.909C36.2351 110.303 35.8374 110.614 35.326 110.841C34.8146 111.068 34.2199 111.182 33.5419 111.182C32.6518 111.182 31.915 110.989 31.3317 110.602C30.7483 110.216 30.379 109.652 30.2237 108.909L31.4964 108.591C31.6177 109.061 31.8468 109.413 32.1839 109.648C32.5249 109.883 32.9699 110 33.5192 110C34.1442 110 34.6404 109.867 35.0078 109.602C35.379 109.333 35.5646 109.011 35.5646 108.636C35.5646 108.333 35.4586 108.08 35.2464 107.875C35.0343 107.667 34.7086 107.511 34.2692 107.409L32.8146 107.068C32.0154 106.879 31.4283 106.585 31.0533 106.188C30.6821 105.786 30.4964 105.284 30.4964 104.682C30.4964 104.189 30.6347 103.754 30.9112 103.375C31.1915 102.996 31.5722 102.699 32.0533 102.483C32.5381 102.267 33.0874 102.159 33.701 102.159C34.5646 102.159 35.2427 102.348 35.7351 102.727C36.2313 103.106 36.5836 103.606 36.7919 104.227ZM42.7649 102.273V103.409H38.2422V102.273H42.7649ZM39.5604 100.182H40.9013V108.5C40.9013 108.879 40.9562 109.163 41.0661 109.352C41.1797 109.538 41.3236 109.663 41.4979 109.727C41.6759 109.788 41.8634 109.818 42.0604 109.818C42.2081 109.818 42.3293 109.811 42.424 109.795C42.5187 109.777 42.5945 109.761 42.6513 109.75L42.924 110.955C42.8331 110.989 42.7062 111.023 42.5433 111.057C42.3804 111.095 42.174 111.114 41.924 111.114C41.5452 111.114 41.174 111.032 40.8104 110.869C40.4505 110.706 40.1513 110.458 39.9126 110.125C39.6778 109.792 39.5604 109.371 39.5604 108.864V100.182ZM44.782 111V102.273H46.0774V103.591H46.1683C46.3274 103.159 46.6153 102.809 47.032 102.54C47.4486 102.271 47.9183 102.136 48.4411 102.136C48.5395 102.136 48.6626 102.138 48.8104 102.142C48.9581 102.146 49.0698 102.152 49.1456 102.159V103.523C49.1001 103.511 48.996 103.494 48.8331 103.472C48.674 103.445 48.5054 103.432 48.3274 103.432C47.9032 103.432 47.5244 103.521 47.1911 103.699C46.8615 103.873 46.6001 104.116 46.407 104.426C46.2176 104.733 46.1229 105.083 46.1229 105.477V111H44.782ZM53.3033 111.205C52.7502 111.205 52.2483 111.1 51.7976 110.892C51.3468 110.68 50.9889 110.375 50.7237 109.977C50.4586 109.576 50.326 109.091 50.326 108.523C50.326 108.023 50.4245 107.617 50.6214 107.307C50.8184 106.992 51.0817 106.746 51.4112 106.568C51.7408 106.39 52.1044 106.258 52.5021 106.17C52.9036 106.08 53.3071 106.008 53.7124 105.955C54.2427 105.886 54.6726 105.835 55.0021 105.801C55.3355 105.763 55.5779 105.701 55.7294 105.614C55.8847 105.527 55.9624 105.375 55.9624 105.159V105.114C55.9624 104.553 55.8089 104.117 55.5021 103.807C55.1991 103.496 54.7389 103.341 54.1214 103.341C53.4813 103.341 52.9794 103.481 52.6158 103.761C52.2521 104.042 51.9964 104.341 51.8487 104.659L50.576 104.205C50.8033 103.674 51.1063 103.261 51.4851 102.966C51.8677 102.667 52.2843 102.458 52.7351 102.341C53.1896 102.22 53.6366 102.159 54.076 102.159C54.3563 102.159 54.6783 102.193 55.0419 102.261C55.4093 102.326 55.7635 102.46 56.1044 102.665C56.4491 102.869 56.7351 103.178 56.9624 103.591C57.1896 104.004 57.3033 104.557 57.3033 105.25V111H55.9624V109.818H55.8942C55.8033 110.008 55.6518 110.21 55.4396 110.426C55.2275 110.642 54.9453 110.826 54.593 110.977C54.2408 111.129 53.8108 111.205 53.3033 111.205ZM53.5078 110C54.0381 110 54.4851 109.896 54.8487 109.688C55.2161 109.479 55.4927 109.21 55.6783 108.881C55.8677 108.551 55.9624 108.205 55.9624 107.841V106.614C55.9055 106.682 55.7805 106.744 55.5874 106.801C55.398 106.854 55.1783 106.902 54.9283 106.943C54.6821 106.981 54.4415 107.015 54.2067 107.045C53.9756 107.072 53.7881 107.095 53.6442 107.114C53.2957 107.159 52.9699 107.233 52.6669 107.335C52.3677 107.434 52.1252 107.583 51.9396 107.784C51.7578 107.981 51.6669 108.25 51.6669 108.591C51.6669 109.057 51.8393 109.409 52.1839 109.648C52.5324 109.883 52.9737 110 53.5078 110ZM63.5462 102.273V103.409H59.0234V102.273H63.5462ZM60.3416 100.182H61.6825V108.5C61.6825 108.879 61.7375 109.163 61.8473 109.352C61.9609 109.538 62.1049 109.663 62.2791 109.727C62.4571 109.788 62.6446 109.818 62.8416 109.818C62.9893 109.818 63.1106 109.811 63.2053 109.795C63.3 109.777 63.3757 109.761 63.4325 109.75L63.7053 110.955C63.6143 110.989 63.4875 111.023 63.3246 111.057C63.1617 111.095 62.9553 111.114 62.7053 111.114C62.3265 111.114 61.9553 111.032 61.5916 110.869C61.2318 110.706 60.9325 110.458 60.6939 110.125C60.459 109.792 60.3416 109.371 60.3416 108.864V100.182ZM69.0149 111.182C68.227 111.182 67.5357 110.994 66.9411 110.619C66.3501 110.244 65.888 109.72 65.5547 109.045C65.2251 108.371 65.0604 107.583 65.0604 106.682C65.0604 105.773 65.2251 104.979 65.5547 104.301C65.888 103.623 66.3501 103.097 66.9411 102.722C67.5357 102.347 68.227 102.159 69.0149 102.159C69.8028 102.159 70.4922 102.347 71.0831 102.722C71.6778 103.097 72.1399 103.623 72.4695 104.301C72.8028 104.979 72.9695 105.773 72.9695 106.682C72.9695 107.583 72.8028 108.371 72.4695 109.045C72.1399 109.72 71.6778 110.244 71.0831 110.619C70.4922 110.994 69.8028 111.182 69.0149 111.182ZM69.0149 109.977C69.6134 109.977 70.1058 109.824 70.4922 109.517C70.8786 109.21 71.1645 108.807 71.3501 108.307C71.5357 107.807 71.6286 107.265 71.6286 106.682C71.6286 106.098 71.5357 105.555 71.3501 105.051C71.1645 104.547 70.8786 104.14 70.4922 103.83C70.1058 103.519 69.6134 103.364 69.0149 103.364C68.4164 103.364 67.924 103.519 67.5376 103.83C67.1513 104.14 66.8653 104.547 66.6797 105.051C66.4941 105.555 66.4013 106.098 66.4013 106.682C66.4013 107.265 66.4941 107.807 66.6797 108.307C66.8653 108.807 67.1513 109.21 67.5376 109.517C67.924 109.824 68.4164 109.977 69.0149 109.977ZM75.0163 111V102.273H76.3118V103.591H76.4027C76.5618 103.159 76.8497 102.809 77.2663 102.54C77.683 102.271 78.1527 102.136 78.6754 102.136C78.7739 102.136 78.897 102.138 79.0447 102.142C79.1925 102.146 79.3042 102.152 79.38 102.159V103.523C79.3345 103.511 79.2304 103.494 79.0675 103.472C78.9084 103.445 78.7398 103.432 78.5618 103.432C78.1375 103.432 77.7588 103.521 77.4254 103.699C77.0959 103.873 76.8345 104.116 76.6413 104.426C76.4519 104.733 76.3572 105.083 76.3572 105.477V111H75.0163Z" fill="#330000"/>
<path fill-rule="evenodd" clip-rule="evenodd" d="M15.4383 0H71.7419C80.2682 0 87.1802 6.91195 87.1802 15.4383V69.5617C87.1802 78.0881 80.2682 85 71.7419 85H15.4383C6.91195 85 0 78.0881 0 69.5617V15.4383C0 6.91195 6.91195 0 15.4383 0ZM61.6611 27.9685C61.0646 27.9923 60.4698 27.8899 59.9155 27.6682C59.3613 27.4464 58.86 27.1102 58.4446 26.6816C58.0302 26.2343 57.7085 25.7094 57.4978 25.1371C57.2872 24.5649 57.1918 23.9567 57.2173 23.3475C57.197 22.7455 57.3037 22.146 57.5304 21.588C57.7571 21.03 58.0988 20.526 58.5332 20.1088C58.9634 19.6959 59.471 19.3721 60.0269 19.1562C60.5827 18.9403 61.1758 18.8365 61.7719 18.8508C63.1753 18.8508 64.2765 19.2701 65.0753 20.1088C65.8858 20.988 66.3148 22.1526 66.2685 23.3475C66.2931 23.9592 66.1944 24.5696 65.9783 25.1424C65.7622 25.7151 65.4331 26.2386 65.0106 26.6816C64.5709 27.115 64.0464 27.4531 63.4701 27.6745C62.8937 27.896 62.2779 27.9961 61.6611 27.9685ZM57.6264 59.4894V31.5345C57.6264 31.1834 57.7815 31.0078 58.0934 31.0078H65.285C65.5952 31.0078 65.752 31.1782 65.752 31.5345V59.4894C65.752 59.8781 65.5969 60.0741 65.285 60.0741H58.1531C57.8019 60.0758 57.6264 59.8798 57.6264 59.4894ZM42.246 51.0109H28.7356L25.9879 59.5491C25.9516 59.7055 25.8612 59.8441 25.7328 59.9405C25.6043 60.0368 25.4459 60.0848 25.2856 60.0758H18.4434C18.0525 60.0758 17.9162 59.861 18.0343 59.4315L29.7311 25.739C29.8447 25.3878 29.9618 24.9901 30.0822 24.5458C30.2341 23.765 30.3123 22.9718 30.3158 22.1764C30.3088 22.1294 30.3112 22.0814 30.3229 22.0353C30.3346 21.9892 30.3553 21.9459 30.3838 21.9078C30.4123 21.8698 30.4481 21.8378 30.4891 21.8137C30.5301 21.7895 30.5755 21.7738 30.6226 21.7673C30.6565 21.7622 30.691 21.7622 30.7249 21.7673H40.0233C40.296 21.7673 40.4511 21.8645 40.492 22.0588L53.7672 59.4894C53.8848 59.8781 53.7672 60.0741 53.4161 60.0741H45.8137C45.6832 60.0886 45.5518 60.0551 45.4442 59.9798C45.3366 59.9045 45.2601 59.7926 45.229 59.665L42.246 51.0109ZM30.8425 43.6369H40.0812C39.8483 42.8562 39.5755 41.979 39.263 41.0051C38.9505 40.0312 38.6193 38.988 38.2693 37.8755L37.2159 34.5431C36.8647 33.4317 36.5431 32.3589 36.2511 31.3248C35.959 30.2907 35.6937 29.3475 35.455 28.4952H35.3971C35.0676 30.0743 34.6574 31.6355 34.1681 33.1726C33.6226 34.9283 33.0669 36.7221 32.501 38.5539C31.9351 40.3857 31.3823 42.0801 30.8425 43.6369Z" fill="#330000"/>
</svg>
