<svg width="85" height="115" viewBox="0 0 85 115" fill="none" xmlns="http://www.w3.org/2000/svg">
<path d="M9.03551 99.3636H10.4446V107.682C10.4446 108.424 10.3082 109.055 10.0355 109.574C9.76278 110.093 9.37831 110.487 8.8821 110.756C8.38589 111.025 7.80066 111.159 7.12642 111.159C6.49006 111.159 5.92377 111.044 5.42756 110.812C4.93134 110.578 4.54119 110.244 4.2571 109.812C3.97301 109.381 3.83097 108.867 3.83097 108.273H5.21733C5.21733 108.602 5.29877 108.89 5.46165 109.136C5.62831 109.379 5.85559 109.568 6.14347 109.705C6.43134 109.841 6.759 109.909 7.12642 109.909C7.53172 109.909 7.87642 109.824 8.16051 109.653C8.4446 109.483 8.66051 109.233 8.80824 108.903C8.95975 108.57 9.03551 108.163 9.03551 107.682V99.3636ZM15.6548 111.205C15.1018 111.205 14.5999 111.1 14.1491 110.892C13.6984 110.68 13.3404 110.375 13.0753 109.977C12.8101 109.576 12.6776 109.091 12.6776 108.523C12.6776 108.023 12.776 107.617 12.973 107.307C13.17 106.992 13.4332 106.746 13.7628 106.568C14.0923 106.39 14.456 106.258 14.8537 106.17C15.2552 106.08 15.6586 106.008 16.0639 105.955C16.5942 105.886 17.0241 105.835 17.3537 105.801C17.687 105.763 17.9295 105.701 18.081 105.614C18.2363 105.527 18.3139 105.375 18.3139 105.159V105.114C18.3139 104.553 18.1605 104.117 17.8537 103.807C17.5507 103.496 17.0904 103.341 16.473 103.341C15.8329 103.341 15.331 103.481 14.9673 103.761C14.6037 104.042 14.348 104.341 14.2003 104.659L12.9276 104.205C13.1548 103.674 13.4579 103.261 13.8366 102.966C14.2192 102.667 14.6359 102.458 15.0866 102.341C15.5412 102.22 15.9882 102.159 16.4276 102.159C16.7079 102.159 17.0298 102.193 17.3935 102.261C17.7609 102.326 18.1151 102.46 18.456 102.665C18.8007 102.869 19.0866 103.178 19.3139 103.591C19.5412 104.004 19.6548 104.557 19.6548 105.25V111H18.3139V109.818H18.2457C18.1548 110.008 18.0033 110.21 17.7912 110.426C17.5791 110.642 17.2969 110.826 16.9446 110.977C16.5923 111.129 16.1624 111.205 15.6548 111.205ZM15.8594 110C16.3897 110 16.8366 109.896 17.2003 109.688C17.5677 109.479 17.8442 109.21 18.0298 108.881C18.2192 108.551 18.3139 108.205 18.3139 107.841V106.614C18.2571 106.682 18.1321 106.744 17.9389 106.801C17.7495 106.854 17.5298 106.902 17.2798 106.943C17.0336 106.981 16.7931 107.015 16.5582 107.045C16.3272 107.072 16.1397 107.095 15.9957 107.114C15.6473 107.159 15.3215 107.233 15.0185 107.335C14.7192 107.434 14.4768 107.583 14.2912 107.784C14.1094 107.981 14.0185 108.25 14.0185 108.591C14.0185 109.057 14.1908 109.409 14.5355 109.648C14.884 109.883 15.3253 110 15.8594 110ZM28.9261 102.273L25.6989 111H24.3352L21.108 102.273H22.5625L24.9716 109.227H25.0625L27.4716 102.273H28.9261ZM32.9986 111.205C32.4455 111.205 31.9437 111.1 31.4929 110.892C31.0421 110.68 30.6842 110.375 30.419 109.977C30.1539 109.576 30.0213 109.091 30.0213 108.523C30.0213 108.023 30.1198 107.617 30.3168 107.307C30.5137 106.992 30.777 106.746 31.1065 106.568C31.4361 106.39 31.7997 106.258 32.1974 106.17C32.599 106.08 33.0024 106.008 33.4077 105.955C33.938 105.886 34.3679 105.835 34.6974 105.801C35.0308 105.763 35.2732 105.701 35.4247 105.614C35.58 105.527 35.6577 105.375 35.6577 105.159V105.114C35.6577 104.553 35.5043 104.117 35.1974 103.807C34.8944 103.496 34.4342 103.341 33.8168 103.341C33.1766 103.341 32.6747 103.481 32.3111 103.761C31.9474 104.042 31.6918 104.341 31.544 104.659L30.2713 104.205C30.4986 103.674 30.8016 103.261 31.1804 102.966C31.563 102.667 31.9796 102.458 32.4304 102.341C32.8849 102.22 33.3319 102.159 33.7713 102.159C34.0516 102.159 34.3736 102.193 34.7372 102.261C35.1046 102.326 35.4588 102.46 35.7997 102.665C36.1444 102.869 36.4304 103.178 36.6577 103.591C36.8849 104.004 36.9986 104.557 36.9986 105.25V111H35.6577V109.818H35.5895C35.4986 110.008 35.3471 110.21 35.1349 110.426C34.9228 110.642 34.6406 110.826 34.2884 110.977C33.9361 111.129 33.5062 111.205 32.9986 111.205ZM33.2031 110C33.7334 110 34.1804 109.896 34.544 109.688C34.9115 109.479 35.188 109.21 35.3736 108.881C35.563 108.551 35.6577 108.205 35.6577 107.841V106.614C35.6009 106.682 35.4759 106.744 35.2827 106.801C35.0933 106.854 34.8736 106.902 34.6236 106.943C34.3774 106.981 34.1368 107.015 33.902 107.045C33.6709 107.072 33.4834 107.095 33.3395 107.114C32.991 107.159 32.6652 107.233 32.3622 107.335C32.063 107.434 31.8205 107.583 31.6349 107.784C31.4531 107.981 31.3622 108.25 31.3622 108.591C31.3622 109.057 31.5346 109.409 31.8793 109.648C32.2277 109.883 32.669 110 33.2031 110ZM45.6278 104.227L44.4233 104.568C44.3475 104.367 44.2358 104.172 44.0881 103.983C43.9441 103.79 43.7472 103.631 43.4972 103.506C43.2472 103.381 42.9271 103.318 42.5369 103.318C42.0028 103.318 41.5578 103.441 41.2017 103.688C40.8494 103.93 40.6733 104.239 40.6733 104.614C40.6733 104.947 40.7945 105.21 41.0369 105.403C41.2794 105.597 41.6581 105.758 42.1733 105.886L43.4688 106.205C44.2491 106.394 44.8305 106.684 45.2131 107.074C45.5956 107.46 45.7869 107.958 45.7869 108.568C45.7869 109.068 45.643 109.515 45.3551 109.909C45.071 110.303 44.6733 110.614 44.1619 110.841C43.6506 111.068 43.0559 111.182 42.3778 111.182C41.4877 111.182 40.7509 110.989 40.1676 110.602C39.5843 110.216 39.215 109.652 39.0597 108.909L40.3324 108.591C40.4536 109.061 40.6828 109.413 41.0199 109.648C41.3608 109.883 41.8059 110 42.3551 110C42.9801 110 43.4763 109.867 43.8438 109.602C44.215 109.333 44.4006 109.011 44.4006 108.636C44.4006 108.333 44.2945 108.08 44.0824 107.875C43.8703 107.667 43.5445 107.511 43.1051 107.409L41.6506 107.068C40.8513 106.879 40.2642 106.585 39.8892 106.188C39.518 105.786 39.3324 105.284 39.3324 104.682C39.3324 104.189 39.4706 103.754 39.7472 103.375C40.0275 102.996 40.4081 102.699 40.8892 102.483C41.3741 102.267 41.9233 102.159 42.5369 102.159C43.4006 102.159 44.0786 102.348 44.571 102.727C45.0672 103.106 45.4195 103.606 45.6278 104.227ZM51.3509 111.182C50.5327 111.182 49.8281 110.989 49.2372 110.602C48.6463 110.216 48.1918 109.684 47.8736 109.006C47.5554 108.328 47.3963 107.553 47.3963 106.682C47.3963 105.795 47.5592 105.013 47.8849 104.335C48.2145 103.653 48.6728 103.121 49.2599 102.739C49.8509 102.352 50.5402 102.159 51.3281 102.159C51.9418 102.159 52.4948 102.273 52.9872 102.5C53.4796 102.727 53.883 103.045 54.1974 103.455C54.5118 103.864 54.7069 104.341 54.7827 104.886H53.4418C53.3395 104.489 53.1122 104.136 52.7599 103.83C52.4115 103.519 51.9418 103.364 51.3509 103.364C50.8281 103.364 50.3698 103.5 49.9759 103.773C49.5857 104.042 49.2808 104.422 49.0611 104.915C48.8452 105.403 48.7372 105.977 48.7372 106.636C48.7372 107.311 48.8433 107.898 49.0554 108.398C49.2713 108.898 49.5743 109.286 49.9645 109.562C50.3584 109.839 50.8205 109.977 51.3509 109.977C51.6993 109.977 52.0156 109.917 52.2997 109.795C52.5838 109.674 52.8243 109.5 53.0213 109.273C53.2183 109.045 53.3584 108.773 53.4418 108.455H54.7827C54.7069 108.97 54.5194 109.434 54.2202 109.847C53.9247 110.256 53.5327 110.581 53.044 110.824C52.5592 111.062 51.9948 111.182 51.3509 111.182ZM56.7429 111V102.273H58.0384V103.591H58.1293C58.2884 103.159 58.5762 102.809 58.9929 102.54C59.4096 102.271 59.8793 102.136 60.402 102.136C60.5005 102.136 60.6236 102.138 60.7713 102.142C60.919 102.146 61.0308 102.152 61.1065 102.159V103.523C61.0611 103.511 60.9569 103.494 60.794 103.472C60.6349 103.445 60.4664 103.432 60.2884 103.432C59.8641 103.432 59.4853 103.521 59.152 103.699C58.8224 103.873 58.5611 104.116 58.3679 104.426C58.1785 104.733 58.0838 105.083 58.0838 105.477V111H56.7429ZM62.696 111V102.273H64.0369V111H62.696ZM63.3778 100.818C63.1165 100.818 62.8911 100.729 62.7017 100.551C62.5161 100.373 62.4233 100.159 62.4233 99.9091C62.4233 99.6591 62.5161 99.4451 62.7017 99.267C62.8911 99.089 63.1165 99 63.3778 99C63.6392 99 63.8627 99.089 64.0483 99.267C64.2377 99.4451 64.3324 99.6591 64.3324 99.9091C64.3324 100.159 64.2377 100.373 64.0483 100.551C63.8627 100.729 63.6392 100.818 63.3778 100.818ZM66.4929 114.273V102.273H67.7884V103.659H67.9474C68.0459 103.508 68.1823 103.314 68.3565 103.08C68.5346 102.841 68.7884 102.629 69.1179 102.443C69.4512 102.254 69.902 102.159 70.4702 102.159C71.205 102.159 71.8527 102.343 72.4134 102.71C72.974 103.078 73.4115 103.598 73.7259 104.273C74.0402 104.947 74.1974 105.742 74.1974 106.659C74.1974 107.583 74.0402 108.384 73.7259 109.062C73.4115 109.737 72.9759 110.259 72.419 110.631C71.8622 110.998 71.2202 111.182 70.4929 111.182C69.9323 111.182 69.4834 111.089 69.1463 110.903C68.8092 110.714 68.5497 110.5 68.3679 110.261C68.1861 110.019 68.0459 109.818 67.9474 109.659H67.8338V114.273H66.4929ZM67.8111 106.636C67.8111 107.295 67.9077 107.877 68.1009 108.381C68.294 108.881 68.5762 109.273 68.9474 109.557C69.3187 109.837 69.7732 109.977 70.3111 109.977C70.8717 109.977 71.3395 109.83 71.7145 109.534C72.0933 109.235 72.3774 108.833 72.5668 108.33C72.7599 107.822 72.8565 107.258 72.8565 106.636C72.8565 106.023 72.7618 105.47 72.5724 104.977C72.3868 104.481 72.1046 104.089 71.7259 103.801C71.3509 103.509 70.8793 103.364 70.3111 103.364C69.7656 103.364 69.3073 103.502 68.9361 103.778C68.5649 104.051 68.2846 104.434 68.0952 104.926C67.9058 105.415 67.8111 105.985 67.8111 106.636ZM80.0384 102.273V103.409H75.5156V102.273H80.0384ZM76.8338 100.182H78.1747V108.5C78.1747 108.879 78.2296 109.163 78.3395 109.352C78.4531 109.538 78.5971 109.663 78.7713 109.727C78.9493 109.788 79.1368 109.818 79.3338 109.818C79.4815 109.818 79.6027 109.811 79.6974 109.795C79.7921 109.777 79.8679 109.761 79.9247 109.75L80.1974 110.955C80.1065 110.989 79.9796 111.023 79.8168 111.057C79.6539 111.095 79.4474 111.114 79.1974 111.114C78.8187 111.114 78.4474 111.032 78.0838 110.869C77.724 110.706 77.4247 110.458 77.1861 110.125C76.9512 109.792 76.8338 109.371 76.8338 108.864V100.182Z" fill="#D6C137"/>
<path fill-rule="evenodd" clip-rule="evenodd" d="M85 0H0V85H85V0ZM67.402 54.5551C74.8922 57.593 77.421 60.8494 78.0432 64.7275C78.6412 68.0646 77.8978 70.23 77.7848 70.5534C75.0214 80.0067 59.6131 80.3139 53.4565 74.0682C53.2695 73.8565 53.0923 73.6597 52.924 73.4727C51.9218 72.3575 51.2278 71.5862 50.5639 70.1331C53.8356 68.2507 53.836 68.2508 57.018 66.4092L57.0193 66.4084C58.7486 69.0668 60.3483 70.5292 63.2247 71.1272C67.1275 71.6036 71.0541 70.2623 70.1735 66.1177C69.649 64.1546 67.0467 63.053 64.0122 61.7682C61.8124 60.8366 59.3861 59.8094 57.3589 58.2879C52.4624 54.9997 51.3149 47.0088 55.3388 42.4435C56.6801 40.7548 58.9666 39.4944 61.3666 38.8884C61.7806 38.8361 62.1966 38.7818 62.6123 38.7276C63.0326 38.6728 63.4529 38.618 63.8711 38.5652C68.6787 38.4682 71.6843 39.7368 73.8901 42.2011C74.5042 42.823 75.0053 43.4941 75.9424 44.9484C75.4141 45.285 74.9951 45.5515 74.6304 45.7836C73.2279 46.6756 72.6325 47.0543 69.7208 48.9396C68.9371 47.2511 67.6362 46.1924 66.263 45.7321C64.13 45.0857 61.4393 45.7887 60.8817 48.0429C60.6879 48.7377 60.7283 49.3842 61.0351 50.5312C61.7351 52.1271 63.7687 52.9924 65.8979 53.8981C66.3994 54.1114 66.906 54.3273 67.402 54.5551ZM38.2581 39.0661H46.2086C46.2086 41.5053 46.2132 43.9416 46.2175 46.3764C46.2264 51.2406 46.2358 56.0975 46.2086 60.9543C46.2111 61.6139 46.2217 62.2642 46.2319 62.9038C46.2914 66.5996 46.3454 69.955 44.8027 72.7995C43.5502 75.3444 41.1587 77.0172 38.3873 77.8251C34.1292 78.8027 30.0569 78.245 27.027 76.4273C24.9989 75.1829 23.4154 73.2679 22.341 71.0621C23.4179 70.4047 24.4932 69.7451 25.5684 69.0854C26.6466 68.4237 27.7245 67.7624 28.8048 67.1032C28.855 67.1249 28.9952 67.3706 29.1852 67.7038C29.2086 67.7446 29.2323 67.7871 29.257 67.8304C30.0815 69.2121 30.7925 70.1896 32.1904 70.8764C33.564 71.3452 36.5776 71.644 37.7409 69.2282C38.3082 68.2482 38.2789 65.4997 38.244 62.2085C38.2351 61.3743 38.2258 60.5051 38.2258 59.6211C38.2258 56.1871 38.2339 52.7654 38.2419 49.3438C38.25 45.9217 38.2581 42.5 38.2581 39.0661Z" fill="#F0DB4F"/>
</svg>
