<svg width="500" height="200" viewBox="0 0 500 200" fill="none" xmlns="http://www.w3.org/2000/svg">
<g clip-path="url(#clip0_63_642)">
<path fill-rule="evenodd" clip-rule="evenodd" d="M247.897 191.403L236.874 188.769V144.31L247.897 142.209V191.403ZM325.005 180.92C317.01 180.947 310.529 174.482 310.476 166.473V166.393C310.476 158.518 316.931 152.053 324.979 152.053C333.027 152.053 339.482 158.518 339.482 166.393C339.508 174.402 333.027 180.894 325.059 180.92H325.005ZM350 166.393C350 180.228 338.818 191.43 325.005 191.43C311.193 191.43 300.011 180.228 300.011 166.393C300.011 152.744 311.22 141.543 325.032 141.543C338.844 141.543 350 152.744 350 166.393ZM208.187 188.796L219.024 191.057V161.125C219.024 146.758 207.842 141.703 200.139 141.703C195.066 141.703 190.869 142.927 187.204 146.598C183.352 142.927 178.81 141.517 175.145 141.517C169.726 141.517 165.184 143.778 162.023 147.636V142.554L151 144.656V188.769L162.023 191.03V160.779C162.023 155.884 165.529 152.558 170.921 152.558C175.995 152.558 179.66 155.884 179.66 160.779V188.796L190.497 191.057V160.779C190.497 155.884 194.163 152.558 199.422 152.558C204.495 152.558 208.161 155.884 208.161 160.779L208.187 188.796ZM291.777 141.543L285.296 142.421C273.237 145.215 265.375 149.073 265.375 162.376V188.796L276.398 190.897V163.946C276.398 157.826 279.904 155.006 285.322 153.968L291.803 152.931L291.777 141.543ZM237.405 123.318C234.775 126.005 234.775 130.262 237.405 132.95C240.088 135.717 244.524 135.743 247.259 133.056L247.366 132.95C249.995 130.289 249.995 125.979 247.366 123.318C244.55 120.684 240.194 120.684 237.405 123.318Z" fill="#050038"/>
<path fill-rule="evenodd" clip-rule="evenodd" d="M266.49 18.5703H215.625C204.894 18.5703 196.182 27.2971 196.182 38.0459V88.9963C196.182 99.7451 204.894 108.472 215.625 108.472H266.49C277.221 108.472 285.934 99.7451 285.934 88.9963V38.0459C285.934 27.2971 277.221 18.5703 266.49 18.5703ZM248.694 29.7979H258.548L276.61 41.0256L258.548 97.244H248.694L256.902 45.8679L238.84 97.244H228.985L238.016 49.0606L219.131 97.244H209.276L219.131 52.2799L209.276 29.7979H219.131L238.016 47.4642L228.985 29.7979H238.84L256.902 44.2449L248.694 29.7979Z" fill="#FFD02F"/>
</g>
<defs>
<clipPath id="clip0_63_642">
<rect width="500" height="200" fill="white"/>
</clipPath>
</defs>
</svg>
