<svg width="88" height="115" viewBox="0 0 88 115" fill="none" xmlns="http://www.w3.org/2000/svg">
<path d="M4.64347 111V99.3636H8.57528C9.48816 99.3636 10.2344 99.5284 10.8139 99.858C11.3973 100.184 11.8291 100.625 12.1094 101.182C12.3897 101.739 12.5298 102.36 12.5298 103.045C12.5298 103.731 12.3897 104.354 12.1094 104.915C11.8329 105.475 11.4048 105.922 10.8253 106.256C10.2457 106.585 9.50331 106.75 8.59801 106.75H5.77983V105.5H8.55256C9.17756 105.5 9.67945 105.392 10.0582 105.176C10.437 104.96 10.7116 104.669 10.8821 104.301C11.0563 103.93 11.1435 103.511 11.1435 103.045C11.1435 102.58 11.0563 102.163 10.8821 101.795C10.7116 101.428 10.4351 101.14 10.0526 100.932C9.66998 100.72 9.16241 100.614 8.52983 100.614H6.05256V111H4.64347ZM15.9588 105.75V111H14.6179V99.3636H15.9588V103.636H16.0724C16.277 103.186 16.5838 102.828 16.9929 102.562C17.4058 102.294 17.955 102.159 18.6406 102.159C19.2353 102.159 19.7562 102.278 20.2031 102.517C20.6501 102.752 20.9967 103.114 21.2429 103.602C21.4929 104.087 21.6179 104.705 21.6179 105.455V111H20.277V105.545C20.277 104.852 20.0971 104.316 19.7372 103.938C19.3812 103.555 18.8868 103.364 18.2543 103.364C17.8149 103.364 17.4209 103.456 17.0724 103.642C16.7277 103.828 16.455 104.098 16.2543 104.455C16.0573 104.811 15.9588 105.242 15.9588 105.75ZM27.6165 111.182C26.8286 111.182 26.1373 110.994 25.5426 110.619C24.9517 110.244 24.4896 109.72 24.1562 109.045C23.8267 108.371 23.6619 107.583 23.6619 106.682C23.6619 105.773 23.8267 104.979 24.1562 104.301C24.4896 103.623 24.9517 103.097 25.5426 102.722C26.1373 102.347 26.8286 102.159 27.6165 102.159C28.4044 102.159 29.0938 102.347 29.6847 102.722C30.2794 103.097 30.7415 103.623 31.071 104.301C31.4044 104.979 31.571 105.773 31.571 106.682C31.571 107.583 31.4044 108.371 31.071 109.045C30.7415 109.72 30.2794 110.244 29.6847 110.619C29.0938 110.994 28.4044 111.182 27.6165 111.182ZM27.6165 109.977C28.215 109.977 28.7074 109.824 29.0938 109.517C29.4801 109.21 29.7661 108.807 29.9517 108.307C30.1373 107.807 30.2301 107.265 30.2301 106.682C30.2301 106.098 30.1373 105.555 29.9517 105.051C29.7661 104.547 29.4801 104.14 29.0938 103.83C28.7074 103.519 28.215 103.364 27.6165 103.364C27.018 103.364 26.5256 103.519 26.1392 103.83C25.7528 104.14 25.4669 104.547 25.2812 105.051C25.0956 105.555 25.0028 106.098 25.0028 106.682C25.0028 107.265 25.0956 107.807 25.2812 108.307C25.4669 108.807 25.7528 109.21 26.1392 109.517C26.5256 109.824 27.018 109.977 27.6165 109.977ZM37.4134 102.273V103.409H32.8906V102.273H37.4134ZM34.2088 100.182H35.5497V108.5C35.5497 108.879 35.6046 109.163 35.7145 109.352C35.8281 109.538 35.9721 109.663 36.1463 109.727C36.3243 109.788 36.5118 109.818 36.7088 109.818C36.8565 109.818 36.9777 109.811 37.0724 109.795C37.1671 109.777 37.2429 109.761 37.2997 109.75L37.5724 110.955C37.4815 110.989 37.3546 111.023 37.1918 111.057C37.0289 111.095 36.8224 111.114 36.5724 111.114C36.1937 111.114 35.8224 111.032 35.4588 110.869C35.099 110.706 34.7997 110.458 34.5611 110.125C34.3262 109.792 34.2088 109.371 34.2088 108.864V100.182ZM42.8821 111.182C42.0942 111.182 41.4029 110.994 40.8082 110.619C40.2173 110.244 39.7552 109.72 39.4219 109.045C39.0923 108.371 38.9276 107.583 38.9276 106.682C38.9276 105.773 39.0923 104.979 39.4219 104.301C39.7552 103.623 40.2173 103.097 40.8082 102.722C41.4029 102.347 42.0942 102.159 42.8821 102.159C43.67 102.159 44.3594 102.347 44.9503 102.722C45.545 103.097 46.0071 103.623 46.3366 104.301C46.67 104.979 46.8366 105.773 46.8366 106.682C46.8366 107.583 46.67 108.371 46.3366 109.045C46.0071 109.72 45.545 110.244 44.9503 110.619C44.3594 110.994 43.67 111.182 42.8821 111.182ZM42.8821 109.977C43.4806 109.977 43.973 109.824 44.3594 109.517C44.7457 109.21 45.0317 108.807 45.2173 108.307C45.4029 107.807 45.4957 107.265 45.4957 106.682C45.4957 106.098 45.4029 105.555 45.2173 105.051C45.0317 104.547 44.7457 104.14 44.3594 103.83C43.973 103.519 43.4806 103.364 42.8821 103.364C42.2836 103.364 41.7912 103.519 41.4048 103.83C41.0185 104.14 40.7325 104.547 40.5469 105.051C40.3613 105.555 40.2685 106.098 40.2685 106.682C40.2685 107.265 40.3613 107.807 40.5469 108.307C40.7325 108.807 41.0185 109.21 41.4048 109.517C41.7912 109.824 42.2836 109.977 42.8821 109.977ZM55.0653 104.227L53.8608 104.568C53.785 104.367 53.6733 104.172 53.5256 103.983C53.3816 103.79 53.1847 103.631 52.9347 103.506C52.6847 103.381 52.3646 103.318 51.9744 103.318C51.4403 103.318 50.9953 103.441 50.6392 103.688C50.2869 103.93 50.1108 104.239 50.1108 104.614C50.1108 104.947 50.232 105.21 50.4744 105.403C50.7169 105.597 51.0956 105.758 51.6108 105.886L52.9062 106.205C53.6866 106.394 54.268 106.684 54.6506 107.074C55.0331 107.46 55.2244 107.958 55.2244 108.568C55.2244 109.068 55.0805 109.515 54.7926 109.909C54.5085 110.303 54.1108 110.614 53.5994 110.841C53.0881 111.068 52.4934 111.182 51.8153 111.182C50.9252 111.182 50.1884 110.989 49.6051 110.602C49.0218 110.216 48.6525 109.652 48.4972 108.909L49.7699 108.591C49.8911 109.061 50.1203 109.413 50.4574 109.648C50.7983 109.883 51.2434 110 51.7926 110C52.4176 110 52.9138 109.867 53.2812 109.602C53.6525 109.333 53.8381 109.011 53.8381 108.636C53.8381 108.333 53.732 108.08 53.5199 107.875C53.3078 107.667 52.982 107.511 52.5426 107.409L51.0881 107.068C50.2888 106.879 49.7017 106.585 49.3267 106.188C48.9555 105.786 48.7699 105.284 48.7699 104.682C48.7699 104.189 48.9081 103.754 49.1847 103.375C49.465 102.996 49.8456 102.699 50.3267 102.483C50.8116 102.267 51.3608 102.159 51.9744 102.159C52.8381 102.159 53.5161 102.348 54.0085 102.727C54.5047 103.106 54.857 103.606 55.0653 104.227ZM58.5838 105.75V111H57.2429V99.3636H58.5838V103.636H58.6974C58.902 103.186 59.2088 102.828 59.6179 102.562C60.0308 102.294 60.58 102.159 61.2656 102.159C61.8603 102.159 62.3812 102.278 62.8281 102.517C63.2751 102.752 63.6217 103.114 63.8679 103.602C64.1179 104.087 64.2429 104.705 64.2429 105.455V111H62.902V105.545C62.902 104.852 62.7221 104.316 62.3622 103.938C62.0062 103.555 61.5118 103.364 60.8793 103.364C60.4399 103.364 60.0459 103.456 59.6974 103.642C59.3527 103.828 59.08 104.098 58.8793 104.455C58.6823 104.811 58.5838 105.242 58.5838 105.75ZM70.2415 111.182C69.4536 111.182 68.7623 110.994 68.1676 110.619C67.5767 110.244 67.1146 109.72 66.7812 109.045C66.4517 108.371 66.2869 107.583 66.2869 106.682C66.2869 105.773 66.4517 104.979 66.7812 104.301C67.1146 103.623 67.5767 103.097 68.1676 102.722C68.7623 102.347 69.4536 102.159 70.2415 102.159C71.0294 102.159 71.7188 102.347 72.3097 102.722C72.9044 103.097 73.3665 103.623 73.696 104.301C74.0294 104.979 74.196 105.773 74.196 106.682C74.196 107.583 74.0294 108.371 73.696 109.045C73.3665 109.72 72.9044 110.244 72.3097 110.619C71.7188 110.994 71.0294 111.182 70.2415 111.182ZM70.2415 109.977C70.84 109.977 71.3324 109.824 71.7188 109.517C72.1051 109.21 72.3911 108.807 72.5767 108.307C72.7623 107.807 72.8551 107.265 72.8551 106.682C72.8551 106.098 72.7623 105.555 72.5767 105.051C72.3911 104.547 72.1051 104.14 71.7188 103.83C71.3324 103.519 70.84 103.364 70.2415 103.364C69.643 103.364 69.1506 103.519 68.7642 103.83C68.3778 104.14 68.0919 104.547 67.9062 105.051C67.7206 105.555 67.6278 106.098 67.6278 106.682C67.6278 107.265 67.7206 107.807 67.9062 108.307C68.0919 108.807 68.3778 109.21 68.7642 109.517C69.1506 109.824 69.643 109.977 70.2415 109.977ZM76.2429 114.273V102.273H77.5384V103.659H77.6974C77.7959 103.508 77.9323 103.314 78.1065 103.08C78.2846 102.841 78.5384 102.629 78.8679 102.443C79.2012 102.254 79.652 102.159 80.2202 102.159C80.955 102.159 81.6027 102.343 82.1634 102.71C82.724 103.078 83.1615 103.598 83.4759 104.273C83.7902 104.947 83.9474 105.742 83.9474 106.659C83.9474 107.583 83.7902 108.384 83.4759 109.062C83.1615 109.737 82.7259 110.259 82.169 110.631C81.6122 110.998 80.9702 111.182 80.2429 111.182C79.6823 111.182 79.2334 111.089 78.8963 110.903C78.5592 110.714 78.2997 110.5 78.1179 110.261C77.9361 110.019 77.7959 109.818 77.6974 109.659H77.5838V114.273H76.2429ZM77.5611 106.636C77.5611 107.295 77.6577 107.877 77.8509 108.381C78.044 108.881 78.3262 109.273 78.6974 109.557C79.0687 109.837 79.5232 109.977 80.0611 109.977C80.6217 109.977 81.0895 109.83 81.4645 109.534C81.8433 109.235 82.1274 108.833 82.3168 108.33C82.5099 107.822 82.6065 107.258 82.6065 106.636C82.6065 106.023 82.5118 105.47 82.3224 104.977C82.1368 104.481 81.8546 104.089 81.4759 103.801C81.1009 103.509 80.6293 103.364 80.0611 103.364C79.5156 103.364 79.0573 103.502 78.6861 103.778C78.3149 104.051 78.0346 104.434 77.8452 104.926C77.6558 105.415 77.5611 105.985 77.5611 106.636Z" fill="#194161"/>
<mask id="mask0_381_2221" style="mask-type:luminance" maskUnits="userSpaceOnUse" x="0" y="0" width="88" height="85">
<path d="M87.55 0H0V85H87.55V0Z" fill="white"/>
</mask>
<g mask="url(#mask0_381_2221)">
<path fill-rule="evenodd" clip-rule="evenodd" d="M72.0464 0.00878906H15.5036C6.9309 0.00878906 0 6.90909 0 15.4436V69.5564C0 78.0909 6.9309 84.9911 15.5036 84.9911H72.0464C80.6191 84.9911 87.55 78.0909 87.55 69.5564V15.4436C87.55 6.90909 80.6191 0.00878906 72.0464 0.00878906ZM19.6988 22.2352V59.6059C19.6988 59.9327 19.8445 60.0776 20.1365 60.0776H27.2136C27.469 60.0415 27.6514 59.8235 27.6148 59.5693V47.9116C28.308 47.9116 28.8184 47.9116 29.1835 47.9477C29.5481 47.9843 30.1316 47.9843 31.0071 47.9843C33.9987 47.9843 36.7345 47.6575 39.2152 46.7492C41.5863 45.878 43.6292 44.3526 45.0882 42.3187C46.5473 40.2849 47.277 37.7064 47.277 34.5831C47.277 32.9488 46.985 31.3872 46.438 29.8618C45.8545 28.3002 44.9425 26.8838 43.775 25.7217C42.3887 24.3779 40.7108 23.361 38.8867 22.7437C36.8441 21.981 34.3634 21.6178 31.3722 21.6178C30.2779 21.6178 29.1835 21.6178 28.0525 21.6541C27.5064 21.6716 26.9777 21.6807 26.4656 21.6895C25.9174 21.6989 25.3882 21.708 24.8786 21.7268C24.4009 21.7443 23.9407 21.7534 23.4932 21.7622C23.018 21.7716 22.5573 21.7807 22.1064 21.7994C21.2674 21.8357 20.6839 21.8357 20.0634 21.8357C19.8084 21.8357 19.6988 21.981 19.6988 22.2352ZM27.6514 41.0476V28.845C27.9068 28.8086 28.4172 28.7723 29.1469 28.8086C29.8401 28.7723 30.6791 28.7723 31.6277 28.7723C33.1232 28.736 34.5823 28.9539 35.9321 29.4986C36.9899 29.8981 37.8654 30.6245 38.4855 31.5687C39.0694 32.5493 39.361 33.6752 39.3244 34.801C39.3244 36.3989 38.9598 37.6337 38.1939 38.5417C37.3911 39.4496 36.3698 40.1396 35.2023 40.4665C33.8525 40.9023 32.43 41.1202 31.0071 41.1202H29.0738C28.6675 41.1202 28.2298 41.0889 27.7606 41.0554C27.7245 41.0528 27.6879 41.0502 27.6514 41.0476ZM66.538 37.5974C67.7782 37.8516 68.9456 38.2511 70.04 38.8322C70.1858 38.9049 70.3685 38.9049 70.6966 38.8322C70.8063 38.7596 70.8789 38.6143 70.8789 38.469V32.5493C70.8789 32.404 70.8424 32.2588 70.8063 32.1135C70.7332 31.9682 70.5874 31.823 70.4412 31.7867C69.4565 31.3872 68.3987 31.0966 67.3043 30.9513C65.8083 30.7334 64.2761 30.6245 62.7806 30.6245C60.1906 30.6245 58.0384 31.024 56.324 31.8956C54.7553 32.622 53.4055 33.7841 52.4935 35.2368C51.6911 36.5805 51.2533 38.0695 51.2533 39.6312C51.2168 40.9023 51.5087 42.1734 52.0923 43.3356C52.7854 44.5703 53.734 45.6234 54.8645 46.4224C56.4697 47.5121 58.1842 48.3838 60.0449 49.0374C61.8324 49.7276 63.036 50.272 63.6195 50.7442C64.2035 51.2164 64.495 51.6886 64.495 52.1969C64.495 52.8505 64.0938 53.468 63.5103 53.7222C62.8537 54.049 61.8685 54.2309 60.4826 54.2309C59.0232 54.2309 57.5641 54.049 56.1778 53.6861C54.573 53.3227 53.0774 52.7417 51.6545 51.9066C51.5453 51.8339 51.4356 51.7974 51.3264 51.87C51.2168 51.9427 51.1802 52.0881 51.1802 52.1969V58.5162C51.1437 58.8069 51.3264 59.0611 51.5814 59.2064C52.7489 59.7508 54.0256 60.1503 55.3023 60.3684C56.944 60.6952 58.5854 60.8405 60.2637 60.8405C62.8902 60.8405 65.079 60.441 66.8665 59.6786C68.5079 59.0245 69.9308 57.8987 70.9521 56.446C71.9007 55.0299 72.4111 53.3227 72.3745 51.6159C72.4111 50.3086 72.1195 49.0374 71.5356 47.875C70.8424 46.6404 69.8577 45.6234 68.6536 44.861C66.9026 43.7712 65.0059 42.8634 63.036 42.2097C62.1605 41.8466 61.285 41.4471 60.4461 41.0113C59.9718 40.757 59.534 40.4302 59.2059 40.0307C58.987 39.7402 58.8408 39.4133 58.8408 39.0864C58.8408 38.7596 58.9505 38.3964 59.1328 38.1059C59.3882 37.7427 59.7894 37.4885 60.2637 37.3795C60.9569 37.1979 61.7227 37.089 62.4525 37.1253C63.8384 37.1253 65.1882 37.3069 66.538 37.5974Z" fill="#194161"/>
</g>
</svg>
