<svg width="500" height="200" viewBox="0 0 500 200" fill="none" xmlns="http://www.w3.org/2000/svg">
<path fill-rule="evenodd" clip-rule="evenodd" d="M178.369 115.466L178.283 114.329H168.715L168.768 115.608C169.356 129.844 179.035 139.277 196.247 139.277C212.664 139.277 223.828 130.817 223.828 118.012C223.828 111.089 221.406 106.189 216.791 102.845C213.239 100.271 208.997 98.8183 201.957 97.306L200.41 96.9778L198.876 96.6585C186.088 94.0043 182.035 91.6916 182.035 84.8177C182.035 77.7065 187.895 73.1786 197.73 73.1786C207.298 73.1786 213.343 78.9726 213.625 88.095L213.663 89.2857H223.162L223.133 88.0307C222.803 73.8105 213.183 64.2403 197.635 64.2403C182.394 64.2403 172.331 73.336 172.331 85.1104C172.331 92.0153 174.751 96.8226 179.373 100.033C182.894 102.481 186.974 103.781 194.171 105.222C194.906 105.37 195.642 105.515 196.378 105.657C203.187 106.992 206.19 107.816 208.932 109.397C212.335 111.36 214.023 114.163 214.023 118.504C214.023 126.043 207.633 130.338 196.445 130.338C185.735 130.338 179.089 125.012 178.369 115.466V115.466ZM243.824 63.1249V61.8965H234.382V138.104H243.824V123.724L253.765 114.047L271.516 137.614L271.885 138.102H283.631L282.132 136.13L260.454 107.586L280.447 87.6958L282.556 85.5937H269.725L269.363 85.9574L243.824 111.668V63.1249V63.1249ZM332.713 114.983H333.878L333.951 113.826C333.99 113.201 334.02 112.575 334.04 111.95C334.049 111.63 334.054 111.34 334.054 111.083C334.054 95.5875 323.742 84.1724 308.504 84.1724C293.294 84.1724 282.459 96.3237 282.459 111.675C282.459 127.471 292.804 139.277 308.603 139.277C320.549 139.277 329.78 132.221 333.106 121.52L333.603 119.921H323.702L323.409 120.742C321.322 126.6 315.667 130.487 308.701 130.487C299.599 130.487 293.25 124.263 292.107 114.983H332.715H332.713ZM291.838 107.621C293.432 99.1642 299.513 93.552 307.791 93.552C316.322 93.552 322.212 98.9801 323.5 107.621H291.84H291.838ZM364.485 93.8469H365.713V85.5051H354.207V71.2761H344.765V85.5051H335.226V93.8469H344.765V123.236C344.765 132.877 349.778 138.104 358.977 138.104C360.583 138.104 361.968 138.008 363.129 137.847C363.848 137.747 364.343 137.643 364.616 137.567L365.518 137.319V128.585L364.026 128.906C363.588 128.995 363.149 129.071 362.707 129.137C361.766 129.279 360.815 129.357 359.863 129.369C355.832 129.369 354.207 127.48 354.207 122.746V93.8469H364.485V93.8469ZM393.772 139.277C406.739 139.277 415.894 130.973 418.194 119.223L418.482 117.748H409.032L408.792 118.666C406.823 126.163 401.477 130.485 393.772 130.485C384.159 130.485 377.526 122.813 377.526 111.774C377.526 100.65 384.146 92.9621 393.772 92.9621C401.477 92.9621 406.823 97.2861 408.792 104.783L409.032 105.701H418.482L418.194 104.226C415.894 92.4743 406.739 84.1724 393.772 84.1724C378.709 84.1724 368.059 96.4102 368.059 111.774C368.059 127.052 378.724 139.277 393.772 139.277V139.277ZM436.111 63.1227V61.8965H426.69V138.104H436.111V107.275C436.111 98.2595 441.59 92.9688 449.902 92.9688C457.841 92.9688 461.828 97.5743 461.828 106.293V138.104H471.25V104.914C471.25 92.5963 463.637 84.4119 451.081 84.4119C444.621 84.4119 439.428 86.7845 436.111 90.186V63.1249V63.1227Z" fill="black"/>
<path fill-rule="evenodd" clip-rule="evenodd" d="M52.5599 52.3194L84.2837 49L116.01 52.3194L140.572 84.9528L84.2859 149.827L28 84.9528L52.5599 52.3194Z" fill="#FDB300"/>
<path fill-rule="evenodd" clip-rule="evenodd" d="M50.7994 85.3457L84.2859 149.827L28 85.3457H50.7994Z" fill="#EA6C00"/>
<path fill-rule="evenodd" clip-rule="evenodd" d="M117.779 85.3457L84.2903 149.827L140.576 85.3457H117.779Z" fill="#EA6C00"/>
<path fill-rule="evenodd" clip-rule="evenodd" d="M50.2888 85.3457H117.129L83.7087 149.827L50.2888 85.3457Z" fill="#FDAD00"/>
<path fill-rule="evenodd" clip-rule="evenodd" d="M83.1226 49L52.016 52.3549L50.2888 85.3453L83.1226 49Z" fill="#FDD231"/>
<path fill-rule="evenodd" clip-rule="evenodd" d="M84.277 49L115.384 52.3549L117.111 85.3453L84.277 49Z" fill="#FDD231"/>
<path fill-rule="evenodd" clip-rule="evenodd" d="M140.576 85.3451L115.95 52.5166L117.717 85.3451H140.576Z" fill="#FDAD00"/>
<path fill-rule="evenodd" clip-rule="evenodd" d="M28 85.3451L52.6242 52.5166L50.8571 85.3451H28Z" fill="#FDAD00"/>
<path fill-rule="evenodd" clip-rule="evenodd" d="M83.7087 49L50.2888 85.3453H117.129L83.7087 49Z" fill="#FEEEB7"/>
</svg>
