<svg width="500" height="200" viewBox="0 0 500 200" fill="none" xmlns="http://www.w3.org/2000/svg">
<path d="M168.412 132.164C163.422 132.289 158.511 130.901 154.325 128.183C150.414 125.604 147.509 121.757 146.1 117.289L154.675 114.139C155.863 116.883 157.805 119.235 160.275 120.92C162.782 122.6 165.745 123.471 168.762 123.414C171.663 123.565 174.525 122.699 176.855 120.964C178.91 119.239 180.03 116.643 179.874 113.964C179.886 112.733 179.6 111.518 179.043 110.421C178.557 109.439 177.923 108.538 177.161 107.751C176.199 106.875 175.106 106.152 173.924 105.607C172.465 104.879 171.254 104.325 170.293 103.945C169.33 103.567 167.916 103.056 166.049 102.414C163.715 101.597 161.965 100.956 160.799 100.489C159.219 99.8169 157.685 99.0422 156.206 98.1701C154.614 97.3255 153.166 96.2329 151.918 94.9333C150.838 93.6644 149.967 92.2316 149.337 90.6888C146.859 84.6567 148.515 77.7159 153.449 73.452C156.95 70.3606 161.704 68.8145 167.712 68.8145C172.727 68.8145 176.854 69.9228 180.092 72.1394C183.235 74.2289 185.543 77.3576 186.611 80.9774L178.211 83.777C177.367 81.8812 175.942 80.303 174.142 79.2707C171.965 78.063 169.5 77.4729 167.012 77.5641C164.572 77.4241 162.155 78.1016 160.143 79.4893C158.475 80.7817 157.544 82.807 157.649 84.914C157.664 86.5241 158.364 88.0517 159.573 89.1145C160.736 90.2591 162.101 91.1787 163.598 91.8269C164.999 92.4104 167.128 93.1978 169.987 94.1892C171.735 94.832 173.033 95.3133 173.879 95.6332C174.725 95.9531 175.965 96.4925 177.598 97.2516C178.907 97.831 180.166 98.5189 181.36 99.3081C182.43 100.078 183.453 100.91 184.423 101.802C185.478 102.717 186.379 103.795 187.092 104.995C187.772 106.24 188.3 107.562 188.667 108.932C189.113 110.542 189.335 112.206 189.324 113.876C189.324 119.594 187.369 124.07 183.461 127.307C179.553 130.545 174.536 132.164 168.412 132.164ZM224.498 131.114L203.498 69.8642H213.298L227.21 112.564C227.979 114.86 228.622 117.197 229.135 119.564C229.647 117.197 230.29 114.86 231.06 112.564L244.798 69.8642H254.51L233.597 131.114H224.498ZM273.058 131.114V69.8647H311.033V78.44H282.159V95.2395H300.795V103.815H282.159V122.539H312.958V131.114H273.058ZM336.144 131.114V69.8647H345.245V122.364H375.169V131.114H336.144ZM409.467 78.6143V131.114H400.366V78.6143H383.043V69.8647H426.791V78.6144L409.467 78.6143ZM445.603 131.114V69.8647H483.578V78.44H454.704V95.2395H473.34V103.815H454.704V122.539H485.503V131.114H445.603Z" fill="#4A4A55"/>
<path fill-rule="evenodd" clip-rule="evenodd" d="M57.5729 48.1176C72.8221 38.4018 93.9123 42.932 104.591 58.2158C109.71 65.3813 111.726 74.3073 110.184 82.9775C109.444 87.076 107.882 90.982 105.59 94.4594C108.934 100.837 110.056 108.147 108.779 115.234C107.253 123.741 102.214 131.212 94.898 135.813L68.1167 152.882C52.8699 162.598 31.7795 158.069 21.0987 142.784C15.9804 135.618 13.9643 126.693 15.5056 118.022C16.2457 113.924 17.8092 110.017 20.1016 106.54C16.7561 100.163 15.6333 92.8529 16.9107 85.7662C18.4372 77.2594 23.4761 69.7888 30.7915 65.1866L57.5729 48.1176ZM32.1245 135.759C37.2083 143.088 46.3241 146.467 54.9564 144.223C56.8819 143.708 58.7169 142.902 60.3981 141.832L87.1774 124.766C91.5765 121.998 94.6067 117.505 95.5251 112.39C96.4522 107.175 95.2395 101.808 92.1608 97.4987C87.0769 90.1698 77.9608 86.7907 69.3283 89.0352C67.4042 89.5494 65.5704 90.3555 63.8906 91.4254L53.672 97.9378C53.1637 98.261 52.609 98.5048 52.0271 98.6607C49.4263 99.3349 46.6809 98.3158 45.15 96.1077C44.2233 94.8082 43.8586 93.1904 44.1379 91.6189C44.4146 90.0778 45.3275 88.7245 46.6527 87.8907L73.4347 70.8229C73.9429 70.4993 74.4976 70.2555 75.0796 70.0999C77.6794 69.4251 80.4242 70.4439 81.9541 72.6515C82.7724 73.8099 83.155 75.2203 83.0343 76.6334L82.9427 77.6268L83.938 77.9289C87.7031 79.0648 91.2465 80.8359 94.415 83.1655L95.7864 84.1717L96.2907 82.6338C96.5608 81.8157 96.7747 80.9801 96.9307 80.1329C97.8578 74.9188 96.645 69.551 93.5664 65.2419C88.4825 57.9132 79.3666 54.5341 70.7342 56.7785C68.8088 57.293 66.9735 58.0993 65.2923 59.1696L38.5126 76.2381C34.1131 79.0047 31.0827 83.4968 30.1648 88.6122C29.2377 93.8263 30.4505 99.194 33.5292 103.503C38.6131 110.832 47.7292 114.211 56.3618 111.967C58.2856 111.452 60.1196 110.647 61.8001 109.578L72.02 103.063C72.5275 102.74 73.0816 102.497 73.6628 102.341C76.2637 101.667 79.0091 102.686 80.5399 104.894C81.4662 106.194 81.8316 107.811 81.554 109.382C81.2758 110.923 80.3627 112.276 79.0376 113.111L52.2562 130.178C51.748 130.501 51.1933 130.745 50.6113 130.901C48.0115 131.575 45.2667 130.557 43.7368 128.349C42.9176 127.191 42.5349 125.78 42.6566 124.367L42.7482 123.374L41.7528 123.072C37.9883 121.936 34.4453 120.166 31.2765 117.837L29.9045 116.829L29.4002 118.367C29.1294 119.185 28.9155 120.021 28.7602 120.868C27.833 126.082 29.0458 131.45 32.1245 135.759Z" fill="#FF3E00"/>
</svg>
