<svg width="85" height="115" viewBox="0 0 85 115" fill="none" xmlns="http://www.w3.org/2000/svg">
<path d="M1.92898 100.614V99.3636H10.6562V100.614H6.99716V111H5.58807V100.614H1.92898ZM12.5128 114.273C12.2855 114.273 12.0829 114.254 11.9048 114.216C11.7268 114.182 11.6037 114.148 11.5355 114.114L11.8764 112.932C12.2022 113.015 12.4901 113.045 12.7401 113.023C12.9901 113 13.2116 112.888 13.4048 112.688C13.6018 112.491 13.7817 112.17 13.9446 111.727L14.1946 111.045L10.9673 102.273H12.4219L14.831 109.227H14.9219L17.331 102.273H18.7855L15.081 112.273C14.9143 112.723 14.7079 113.097 14.4616 113.392C14.2154 113.691 13.9295 113.913 13.6037 114.057C13.2817 114.201 12.9181 114.273 12.5128 114.273ZM20.5554 114.273V102.273H21.8509V103.659H22.0099C22.1084 103.508 22.2448 103.314 22.419 103.08C22.5971 102.841 22.8509 102.629 23.1804 102.443C23.5137 102.254 23.9645 102.159 24.5327 102.159C25.2675 102.159 25.9152 102.343 26.4759 102.71C27.0365 103.078 27.474 103.598 27.7884 104.273C28.1027 104.947 28.2599 105.742 28.2599 106.659C28.2599 107.583 28.1027 108.384 27.7884 109.062C27.474 109.737 27.0384 110.259 26.4815 110.631C25.9247 110.998 25.2827 111.182 24.5554 111.182C23.9948 111.182 23.5459 111.089 23.2088 110.903C22.8717 110.714 22.6122 110.5 22.4304 110.261C22.2486 110.019 22.1084 109.818 22.0099 109.659H21.8963V114.273H20.5554ZM21.8736 106.636C21.8736 107.295 21.9702 107.877 22.1634 108.381C22.3565 108.881 22.6387 109.273 23.0099 109.557C23.3812 109.837 23.8357 109.977 24.3736 109.977C24.9342 109.977 25.402 109.83 25.777 109.534C26.1558 109.235 26.4399 108.833 26.6293 108.33C26.8224 107.822 26.919 107.258 26.919 106.636C26.919 106.023 26.8243 105.47 26.6349 104.977C26.4493 104.481 26.1671 104.089 25.7884 103.801C25.4134 103.509 24.9418 103.364 24.3736 103.364C23.8281 103.364 23.3698 103.502 22.9986 103.778C22.6274 104.051 22.3471 104.434 22.1577 104.926C21.9683 105.415 21.8736 105.985 21.8736 106.636ZM33.9645 111.182C33.1236 111.182 32.3982 110.996 31.7884 110.625C31.1823 110.25 30.7145 109.727 30.3849 109.057C30.0592 108.383 29.8963 107.598 29.8963 106.705C29.8963 105.811 30.0592 105.023 30.3849 104.341C30.7145 103.655 31.1728 103.121 31.7599 102.739C32.3509 102.352 33.0402 102.159 33.8281 102.159C34.2827 102.159 34.7315 102.235 35.1747 102.386C35.6179 102.538 36.0213 102.784 36.3849 103.125C36.7486 103.462 37.0384 103.909 37.2543 104.466C37.4702 105.023 37.5781 105.708 37.5781 106.523V107.091H30.8509V105.932H36.2145C36.2145 105.439 36.116 105 35.919 104.614C35.7259 104.227 35.4493 103.922 35.0895 103.699C34.7334 103.475 34.313 103.364 33.8281 103.364C33.294 103.364 32.8319 103.496 32.4418 103.761C32.0554 104.023 31.758 104.364 31.5497 104.784C31.3414 105.205 31.2372 105.655 31.2372 106.136V106.909C31.2372 107.568 31.3509 108.127 31.5781 108.585C31.8092 109.04 32.1293 109.386 32.5384 109.625C32.9474 109.86 33.4228 109.977 33.9645 109.977C34.3168 109.977 34.6349 109.928 34.919 109.83C35.2069 109.727 35.455 109.576 35.6634 109.375C35.8717 109.17 36.0327 108.917 36.1463 108.614L37.4418 108.977C37.3054 109.417 37.0762 109.803 36.7543 110.136C36.4323 110.466 36.0346 110.723 35.5611 110.909C35.0876 111.091 34.5554 111.182 33.9645 111.182ZM46.1634 102.273C46.0952 101.697 45.8187 101.25 45.3338 100.932C44.849 100.614 44.2543 100.455 43.5497 100.455C43.0346 100.455 42.5838 100.538 42.1974 100.705C41.8149 100.871 41.5156 101.1 41.2997 101.392C41.0876 101.684 40.9815 102.015 40.9815 102.386C40.9815 102.697 41.0554 102.964 41.2031 103.188C41.3546 103.407 41.5478 103.591 41.7827 103.739C42.0175 103.883 42.2637 104.002 42.5213 104.097C42.7789 104.187 43.0156 104.261 43.2315 104.318L44.4134 104.636C44.7164 104.716 45.0535 104.826 45.4247 104.966C45.7997 105.106 46.1577 105.297 46.4986 105.54C46.8433 105.778 47.1274 106.085 47.3509 106.46C47.5743 106.835 47.6861 107.295 47.6861 107.841C47.6861 108.47 47.5213 109.038 47.1918 109.545C46.866 110.053 46.3887 110.456 45.7599 110.756C45.1349 111.055 44.3755 111.205 43.4815 111.205C42.6482 111.205 41.9266 111.07 41.3168 110.801C40.7107 110.532 40.2334 110.157 39.8849 109.676C39.5402 109.195 39.3452 108.636 39.2997 108H40.7543C40.7921 108.439 40.9399 108.803 41.1974 109.091C41.4588 109.375 41.7884 109.587 42.1861 109.727C42.5876 109.864 43.0194 109.932 43.4815 109.932C44.0194 109.932 44.5024 109.845 44.9304 109.67C45.3584 109.492 45.6974 109.246 45.9474 108.932C46.1974 108.614 46.3224 108.242 46.3224 107.818C46.3224 107.432 46.2145 107.117 45.9986 106.875C45.7827 106.633 45.4986 106.436 45.1463 106.284C44.794 106.133 44.4134 106 44.0043 105.886L42.5724 105.477C41.6634 105.216 40.9437 104.843 40.4134 104.358C39.883 103.873 39.6179 103.239 39.6179 102.455C39.6179 101.803 39.794 101.235 40.1463 100.75C40.5024 100.261 40.9796 99.8826 41.5781 99.6136C42.1804 99.3409 42.8527 99.2045 43.5952 99.2045C44.3452 99.2045 45.0118 99.339 45.5952 99.608C46.1785 99.8731 46.6406 100.237 46.9815 100.699C47.3262 101.161 47.508 101.686 47.527 102.273H46.1634ZM53.3665 111.182C52.5483 111.182 51.8438 110.989 51.2528 110.602C50.6619 110.216 50.2074 109.684 49.8892 109.006C49.571 108.328 49.4119 107.553 49.4119 106.682C49.4119 105.795 49.5748 105.013 49.9006 104.335C50.2301 103.653 50.6884 103.121 51.2756 102.739C51.8665 102.352 52.5559 102.159 53.3438 102.159C53.9574 102.159 54.5104 102.273 55.0028 102.5C55.4953 102.727 55.8987 103.045 56.2131 103.455C56.5275 103.864 56.7225 104.341 56.7983 104.886H55.4574C55.3551 104.489 55.1278 104.136 54.7756 103.83C54.4271 103.519 53.9574 103.364 53.3665 103.364C52.8438 103.364 52.3854 103.5 51.9915 103.773C51.6013 104.042 51.2964 104.422 51.0767 104.915C50.8608 105.403 50.7528 105.977 50.7528 106.636C50.7528 107.311 50.8589 107.898 51.071 108.398C51.2869 108.898 51.59 109.286 51.9801 109.562C52.3741 109.839 52.8362 109.977 53.3665 109.977C53.715 109.977 54.0312 109.917 54.3153 109.795C54.5994 109.674 54.84 109.5 55.0369 109.273C55.2339 109.045 55.3741 108.773 55.4574 108.455H56.7983C56.7225 108.97 56.535 109.434 56.2358 109.847C55.9403 110.256 55.5483 110.581 55.0597 110.824C54.5748 111.062 54.0104 111.182 53.3665 111.182ZM58.7585 111V102.273H60.054V103.591H60.1449C60.304 103.159 60.5919 102.809 61.0085 102.54C61.4252 102.271 61.8949 102.136 62.4176 102.136C62.5161 102.136 62.6392 102.138 62.7869 102.142C62.9347 102.146 63.0464 102.152 63.1222 102.159V103.523C63.0767 103.511 62.9725 103.494 62.8097 103.472C62.6506 103.445 62.482 103.432 62.304 103.432C61.8797 103.432 61.5009 103.521 61.1676 103.699C60.8381 103.873 60.5767 104.116 60.3835 104.426C60.1941 104.733 60.0994 105.083 60.0994 105.477V111H58.7585ZM64.7116 111V102.273H66.0526V111H64.7116ZM65.3935 100.818C65.1321 100.818 64.9067 100.729 64.7173 100.551C64.5317 100.373 64.4389 100.159 64.4389 99.9091C64.4389 99.6591 64.5317 99.4451 64.7173 99.267C64.9067 99.089 65.1321 99 65.3935 99C65.6548 99 65.8783 99.089 66.0639 99.267C66.2533 99.4451 66.348 99.6591 66.348 99.9091C66.348 100.159 66.2533 100.373 66.0639 100.551C65.8783 100.729 65.6548 100.818 65.3935 100.818ZM68.5085 114.273V102.273H69.804V103.659H69.9631C70.0616 103.508 70.1979 103.314 70.3722 103.08C70.5502 102.841 70.804 102.629 71.1335 102.443C71.4669 102.254 71.9176 102.159 72.4858 102.159C73.2206 102.159 73.8684 102.343 74.429 102.71C74.9896 103.078 75.4271 103.598 75.7415 104.273C76.0559 104.947 76.2131 105.742 76.2131 106.659C76.2131 107.583 76.0559 108.384 75.7415 109.062C75.4271 109.737 74.9915 110.259 74.4347 110.631C73.8778 110.998 73.2358 111.182 72.5085 111.182C71.9479 111.182 71.4991 111.089 71.1619 110.903C70.8248 110.714 70.5653 110.5 70.3835 110.261C70.2017 110.019 70.0616 109.818 69.9631 109.659H69.8494V114.273H68.5085ZM69.8267 106.636C69.8267 107.295 69.9233 107.877 70.1165 108.381C70.3097 108.881 70.5919 109.273 70.9631 109.557C71.3343 109.837 71.7888 109.977 72.3267 109.977C72.8873 109.977 73.3551 109.83 73.7301 109.534C74.1089 109.235 74.393 108.833 74.5824 108.33C74.7756 107.822 74.8722 107.258 74.8722 106.636C74.8722 106.023 74.7775 105.47 74.5881 104.977C74.4025 104.481 74.1203 104.089 73.7415 103.801C73.3665 103.509 72.8949 103.364 72.3267 103.364C71.7813 103.364 71.3229 103.502 70.9517 103.778C70.5805 104.051 70.3002 104.434 70.1108 104.926C69.9214 105.415 69.8267 105.985 69.8267 106.636ZM82.054 102.273V103.409H77.5312V102.273H82.054ZM78.8494 100.182H80.1903V108.5C80.1903 108.879 80.2453 109.163 80.3551 109.352C80.4688 109.538 80.6127 109.663 80.7869 109.727C80.965 109.788 81.1525 109.818 81.3494 109.818C81.4972 109.818 81.6184 109.811 81.7131 109.795C81.8078 109.777 81.8835 109.761 81.9403 109.75L82.2131 110.955C82.1222 110.989 81.9953 111.023 81.8324 111.057C81.6695 111.095 81.4631 111.114 81.2131 111.114C80.8343 111.114 80.4631 111.032 80.0994 110.869C79.7396 110.706 79.4403 110.458 79.2017 110.125C78.9669 109.792 78.8494 109.371 78.8494 108.864V100.182Z" fill="#007ACC"/>
<path fill-rule="evenodd" clip-rule="evenodd" d="M10 0C4.47715 0 0 4.47715 0 10V75C0 80.5229 4.47715 85 10 85H75C80.5229 85 85 80.5229 85 75V10C85 4.47715 80.5229 0 75 0H10ZM18.6362 46.1125V42.6487L18.7 42.67V39.185L33.575 39.1212C41.7562 39.1212 48.4925 39.1425 48.4925 39.2062C48.5775 39.2487 48.5775 40.8 48.5775 42.7125V46.1125H37.5275V77.5625H29.6862V46.1125H18.6362ZM73.61 42.1387C72.1225 40.5875 70.465 39.61 68.2975 39.1L68.34 39.0575C66.8737 38.675 63.3675 38.5475 61.88 38.845C57.29 39.695 54.0812 42.67 53.1675 46.92C52.87 48.1312 52.9762 51.1487 53.295 52.3812C53.72 53.805 54.6337 55.5262 55.6325 56.6312C57.375 58.4587 59.245 59.6487 63.6437 61.5187C67.4687 63.2187 68.8287 63.9837 69.5087 64.9187C69.9975 65.6625 70.1462 66.1087 70.1462 67.0863C70.1462 68.1488 69.8062 68.9137 69.02 69.6362C67.1925 71.2937 63.495 71.485 60.7325 70.0612C59.8187 69.5512 58.2462 68.0637 57.545 66.9587L56.9925 66.215L54.5912 67.6175L51.4037 69.4662L50.5962 69.9762C50.5112 70.125 52.02 72.3988 52.8062 73.2487C54.8037 75.4375 58.055 77.1375 61.455 77.775C63.0487 78.0512 66.4487 78.0937 67.9362 77.8387C72.675 77.0525 75.99 74.6512 77.35 71.1025C78.5612 67.8512 78.1575 63.5162 76.3512 60.7537C74.7575 58.2887 72.1225 56.5675 66.045 53.9537C62.7512 52.5087 61.6887 51.8075 61.115 50.6387C60.86 50.0862 60.7325 49.7037 60.7325 49.0237C60.7325 46.7925 62.4325 45.4537 64.9825 45.6237C66.7462 45.7512 67.8725 46.4312 68.9775 48.0037C69.3175 48.5562 69.6575 48.9175 69.7425 48.8537C71.9737 47.4725 75.65 44.9862 75.65 44.8587C75.565 44.4762 74.3962 42.9887 73.61 42.1387Z" fill="#007ACC"/>
</svg>
