<svg width="99" height="115" viewBox="0 0 99 115" fill="none" xmlns="http://www.w3.org/2000/svg">
<path d="M27.2301 99.3636L30.6847 109.159H30.821L34.2756 99.3636H35.7528L31.4801 111H30.0256L25.7528 99.3636H27.2301ZM42.8835 107.432V102.273H44.2244V111H42.8835V109.523H42.7926C42.5881 109.966 42.2699 110.343 41.8381 110.653C41.4063 110.96 40.8608 111.114 40.2017 111.114C39.6562 111.114 39.1714 110.994 38.7472 110.756C38.3229 110.513 37.9896 110.15 37.7472 109.665C37.5047 109.176 37.3835 108.561 37.3835 107.818V102.273H38.7244V107.727C38.7244 108.364 38.9025 108.871 39.2585 109.25C39.6184 109.629 40.0767 109.818 40.6335 109.818C40.9669 109.818 41.3059 109.733 41.6506 109.562C41.9991 109.392 42.2907 109.131 42.5256 108.778C42.7642 108.426 42.8835 107.977 42.8835 107.432ZM50.3395 111.182C49.4986 111.182 48.7732 110.996 48.1634 110.625C47.5573 110.25 47.0895 109.727 46.7599 109.057C46.4342 108.383 46.2713 107.598 46.2713 106.705C46.2713 105.811 46.4342 105.023 46.7599 104.341C47.0895 103.655 47.5478 103.121 48.1349 102.739C48.7259 102.352 49.4152 102.159 50.2031 102.159C50.6577 102.159 51.1065 102.235 51.5497 102.386C51.9929 102.538 52.3963 102.784 52.7599 103.125C53.1236 103.462 53.4134 103.909 53.6293 104.466C53.8452 105.023 53.9531 105.708 53.9531 106.523V107.091H47.2259V105.932H52.5895C52.5895 105.439 52.491 105 52.294 104.614C52.1009 104.227 51.8243 103.922 51.4645 103.699C51.1084 103.475 50.688 103.364 50.2031 103.364C49.669 103.364 49.2069 103.496 48.8168 103.761C48.4304 104.023 48.133 104.364 47.9247 104.784C47.7164 105.205 47.6122 105.655 47.6122 106.136V106.909C47.6122 107.568 47.7259 108.127 47.9531 108.585C48.1842 109.04 48.5043 109.386 48.9134 109.625C49.3224 109.86 49.7978 109.977 50.3395 109.977C50.6918 109.977 51.0099 109.928 51.294 109.83C51.5819 109.727 51.83 109.576 52.0384 109.375C52.2467 109.17 52.4077 108.917 52.5213 108.614L53.8168 108.977C53.6804 109.417 53.4512 109.803 53.1293 110.136C52.8073 110.466 52.4096 110.723 51.9361 110.909C51.4626 111.091 50.9304 111.182 50.3395 111.182ZM60.6293 99.3636H62.0384V107.682C62.0384 108.424 61.902 109.055 61.6293 109.574C61.3565 110.093 60.9721 110.487 60.4759 110.756C59.9796 111.025 59.3944 111.159 58.7202 111.159C58.0838 111.159 57.5175 111.044 57.0213 110.812C56.5251 110.578 56.1349 110.244 55.8509 109.812C55.5668 109.381 55.4247 108.867 55.4247 108.273H56.8111C56.8111 108.602 56.8925 108.89 57.0554 109.136C57.2221 109.379 57.4493 109.568 57.7372 109.705C58.0251 109.841 58.3527 109.909 58.7202 109.909C59.1255 109.909 59.4702 109.824 59.7543 109.653C60.0384 109.483 60.2543 109.233 60.402 108.903C60.5535 108.57 60.6293 108.163 60.6293 107.682V99.3636ZM71.2259 102.273C71.1577 101.697 70.8812 101.25 70.3963 100.932C69.9115 100.614 69.3168 100.455 68.6122 100.455C68.0971 100.455 67.6463 100.538 67.2599 100.705C66.8774 100.871 66.5781 101.1 66.3622 101.392C66.1501 101.684 66.044 102.015 66.044 102.386C66.044 102.697 66.1179 102.964 66.2656 103.188C66.4171 103.407 66.6103 103.591 66.8452 103.739C67.08 103.883 67.3262 104.002 67.5838 104.097C67.8414 104.187 68.0781 104.261 68.294 104.318L69.4759 104.636C69.7789 104.716 70.116 104.826 70.4872 104.966C70.8622 105.106 71.2202 105.297 71.5611 105.54C71.9058 105.778 72.1899 106.085 72.4134 106.46C72.6368 106.835 72.7486 107.295 72.7486 107.841C72.7486 108.47 72.5838 109.038 72.2543 109.545C71.9285 110.053 71.4512 110.456 70.8224 110.756C70.1974 111.055 69.438 111.205 68.544 111.205C67.7107 111.205 66.9891 111.07 66.3793 110.801C65.7732 110.532 65.2959 110.157 64.9474 109.676C64.6027 109.195 64.4077 108.636 64.3622 108H65.8168C65.8546 108.439 66.0024 108.803 66.2599 109.091C66.5213 109.375 66.8509 109.587 67.2486 109.727C67.6501 109.864 68.0819 109.932 68.544 109.932C69.0819 109.932 69.5649 109.845 69.9929 109.67C70.4209 109.492 70.7599 109.246 71.0099 108.932C71.2599 108.614 71.3849 108.242 71.3849 107.818C71.3849 107.432 71.277 107.117 71.0611 106.875C70.8452 106.633 70.5611 106.436 70.2088 106.284C69.8565 106.133 69.4759 106 69.0668 105.886L67.6349 105.477C66.7259 105.216 66.0062 104.843 65.4759 104.358C64.9455 103.873 64.6804 103.239 64.6804 102.455C64.6804 101.803 64.8565 101.235 65.2088 100.75C65.5649 100.261 66.0421 99.8826 66.6406 99.6136C67.2429 99.3409 67.9152 99.2045 68.6577 99.2045C69.4077 99.2045 70.0743 99.339 70.6577 99.608C71.241 99.8731 71.7031 100.237 72.044 100.699C72.3887 101.161 72.5705 101.686 72.5895 102.273H71.2259Z" fill="#41B883"/>
<g clip-path="url(#clip0_381_2213)">
<path d="M78.6963 0H98.3704L49.1852 84.9231L0 0H37.6267L49.1852 19.6923L60.4978 0H78.6963Z" fill="#41B883"/>
<path d="M0 0L49.1852 84.9231L98.3704 0H78.6963L49.1852 50.9538L19.4281 0H0Z" fill="#41B883"/>
<path d="M19.4277 0L49.1848 51.2L78.6959 0H60.4974L49.1848 19.6923L37.6263 0H19.4277Z" fill="#35495E"/>
</g>
<defs>
<clipPath id="clip0_381_2213">
<rect width="98.3796" height="85" fill="white"/>
</clipPath>
</defs>
</svg>
