<svg width="400" height="179" viewBox="0 0 400 179" fill="none" xmlns="http://www.w3.org/2000/svg">
<g clip-path="url(#clip0_2494_688)">
<path d="M0.36 0.160156C27.08 10.9735 53.68 22.0935 80.3867 32.9468C84.6667 34.4935 88.8133 37.7602 89.44 42.5468C90.0133 47.9068 89.88 53.3202 89.6133 58.6802C89.52 63.2135 86.4 67.2535 82.2533 68.9068C72.7333 73.0268 63.0133 76.7068 53.48 80.8268C63.0533 84.7735 72.6933 88.5602 82.2 92.6268C87.3067 94.5468 90.2133 99.9735 89.76 105.307C89.64 115.12 89.9467 124.947 89.6133 134.76C89.5067 139.64 85.7867 143.627 81.3733 145.253C54.2267 156.293 27.2133 167.667 0 178.52V132.667C4.13333 129.96 8.84 128.4 13.3733 126.52C32.5333 118.64 51.6667 110.72 70.84 102.893C73.56 102.12 75.4267 100.267 75.44 97.3202C65.0933 92.9335 54.68 88.7068 44.28 84.4535C29.6933 90.6002 15.0133 96.5202 0.413333 102.613C0.413333 92.7868 0.44 82.9602 0.4 73.1335C23.8533 63.4535 47.3067 53.7868 70.7867 44.2002C72.44 43.4668 74.0667 42.6135 75.44 41.4002C75.9467 38.1468 72.56 37.4002 70.3067 36.2935C47 26.8135 23.7733 17.1335 0.466667 7.64016C0.44 5.14682 0.413333 2.65349 0.36 0.160156Z" fill="black"/>
<path d="M281.227 43.0143C284.747 42.9876 288.253 42.9743 291.773 42.9877C291.667 53.5077 291.853 64.0277 291.653 74.5477C298.2 63.281 314.573 61.3877 324.533 69.0543C333.52 75.8143 336.667 87.841 336.133 98.6143C335.64 107.534 332.547 116.974 325.227 122.601C319.04 127.454 310.36 128.641 302.947 126.268C297.933 124.641 294.413 120.521 291.28 116.508C291.32 119.721 291.333 122.934 291.373 126.161C287.987 126.161 284.6 126.161 281.227 126.134C281.227 98.4277 281.213 70.721 281.227 43.0143ZM304.293 73.7077C294.893 77.0677 291.48 88.201 291.947 97.3343C292.32 105.068 295.587 113.534 302.84 117.214C308.227 120.081 315.413 118.814 319.32 114.081C323.853 108.801 324.96 101.481 324.8 94.7343C324.547 88.5343 323.2 81.8943 318.8 77.241C315.227 73.3343 309.267 71.881 304.293 73.7077Z" fill="black"/>
<path d="M349.973 55.3062C354.627 48.7595 362.733 45.5462 370.587 45.4529C378.813 44.9862 387.733 47.0129 393.547 53.1995C400.173 59.8529 400.8 71.4529 394.893 78.7595C392.56 82.0395 388.933 83.9195 385.347 85.5195C392.907 87.6129 399.16 93.6529 400 101.693V107.253C399 116.146 392.187 123.466 383.8 126.093C373.32 129.386 360.693 128.56 352.053 121.226C346 116.28 343.653 108.44 343.133 100.906C346.947 100.853 350.76 100.8 354.573 100.746C355.213 104.72 355.627 109.026 358.307 112.253C364.253 119.773 376.52 120.28 383.787 114.453C389.587 109.88 390.413 100.146 384.987 94.9729C380.44 90.5195 373.68 90.3329 367.72 90.2662C367.733 87.2795 367.747 84.3062 367.76 81.3195C373.053 81.1462 378.853 81.2129 383.32 77.8929C390.187 72.9462 389.307 60.8929 381.733 57.0395C374.92 53.5729 365.227 53.8262 359.933 59.8929C357.067 63.0529 356.56 67.4395 355.84 71.4529C352.107 71.4662 348.373 71.4662 344.64 71.4395C345.48 65.8262 346.413 59.9329 349.973 55.3062Z" fill="black"/>
<path d="M231.76 65.934C241.787 62.254 254.387 63.294 262.267 71.0273C269.56 78.2807 271.213 89.094 271.4 98.934C255.867 98.934 240.32 98.9073 224.787 98.9473C225.373 102.614 225.64 106.481 227.573 109.761C232.507 118.601 245.227 121.841 253.747 116.347C256.987 114.361 258.507 110.734 260.027 107.441C263.813 107.401 267.6 107.401 271.387 107.441C269.44 115.067 264.653 122.321 257.107 125.294C245.933 129.694 231.707 128.587 222.827 119.921C214.573 111.707 212.707 99.0007 214.667 87.934C216.28 78.4007 222.493 69.374 231.76 65.934ZM230.173 78.1873C226.973 81.654 225.88 86.3873 224.92 90.8673C236.667 90.9073 248.413 90.9073 260.16 90.8807C259.64 87.254 259.307 83.3873 257.093 80.334C251.453 71.454 237.173 70.374 230.173 78.1873Z" fill="black"/>
<path d="M158.44 66.0003C163.08 65.9603 167.72 65.9603 172.36 65.9603C176.76 82.5069 181.547 98.9336 185.667 115.547C190.627 99.1336 194.613 82.4403 199.24 65.9336C202.68 65.9469 206.107 65.9736 209.547 66.0003C203.64 86.0536 197.987 106.187 192.16 126.267C187.853 126.267 183.533 126.267 179.227 126.254C174.52 109.067 169.773 91.9069 165.16 74.6936C159.947 91.7869 155.32 109.067 150.36 126.24C145.973 126.267 141.6 126.267 137.213 126.254C131.587 106.174 126.107 86.0403 120.387 65.9869C124.027 65.9736 127.667 65.9603 131.32 65.9336C135.72 82.3203 139.547 98.8536 144.2 115.16C149.107 98.8269 153.693 82.3869 158.44 66.0003Z" fill="black"/>
</g>
<defs>
<clipPath id="clip0_2494_688">
<rect width="400" height="178.667" fill="white"/>
</clipPath>
</defs>
</svg>
