<svg width="500" height="200" viewBox="0 0 500 200" fill="none" xmlns="http://www.w3.org/2000/svg">
<path d="M81.4121 112.397L34.8205 129.349L16.865 109.27L72.8598 88.8889L81.4121 112.397Z" fill="#F89920" stroke="black"/>
<path d="M90.1766 136.458L34.1815 156.839L35.0244 129.901L81.6244 112.949L90.1766 136.458Z" fill="#FFBE22" stroke="black"/>
<path d="M45.1187 126.704L193.068 72.8525C196.779 84.3218 192.343 97.6082 181.885 109.946C171.29 122.445 154.579 133.883 134.207 141.3C113.834 148.718 93.68 150.7 77.5294 147.936C61.5873 145.207 49.6476 137.879 45.1187 126.704Z" fill="#F0670A" stroke="black"/>
<path d="M103.618 57.2453C124.011 49.8236 144.186 47.8467 160.345 50.624C176.295 53.3655 188.231 60.7138 192.733 71.9143L44.7759 125.724C41.0257 114.271 45.4458 100.98 55.9036 88.6309C66.4976 76.1212 83.2239 64.6671 103.618 57.2453Z" fill="#FFD00E" stroke="black"/>
<path d="M45.1443 126.694L193.052 72.8586C194.047 76.518 193.232 80.6963 190.785 85.1814C188.227 89.8704 183.911 94.8444 178.142 99.8113C166.607 109.743 149.342 119.579 129.007 127.001C108.673 134.423 89.1241 137.985 73.8996 137.781C66.2858 137.68 59.7793 136.637 54.8038 134.684C50.0446 132.816 46.7332 130.135 45.1443 126.694Z" fill="#F89920" stroke="black"/>
<path d="M108.821 71.5348C129.188 64.1212 148.766 60.56 164 60.7705C171.619 60.8758 178.125 61.9243 183.093 63.8866C187.847 65.7642 191.146 68.4578 192.714 71.9184L44.7996 125.756C43.7759 122.095 44.5716 117.911 47.0067 113.416C49.5515 108.719 53.862 103.734 59.631 98.7564C71.1665 88.8035 88.4542 78.9483 108.821 71.5348Z" fill="#FFBE22" stroke="black"/>
<path d="M134.16 142.658C134.209 142.683 134.267 142.72 134.324 142.775C134.497 142.943 134.533 143.159 134.52 143.338L134.16 142.658ZM134.16 142.658C134.149 142.589 134.133 142.495 134.107 142.397C134.082 142.3 134.039 142.166 133.965 142.045C133.899 141.937 133.733 141.721 133.431 141.702L133.431 141.702L133.398 142.201L133.427 141.702L134.16 142.658ZM123.141 167.825C122.242 167.848 121.304 167.476 120.327 166.662C119.348 165.845 118.357 164.605 117.371 162.956C115.401 159.659 113.505 154.818 111.77 148.74C108.3 136.594 105.499 119.616 103.975 100.449L103.975 100.449C102.473 81.5963 102.532 64.5616 103.922 52.2261C104.617 46.0537 105.642 41.0868 106.957 37.6632C107.615 35.95 108.334 34.6534 109.097 33.7867C109.856 32.9243 110.626 32.5215 111.405 32.4997L111.405 32.4997C112.145 32.4787 112.964 32.8104 113.858 33.5852C114.752 34.3599 115.683 35.5465 116.631 37.1479C118.524 40.3492 120.431 45.1184 122.228 51.2943L122.359 51.7423L122.815 51.6431L124.791 51.2135L124.709 50.8353L125.185 50.7678V50.7249V50.1045L125.023 50.1397C125.07 50.302 125.118 50.465 125.165 50.629L124.833 50.7249L123.141 167.825ZM123.141 167.825L123.155 168.325M123.141 167.825L103.476 100.489C106.527 138.863 114.699 168.54 123.155 168.325M123.141 167.825C123.142 167.825 123.142 167.825 123.143 167.825L123.155 168.325M123.141 167.825L132.075 142.382M123.155 168.325C127.762 168.197 130.983 158.76 132.075 142.382M132.075 142.382C132.081 142.293 132.087 142.204 132.092 142.115L132.075 142.382ZM133.678 142.837C134.035 142.808 134.136 142.799 134.165 142.797C134.165 142.797 134.165 142.797 134.165 142.797L133.678 142.837Z" fill="#F0670A" stroke="black"/>
<path d="M100.978 58.4248C101.09 58.4585 101.239 58.4756 101.396 58.4193C101.556 58.3622 101.658 58.2532 101.719 58.1585C101.816 58.0057 101.847 57.8198 101.861 57.7333L101.863 57.7262C101.869 57.6903 101.873 57.6589 101.878 57.6307C101.889 57.5595 101.897 57.5084 101.911 57.455C101.918 57.4282 101.924 57.4125 101.927 57.4047C102.197 57.1315 102.36 56.7584 102.36 56.3604C102.36 55.9659 102.212 55.5904 101.93 55.3019L101.93 55.3016C96.0843 49.3314 90.9413 44.9463 86.647 42.4176C82.3901 39.9109 78.7848 39.125 76.1661 40.7373L74.8869 41.5248L75.2081 41.554L101.121 57.9459M100.978 58.4248L101.121 57.9459M100.978 58.4248C100.978 58.4249 100.978 58.425 100.979 58.4251L101.121 57.9459M100.978 58.4248C100.872 58.3932 100.786 58.333 100.75 58.3074C100.699 58.2711 100.645 58.2283 100.595 58.1857C100.494 58.0997 100.379 57.9932 100.272 57.8896C100.061 57.6862 99.8551 57.4731 99.7847 57.3979M101.121 57.9459C100.962 57.8986 100.266 57.1811 100.146 57.0522M99.7847 57.3979C99.786 57.3993 99.7874 57.4007 99.7887 57.402L100.146 57.0522M99.7847 57.3979C94.3353 51.8354 89.5723 47.7886 85.7559 45.4013C83.8459 44.2065 82.1963 43.4423 80.8331 43.1025C79.4665 42.7618 78.4532 42.8623 77.743 43.2989M99.7847 57.3979C99.7832 57.3963 99.7817 57.3948 99.7804 57.3933L100.146 57.0522M100.146 57.0522L77.743 43.2989M77.743 43.2989C77.7431 43.2989 77.7432 43.2988 77.7433 43.2987L77.4809 42.8731L77.7428 43.299C77.7428 43.299 77.7429 43.299 77.743 43.2989ZM77.743 43.2989C77.0799 43.7079 76.6146 44.4425 76.3885 45.5693C76.1612 46.7019 76.187 48.1846 76.4741 49.9973C77.0478 53.6198 78.6436 58.4335 81.1278 64.1259C86.0925 75.5022 94.5581 90.2821 105.284 105.858C116.191 121.696 127.105 135.003 136.181 143.79C140.722 148.186 144.783 151.432 148.137 153.302C149.815 154.237 151.293 154.815 152.549 155.032C153.802 155.248 154.801 155.1 155.57 154.629L155.831 155.055L155.57 154.629C156.317 154.17 156.849 153.371 157.121 152.169C157.394 150.959 157.396 149.375 157.099 147.423C156.507 143.523 154.747 138.279 151.822 131.897M77.743 43.2989L151.822 131.897M151.822 131.897C151.824 131.901 151.826 131.904 151.827 131.907L152.273 131.681L151.819 131.89C151.82 131.892 151.821 131.895 151.822 131.897ZM154.587 130.647C154.586 130.644 154.585 130.642 154.584 130.639L154.129 130.848L154.592 130.657C154.59 130.654 154.589 130.65 154.587 130.647Z" fill="#F0670A" stroke="black"/>
<path fill-rule="evenodd" clip-rule="evenodd" d="M283.511 112.008H305.381V122.934H270.758V77.3895H305.381V88.3202H283.511V93.7899H297.174V104.725H283.511V112.008ZM382.82 112.008H402.864V122.934H370.067V77.3895H382.829L382.82 112.008ZM415.621 77.3852H428.382V122.934H415.621V77.3852ZM442.948 77.3852V122.934H454.794V97.4206L471.194 122.934H483.04V77.3809H471.194V103.273L454.794 77.4496L442.948 77.3852Z" fill="#574751"/>
<path d="M330.888 98.3401H340.014C340.731 98.3401 341.441 98.1986 342.104 97.9239C342.767 97.6491 343.368 97.2464 343.875 96.7388C344.382 96.2312 344.784 95.6286 345.058 94.9656C345.331 94.3025 345.472 93.592 345.47 92.8747C345.472 92.157 345.332 91.446 345.059 90.7825C344.785 90.119 344.384 89.5159 343.877 89.0078C343.37 88.4997 342.768 88.0966 342.105 87.8216C341.442 87.5466 340.731 87.405 340.014 87.405H330.883L330.888 98.3401ZM341.835 77.3852C345.943 77.3852 349.879 79.0179 352.783 81.9224C355.688 84.827 357.316 88.7671 357.316 92.879C357.316 96.9909 355.684 100.927 352.783 103.836C349.883 106.744 345.943 108.373 341.835 108.373H332.168V122.934H319.046V77.3809H341.831L341.835 77.3852Z" fill="#574751"/>
<path fill-rule="evenodd" clip-rule="evenodd" d="M256.184 88.3161V77.3896H218.829V88.3204H239.784L218.829 112.012V122.947H256.184V112.012H236.14L256.184 88.3161Z" fill="#574751"/>
</svg>
