<svg width="127" height="26" viewBox="0 0 127 26" fill="none" xmlns="http://www.w3.org/2000/svg">
<path fill-rule="evenodd" clip-rule="evenodd" d="M36.8132 14.5259C36.5176 13.9364 36.3681 13.3107 36.3681 12.6554C36.3681 11.4714 36.7918 10.4532 37.6376 9.60744C38.3175 8.92756 39.1057 8.5285 40.0057 8.4004C40.904 8.27395 41.7563 8.40861 42.5577 8.81424C42.2654 9.1082 41.845 9.52369 41.3096 10.0492C40.7677 10.5813 40.2093 11.1364 39.623 11.7193C39.0433 12.3007 38.4915 12.8492 37.9726 13.3681C37.4553 13.8871 37.0677 14.2763 36.8132 14.5259M45.719 14.3124C45.3298 14.3124 44.9767 14.4701 44.7205 14.7246V14.7246L43.7335 15.7132C43.0569 16.3898 42.2703 16.7988 41.3704 16.9318C40.4704 17.0681 39.6181 16.9367 38.8151 16.5327L45.7124 9.63372V9.63207C45.9702 9.37424 46.1295 9.01788 46.1295 8.62703C46.1295 8.24768 45.9785 7.90445 45.7354 7.6499V7.64169C45.0375 6.9421 44.2508 6.42152 43.369 6.07501C42.4904 5.72357 41.597 5.54785 40.6872 5.54785C39.7807 5.54785 38.884 5.72357 38.0054 6.07501C37.1252 6.42152 36.3369 6.9421 35.639 7.64169C34.9394 8.33964 34.4221 9.12791 34.0822 9.99665C33.7406 10.8637 33.5747 11.7505 33.5747 12.6603C33.5747 13.5734 33.7406 14.4652 34.0822 15.3437C34.4221 16.2207 34.9394 17.0106 35.639 17.7086C36.3172 18.3901 37.0891 18.9057 37.9545 19.2654C38.8233 19.625 39.7347 19.8057 40.6872 19.8057C41.6381 19.8057 42.5511 19.625 43.4199 19.2654C44.2886 18.9057 45.0588 18.3901 45.7354 17.7086L46.7109 16.7364C46.9737 16.4785 47.1346 16.1238 47.1346 15.7264C47.1346 14.9463 46.5007 14.3124 45.719 14.3124" fill="black"/>
<path fill-rule="evenodd" clip-rule="evenodd" d="M75.8773 17.3469C75.764 16.6423 75.6638 15.9953 75.1613 15.028C74.662 14.0624 73.9789 13.2594 73.1118 12.6238C73.9789 11.9817 74.662 11.1836 75.1613 10.2278C75.6638 9.26874 75.9167 8.21279 75.9167 7.05501H75.9151C75.9151 7.0468 75.9167 7.03859 75.9167 7.02874C75.9167 6.27003 75.3025 5.65419 74.5438 5.65419C73.7867 5.65419 73.1709 6.27003 73.1709 7.02874C73.1709 7.03859 73.1742 7.0468 73.1742 7.05501H73.1709C73.1709 7.63636 73.0609 8.18158 72.8457 8.6956C72.6273 9.20962 72.3301 9.65959 71.9491 10.0422C71.5664 10.4232 71.1247 10.7221 70.6205 10.9405C70.1147 11.154 69.5728 11.2608 68.9963 11.2608C68.213 11.2608 67.4674 11.3839 66.758 11.6335C66.0453 11.8799 65.3917 12.2264 64.7939 12.6796V1.39425C64.7939 1.38768 64.7955 1.38111 64.7955 1.37455C64.7955 0.615836 64.1797 0 63.4193 0C62.6606 0 62.0464 0.615836 62.0448 1.37126H62.0415V16.8394V18.2271H62.0431C62.0431 18.9874 62.659 19.6016 63.4177 19.6016C64.1764 19.6016 64.7922 18.9874 64.7922 18.2271H64.7939V18.0875C64.7939 17.5127 64.9006 17.0562 65.1158 16.5569C65.3325 16.0511 65.6314 15.6094 66.0124 15.23C66.3934 14.8474 66.8401 14.5518 67.3574 14.335C67.8747 14.1166 68.4183 14.0115 68.9963 14.0115C69.5728 14.0115 70.1147 14.1166 70.6205 14.335C71.1247 14.5518 71.5664 14.8474 71.9474 15.23C72.3301 15.6094 72.6273 16.0511 72.8457 16.5569C73.0609 17.0562 73.1709 17.7246 73.1709 17.9545V18.2025H73.1725V18.2041C73.1725 18.9628 73.7867 19.5787 74.5438 19.5787C75.3025 19.5787 75.9183 18.9628 75.9183 18.2041C75.9183 18.1975 75.9151 18.1893 75.9151 18.1811L75.8773 17.3469Z" fill="black"/>
<path fill-rule="evenodd" clip-rule="evenodd" d="M59.8816 12.4683C59.5006 12.0939 59.0555 11.8016 58.5464 11.5815C58.0423 11.3681 57.4971 11.2564 56.9173 11.2564H51.3272C50.9364 11.2564 50.603 11.1152 50.3369 10.836C50.0643 10.5584 49.9346 10.2218 49.9346 9.82272C49.9346 9.42694 50.0643 9.09521 50.3369 8.82753C50.603 8.55492 50.9364 8.42025 51.3272 8.42025H58.5497C58.5579 8.4219 58.5661 8.42354 58.5744 8.42354C59.338 8.42354 59.9555 7.80442 59.9555 7.04078C59.9555 6.27715 59.338 5.65967 58.5744 5.65967V5.65967H51.3272C50.7491 5.65967 50.2088 5.77134 49.7014 5.98647C49.1939 6.20489 48.7555 6.4972 48.3827 6.87163C48.0066 7.24278 47.7127 7.68782 47.4926 8.19363C47.2791 8.70272 47.1724 9.24465 47.1724 9.82272C47.1724 10.4024 47.2791 10.946 47.4926 11.4567C47.7127 11.9642 48.0066 12.4092 48.3827 12.7902C48.7555 13.1761 49.1939 13.4767 49.7014 13.6918C50.2088 13.9102 50.7491 14.0186 51.3272 14.0186H56.9173C57.3328 14.0186 57.6711 14.1516 57.9405 14.421C58.2114 14.6903 58.3477 15.022 58.3477 15.4112C58.3477 15.8251 58.2114 16.1666 57.9405 16.4343C57.6711 16.702 57.3328 16.8334 56.9173 16.8334H49.7917V16.8367C49.7901 16.8367 49.7884 16.835 49.7868 16.835C49.0232 16.835 48.404 17.4542 48.404 18.2178C48.404 18.9814 49.0232 19.6005 49.7868 19.6005C49.7934 19.6005 49.8016 19.5973 49.8114 19.5973H56.9173C57.4971 19.5973 58.0423 19.4872 58.5464 19.2737C59.0555 19.0586 59.5006 18.7548 59.8816 18.3754C60.2642 17.9895 60.5664 17.5461 60.7832 17.0387C61.0016 16.5345 61.11 15.9926 61.11 15.4112C61.11 14.8332 61.0016 14.2929 60.7832 13.7854C60.5664 13.278 60.2642 12.8411 59.8816 12.4683" fill="black"/>
<path fill-rule="evenodd" clip-rule="evenodd" d="M10.8584 14.4971C10.64 15.0161 10.3428 15.4677 9.95847 15.8487C9.57419 16.233 9.12751 16.5319 8.6217 16.7503C8.11097 16.9654 7.56739 17.0754 6.98933 17.0754C6.41126 17.0754 5.85947 16.9654 5.34217 16.7503C4.82487 16.5319 4.37161 16.233 3.99062 15.8487C3.60633 15.4677 3.30416 15.0161 3.08739 14.4971C2.87226 13.9782 2.76059 13.4264 2.76059 12.8467V8.6508H6.98933C7.56739 8.6508 8.11097 8.76247 8.6217 8.98088C9.12751 9.19602 9.57419 9.49819 9.95847 9.88247C10.3428 10.2651 10.64 10.7085 10.8584 11.216C11.0785 11.7218 11.1836 12.2719 11.1836 12.8467C11.1836 13.4264 11.0785 13.9782 10.8584 14.4971M11.916 7.92165C11.2821 7.28775 10.5497 6.79508 9.70721 6.43215C8.87132 6.06757 7.96152 5.88857 6.98933 5.88857H2.76059V1.61877V1.61385V1.61056V1.57115H2.7573C2.73431 0.830504 2.12833 0.234375 1.38111 0.234375C0.6339 0.234375 0.0279179 0.830504 0.00492669 1.57115H0V12.8418C0 13.7992 0.177361 14.7008 0.541936 15.5498C0.903226 16.3988 1.40739 17.1444 2.05114 17.7882C2.69161 18.4286 3.43718 18.9328 4.28786 19.2941C5.13525 19.6587 6.03519 19.8393 6.98933 19.8393C7.96152 19.8393 8.87132 19.6587 9.71214 19.2941C10.5497 18.9328 11.2854 18.4319 11.916 17.7914C12.5483 17.1444 13.0442 16.4005 13.4055 15.5531C13.7668 14.7024 13.9524 13.8008 13.9524 12.8467C13.9524 11.8745 13.7668 10.968 13.4055 10.1288C13.0442 9.29127 12.5483 8.55555 11.916 7.92165" fill="black"/>
<path fill-rule="evenodd" clip-rule="evenodd" d="M17.5966 1.45844C17.5966 0.694804 16.9774 0.0756836 16.2138 0.0756836C15.4567 0.0756836 14.8442 0.683308 14.8327 1.43709H14.8311V18.2125C14.8311 18.9777 15.4502 19.5969 16.2138 19.5969C16.9774 19.5969 17.5966 18.9777 17.5966 18.2125C17.5966 18.2026 17.5933 18.1911 17.5933 18.1829V1.49128C17.5933 1.47979 17.5966 1.46994 17.5966 1.45844" fill="black"/>
<path fill-rule="evenodd" clip-rule="evenodd" d="M31.2413 5.65381C30.4777 5.65381 29.8586 6.27293 29.8586 7.03657C29.8586 7.04642 29.8618 7.05627 29.8618 7.06613V12.6152C29.8618 13.1949 29.7551 13.7418 29.5367 14.2607C29.3166 14.7764 29.0161 15.228 28.6335 15.6123C28.2508 15.9982 27.7992 16.2938 27.2819 16.5155C26.763 16.7339 26.2161 16.8374 25.6331 16.8374C25.055 16.8374 24.5082 16.7339 24.0007 16.5155C23.4916 16.2938 23.0499 15.9982 22.6672 15.6123C22.2813 15.228 21.9824 14.7764 21.764 14.2607C21.5489 13.7418 21.4356 13.1949 21.4356 12.6152V7.05627C21.4356 7.05135 21.4389 7.04313 21.4389 7.03657C21.4389 6.27293 20.8197 5.65381 20.0545 5.65381C19.2925 5.65381 18.6733 6.27293 18.6733 7.03657C18.6733 7.04149 18.6733 7.04478 18.6733 7.04806V12.6152C18.6733 13.5628 18.854 14.466 19.2186 15.3167C19.5782 16.1674 20.0742 16.9096 20.7081 17.5534C21.342 18.1955 22.0842 18.6931 22.9284 19.061C23.779 19.4239 24.6823 19.6029 25.6331 19.6029C26.6069 19.6029 27.5135 19.4239 28.3559 19.061C29.1902 18.6931 29.9357 18.1955 30.5713 17.5534C31.2183 16.9096 31.7192 16.1674 32.0838 15.3167C32.4434 14.466 32.6274 13.5628 32.6274 12.6152V7.02835H32.6224C32.6191 6.268 32.0017 5.65381 31.2413 5.65381" fill="black"/>
<path fill-rule="evenodd" clip-rule="evenodd" d="M90.8592 7.03497C90.8576 6.27133 90.2385 5.65385 89.4765 5.65385C88.7129 5.65385 88.0937 6.27297 88.0937 7.03661C88.0937 7.04154 88.0937 7.04646 88.0954 7.05303V12.658C88.0954 13.2377 87.987 13.7878 87.7686 14.3068C87.5502 14.8224 87.2546 15.2757 86.8653 15.6583C86.486 16.0393 86.0393 16.3415 85.5335 16.5599C85.0228 16.7783 84.4792 16.8851 83.8995 16.8851C83.3214 16.8851 82.7729 16.7783 82.2507 16.5599C81.7334 16.3415 81.2851 16.0393 80.9041 15.6583C80.5181 15.2757 80.216 14.8224 79.9975 14.3068C79.7824 13.7878 79.6724 13.2377 79.6724 12.658V7.03497H79.6691C79.6691 7.03332 79.6707 7.03168 79.6707 7.03004C79.6707 6.26805 79.0533 5.64893 78.2896 5.64893C77.5276 5.64893 76.9102 6.26805 76.9102 7.03004V7.03661V12.658C76.9102 13.6105 77.0875 14.5104 77.4521 15.3611C77.8167 16.2134 78.3175 16.9557 78.958 17.5994C79.6018 18.2399 80.3457 18.7408 81.198 19.1053C82.0487 19.465 82.9486 19.6489 83.9011 19.6489C84.6878 19.6489 85.4382 19.5225 86.1543 19.2794C86.8653 19.0282 87.5173 18.6767 88.0954 18.2185V18.2497C88.0954 18.8311 87.987 19.3763 87.7686 19.8936C87.5502 20.4126 87.2546 20.8592 86.8653 21.2452C86.486 21.6295 86.0393 21.9267 85.5335 22.1451C85.0228 22.3602 84.4792 22.4719 83.9011 22.4719H82.5003V22.4736H82.497C81.7367 22.4736 81.1208 23.0894 81.1208 23.8481C81.1208 24.6085 81.7367 25.2243 82.497 25.2243H82.5003V25.2309H83.9011C84.8717 25.2309 85.7798 25.0519 86.619 24.6906C87.4582 24.326 88.1923 23.8235 88.8229 23.1814C89.4568 22.5392 89.9544 21.7986 90.3173 20.9611C90.677 20.1219 90.8592 19.2203 90.8592 18.2448V7.03497Z" fill="black"/>
<path fill-rule="evenodd" clip-rule="evenodd" d="M126.548 12.7742C126.548 19.8288 120.83 25.5484 113.774 25.5484C106.72 25.5484 101 19.8288 101 12.7742C101 5.71959 106.72 0 113.774 0C120.83 0 126.548 5.71959 126.548 12.7742ZM123.442 18.5063L123.42 18.4371V18.4385L123.417 18.4312L123.415 18.4251L123.415 18.4235L123.413 18.4198C123.403 18.388 123.377 18.3231 123.352 18.2653C123.339 18.2402 123.326 18.2151 123.312 18.191L123.314 18.1929L123.322 18.2061C123.315 18.1949 123.309 18.1825 123.303 18.1704C123.3 18.1624 123.296 18.1544 123.292 18.147L123.287 18.1408C123.284 18.137 123.28 18.1329 123.277 18.1282C123.269 18.1167 123.262 18.1051 123.254 18.0921C122.085 16.1308 120.326 14.5619 118.222 13.6325C120.326 12.7016 122.085 11.1328 123.254 9.17141C123.262 9.15842 123.269 9.14688 123.277 9.13533C123.28 9.13172 123.282 9.12884 123.285 9.12595C123.287 9.12306 123.29 9.12018 123.292 9.11657C123.296 9.1091 123.3 9.10117 123.303 9.09314L123.304 9.09311C123.309 9.081 123.315 9.06868 123.322 9.0574L123.322 9.05768L123.303 9.08733C123.321 9.05808 123.337 9.02866 123.352 8.99822C123.377 8.94049 123.403 8.87555 123.413 8.84379C123.414 8.84257 123.414 8.84081 123.415 8.83843C123.416 8.83521 123.418 8.83084 123.42 8.82503V8.82648L123.442 8.7572C123.445 8.74581 123.449 8.73466 123.452 8.72346L123.452 8.72338C123.458 8.70764 123.463 8.69178 123.466 8.67493C123.482 8.58834 123.492 8.5003 123.492 8.40938C123.492 7.67043 122.892 7.07004 122.153 7.07004C121.7 7.07004 121.303 7.29663 121.061 7.64013C121.048 7.66033 121.035 7.68054 121.022 7.6993C119.473 10.0547 116.807 11.6105 113.778 11.6105C110.736 11.6105 108.063 10.0446 106.516 7.67621C106.511 7.66899 106.505 7.66033 106.5 7.65167C106.259 7.30096 105.855 7.07004 105.397 7.07004C104.657 7.07004 104.056 7.67043 104.056 8.40938C104.056 8.68071 104.138 8.93328 104.277 9.14399C104.28 9.14761 104.282 9.15124 104.284 9.1545L104.287 9.15987C105.456 11.1285 107.218 12.7002 109.33 13.6325C107.218 14.5634 105.456 16.1351 104.287 18.1022C104.284 18.108 104.281 18.1138 104.277 18.1196C104.138 18.3303 104.056 18.5814 104.056 18.8542C104.056 19.5931 104.657 20.1935 105.397 20.1935C105.855 20.1935 106.259 19.9626 106.5 19.6119C106.505 19.6032 106.511 19.5946 106.516 19.5873C108.063 17.219 110.736 15.653 113.778 15.653C116.807 15.653 119.473 17.2089 121.022 19.5642L121.061 19.6234C121.303 19.9669 121.7 20.1935 122.153 20.1935C122.892 20.1935 123.492 19.5931 123.492 18.8542C123.492 18.7632 123.482 18.6752 123.466 18.5901C123.463 18.5739 123.458 18.5586 123.453 18.5432C123.451 18.5366 123.449 18.5299 123.447 18.5232C123.445 18.5176 123.443 18.512 123.442 18.5063ZM123.293 18.16C123.299 18.1707 123.306 18.1807 123.312 18.191C123.306 18.1804 123.3 18.1701 123.293 18.16ZM109.62 9.24683C109.61 9.24046 109.599 9.23404 109.589 9.22741C109.338 9.047 109.172 8.75258 109.172 8.41919C109.172 7.86787 109.619 7.42191 110.17 7.42191C110.345 7.42191 110.505 7.46953 110.648 7.54891L110.651 7.54458C111.562 8.10023 112.633 8.41919 113.779 8.41919C114.887 8.41919 115.925 8.11755 116.817 7.5951C116.825 7.59077 116.834 7.58644 116.84 7.58066C116.997 7.48108 117.18 7.42191 117.378 7.42191C117.929 7.42191 118.377 7.86787 118.377 8.41919C118.377 8.75835 118.208 9.05711 117.948 9.23751C117.942 9.24139 117.936 9.24498 117.931 9.2484C117.924 9.25263 117.918 9.25662 117.912 9.2606C116.718 10.0284 115.303 10.4758 113.78 10.4758C112.266 10.4758 110.857 10.0342 109.67 9.27792C109.654 9.26724 109.637 9.2571 109.62 9.24683ZM110.645 6.42693L110.706 6.46445C111.625 7.05041 112.689 7.35927 113.778 7.35927C114.875 7.35927 115.943 7.04608 116.873 6.44858C116.874 6.44815 116.876 6.44659 116.879 6.44457C116.881 6.44317 116.884 6.44154 116.886 6.43991C116.89 6.43774 116.893 6.43557 116.896 6.43393C116.898 6.43258 116.899 6.43159 116.9 6.43126C117.147 6.25951 117.294 5.97808 117.294 5.67933C117.294 5.17419 116.883 4.76286 116.378 4.76286C116.203 4.76286 116.031 4.81338 115.874 4.91441C114.579 5.67355 112.894 5.65479 111.621 4.88121C111.608 4.87255 111.595 4.86678 111.582 4.86245C111.45 4.79606 111.313 4.76286 111.172 4.76286C110.667 4.76286 110.255 5.17419 110.255 5.67933C110.255 5.97231 110.398 6.24797 110.645 6.42693ZM111.372 3.76313L111.324 3.73282C111.134 3.59571 111.023 3.37922 111.023 3.15263C111.023 2.76007 111.342 2.43967 111.734 2.43967C111.844 2.43967 111.951 2.46709 112.052 2.51905C112.063 2.52193 112.073 2.52626 112.082 2.53204C113.081 3.13964 114.406 3.15552 115.422 2.55946C115.546 2.48008 115.679 2.43967 115.816 2.43967C116.207 2.43967 116.527 2.76007 116.527 3.15263C116.527 3.385 116.413 3.60293 116.221 3.7357C115.474 4.21775 114.637 4.4631 113.778 4.4631C112.924 4.4631 112.092 4.22064 111.372 3.76313Z" fill="black"/>
</svg>
