<svg width="168" height="48" viewBox="0 0 168 48" fill="none" xmlns="http://www.w3.org/2000/svg">
<path fill-rule="evenodd" clip-rule="evenodd" d="M49.4601 10.1003C49.5599 9.10917 48.5426 8.09536 47.175 7.83C45.8029 7.56577 44.6008 8.18495 44.5067 9.21577C44.4103 10.2398 45.4536 11.2683 46.8189 11.4929C48.182 11.7208 49.358 11.096 49.4601 10.1003" fill="black"/>
<path fill-rule="evenodd" clip-rule="evenodd" d="M52.8319 13.8153C52.8942 13.0725 52.1174 12.3286 51.0889 12.1483C50.058 11.9703 49.1667 12.4511 49.11 13.2222C49.051 13.9922 49.8483 14.7475 50.8723 14.896C51.8952 15.0469 52.7684 14.5626 52.8319 13.8153" fill="black"/>
<path fill-rule="evenodd" clip-rule="evenodd" d="M43.3786 6.45435C43.4795 5.46548 42.46 4.45053 41.0912 4.18404C39.7191 3.91754 38.5181 4.53899 38.424 5.56641C38.3288 6.5961 39.3698 7.62012 40.734 7.84806C42.0971 8.07713 43.2731 7.45002 43.3786 6.45435" fill="black"/>
<path fill-rule="evenodd" clip-rule="evenodd" d="M31.7232 15.2102C32.8697 15.2963 33.82 14.6613 33.8551 13.7824C33.8925 12.9081 32.9944 12.1041 31.8343 11.9861C30.6731 11.8705 29.7069 12.5123 29.6797 13.415C29.6558 14.3188 30.5699 15.1206 31.7232 15.2102" fill="black"/>
<path fill-rule="evenodd" clip-rule="evenodd" d="M28.0094 32.9361C26.9672 32.9916 26.1564 33.7492 26.2165 34.636C26.2732 35.5205 27.1657 36.168 28.1942 36.0932C29.2296 36.0195 30.0166 35.2586 29.9701 34.3922C29.9282 33.5303 29.0527 32.876 28.0094 32.9361" fill="black"/>
<path fill-rule="evenodd" clip-rule="evenodd" d="M27.4387 38.1332C26.265 38.1945 25.3521 39.0518 25.4179 40.0531C25.4814 41.0477 26.4873 41.778 27.6519 41.6929C28.812 41.6124 29.7022 40.7505 29.6501 39.7776C29.6036 38.8068 28.617 38.0663 27.4387 38.1332" fill="black"/>
<path fill-rule="evenodd" clip-rule="evenodd" d="M32.7734 24.1247C32.8029 22.8036 31.4455 21.6287 29.7093 21.4972C27.9731 21.3702 26.5374 22.3794 26.5317 23.7629C26.5272 25.1521 27.9345 26.3338 29.6446 26.4029C31.3559 26.4733 32.7462 25.4549 32.7734 24.1247" fill="black"/>
<path fill-rule="evenodd" clip-rule="evenodd" d="M28.8234 27.8352C27.8629 27.8023 27.0861 28.4022 27.1008 29.1779C27.1099 29.949 27.8991 30.5943 28.8506 30.6147C29.8009 30.6306 30.5618 30.0284 30.5596 29.2754C30.5539 28.5156 29.7839 27.8749 28.8234 27.8352" fill="black"/>
<path fill-rule="evenodd" clip-rule="evenodd" d="M30.5687 20.354C31.7174 20.4414 32.6689 19.804 32.7052 18.924C32.738 18.0497 31.8422 17.248 30.6821 17.1289C29.5208 17.0155 28.5558 17.6539 28.5263 18.5578C28.5036 19.4616 29.4176 20.2645 30.5687 20.354" fill="black"/>
<path fill-rule="evenodd" clip-rule="evenodd" d="M36.6459 19.6249C35.022 19.4877 33.6589 20.3881 33.6237 21.648C33.5886 22.9045 34.8848 24.0022 36.4883 24.085C38.0963 24.1723 39.4265 23.2628 39.4764 22.054C39.532 20.8496 38.2721 19.7598 36.6459 19.6249" fill="black"/>
<path fill-rule="evenodd" clip-rule="evenodd" d="M35.0176 25.6499C33.7872 25.5887 32.7791 26.3247 32.7711 27.2863C32.7586 28.2412 33.7452 29.0577 34.9688 29.0939C36.1868 29.1314 37.1802 28.4022 37.1983 27.4587C37.2153 26.514 36.2412 25.7089 35.0176 25.6499" fill="black"/>
<path fill-rule="evenodd" clip-rule="evenodd" d="M24.638 32.4405C24.5937 31.0842 23.2204 29.949 21.5421 29.9082C19.8592 29.864 18.5279 30.9696 18.5936 32.3815C18.6662 33.7934 20.0849 34.9319 21.7417 34.9172C23.3951 34.907 24.6788 33.7956 24.638 32.4405" fill="black"/>
<path fill-rule="evenodd" clip-rule="evenodd" d="M19.1489 27.7569C19.1228 26.827 18.1895 26.0298 17.0555 25.9845C15.9192 25.9334 15.0165 26.6615 15.0528 27.6118C15.088 28.5621 16.0349 29.3548 17.1632 29.3865C18.2882 29.4137 19.1716 28.6868 19.1489 27.7569" fill="black"/>
<path fill-rule="evenodd" clip-rule="evenodd" d="M15.9943 23.2969C17.0398 23.3593 17.8733 22.7197 17.8733 21.868C17.8631 21.0153 17.0126 20.2589 15.9625 20.1863C14.9124 20.1035 14.0653 20.7431 14.0778 21.6106C14.0925 22.4793 14.9521 23.2334 15.9943 23.2969" fill="black"/>
<path fill-rule="evenodd" clip-rule="evenodd" d="M20.7185 16.6776C20.7355 15.7976 19.8589 14.9879 18.7441 14.8677C17.6282 14.7475 16.7052 15.3859 16.6983 16.2909C16.687 17.1947 17.5886 18.0044 18.6954 18.1008C19.7988 18.1972 20.7037 17.5576 20.7185 16.6776" fill="black"/>
<path fill-rule="evenodd" clip-rule="evenodd" d="M24.4767 15.1444C25.6027 15.2646 26.5429 14.6522 26.578 13.7824C26.6143 12.9081 25.7332 12.0871 24.6037 11.9499C23.4731 11.8081 22.5239 12.4171 22.4887 13.3096C22.4547 14.2009 23.3529 15.0231 24.4767 15.1444" fill="black"/>
<path fill-rule="evenodd" clip-rule="evenodd" d="M40.9564 16.6311C41.0358 15.5005 39.8496 14.4288 38.2824 14.2395C36.7197 14.0524 35.3747 14.8552 35.3135 16.0358C35.2489 17.2197 36.4691 18.2936 38.0193 18.4342C39.5706 18.5703 40.8747 17.764 40.9564 16.6311" fill="black"/>
<path fill-rule="evenodd" clip-rule="evenodd" d="M40.1747 32.2057C41.3212 32.225 42.2602 31.5264 42.2772 30.6476C42.2953 29.7721 41.3836 29.0282 40.228 29.0021C39.0747 28.9692 38.1335 29.6678 38.1233 30.5625C38.1063 31.4538 39.0271 32.1853 40.1747 32.2057" fill="black"/>
<path fill-rule="evenodd" clip-rule="evenodd" d="M34.8494 32.0924C33.661 32.0776 32.6937 32.8454 32.7107 33.8025C32.7243 34.7562 33.7018 35.533 34.8914 35.5217C36.0696 35.5205 37.0165 34.7448 37.0086 33.8059C37.0075 32.8748 36.0436 32.1048 34.8494 32.0924" fill="black"/>
<path fill-rule="evenodd" clip-rule="evenodd" d="M20.7299 35.99C19.0946 36.0059 17.8279 37.1546 17.9334 38.5642C18.0411 39.9727 19.4541 41.0613 21.0667 40.9967C22.6736 40.9309 23.8938 39.7731 23.8178 38.4202C23.7362 37.065 22.3719 35.9764 20.7299 35.99" fill="black"/>
<path fill-rule="evenodd" clip-rule="evenodd" d="M17.6203 34.9535C17.5488 33.7469 16.3399 32.7603 14.8975 32.7444C13.4561 32.7365 12.3391 33.7299 12.4344 34.9728C12.5228 36.2202 13.7669 37.2102 15.1878 37.1796C16.6098 37.1546 17.6906 36.1578 17.6203 34.9535" fill="black"/>
<path fill-rule="evenodd" clip-rule="evenodd" d="M13.2702 29.4557C13.1988 28.2491 11.9888 27.2637 10.5463 27.2466C9.10609 27.2376 7.98908 28.2321 8.08207 29.475C8.17279 30.7236 9.41681 31.7136 10.8377 31.6841C12.2598 31.6591 13.3394 30.6612 13.2702 29.4557" fill="black"/>
<path fill-rule="evenodd" clip-rule="evenodd" d="M10.8095 29.796C10.8209 29.796 10.8311 29.788 10.8311 29.7801C10.8311 29.7722 10.8163 29.7631 10.8084 29.7631C10.7982 29.7631 10.7903 29.7722 10.7903 29.7801C10.7903 29.788 10.7982 29.796 10.8095 29.796" fill="black"/>
<path fill-rule="evenodd" clip-rule="evenodd" d="M8.84856 22.0109C7.76557 21.9394 6.90712 22.6289 6.94454 23.5543C6.97175 24.4694 7.88124 25.2576 8.95742 25.3063C10.0336 25.3574 10.8751 24.669 10.8512 23.7629C10.8206 22.8648 9.93155 22.0801 8.84856 22.0109" fill="black"/>
<path fill-rule="evenodd" clip-rule="evenodd" d="M9.67898 17.5632C9.68919 17.5678 9.69826 17.5576 9.69826 17.5485C9.69826 17.5372 9.68919 17.5304 9.67898 17.5304C9.66424 17.5304 9.65744 17.5372 9.65744 17.5474C9.65744 17.5542 9.66424 17.5632 9.67898 17.5632" fill="black"/>
<path fill-rule="evenodd" clip-rule="evenodd" d="M21.6054 9.4357C21.6666 8.16447 20.4124 6.94313 18.7817 6.69137C17.1487 6.44189 15.7629 7.30488 15.7153 8.62375C15.6654 9.93808 16.9627 11.1685 18.5787 11.3681C20.2003 11.5643 21.543 10.699 21.6054 9.4357" fill="black"/>
<path fill-rule="evenodd" clip-rule="evenodd" d="M16.3822 13.1134C16.4457 11.841 15.1881 10.6208 13.5574 10.3679C11.9267 10.1184 10.542 10.9814 10.4921 12.3003C10.4422 13.6146 11.7384 14.8461 13.3555 15.0457C14.9783 15.243 16.321 14.3755 16.3822 13.1134" fill="black"/>
<path fill-rule="evenodd" clip-rule="evenodd" d="M32.7303 10.6741C34.2986 10.8838 35.6311 10.1172 35.7275 8.96282C35.8261 7.81179 34.6377 6.66869 33.0569 6.40787C31.4794 6.15045 30.1129 6.91024 30.0268 8.11684C29.9406 9.31777 31.163 10.4643 32.7303 10.6741" fill="black"/>
<path fill-rule="evenodd" clip-rule="evenodd" d="M25.9646 9.55477C27.5477 9.56044 28.7736 8.62941 28.7271 7.4727C28.6817 6.31714 27.3617 5.33621 25.7627 5.27611C24.1649 5.22281 22.9016 6.1527 22.9662 7.36044C23.0297 8.56477 24.3838 9.54456 25.9646 9.55477" fill="black"/>
<path fill-rule="evenodd" clip-rule="evenodd" d="M42.7593 11.5064C42.8738 10.2681 41.5708 9.05353 39.8289 8.78704C38.0848 8.51374 36.5664 9.34384 36.4688 10.6389C36.3668 11.9373 37.7061 13.1644 39.4354 13.3742C41.1648 13.5817 42.6436 12.7402 42.7593 11.5064" fill="black"/>
<path fill-rule="evenodd" clip-rule="evenodd" d="M47.816 15.1977C47.9204 14.0988 46.7523 13.0465 45.1828 12.8378C43.61 12.6314 42.2457 13.3901 42.1561 14.5332C42.0609 15.6842 43.2709 16.7456 44.8256 16.9055C46.3804 17.062 47.7094 16.2977 47.816 15.1977" fill="black"/>
<path fill-rule="evenodd" clip-rule="evenodd" d="M48.2625 21.3929C49.7685 21.5051 51.0488 20.7374 51.143 19.6805C51.2393 18.6236 50.1065 17.6415 48.588 17.4839C47.073 17.3217 45.7666 18.0849 45.6804 19.1838C45.6033 20.2861 46.7679 21.2783 48.2625 21.3929" fill="black"/>
<path fill-rule="evenodd" clip-rule="evenodd" d="M49.4604 26.4835C51.0752 26.5504 52.4406 25.6715 52.5324 24.5216C52.6232 23.3706 51.3871 22.3398 49.7541 22.2196C48.1154 22.0937 46.7206 22.9589 46.6491 24.1644C46.5743 25.3699 47.8467 26.4064 49.4604 26.4835" fill="black"/>
<path fill-rule="evenodd" clip-rule="evenodd" d="M51.43 29.306C51.4958 28.1198 50.2427 27.1106 48.604 27.0335C46.9654 26.9609 45.5807 27.8919 45.5399 29.1235C45.4911 30.3595 46.7817 31.3802 48.3954 31.404C50.0102 31.4289 51.3574 30.4843 51.43 29.306" fill="black"/>
<path fill-rule="evenodd" clip-rule="evenodd" d="M45.3358 32.1354C44.2471 32.1309 43.3433 32.8067 43.324 33.6425C43.3059 34.4908 44.1938 35.1723 45.2757 35.1723C46.37 35.1655 47.2647 34.4908 47.284 33.6539C47.301 32.826 46.4335 32.1388 45.3358 32.1354" fill="black"/>
<path fill-rule="evenodd" clip-rule="evenodd" d="M40.3993 35.635C39.28 35.6464 38.3796 36.3744 38.3932 37.268C38.4023 38.1616 39.3197 38.8568 40.4254 38.8307C41.5345 38.8001 42.4247 38.0709 42.4213 37.1966C42.4213 36.3222 41.5208 35.6237 40.3993 35.635" fill="black"/>
<mask id="mask0_372_1230" style="mask-type:luminance" maskUnits="userSpaceOnUse" x="24" y="37" width="14" height="11">
<path fill-rule="evenodd" clip-rule="evenodd" d="M24.4536 37.0817H37.2409V47.7497H24.4536V37.0817Z" fill="white"/>
</mask>
<g mask="url(#mask0_372_1230)">
<path fill-rule="evenodd" clip-rule="evenodd" d="M37.2404 39.3988C37.2075 38.0958 35.8728 37.0604 34.2273 37.082C32.5864 37.1081 31.2845 38.2251 31.3469 39.5848C31.4036 40.9422 32.7859 41.981 34.4008 41.9039C36.01 41.829 37.2721 40.7041 37.2404 39.3988" fill="black"/>
<path fill-rule="evenodd" clip-rule="evenodd" d="M26.9752 43.2034C25.4817 43.2817 24.3431 44.3839 24.4622 45.679C24.5744 46.9684 25.874 47.9243 27.338 47.8087C28.8043 47.6885 29.8987 46.5794 29.8147 45.3331C29.724 44.0823 28.4641 43.1308 26.9752 43.2034" fill="black"/>
</g>
<path fill-rule="evenodd" clip-rule="evenodd" d="M22.7021 44.3069C22.6091 43.2341 21.5318 42.4097 20.2787 42.4641C19.0211 42.5208 18.0764 43.4598 18.1853 44.562C18.2919 45.6654 19.3998 46.491 20.6348 46.4048C21.8754 46.3186 22.7906 45.3763 22.7021 44.3069" fill="black"/>
<path fill-rule="evenodd" clip-rule="evenodd" d="M14.3614 44.0347C15.7914 43.9519 16.8426 42.8791 16.7303 41.6328C16.6226 40.3877 15.3786 39.4101 13.9259 39.4464C12.4732 39.485 11.3778 40.5589 11.5127 41.8449C11.6454 43.1354 12.9325 44.1084 14.3614 44.0347" fill="black"/>
<path fill-rule="evenodd" clip-rule="evenodd" d="M11.2484 37.4665C11.1441 36.2213 9.89896 35.22 8.45989 35.2313C7.01855 35.2438 5.94123 36.2848 6.06484 37.556C6.18391 38.8307 7.4438 39.8332 8.87154 39.7923C10.3015 39.7504 11.3573 38.7082 11.2484 37.4665" fill="black"/>
<mask id="mask1_372_1230" style="mask-type:luminance" maskUnits="userSpaceOnUse" x="0" y="23" width="7" height="11">
<path fill-rule="evenodd" clip-rule="evenodd" d="M0 23.8673H6.3849V33.6732H0V23.8673Z" fill="white"/>
</mask>
<g mask="url(#mask1_372_1230)">
<path fill-rule="evenodd" clip-rule="evenodd" d="M6.38091 32.0538C6.31628 31.1625 5.43401 30.4208 4.39184 30.3993C3.35421 30.3789 2.5604 31.1024 2.63638 32.0119C2.70896 32.9293 3.61277 33.6732 4.64019 33.6732C5.67102 33.6743 6.44555 32.9474 6.38091 32.0538" fill="black"/>
<path fill-rule="evenodd" clip-rule="evenodd" d="M2.02871 23.8707C0.815309 23.8083 -0.12366 24.6101 -0.0658247 25.6659C-5.15447e-05 26.7205 1.03191 27.6096 2.2351 27.6504C3.4349 27.6935 4.35232 26.8895 4.30469 25.8496C4.24799 24.8154 3.23531 23.932 2.02871 23.8707" fill="black"/>
</g>
<path fill-rule="evenodd" clip-rule="evenodd" d="M3.58572 11.3148C2.3451 11.1629 1.32902 11.8954 1.33696 12.9546C1.3449 14.0138 2.36665 14.9652 3.59139 15.0764C4.82294 15.1886 5.805 14.4549 5.805 13.4343C5.80727 12.4193 4.82294 11.4713 3.58572 11.3148" fill="black"/>
<path fill-rule="evenodd" clip-rule="evenodd" d="M9.9625 15.6457C8.44744 15.4597 7.20456 16.3544 7.2159 17.6472C7.22384 18.9434 8.47466 20.1035 9.9727 20.2396C11.4775 20.3802 12.6751 19.4832 12.6751 18.2335C12.6796 16.9929 11.4775 15.8362 9.9625 15.6457" fill="black"/>
<path fill-rule="evenodd" clip-rule="evenodd" d="M10.2683 8.51601C10.3035 7.22776 9.06058 5.98941 7.46275 5.74106C5.86265 5.49952 4.52564 6.38632 4.50182 7.729C4.47687 9.07055 5.76285 10.31 7.35048 10.5017C8.93357 10.6933 10.2298 9.80313 10.2683 8.51601" fill="black"/>
<path fill-rule="evenodd" clip-rule="evenodd" d="M12.7961 6.30357C14.0367 6.48614 15.0698 5.83181 15.1242 4.84521C15.1707 3.85635 14.217 2.87882 12.9662 2.66903C11.7244 2.45697 10.663 3.10903 10.621 4.12851C10.5779 5.14573 11.5566 6.12212 12.7961 6.30357" fill="black"/>
<path fill-rule="evenodd" clip-rule="evenodd" d="M22.6574 3.06821C22.7571 1.74367 21.4542 0.402123 19.7214 0.0709886C17.9931 -0.259011 16.4928 0.592638 16.4089 1.97955C16.3204 3.35851 17.6688 4.70686 19.3857 4.97676C21.1083 5.24893 22.5553 4.39274 22.6574 3.06821" fill="black"/>
<path fill-rule="evenodd" clip-rule="evenodd" d="M36.6525 3.98109C36.7535 2.99109 35.7385 1.97614 34.3698 1.70964C32.9976 1.44542 31.7944 2.06459 31.6991 3.09315C31.6062 4.12057 32.646 5.14573 34.0114 5.3714C35.3745 5.60047 36.5516 4.97336 36.6525 3.98109" fill="black"/>
<path fill-rule="evenodd" clip-rule="evenodd" d="M45.6682 38.7456C44.601 38.7808 43.7301 39.4929 43.7403 40.3435C43.746 41.1894 44.6124 41.8358 45.6795 41.7882C46.7432 41.7496 47.6005 41.0363 47.6005 40.1972C47.6005 39.3614 46.7398 38.7105 45.6682 38.7456" fill="black"/>
<path fill-rule="evenodd" clip-rule="evenodd" d="M41.8681 43.0957C41.8511 42.2985 41.0324 41.6862 40.0389 41.7326C39.0467 41.7791 38.2642 42.4754 38.2892 43.2942C38.3243 44.105 39.1533 44.7151 40.1353 44.6573C41.1197 44.5926 41.8931 43.8986 41.8681 43.0957" fill="black"/>
<path fill-rule="evenodd" clip-rule="evenodd" d="M33.72 43.4484C32.6745 43.5028 31.8659 44.2637 31.926 45.1483C31.9804 46.0317 32.8752 46.6815 33.9026 46.6078C34.9368 46.5329 35.7272 45.7708 35.6796 44.9056C35.6376 44.0483 34.7633 43.3894 33.72 43.4484" fill="black"/>
<path fill-rule="evenodd" clip-rule="evenodd" d="M112.581 19.1566C111.961 19.1566 111.496 19.6318 111.496 20.2623V33.2763C111.496 33.9091 111.961 34.3842 112.581 34.3842C113.199 34.3842 113.667 33.9091 113.667 33.2763V20.2623C113.667 19.6318 113.199 19.1566 112.581 19.1566" fill="black"/>
<path fill-rule="evenodd" clip-rule="evenodd" d="M108.293 21.1026H108.902C109.412 21.1026 109.813 20.6954 109.813 20.1749C109.813 19.6544 109.412 19.2439 108.902 19.2439H108.139C105.721 19.2439 104.441 20.5684 104.441 23.0735V24.4706H103.221C102.707 24.4706 102.307 24.8788 102.307 25.3982C102.307 25.9187 102.707 26.3247 103.221 26.3247H104.441V33.2763C104.441 33.9091 104.908 34.3842 105.528 34.3842C106.149 34.3842 106.611 33.9091 106.611 33.2763V26.3247H108.707C109.218 26.3247 109.619 25.9187 109.619 25.3982C109.619 24.8788 109.218 24.4706 108.707 24.4706H106.611V22.9181C106.611 21.6287 107.101 21.1026 108.293 21.1026" fill="black"/>
<path fill-rule="evenodd" clip-rule="evenodd" d="M123.788 24.296C123.183 24.296 122.702 24.7791 122.702 25.3983V29.8051C122.702 31.3927 121.698 32.461 120.198 32.461C118.718 32.461 117.801 31.4506 117.801 29.8266V25.3983C117.801 24.7678 117.335 24.296 116.715 24.296C115.97 24.296 115.626 24.8664 115.626 25.3983V29.9151C115.626 32.6832 117.199 34.4727 119.631 34.4727C120.979 34.4727 122.059 33.8785 122.702 32.7955V33.2559C122.702 33.9522 123.12 34.3843 123.788 34.3843C124.442 34.3843 124.876 33.9307 124.876 33.2559V25.3983C124.876 24.7678 124.409 24.296 123.788 24.296" fill="black"/>
<path fill-rule="evenodd" clip-rule="evenodd" d="M131.472 25.9936C132.778 25.9936 133.82 26.9473 134.034 28.3229H128.826C129.058 26.9258 130.111 25.9936 131.472 25.9936ZM131.472 24.2053C128.657 24.2053 126.535 26.4109 126.535 29.3378C126.535 31.8939 128.088 34.4727 131.559 34.4727C133.122 34.4727 134.625 33.8444 135.48 32.834C135.671 32.6174 135.76 32.4088 135.76 32.1933C135.76 31.6558 135.375 31.2657 134.849 31.2657C134.524 31.2657 134.256 31.4845 134.129 31.6161C133.438 32.2727 132.782 32.6832 131.651 32.6832C130.013 32.6832 128.919 31.7079 128.777 30.1328H135.215C135.749 30.1328 136.063 29.8447 136.063 29.3617C136.063 26.3735 134.133 24.2053 131.472 24.2053V24.2053Z" fill="black"/>
<path fill-rule="evenodd" clip-rule="evenodd" d="M142.552 24.2053C141.206 24.2053 140.122 24.7972 139.482 25.8802V25.4209C139.482 24.7246 139.065 24.296 138.398 24.296C137.744 24.296 137.307 24.7462 137.307 25.4209V33.2763C137.307 33.9091 137.774 34.3842 138.398 34.3842C139.002 34.3842 139.482 33.8989 139.482 33.2763V28.8729C139.482 27.2841 140.486 26.2159 141.987 26.2159C143.465 26.2159 144.383 27.2263 144.383 28.8525V33.2763C144.383 33.9091 144.848 34.3842 145.47 34.3842C146.216 34.3842 146.556 33.8115 146.556 33.2763V28.7629C146.556 25.9936 144.983 24.2053 142.552 24.2053" fill="black"/>
<path fill-rule="evenodd" clip-rule="evenodd" d="M153.306 26.0843C153.991 26.0843 154.616 26.3145 155.112 26.7534C155.166 26.7988 155.217 26.8453 155.268 26.8929C155.484 27.0936 155.706 27.3 156.023 27.3C156.683 27.3 157.025 26.8441 157.025 26.3962C157.025 26.0571 156.896 25.8417 156.706 25.6217C156.009 24.7734 154.635 24.2053 153.282 24.2053C150.199 24.2053 148.126 26.268 148.126 29.3378C148.126 32.4099 150.199 34.4727 153.282 34.4727C154.635 34.4727 156.009 33.9023 156.701 33.0574C156.896 32.8363 157.025 32.6197 157.025 32.2818C157.025 31.8327 156.683 31.3757 156.023 31.3757C155.706 31.3757 155.484 31.5821 155.268 31.7839C155.217 31.8304 155.166 31.878 155.112 31.9245C154.616 32.3634 153.991 32.5936 153.306 32.5936C151.229 32.5936 150.301 30.9595 150.301 29.3378C150.301 27.7185 151.229 26.0843 153.306 26.0843" fill="black"/>
<path fill-rule="evenodd" clip-rule="evenodd" d="M166.407 24.296C165.893 24.296 165.577 24.5376 165.39 25.0876L162.946 31.8168L160.22 24.9084C160.042 24.4945 159.736 24.296 159.29 24.296C158.804 24.296 158.314 24.5999 158.314 25.2894C158.314 25.4357 158.362 25.6001 158.405 25.734L161.787 33.9851C161.137 35.2336 160.56 35.8732 159.343 36.6999C159.003 36.9165 158.791 37.1456 158.791 37.6174C158.791 38.1231 159.221 38.5234 159.769 38.5234C159.953 38.5234 160.181 38.4554 160.322 38.3579C162.14 37.31 163.202 35.9572 164.378 33.1924C165.63 30.2576 166.631 27.5609 167.251 25.8213C167.294 25.709 167.341 25.4822 167.341 25.3087C167.341 24.6067 166.874 24.296 166.407 24.296" fill="black"/>
<path fill-rule="evenodd" clip-rule="evenodd" d="M69.2909 16.1401C71.3321 16.1401 73.0298 16.8942 74.3339 18.3753C74.6129 18.7143 75.0653 19.1668 75.7798 19.1668C76.6768 19.1668 77.3073 18.5363 77.3073 17.6393C77.3073 17.2186 77.1633 16.8307 76.8639 16.452C75.1787 14.2905 72.2802 13 69.1106 13C63.0935 13 58.7207 17.5349 58.7207 23.7789C58.7207 30.0251 63.0935 34.5577 69.1106 34.5577C72.2802 34.5577 75.1787 33.2683 76.8639 31.1092C77.1633 30.7281 77.3073 30.3403 77.3073 29.9196C77.3073 29.0226 76.6768 28.3955 75.7798 28.3955C75.0653 28.3955 74.6129 28.8457 74.3407 29.1779C73.0298 30.6635 71.3321 31.4176 69.2909 31.4176C64.9295 31.4176 62.1092 28.4204 62.1092 23.7789C62.1092 19.1396 64.9295 16.1401 69.2909 16.1401" fill="black"/>
<path fill-rule="evenodd" clip-rule="evenodd" d="M89.8664 27.8727C89.8664 28.1256 89.9367 28.3853 90.0774 28.6313L91.4393 31.0944C90.7646 31.3076 90.007 31.4176 89.2336 31.4176C84.4016 31.4176 82.2005 27.4588 82.2005 23.7789C82.2005 20.1001 84.4016 16.1401 89.2336 16.1401C94.0646 16.1401 96.2634 20.1001 96.2634 23.7789C96.2634 26.0934 95.4572 28.1845 94.0385 29.5658L92.6822 27.1412C92.3976 26.6287 91.9734 26.378 91.3962 26.378C90.5117 26.378 89.8664 27.0074 89.8664 27.8727ZM95.6102 32.4269C98.1641 30.4152 99.6224 27.2785 99.6224 23.7789C99.6224 17.6347 95.1578 13 89.2336 13C83.3107 13 78.8438 17.6347 78.8438 23.7789C78.8438 29.923 83.3107 34.5577 89.2336 34.5577C90.4901 34.5577 91.7568 34.34 92.9986 33.9091L94.6134 36.819C94.8901 37.3123 95.346 37.5822 95.9006 37.5822C96.7329 37.5822 97.4598 36.8836 97.4598 36.0875C97.4598 35.8312 97.3895 35.5749 97.2489 35.3266L95.6102 32.4269V32.4269Z" fill="black"/>
</svg>
