<svg width="140" height="40" viewBox="0 0 140 40" fill="none" xmlns="http://www.w3.org/2000/svg">
<path d="M52.9218 14.9015C49.835 14.9015 47.3545 17.2065 47.3545 20.5615C47.3545 23.9165 49.835 26.1915 52.8763 26.1915C55.2255 26.1915 57.1452 25.1265 58.095 22.9065L55.5488 22.3715C54.7708 23.6765 53.7149 23.7815 52.8763 23.7815C51.5577 23.7815 50.4564 22.8415 50.1785 21.3015H58.3779V20.3415C58.2718 17.0965 55.7913 14.8965 52.9218 14.8965V14.9015ZM50.2695 19.3215C50.613 17.9965 51.8457 17.3565 52.9218 17.3565C54.0635 17.3565 55.0992 17.9565 55.4679 19.3215H50.2695V19.3215Z" fill="black"/>
<path d="M67.2591 17.5866L64.1572 16.9666C63.0357 16.7516 62.7124 16.2416 62.7124 15.5166C62.7124 14.5566 63.5914 13.7466 65.0615 13.7466C66.5316 13.7466 67.6936 14.6216 67.9108 15.9666L70.841 15.3666C70.2802 12.8266 68.0573 11.2466 65.1272 11.2466C61.7424 11.2466 59.6256 13.0416 59.6256 15.6016C59.6256 18.3966 61.6919 19.3366 63.4196 19.7016L66.4811 20.2766C67.7744 20.5316 68.1634 21.0216 68.1634 21.8366C68.1634 22.8616 67.2793 23.6516 65.597 23.6516C63.9147 23.6516 62.7477 22.9466 62.3587 21.3266L59.272 21.9466C59.6408 24.8066 62.293 26.1916 65.3141 26.1916C68.7444 26.1916 71.0531 24.4616 71.0531 21.6866C71.0531 19.4666 69.6083 18.0766 67.2541 17.5866H67.2591Z" fill="black"/>
<path d="M125.038 14.9015C121.957 14.9015 119.471 17.2065 119.471 20.5615C119.471 23.9165 121.952 26.1915 124.993 26.1915C127.347 26.1915 129.267 25.1265 130.217 22.9065L127.671 22.3715C126.898 23.6765 125.837 23.7815 124.998 23.7815C123.679 23.7815 122.583 22.8415 122.3 21.3015H130.5V20.3415C130.394 17.0965 127.913 14.8965 125.038 14.8965V14.9015ZM122.386 19.3215C122.73 17.9965 123.962 17.3565 125.038 17.3565C126.185 17.3565 127.221 17.9565 127.585 19.3215H122.386Z" fill="black"/>
<path d="M83.4307 19.3815C83.4307 16.7365 81.703 14.9015 79.1164 14.9015C77.6917 14.9015 76.5702 15.3465 75.7265 16.1815V10.5015H71.2656L71.8112 11.6365C71.988 12.0065 72.468 12.3065 72.8823 12.3065V24.0815H72.2002V25.8765H76.4085V24.0815H75.7316V21.1615C75.7316 18.5565 76.7925 17.4865 78.4091 17.4865C79.7226 17.4865 80.5865 18.4915 80.5865 19.9815V24.0765H79.9095V25.8715H84.1178V24.0765H83.4358V19.3815H83.4307Z" fill="black"/>
<path d="M99.4807 14.9014C98.0156 14.9014 96.8234 15.3264 95.9191 16.0764V15.2214H91.4531L91.9987 16.3564C92.1756 16.7214 92.6605 17.0214 93.0698 17.0214V27.7064H92.3877V29.5064H96.596V27.7064H95.914V25.0414C96.8183 25.7714 98.0055 26.1964 99.4756 26.1964C102.214 26.1964 104.76 23.9164 104.76 20.5664C104.76 17.2164 102.214 14.9064 99.4756 14.9064L99.4807 14.9014ZM98.9805 23.7414C97.4448 23.7414 95.9191 22.5264 95.9191 20.5614C95.9191 18.5964 97.4498 17.3564 98.9805 17.3564C100.703 17.3564 102.002 18.5964 102.002 20.5614C102.002 22.5264 100.703 23.7414 98.9805 23.7414Z" fill="black"/>
<path d="M112.782 14.9014C111.317 14.9014 110.13 15.3264 109.226 16.0764V15.2214H104.76L105.305 16.3564C105.487 16.7214 105.967 17.0214 106.376 17.0214V27.7064H105.694V29.5064H109.903V27.7064H109.226V25.0414C110.13 25.7714 111.317 26.1964 112.782 26.1964C115.52 26.1964 118.067 23.9164 118.067 20.5664C118.067 17.2164 115.52 14.9064 112.782 14.9064V14.9014ZM112.287 23.7414C110.756 23.7414 109.226 22.5264 109.226 20.5614C109.226 18.5964 110.756 17.3564 112.287 17.3564C114.01 17.3564 115.308 18.5964 115.308 20.5614C115.308 22.5264 114.01 23.7414 112.287 23.7414Z" fill="black"/>
<path d="M139.24 15.0664C137.492 15.0664 136.239 15.9214 135.38 17.1614V15.2164H130.914L131.465 16.3514C131.642 16.7164 132.121 17.0164 132.531 17.0164V24.0764H131.854V25.8714H136.057V24.0764H135.38V22.4314C135.38 19.4664 136.587 17.8664 139.219 17.8664H139.846L139.997 15.1564C139.74 15.0664 139.523 15.0664 139.245 15.0664H139.24Z" fill="black"/>
<path d="M88.2248 13.8315C89.2201 13.8315 89.9476 13.1265 89.9476 12.1865C89.9476 11.2465 89.215 10.5015 88.2248 10.5015C87.2347 10.5015 86.4971 11.2915 86.4971 12.1865C86.4971 13.1265 87.2094 13.8315 88.2248 13.8315Z" fill="black"/>
<path d="M89.6495 15.2163H85.1836L85.7343 16.3513C85.9111 16.7163 86.391 17.0163 86.8002 17.0163V24.0763H86.1182V25.8713H90.3265V24.0763H89.6445V15.2163H89.6495Z" fill="black"/>
<path d="M5.91837 5.86125C-1.97279 13.6712 -1.97279 26.3363 5.91837 34.1463C13.8095 41.9563 26.6062 41.9563 34.4973 34.1463C42.3885 26.3363 42.3885 13.6712 34.4973 5.86125C26.6011 -1.95375 13.8095 -1.95375 5.91837 5.86125Z" fill="black"/>
<path d="M21.5638 9.96643C21.3011 9.96643 21.0384 9.86643 20.8363 9.66643C20.4322 9.26643 20.4322 8.62143 20.8363 8.22643L22.4277 6.65143L20.8363 5.07643C20.4322 4.68143 20.4322 4.03143 20.8363 3.63643C21.2354 3.23643 21.8922 3.23643 22.2913 3.63643L24.6101 5.93143C25.0143 6.32643 25.0143 6.97143 24.6101 7.37143L22.2913 9.66643C22.0892 9.86643 21.8265 9.96643 21.5638 9.96643Z" fill="white"/>
<path d="M18.8358 36.6666C18.5731 36.6666 18.3104 36.5666 18.1083 36.3666L15.7894 34.0716C15.3853 33.6716 15.3853 33.0266 15.7894 32.6316L18.1083 30.3366C18.5074 29.9366 19.1642 29.9366 19.5633 30.3366C19.9674 30.7316 19.9674 31.3766 19.5633 31.7766L17.9719 33.3516L19.5633 34.9266C19.9674 35.3266 19.9674 35.9716 19.5633 36.3666C19.3612 36.5666 19.0985 36.6666 18.8358 36.6666V36.6666Z" fill="white"/>
<path d="M34.1234 15.9062C33.8658 15.0562 33.1989 14.4162 32.33 14.2012C31.461 13.9862 30.5668 14.2262 29.9353 14.8512L27.0961 17.6612C26.8486 17.9062 26.7425 18.2562 26.8183 18.5962C27.3083 20.8362 26.6213 23.1412 24.9844 24.7612C22.5898 27.1312 18.8362 27.3462 16.1889 25.4212L24.939 16.7562C25.5907 16.1112 25.8938 15.1862 25.7523 14.2862C25.6058 13.3812 25.0551 12.6212 24.2367 12.2112C20.8115 10.4762 16.684 11.1262 13.9661 13.8162C10.7682 16.9812 10.5358 21.9912 13.279 25.4212L11.3492 27.3312C11.1168 27.5612 10.849 27.5762 10.7076 27.5662C10.455 27.5462 10.2276 27.4162 10.0761 27.2112C6.48413 22.2812 7.03479 15.5762 11.3845 11.2712C13.5417 9.13623 16.4011 7.86123 19.4374 7.67623C20.0032 7.64123 20.4377 7.16122 20.4023 6.59622C20.3669 6.03622 19.8718 5.60122 19.3111 5.64122C15.7696 5.85622 12.4404 7.34122 9.92957 9.82622C4.86245 14.8412 4.22085 22.6512 8.40387 28.3962C8.90907 29.0862 9.68707 29.5212 10.5358 29.5912C10.6116 29.5962 10.6924 29.6012 10.7682 29.6012C11.526 29.6012 12.2535 29.3062 12.7991 28.7712L14.7087 26.8812C18.1744 29.5912 23.2314 29.3712 26.4293 26.2062C28.4248 24.2312 29.3342 21.4712 28.9199 18.7312L31.3752 16.3012C31.5318 16.1462 31.7136 16.1612 31.8046 16.1862C31.9006 16.2112 32.0673 16.2812 32.1329 16.5012C33.4414 20.8562 32.239 25.5512 28.9957 28.7612C26.8435 30.8912 23.9841 32.1712 20.9428 32.3562C20.377 32.3912 19.9426 32.8762 19.9779 33.4362C20.0133 33.9762 20.4629 34.3912 21.0035 34.3912C21.0237 34.3912 21.0489 34.3912 21.0691 34.3912C24.6106 34.1762 27.9398 32.6862 30.4506 30.2062C34.2295 26.4712 35.6289 20.9962 34.1032 15.9262L34.1234 15.9062ZM15.4211 15.2512C16.7295 13.9562 18.4573 13.2812 20.2103 13.2812C21.2561 13.2812 22.317 13.5212 23.2971 14.0212C23.6052 14.1762 23.6962 14.4512 23.7164 14.6012C23.7568 14.8662 23.676 15.1262 23.484 15.3162L14.7441 23.9662C13.8903 22.8212 13.4306 21.4462 13.4306 19.9962C13.4306 18.2062 14.1379 16.5212 15.416 15.2512H15.4211Z" fill="white"/>
</svg>
