<svg width="248" height="243" viewBox="0 0 248 243" fill="none" xmlns="http://www.w3.org/2000/svg">
<path d="M77.5697 70.9816L73.1547 24.3363L57.4145 70.9816H42.0289L25.4859 24.236L22.0877 70.9816H5.67188L13.0302 0.910004H33.0985L50.6181 49.134L67.0673 0.910004H87.1356L94.9488 70.9816H77.5697Z" fill="black"/>
<path d="M130.416 72.547C113.505 72.547 103.109 60.3656 103.109 45.1204C103.109 29.1527 115.498 17.2857 131.258 17.2857C142.918 17.2857 149.32 22.7443 150.062 23.8012L143.447 33.9892C140.547 32.0466 137.162 30.9531 133.673 30.8318C125.479 30.8318 120.02 36.8522 120.02 44.806C120.02 53.1075 124.114 58.9875 132.73 58.9875C138.931 58.9875 144.182 55.4154 144.497 55.208L150.905 65.7104C150.591 65.9378 143.447 72.547 130.416 72.547Z" fill="black"/>
<path d="M46.2644 242.98V213.694H22.9651V243H5.67969V172.888H22.9651V199.679H46.2644V172.888H63.5565V242.98H46.2644Z" fill="black"/>
<path d="M86.6683 190.006C85.4833 189.998 84.3115 189.756 83.22 189.294C82.1285 188.832 81.1386 188.16 80.3069 187.316C79.4751 186.472 78.8178 185.472 78.3724 184.374C77.9271 183.276 77.7024 182.101 77.7112 180.916C77.752 179.165 78.3078 177.465 79.3093 176.028C80.3108 174.591 81.7135 173.481 83.3421 172.837C84.9707 172.193 86.753 172.043 88.4664 172.406C90.1797 172.769 91.748 173.629 92.9753 174.879C94.2027 176.128 95.0346 177.711 95.3672 179.431C95.6998 181.15 95.5183 182.93 94.8454 184.547C94.1725 186.164 93.038 187.546 91.5836 188.522C90.1293 189.498 88.4196 190.024 86.6683 190.033V190.006ZM78.1326 242.98V198.007H94.9966V242.98H78.1326Z" fill="black"/>
<path d="M109.453 242.98V172.888H125.508V242.98H109.453Z" fill="black"/>
<path d="M140.062 242.98V172.888H156.117V242.98H140.062Z" fill="black"/>
<path d="M37.1948 158.098C15.7887 158.098 0.523438 144.224 0.523438 121.848C0.523438 98.5286 16.578 84.4474 38.3454 84.4474C54.4 84.4474 61.4573 91.0699 63.036 92.642L55.5773 103.78C50.7917 100.394 45.0493 98.6271 39.1883 98.736C26.8998 98.736 17.9694 107.038 17.9694 120.905C17.9694 136.558 27.95 143.809 38.9809 143.809C42.1482 143.857 45.3048 143.431 48.3461 142.545V132.464H35.6295V119.962H63.5712V150.425C62.7216 150.954 54.6341 158.098 37.1948 158.098Z" fill="black"/>
<path d="M233.774 155.054H216.642L208.133 122.945L200.36 155.054H183.871L168.953 102.95H184.921L193.115 136.565L201.731 102.95H215.913L224.529 136.565L232.402 102.95H247.741L233.774 155.054Z" fill="black"/>
<path d="M108.543 115.132C105.864 115.071 103.215 115.699 100.849 116.956C98.4834 118.213 96.4797 120.056 95.0303 122.31V155.262H78.1328V102.877H92.0736V109.847C92.388 109.325 98.763 101.298 109.54 101.298C109.54 101.298 110.249 101.298 110.657 101.352C111.065 101.405 111.653 101.492 111.653 101.492L108.543 115.132Z" fill="black"/>
<path d="M148.184 155.496V151.061C144.066 154.608 138.829 156.59 133.394 156.66C122.831 156.66 116.383 149.582 116.383 139.541C116.383 123.086 139.736 121.661 145.234 121.661H146.392C146.392 119.968 146.826 116.804 145.121 115.453C144.191 114.71 142.592 113.76 138.886 113.76C135.196 113.824 131.543 114.503 128.076 115.767C127.099 116.115 126.27 116.436 125.641 116.731L120.457 106.496C121.321 105.971 122.215 105.495 123.132 105.071C128.35 102.718 134.019 101.535 139.742 101.606C147.77 101.606 153.79 103.613 157.911 107.733C162.46 112.275 162.138 118.403 162.138 124.852V155.496H148.184ZM146.599 130.986C142.585 130.986 135.187 130.772 132.123 133.835C131.537 134.413 131.076 135.104 130.767 135.867C130.459 136.63 130.31 137.448 130.33 138.27C130.33 143.341 134.137 144.612 136.879 144.612C140.345 144.642 143.737 143.61 146.599 141.655V130.986Z" fill="black"/>
</svg>
