<svg width="362" height="79" viewBox="0 0 362 79" fill="none" xmlns="http://www.w3.org/2000/svg">
<path d="M18.2247 6.1166C24.4248 2.15322 31.7657 0.00264704 39.1255 0.000923828C45.1826 -0.0421565 51.2345 1.42257 56.6334 4.16248C66.7779 9.26319 74.6892 18.8012 77.4498 29.8573C79.5228 38.1994 78.787 47.2187 75.3164 55.0903C72.7954 60.8631 68.8578 66.0086 63.9501 69.9582C59.0097 73.9526 53.0818 76.72 46.8438 77.9263C44.4916 78.4174 42.0895 78.5449 39.7011 78.7138H6.2656C5.90889 75.6 6.73087 72.3741 8.42823 69.7462C10.9338 65.8104 15.4917 63.2669 20.1702 63.2911C26.3117 63.3117 32.4533 63.26 38.5965 63.2738C44.7604 63.4772 50.9554 61.1715 55.4805 56.9807C59.0976 53.6721 61.6669 49.2314 62.6991 44.4374C63.7537 39.6141 63.2798 34.4669 61.3326 29.9279C59.213 24.9324 55.3358 20.7088 50.5418 18.1653C46.3337 15.9113 41.4398 14.9791 36.6958 15.5047C31.8174 16.0233 27.1234 18.1067 23.4564 21.367C19.5722 24.7824 16.8427 29.4903 15.8312 34.5651C14.7783 39.7365 15.4865 45.2542 17.8525 49.9758C20.1564 54.6423 24.0371 58.4885 28.688 60.8114C25.7896 60.82 22.8894 60.8079 19.991 60.8165C16.1379 60.8596 12.3468 62.3467 9.43631 64.8626C3.53258 58.0077 0.137857 49.0677 0 40.0208V38.6526C0.0913302 34.1033 0.939151 29.5661 2.56586 25.3149C5.54013 17.4536 11.1285 10.6194 18.2247 6.1166Z" fill="black"/>
<path d="M352.033 7.30906C355.314 7.31078 358.595 7.30044 361.876 7.31423V55.3333C358.595 55.3557 355.314 55.3384 352.033 55.3419C352.031 39.3315 352.031 23.3194 352.033 7.30906Z" fill="black"/>
<path d="M107.609 20.0781C111.161 19.6352 114.826 19.9419 118.217 21.1085C121.08 22.0942 123.737 23.7451 125.774 25.999C128.124 28.5666 129.565 31.8924 130.068 35.3216C130.528 38.5319 130.381 41.8577 129.458 44.975C128.627 47.7753 127.087 50.3721 124.969 52.39C122.455 54.8128 119.203 56.3896 115.808 57.1306C109.732 58.4299 102.963 57.47 97.9248 53.6773C95.5381 51.8834 93.646 49.4382 92.5122 46.6741C91.1353 43.3621 90.8079 39.6848 91.1836 36.1384C91.5799 32.4473 93.0326 28.8285 95.545 26.0662C98.621 22.6284 103.075 20.6381 107.609 20.0781ZM108.981 29.0284C106.846 29.3145 104.78 30.345 103.43 32.0492C101.625 34.2911 101.097 37.3205 101.368 40.1276C101.594 42.6349 102.658 45.1663 104.675 46.7482C106.863 48.4956 109.844 48.916 112.551 48.5076C114.707 48.1854 116.773 47.0774 118.083 45.3145C119.799 43.0433 120.268 40.0518 119.973 37.2774C119.72 34.8115 118.645 32.3335 116.649 30.7878C114.512 29.0974 111.623 28.6648 108.981 29.0284Z" fill="black"/>
<path d="M187.026 21.2585C190.155 20.2245 193.54 20.1453 196.769 20.726C199.786 21.2654 202.717 22.5871 204.911 24.7618C207.084 26.8744 208.473 29.7074 209.073 32.6627C209.667 35.5852 209.56 38.6302 208.914 41.5355C200.972 41.5372 193.03 41.5338 185.089 41.5372C185.539 43.5551 186.86 45.3231 188.616 46.4001C190.848 47.8011 193.516 48.3215 196.116 48.4335C199.898 48.5628 203.715 47.9114 207.217 46.4673C207.219 49.047 207.215 51.6249 207.219 54.2046C203.545 55.7348 199.533 56.2466 195.58 56.3172C191.544 56.4223 187.417 55.6848 183.85 53.7341C181.291 52.3418 179.075 50.2894 177.596 47.7718C175.949 45.0026 175.217 41.7578 175.206 38.5543C175.134 34.36 176.258 30.0348 178.929 26.7348C180.993 24.1431 183.881 22.2631 187.026 21.2585ZM186.966 30.2829C185.709 31.5753 185.065 33.3726 185.018 35.1579C189.997 35.1544 194.975 35.1734 199.953 35.1476C200.25 32.9332 199.324 30.5535 197.51 29.2197C196.271 28.2909 194.701 27.9135 193.173 27.8859C190.903 27.836 188.546 28.6097 186.966 30.2829Z" fill="black"/>
<path d="M230.304 20.7398C233.118 20.1125 236.108 20.2711 238.844 21.1757C241.651 22.1028 244.093 24.0914 245.532 26.6797C246.966 29.1801 247.464 32.1044 247.412 34.958C247.407 41.7526 247.419 48.549 247.407 55.3453C244.134 55.3384 240.862 55.347 237.591 55.3419C237.588 49.9206 237.59 44.4994 237.59 39.0782C237.564 37.5876 237.645 36.0919 237.535 34.6047C237.385 32.7247 236.449 30.8292 234.771 29.8728C232.408 28.5339 229.354 28.6941 227.02 30.0158C225.62 30.7895 224.44 31.9165 223.499 33.2003C223.506 40.5808 223.502 47.9614 223.502 55.3419C220.228 55.3436 216.954 55.3436 213.68 55.3419C213.68 44.0118 213.678 32.6816 213.682 21.3515C216.582 21.3532 219.482 21.3481 222.382 21.355C222.379 22.7835 222.389 24.2138 222.377 25.644C224.436 23.2522 227.209 21.4394 230.304 20.7398Z" fill="black"/>
<path d="M282.592 24.069C285.954 21.4756 290.266 20.1866 294.499 20.3813C297.663 20.4899 300.872 21.2326 303.569 22.9455C306.071 24.5136 308.009 26.9158 309.109 29.6488C310.63 33.3985 310.742 37.6169 309.858 41.5355C301.918 41.5355 293.979 41.5338 286.039 41.5372C286.442 43.3121 287.5 44.9164 288.968 45.99C291.153 47.6046 293.9 48.2353 296.571 48.4094C300.517 48.6213 304.518 47.9751 308.175 46.4639C308.177 49.0435 308.177 51.6249 308.175 54.2045C304.78 55.6176 301.091 56.1604 297.438 56.2948C294.503 56.4258 291.532 56.1914 288.71 55.3488C285.441 54.3872 282.365 52.6002 280.138 49.993C277.924 47.4409 276.645 44.1617 276.285 40.8186C275.939 37.5549 276.23 34.1825 277.395 31.098C278.436 28.3357 280.247 25.8646 282.592 24.069ZM288.191 30.002C286.764 31.3134 286.02 33.24 285.958 35.1579C290.939 35.1631 295.921 35.1596 300.903 35.1596C301.294 32.4352 299.747 29.4971 297.15 28.4787C294.201 27.3276 290.55 27.8273 288.191 30.002Z" fill="black"/>
<path d="M320.263 23.833C323.632 21.3567 327.889 20.1556 332.055 20.39C335.08 20.5158 338.133 21.2326 340.732 22.8266C343.292 24.3741 345.291 26.7831 346.425 29.5454C347.99 33.3193 348.098 37.579 347.221 41.5355C339.286 41.5338 331.351 41.5407 323.415 41.5321C323.906 44.0635 325.883 46.0779 328.192 47.0877C331.597 48.6059 335.455 48.661 339.095 48.194C341.299 47.8959 343.463 47.3152 345.52 46.4674C345.52 49.0487 345.524 51.6301 345.519 54.2098C341.976 55.6797 338.118 56.2104 334.306 56.3086C331.013 56.4258 327.67 56.0226 324.578 54.8473C321.54 53.7066 318.766 51.7731 316.822 49.1538C314.863 46.5484 313.815 43.3346 313.574 40.1001C313.329 36.7191 313.744 33.2348 315.156 30.1279C316.278 27.6361 318.056 25.4442 320.263 23.833ZM325.74 29.8332C324.199 31.1446 323.367 33.1538 323.322 35.1579C328.302 35.1614 333.282 35.1631 338.261 35.1562C338.645 32.4473 337.122 29.5196 334.54 28.4908C331.662 27.3552 328.113 27.7946 325.74 29.8332Z" fill="black"/>
<path d="M266.793 21.7169C269.291 20.6726 272.059 20.3796 274.743 20.6467C274.742 23.8605 274.742 27.0743 274.743 30.2898C271.23 29.6488 267.342 30.2381 264.504 32.5128C263.543 33.3244 262.614 34.2825 262.133 35.456C262.102 42.0835 262.13 48.7127 262.119 55.3419C258.845 55.3436 255.571 55.3436 252.299 55.3419C252.297 44.0118 252.297 32.6834 252.297 21.3533C255.199 21.3515 258.099 21.3498 261.001 21.3533C260.997 23.0334 261.001 24.7135 260.999 26.3954C262.41 24.3051 264.464 22.6767 266.793 21.7169Z" fill="black"/>
<path d="M150.055 21.641C152.999 20.6571 156.213 20.5692 159.244 21.1964C162.817 21.9426 166.072 24.0432 168.236 26.9795C171.608 31.515 172.594 37.5428 171.524 43.0278C170.831 46.5121 169.225 49.8741 166.668 52.3745C164.476 54.5613 161.578 55.9967 158.529 56.5033C155.838 56.9531 153.03 56.8376 150.415 56.038C148.095 55.3315 145.967 54.0184 144.301 52.2556C144.299 58.6125 144.302 64.9677 144.299 71.3247C141.03 71.3143 137.761 71.3488 134.492 71.3074C134.508 54.7991 134.492 38.2907 134.501 21.784C137.392 21.7823 140.286 21.7823 143.179 21.784C143.181 23.4228 143.179 25.0633 143.179 26.7038C144.88 24.3637 147.301 22.5474 150.055 21.641ZM151.559 29.2162C148.423 29.7091 145.6 31.8924 144.318 34.7891C144.29 37.4549 144.283 40.1276 144.321 42.7917C145.812 46.1365 149.346 48.4973 153.03 48.4645C155.517 48.5007 158.047 47.4788 159.641 45.5351C161.566 43.2432 162.174 40.0794 161.802 37.162C161.497 34.7598 160.387 32.3887 158.453 30.8757C156.539 29.3472 153.949 28.8475 151.559 29.2162Z" fill="black"/>
<path d="M32.8009 28.1289C33.4127 27.8118 34.1657 27.9135 34.7223 28.2978C40.0022 31.6374 45.2925 34.9632 50.5689 38.3079C51.677 38.9558 51.6942 40.7428 50.5948 41.4097C45.3287 44.7682 40.047 48.1027 34.7774 51.456C34.3328 51.7507 33.7849 51.9368 33.2507 51.8127C32.3873 51.6576 31.7308 50.815 31.7756 49.943C31.7756 43.2156 31.7722 36.4899 31.7773 29.7625C31.767 29.0818 32.1857 28.4184 32.8009 28.1289Z" fill="black"/>
</svg>
