<svg width="98" height="98" viewBox="0 0 98 98" fill="none" xmlns="http://www.w3.org/2000/svg">
<path d="M77.5545 74.6353C74.9632 75.9023 72.018 76.2503 69.2029 75.622C67.2883 75.1852 65.4239 74.552 63.6393 73.7325L59.6882 72.1201C56.2514 71.0433 52.582 70.9487 49.0944 71.8472H48.7333C45.2564 70.8586 41.5608 70.9538 38.1395 72.1201C36.7958 72.5694 35.5362 73.1951 34.1925 73.7325C32.4026 74.5645 30.5385 75.2267 28.6248 75.7102C25.8106 76.3308 22.8693 75.9831 20.2774 74.7235L19.9163 74.5429C19.8281 74.5429 19.8281 74.5429 19.8281 74.6311C21.5523 76.4101 23.7304 77.6836 26.1265 78.3135C27.7349 78.7447 29.4107 78.8658 31.0644 78.6704C33.5767 78.3308 35.9749 77.4092 38.0681 75.9789L41.8471 73.4596C43.2547 72.554 44.961 72.236 46.6002 72.5736C47.4988 72.6618 46.7808 73.1111 46.6926 73.1993C44.4296 74.2883 42.2875 75.6126 40.3019 77.1504C38.9541 78.1371 36.5229 80.4717 36.5229 80.4717L38.3158 82.0001L40.2935 79.8419C42.7203 77.3251 45.503 75.1776 48.5527 73.468C48.6696 73.382 48.8108 73.3357 48.9558 73.3357C49.1009 73.3357 49.2421 73.382 49.3589 73.468C52.4087 75.1776 55.1913 77.3251 57.6181 79.8419L59.5958 82.0001L61.3887 80.4717L57.6097 77.1504C55.6294 75.6136 53.4931 74.2893 51.2358 73.1993C51.0553 73.1111 50.4296 72.6618 51.3282 72.5736C52.9699 72.2378 54.6779 72.5589 56.0855 73.468L59.8645 75.9873C61.9562 77.4175 64.3531 78.3392 66.8641 78.6788C68.5178 78.8743 70.1936 78.7532 71.802 78.3219C74.1677 77.6204 76.3286 76.357 78.1003 74.6395C78.0516 74.5909 77.988 74.5599 77.9198 74.5513L77.5629 74.6395M86.3595 66.8295C85.221 67.6982 83.9432 68.3669 82.5805 68.8072C80.6555 69.3732 78.6622 69.6741 76.6559 69.7016C74.0728 69.7779 71.4954 69.9881 68.9341 70.3314C68.7536 70.3314 68.6654 70.3314 68.7536 70.2432C70.9895 69.3274 72.7917 67.5929 73.7923 65.3935L76.3116 60.2751V60.0987C76.1352 60.1869 73.6201 62.3409 72.4528 63.42L68.2539 67.5476C66.3577 69.17 64.1158 70.3376 61.6994 70.9612H61.6113L61.5231 71.0494L66.335 72.2125C68.4124 72.8257 70.549 73.217 72.7089 73.3798C75.3814 73.6424 78.0753 73.181 80.5081 72.044C82.9409 70.907 85.023 69.1363 86.5359 66.9177C86.5359 66.8253 86.4477 66.8253 86.3553 66.8253M94.2576 54.7955C92.9794 56.3413 91.4644 57.6748 89.769 58.7467C88.3231 59.7261 86.7896 60.5695 85.188 61.266C83.1492 62.0899 81.2433 63.2105 79.5321 64.5915L79.1752 64.8603C79.0829 64.8603 79.0828 64.8603 79.0828 64.7679C79.0828 64.6755 81.7785 61.9882 82.5847 56.3323C82.7023 54.3037 83.0031 52.2898 83.4833 50.3153V50.1348C81.6194 52.4455 80.1626 55.0568 79.1752 57.8565L77.5586 62.4333C76.9112 64.4955 75.7712 66.369 74.2373 67.8919L74.0568 68.0682V68.1606C74.2373 68.1606 74.4137 68.0682 74.5942 68.0682L79.8009 66.9933C82.6622 66.5323 85.3717 65.3935 87.7032 63.672C90.0944 61.9439 92.0344 59.6655 93.3591 57.0293C93.696 56.3261 93.9959 55.6057 94.2576 54.8711C94.434 54.6948 94.3458 54.6948 94.2576 54.7829M97.6671 41.3171C96.8379 43.775 95.4211 45.9933 93.5396 47.7792C91.3998 49.8675 89.4193 52.1132 87.615 54.4974C87.615 54.5856 87.4344 54.4974 87.5226 54.4092C88.2428 51.9319 88.4261 49.3294 88.0601 46.7756C87.7032 44.6216 86.8004 42.287 86.5359 39.6837L86.4477 39.5956C86.4477 39.6837 86.3553 39.7719 86.3553 39.8643C85.8157 41.5574 85.4554 43.3025 85.2804 45.0709C85.188 47.2249 85.5491 50.0088 85.3686 52.1628C85.188 54.6822 85.0075 57.2813 83.8444 59.5235V59.704L89.2274 56.3827C91.4447 54.9821 93.3673 53.1621 94.8875 51.0249C96.8315 48.2687 97.8597 44.9711 97.8267 41.5984V41.2373C97.7581 41.2479 97.6949 41.2803 97.6461 41.3297" fill="black"/>
<path d="M91.9216 42.7657C91.937 42.0465 91.9061 41.327 91.8292 40.6117C91.6529 38.0923 90.1245 36.0307 88.7767 33.8935C87.8655 32.5182 87.0557 31.0784 86.3539 29.5854C86.3051 29.5368 86.2416 29.5058 86.1733 29.4972C86.166 29.9776 86.1969 30.4578 86.2657 30.9332C86.7183 34.5628 87.6224 38.1216 88.9572 41.527C89.7419 43.6423 90.0474 45.9053 89.8516 48.1529C89.8516 48.3334 89.8516 48.3334 89.9397 48.4216C90.7501 47.2543 92.3667 45.6377 93.3534 44.3823C94.3402 43.1268 99.7274 37.0216 97.1324 28.5819C97.0225 28.2068 96.8719 27.845 96.6832 27.5027L96.595 27.5951C96.595 33.6961 93.6306 36.3036 92.4633 40.4311C92.2369 41.1977 92.0574 41.9773 91.9258 42.7657M92.014 30.1984L91.4765 28.7582L91.1112 27.9646C90.2107 26.33 88.9535 24.9192 87.433 23.8371C86.1939 22.7947 85.1058 21.585 84.1999 20.2429H83.9311C84.0193 20.5116 84.8297 23.2073 85.3671 24.4627C86.2543 26.1986 87.3392 27.826 88.6003 29.3125L88.869 29.6694C90.3815 31.7112 91.5633 33.9784 92.3709 36.3876C92.3709 36.411 92.3802 36.4334 92.3967 36.4499C92.4133 36.4665 92.4357 36.4758 92.4591 36.4758L93.9875 31.8066C94.5312 30.1541 94.9799 28.4718 95.3311 26.7679C95.8728 22.7286 94.6131 17.6102 92.2785 14.7381C92.2299 14.7869 92.1989 14.8504 92.1903 14.9187L92.2785 15.2756L92.4591 15.8172C92.9374 18.0027 92.9674 20.2625 92.5473 22.4599C92.2184 24.205 92.0693 25.9792 92.1022 27.7547C92.1022 28.0234 92.2785 30.274 92.2785 30.358C92.2785 30.442 92.1903 30.358 92.1022 30.358M84.8129 7.66299C85.5603 8.36648 86.1426 9.22689 86.5176 10.1823C87.1475 11.7065 87.3238 13.9613 87.7773 15.6409L88.5877 18.6011C88.5877 18.6935 88.4953 18.7817 88.4072 18.6935C87.0447 17.0701 85.4003 15.706 83.5532 14.6667C82.3478 13.9347 81.2839 12.9917 80.4125 11.8829L79.9632 11.253C79.9514 11.241 79.9374 11.2314 79.9219 11.2248C79.9064 11.2183 79.8897 11.2149 79.8729 11.2149C79.8561 11.2149 79.8394 11.2183 79.8239 11.2248C79.8084 11.2314 79.7944 11.241 79.7826 11.253V11.5218C80.2119 13.5342 81.1733 15.3946 82.5665 16.9089C83.7338 17.9881 84.9893 18.9748 86.1565 19.9615C87.704 21.283 89.1458 22.7234 90.4688 24.2696C90.4688 24.2696 90.557 24.362 90.557 24.2696V22.8336L90.6452 18.5255V17.0895C90.6508 15.6166 90.3816 14.1556 89.8516 12.7814C88.9553 10.5731 87.2993 8.75779 85.1824 7.66299C85.0942 7.57482 84.9137 7.57482 84.7331 7.48244C84.7396 7.55226 84.7727 7.61691 84.8255 7.66299M75.5879 3.4641C76.8379 4.65527 77.9531 5.98029 78.9135 7.41526C79.7812 8.83755 80.8377 10.1356 82.0542 11.274C82.8604 12.0844 85.2874 13.9697 85.913 14.5072C85.8248 13.7892 84.6533 8.67073 81.5168 6.15559C79.6965 4.7011 77.5818 3.65954 75.3192 3.103V3.28355L75.5879 3.4641ZM25.3062 73.3798C27.4027 73.2162 29.4752 72.8248 31.487 72.2125L36.3367 71.0452H36.4249C36.4249 71.0336 36.4226 71.0222 36.4182 71.0115C36.4138 71.0008 36.4073 70.9911 36.3991 70.9829C36.3909 70.9747 36.3812 70.9682 36.3705 70.9638C36.3598 70.9593 36.3483 70.9571 36.3367 70.9571H36.2443C33.8091 70.3134 31.5427 69.1486 29.6017 67.5434L25.4028 63.504L21.544 60.1827V60.3633C21.9009 60.9007 23.2488 63.8651 24.0634 65.4775C25.0356 67.6967 26.8473 69.4405 29.102 70.3272C29.1902 70.4154 29.102 70.4154 28.9215 70.4154C26.3605 70.0698 23.7829 69.8609 21.1997 69.7898C19.1932 69.7608 17.2 69.4585 15.2751 68.8912C13.9128 68.45 12.6351 67.7813 11.4961 66.9135H11.3155C13.1007 69.4311 15.5898 71.3652 18.4704 72.4728C20.6742 73.1719 22.9841 73.4761 25.2936 73.3714M23.2278 68.0724C23.4083 68.0724 23.4965 68.1648 23.7652 68.1648V68.0724L23.5889 67.8961C22.0836 66.3508 20.948 64.4846 20.2676 62.4375L18.651 57.8607C17.6621 55.0608 16.2039 52.4496 14.3387 50.139V50.3195C14.8516 52.2908 15.1832 54.3049 15.3297 56.3365C16.1359 61.9 18.8316 64.5957 18.8316 64.6839C18.8316 64.7721 18.8315 64.8645 18.7392 64.7721L18.3823 64.5034C16.6697 63.1254 14.7641 62.0064 12.7264 61.182C11.1241 60.4871 9.59038 59.6436 8.14538 58.6627C6.44924 57.5935 4.93408 56.2612 3.65676 54.7157H3.56859C3.82853 55.4496 4.1285 56.1687 4.46715 56.8698C5.82328 59.5114 7.79304 61.7892 10.2112 63.5124C12.4987 65.3074 15.2265 66.4546 18.1093 66.8337C19.8183 67.283 21.523 67.7323 23.2278 68.0934M8.77521 56.4247L14.1624 59.746C14.211 59.6973 14.242 59.6338 14.2506 59.5655C13.0833 57.2309 12.9027 54.7199 12.7264 52.2048C12.5458 49.9584 12.9027 47.2669 12.8145 45.1129C12.6441 43.3105 12.2881 41.5306 11.7522 39.8013C11.7522 39.7131 11.664 39.6249 11.664 39.5326L11.5759 39.6249C11.3953 42.2282 10.4086 44.5628 10.0475 46.7169C9.69 49.2696 9.87311 51.8689 10.5849 54.3462C10.6773 54.4386 10.4968 54.5268 10.4968 54.4386C8.71481 52.0362 6.73287 49.7888 4.57212 47.7204C2.69432 45.9657 1.27563 43.7771 0.440416 41.3465C0.393746 41.2967 0.33159 41.2641 0.264062 41.2541C0.171687 41.2541 0.264062 41.4347 0.264062 41.6152C0.252058 44.9879 1.2863 48.2814 3.22428 51.0417C4.70889 53.1852 6.60073 55.0157 8.79201 56.4289M7.80527 48.5266C7.89344 48.4384 7.89344 48.4384 7.89344 48.2579C7.67666 45.9963 8.01538 43.7161 8.88018 41.6152C10.1461 38.1877 11.0496 34.6371 11.5759 31.0214C11.5759 30.5721 11.664 29.7617 11.664 29.5854C11.5759 29.5854 11.5759 29.5854 11.5759 29.6736C10.8752 31.1693 10.0639 32.6107 9.14891 33.9858C7.71289 35.9593 6.27687 38.1133 6.09632 40.6285C6.00829 41.3438 6.00829 42.0672 6.09632 42.7825C6.09632 42.8059 6.08703 42.8283 6.07049 42.8449C6.05396 42.8614 6.03153 42.8707 6.00814 42.8707V42.7825L5.37831 40.6285C4.11864 36.4968 1.2508 33.9102 1.2508 27.7883L1.15843 27.7001C0.982072 28.057 0.889697 28.4181 0.713343 28.775C-1.89417 37.2148 3.40483 43.32 4.49234 44.5796C5.57986 45.8393 7.01168 47.3593 7.81367 48.5266M4.03467 31.731L5.55886 36.4002C5.57044 36.4002 5.58191 36.3979 5.59261 36.3935C5.6033 36.389 5.61302 36.3826 5.62121 36.3744C5.6294 36.3662 5.6359 36.3565 5.64033 36.3458C5.64476 36.3351 5.64704 36.3236 5.64704 36.312C6.4897 33.9178 7.66882 31.6557 9.14891 29.5938L9.41764 29.2327C10.6591 27.733 11.7426 26.1092 12.6508 24.3872C13.1882 23.1275 13.9986 20.436 14.0868 20.1673H13.8181C12.9132 21.509 11.8249 22.7174 10.5849 23.7573C9.01283 24.8493 7.71855 26.2946 6.80593 27.9772C6.71776 28.2459 6.5372 28.5147 6.44903 28.7834L5.91157 30.3118C5.91157 30.3118 5.81919 30.4924 5.81919 30.3118C5.81919 30.1313 5.99975 28.0654 5.99975 27.7085C6.00119 25.9197 5.81827 24.1356 5.45389 22.3843C5.03314 20.187 5.06314 17.9271 5.54207 15.7417C5.56063 15.5511 5.62237 15.3673 5.72262 15.2042C5.72262 15.116 5.8108 14.9355 5.8108 14.8431C5.8108 14.7507 5.81079 14.7549 5.72262 14.6667C3.38804 17.5388 2.04019 22.7454 2.58185 26.6966C3.02693 28.4013 3.47621 30.1061 4.01787 31.7352M7.24682 18.6263L7.33919 22.9386V24.2822H7.42737C8.69387 22.6884 10.1067 21.2166 11.6473 19.886L15.2373 16.8334C16.6414 15.3177 17.613 13.4529 18.0506 11.4336V11.1691H17.9624L17.5131 11.7947C16.6751 12.9022 15.6403 13.8459 14.4605 14.5786C12.3065 15.9264 10.8705 16.9131 9.61079 18.6179C9.52261 18.7103 9.43024 18.7103 9.52261 18.5297L10.3288 15.5653C10.7781 13.8606 10.9586 11.6183 11.5885 10.1067C11.9846 9.16256 12.5641 8.30628 13.2932 7.58741V7.39006C13.1127 7.39006 13.0245 7.47824 12.8439 7.57062C10.6926 8.68933 9.00715 10.534 8.08659 12.7772C7.49892 14.135 7.22205 15.6068 7.27621 17.0853V18.6095M12.0377 14.3896L15.9511 11.1691C17.1426 10.0049 18.1978 8.70893 19.0961 7.30609C20.0253 5.85044 21.142 4.5234 22.4174 3.35913L22.6861 3.0862V2.90985C20.4098 3.42458 18.2875 4.4706 16.4928 5.96244C13.1672 8.56576 12.0923 13.68 12.0042 14.398M48.1104 42.2408C48.3791 41.8797 47.7493 41.611 47.5688 42.2408C47.3882 42.8707 47.8417 42.6901 48.1104 42.2408ZM54.9336 26.4404C54.6649 26.3481 53.6739 27.5153 53.8545 27.7001C54.3261 27.3907 54.7003 26.9539 54.9336 26.4404ZM55.1142 26.2599C55.2905 26.3481 55.9203 25.9911 55.8322 25.8988C55.744 25.8064 54.9336 25.4495 54.9336 25.63C54.92 25.7418 54.9289 25.8551 54.9599 25.9633C54.9909 26.0715 55.0434 26.1723 55.1142 26.2599ZM67.2322 37.3911C67.5933 37.303 67.5009 36.7613 67.2322 36.7613C66.9634 36.7613 66.6023 37.2106 66.6947 37.2106C66.7871 37.2106 67.0516 37.4793 67.2322 37.3911ZM62.8317 25.4453C62.563 25.4453 62.4748 25.7182 62.7435 25.8946C62.8485 25.9277 62.9595 25.937 63.0684 25.9217C63.1774 25.9064 63.2816 25.8671 63.3734 25.8064C63.4775 25.7596 63.5663 25.6844 63.6295 25.5892C63.6927 25.4941 63.7276 25.3831 63.7303 25.2689C63.7303 24.996 63.3734 24.6391 63.5497 24.4585C63.7261 24.278 63.999 24.5509 64.1796 24.4585C64.2622 24.4166 64.3312 24.3522 64.3788 24.2727C64.4263 24.1932 64.4504 24.1019 64.4483 24.0093C64.4483 23.8329 64.3601 23.2913 63.999 23.2913C63.6379 23.2913 63.281 24.0093 63.281 24.0093C63.2373 24.1085 63.2147 24.2157 63.2147 24.3242C63.2147 24.4326 63.2373 24.5399 63.281 24.6391C63.3734 24.996 63.281 25.4453 62.8317 25.4453Z" fill="black"/>
<path d="M68.7567 25.5293C68.9094 26.0771 69.0902 26.6166 69.2983 27.1458C69.3865 27.4146 69.4789 28.4055 69.6552 28.3131C69.8316 28.2208 69.8358 27.6833 69.7476 27.4146C69.6503 26.7748 69.5 26.1442 69.2983 25.5293C69.2059 25.1682 68.5803 23.8245 68.3997 23.9127C68.2192 24.0009 68.6685 24.8113 68.7567 25.1724C68.8448 25.5335 68.6685 25.3529 68.7567 25.5335M65.6159 10.2705C65.8846 10.3587 65.8846 9.82123 65.4353 9.46432C64.986 9.10741 64.268 9.28377 64.4486 9.46432C64.8012 9.78238 65.1936 10.0534 65.6159 10.2705ZM52.15 6.41173C51.5202 6.05062 52.0619 5.51317 51.6126 5.15206C51.3723 5.05666 51.1099 5.03127 50.8557 5.07883C50.6016 5.12639 50.3661 5.24495 50.1766 5.42079C49.7273 5.96245 50.714 5.78189 50.9828 5.96245C51.2515 6.143 52.15 6.76863 52.2424 6.68046C52.2592 6.65828 52.2703 6.63238 52.2749 6.60496C52.2794 6.57755 52.2773 6.54944 52.2686 6.52303C52.26 6.49662 52.245 6.47271 52.2251 6.45332C52.2052 6.43394 52.1809 6.41967 52.1542 6.41173M55.7443 4.6146C54.9381 4.2535 51.9653 4.2535 52.0661 5.06388C52.1668 5.87427 53.7708 5.06388 54.2201 5.06388C54.6694 5.06388 56.4623 4.97151 55.7443 4.6146ZM47.5691 39.2638C47.3927 39.1757 47.124 39.352 47.0316 39.1757C46.9392 38.9993 46.7629 39.0833 46.7629 39.1757C46.7372 39.2518 46.7319 39.3332 46.7474 39.412C46.7628 39.4908 46.7986 39.5642 46.851 39.6249C46.9513 39.7101 47.0785 39.7569 47.2101 39.7569C47.3416 39.7569 47.4688 39.7101 47.5691 39.6249C47.6139 39.5755 47.6388 39.5111 47.6388 39.4444C47.6388 39.3776 47.6139 39.3133 47.5691 39.2638ZM45.8643 33.251C46.133 33.251 46.133 33.0705 46.2254 33.0705C46.3178 33.0705 46.2254 33.251 46.4941 33.251C46.7629 33.251 47.0316 32.6212 46.2254 32.6212C45.5956 32.6212 45.6838 33.251 45.8643 33.251ZM46.9434 33.969C46.4941 33.8767 46.5823 34.1454 46.2254 34.1454C45.6838 34.2378 46.133 33.7885 45.9567 33.6079C45.8643 33.5198 45.5956 33.969 45.5074 34.2378C45.5074 34.4183 45.5074 34.7752 45.6838 34.8634L47.3927 35.044C47.7496 35.044 47.3927 34.0572 46.9434 33.969ZM41.3757 39.8013C41.5562 39.8013 41.6444 39.2638 41.5563 38.9951C41.4681 38.7264 40.9264 38.9069 40.9264 39.0833C40.9998 39.3627 41.1565 39.6131 41.3757 39.8013ZM34.1956 39.8013C34.1956 39.6249 34.1956 38.9069 34.015 38.7264C33.8345 38.5458 33.8345 38.8146 33.7463 38.8146C33.6581 38.8146 33.6539 38.4577 33.5658 38.4577C33.4776 38.4577 33.5658 38.9951 33.7463 39.352C33.9269 39.7089 34.1956 40.2506 34.1956 39.8013ZM34.015 38.1889C34.1916 37.6682 34.2823 37.1222 34.2838 36.5723C34.2939 36.4185 34.2668 36.2645 34.2046 36.1234C34.1425 35.9823 34.0472 35.8583 33.9269 35.762C33.8345 35.762 33.9269 36.0307 34.015 36.48C33.9681 36.9367 33.8781 37.388 33.7463 37.8278C33.7463 37.916 33.9269 38.3653 34.015 38.1889Z" fill="black"/>
<path d="M24.8544 58.2974C29.6302 63.0758 35.7157 66.3305 42.3414 67.6499C48.9672 68.9693 55.8353 68.294 62.0772 65.7096C68.3191 63.1251 73.6543 58.7475 77.408 53.1306C81.1617 47.5136 83.1653 40.9096 83.1653 34.1538C83.1653 27.398 81.1617 20.794 77.408 15.177C73.6543 9.56001 68.3191 5.18245 62.0772 2.59799C55.8353 0.0135343 48.9672 -0.66171 42.3414 0.657667C35.7157 1.97704 29.6302 5.23177 24.8544 10.0102C21.6765 13.1766 19.1549 16.9393 17.4343 21.0824C15.7138 25.2256 14.8281 29.6676 14.8281 34.1538C14.8281 38.64 15.7138 43.082 17.4343 47.2251C19.1549 51.3683 21.6765 55.1309 24.8544 58.2974ZM16.3265 34.8634H21.5331C21.616 37.5127 22.0697 40.1373 22.881 42.6607C22.5957 42.5777 22.323 42.4562 22.0706 42.2996C21.7137 42.1191 21.4449 42.3878 21.3526 42.3878C20.9957 42.3878 20.5464 42.1191 20.5464 42.3878C20.5464 42.6565 20.9033 42.4802 20.9033 42.6607C20.9033 42.8413 20.0047 42.8371 19.9165 42.4802C19.8284 42.1233 19.6478 41.7622 19.5596 42.2114C19.4715 42.6607 19.1104 42.5684 18.9298 42.6607C18.8181 42.7826 18.7541 42.9406 18.7492 43.1058C18.7492 43.2864 18.3 43.1982 18.3 43.4669C18.3 43.7356 18.5687 43.828 18.6611 44.0967C18.7534 44.3655 19.018 44.546 18.8416 44.6342C18.6653 44.7224 18.7492 44.546 18.5687 44.6342C18.3881 44.7224 19.3791 47.4181 19.5596 47.3257C19.7402 47.2333 19.2867 46.4313 19.2867 46.066C19.2713 45.9362 19.2981 45.8048 19.3631 45.6914C19.4281 45.578 19.528 45.4885 19.6478 45.4362C19.9165 45.2598 20.6345 46.5153 20.9075 46.3348C21.1804 46.1542 20.8193 45.9778 21.088 45.8855C21.3568 45.7931 22.1671 47.0528 22.4359 46.6959C22.6164 46.4271 22.7928 46.8722 22.7928 46.9646C23.0615 47.4139 23.5108 47.4139 23.7795 47.9513C24.0482 48.4888 24.6781 49.4797 25.1274 49.4797C25.5766 49.4797 25.3079 49.0304 25.4885 49.0304C25.669 49.0304 25.8454 49.6561 26.1141 50.0172C26.305 50.294 26.5952 50.4865 26.9245 50.5546C27.5501 51.365 28.2723 52.1712 28.9903 52.9774L25.3079 56.6598C19.6009 50.8189 16.3826 42.9916 16.3307 34.8256M46.0462 27.3768L45.6851 27.5573C45.1921 27.7813 44.7384 28.0833 44.3415 28.4517L40.6591 24.7735C42.7684 22.8953 45.4588 21.7984 48.28 21.6663V26.8729C47.6344 26.9381 47.0004 27.0892 46.3947 27.3222C46.5405 27.0596 46.7213 26.818 46.9322 26.6042C46.5791 26.8083 46.273 27.0844 46.0336 27.4146M43.2414 35.9425V36.1231C43.2414 35.9425 43.1532 35.8543 43.0608 35.6738C42.9726 35.5814 42.8845 35.4932 42.7921 35.4932H42.3596L42.1832 35.5814H40.9236C40.7472 35.5814 40.6549 35.5814 40.6549 35.4932C40.5667 35.1363 41.1041 35.405 41.4652 34.3259C41.5534 34.2378 41.5534 34.0572 41.6416 33.969L41.734 33.7885L41.8221 33.6961L41.9103 33.6079C41.9815 33.5394 42.067 33.4876 42.1607 33.4564C42.2544 33.4252 42.3539 33.4152 42.452 33.4274H42.6325L42.8089 33.6079L43.0776 34.1454C43.17 34.2378 43.2582 34.2378 43.2582 34.3259C43.3937 34.3931 43.516 34.4841 43.6193 34.5947L43.7074 34.687V34.7752C43.7956 34.8634 43.7956 34.8634 43.888 34.8634H44.2449C44.4255 34.7752 44.4255 34.8634 44.5178 34.8634V34.9558C44.5178 35.0439 44.5178 35.0439 44.4255 35.1363C44.4255 35.2245 44.3373 35.2245 44.3373 35.3127C44.2449 35.405 44.1567 35.4932 44.0685 35.4932C43.9172 35.4728 43.7671 35.4433 43.6193 35.405C43.5269 35.405 43.4387 35.405 43.4387 35.4932V35.9425M33.5839 44.5628C33.3295 44.063 33.2067 43.5067 33.227 42.9463C33.2091 42.3969 33.0422 41.8628 32.7441 41.4011C32.6393 41.0517 32.5786 40.6906 32.5636 40.3261C32.5636 39.6963 32.0261 39.8769 32.0261 39.6963C32.0261 39.5158 32.4712 39.6963 32.4712 39.5158C32.2742 39.0608 31.9255 38.6883 31.4845 38.4618C31.0352 38.2813 31.2157 38.0126 31.2157 37.7438C31.2351 37.6182 31.229 37.4899 31.198 37.3666C31.167 37.2433 31.1117 37.1274 31.0352 37.0258C30.947 36.6647 31.0352 36.0349 31.4845 36.0349C31.665 36.0349 31.9338 36.2154 32.2025 36.0349C32.4712 35.8543 32.2949 35.3169 32.2949 34.8676H34.8142C34.8142 35.2287 34.9066 35.678 34.9066 36.0349C34.726 36.1273 34.6378 36.3078 34.726 36.396C34.8142 36.4842 34.9066 36.5765 34.9947 36.4842C35.4396 39.1017 36.6258 41.5367 38.4126 43.5005L34.7302 47.1829C34.4402 46.8706 34.1709 46.5395 33.924 46.192V45.9233C33.924 45.2976 33.4748 44.9365 33.2942 44.3991M30.0611 38.2939C29.8192 37.17 29.6689 36.0284 29.6118 34.8802H31.7658C31.5895 35.1531 31.1402 35.4218 31.0478 35.6906C30.9554 35.9593 30.4222 36.8579 30.7791 37.2148C31.5895 38.1133 30.5985 38.4744 30.0611 38.2939ZM30.5103 51.5792L30.0611 52.0284L29.4312 51.4028C29.6082 51.3214 29.8055 51.2947 29.9977 51.3262C30.19 51.3576 30.3685 51.4457 30.5103 51.5792ZM36.0781 28.4853C35.9857 28.4853 35.9857 28.5777 35.8975 28.5777C35.6288 28.8464 34.9108 28.754 34.9989 29.0269C35.0871 29.2999 36.9766 28.3971 36.9766 28.5777C36.9766 28.7582 36.1662 29.0269 35.6288 29.2957C35.0913 29.5644 34.9108 30.0137 34.0122 30.0137C33.5629 30.0137 33.3824 30.3706 33.206 30.6393C32.963 30.9787 32.7522 31.3399 32.5762 31.7184C32.5855 32.2783 32.4618 32.8323 32.2151 33.335H29.6118C29.7937 28.7282 31.6079 24.3362 34.7302 20.9441L38.4126 24.6265C37.5168 25.8378 36.7352 27.1296 36.0781 28.4853ZM39.4876 25.7938L42.7207 29.0269H42.3596C42.0027 29.0269 42.0027 28.754 41.734 28.754C41.1923 28.8464 41.1041 29.0269 41.016 28.9346C40.616 28.5669 40.1613 28.2638 39.6681 28.036C39.0786 27.8413 38.4375 27.8742 37.871 28.1284C37.7828 28.1284 37.7828 28.2165 37.6946 28.2165C38.3203 27.4104 38.9543 26.6 39.4876 25.7938ZM34.9989 32.3483C34.9989 32.7052 34.9108 33.0663 34.9108 33.4232H33.0255C32.9892 33.2841 32.9867 33.1384 33.0181 32.9982C33.0495 32.858 33.1139 32.7273 33.206 32.617C33.3119 32.4353 33.4741 32.2931 33.6681 32.212C33.8621 32.1309 34.0773 32.1154 34.2809 32.1677C34.5275 32.1942 34.7692 32.255 34.9989 32.3483ZM36.6155 36.5681L36.7961 36.8369C36.9766 37.0174 37.153 37.1938 37.3335 37.1056C37.5708 37.0611 37.8143 37.0611 38.0515 37.1056C38.2951 37.2016 38.5113 37.3558 38.6814 37.5549C38.8619 37.8236 39.2188 37.6431 39.4876 37.8236C39.7563 38.0042 40.025 38.1847 39.6681 38.3611C39.3112 38.5374 40.025 38.9027 40.1174 38.9027C40.2098 38.9027 40.2979 38.7222 40.2979 38.4534C40.2979 38.3611 40.4743 38.0042 40.7472 38.0923C41.0202 38.1805 41.8221 39.1715 42.0909 38.8103C42.3596 38.4492 42.1832 38.0042 42.2714 37.8236C42.2744 37.7767 42.2944 37.7325 42.3276 37.6992C42.3608 37.666 42.4051 37.646 42.452 37.6431C42.6681 38.066 42.9392 38.4585 43.2582 38.8103L39.5799 42.4928C38.022 40.8584 36.9895 38.7948 36.6155 36.5681ZM39.4876 23.7279L35.8975 20.0497C39.2883 16.9328 43.6777 15.1244 48.28 14.9481V20.1547C45.0064 20.26 41.8786 21.5334 39.4624 23.7447M34.7932 18.9874L31.115 15.305C35.7711 10.9108 41.8804 8.38215 48.28 8.20045V13.4071C43.2633 13.5675 38.4759 15.5463 34.81 18.9748M33.7351 19.9615C30.3258 23.6357 28.3524 28.414 28.1758 33.4232H22.9691C23.1503 27.0308 25.6743 20.928 30.0611 16.2749L33.7351 19.9615ZM28.1674 34.8634C28.1693 35.8283 28.2593 36.791 28.4361 37.7396C28.3479 37.7396 28.3479 37.4667 28.0792 37.5591C27.8105 37.6515 26.8195 39.352 26.3744 40.0784C26.0133 40.704 26.5508 42.0519 26.0133 42.5012C25.4927 42.6784 24.9467 42.7691 24.3968 42.7699H24.3086C23.4332 40.2858 22.9488 37.6809 22.8726 35.0481L28.1674 34.8634ZM48.1877 66.8253C40.0267 66.6657 32.2275 63.4276 26.3534 57.7599L30.0317 54.0775C34.9404 58.743 41.3975 61.4341 48.1667 61.6355L48.1877 66.8253ZM48.1877 60.1827C41.8045 59.9934 35.7123 57.4702 31.0646 53.0908L31.6944 52.4609C31.8301 52.5722 31.9815 52.6627 32.1437 52.7297C32.5321 52.9273 32.9751 52.9908 33.4034 52.9102C33.7645 52.822 34.4825 52.1922 34.9318 52.1922C35.381 52.1922 36.0991 52.3728 36.5483 52.104C36.9976 51.8353 36.2754 50.9367 36.0067 50.4875C35.9185 50.3951 35.9185 50.3069 35.8303 50.2187C39.3541 53.1916 43.7885 54.8702 48.3976 54.9761L48.1877 60.1827ZM48.1877 53.4645C43.5822 53.286 39.1908 51.4729 35.8009 48.3502L39.4792 44.6678C41.2096 46.2423 43.3095 47.3544 45.5844 47.9009C44.7782 48.2578 44.4171 48.7953 44.5094 49.2446C44.6018 49.6939 43.9678 49.9626 43.9678 50.5043C43.9678 51.0459 44.6858 51.4028 44.7782 51.9403C44.8663 52.209 45.4962 52.6583 46.0378 53.0152C46.7086 53.2068 47.4099 53.2681 48.1037 53.1957L48.1877 53.4645ZM48.0071 46.2844C47.7384 46.1038 47.5578 46.4649 47.2009 46.6413C44.739 46.2845 42.4324 45.2245 40.5583 43.5887L44.2365 39.9105C45.3638 40.8298 46.7393 41.3926 48.1877 41.527C48.1877 41.7034 48.3682 41.8839 48.3682 42.245C48.3682 42.6061 48.0995 42.7825 48.1877 42.963C48.2758 43.1436 49.0862 42.963 49.1744 42.6943C49.2626 42.4256 48.9057 42.245 48.8175 41.9763C48.7251 41.7958 48.7251 41.7034 48.6369 41.527H48.9057C49.1791 41.5421 49.4531 41.5109 49.7161 41.4346C49.7625 41.4316 49.8063 41.4115 49.8388 41.3781C49.8713 41.3448 49.8904 41.3006 49.8924 41.2541C49.8924 41.1659 49.9848 41.0777 49.9848 40.9854C49.9848 40.893 50.073 40.8972 50.073 40.809L50.1653 40.8972C50.2535 41.0777 50.4341 41.6152 50.6104 41.527C50.7868 41.4389 50.8833 40.6285 50.791 40.4479C50.7031 40.3319 50.6556 40.1904 50.6556 40.0448C50.6556 39.8993 50.7031 39.7577 50.791 39.6417C50.791 39.5494 50.8833 39.0119 51.0597 39.1001C51.2361 39.1882 51.0597 39.6417 51.0597 39.8181C51.0597 40.091 51.2403 40.4479 51.509 40.2674C51.6895 40.1792 51.8701 39.9105 52.0506 39.9986C52.2312 40.0868 51.6014 40.2674 51.509 40.4479C51.4166 40.6285 51.7777 40.7166 51.6895 40.809C51.6014 40.9014 51.509 40.809 51.4208 40.8972C51.3326 40.9854 51.6014 41.527 51.4208 41.6152C51.2403 41.7034 50.6104 41.8839 50.4341 41.9763C50.2577 42.0687 50.073 41.8839 50.1653 41.7958C50.2577 41.7076 50.1653 41.3465 49.9848 41.3465C49.8042 41.3465 49.8042 41.4347 49.8042 41.6152C49.8042 41.7958 49.9848 42.0645 49.9848 42.1527C49.9848 42.2408 49.7161 42.3332 49.5355 42.4214C49.3446 42.7047 49.1008 42.9485 48.8175 43.1394C48.5488 43.32 48.0071 43.32 48.0071 43.5005C48.0071 43.6811 48.28 43.6811 48.3682 43.7692C48.5488 44.038 48.6369 44.3991 48.28 44.5796C47.9231 44.7602 47.4697 44.3067 47.2891 44.3991C47.1085 44.4914 47.0204 44.9365 46.9322 45.474C46.844 46.0114 47.9189 46.192 48.4564 45.9233C48.8175 45.7469 48.7251 45.2053 49.0862 45.0247C49.4473 44.8442 49.355 44.4872 49.7161 44.5796C50.0772 44.672 49.9848 44.3067 50.3417 44.3067C50.6986 44.3067 50.7028 44.5796 51.1521 44.6678C51.8701 44.8483 51.8701 45.3858 51.9583 45.1171C52.0464 44.8483 52.1388 44.6678 51.6014 44.4872C51.0639 44.3067 50.791 43.6811 51.2403 43.8616C51.7777 44.1303 52.227 44.1303 52.3194 44.3991C52.4117 44.6678 52.945 44.5796 53.0374 44.8483C53.1256 45.2976 53.4867 44.8483 53.2179 44.5796C52.9492 44.3109 53.0374 44.2185 53.2179 44.038C53.3985 43.8574 53.4867 44.1303 53.7554 43.7692C54.0241 43.4081 53.663 43.5005 53.5748 43.32C53.4867 43.1394 53.5748 42.1527 53.9359 42.3332C54.297 42.5138 54.6539 42.245 54.4734 42.1527C54.2928 42.0603 54.5616 41.527 54.6539 41.527C54.7463 41.527 54.6539 41.8839 54.7421 41.9763C54.8303 42.0687 55.7289 41.7034 55.8212 42.1527C55.9136 42.6019 55.1914 42.8707 55.0109 42.8707C54.6539 42.8707 54.381 43.2318 54.1123 43.5887C53.8436 43.9456 53.5748 44.038 53.7554 44.3991C53.9359 44.7602 54.2928 44.6678 54.6539 44.4872C55.0151 44.3067 55.2796 44.038 55.4601 43.9498C55.8212 43.7692 56.09 44.8483 55.9094 45.0247C55.7289 45.2011 55.372 45.2976 55.1914 45.474C54.6747 45.7884 54.0901 45.9741 53.4867 46.0156C53.1256 46.1038 53.1256 46.192 53.0374 46.5531C52.9492 46.9142 51.3326 46.6413 50.9715 46.6413C50.6104 46.6413 51.2403 45.8351 50.7028 45.9233L49.0862 46.192C48.998 46.192 48.4564 46.6413 48.0071 46.2844ZM52.7686 54.6318C53.2271 54.8284 53.6285 55.1375 53.9359 55.5303C54.2047 55.9796 54.2928 56.1602 54.1123 56.6094C53.663 57.4156 53.8436 57.9531 54.7421 58.226C55.2796 58.4024 55.4601 58.944 55.8212 59.3009C53.8257 59.8255 51.7781 60.1268 49.7161 60.1995V54.9929C50.7028 54.9005 51.7777 54.8123 52.7686 54.6318ZM49.7161 53.5568V52.927C50.8833 52.7465 50.6104 53.4645 51.4208 53.1957C51.5454 53.1559 51.6787 53.1516 51.8056 53.1835C51.9325 53.2154 52.0479 53.2822 52.1388 53.3763C51.3285 53.3905 50.5196 53.4508 49.7161 53.5568ZM49.7161 66.9303V61.6187C52.4322 61.5417 55.1214 61.0576 57.6939 60.1827C57.7293 60.2165 57.7718 60.242 57.8183 60.2573C57.8648 60.2725 57.9141 60.2772 57.9627 60.2709C58.3189 60.2484 58.6612 60.1245 58.9494 59.914C59.8124 59.5723 60.6269 59.1192 61.3722 58.5661C63.7387 57.3631 65.9171 55.8213 67.8385 53.9893L71.5167 57.6676C65.6651 63.3789 57.8771 66.677 49.7035 66.9051M64.2442 19.9531L65.5039 18.6935C65.8327 19.0657 66.2757 19.3183 66.7635 19.4115C66.9501 19.4234 67.1259 19.5028 67.2581 19.635C67.3902 19.7671 67.4697 19.943 67.4816 20.1295C67.5739 20.5788 68.019 20.7593 68.4683 20.8475C68.9176 20.9357 69.1863 21.4773 69.5474 21.4773C69.9085 21.4773 71.0716 23.0897 71.5209 23.6314C71.7896 23.9001 72.1507 24.3494 72.4195 23.9883C72.6882 23.6272 72.6882 23.7195 72.8687 23.6314C74.2503 26.7188 75.0258 30.0431 75.1529 33.4232H69.9211C69.9054 32.2428 69.7561 31.068 69.476 29.9213C69.6582 29.5595 69.7503 29.159 69.7448 28.754C69.7538 28.6775 69.7377 28.6001 69.6991 28.5334C69.6604 28.4667 69.6013 28.4143 69.5304 28.3841C69.4595 28.3538 69.3807 28.3473 69.3058 28.3656C69.2309 28.3838 69.164 28.4258 69.1149 28.4853C68.9291 27.8092 68.689 27.1492 68.3969 26.5118C68.3087 26.1507 68.2164 25.7056 68.1282 25.3445C68.1282 25.2563 67.9476 25.164 67.7671 24.9834C67.6369 24.6758 67.4868 24.3771 67.3178 24.089C67.5907 23.9085 67.6789 23.4592 67.3178 23.5474C66.7803 23.6398 67.1414 23.2787 66.9609 23.0981C66.7803 22.9175 66.7803 23.0981 66.6922 23.1905C65.9944 22.1139 65.2139 21.0933 64.3576 20.1379V20.0497C64.177 20.0497 64.177 19.9573 64.2652 19.9573M67.4102 50.3909C67.2296 50.034 67.1414 49.5847 66.9609 49.2236C66.8685 48.8667 66.1505 48.8667 66.1505 49.0472C66.165 49.4078 66.1354 49.7688 66.0623 50.1222V50.2187L64.177 48.3334C67.5913 44.6583 69.5678 39.8766 69.7448 34.8634H74.9514C74.7841 41.2326 72.2567 47.3126 67.8595 51.9235L67.5907 51.6547C67.658 51.2263 67.5951 50.7874 67.4102 50.3951M63.0979 53.9977C63.3708 53.5484 63.9083 52.7381 64.177 52.2888C64.4458 51.8395 63.459 51.2139 62.9174 51.0291C62.3757 50.8444 62.3757 50.5798 62.3757 50.1305C62.6681 49.9175 62.9394 49.6771 63.1861 49.4125L66.8643 53.095C65.6506 54.2379 64.3287 55.2602 62.9174 56.1476C62.825 55.967 63.4548 55.3372 63.6354 55.0684C63.8159 54.7997 62.9174 54.4428 63.0937 53.9935M65.3401 32.533C64.8908 31.9074 65.5207 31.815 66.1463 31.5463C66.5074 31.3699 66.9567 31.6386 66.9567 31.4581C66.9707 31.3345 67.0096 31.215 67.0709 31.1068C67.1322 30.9985 67.2148 30.9038 67.3136 30.8283C67.5315 30.7303 67.7187 30.575 67.8553 30.379C67.8553 30.5595 67.9434 30.7401 67.9434 30.9206C67.7707 31.221 67.6781 31.5609 67.6747 31.9074C67.6747 32.1761 67.6747 32.533 67.9434 31.9074C67.9434 31.815 68.0316 31.815 68.0316 31.7268C68.1761 32.283 68.237 32.8575 68.2122 33.4316H64.3534V33.3434C64.6221 32.8941 65.6131 32.9823 65.3401 32.533ZM66.0581 25.1724C66.0587 25.1843 66.0568 25.1962 66.0527 25.2074C66.0485 25.2186 66.0421 25.2288 66.0338 25.2374C66.0256 25.2461 66.0157 25.2529 66.0047 25.2576C65.9937 25.2623 65.9819 25.2647 65.97 25.2647C65.8776 25.3529 65.4283 24.6349 65.4283 25.1724C65.4283 25.7098 65.6089 25.8904 65.97 25.9827C66.3311 26.0751 66.1463 26.2515 66.4192 26.3396C66.5535 26.3632 66.6777 26.426 66.7761 26.5202C67.1996 27.5047 67.5299 28.5267 67.7629 29.5728C67.6289 29.6404 67.508 29.7314 67.406 29.8415C67.2254 30.0221 67.3136 30.379 67.1372 30.6477C66.8643 31.097 66.7761 31.3699 66.0581 31.1894C65.6089 31.0088 65.97 30.4714 66.0581 30.0221C66.1463 29.5728 66.3269 29.661 66.3269 29.3922C66.3269 29.1235 65.4283 28.1326 64.979 28.4937C64.5297 28.8548 64.6221 29.2117 64.261 29.5728C64.0847 29.7533 63.9041 29.7533 63.6354 29.5728C63.3666 29.3922 63.2743 29.2117 63.3666 29.0353C63.459 28.859 62.7368 28.0444 62.4681 27.6875C62.2967 27.469 62.079 27.2913 61.8307 27.1672C61.5824 27.043 61.3096 26.9755 61.0321 26.9695C60.5448 26.1342 59.972 25.3518 59.3231 24.6349L63.0055 20.9525C64.2063 22.2092 65.233 23.6215 66.0581 25.1514M59.8648 27.6707L59.6842 27.9394C59.596 28.12 59.1468 27.7589 59.0544 27.8512C58.962 27.9436 59.6842 28.838 58.9662 28.5693C58.2482 28.3005 58.6975 28.3005 58.6975 28.0276C58.6975 27.7547 58.0676 27.5825 58.4288 27.402C58.7899 27.2214 58.4288 26.9527 58.7857 26.8603C59.1426 26.7679 59.0544 26.4152 58.6051 26.3228C58.1558 26.2305 58.2482 27.3096 57.9795 27.1332C57.7165 27.057 57.4425 27.0258 57.1691 27.0409L58.4288 25.7812C58.567 25.8529 58.7229 25.8835 58.878 25.8694C59.0951 26.5234 59.4294 27.1324 59.8648 27.6665M58.4288 45.8897C59.0052 45.9677 59.575 46.0884 60.1335 46.2508C60.4904 46.4313 60.7633 46.7882 61.0321 46.339C61.5716 45.5252 61.9375 44.609 62.107 43.6475C62.2875 42.2996 62.0188 41.8503 61.8383 41.8503C61.6577 41.8503 61.3008 42.2114 60.9397 42.2114C60.7633 42.2114 60.7633 42.5684 60.7633 42.8371C60.7633 43.1058 60.4022 43.3787 60.3141 43.1982C60.2259 43.0176 60.0411 43.1058 60.1335 43.2864C60.2259 43.4669 59.4155 43.3787 59.0544 43.1982C58.5169 42.9295 59.6842 42.9295 60.2217 42.4802C60.6927 42.0841 61.1426 41.6637 61.5695 41.2205C61.8383 40.7754 61.8383 40.2338 62.2875 39.8769C62.7368 39.52 63.4548 39.6081 63.5472 39.0665C63.6396 38.5248 63.7278 38.6172 63.9965 38.7096C64.2652 38.8019 66.7803 38.6172 66.7803 37.811C66.7803 37.4499 66.2429 37.0048 65.7054 36.9124C65.3443 36.9124 65.2561 36.1944 65.0756 35.8375C64.899 35.4594 64.6882 35.0982 64.4458 34.7584H68.2248C68.0439 39.3654 66.2296 43.7578 63.1063 47.1493L63.0181 47.057V46.7001C63.1063 45.9821 62.5689 44.8148 62.3883 44.9911C62.2078 45.1675 62.3883 45.1717 61.8508 45.9821C61.6703 46.2508 61.4016 46.7001 61.0447 46.7001C60.6878 46.7001 60.6836 46.5195 60.1461 46.6077C59.6719 46.7001 59.1843 46.7001 58.7101 46.6077C57.8515 46.3314 57.0349 45.9386 56.2831 45.4404C56.3755 45.3522 56.6442 45.5328 56.6442 45.264C56.6442 44.9953 58.0802 45.8015 58.4413 45.8897M72.5328 56.7522L68.8546 53.0908C73.5201 48.1821 76.2112 41.725 76.4126 34.9558H81.7074C81.5392 43.1329 78.265 50.9395 72.5496 56.79M81.6822 33.4232H76.3874C76.3038 29.5616 75.3841 25.7639 73.6917 22.2919L73.7841 22.2037C74.141 21.8426 72.0793 19.1511 71.7182 18.8824C71.3027 18.5166 70.9074 18.1283 70.5342 17.7193C69.8034 17.0058 69.1426 16.2241 68.5607 15.3847L72.4195 11.5218C78.1887 17.3723 81.4948 25.2124 81.657 33.4274M49.7245 1.46963C57.9022 1.64992 65.7164 4.88377 71.6301 10.535L68.0358 14.1083C67.8595 14.0201 67.6789 13.9319 67.7671 13.7514C67.9476 13.4826 67.4984 13.4826 67.4102 12.7646C67.2037 12.0396 66.7193 11.4254 66.0623 11.0557C65.6131 10.787 65.3443 10.4301 64.895 10.2495C64.4458 10.069 63.5472 9.53149 63.0979 9.71205C62.8097 9.81299 62.5085 9.87237 62.2036 9.8884C58.3861 7.84891 54.1399 6.74241 49.8126 6.65945L49.7245 1.46963ZM49.7245 8.18785C53.5637 8.30449 57.3318 9.25438 60.7675 10.9717C60.8729 11.5606 61.1193 12.1152 61.4855 12.5883C61.6878 13.0283 61.928 13.4497 62.2036 13.848C62.4723 14.1167 62.2917 14.6583 62.3799 15.1076C62.3799 15.284 62.5605 15.4645 62.6528 15.6451V16.3631C62.6528 16.4513 63.0097 16.4513 63.2785 16.2707C63.5472 16.0902 63.7277 15.7333 64.0889 15.8256C64.45 15.918 64.895 16.6318 65.1638 17.0853L63.459 18.79C63.2785 18.4331 63.0979 17.9839 63.1903 17.9839C63.2827 17.9839 63.459 18.072 63.5472 18.072C63.9083 18.072 63.2785 17.8033 63.2785 17.7151C63.0097 17.4422 63.0097 17.0853 62.6528 16.8166C62.2959 16.5478 61.7543 16.7242 61.5737 16.3673C61.2209 15.7285 60.7304 15.1763 60.1377 14.7507C60.0453 14.7507 60.8557 15.7375 60.587 15.918C60.3183 16.0986 59.3273 15.2882 59.2391 15.4687C59.151 15.6493 60.3183 16.0986 60.6752 16.4555C60.8557 16.636 61.2126 17.1735 61.5737 17.6228C58.1508 15.0331 54.0137 13.5598 49.7245 13.4029V8.18785ZM49.7245 14.8305C54.33 15.0123 58.7207 16.8266 62.1112 19.9489L58.4329 23.6314C56.0199 21.4839 52.9498 20.2183 49.7245 20.0413V14.8305ZM49.7245 21.5487C52.5515 21.694 55.2438 22.8023 57.3538 24.6895L57.1733 24.87L56.9969 24.7819C56.5476 24.6013 55.6491 25.4999 55.8296 25.588C56.0102 25.6762 56.3671 25.2311 56.5476 25.3193H56.6358L55.1116 26.9359C54.6623 27.1164 54.2131 27.4733 54.2131 27.7421V27.8345L53.6714 28.3845L53.4027 28.1158C52.9773 27.7605 52.4906 27.4859 51.9667 27.3054C52.0912 27.2074 52.195 27.0857 52.2721 26.9474C52.3493 26.809 52.3981 26.6566 52.4159 26.4992C52.4159 25.9617 52.2354 26.1381 51.9667 26.411C51.6979 26.684 51.4292 26.7679 51.2487 27.0367C50.7903 26.8605 50.3037 26.7695 49.8126 26.7679V21.5613L49.7245 21.5487ZM49.0946 28.1914C49.125 28.2667 49.1328 28.3493 49.1172 28.4291C49.1015 28.5088 49.063 28.5823 49.0064 28.6406C48.8259 28.8212 48.2884 28.1914 48.1961 28.7288C48.0155 29.2705 48.5572 29.0017 48.5572 29.0899C48.8215 29.4299 49.2063 29.6554 49.6321 29.7198C49.9932 29.7198 50.5306 29.7198 50.5306 30.0767C50.5306 30.2572 50.9799 30.2572 51.0681 30.4378C51.0681 30.7065 51.341 31.1558 51.5174 31.0634C51.6937 30.971 51.9667 31.1558 52.059 31.3363C52.1514 31.5169 52.059 31.6051 51.9667 31.7814C51.6979 32.0543 52.2354 31.962 52.3278 32.4994C52.4201 33.0369 51.8785 32.68 51.7861 33.0411C51.6098 33.3098 51.4292 33.4904 51.2487 33.7591C51.1605 33.8473 51.341 34.0278 51.4292 33.9396C51.5174 33.8515 51.6979 33.5785 51.9667 33.5785C52.2354 33.5785 52.5041 34.5653 52.777 34.6576C53.05 34.75 52.9534 35.1069 53.0458 35.1951C53.1381 35.2833 52.5965 35.1951 52.6847 35.3757C52.7728 35.5562 53.3145 35.6444 53.3145 35.9131C53.2846 36.0602 53.2064 36.193 53.0922 36.2904C52.9781 36.3878 52.8346 36.4442 52.6847 36.4506C52.4159 36.4506 51.9667 35.8249 51.9667 36.0013C51.9667 36.1776 52.1472 36.7193 52.4159 36.7193C52.6847 36.7193 53.3145 36.4506 53.0458 36.8117C52.777 37.1728 52.8652 37.7102 52.6847 37.7102C52.5041 37.7102 52.4159 37.7102 52.5965 37.979C52.6317 38.1181 52.6337 38.2635 52.6023 38.4036C52.571 38.5436 52.5071 38.6743 52.4159 38.7852C52.3166 38.8443 52.2 38.8678 52.0855 38.8518C51.971 38.8358 51.8654 38.7812 51.7861 38.697C51.7861 38.6046 52.3278 38.6046 52.3278 38.3359C52.3278 38.0671 52.059 37.979 51.5174 38.1595C51.2487 38.2477 51.1605 38.0671 50.9799 38.0671C50.7994 38.0671 50.2619 38.697 50.2619 38.7852V39.2344C50.2702 39.5549 50.176 39.8697 49.9932 40.133C49.6696 40.2056 49.3378 40.2352 49.0064 40.2212C47.5539 40.1796 46.1594 39.6417 45.0553 38.697C45.2782 38.5841 45.5235 38.5225 45.7733 38.5164C46.042 38.6046 46.1302 38.4282 46.3108 38.3359C46.4913 38.2435 46.9406 38.5164 47.2093 38.3359C47.478 38.1553 48.1079 36.9922 48.0155 36.7193C47.9231 36.4464 48.6453 36.0013 48.5572 35.9131C48.469 35.8249 48.3766 36.0013 48.3766 35.9131C48.3766 35.8249 48.5572 35.8249 48.3766 35.4638C48.1961 35.1027 47.9273 35.2833 47.7468 35.2833C47.478 35.1069 47.0288 35.0146 46.9406 35.1069C46.8524 35.1993 46.5795 34.9264 46.4913 35.0146C46.4217 35.0194 46.3561 35.0493 46.3067 35.0987C46.2574 35.1481 46.2275 35.2136 46.2226 35.2833C46.1302 35.4638 46.3108 35.6444 46.3108 35.8249C46.2226 36.1818 45.6809 36.4506 45.6809 36.7193C45.6809 36.988 45.4122 36.8117 45.324 36.8999C45.2358 36.988 45.324 37.1686 45.1435 37.1686C44.9629 37.1686 44.6942 37.6179 44.5178 37.979C44.2449 37.6179 43.9762 37.1686 43.7074 36.8117C43.888 36.7193 44.0685 36.6311 44.1567 36.7193C44.4255 36.8999 45.5046 35.0146 45.324 34.4771C45.1435 33.9396 44.8747 34.2965 44.606 34.3847C44.3373 34.4729 44.3373 34.2084 44.4255 34.116C44.5136 34.0236 45.6851 34.0278 45.0553 33.6667C44.7866 33.4904 44.0685 33.4904 44.1567 33.2216C44.2449 32.9529 44.606 33.2216 44.6942 33.2216C45.1435 33.398 45.4122 32.4994 45.6809 32.4994C46.1302 32.4994 45.9539 31.6051 45.5046 31.8738C45.0553 32.1425 44.8747 32.0543 44.6942 32.3231C44.5136 32.5918 44.0685 32.9487 44.0685 32.5918C44.0685 32.4112 45.0553 31.8738 45.2358 31.6051C45.4341 31.4005 45.5859 31.1556 45.6809 30.887C45.7733 30.6141 47.0288 30.4378 47.2975 30.2572C47.5034 30.0715 47.6323 29.8153 47.6586 29.5392C47.6586 29.2705 47.2975 29.3586 47.2093 29.1781C47.1211 28.9975 47.6586 29.1781 47.6586 28.9094C47.6586 28.6406 47.2093 28.9094 47.0288 28.7288C47.0288 28.6406 47.0288 28.6406 47.1211 28.5525C47.7529 28.3178 48.4208 28.1956 49.0946 28.1914H49.2752ZM48.28 1.46963V6.67625C41.5102 6.87488 35.0522 9.56635 30.145 14.2342L26.4626 10.5518C32.3367 4.88415 40.1358 1.64601 48.2968 1.48642M25.3121 11.6309L28.9945 15.3092C24.3273 20.2168 21.636 26.6745 21.4365 33.4442H16.2341C16.4842 25.3078 19.7114 17.5461 25.3037 11.6309" fill="black"/>
<path d="M89.6554 91.6743C89.6219 91.3611 89.4808 91.1173 89.2322 90.9427C88.9859 90.7682 88.6656 90.6809 88.2711 90.6809C87.9937 90.6809 87.7558 90.7228 87.5574 90.8065C87.3589 90.8901 87.2071 91.0037 87.1019 91.1472C86.9967 91.2906 86.9429 91.4544 86.9405 91.6385C86.9405 91.7915 86.9752 91.9242 87.0445 92.0366C87.1163 92.1489 87.2131 92.2446 87.335 92.3235C87.457 92.4 87.5921 92.4645 87.7403 92.5171C87.8885 92.5697 88.038 92.614 88.1886 92.6498L88.8771 92.822C89.1545 92.8865 89.4211 92.9738 89.6769 93.0838C89.9351 93.1937 90.1658 93.3324 90.369 93.4998C90.5747 93.6671 90.7372 93.8692 90.8568 94.1058C90.9763 94.3425 91.0361 94.6199 91.0361 94.9379C91.0361 95.3682 90.9261 95.7472 90.7062 96.0747C90.4862 96.3999 90.1682 96.6545 89.7522 96.8386C89.3386 97.0203 88.8377 97.1112 88.2495 97.1112C87.6781 97.1112 87.182 97.0227 86.7612 96.8458C86.3428 96.6689 86.0153 96.4106 85.7786 96.0711C85.5443 95.7316 85.4176 95.318 85.3984 94.8303H86.7074C86.7266 95.0861 86.8055 95.2989 86.9441 95.4686C87.0828 95.6384 87.2633 95.7651 87.4857 95.8488C87.7104 95.9325 87.9614 95.9743 88.2388 95.9743C88.5281 95.9743 88.7815 95.9313 88.9991 95.8452C89.219 95.7567 89.3912 95.6348 89.5155 95.4794C89.6398 95.3216 89.7032 95.1375 89.7056 94.9271C89.7032 94.7358 89.647 94.578 89.537 94.4537C89.427 94.327 89.2728 94.2218 89.0744 94.1381C88.8783 94.0521 88.6488 93.9755 88.3858 93.9086L87.5502 93.6934C86.9453 93.538 86.4672 93.3025 86.1157 92.9869C85.7666 92.6689 85.5921 92.247 85.5921 91.721C85.5921 91.2882 85.7093 90.9093 85.9436 90.5841C86.1803 90.2589 86.5018 90.0067 86.9083 89.8274C87.3147 89.6457 87.775 89.5548 88.289 89.5548C88.8102 89.5548 89.2669 89.6457 89.659 89.8274C90.0535 90.0067 90.3631 90.2566 90.5878 90.5769C90.8125 90.8949 90.9285 91.2607 90.9357 91.6743H89.6554Z" fill="black"/>
<path d="M84.2154 89.6553V97H83.0319L79.5712 91.9971H79.5102V97H78.1797V89.6553H79.3703L82.8275 94.6617H82.8921V89.6553H84.2154Z" fill="black"/>
<path d="M76.9213 93.3276C76.9213 94.119 76.7731 94.7968 76.4766 95.3611C76.1825 95.9229 75.7808 96.3533 75.2716 96.6521C74.7647 96.951 74.1897 97.1004 73.5466 97.1004C72.9034 97.1004 72.3272 96.951 71.818 96.6521C71.3111 96.3509 70.9095 95.9193 70.613 95.3575C70.3189 94.7932 70.1719 94.1166 70.1719 93.3276C70.1719 92.5362 70.3189 91.8596 70.613 91.2978C70.9095 90.7335 71.3111 90.302 71.818 90.0031C72.3272 89.7043 72.9034 89.5548 73.5466 89.5548C74.1897 89.5548 74.7647 89.7043 75.2716 90.0031C75.7808 90.302 76.1825 90.7335 76.4766 91.2978C76.7731 91.8596 76.9213 92.5362 76.9213 93.3276ZM75.5836 93.3276C75.5836 92.7706 75.4963 92.3007 75.3218 91.9182C75.1497 91.5333 74.9106 91.2428 74.6045 91.0467C74.2985 90.8483 73.9459 90.7491 73.5466 90.7491C73.1473 90.7491 72.7947 90.8483 72.4886 91.0467C72.1826 91.2428 71.9423 91.5333 71.7678 91.9182C71.5956 92.3007 71.5096 92.7706 71.5096 93.3276C71.5096 93.8847 71.5956 94.3557 71.7678 94.7406C71.9423 95.1232 72.1826 95.4137 72.4886 95.6121C72.7947 95.8081 73.1473 95.9062 73.5466 95.9062C73.9459 95.9062 74.2985 95.8081 74.6045 95.6121C74.9106 95.4137 75.1497 95.1232 75.3218 94.7406C75.4963 94.3557 75.5836 93.8847 75.5836 93.3276Z" fill="black"/>
<path d="M68.9165 89.6553V97H67.5859V89.6553H68.9165Z" fill="black"/>
<path d="M60.5938 90.7706V89.6553H66.4538V90.7706H64.1836V97H62.8639V90.7706H60.5938Z" fill="black"/>
<path d="M55.4436 97H54.0234L56.6092 89.6553H58.2517L60.841 97H59.4208L57.4591 91.1615H57.4017L55.4436 97ZM55.4902 94.1202H59.3634V95.1889H55.4902V94.1202Z" fill="black"/>
<path d="M53.0514 89.6553V97H51.8679L48.4071 91.9971H48.3461V97H47.0156V89.6553H48.2063L51.6635 94.6617H51.728V89.6553H53.0514Z" fill="black"/>
<path d="M39.6764 97H37.1875V89.6553H39.7266C40.4558 89.6553 41.0822 89.8023 41.6058 90.0964C42.1318 90.3881 42.5359 90.8077 42.818 91.3552C43.1001 91.9027 43.2412 92.5578 43.2412 93.3205C43.2412 94.0855 43.0989 94.743 42.8144 95.2929C42.5323 95.8428 42.1246 96.2648 41.5915 96.5589C41.0607 96.853 40.4223 97 39.6764 97ZM38.518 95.8488H39.6118C40.1235 95.8488 40.5503 95.7556 40.8921 95.5691C41.234 95.3802 41.4911 95.0993 41.6632 94.7263C41.8353 94.3509 41.9214 93.8823 41.9214 93.3205C41.9214 92.7586 41.8353 92.2924 41.6632 91.9218C41.4911 91.5488 41.2364 91.2703 40.8993 91.0862C40.5646 90.8997 40.1486 90.8065 39.6513 90.8065H38.518V95.8488Z" fill="black"/>
<path d="M31.0547 97V89.6553H35.8316V90.7706H32.3852V92.7646H35.5842V93.8799H32.3852V95.8847H35.8603V97H31.0547Z" fill="black"/>
<path d="M24.0625 90.7706V89.6553H29.9225V90.7706H27.6524V97H26.3326V90.7706H24.0625Z" fill="black"/>
<path d="M22.9477 89.6553V97H21.6172V89.6553H22.9477Z" fill="black"/>
<path d="M20.1685 89.6553V97H18.9851L15.5243 91.9971H15.4633V97H14.1328V89.6553H15.3235L18.7807 94.6617H18.8452V89.6553H20.1685Z" fill="black"/>
<path d="M11.3565 89.6553H12.687V94.4537C12.687 94.9797 12.5627 95.4424 12.314 95.8416C12.0678 96.2409 11.7211 96.5529 11.274 96.7777C10.8269 97 10.3045 97.1112 9.70677 97.1112C9.10667 97.1112 8.58307 97 8.13598 96.7777C7.68889 96.5529 7.34221 96.2409 7.09595 95.8416C6.84969 95.4424 6.72656 94.9797 6.72656 94.4537V89.6553H8.05708V94.3426C8.05708 94.6486 8.12402 94.9212 8.25791 95.1602C8.39419 95.3993 8.58546 95.587 8.83172 95.7233C9.07798 95.8572 9.36966 95.9241 9.70677 95.9241C10.0439 95.9241 10.3356 95.8572 10.5818 95.7233C10.8305 95.587 11.0218 95.3993 11.1556 95.1602C11.2895 94.9212 11.3565 94.6486 11.3565 94.3426V89.6553Z" fill="black"/>
</svg>
