<svg width="500" height="200" viewBox="0 0 500 200" fill="none" xmlns="http://www.w3.org/2000/svg">
<path d="M115.562 137.233V63.4746H119.563V75.0769C120.035 74.5624 120.471 74.016 120.868 73.4414C124.21 66.5088 131.258 62.1335 138.952 62.2199C148.074 61.9479 155.487 65.3245 159.843 73.4414C162.615 78.4839 164.14 84.1164 164.292 89.8686C164.443 95.6209 163.216 101.326 160.713 106.507C156.655 115.603 146.63 120.126 135.899 118.465C132.559 118.181 129.343 117.065 126.546 115.219C123.748 113.373 121.457 110.855 119.883 107.896V137.23L115.562 137.233ZM119.563 89.5662L120.459 98.2272C122.04 108.085 127.868 113.91 137.019 115.005C141.316 115.711 145.725 114.906 149.495 112.725C153.265 110.545 156.162 107.125 157.692 103.047C161.251 94.5656 160.989 84.9637 156.988 76.6804C155.355 73.0256 152.576 70.0016 149.072 68.0655C145.569 66.1294 141.53 65.3863 137.566 65.9487C133.846 66.2193 130.302 67.6419 127.427 70.0188C124.553 72.3957 122.49 75.609 121.525 79.2121C120.673 82.6219 120.018 86.0779 119.563 89.563V89.5662ZM245.982 99.5906C245.375 104.784 242.903 109.58 239.025 113.087C235.147 116.594 230.127 118.574 224.899 118.657C208.121 119.502 200.248 108.36 198.996 95.5034C198.126 88.5214 199.259 81.4359 202.264 75.0737C204.355 70.7093 207.782 67.1239 212.047 64.8371C216.312 62.5503 221.195 61.6807 225.987 62.3543C230.543 62.7416 234.862 64.5519 238.333 67.529C241.803 70.5061 244.25 74.4992 245.326 78.9433C246.178 82.9916 246.805 87.084 247.204 91.2018H203.141C202.325 102.858 208.589 112.23 217.467 114.49C228.525 117.21 237.977 112.419 241.408 101.905C242.17 99.2066 243.559 98.8257 246.01 99.5906H245.982ZM203.109 87.4698H242.522C242.275 75.0513 234.543 66.0255 224.054 65.9231C212.212 65.731 203.624 74.3952 203.109 87.4698ZM254.127 99.8627H257.99C258.132 102.709 259.057 105.461 260.661 107.815C262.266 110.17 264.49 112.037 267.087 113.209C270.348 114.677 273.898 115.39 277.473 115.296C281.047 115.202 284.555 114.303 287.734 112.665C289.467 111.885 290.919 110.591 291.893 108.96C292.867 107.328 293.317 105.436 293.182 103.54C293.281 101.712 292.782 99.901 291.76 98.3819C290.737 96.8629 289.248 95.7186 287.516 95.1225C283.266 93.5414 278.747 92.6708 274.416 91.2818C269.91 89.9988 265.504 88.3878 261.233 86.4616C254.255 83.0561 253.823 69.7926 261.722 65.5934C265.767 63.3111 270.319 62.0778 274.963 62.0063C279.606 61.9347 284.194 63.0271 288.307 65.1837C293.409 68.0003 296.229 73.6878 295.39 79.4586H292.077C292.077 79.2986 291.776 79.1577 291.776 78.9945C291.367 68.4324 282.488 65.1293 272.957 66.0575C270.076 66.3776 267.346 67.2481 264.785 68.5348C263.246 69.2377 261.964 70.4017 261.115 71.8656C260.266 73.3295 259.894 75.021 260.048 76.706C260.052 78.3923 260.577 80.0362 261.553 81.4117C262.528 82.7872 263.906 83.8268 265.496 84.3876C269.657 85.9143 274.074 86.8937 278.379 88.0907L288.781 90.8113C291.145 91.5873 293.218 93.0627 294.726 95.0424C296.233 97.0221 297.104 99.4128 297.224 101.898C298.056 107.483 295.208 112.973 290.17 115.517C281.074 120.664 266.091 119.303 259.418 112.796C256.003 109.362 254.098 104.699 254.137 99.8595L254.127 99.8627ZM346.242 79.4618H342.619C342.619 78.9721 342.427 78.5016 342.372 78.1271C342.314 75.4113 341.325 72.7979 339.569 70.7251C337.813 68.6523 335.398 67.2462 332.729 66.7424C327.693 65.2982 322.322 65.557 317.449 67.4786C315.522 68.03 313.825 69.1904 312.613 70.7862C311.4 72.3819 310.736 74.3274 310.721 76.3316C310.652 78.2995 311.265 80.2309 312.456 81.7991C313.647 83.3673 315.343 84.4761 317.257 84.9381L333.817 89.1885C335.608 89.6181 337.371 90.1546 339.098 90.7953C344.379 92.7157 347.964 97.619 348.124 103.223C348.203 105.967 347.451 108.67 345.965 110.977C344.48 113.285 342.332 115.09 339.802 116.154C335.959 117.9 331.793 118.824 327.571 118.866C323.35 118.909 319.166 118.069 315.288 116.4C312.099 115.025 309.408 112.706 307.577 109.755C305.746 106.804 304.863 103.363 305.046 99.8947H308.586C309.918 106.312 314.325 111.657 320.371 114.186C326.417 116.714 333.321 116.093 338.82 112.534C340.469 111.676 341.839 110.363 342.766 108.751C343.693 107.139 344.138 105.295 344.049 103.438C344.131 101.608 343.615 99.8018 342.577 98.2925C341.54 96.7832 340.039 95.6535 338.301 95.0745C334.051 93.4934 329.531 92.6516 325.201 91.2338C320.669 89.9706 316.236 88.3777 311.937 86.468C305.126 83.1169 304.582 69.9623 312.347 65.7662C316.442 63.3881 321.082 62.1105 325.817 62.0578C330.552 62.0051 335.22 63.179 339.367 65.4654C341.739 66.8809 343.648 68.9555 344.862 71.4365C346.075 73.9176 346.542 76.6981 346.203 79.4394L346.242 79.4618ZM108.978 117.325C107.552 117.865 105.978 117.863 104.552 117.321C103.127 116.779 101.95 115.735 101.242 114.384L87.1593 94.9081L85.1173 92.1876L68.7748 114.413C68.1087 115.705 66.9949 116.711 65.6414 117.242C64.2878 117.774 62.7872 117.794 61.4197 117.3L82.4736 89.0541L62.8856 63.5322C65.7918 62.4824 69.0309 63.6218 70.6472 66.2527L85.2421 85.9687L99.9235 66.3295C100.595 65.0592 101.709 64.0797 103.055 63.5775C104.401 63.0753 105.885 63.0854 107.224 63.6058L99.6226 73.691L89.3262 87.0921C89.0404 87.3473 88.8117 87.66 88.6552 88.0097C88.4986 88.3594 88.4177 88.7382 88.4177 89.1213C88.4177 89.5045 88.4986 89.8833 88.6552 90.233C88.8117 90.5827 89.0404 90.8953 89.3262 91.1505L108.937 117.325H108.978ZM198.372 63.2601V67.1009C195.617 66.9202 192.855 67.3192 190.264 68.272C187.673 69.2248 185.31 70.7104 183.329 72.6328C181.347 74.5552 179.791 76.8717 178.76 79.4328C177.729 81.9939 177.247 84.7427 177.344 87.5018C177.344 96.4721 177.344 105.442 177.344 114.413V117.463H173.449V63.5002H177.289V74.5584C182.001 66.4928 189.273 63.5002 198.398 63.2825L198.372 63.2601ZM11.0064 88.702L12.7219 80.2299C17.4333 63.4778 36.6372 56.5068 49.8494 66.8833C57.5854 72.9581 59.5154 81.5646 59.1377 91.2626H15.5545C14.8504 108.584 27.3489 119.044 43.3361 113.705C48.6044 111.785 52.57 107.407 53.8758 101.966C54.7208 99.245 56.1163 98.7777 58.6704 99.565C58.2444 102.881 57.0721 106.058 55.2415 108.856C53.411 111.654 50.9699 114 48.1019 115.719C43.3635 118.31 37.9271 119.337 32.57 118.652C27.2129 117.967 22.2094 115.606 18.2751 111.907C14.3831 107.531 12.0338 102.001 11.5761 96.1595C11.5761 95.1994 11.2561 94.3032 11.032 93.439C11.0107 91.8237 11 90.2448 11 88.702H11.0064ZM15.6089 87.5306H55.0217C54.7752 74.9745 46.8504 66.0671 36.2819 65.9839C24.5163 65.8238 16.0986 74.536 15.5801 87.4762L15.6089 87.5306Z" fill="black"/>
<path fill-rule="evenodd" clip-rule="evenodd" d="M488.957 46H380.135V154.822H488.957V46ZM466.427 115.845C476.016 119.734 479.254 123.903 480.051 128.868C480.816 133.14 479.865 135.913 479.72 136.326C476.182 148.429 456.455 148.822 448.573 140.826C448.334 140.556 448.107 140.303 447.892 140.064C446.608 138.636 445.72 137.649 444.87 135.789C446.992 134.568 448.039 133.965 449.086 133.361C450.105 132.773 451.124 132.184 453.135 131.02C455.349 134.423 457.397 136.295 461.079 137.061C466.076 137.671 471.103 135.954 469.975 130.647C469.304 128.135 465.972 126.724 462.087 125.079C459.271 123.887 456.165 122.571 453.569 120.624C447.301 116.414 445.832 106.183 450.983 100.339C452.7 98.1767 455.628 96.563 458.7 95.7872C459.23 95.7202 459.763 95.6508 460.295 95.5813C460.833 95.5111 461.371 95.441 461.907 95.3734C468.062 95.2493 471.91 96.8733 474.734 100.028C475.52 100.825 476.161 101.683 477.361 103.545C476.685 103.976 476.148 104.318 475.681 104.615C473.886 105.757 473.123 106.242 469.396 108.655C468.393 106.493 466.727 105.138 464.969 104.549C462.238 103.721 458.793 104.621 458.079 107.507C457.831 108.397 457.883 109.224 458.276 110.693C459.172 112.736 461.775 113.844 464.502 115.004C465.144 115.277 465.792 115.553 466.427 115.845ZM429.115 96.0146H439.294C439.294 99.1375 439.3 102.257 439.306 105.374C439.317 111.601 439.329 117.819 439.294 124.037C439.297 124.882 439.311 125.714 439.324 126.533C439.4 131.265 439.469 135.56 437.494 139.202C435.891 142.46 432.829 144.602 429.281 145.636C423.83 146.888 418.616 146.174 414.737 143.846C412.14 142.254 410.113 139.802 408.737 136.978C410.117 136.136 411.494 135.291 412.87 134.446C414.25 133.6 415.63 132.753 417.013 131.909C417.077 131.937 417.257 132.252 417.5 132.678C417.529 132.731 417.56 132.785 417.592 132.84C418.647 134.609 419.557 135.861 421.347 136.74C423.106 137.34 426.964 137.723 428.454 134.63C429.18 133.376 429.142 129.857 429.097 125.643C429.086 124.575 429.074 123.462 429.074 122.33C429.074 117.934 429.084 113.553 429.095 109.173C429.105 104.792 429.115 100.411 429.115 96.0146Z" fill="#F0DB4F"/>
</svg>
