<svg width="500" height="200" viewBox="0 0 500 200" fill="none" xmlns="http://www.w3.org/2000/svg">
<g clip-path="url(#clip0_34_26)">
<path d="M452.525 81.0516C451.356 81.0516 450.219 81.2909 449.213 81.8551L417.377 100.075C415.317 101.252 414.065 103.474 414.065 105.838V142.212C414.065 144.574 415.317 146.793 417.377 147.973L425.691 152.729C429.731 154.702 431.22 154.671 433.058 154.671C439.039 154.671 442.454 151.075 442.454 144.825V108.918C442.454 108.411 442.01 108.048 441.508 108.048H437.52C437.009 108.048 436.574 108.411 436.574 108.918V144.825C436.574 147.595 433.661 150.381 428.936 148.04L420.284 143.016C419.978 142.851 419.743 142.559 419.743 142.212V105.837C419.743 105.492 419.975 105.141 420.284 104.966L452.052 86.8138C452.196 86.7307 452.359 86.6869 452.525 86.6869C452.691 86.6869 452.854 86.7307 452.998 86.8138L484.767 104.967C485.07 105.148 485.308 105.482 485.308 105.839V142.213C485.308 142.56 485.132 142.916 484.835 143.084L452.998 161.237C452.726 161.398 452.35 161.398 452.052 161.237L443.873 156.414C443.749 156.347 443.609 156.312 443.468 156.312C443.326 156.312 443.187 156.347 443.062 156.414C440.805 157.682 440.38 157.829 438.263 158.557C437.741 158.738 436.95 159.018 438.533 159.898L449.213 166.127C450.22 166.703 451.363 167.003 452.525 166.998C453.688 167.005 454.831 166.705 455.837 166.128L487.674 147.973C489.734 146.786 490.985 144.575 490.985 142.213V105.838C490.985 103.475 489.734 101.257 487.674 100.077L455.837 81.857C454.839 81.2918 453.695 81.0526 452.525 81.0526L452.525 81.0516Z" fill="#83CD29"/>
<path d="M461.042 107.043C451.976 107.043 446.577 110.867 446.577 117.226C446.577 124.123 451.935 126.019 460.637 126.872C471.046 127.882 471.856 129.397 471.856 131.427C471.856 134.949 469.023 136.451 462.327 136.451C453.912 136.451 452.063 134.369 451.444 130.221C451.371 129.776 451.024 129.417 450.565 129.417H446.442C445.934 129.417 445.496 129.851 445.496 130.356C445.496 135.665 448.41 141.944 462.327 141.944C472.4 141.944 478.211 138.025 478.211 131.159C478.211 124.353 473.517 122.526 463.745 121.245C453.872 119.95 452.93 119.316 452.93 117.025C452.93 115.133 453.729 112.603 461.042 112.603C467.574 112.603 469.989 113.999 470.978 118.365C471.064 118.774 471.429 119.101 471.856 119.101H475.981C476.234 119.101 476.48 118.947 476.656 118.766C476.829 118.573 476.951 118.356 476.927 118.097C476.288 110.579 471.23 107.043 461.042 107.043Z" fill="#83CD29"/>
<path d="M265.36 33.3566C265.004 33.3568 264.655 33.4489 264.346 33.6238C264.039 33.8019 263.784 34.0562 263.606 34.3616C263.428 34.6671 263.334 35.0131 263.332 35.3657V86.6118C263.332 87.1145 263.096 87.5651 262.657 87.8174C262.441 87.9418 262.196 88.0074 261.947 88.0074C261.697 88.0074 261.453 87.9418 261.237 87.8174L252.788 82.9947C252.171 82.6413 251.472 82.4552 250.76 82.4552C250.048 82.4552 249.348 82.6413 248.732 82.9947L215.003 102.287C213.743 103.008 212.976 104.395 212.976 105.838V144.422C212.976 145.864 213.744 147.184 215.003 147.905L248.732 167.198C249.348 167.553 250.048 167.739 250.76 167.739C251.472 167.739 252.172 167.553 252.788 167.198L286.516 147.905C287.134 147.553 287.647 147.046 288.003 146.434C288.359 145.823 288.546 145.129 288.545 144.422V48.228C288.544 47.5053 288.349 46.7958 287.981 46.172C287.613 45.5481 287.085 45.0323 286.45 44.677L266.374 33.5567C266.059 33.3826 265.71 33.3519 265.36 33.3566ZM48.3865 81.5209C47.744 81.546 47.139 81.6577 46.5621 81.9892L12.8324 101.282C12.2145 101.634 11.7016 102.141 11.3455 102.753C10.9895 103.365 10.803 104.059 10.8051 104.765L10.8727 156.548C10.8727 157.268 11.2475 157.937 11.8864 158.289C12.1926 158.472 12.5432 158.568 12.9005 158.568C13.2578 158.568 13.6084 158.472 13.9146 158.289L33.9219 146.902C35.1892 146.155 36.0169 144.857 36.0169 143.418V119.235C36.0169 117.792 36.7825 116.468 38.0452 115.751L46.5612 110.861C47.1769 110.507 47.8772 110.322 48.5895 110.325C49.2846 110.325 49.9986 110.497 50.6168 110.861L59.1338 115.751C59.7522 116.103 60.2657 116.61 60.6219 117.222C60.9782 117.834 61.1645 118.529 61.162 119.235V143.417C61.162 144.856 61.9981 146.164 63.257 146.901L83.2643 158.289C83.5706 158.472 83.9211 158.568 84.2784 158.568C84.6357 158.568 84.9863 158.472 85.2926 158.289C85.6008 158.112 85.8568 157.858 86.0349 157.553C86.2129 157.247 86.3068 156.9 86.3072 156.547L86.3729 104.765C86.3769 104.059 86.1913 103.364 85.835 102.752C85.4788 102.14 84.9648 101.632 84.3456 101.282L50.6168 81.9892C50.0465 81.6577 49.4397 81.5469 48.7924 81.5209H48.3865ZM351.473 81.9892C350.769 81.9892 350.078 82.1661 349.446 82.5254L315.717 101.818C315.1 102.17 314.587 102.678 314.231 103.29C313.874 103.901 313.688 104.595 313.689 105.301V143.886C313.689 145.338 314.514 146.652 315.784 147.37L349.243 166.261C350.478 166.959 351.987 167.012 353.231 166.326L373.509 155.14C374.152 154.786 374.587 154.125 374.59 153.399C374.594 153.045 374.501 152.697 374.323 152.391C374.145 152.084 373.887 151.831 373.577 151.657L339.645 132.364C339.01 132.004 338.564 131.277 338.564 130.555V118.498C338.564 117.776 339.014 117.115 339.645 116.756L350.189 110.726C350.497 110.55 350.847 110.457 351.203 110.457C351.559 110.457 351.909 110.55 352.217 110.726L362.761 116.756C363.07 116.932 363.326 117.185 363.504 117.491C363.683 117.797 363.776 118.144 363.775 118.497V128.009C363.774 128.362 363.868 128.709 364.046 129.015C364.224 129.321 364.48 129.574 364.789 129.75C365.421 130.112 366.186 130.113 366.816 129.75L387.027 118.097C387.644 117.743 388.156 117.235 388.512 116.624C388.868 116.012 389.055 115.319 389.056 114.613V105.302C389.056 103.864 388.285 102.541 387.027 101.818L353.502 82.5254C352.885 82.1721 352.185 81.9864 351.473 81.9892ZM250.624 110.794C250.801 110.794 251.007 110.837 251.165 110.928L262.724 117.559C263.038 117.739 263.265 118.071 263.265 118.43V131.693C263.265 132.054 263.04 132.385 262.724 132.565L251.165 139.197C251.011 139.284 250.836 139.33 250.658 139.33C250.481 139.33 250.306 139.284 250.152 139.197L238.594 132.565C238.279 132.384 238.053 132.054 238.053 131.693V118.43C238.053 118.07 238.28 117.741 238.594 117.559L250.152 110.929C250.294 110.841 250.458 110.795 250.625 110.795L250.624 110.794Z" fill="#404137"/>
<path d="M149.708 81.7881C149.006 81.7881 148.31 81.965 147.681 82.3243L113.952 101.55C112.691 102.27 111.924 103.659 111.924 105.1V143.685C111.924 145.128 112.691 146.447 113.952 147.169L147.681 166.461C148.297 166.816 148.997 167.002 149.709 167.002C150.421 167.002 151.121 166.816 151.737 166.461L185.465 147.169C186.083 146.817 186.596 146.309 186.952 145.697C187.307 145.085 187.494 144.391 187.493 143.685V105.1C187.493 103.657 186.726 102.27 185.465 101.55L151.737 82.3243C151.12 81.9714 150.42 81.7864 149.708 81.7881ZM351.406 116.221C351.271 116.221 351.122 116.221 351.001 116.288L344.512 120.039C344.391 120.105 344.29 120.202 344.219 120.32C344.147 120.438 344.109 120.572 344.106 120.709V128.077C344.106 128.355 344.268 128.609 344.512 128.748L351.001 132.432C351.244 132.571 351.503 132.571 351.744 132.432L358.233 128.747C358.353 128.68 358.454 128.583 358.525 128.465C358.596 128.348 358.635 128.214 358.639 128.077V120.708C358.635 120.571 358.596 120.437 358.525 120.32C358.454 120.203 358.353 120.106 358.233 120.039L351.744 116.287C351.624 116.217 351.541 116.221 351.406 116.221Z" fill="#83CD29"/>
</g>
<defs>
<clipPath id="clip0_34_26">
<rect width="481" height="135" fill="white" transform="translate(10 33)"/>
</clipPath>
</defs>
</svg>
