<svg width="500" height="200" viewBox="0 0 500 200" fill="none" xmlns="http://www.w3.org/2000/svg">
<path d="M231.723 156.662H212.926V158.615C218.801 158.615 219.778 159.836 219.778 167.233V180.549C219.778 187.995 218.801 189.362 212.926 189.362C208.422 188.776 205.289 186.229 201.176 181.725L196.281 176.436C202.742 175.215 206.27 171.147 206.27 166.647C206.27 160.967 201.375 156.463 192.172 156.463H173.765V158.416C179.64 158.416 180.617 159.636 180.617 167.033V180.35C180.617 187.796 179.64 189.163 173.765 189.163V191.116H194.523V189.163C188.648 189.163 187.672 187.792 187.672 180.35V176.631H189.434L200.989 191.116H231.536C246.615 191.116 253.076 183.088 253.076 173.689C253.271 164.486 246.81 156.654 231.731 156.654L231.723 156.662ZM187.863 173.698V159.836H192.176C196.875 159.836 199.027 163.164 199.027 166.887C199.027 170.61 196.871 173.738 192.176 173.738L187.863 173.698ZM232.118 188.182H231.333C227.614 188.182 227.02 187.206 227.02 182.502V159.799H232.106C243.071 159.799 245.028 167.827 245.028 173.897C245.028 180.358 242.871 188.19 232.106 188.19L232.118 188.182ZM115.408 177.656L122.65 156.312C124.807 150.046 123.871 148.285 117.166 148.285V146.128H136.94V148.285C130.283 148.285 128.721 149.851 126.17 157.488L114.22 193.28H112.654L101.884 160.58L91.1101 193.28H89.7389L78.1839 157.447C75.6369 149.81 74.1152 148.244 68 148.244V146.088H91.1101V148.244C84.8443 148.244 83.2779 149.615 85.4302 156.272L92.4812 177.616L103.06 146.084H105.013L115.408 177.656ZM151.042 192.934C139.487 192.934 130.088 184.512 130.088 174.137C130.088 163.953 139.446 155.34 151.042 155.34C162.637 155.34 171.995 163.762 171.995 174.137C171.995 184.512 162.637 192.934 151.042 192.934ZM151.042 158.473C141.448 158.473 138.119 167.09 138.119 173.942C138.119 180.793 141.448 189.411 151.042 189.411C160.831 189.411 164.163 180.793 164.163 173.942C164.163 167.285 160.835 158.473 151.042 158.473ZM279.111 189.407V191.563H255.025V189.407C262.076 189.407 263.243 187.645 263.243 177.071V160.226C263.243 149.648 262.023 148.085 255.025 148.085V145.929H276.759C287.529 145.929 293.604 151.414 293.604 158.851C293.604 166.093 287.533 171.773 276.759 171.773H270.884V177.258C270.884 187.633 272.105 189.399 279.103 189.399L279.111 189.407ZM276.759 149.851H270.884V168.063H276.759C282.635 168.063 285.377 163.994 285.377 159.054C285.377 154.115 282.635 149.851 276.759 149.851ZM365.469 181.766L364.883 183.719C363.906 187.242 362.726 188.418 355.289 188.418H353.918C348.433 188.418 347.457 187.197 347.457 179.801V174.906C355.675 174.906 356.269 175.691 356.269 181.172H358.222V165.507H356.269C356.269 170.992 355.683 171.773 347.457 171.773V160.039H353.137C360.582 160.039 361.754 161.26 362.73 164.738L363.316 166.691H365.078L364.293 156.902H333.55V158.855C339.425 158.855 340.402 160.076 340.402 167.473V180.789C340.402 187.641 339.616 189.407 334.917 189.602C330.604 189.016 327.471 186.469 323.362 181.965L318.467 176.676C324.928 175.455 328.456 171.387 328.456 166.887C328.456 161.207 323.561 156.703 314.358 156.703H295.951V158.656C301.827 158.656 302.803 159.876 302.803 167.273V180.59C302.803 188.036 301.827 189.403 295.951 189.403V191.356H316.71V189.403C310.835 189.403 309.858 188.032 309.858 180.59V176.871H311.62L323.175 191.356H366.254L366.84 181.566H365.469V181.766ZM310.053 173.738V159.836H314.366C319.065 159.836 321.218 163.164 321.218 166.887C321.218 170.61 319.061 173.738 314.366 173.738H310.053Z" fill="#00749A"/>
<path d="M386.813 192.934C382.704 192.934 378.981 190.778 377.455 189.411C376.869 189.997 376.084 191.567 375.693 192.934H373.74V178.45H375.897C376.682 185.302 381.577 189.415 387.647 189.415C390.975 189.415 393.717 187.462 393.717 184.329C393.717 181.587 391.366 179.435 387.061 177.477L381.186 174.735C377.077 172.782 373.944 169.251 373.944 164.747C373.944 159.661 378.643 155.389 385.104 155.389C388.628 155.389 391.565 156.569 393.323 158.131C393.909 157.74 394.299 156.565 394.694 155.389H396.647V167.725H394.49C393.705 162.83 390.967 158.717 385.482 158.717C382.545 158.717 379.803 160.479 379.803 163.03C379.803 165.772 381.959 167.139 387.045 169.491L392.725 172.233C397.811 174.585 399.776 178.499 399.776 181.591C399.58 188.247 393.901 192.943 386.854 192.943L386.813 192.934Z" fill="#00749A"/>
<path d="M419.126 192.934C415.017 192.934 411.294 190.778 409.768 189.411C409.182 189.997 408.397 191.567 408.007 192.934H406.054V178.45H408.21C408.995 185.302 413.89 189.415 419.96 189.415C423.289 189.415 426.031 187.462 426.031 184.329C426.031 181.587 423.679 179.435 419.374 177.477L413.499 174.735C409.39 172.782 406.257 169.251 406.257 164.747C406.257 159.661 410.956 155.389 417.417 155.389C420.941 155.389 423.878 156.569 425.636 158.131C426.222 157.74 426.613 156.565 427.007 155.389H428.96V167.725H426.804C426.019 162.83 423.28 158.717 417.796 158.717C414.858 158.717 412.116 160.479 412.116 163.03C412.116 165.772 414.272 167.139 419.358 169.491L425.038 172.233C430.124 174.585 432.089 178.499 432.089 181.591C431.894 188.247 426.214 192.943 419.167 192.943L419.126 192.934Z" fill="#00749A"/>
<path d="M196.338 69.5314C196.338 90.8268 208.573 109.177 226.471 117.786L201.098 47.7844C198.153 54.579 196.338 61.8253 196.338 69.5314ZM286.284 66.8054C286.284 60.2345 283.79 55.4782 281.752 52.0768C279.034 47.5443 276.544 43.9191 276.544 39.3907C276.544 34.4066 280.397 29.87 285.605 29.87H286.284C276.764 21.0491 264.077 15.8331 250.073 15.8331C231.268 16.0609 214.96 25.5735 205.216 40.0742H208.613C214.277 40.0742 222.886 39.3948 222.886 39.3948C225.832 39.1669 226.06 43.4716 223.293 43.9273C223.293 43.9273 220.347 44.3341 217.178 44.3341L236.707 102.333L248.486 67.2204L240.105 44.3382L234.441 43.9313C231.495 43.7035 231.947 39.3988 234.669 39.3988C234.669 39.3988 243.506 40.0783 248.714 40.0783C254.378 40.0783 262.987 39.3988 262.987 39.3988C265.933 39.171 266.161 43.4756 263.394 43.9313C263.394 43.9313 260.448 44.3382 257.279 44.3382L276.808 102.113L282.244 84.2112C284.51 76.733 286.321 71.525 286.321 66.7647L286.284 66.8054ZM250.94 74.2918L234.856 120.959C239.617 122.318 244.824 123.226 250.032 123.226C256.379 123.226 262.267 122.095 267.934 120.28C267.707 120.052 267.707 119.873 267.528 119.6L250.94 74.2918ZM297.16 43.9395L297.567 49.3752C297.567 54.8109 296.659 60.9302 293.49 68.6322L277.215 115.979C293.075 106.691 303.946 89.472 303.946 69.5355C303.718 60.2467 301.228 51.6333 297.152 43.9354L297.16 43.9395ZM250.032 7C215.595 7 187.505 35.0942 187.505 69.5273C187.505 103.96 215.595 132.059 250.032 132.059C284.47 132.059 312.56 103.965 312.56 69.5314C312.56 35.0982 284.47 7 250.032 7ZM250.032 129.337C217.182 129.337 190.451 102.606 190.451 69.5273C190.451 36.6362 217.182 9.94572 250.032 9.94572C282.883 9.94572 309.614 36.6769 309.614 69.5273C309.614 102.606 282.883 129.337 250.032 129.337Z" fill="#00749A"/>
</svg>
