<svg width="500" height="250" viewBox="0 0 500 250" fill="none" xmlns="http://www.w3.org/2000/svg">
<path fill-rule="evenodd" clip-rule="evenodd" d="M12.5 136.673C12.5 147.253 39.983 155.84 73.89 155.84V175C39.983 175 12.5 166.42 12.5 155.84V136.673ZM135.3 136.673V155.836C135.3 160.353 130.278 164.498 121.915 167.776L73.8863 155.836V136.673L121.915 148.608C130.278 145.334 135.304 141.19 135.3 136.673ZM73.89 79.1667C107.801 79.1667 135.3 87.7621 135.3 98.3342V117.513C135.3 122.015 130.278 126.175 121.92 129.437L73.89 117.513L73.8863 136.673C39.9793 136.673 12.5 128.089 12.5 117.513V98.3342C12.5 87.7621 39.983 79.1667 73.89 79.1667Z" fill="#D33C44"/>
<path fill-rule="evenodd" clip-rule="evenodd" d="M188.44 101.382C198.045 101.382 203.801 104.59 208.528 109.243L201.397 117.465C197.467 113.9 193.462 111.717 188.37 111.717C179.779 111.717 173.6 118.848 173.6 127.579V127.731C173.6 136.462 179.635 143.74 188.37 143.74C194.192 143.74 197.754 141.414 201.755 137.771L208.885 144.972C203.654 150.58 197.832 154.076 188.009 154.076C173.013 154.076 161.882 142.502 161.882 127.87V127.731C161.882 113.251 172.795 101.382 188.44 101.382ZM318.398 113.461C331.425 113.461 337.395 123.579 337.395 134.644V134.788C337.395 135.879 337.325 136.536 337.251 137.557H310.106C311.193 142.575 314.689 145.193 319.641 145.193C323.354 145.193 326.042 144.024 329.098 141.189L335.437 146.797C331.79 151.31 326.551 154.076 319.493 154.076C307.775 154.076 299.106 145.853 299.106 133.918V133.766C299.106 122.631 307.045 113.461 318.398 113.461ZM232.83 113.752C244.913 113.752 250.23 120.009 250.23 130.57V153.198H239.522V148.98C236.835 151.963 233.125 153.928 227.735 153.928C220.39 153.928 214.346 149.706 214.346 141.993V141.841C214.346 133.324 220.821 129.393 230.061 129.393C233.995 129.393 236.835 130.05 239.604 130.993V130.345C239.604 125.765 236.765 123.214 231.23 123.214C227.012 123.214 224.029 124.018 220.464 125.323L217.694 116.883C221.99 114.983 226.212 113.752 232.83 113.752ZM270.815 100.065V128.387L283.776 114.191H297.017L282.172 129.541L297.526 153.198H284.868L274.676 137.262L270.815 141.336V153.198H259.762V100.065H270.815ZM367.6 102.252C379.75 102.252 387.102 109.457 387.102 119.873V120.013C387.098 131.801 377.928 137.915 366.501 137.915H357.995V153.198H346.786V102.252H367.6ZM406.6 102.252V122.413H427.271V102.252H438.475V153.198H427.271V132.737H406.6V153.198H395.394V102.252H406.6ZM471.512 102.252C483.662 102.252 491.017 109.457 491.017 119.873V120.013C491.021 131.801 481.85 137.915 470.429 137.915H461.908V153.198H450.7V102.252H471.512ZM232.69 136.023C227.96 136.023 225.043 137.915 225.043 141.41V141.554C225.043 144.533 227.521 146.28 231.082 146.28C236.248 146.28 239.747 143.453 239.747 139.441V137.48C237.86 136.598 235.378 136.023 232.69 136.023ZM318.402 122.344C313.819 122.344 310.828 125.618 309.958 130.636H326.628C325.968 125.684 323.059 122.344 318.402 122.344ZM366.649 112.373H357.991V127.956H366.87C372.471 127.956 375.745 124.596 375.745 120.238V120.083C375.745 115.065 372.257 112.373 366.649 112.373ZM470.567 112.373H461.908V127.956H470.783C476.392 127.956 479.667 124.596 479.667 120.238V120.083C479.667 115.065 476.175 112.373 470.567 112.373Z" fill="#D33C44"/>
</svg>
