<svg width="1151" height="357" viewBox="0 0 1151 357" fill="none" xmlns="http://www.w3.org/2000/svg">
<path d="M779.293 0.533203C805.533 0.693203 831.8 0.706536 858.04 0.533203C857.933 76.6665 858.027 152.813 858 228.947C858.107 269.693 857.773 310.44 858.173 351.173C832.88 350.8 807.587 351.053 782.293 351.04C781.64 343.853 780.493 336.707 780.16 329.493C764.053 342.453 744.8 352.227 724.213 355.28C710.533 357.067 696.427 355.8 683.36 351.4C671.653 346.44 659.827 340.853 650.56 331.96C633.213 317.827 621.627 297.707 614.68 276.667C604.28 244.387 605.613 208.76 617.333 177.013C622.96 161.787 631.973 147.987 642.48 135.68C657.08 120.28 675.48 108.067 696.027 102.333C723.227 93.8799 753.08 96.2532 779.6 106.027C778.96 70.8799 779.573 35.6932 779.293 0.533203ZM704.187 182.293C692.493 195.8 688.533 214.173 687.987 231.613C687.293 245.733 690.947 260.627 700.213 271.587C708.4 281.92 721.627 287.507 734.64 287.92C747.347 288.373 759.68 282.253 768.12 272.96C775.4 264.013 779.133 252.48 779.36 241.013C779.333 218.853 779.307 196.68 779.373 174.52C764.987 167.84 748.773 164.653 732.987 166.827C721.947 168.307 711.373 173.68 704.187 182.293Z" fill="#E0081C"/>
<path d="M983.04 103.96C1004.05 97.6664 1026.08 95.053 1047.97 95.0264C1071.15 95.1197 1095.17 101.733 1112.72 117.413C1126.97 129.32 1138.23 145.04 1144 162.746C1147.61 173.8 1150.07 185.346 1150.28 197C1150.28 248.253 1150.25 299.506 1150.28 350.773C1125.37 350.72 1100.44 350.533 1075.53 350.866C1075.2 343.84 1073.85 336.92 1073.72 329.893C1073.53 330.52 1073.16 331.786 1072.97 332.413C1058.56 345.573 1039.63 352.92 1020.53 355.906C998.92 358.76 976.253 355.68 956.867 345.44C941.253 336.666 928.613 322.133 924.013 304.626C920.227 293.133 920.44 280.813 921.4 268.893C922.667 253.586 928.253 238.706 937.347 226.32C947.893 213.56 962.347 204.546 977.68 198.613C1008.29 187.626 1041.37 188.04 1073.44 189.28C1072.4 180.16 1068.56 170.773 1060.57 165.626C1045.75 155.533 1026.81 156.693 1009.91 159.173C992.76 162.546 975.693 168.426 961.773 179.266C955.987 168.826 948.24 159.653 942.107 149.44C937.773 142.613 933.347 135.853 929.027 129.013C944.853 116.68 964.08 109.866 983.04 103.96ZM1028.72 243.36C1019.83 244.773 1009.87 246.893 1004 254.36C994 265.413 995.933 285.48 1008.8 293.546C1019.15 300.36 1032.51 300.08 1044.05 296.826C1056.84 293.36 1068.2 283.266 1071.44 270.186C1074.05 261.213 1072.47 251.8 1073.11 242.613C1058.32 242.346 1043.44 241.24 1028.72 243.36Z" fill="#E0081C"/>
<path d="M79.8133 107.28C107.733 95.9732 139.907 94.3332 168.48 104.307C181.187 108.173 192.747 114.96 203.667 122.387C190.893 131.573 179.973 143.227 171.627 156.573C165.107 165.667 161.28 176.24 157.347 186.613C144.733 177.573 127.867 174.32 113.107 179.747C88.4533 187.08 73.6533 216.36 81.5733 240.693C86.08 256.4 98.8 269.613 114.613 274.027C129 278.853 145.24 275.4 157.347 266.573C165.853 292.067 181.8 315.613 204.053 331.013C184.853 343.64 163.08 353.52 139.853 354.893C92.96 359.987 44.8 335.28 20.48 295.08C0.906656 264.387 -4.56001 224.88 6.23999 190.067C10.2133 174.853 17.76 160.72 27.2667 148.253C40.5333 130.053 59.3067 116.333 79.8133 107.28Z" fill="#E0081C"/>
<path d="M520.067 101C531.4 98.7063 543.147 97.9197 554.627 99.5997C561.92 100.106 568.813 102.653 575.973 103.946C571.72 127.773 567.08 151.533 562.747 175.346C545.333 172.613 527.027 170.173 509.88 175.653C497.373 179.373 487.573 190.013 483.88 202.4C479.093 215.613 479 229.826 479.027 243.706C479.107 279.48 478.893 315.266 479.133 351.04C452.867 351.013 426.6 350.88 400.333 351.106C400.427 268.373 400.44 185.626 400.333 102.893C425.56 103.146 450.8 102.92 476.027 103C476.507 111.786 477.667 120.52 477.853 129.306C487.827 115.16 503.333 105.186 520.067 101Z" fill="#E0081C"/>
<path d="M268.307 178.507C280.427 176.187 293.613 177.907 304.12 184.627C319.587 193.867 328.76 212.347 327.387 230.24C326.48 252.76 307.92 273.214 285.4 275.667C269.253 278.16 252.253 271.72 241.707 259.267C226.253 241.8 225.787 213.094 240.92 195.28C248 187.08 257.573 180.627 268.307 178.507Z" fill="#E0081C"/>
</svg>
