<svg width="500" height="200" viewBox="0 0 500 200" fill="none" xmlns="http://www.w3.org/2000/svg">
<g clip-path="url(#clip0_32_1684)">
<path d="M63.6532 15H90.3961V138.898C76.6773 141.505 66.6051 142.548 55.6657 142.548C23.0179 142.547 6 127.775 6 99.4421C6 72.1532 24.0609 54.4257 52.0181 54.4257C56.3591 54.4257 59.6583 54.7721 63.6532 55.8149V15ZM63.6532 77.3661C60.5276 76.3244 57.923 75.9768 54.6239 75.9768C41.0788 75.9768 33.2638 84.3204 33.2638 98.9195C33.2638 113.173 40.7315 120.994 54.4502 120.994C57.401 120.994 59.8331 120.821 63.6532 120.3V77.3661Z" fill="#092E20"/>
<path d="M132.939 56.3363V118.386C132.939 139.766 131.376 150.02 126.688 158.885C122.346 167.403 116.615 172.79 104.807 178.7L79.9744 166.881C91.783 161.319 97.5132 156.454 101.16 148.977C104.981 141.33 106.197 132.465 106.197 109.175V56.3363H132.939ZM106.197 15.1424H132.939V42.605H106.197V15.1424Z" fill="#092E20"/>
<path d="M149.092 62.4193C160.902 56.8589 172.189 54.4257 184.518 54.4257C198.237 54.4257 207.266 58.0743 211.261 65.2013C213.517 69.1986 214.212 74.4126 214.212 85.5381V139.94C202.229 141.678 187.122 142.895 176.009 142.895C153.608 142.895 143.535 135.071 143.535 117.691C143.535 98.9184 156.906 90.2284 189.728 87.4465V81.5373C189.728 76.6709 187.297 74.934 180.523 74.934C170.626 74.934 159.512 77.7148 149.091 83.1038L149.092 62.4193ZM190.943 105.004C173.229 106.742 167.499 109.524 167.499 116.476C167.499 121.69 170.8 124.123 178.093 124.123C182.087 124.123 185.733 123.776 190.943 122.907V105.004Z" fill="#092E20"/>
<path d="M227.237 60.5075C243.039 56.3363 256.063 54.4257 269.261 54.4257C282.979 54.4257 292.878 57.5529 298.784 63.6371C304.34 69.3713 306.076 75.6281 306.076 89.0141V141.504H279.333V90.0569C279.333 79.8027 275.86 75.9768 266.31 75.9768C262.663 75.9768 259.364 76.3244 253.979 77.8886V141.504H227.237V60.5075Z" fill="#092E20"/>
<path d="M316.472 156.105C325.851 160.972 335.227 163.23 345.125 163.23C362.662 163.23 370.13 156.105 370.13 139.071C370.13 138.897 370.13 138.723 370.13 138.549C364.921 141.155 359.71 142.199 352.766 142.199C329.322 142.199 314.386 126.73 314.386 102.223C314.386 71.8034 336.441 54.5983 375.512 54.5983C386.974 54.5983 397.567 55.8138 410.418 58.4208L401.261 77.7283C394.141 76.3379 400.691 77.5422 395.31 77.0208V79.8027L395.656 91.0985L395.829 105.7C396.002 109.349 396.002 113 396.177 116.649C396.177 119.952 396.177 121.517 396.177 123.95C396.177 146.894 394.267 157.669 388.537 166.533C380.201 179.571 365.788 186.001 345.297 186.001C334.878 186.001 325.849 184.437 316.471 180.786V156.105H316.472ZM369.61 76.1506C369.263 76.1506 368.917 76.1506 368.743 76.1506H366.832C361.624 75.9768 355.546 77.3661 351.377 79.9731C344.953 83.624 341.652 90.2295 341.652 99.6147C341.652 113 348.252 120.647 360.06 120.647C363.706 120.647 366.659 119.95 370.131 118.909V116.996V109.697C370.131 106.569 369.959 103.091 369.959 99.4421L369.786 87.1023L369.611 78.2374V76.1506H369.61Z" fill="#092E20"/>
<path d="M451.934 54.0769C478.676 54.0769 495 70.9378 495 98.2255C495 126.211 477.983 143.766 450.892 143.766C424.148 143.766 407.651 126.905 407.651 99.7908C407.652 71.6307 424.671 54.0769 451.934 54.0769ZM451.411 122.211C461.658 122.211 467.736 113.694 467.736 98.9195C467.736 84.3204 461.831 75.6292 451.588 75.6292C440.993 75.6292 434.914 84.1477 434.914 98.9195C434.915 113.695 440.993 122.211 451.411 122.211Z" fill="#092E20"/>
</g>
<defs>
<clipPath id="clip0_32_1684">
<rect width="489" height="171" fill="white" transform="translate(6 15)"/>
</clipPath>
</defs>
</svg>
