<svg width="500" height="200" viewBox="0 0 500 200" fill="none" xmlns="http://www.w3.org/2000/svg">
<g clip-path="url(#clip0_34_72)">
<g clip-path="url(#clip1_34_72)">
<mask id="mask0_34_72" style="mask-type:luminance" maskUnits="userSpaceOnUse" x="121" y="65" width="49" height="87">
<path d="M121.018 69.2504C130.726 98.7681 134.408 151.427 162.807 151.427C164.968 151.427 167.153 151.216 169.348 150.801C143.53 144.819 140.467 92.7327 124.714 65.761C123.457 66.8985 122.225 68.0619 121.017 69.2504" fill="white"/>
</mask>
<g mask="url(#mask0_34_72)">
<mask id="mask1_34_72" style="mask-type:luminance" maskUnits="userSpaceOnUse" x="120" y="65" width="50" height="87">
<path d="M169.25 151.445H120.921V65.7794H169.25V151.445Z" fill="white"/>
</mask>
<g mask="url(#mask1_34_72)">
<mask id="mask2_34_72" style="mask-type:luminance" maskUnits="userSpaceOnUse" x="120" y="65" width="50" height="87">
<path d="M169.25 65.7777V151.445H120.921V65.7794L169.25 65.7777Z" fill="white"/>
</mask>
<g mask="url(#mask2_34_72)">
<path d="M169.25 151.445H120.921V65.7794H169.25V151.445Z" fill="url(#paint0_linear_34_72)"/>
</g>
</g>
</g>
<mask id="mask3_34_72" style="mask-type:luminance" maskUnits="userSpaceOnUse" x="124" y="62" width="52" height="89">
<path d="M124.716 65.761C140.469 92.7327 143.529 144.819 169.349 150.801C171.374 150.43 173.41 149.871 175.447 149.162C152.272 137.876 145.866 87.3029 127.977 62.9524C126.894 63.849 125.79 64.7841 124.718 65.7593" fill="white"/>
</mask>
<g mask="url(#mask3_34_72)">
<mask id="mask4_34_72" style="mask-type:luminance" maskUnits="userSpaceOnUse" x="124" y="63" width="52" height="88">
<path d="M175.6 150.917H124.874V63.0678H175.6V150.917Z" fill="white"/>
</mask>
<g mask="url(#mask4_34_72)">
<mask id="mask5_34_72" style="mask-type:luminance" maskUnits="userSpaceOnUse" x="124" y="63" width="52" height="88">
<path d="M175.6 63.0678V150.917H124.874V63.0678H175.6Z" fill="white"/>
</mask>
<g mask="url(#mask5_34_72)">
<path d="M175.6 150.917H124.874V63.0678H175.6V150.917Z" fill="url(#paint1_linear_34_72)"/>
</g>
</g>
</g>
<path d="M147.415 49.7208C145.258 49.7208 143.066 49.9295 140.872 50.347C135.125 51.423 129.287 53.8799 123.402 57.6042C125.011 59.1833 126.539 60.9845 127.976 62.957C133.961 58.0056 139.905 54.3711 145.833 52.1777C147.996 51.3748 150.225 50.7592 152.494 50.3377C150.833 49.9226 149.126 49.7158 147.414 49.7221" fill="#14559A"/>
<path d="M193.034 145.006C191.917 143.943 190.856 142.784 189.811 141.526C185.004 144.912 180.208 147.481 175.445 149.149C177.137 149.973 178.915 150.581 180.798 150.962C182.258 151.262 183.76 151.412 185.376 151.412C190.717 151.412 194.941 150.779 198.538 149.07C196.559 148.005 194.742 146.626 193.045 144.992" fill="#1969BC"/>
<mask id="mask6_34_72" style="mask-type:luminance" maskUnits="userSpaceOnUse" x="145" y="50" width="49" height="92">
<path d="M145.833 52.1798C169.164 64.3074 171.19 119.234 189.81 141.539C191.055 140.666 192.292 139.739 193.512 138.762C181.861 113.102 178.525 56.7632 152.48 50.3347C150.255 50.7462 148.037 51.3384 145.816 52.1798" fill="white"/>
</mask>
<g mask="url(#mask6_34_72)">
<mask id="mask7_34_72" style="mask-type:luminance" maskUnits="userSpaceOnUse" x="145" y="50" width="49" height="92">
<path d="M193.65 141.653H145.954V50.4434H193.65V141.653Z" fill="white"/>
</mask>
<g mask="url(#mask7_34_72)">
<mask id="mask8_34_72" style="mask-type:luminance" maskUnits="userSpaceOnUse" x="145" y="50" width="49" height="92">
<path d="M193.65 50.4434V141.653H145.954V50.4434H193.65Z" fill="white"/>
</mask>
<g mask="url(#mask8_34_72)">
<path d="M193.65 141.653H145.954V50.4434H193.65V141.653Z" fill="url(#paint2_linear_34_72)"/>
</g>
</g>
</g>
<mask id="mask9_34_72" style="mask-type:luminance" maskUnits="userSpaceOnUse" x="127" y="52" width="63" height="98">
<path d="M127.976 62.9557C145.866 87.3045 152.27 137.896 175.445 149.165C180.208 147.496 185.001 144.93 189.81 141.542C171.19 119.236 169.164 64.3107 145.833 52.1831C139.908 54.3711 133.961 58.0177 127.993 62.9557" fill="white"/>
</mask>
<g mask="url(#mask9_34_72)">
<mask id="mask10_34_72" style="mask-type:luminance" maskUnits="userSpaceOnUse" x="127" y="52" width="63" height="98">
<path d="M189.781 149.19H127.948V52.203H189.781V149.19Z" fill="white"/>
</mask>
<g mask="url(#mask10_34_72)">
<mask id="mask11_34_72" style="mask-type:luminance" maskUnits="userSpaceOnUse" x="127" y="52" width="63" height="98">
<path d="M189.781 52.2051V149.192H127.947V52.2051H189.781Z" fill="white"/>
</mask>
<g mask="url(#mask11_34_72)">
<path d="M189.781 149.19H127.947V52.2033H189.781V149.19Z" fill="url(#paint3_linear_34_72)"/>
</g>
</g>
</g>
<path d="M120.463 59.55L117.98 61.3673C119.068 63.7279 120.074 66.3789 121.015 69.2627L124.717 65.774C123.394 63.5178 121.992 61.4301 120.463 59.5647" fill="#2B74B1"/>
<path d="M123.402 57.6028L120.463 59.5499C121.987 61.4168 123.393 63.5043 124.718 65.7592L127.976 62.9517C126.535 60.9818 125.011 59.1779 123.402 57.5988" fill="#125A9E"/>
<path d="M109.57 68.5428C112.376 65.8824 115.185 63.491 117.98 61.3699L115.96 57.5252C113.704 60.2472 111.644 63.8376 109.557 68.5441" fill="#0D82CA"/>
<path d="M111.597 52.1161C113.212 53.4597 114.653 55.3078 115.973 57.5225L117.245 56.104C115.414 54.4045 113.435 53.0074 111.28 51.9556L111.546 52.0814C111.559 52.0974 111.576 52.1081 111.593 52.1148" fill="#0D82CA"/>
<mask id="mask12_34_72" style="mask-type:luminance" maskUnits="userSpaceOnUse" x="43" y="51" width="53" height="79">
<path d="M43.7007 129.524C66.2025 86.428 76.8644 59.1502 95.6788 51.7733C76.2804 59.3208 54.445 87.7847 43.7007 129.524Z" fill="white"/>
</mask>
<g mask="url(#mask12_34_72)">
<mask id="mask13_34_72" style="mask-type:luminance" maskUnits="userSpaceOnUse" x="43" y="51" width="53" height="79">
<path d="M43.6741 51.8264H95.6538V129.582H43.6741V51.828V51.8264Z" fill="white"/>
</mask>
<g mask="url(#mask13_34_72)">
<mask id="mask14_34_72" style="mask-type:luminance" maskUnits="userSpaceOnUse" x="43" y="51" width="53" height="79">
<path d="M43.6741 129.579V51.8285H95.6538V129.579H43.6741Z" fill="white"/>
</mask>
<g mask="url(#mask14_34_72)">
<path d="M43.6741 51.8264H95.6538V129.582H43.6741V51.828V51.8264Z" fill="url(#paint4_linear_34_72)"/>
</g>
</g>
</g>
<path d="M117.245 56.1041L115.973 57.5226C116.68 58.6962 117.337 59.9782 117.992 61.3673L120.475 59.55C119.457 58.3001 118.383 57.1439 117.245 56.1041Z" fill="#127BCA"/>
<mask id="mask15_34_72" style="mask-type:luminance" maskUnits="userSpaceOnUse" x="5" y="58" width="115" height="134">
<mask id="mask16_34_72" style="mask-type:luminance" maskUnits="userSpaceOnUse" x="-52" y="10" width="229" height="231">
<path d="M-51.5374 10.5713H176.726V240.41H-51.5374V10.5713Z" fill="white"/>
</mask>
<g mask="url(#mask16_34_72)">
<mask id="mask17_34_72" style="mask-type:luminance" maskUnits="userSpaceOnUse" x="-54" y="8" width="233" height="235">
<path d="M-53.2205 8.89852H178.409V242.082H-53.2205V8.89852Z" fill="white"/>
</mask>
<g mask="url(#mask17_34_72)">
<mask id="mask18_34_72" style="mask-type:luminance" maskUnits="userSpaceOnUse" x="5" y="58" width="115" height="134">
<path d="M5.55371 191.951H119.49V58.5815H5.55371V191.951Z" fill="white"/>
</mask>
<g mask="url(#mask18_34_72)">
<mask id="mask19_34_72" style="mask-type:luminance" maskUnits="userSpaceOnUse" x="-52" y="10" width="229" height="231">
<path d="M-51.5374 10.5713H176.726V240.41H-51.5374V10.5713Z" fill="white"/>
</mask>
<g mask="url(#mask19_34_72)">
<mask id="mask20_34_72" style="mask-type:luminance" maskUnits="userSpaceOnUse" x="5" y="58" width="115" height="134">
<path d="M5.55371 191.951H119.49V58.5814H5.55371V191.951Z" fill="white"/>
</mask>
<g mask="url(#mask20_34_72)">
<mask id="mask21_34_72" style="mask-type:luminance" maskUnits="userSpaceOnUse" x="5" y="58" width="115" height="134">
<path d="M5.57715 161.616L60.1168 191.936L119.527 88.8938L64.9924 58.5631L5.59229 161.614L5.57715 161.616Z" fill="white"/>
</mask>
<g mask="url(#mask21_34_72)">
<mask id="mask22_34_72" style="mask-type:luminance" maskUnits="userSpaceOnUse" x="-52" y="10" width="229" height="231">
<path d="M176.726 90.5865L92.4172 240.425L-51.5374 160.41L32.7696 10.5713L176.726 90.5865Z" fill="white"/>
</mask>
<g mask="url(#mask22_34_72)">
<mask id="mask23_34_72" style="mask-type:luminance" maskUnits="userSpaceOnUse" x="-52" y="10" width="229" height="231">
<path d="M176.726 90.5865L92.4189 240.425L-51.5374 160.41L32.7696 10.5713L176.726 90.5865Z" fill="white"/>
</mask>
<g mask="url(#mask23_34_72)">
<path d="M176.726 90.5865L92.4172 240.425L-51.5374 160.41L32.7696 10.5713L176.726 90.5865Z" fill="url(#paint5_linear_34_72)"/>
</g>
</g>
</g>
</g>
</g>
</g>
</g>
</g>
</mask>
<g mask="url(#mask15_34_72)">
<mask id="mask24_34_72" style="mask-type:luminance" maskUnits="userSpaceOnUse" x="52" y="93" width="49" height="62">
<path d="M52.1143 93.9354H100.454V154.088H52.1143V93.9187V93.9354Z" fill="white"/>
</mask>
<g mask="url(#mask24_34_72)">
<mask id="mask25_34_72" style="mask-type:luminance" maskUnits="userSpaceOnUse" x="52" y="93" width="49" height="62">
<path d="M52.1306 154.088H100.433V93.9187H52.1306V154.088Z" fill="white"/>
</mask>
<g mask="url(#mask25_34_72)">
<mask id="mask26_34_72" style="mask-type:luminance" maskUnits="userSpaceOnUse" x="52" y="93" width="49" height="62">
<path d="M53.9168 153.95L53.5095 153.997C53.4758 154.004 53.4556 154.004 53.4304 154.009L53.0837 154.042C53.0668 154.042 53.045 154.047 53.0281 154.047L52.1984 154.106H52.1143C74.8887 153.47 85.2998 142.139 90.4616 125.702L100.442 93.9197C90.9026 107.263 81.3195 123.166 71.6843 140.991C67.0392 149.581 59.9705 153.169 53.9168 153.934" fill="white"/>
</mask>
<g mask="url(#mask26_34_72)">
<mask id="mask27_34_72" style="mask-type:luminance" maskUnits="userSpaceOnUse" x="52" y="93" width="49" height="62">
<path d="M52.1294 93.9386H100.455V154.108H52.1294V93.9386Z" fill="white"/>
</mask>
<g mask="url(#mask27_34_72)">
<mask id="mask28_34_72" style="mask-type:luminance" maskUnits="userSpaceOnUse" x="52" y="93" width="49" height="62">
<path d="M52.1279 154.11V93.9409H100.454V154.11H52.1279Z" fill="white"/>
</mask>
<g mask="url(#mask28_34_72)">
<path d="M52.1294 93.939H100.455V154.108H52.1294V93.939Z" fill="url(#paint6_linear_34_72)"/>
</g>
</g>
</g>
</g>
</g>
</g>
<mask id="mask29_34_72" style="mask-type:luminance" maskUnits="userSpaceOnUse" x="53" y="68" width="57" height="86">
<path d="M53.9167 153.943V153.951C59.9722 153.185 67.0409 149.602 71.6843 141.009C81.3195 123.194 90.9076 107.281 100.433 93.9371C103.904 83.1176 106.762 74.839 109.572 68.5411C90.5777 86.51 71.5059 116.392 53.9167 153.943Z" fill="white"/>
</mask>
<g mask="url(#mask29_34_72)">
<mask id="mask30_34_72" style="mask-type:luminance" maskUnits="userSpaceOnUse" x="54" y="68" width="56" height="87">
<path d="M54.0378 68.6649H109.692V154.076H54.0378V68.6649Z" fill="white"/>
</mask>
<g mask="url(#mask30_34_72)">
<mask id="mask31_34_72" style="mask-type:luminance" maskUnits="userSpaceOnUse" x="54" y="68" width="56" height="87">
<path d="M54.0378 154.076V68.6649H109.692V154.076H54.0378Z" fill="white"/>
</mask>
<g mask="url(#mask31_34_72)">
<path d="M54.0378 68.6649H109.692V154.076H54.0378V68.6649Z" fill="url(#paint7_linear_34_72)"/>
</g>
</g>
</g>
<path d="M43.7015 129.525C39.6623 137.24 35.2703 145.461 30.3721 154.144L38.9581 154.142C40.0932 145.516 41.7034 137.287 43.7015 129.525Z" fill="#05A1E6"/>
<mask id="mask32_34_72" style="mask-type:luminance" maskUnits="userSpaceOnUse" x="39" y="49" width="78" height="106">
<path d="M102.966 49.9082C102.899 49.9215 102.849 49.9249 102.798 49.9299C102.697 49.95 102.588 49.9684 102.482 49.9767L102.291 49.9968L101.955 50.0553C101.901 50.0587 101.849 50.0687 101.807 50.0721L101.075 50.2009C101.044 50.2059 101.014 50.2143 100.99 50.2143L100.654 50.2812L100.475 50.3314L100.13 50.3983L99.9689 50.4367L98.7622 50.7479C98.7285 50.7612 98.6729 50.7713 98.6225 50.7897C98.5046 50.8181 98.3868 50.8599 98.2589 50.9001L98.094 50.9453L97.7322 51.054C97.6884 51.0657 97.648 51.0874 97.6059 51.0874L96.7695 51.3752L96.3655 51.519L96.204 51.5859C96.0828 51.6194 95.9583 51.6695 95.8674 51.7114C95.8287 51.7314 95.7799 51.7482 95.7496 51.7699C76.9335 59.1502 66.2733 86.4263 43.7715 129.52C41.692 137.623 40.1077 145.844 39.0271 154.137H40.2338L51.4477 154.12H51.5537L52.269 154.103L53.0987 154.045C53.1156 154.045 53.1374 154.04 53.1492 154.04C53.267 154.023 53.3849 154.015 53.4959 154.006C53.5262 154.001 53.543 154.001 53.5801 153.994C53.7029 153.983 53.8494 153.968 53.9874 153.948V153.939C71.5748 116.389 90.6467 86.5066 109.641 68.5378C111.731 63.8323 113.788 60.2408 116.045 57.5226C114.724 55.3045 113.281 53.4577 111.669 52.1095C111.652 52.1011 111.635 52.0961 111.622 52.0794C111.535 52.0426 111.445 52.0008 111.356 51.9539C111.269 51.9064 111.18 51.8613 111.09 51.8185C111.006 51.785 110.912 51.7398 110.831 51.693C110.726 51.659 110.624 51.6142 110.528 51.5592C110.444 51.5324 110.372 51.4922 110.292 51.4588C110.124 51.3945 109.957 51.326 109.793 51.253L109.581 51.1694C109.455 51.1275 109.331 51.0789 109.21 51.0239C109.146 51.0072 109.079 50.9804 109.008 50.9603C108.83 50.9018 108.662 50.8382 108.497 50.783C108.468 50.7746 108.458 50.7747 108.451 50.7663C108.249 50.7044 108.056 50.6542 107.854 50.599C107.807 50.5773 107.77 50.5689 107.719 50.5555C107.541 50.5087 107.383 50.4585 107.221 50.415C107.179 50.41 107.137 50.3983 107.103 50.3882C106.69 50.2803 106.272 50.1893 105.851 50.1156C105.812 50.1122 105.762 50.0989 105.72 50.0888L105.178 50.0052C105.144 49.9884 105.11 49.9884 105.072 49.9817L104.427 49.8981C104.394 49.8931 104.356 49.8847 104.314 49.8847C104.146 49.858 103.985 49.8462 103.823 49.8312C103.549 49.8513 103.291 49.8763 103.032 49.9014" fill="white"/>
</mask>
<g mask="url(#mask32_34_72)">
<mask id="mask33_34_72" style="mask-type:luminance" maskUnits="userSpaceOnUse" x="20" y="36" width="114" height="132">
<path d="M41.0534 167.219L20.7849 52.9693L113.424 36.7352L133.693 150.985L41.0534 167.221V167.219Z" fill="white"/>
</mask>
<g mask="url(#mask33_34_72)">
<mask id="mask34_34_72" style="mask-type:luminance" maskUnits="userSpaceOnUse" x="20" y="36" width="114" height="132">
<path d="M41.0534 167.219L20.7849 52.9693L113.423 36.7334L133.691 150.983L41.0517 167.219H41.0534Z" fill="white"/>
</mask>
<g mask="url(#mask34_34_72)">
<path d="M41.0534 167.219L20.7849 52.9693L113.424 36.7352L133.693 150.985L41.0534 167.221V167.219Z" fill="url(#paint8_linear_34_72)"/>
</g>
</g>
</g>
<mask id="mask35_34_72" style="mask-type:luminance" maskUnits="userSpaceOnUse" x="220" y="49" width="35" height="61">
<path d="M231.005 75.4747L220.119 109.984C232.001 93.7346 243.701 73.3001 254.839 49.709C241.847 53.7688 234.913 63.051 231.003 75.473" fill="white"/>
</mask>
<g mask="url(#mask35_34_72)">
<mask id="mask36_34_72" style="mask-type:luminance" maskUnits="userSpaceOnUse" x="220" y="49" width="35" height="61">
<path d="M220.185 49.6957H254.905V109.969H220.185V49.6957Z" fill="white"/>
</mask>
<g mask="url(#mask36_34_72)">
<mask id="mask37_34_72" style="mask-type:luminance" maskUnits="userSpaceOnUse" x="220" y="49" width="35" height="61">
<path d="M220.185 109.969V49.694H254.905V109.969H220.185Z" fill="white"/>
</mask>
<g mask="url(#mask37_34_72)">
<path d="M220.185 49.6957H254.905V109.969H220.185V49.6957Z" fill="url(#paint9_linear_34_72)"/>
</g>
</g>
</g>
<mask id="mask38_34_72" style="mask-type:luminance" maskUnits="userSpaceOnUse" x="188" y="38" width="152" height="53">
<mask id="mask39_34_72" style="mask-type:luminance" maskUnits="userSpaceOnUse" x="188" y="38" width="152" height="53">
<path d="M188.877 38.2908H339.498V90.4778H188.877V38.2908Z" fill="white"/>
</mask>
<g mask="url(#mask39_34_72)">
<mask id="mask40_34_72" style="mask-type:luminance" maskUnits="userSpaceOnUse" x="187" y="36" width="155" height="57">
<path d="M187.235 36.6181H341.18V92.1121H187.235V36.6164V36.6181Z" fill="white"/>
</mask>
<g mask="url(#mask40_34_72)">
<mask id="mask41_34_72" style="mask-type:luminance" maskUnits="userSpaceOnUse" x="188" y="38" width="152" height="53">
<path d="M188.877 90.4778H339.473V38.3276H188.877V90.4778Z" fill="white"/>
</mask>
<g mask="url(#mask41_34_72)">
<mask id="mask42_34_72" style="mask-type:luminance" maskUnits="userSpaceOnUse" x="188" y="38" width="152" height="53">
<path d="M188.877 38.2908H339.498V90.4778H188.877V38.2908Z" fill="white"/>
</mask>
<g mask="url(#mask42_34_72)">
<mask id="mask43_34_72" style="mask-type:luminance" maskUnits="userSpaceOnUse" x="188" y="38" width="152" height="53">
<path d="M188.877 90.4778H339.473V38.3276H188.877V90.4778Z" fill="white"/>
</mask>
<g mask="url(#mask43_34_72)">
<mask id="mask44_34_72" style="mask-type:luminance" maskUnits="userSpaceOnUse" x="188" y="38" width="152" height="53">
<path d="M188.877 38.3276H339.459V90.4778H188.877V38.3276Z" fill="white"/>
</mask>
<g mask="url(#mask44_34_72)">
<mask id="mask45_34_72" style="mask-type:luminance" maskUnits="userSpaceOnUse" x="188" y="38" width="152" height="53">
<path d="M339.496 90.4393H188.917V38.2891H339.496V90.4393Z" fill="white"/>
</mask>
<g mask="url(#mask45_34_72)">
<mask id="mask46_34_72" style="mask-type:luminance" maskUnits="userSpaceOnUse" x="188" y="38" width="152" height="53">
<path d="M339.496 38.2908V90.4393H188.917V38.2891H339.496V38.2908Z" fill="white"/>
</mask>
<g mask="url(#mask46_34_72)">
<path d="M339.496 90.4393H188.917V38.2891H339.496V90.4393Z" fill="url(#paint10_linear_34_72)"/>
</g>
</g>
</g>
</g>
</g>
</g>
</g>
</g>
</mask>
<g mask="url(#mask38_34_72)">
<mask id="mask47_34_72" style="mask-type:luminance" maskUnits="userSpaceOnUse" x="201" y="36" width="99" height="124">
<path d="M201.18 36.4657H299.973V159.628H201.18V36.4657Z" fill="white"/>
</mask>
<g mask="url(#mask47_34_72)">
<mask id="mask48_34_72" style="mask-type:luminance" maskUnits="userSpaceOnUse" x="218" y="47" width="65" height="102">
<path d="M218.677 148.923H282.558V47.4726H218.677V148.923Z" fill="white"/>
</mask>
<g mask="url(#mask48_34_72)">
<mask id="mask49_34_72" style="mask-type:luminance" maskUnits="userSpaceOnUse" x="218" y="47" width="65" height="102">
<path d="M220.495 148.061L218.685 148.923C241.792 138.68 269.357 98.0504 282.555 47.4726H279.862C249.544 101.302 239.793 137.334 220.48 148.061" fill="white"/>
</mask>
<g mask="url(#mask49_34_72)">
<mask id="mask50_34_72" style="mask-type:luminance" maskUnits="userSpaceOnUse" x="201" y="36" width="99" height="124">
<path d="M299.957 50.3798L280.576 159.612L201.18 145.697L220.561 36.4657L299.957 50.3798Z" fill="white"/>
</mask>
<g mask="url(#mask50_34_72)">
<mask id="mask51_34_72" style="mask-type:luminance" maskUnits="userSpaceOnUse" x="201" y="36" width="99" height="124">
<path d="M299.957 50.3798L280.576 159.612L201.18 145.697L220.561 36.4657L299.957 50.3798Z" fill="white"/>
</mask>
<g mask="url(#mask51_34_72)">
<path d="M299.957 50.3798L280.576 159.612L201.18 145.697L220.561 36.4657L299.957 50.3798Z" fill="url(#paint11_linear_34_72)"/>
</g>
</g>
</g>
</g>
</g>
</g>
<path d="M205.394 143.542C210.422 137.439 214.52 127.071 220.105 109.986C213.658 118.791 207.179 126.355 200.671 132.53C200.663 132.548 200.663 132.564 200.649 132.586C202.067 136.801 203.622 140.533 205.394 143.542Z" fill="#079AE1"/>
<path d="M205.394 143.542C203.684 145.62 201.873 147.195 199.854 148.367L198.514 149.083C200.701 150.259 203.093 151.008 205.563 151.291H205.58L206.731 151.393H206.804L207.343 151.42H207.418L207.987 151.428L208.6 151.42L208.789 151.406L209.219 151.393L209.432 151.366L209.836 151.339C209.858 151.339 209.87 151.339 209.883 151.326C209.937 151.326 209.987 151.318 210.039 151.318L210.489 151.271C210.503 151.271 210.509 151.266 210.53 151.266C210.57 151.256 210.62 151.25 210.664 151.244L211.149 151.175C211.197 151.175 211.239 151.161 211.292 151.155L211.834 151.066H211.864C211.877 151.057 211.9 151.057 211.912 151.053L212.993 150.826C210.012 149.755 207.518 147.179 205.366 143.538" fill="#1969BC"/>
<path d="M162.807 151.426C165.003 151.423 167.192 151.213 169.348 150.802C171.373 150.429 173.409 149.871 175.447 149.164C177.147 149.992 178.946 150.603 180.801 150.981C182.26 151.275 183.763 151.428 185.379 151.428H162.807V151.426Z" fill="#1E5CB3"/>
<path d="M185.365 151.426C190.706 151.426 194.934 150.801 198.528 149.085C200.713 150.262 203.106 151.012 205.576 151.293H205.593L206.745 151.394H206.817L207.356 151.421H207.431L208.001 151.429H185.349L185.365 151.426Z" fill="#1E5CB3"/>
<path d="M208.017 151.426L208.63 151.418L208.818 151.405L209.249 151.392L209.46 151.365L209.864 151.338C209.886 151.338 209.894 151.338 209.911 151.33C209.965 151.33 210.015 151.317 210.073 151.317L210.517 151.27C210.531 151.27 210.537 151.265 210.558 151.265C210.598 151.255 210.649 151.248 210.692 151.243L211.177 151.172C211.225 151.171 211.273 151.164 211.32 151.152L211.861 151.064H211.888C211.908 151.054 211.928 151.054 211.942 151.05L213.024 150.823C214.083 151.21 215.202 151.405 216.33 151.398L208.002 151.42L208.017 151.426Z" fill="#1D60B5"/>
<path d="M200.663 132.587C200.663 132.578 200.655 132.566 200.655 132.558L193.519 138.763L189.796 141.541L193.019 145.02C194.716 146.653 196.52 148.031 198.513 149.098L199.852 148.382C201.872 147.21 203.684 145.633 205.393 143.556C203.624 140.545 202.067 136.818 200.648 132.602" fill="#175FAB"/>
<mask id="mask52_34_72" style="mask-type:luminance" maskUnits="userSpaceOnUse" x="205" y="47" width="75" height="104">
<path d="M271.408 47.4726H260.169C259.791 47.4726 259.42 47.481 259.05 47.486L257.993 47.4977H257.968L255.836 47.5981L254.826 49.7091C243.684 73.2985 231.984 93.7364 220.105 109.984C214.518 127.07 210.421 137.439 205.396 143.54C207.547 147.181 210.041 149.742 213.02 150.833C213.107 150.805 213.175 150.793 213.25 150.778C213.267 150.766 213.284 150.766 213.301 150.766C213.351 150.758 213.407 150.736 213.461 150.733C213.584 150.704 213.713 150.677 213.831 150.636L214.057 150.577C214.166 150.547 214.285 150.518 214.39 150.493C214.457 150.463 214.524 150.448 214.598 150.432C214.772 150.376 214.927 150.34 215.093 150.286C215.167 150.253 215.25 150.226 215.339 150.206C215.432 150.172 215.529 150.145 215.613 150.105C215.714 150.075 215.812 150.055 215.899 150.017C215.977 149.997 216.061 149.961 216.135 149.928C216.329 149.861 216.519 149.803 216.719 149.727C216.77 149.711 216.82 149.68 216.876 149.67C216.993 149.62 217.116 149.587 217.212 149.53C217.259 149.513 217.31 149.491 217.38 149.475C217.8 149.306 218.216 149.13 218.629 148.946C218.633 148.946 218.655 148.938 218.668 148.929C219.269 148.665 219.873 148.374 220.474 148.068C239.791 137.342 249.543 101.311 279.861 47.4793H271.392L271.408 47.4726Z" fill="white"/>
</mask>
<g mask="url(#mask52_34_72)">
<mask id="mask53_34_72" style="mask-type:luminance" maskUnits="userSpaceOnUse" x="205" y="47" width="75" height="104">
<path d="M279.829 150.843H205.355V47.4659H279.829V150.843Z" fill="white"/>
</mask>
<g mask="url(#mask53_34_72)">
<mask id="mask54_34_72" style="mask-type:luminance" maskUnits="userSpaceOnUse" x="205" y="47" width="75" height="104">
<path d="M279.829 47.4822V150.859H205.355V47.4822H279.829Z" fill="white"/>
</mask>
<g mask="url(#mask54_34_72)">
<path d="M279.829 150.843H205.355V47.4659H279.829V150.843Z" fill="url(#paint12_linear_34_72)"/>
</g>
</g>
</g>
<mask id="mask55_34_72" style="mask-type:luminance" maskUnits="userSpaceOnUse" x="81" y="45" width="65" height="16">
<mask id="mask56_34_72" style="mask-type:luminance" maskUnits="userSpaceOnUse" x="81" y="45" width="65" height="16">
<path d="M81.8713 45.5456H145.802V60.199H81.8713V45.5456Z" fill="white"/>
</mask>
<g mask="url(#mask56_34_72)">
<mask id="mask57_34_72" style="mask-type:luminance" maskUnits="userSpaceOnUse" x="80" y="43" width="68" height="19">
<path d="M80.1882 43.8863H147.468V61.8718H80.1882V43.8863Z" fill="white"/>
</mask>
<g mask="url(#mask57_34_72)">
<mask id="mask58_34_72" style="mask-type:luminance" maskUnits="userSpaceOnUse" x="81" y="45" width="65" height="16">
<path d="M81.8745 60.1873H145.795V45.5456H81.8745V60.1873Z" fill="white"/>
</mask>
<g mask="url(#mask58_34_72)">
<mask id="mask59_34_72" style="mask-type:luminance" maskUnits="userSpaceOnUse" x="81" y="45" width="65" height="16">
<path d="M81.8713 45.5452H145.802V60.1986H81.8713V45.5452Z" fill="white"/>
</mask>
<g mask="url(#mask59_34_72)">
<mask id="mask60_34_72" style="mask-type:luminance" maskUnits="userSpaceOnUse" x="81" y="45" width="65" height="16">
<path d="M81.8745 60.1873H145.795V45.5456H81.8745V60.1873Z" fill="white"/>
</mask>
<g mask="url(#mask60_34_72)">
<mask id="mask61_34_72" style="mask-type:luminance" maskUnits="userSpaceOnUse" x="81" y="45" width="65" height="16">
<path d="M145.801 60.1873H81.8875V45.5456H145.801V60.1873Z" fill="white"/>
</mask>
<g mask="url(#mask61_34_72)">
<mask id="mask62_34_72" style="mask-type:luminance" maskUnits="userSpaceOnUse" x="81" y="45" width="65" height="16">
<path d="M81.8711 45.5586H145.785V60.2003H81.8711V45.5586Z" fill="white"/>
</mask>
<g mask="url(#mask62_34_72)">
<mask id="mask63_34_72" style="mask-type:luminance" maskUnits="userSpaceOnUse" x="81" y="45" width="65" height="16">
<path d="M81.8711 60.199V45.559H145.785V60.199H81.8711Z" fill="white"/>
</mask>
<g mask="url(#mask63_34_72)">
<path d="M81.8711 45.5586H145.785V60.2003H81.8711V45.5586Z" fill="url(#paint13_linear_34_72)"/>
</g>
</g>
</g>
</g>
</g>
</g>
</g>
</g>
</mask>
<g mask="url(#mask55_34_72)">
<mask id="mask64_34_72" style="mask-type:luminance" maskUnits="userSpaceOnUse" x="99" y="37" width="52" height="32">
<path d="M99.782 37.6635H150.407V68.0543H99.782V37.6635Z" fill="white"/>
</mask>
<g mask="url(#mask64_34_72)">
<mask id="mask65_34_72" style="mask-type:luminance" maskUnits="userSpaceOnUse" x="101" y="49" width="47" height="11">
<path d="M101.406 59.55H147.431V49.7208H101.406V59.55Z" fill="white"/>
</mask>
<g mask="url(#mask65_34_72)">
<path d="M103.74 49.8379L103.882 49.8546C103.999 49.8595 104.116 49.8724 104.232 49.8931C104.274 49.8931 104.311 49.9014 104.344 49.9065L104.989 49.9901C105.026 49.9984 105.061 49.9984 105.095 50.0101L105.637 50.0988C105.681 50.1125 105.726 50.1215 105.772 50.1256L107.02 50.3983L107.135 50.425L107.64 50.5655C107.69 50.5789 107.729 50.5872 107.774 50.609L108.372 50.7763C108.379 50.7863 108.389 50.7863 108.412 50.793L108.917 50.9703L109.119 51.0372L109.489 51.2045C109.557 51.2213 109.629 51.248 109.701 51.2765L110.196 51.4822L110.437 51.5859L110.74 51.713C110.824 51.7599 110.92 51.8 111.002 51.8385L111.268 51.9723C113.419 53.0228 115.4 54.4179 117.231 56.1208C117.888 55.434 118.594 54.7956 119.343 54.2105C115.338 51.3885 110.794 49.7777 105.556 49.7777C104.946 49.7759 104.335 49.8016 103.727 49.8546" fill="#7DCBEC"/>
<path d="M117.247 56.1041C118.369 57.1445 119.445 58.3004 120.444 59.55L123.383 57.6029C122.1 56.3282 120.745 55.184 119.34 54.1938C118.61 54.7625 117.906 55.3982 117.228 56.1041" fill="#5EC5ED"/>
<mask id="mask66_34_72" style="mask-type:luminance" maskUnits="userSpaceOnUse" x="101" y="49" width="35" height="6">
<path d="M103.74 49.8379L105.57 49.7609C110.807 49.7609 115.331 51.3718 119.357 54.1938C123.59 50.8817 128.703 49.7208 135.805 49.7208H101.409C102.2 49.7208 102.978 49.7643 103.74 49.8379Z" fill="white"/>
</mask>
<g mask="url(#mask66_34_72)">
<mask id="mask67_34_72" style="mask-type:luminance" maskUnits="userSpaceOnUse" x="99" y="37" width="39" height="30">
<path d="M106.425 37.6635L137.367 50.4183L130.724 66.3364L99.782 53.5799L106.425 37.6635Z" fill="white"/>
</mask>
<g mask="url(#mask67_34_72)">
<mask id="mask68_34_72" style="mask-type:luminance" maskUnits="userSpaceOnUse" x="99" y="37" width="39" height="30">
<path d="M106.425 37.6635L137.367 50.4201L130.724 66.3381L99.782 53.5816L106.425 37.6635Z" fill="white"/>
</mask>
<g mask="url(#mask68_34_72)">
<path d="M106.425 37.6635L137.367 50.4183L130.724 66.3364L99.782 53.5799L106.425 37.6635Z" fill="url(#paint14_linear_34_72)"/>
</g>
</g>
</g>
<mask id="mask69_34_72" style="mask-type:luminance" maskUnits="userSpaceOnUse" x="119" y="49" width="29" height="9">
<path d="M135.807 49.7208C128.704 49.7208 123.591 50.88 119.359 54.1938C120.764 55.1841 122.119 56.3282 123.401 57.6029C129.287 53.8793 135.12 51.417 140.871 50.3431C143.067 49.9316 145.257 49.7242 147.414 49.7242H135.807V49.7208Z" fill="white"/>
</mask>
<g mask="url(#mask69_34_72)">
<mask id="mask70_34_72" style="mask-type:luminance" maskUnits="userSpaceOnUse" x="116" y="39" width="35" height="30">
<path d="M116.388 51.0122L142.643 39.1858L150.409 56.2095L124.154 68.0359L116.388 51.0122Z" fill="white"/>
</mask>
<g mask="url(#mask70_34_72)">
<mask id="mask71_34_72" style="mask-type:luminance" maskUnits="userSpaceOnUse" x="116" y="39" width="35" height="30">
<path d="M116.388 51.0122L142.643 39.1824L150.407 56.2061L124.152 68.0359L116.388 51.0122Z" fill="white"/>
</mask>
<g mask="url(#mask71_34_72)">
<path d="M116.388 51.0122L142.643 39.1858L150.409 56.2095L124.154 68.0359L116.388 51.0122Z" fill="url(#paint15_linear_34_72)"/>
</g>
</g>
</g>
</g>
</g>
</g>
<mask id="mask72_34_72" style="mask-type:luminance" maskUnits="userSpaceOnUse" x="154" y="55" width="151" height="83">
<mask id="mask73_34_72" style="mask-type:luminance" maskUnits="userSpaceOnUse" x="154" y="55" width="151" height="83">
<path d="M154.207 55.4233H304.836V137.611H154.207V55.4233Z" fill="white"/>
</mask>
<g mask="url(#mask73_34_72)">
<mask id="mask74_34_72" style="mask-type:luminance" maskUnits="userSpaceOnUse" x="152" y="53" width="155" height="87">
<path d="M152.578 53.8124H306.523V139.284H152.578V53.8124Z" fill="white"/>
</mask>
<g mask="url(#mask74_34_72)">
<mask id="mask75_34_72" style="mask-type:luminance" maskUnits="userSpaceOnUse" x="154" y="55" width="151" height="83">
<path d="M154.207 137.549H304.806V55.4233H154.207V137.549Z" fill="white"/>
</mask>
<g mask="url(#mask75_34_72)">
<mask id="mask76_34_72" style="mask-type:luminance" maskUnits="userSpaceOnUse" x="154" y="55" width="151" height="83">
<path d="M154.207 55.4233H304.836V137.611H154.207V55.4233Z" fill="white"/>
</mask>
<g mask="url(#mask76_34_72)">
<mask id="mask77_34_72" style="mask-type:luminance" maskUnits="userSpaceOnUse" x="154" y="55" width="151" height="83">
<path d="M154.207 137.549H304.806V55.4233H154.207V137.549Z" fill="white"/>
</mask>
<g mask="url(#mask77_34_72)">
<mask id="mask78_34_72" style="mask-type:luminance" maskUnits="userSpaceOnUse" x="154" y="55" width="151" height="83">
<path d="M304.797 137.549H154.219V55.4233H304.797V137.549Z" fill="white"/>
</mask>
<g mask="url(#mask78_34_72)">
<mask id="mask79_34_72" style="mask-type:luminance" maskUnits="userSpaceOnUse" x="154" y="55" width="151" height="83">
<path d="M154.261 55.4851H304.84V137.611H154.261V55.4868V55.4851Z" fill="white"/>
</mask>
<g mask="url(#mask79_34_72)">
<mask id="mask80_34_72" style="mask-type:luminance" maskUnits="userSpaceOnUse" x="154" y="55" width="151" height="83">
<path d="M154.264 137.611V55.4868H304.843V137.611H154.264Z" fill="white"/>
</mask>
<g mask="url(#mask80_34_72)">
<path d="M154.261 55.4851H304.84V137.611H154.261V55.4868V55.4851Z" fill="url(#paint16_linear_34_72)"/>
</g>
</g>
</g>
</g>
</g>
</g>
</g>
</g>
</mask>
<g mask="url(#mask72_34_72)">
<mask id="mask81_34_72" style="mask-type:luminance" maskUnits="userSpaceOnUse" x="200" y="47" width="57" height="86">
<path d="M200.69 47.5747H256.074V132.53H200.69V47.5747Z" fill="white"/>
</mask>
<g mask="url(#mask81_34_72)">
<mask id="mask82_34_72" style="mask-type:luminance" maskUnits="userSpaceOnUse" x="200" y="47" width="56" height="86">
<path d="M200.693 132.53H255.816V47.5998H200.693V132.53Z" fill="white"/>
</mask>
<g mask="url(#mask82_34_72)">
<mask id="mask83_34_72" style="mask-type:luminance" maskUnits="userSpaceOnUse" x="200" y="47" width="56" height="86">
<path d="M220.104 109.994L230.998 75.4748C234.903 63.0495 241.825 53.7673 254.826 49.7108L255.824 47.5998C234.618 48.8594 224.734 59.5768 219.749 75.438C211.034 103.136 205.756 121.091 200.675 132.53C207.167 126.36 213.655 118.789 220.104 109.994Z" fill="white"/>
</mask>
<g mask="url(#mask83_34_72)">
<mask id="mask84_34_72" style="mask-type:luminance" maskUnits="userSpaceOnUse" x="200" y="47" width="57" height="86">
<path d="M256.074 132.504H200.922V47.5747H256.074V132.504Z" fill="white"/>
</mask>
<g mask="url(#mask84_34_72)">
<mask id="mask85_34_72" style="mask-type:luminance" maskUnits="userSpaceOnUse" x="200" y="47" width="57" height="86">
<path d="M256.074 47.5763V132.503H200.922V47.5763H256.074Z" fill="white"/>
</mask>
<g mask="url(#mask85_34_72)">
<path d="M256.074 132.504H200.922V47.5747H256.074V132.504Z" fill="url(#paint17_linear_34_72)"/>
</g>
</g>
</g>
</g>
</g>
</g>
<path d="M251.896 149.799L251.568 150.625H251.536C251.488 150.441 251.401 150.17 251.231 149.817L249.161 145.133H248.116V151.847H248.87V147.35L248.836 146.035H248.852C248.925 146.356 248.994 146.587 249.058 146.731L251.367 151.849H251.752L254.052 146.692C254.115 146.558 254.181 146.344 254.263 146.023H254.277L254.215 147.326V151.836H255.003V145.122H254.006L251.892 149.79L251.896 149.799ZM242.368 145.846H244.315V151.847H245.123V145.846H247.061V145.131H242.376V145.846H242.368ZM291.45 142.179C290.743 142.167 290.042 142.302 289.392 142.576C288.741 142.85 288.156 143.256 287.673 143.769C286.639 144.833 286.125 146.111 286.125 147.623C286.125 149.095 286.636 150.373 287.673 151.45C288.71 152.528 289.967 153.066 291.45 153.066C292.174 153.078 292.892 152.94 293.56 152.662C294.227 152.384 294.83 151.972 295.329 151.45C296.398 150.375 296.945 149.099 296.945 147.623C296.945 146.147 296.413 144.866 295.329 143.791C294.83 143.269 294.228 142.856 293.56 142.579C292.892 142.301 292.174 142.165 291.45 142.179ZM424.628 90.2031H444.683V151.954H452.826V90.2031H472.843V82.883H424.642V90.2031H424.628ZM388.275 120.5H413.375V113.18H388.277V90.2031H415.366V82.883H380.158V151.954H416.989V144.634H388.31V120.499L388.275 120.5ZM356.654 131.532L357.142 141.686H356.954C356.469 140.749 355.527 139.221 354.126 137.069L319.335 82.871H308.798V151.942H316.944V102.065L316.556 92.5811H316.853C317.465 94.1535 318.189 95.5948 319.027 96.9169L354.891 151.971H364.774V82.9004H356.695V131.549L356.654 131.532ZM452.888 69.0713C452.888 72.7702 454.538 74.6209 457.843 74.6209C459.021 74.6209 459.97 74.4202 460.689 74.012V71.4427C460.135 71.8481 459.483 72.0515 458.73 72.0515C457.72 72.0515 457.003 71.7839 456.565 71.2459C456.132 70.7107 455.922 69.8194 455.922 68.5695V57.9575H460.688V55.4055H455.922V49.8385L452.887 50.8154V55.4055H449.637V57.9575H452.887V69.086L452.888 69.0713ZM440.501 74.2034H443.531V57.9441H447.967V55.3921H443.531V52.4935C443.531 49.8359 444.584 48.5057 446.705 48.5057C447.408 48.495 448.102 48.6656 448.718 49.0008V46.2816C448.188 46.0674 447.458 45.955 446.524 45.955C444.908 45.955 443.562 46.4595 442.436 47.4806C441.137 48.6515 440.501 50.2908 440.501 52.3437V55.3948H437.27V57.9468H440.501V74.2061V74.2034ZM419.845 64.9028C419.845 62.5021 420.437 60.6526 421.629 59.3412C422.765 58.1167 424.276 57.5038 426.159 57.5038C428.066 57.5038 429.555 58.1087 430.613 59.3211C431.709 60.5844 432.256 62.4204 432.256 64.8319C432.256 67.1336 431.744 68.9054 430.721 70.1606C429.676 71.4453 428.156 72.0877 426.161 72.0877C424.238 72.0877 422.706 71.4534 421.551 70.1847C420.413 68.9215 419.846 67.155 419.846 64.9041M432.812 71.9378C434.508 70.1312 435.37 67.7224 435.37 64.7115C435.37 61.6643 434.569 59.2649 432.991 57.5252C431.402 55.7936 429.205 54.9211 426.394 54.9211C423.52 54.9211 421.226 55.7574 419.519 57.4168C417.674 59.21 416.745 61.7339 416.745 65.0045C416.745 67.8736 417.561 70.1807 419.186 71.9271C420.846 73.739 423.091 74.6437 425.952 74.6437C428.833 74.6437 431.126 73.7364 432.824 71.9271M412.015 72.9923C412.574 72.5228 413.02 71.9352 413.322 71.2723C413.623 70.6095 413.771 69.8881 413.756 69.161C413.756 67.7612 413.29 66.6104 412.364 65.7084C411.656 64.9925 410.49 64.2953 408.871 63.6262C407.435 63.0173 406.478 62.4927 406.044 62.0604C405.54 61.5987 405.285 60.9497 405.285 60.12C405.277 59.7553 405.356 59.394 405.514 59.0648C405.672 58.7355 405.905 58.4476 406.195 58.2238C406.795 57.738 407.602 57.4945 408.618 57.4945C410.239 57.4945 411.667 57.9388 412.927 58.8354V55.8016C411.734 55.2128 410.387 54.9211 408.881 54.9211C406.919 54.9211 405.32 55.4363 404.074 56.4787C402.829 57.5212 402.208 58.8139 402.208 60.3596C402.208 61.7553 402.612 62.9022 403.412 63.7586C404.076 64.4947 405.205 65.1999 406.778 65.8917C408.315 66.5635 409.353 67.1363 409.883 67.6314C410.412 68.1266 410.681 68.702 410.681 69.4487C410.681 71.1991 409.48 72.0783 407.079 72.0783C405.282 72.0783 403.646 71.4761 402.158 70.2771V73.5155C403.505 74.273 405.061 74.6477 406.871 74.6477C409.055 74.6477 410.794 74.1124 412.061 72.995M385.049 59.3452C386.18 58.1207 387.688 57.5078 389.573 57.5078C391.485 57.5078 392.966 58.1127 394.017 59.3251C395.094 60.5884 395.659 62.4244 395.659 64.8359C395.659 67.1376 395.147 68.9094 394.124 70.1647C393.079 71.4493 391.566 72.0917 389.564 72.0917C387.639 72.0917 386.104 71.4574 384.965 70.1887C383.816 68.9255 383.248 67.159 383.248 64.9082C383.248 62.5074 383.846 60.658 385.039 59.3465M389.339 74.6611C392.22 74.6611 394.512 73.7538 396.206 71.9445C397.9 70.1352 398.764 67.7291 398.764 64.7181C398.764 61.671 397.956 59.2716 396.394 57.5319C394.805 55.8003 392.601 54.9278 389.778 54.9278C386.91 54.9278 384.621 55.7641 382.911 57.4235C381.06 59.2167 380.138 61.7406 380.138 65.0112C380.138 67.8803 380.952 70.1874 382.561 71.9338C384.221 73.7457 386.466 74.6504 389.324 74.6504M374.018 56.0706C373.097 56.82 372.413 57.8732 371.966 59.2502H371.891V55.3694H368.864V74.1846H371.891V64.5897C371.891 62.4084 372.362 60.7021 373.318 59.4643C374.157 58.3643 375.203 57.8156 376.42 57.8156C377.433 57.8156 378.2 58.0123 378.736 58.4178V55.2944C378.325 55.1258 377.726 55.0268 376.921 55.0268C375.849 55.0268 374.88 55.3694 374.021 56.0545M359.095 74.6196C361.095 74.6196 362.827 74.1806 364.278 73.2814V70.4176C362.824 71.4962 361.279 72.0234 359.62 72.0234C357.661 72.0234 356.119 71.3878 354.94 70.1138C353.76 68.8398 353.189 67.1055 353.189 64.9149C353.189 62.6372 353.833 60.8106 355.096 59.4456C356.312 58.11 357.879 57.4409 359.808 57.4409C361.424 57.4409 362.908 57.928 364.319 58.913V55.8351C363.046 55.2034 361.586 54.8796 359.94 54.8796C356.934 54.8796 354.555 55.8163 352.764 57.726C350.979 59.6236 350.09 62.1153 350.09 65.1972C350.09 67.9432 350.906 70.1888 352.513 71.9218C354.183 73.7096 356.364 74.6035 359.08 74.6035M342.353 74.1512H345.376V55.3359H342.353V74.1512ZM343.902 50.5639C344.457 50.5639 344.931 50.3725 345.316 49.9911C345.701 49.6097 345.899 49.148 345.899 48.5953C345.903 48.337 345.853 48.0806 345.753 47.8422C345.652 47.6039 345.504 47.3887 345.316 47.2103C345.13 47.0273 344.91 46.8834 344.667 46.7873C344.424 46.6911 344.164 46.6447 343.903 46.6509C343.365 46.6509 342.893 46.8342 342.506 47.2103C342.318 47.3888 342.17 47.6041 342.071 47.8425C341.972 48.081 341.924 48.3374 341.929 48.5953C341.929 49.1748 342.123 49.6431 342.506 50.0111C342.888 50.3792 343.362 50.5639 343.903 50.5639M311.773 56.4961L311.628 51.3574H311.696C311.965 52.5939 312.234 53.4985 312.485 54.0606L321.543 74.1552H323.059L332.099 53.9134C332.334 53.3848 332.601 52.535 332.891 51.3708H332.964L332.705 56.4761V74.1673H335.802V47.8245H331.897L323.594 66.1179C323.271 66.8272 322.853 67.9058 322.323 69.347H322.194C322.003 68.6297 321.605 67.5779 320.99 66.1942L312.858 47.8232H308.755V74.1659H311.752V56.5095L311.773 56.4961ZM464.706 53.2496C465.554 52.4012 466.618 51.9783 467.897 51.9783C468.481 51.9665 469.061 52.0721 469.603 52.2887C470.145 52.5053 470.637 52.8285 471.05 53.2389C471.908 54.082 472.338 55.1392 472.338 56.3971C472.338 57.655 471.908 58.723 471.04 59.562C470.176 60.4185 469.123 60.8413 467.895 60.8413C466.657 60.8413 465.602 60.4238 464.745 59.5781C463.876 58.7323 463.436 57.6644 463.436 56.3971C463.436 55.1526 463.859 54.1007 464.702 53.2483M467.87 61.3485C469.302 61.3485 470.502 60.8668 471.478 59.914C472.454 58.9612 472.959 57.7795 472.959 56.3677C472.959 54.9331 472.469 53.7448 471.483 52.808C470.525 51.8927 469.34 51.4296 467.924 51.4296C466.483 51.4296 465.278 51.9114 464.308 52.8749C463.836 53.3352 463.464 53.8866 463.214 54.4954C462.964 55.1041 462.842 55.7572 462.856 56.4145C462.856 57.8424 463.327 59.02 464.283 59.9568C465.235 60.8841 466.437 61.3525 467.882 61.3525M466.825 53.912H467.623C468.162 53.912 468.571 54.0057 468.803 54.1797C469.01 54.3537 469.112 54.6106 469.112 54.9773C469.112 55.7066 468.673 56.0706 467.786 56.0706H466.825V53.8987V53.912ZM466.825 56.8454H467.415C467.829 56.8454 468.222 57.2255 468.559 57.9963L469.259 59.5219H470.336L469.495 57.825C469.145 57.1238 468.788 56.7317 468.418 56.6474V56.6206C468.929 56.5135 469.333 56.3048 469.629 55.9943C469.926 55.6838 470.06 55.3185 470.06 54.8783C470.068 54.6514 470.024 54.4258 469.933 54.2176C469.843 54.0094 469.707 53.8237 469.535 53.6738C469.12 53.3125 468.519 53.1386 467.713 53.1386H465.909V59.5152H466.811V56.8387L466.825 56.8454Z" fill="#231F20"/>
</g>
</g>
<defs>
<linearGradient id="paint0_linear_34_72" x1="8874.56" y1="-35321.7" x2="8874.56" y2="-28778.8" gradientUnits="userSpaceOnUse">
<stop stop-color="#0994DC"/>
<stop offset="0.11" stop-color="#0994DC"/>
<stop offset="0.35" stop-color="#66CEF5"/>
<stop offset="0.45" stop-color="#66CEF5"/>
<stop offset="0.846" stop-color="#127BCA"/>
<stop offset="1" stop-color="#127BCA"/>
</linearGradient>
<linearGradient id="paint1_linear_34_72" x1="9467.98" y1="-36390.9" x2="9467.98" y2="-29510.2" gradientUnits="userSpaceOnUse">
<stop stop-color="#0E76BC"/>
<stop offset="0.176" stop-color="#0E76BC"/>
<stop offset="0.36" stop-color="#36AEE8"/>
<stop offset="0.52" stop-color="#36AEE8"/>
<stop offset="0.846" stop-color="#00ADEF"/>
<stop offset="1" stop-color="#00ADEF"/>
</linearGradient>
<linearGradient id="paint2_linear_34_72" x1="9485.55" y1="-38522" x2="9485.55" y2="-31104.8" gradientUnits="userSpaceOnUse">
<stop stop-color="#166AB8"/>
<stop offset="0.099" stop-color="#166AB8"/>
<stop offset="0.4" stop-color="#36AEE8"/>
<stop offset="0.516" stop-color="#36AEE8"/>
<stop offset="0.846" stop-color="#0798DD"/>
<stop offset="1" stop-color="#0798DD"/>
</linearGradient>
<linearGradient id="paint3_linear_34_72" x1="11833.9" y1="-40927.3" x2="11833.9" y2="-32540.4" gradientUnits="userSpaceOnUse">
<stop stop-color="#124379"/>
<stop offset="0.11" stop-color="#124379"/>
<stop offset="0.39" stop-color="#1487CB"/>
<stop offset="0.52" stop-color="#1487CB"/>
<stop offset="0.78" stop-color="#165197"/>
<stop offset="1" stop-color="#165197"/>
</linearGradient>
<linearGradient id="paint4_linear_34_72" x1="7129.19" y1="-27446.3" x2="7129.19" y2="-32279.8" gradientUnits="userSpaceOnUse">
<stop stop-color="#318ED5"/>
<stop offset="0.675" stop-color="#38A7E4"/>
<stop offset="1" stop-color="#38A7E4"/>
</linearGradient>
<linearGradient id="paint5_linear_34_72" x1="33360.5" y1="-90298.8" x2="19931.5" y2="-66452.1" gradientUnits="userSpaceOnUse">
<stop stop-color="#231F20"/>
<stop offset="0.129" stop-color="white"/>
<stop offset="0.4" stop-color="white"/>
<stop offset="1" stop-color="white"/>
</linearGradient>
<linearGradient id="paint6_linear_34_72" x1="6829.84" y1="-21173.7" x2="6829.84" y2="-24809.5" gradientUnits="userSpaceOnUse">
<stop stop-color="#05A1E6"/>
<stop offset="1" stop-color="#05A1E6"/>
</linearGradient>
<linearGradient id="paint7_linear_34_72" x1="8043.86" y1="-29851.6" x2="8043.86" y2="-34212.7" gradientUnits="userSpaceOnUse">
<stop stop-color="#1959A6"/>
<stop offset="0.154" stop-color="#1959A6"/>
<stop offset="0.484" stop-color="#05A1E6"/>
<stop offset="0.5" stop-color="#05A1E6"/>
<stop offset="0.918" stop-color="#7EC5EA"/>
<stop offset="1" stop-color="#7EC5EA"/>
</linearGradient>
<linearGradient id="paint8_linear_34_72" x1="16427.8" y1="-46109.6" x2="14970.3" y2="-53261.4" gradientUnits="userSpaceOnUse">
<stop stop-color="#165096"/>
<stop offset="0.104" stop-color="#165096"/>
<stop offset="1" stop-color="#0D82CA"/>
</linearGradient>
<linearGradient id="paint9_linear_34_72" x1="8416.41" y1="-23153.3" x2="8416.41" y2="-24897.1" gradientUnits="userSpaceOnUse">
<stop stop-color="#05A1E6"/>
<stop offset="0.649" stop-color="#05A1E6"/>
<stop offset="0.874" stop-color="#0495D6"/>
<stop offset="1" stop-color="#0495D6"/>
</linearGradient>
<linearGradient id="paint10_linear_34_72" x1="38120.6" y1="-21840" x2="38120.6" y2="-20214.2" gradientUnits="userSpaceOnUse">
<stop stop-color="#231F20"/>
<stop offset="1" stop-color="white"/>
</linearGradient>
<linearGradient id="paint11_linear_34_72" x1="24855.5" y1="-51272.3" x2="23079.1" y2="-43191.4" gradientUnits="userSpaceOnUse">
<stop stop-color="#38A7E4"/>
<stop offset="0.357" stop-color="#38A7E4"/>
<stop offset="0.962" stop-color="#0E88D3"/>
<stop offset="1" stop-color="#0E88D3"/>
</linearGradient>
<linearGradient id="paint12_linear_34_72" x1="18009.1" y1="-42772.7" x2="18009.1" y2="-36247.5" gradientUnits="userSpaceOnUse">
<stop stop-color="#168CD4"/>
<stop offset="0.5" stop-color="#1C87CC"/>
<stop offset="1" stop-color="#154B8D"/>
</linearGradient>
<linearGradient id="paint13_linear_34_72" x1="10471.4" y1="-5905.25" x2="10471.4" y2="-6033.41" gradientUnits="userSpaceOnUse">
<stop stop-color="white"/>
<stop offset="0.363" stop-color="white"/>
<stop offset="1" stop-color="#918F90"/>
</linearGradient>
<linearGradient id="paint14_linear_34_72" x1="6059.37" y1="-11876" x2="6553.69" y2="-11607.2" gradientUnits="userSpaceOnUse">
<stop stop-color="#97D6EE"/>
<stop offset="0.703" stop-color="#55C1EA"/>
<stop offset="1" stop-color="#55C1EA"/>
</linearGradient>
<linearGradient id="paint15_linear_34_72" x1="5797.65" y1="-11740.6" x2="6163.93" y2="-11936.3" gradientUnits="userSpaceOnUse">
<stop stop-color="#7ACCEC"/>
<stop offset="0.335" stop-color="#7ACCEC"/>
<stop offset="0.841" stop-color="#3FB7ED"/>
<stop offset="1" stop-color="#3FB7ED"/>
</linearGradient>
<linearGradient id="paint16_linear_34_72" x1="34985.1" y1="-29522.3" x2="34985.1" y2="-33554.4" gradientUnits="userSpaceOnUse">
<stop stop-color="#231F20"/>
<stop offset="1" stop-color="white"/>
</linearGradient>
<linearGradient id="paint17_linear_34_72" x1="12923.9" y1="-34836.8" x2="12923.9" y2="-29593.5" gradientUnits="userSpaceOnUse">
<stop stop-color="#1DA7E7"/>
<stop offset="1" stop-color="#37ABE7"/>
</linearGradient>
<clipPath id="clip0_34_72">
<rect width="500" height="200" fill="white"/>
</clipPath>
<clipPath id="clip1_34_72">
<rect width="493" height="245" fill="white" transform="translate(4 -22)"/>
</clipPath>
</defs>
</svg>
