<svg width="1070" height="734" viewBox="0 0 1070 734" fill="none" xmlns="http://www.w3.org/2000/svg">
<g clip-path="url(#clip0_2494_588)">
<path d="M96.6452 681.281C96.6452 683.64 94.6703 685.56 92.3113 685.56H8.81519C10.8998 706.186 26.4251 725.003 48.2592 725.003C63.1809 725.003 74.2626 719.298 82.6012 707.393C83.8081 705.748 85.6185 704.705 87.9226 705.693C89.1843 706.241 90.0621 707.393 90.2815 708.71C90.501 710.081 90.117 710.849 89.7329 711.617C81.3394 726.264 64.6073 733.451 48.2043 733.451C20.1162 733.451 0.0925293 708.326 0.0925293 681.446C0.0925293 654.565 20.1162 629.44 48.2043 629.44C76.2924 629.385 96.5904 654.455 96.6452 681.281ZM87.7031 677.221C85.8928 656.595 70.0932 637.779 48.2592 637.779C26.4251 637.779 10.8998 656.595 8.81519 677.221H87.7031ZM197.971 631.47C200.385 631.47 202.14 633.554 202.14 635.639C202.14 638.053 200.33 639.808 197.971 639.808H175.588V727.636C175.588 729.721 173.778 731.805 171.419 731.805C169.005 731.805 167.249 729.721 167.249 727.636V639.808H145.744C143.331 639.808 141.575 637.998 141.575 635.639C141.575 633.554 143.386 631.47 145.744 631.47H167.249V599.323C167.249 597.293 168.621 595.428 170.596 595.099C173.394 594.66 175.588 596.58 175.588 599.213V631.47H197.971ZM334.516 673.93V727.142C334.516 729.556 332.431 731.311 330.347 731.311C327.933 731.311 326.177 729.501 326.177 727.142V673.93C326.177 655.991 316.028 638.053 296.005 638.053C270.33 638.053 259.249 660.49 260.73 683.475C260.73 684.079 261.004 686.767 261.004 687.041V726.978C261.004 729.007 259.633 730.873 257.658 731.202C254.86 731.641 252.666 729.721 252.666 727.087V552.31C252.666 550.225 254.476 548.141 256.835 548.141C259.249 548.141 261.004 550.225 261.004 552.31V651.219C268.191 638.382 281.028 629.714 295.95 629.714C320.472 629.714 334.516 651.219 334.516 673.93ZM484.228 681.281C484.228 683.64 482.253 685.56 479.894 685.56H396.343C398.427 706.186 413.953 725.003 435.787 725.003C450.708 725.003 461.79 719.298 470.129 707.393C471.336 705.748 473.146 704.705 475.45 705.693C476.712 706.241 477.59 707.393 477.809 708.71C478.028 710.081 477.644 710.849 477.26 711.617C468.867 726.264 452.135 733.451 435.732 733.451C407.644 733.451 387.62 708.326 387.62 681.446C387.62 654.565 407.644 629.44 435.732 629.44C463.875 629.385 484.173 654.455 484.228 681.281ZM475.231 677.221C473.42 656.595 457.621 637.779 435.787 637.779C413.953 637.779 398.427 656.595 396.343 677.221H475.231ZM586.705 635.365C586.705 638.053 585.224 639.534 582.81 639.863C558.288 643.429 547.261 663.452 547.261 686.767V726.703C547.261 728.733 545.89 730.598 543.915 730.927C541.117 731.366 538.922 729.446 538.922 726.813V635.804C538.922 633.774 540.294 631.909 542.269 631.58C545.067 631.141 547.261 633.061 547.261 635.694V654.236C554.119 642.606 567.888 631.525 582.207 631.525C584.291 631.47 586.705 633.006 586.705 635.365ZM723.854 681.281C723.854 683.64 721.879 685.56 719.52 685.56H636.024C638.108 706.186 653.634 725.003 675.468 725.003C690.39 725.003 701.471 719.298 709.81 707.393C711.017 705.748 712.827 704.705 715.131 705.693C716.393 706.241 717.271 707.393 717.49 708.71C717.71 710.081 717.326 710.849 716.942 711.617C708.548 726.264 691.816 733.451 675.413 733.451C647.325 733.451 627.301 708.326 627.301 681.446C627.301 654.565 647.325 629.44 675.413 629.44C703.501 629.385 723.799 654.455 723.854 681.281ZM714.912 677.221C713.101 656.595 697.302 637.779 675.468 637.779C653.634 637.779 638.108 656.595 636.024 677.221H714.912ZM858.644 636.407V727.636C858.644 730.05 856.559 731.805 854.474 731.805C852.06 731.805 850.305 729.995 850.305 727.636V710.301C843.448 724.07 831.159 733.89 815.634 733.89C790.837 733.89 777.068 712.385 777.068 689.674V636.188C777.068 634.103 778.878 632.018 781.237 632.018C783.651 632.018 785.406 634.103 785.406 636.188V689.674C785.406 707.613 795.555 725.551 815.579 725.551C843.667 725.551 850.25 699.274 850.25 670.255V636.188C850.25 633.774 852.664 631.305 855.626 632.183C857.437 632.787 858.644 634.542 858.644 636.407ZM1069.85 673.601V727.087C1069.85 729.501 1067.77 731.257 1065.68 731.257C1063.27 731.257 1061.51 729.446 1061.51 727.087V673.601C1061.51 655.662 1051.36 638.053 1031.34 638.053C1006.22 638.053 996.67 664.933 996.67 685.834V727.087C996.67 729.501 994.585 731.257 992.501 731.257C990.087 731.257 988.331 729.446 988.331 727.087V673.601C988.331 655.662 978.182 638.053 958.159 638.053C932.759 638.053 922.281 658.076 923.213 684.682C923.213 685.286 923.488 686.492 923.213 686.767V726.978C923.213 729.007 921.842 730.873 919.812 731.202C917.014 731.641 914.82 729.721 914.82 727.087V635.804C914.82 633.774 916.191 631.909 918.166 631.58C920.964 631.141 923.158 633.061 923.158 635.694V650.944C930.345 638.108 943.182 629.714 958.104 629.714C975.11 629.714 988.277 640.467 993.653 656.321C1000.51 640.796 1013.95 629.714 1031.29 629.714C1055.81 629.714 1069.85 650.89 1069.85 673.601Z" fill="black"/>
<g opacity="0.6">
<mask id="mask0_2494_588" style="mask-type:luminance" maskUnits="userSpaceOnUse" x="395" y="168" width="280" height="147">
<path d="M395.465 168.085H674.535V314.007H395.465V168.085Z" fill="white"/>
</mask>
<g mask="url(#mask0_2494_588)">
<path d="M535.027 168.085L395.465 231.556L535.027 314.007L674.535 231.556L535.027 168.085Z" fill="black"/>
</g>
</g>
<g opacity="0.45">
<mask id="mask1_2494_588" style="mask-type:luminance" maskUnits="userSpaceOnUse" x="395" y="0" width="141" height="315">
<path d="M395.465 0H535.027V314.007H395.465V0Z" fill="white"/>
</mask>
<g mask="url(#mask1_2494_588)">
<path d="M395.465 231.556L535.027 314.007V0L395.465 231.556Z" fill="black"/>
</g>
</g>
<g opacity="0.8">
<mask id="mask2_2494_588" style="mask-type:luminance" maskUnits="userSpaceOnUse" x="535" y="0" width="140" height="315">
<path d="M535.027 0H674.59V314.007H535.027V0Z" fill="white"/>
</mask>
<g mask="url(#mask2_2494_588)">
<path d="M535.027 0V314.007L674.535 231.556L535.027 0Z" fill="black"/>
</g>
</g>
<g opacity="0.45">
<mask id="mask3_2494_588" style="mask-type:luminance" maskUnits="userSpaceOnUse" x="395" y="257" width="141" height="198">
<path d="M395.465 257.997H535.027V454.608H395.465V257.997Z" fill="white"/>
</mask>
<g mask="url(#mask3_2494_588)">
<path d="M395.465 257.997L535.027 454.608V340.449L395.465 257.997Z" fill="black"/>
</g>
</g>
<g opacity="0.8">
<mask id="mask4_2494_588" style="mask-type:luminance" maskUnits="userSpaceOnUse" x="535" y="257" width="140" height="198">
<path d="M535.027 257.997H674.645V454.608H535.027V257.997Z" fill="white"/>
</mask>
<g mask="url(#mask4_2494_588)">
<path d="M535.027 340.449V454.608L674.645 257.997L535.027 340.449Z" fill="black"/>
</g>
</g>
</g>
<defs>
<clipPath id="clip0_2494_588">
<rect width="1070" height="734" fill="white"/>
</clipPath>
</defs>
</svg>
