<svg width="1597" height="447" viewBox="0 0 1597 447" fill="none" xmlns="http://www.w3.org/2000/svg">
<path d="M144.84 0.573513C147.987 -0.893154 151.16 1.08018 154 2.34685C159.947 5.33352 166.107 7.90685 171.987 11.0535C175.707 13.0002 177.147 18.0002 175.253 21.7069C166.947 39.5335 158.307 57.2269 149.907 75.0269C148.48 79.3335 143.68 83.0535 139.093 81.0535C131.56 77.6802 124.04 74.2135 116.733 70.3868C112.973 68.1868 112.067 62.9469 114.133 59.2802C122.56 41.4402 131.12 23.6535 139.6 5.8402C140.6 3.4802 142.36 1.41351 144.84 0.573513Z" fill="#93DEDB"/>
<path d="M325.92 87.0139C332 85.6406 337.213 90.2273 342.6 92.294C347.093 94.8673 352.893 95.934 356.053 100.334C359.107 105.401 354.92 110.561 352.987 115.174C345.36 131.054 337.853 146.987 330.2 162.867C328.56 167.214 323.347 169.321 319.147 167.241C312.307 164.201 305.64 160.761 298.947 157.401C294.893 155.601 292.787 150.481 294.827 146.454C302.747 129.521 311.027 112.734 319.013 95.8273C320.693 92.5339 322.04 88.2939 325.92 87.0139Z" fill="#93DEDB"/>
<path d="M208.933 98.1866C212.04 96.7599 215.253 98.4 218.027 99.76C223.947 102.72 230.027 105.333 235.893 108.36C239.933 110.2 241.947 115.4 239.827 119.4C225.56 149.493 211.133 179.52 196.787 209.587C195.347 213.453 191.267 216.453 187.053 215.08C181.213 213.213 176.013 209.813 170.413 207.347C166.867 205.467 162.173 204.107 160.773 199.867C159.693 197.293 160.653 194.533 161.787 192.16C175.76 162.933 189.733 133.72 203.667 104.48C204.88 102.04 206.213 99.2266 208.933 98.1866Z" fill="#93DEDB"/>
<path d="M75.2266 145.507C78.5466 144 81.92 145.96 84.88 147.36C90.84 150.387 97.0533 152.934 102.92 156.134C106.693 158.174 108.04 163.28 105.987 167C91.84 196.827 77.52 226.574 63.3333 256.387C62.0266 259.32 59.8266 262.454 56.32 262.667C51.9066 262.907 48.1866 260.16 44.36 258.427C39.6933 256 34.7866 254.027 30.28 251.294C26.6666 249.147 25.6266 244.107 27.64 240.507C41.64 211.014 55.7866 181.587 69.8 152.107C71.0666 149.56 72.3866 146.614 75.2266 145.507Z" fill="#93DEDB"/>
<path d="M391.173 184.146C394.053 183.426 396.733 185.04 399.267 186.186C405.267 189.186 411.467 191.786 417.373 194.946C421.36 196.933 422.893 202.186 420.747 206.066C406.253 236.386 391.84 266.76 377.24 297.04C375.493 301.213 370.36 302.813 366.36 300.906C359.36 297.72 352.36 294.493 345.547 290.946C341.373 288.786 340.28 283.213 342.613 279.306C356.747 249.6 370.907 219.893 385.027 190.173C386.267 187.546 388.107 184.733 391.173 184.146Z" fill="#93DEDB"/>
<path d="M255.44 232.267C259.08 229.96 263.093 232.374 266.467 233.96C272.12 236.8 277.96 239.254 283.547 242.2C287.573 244.16 289.187 249.494 287.013 253.4C273.133 282.614 259.107 311.774 245.24 341.014C243.787 343.934 242.373 347.547 238.96 348.614C234.653 350 230.6 347.254 226.827 345.574C221.773 343.014 216.493 340.907 211.547 338.134C207.787 335.974 206.587 330.8 208.72 327.08C222.84 297.24 237.107 267.467 251.24 237.627C252.253 235.587 253.413 233.454 255.44 232.267Z" fill="#93DEDB"/>
<path d="M122.147 279.36C125.28 277.666 128.68 279.307 131.547 280.72C137.76 283.853 144.24 286.506 150.36 289.866C154.24 292.04 155.36 297.346 153.133 301.106C144.6 319.053 136.04 336.987 127.453 354.907C126 358.68 121.693 361.627 117.653 359.88C111.773 357.52 106.213 354.44 100.427 351.88C97.3333 350.307 93.52 349.093 91.9466 345.72C90.56 343.067 91.2133 339.96 92.5066 337.427C100.8 319.987 109.16 302.587 117.427 285.133C118.547 282.92 119.8 280.48 122.147 279.36Z" fill="#93DEDB"/>
<path d="M303.507 366.147C306.973 364.347 310.813 366.174 314 367.72C319.613 370.56 325.44 372.987 331 375.934C335.04 377.867 336.453 383.334 334.307 387.174C325.853 404.947 317.333 422.694 308.907 440.48C307.76 443.054 305.893 445.694 302.88 446.107C297.84 447.147 293.4 444.054 289.067 442.014C284.64 439.68 279.947 437.827 275.68 435.2C272.427 433.134 271.307 428.48 273.107 425.094C281.533 407.307 290.067 389.56 298.507 371.774C299.56 369.44 301 367.08 303.507 366.147Z" fill="#93DEDB"/>
<path d="M199.36 26.9203C202.653 24.947 206.56 26.4936 209.707 28.0003C238.827 42.0536 268.013 55.9869 297.133 70.0536C301.267 71.7469 303.907 76.9203 301.6 81.067C298.36 88.0936 295.147 95.147 291.667 102.067C289.92 105.894 284.987 107.52 281.32 105.454C251.2 91.147 221.093 76.7736 191 62.4136C187.093 60.8136 184.28 56.3203 185.867 52.1336C188.187 46.2936 191.24 40.7736 193.813 35.0403C195.28 32.1203 196.453 28.7203 199.36 26.9203Z" fill="#FF5343"/>
<path d="M100.76 90.8534C103.347 89.2934 106.453 90.0534 108.947 91.3601C126.973 99.9734 145.013 108.56 163.027 117.187C167.08 118.773 169.987 123.467 168.227 127.76C165.8 133.693 162.707 139.333 160.08 145.2C158.56 148.28 157.16 152.107 153.56 153.28C150.84 154.413 148.067 153.027 145.613 151.893C127.907 143.4 110.147 134.973 92.44 126.48C88.4666 124.893 85.5466 120.4 87.16 116.147C89.3333 110.56 92.2933 105.32 94.7333 99.8534C96.3733 96.6667 97.5333 92.8267 100.76 90.8534Z" fill="#FF5343"/>
<path d="M380.96 112.747C384.053 111.613 387.333 112.907 390.133 114.253C407.533 122.613 425.013 130.867 442.427 139.213C446.227 140.76 449.093 145.027 447.747 149.173C445.96 154.16 443.24 158.76 441.093 163.613C439.32 167.053 438.147 170.933 435.44 173.8C432.56 176.627 428.093 175.787 424.827 174.16C407.08 165.68 389.293 157.253 371.56 148.747C367.427 147.12 364.68 142.227 366.587 137.96C369.013 132.16 372.027 126.627 374.6 120.88C376.12 117.827 377.453 114.027 380.96 112.747Z" fill="#FF5343"/>
<path d="M246.147 160.627C249.307 158.68 253.16 160.013 256.213 161.493C285.64 175.667 315.173 189.613 344.587 203.8C348.613 205.493 351.067 210.427 349.12 214.547C346.04 221.467 342.653 228.28 339.347 235.107C337.933 238.253 334.547 240.68 331 239.92C328.36 239.213 325.973 237.867 323.52 236.733C294.947 223.147 266.32 209.64 237.76 196.04C233.787 194.467 231.12 189.813 232.747 185.653C235.08 179.853 238.147 174.36 240.68 168.64C242.133 165.773 243.227 162.36 246.147 160.627Z" fill="#FF5343"/>
<path d="M114.133 207.294C116.867 206.44 119.733 207.48 122.227 208.614C149.88 221.88 177.547 235.134 205.213 248.36C208.12 249.84 211.347 250.907 213.773 253.16C216.293 255.64 216.667 259.667 215.067 262.747C211.747 269.654 208.613 276.667 205.04 283.454C203.04 287.374 197.827 288.414 194.2 286.134C166.213 272.854 138.24 259.534 110.253 246.254C107.56 244.934 104.747 243.84 102.24 242.174C99.04 240.107 97.88 235.6 99.5333 232.2C102.027 226.454 104.96 220.907 107.547 215.2C109.04 212.134 110.533 208.374 114.133 207.294Z" fill="#FF5343"/>
<path d="M1408.41 207.107C1437.71 204.454 1469.32 214.867 1488.03 238.347C1480.31 244.227 1472.6 250.134 1464.88 256.014C1456.61 245.654 1444.92 238.001 1432.01 234.921C1411.61 229.641 1388.99 234.001 1371.88 246.254C1354.27 258.547 1343.8 279.054 1340.44 299.921C1336.6 324.667 1342.03 351.721 1358.8 370.881C1369.85 384.161 1386.29 392.054 1403.23 394.481C1417.32 396.281 1432.4 395.534 1445.15 388.627C1454.81 384.121 1462.59 376.414 1468.93 368.001C1476.76 373.867 1484.57 379.774 1492.37 385.694C1475.03 407.947 1447.07 420.827 1419.04 421.361C1402.28 421.774 1385.17 419.067 1370.07 411.614C1337.88 396.734 1315.19 364.187 1310.72 329.187C1308.05 307.494 1311.31 285.014 1320.48 265.147C1329.28 246.014 1344.27 229.627 1362.95 219.814C1376.79 211.987 1392.59 207.947 1408.41 207.107Z" fill="#FF5343"/>
<path d="M560.733 211.72C603.587 211.587 646.453 211.694 689.307 211.68C689.28 220.347 689.373 229.013 689.253 237.694C655.68 237.64 622.093 237.68 588.507 237.667C588.493 259.107 588.507 280.547 588.493 301.987C619.787 302.014 651.08 301.987 682.373 302C682.373 310.667 682.373 319.334 682.373 328C651.08 328.014 619.787 327.987 588.493 328.014C588.507 357.454 588.507 386.894 588.493 416.334C579.267 416.36 570.053 416.294 560.827 416.374C560.667 348.147 560.853 279.934 560.733 211.72Z" fill="#FF5343"/>
<path d="M683.267 416.334C713.293 348.094 743.333 279.88 773.4 211.667C781.773 211.68 790.147 211.64 798.533 211.68C827.64 279.92 856.88 348.107 886.013 416.334C875.227 416.334 864.453 416.334 853.68 416.334C846.827 399.44 840 382.56 833.16 365.667C800.707 365.68 768.253 365.64 735.8 365.68C729.08 382.587 722.32 399.454 715.573 416.334C704.8 416.32 694.04 416.347 683.267 416.334ZM745.613 341.334C771.44 341.334 797.253 341.334 823.08 341.334C810.187 310 797.653 278.507 784.627 247.227C771.44 278.52 758.693 310 745.613 341.334Z" fill="#FF5343"/>
<path d="M901.067 211.667C922.133 211.653 943.2 211.68 964.267 211.653C976.68 211.72 989.507 211.627 1001.24 216.28C1009.56 219.133 1017.24 224 1023.13 230.573C1031.84 240.813 1034.93 254.84 1033.93 268.013C1032.93 281.533 1024.89 294.107 1013.43 301.173C1008.8 304.147 1003.68 306.24 998.587 308.213C1009.87 309.293 1020.73 314.027 1028.53 322.373C1040.45 334.467 1045.05 352.693 1042.25 369.227C1039.61 386.173 1027.21 400.48 1011.95 407.68C995.96 415.467 977.853 416.747 960.347 416.333C940.587 416.333 920.827 416.347 901.067 416.333C901.053 348.107 901.053 279.893 901.067 211.667ZM928.773 236.013C928.813 256.24 928.733 276.453 928.8 296.68C942.427 296.627 956.067 296.707 969.707 296.64C981.013 296.107 993.6 292.653 1000.25 282.733C1006.61 272.533 1005.92 258.747 999.787 248.6C994.147 240.04 983.653 236.013 973.693 235.987C958.72 236.013 943.747 235.973 928.773 236.013ZM928.773 391.987C942.867 392 956.96 392.013 971.067 391.987C982.12 391.653 993.68 389.253 1002.53 382.24C1009.11 377.44 1012.67 369.467 1013.44 361.52C1014.4 350.76 1011.57 339.067 1003.37 331.56C995.093 323.787 983.24 321.627 972.293 321C957.787 321 943.28 321 928.787 321C928.773 344.667 928.8 368.32 928.773 391.987Z" fill="#FF5343"/>
<path d="M1077.28 211.667C1099.65 211.654 1122.03 211.68 1144.41 211.654C1161.73 211.36 1180.37 213.454 1194.55 224.334C1206.55 233.227 1213.23 247.8 1214.32 262.494C1216.36 278.267 1210.75 294.76 1199.56 306.04C1190.59 315.947 1177.56 321.16 1164.55 323C1183.81 354.147 1203.25 385.187 1222.53 416.334C1210.97 416.334 1199.44 416.32 1187.89 416.347C1170.57 386.227 1153.25 356.12 1135.92 326.014C1125.61 325.987 1115.31 326 1105.01 326C1105 356.12 1105.04 386.227 1105 416.334C1095.75 416.334 1086.51 416.334 1077.28 416.334C1077.27 348.107 1077.27 279.894 1077.28 211.667ZM1105.01 236C1105.01 258 1105 280 1105.01 302C1119.88 301.814 1134.76 302.4 1149.61 301.667C1161.4 300.72 1175.05 297.334 1181.29 286.24C1186.92 275.28 1186.55 261.307 1180.52 250.6C1173.43 239.374 1159.28 236.72 1147 236.134C1133.01 235.827 1119 236.08 1105.01 236Z" fill="#FF5343"/>
<path d="M1253.79 211.667C1263.01 211.667 1272.25 211.654 1281.51 211.667C1281.51 279.894 1281.51 348.107 1281.51 416.334C1272.25 416.334 1263.01 416.334 1253.79 416.334C1253.77 348.107 1253.77 279.894 1253.79 211.667Z" fill="#FF5343"/>
<path d="M14.1066 272.254C16.6933 270.427 20.0133 270.934 22.6266 272.4C40.8933 281.147 59.2133 289.8 77.4533 298.614C81.4266 300.267 83.48 305.294 81.64 309.227C78.72 316.014 75.32 322.6 72.1733 329.294C70.56 333.307 65.4933 335.947 61.44 333.854C43.2666 325.36 25.2266 316.574 7.0933 308.014C4.5733 306.747 1.51996 305.32 1.01329 302.214C-0.466705 295.867 4.26663 290.467 6.43997 284.88C8.8933 280.667 9.83997 275.094 14.1066 272.254Z" fill="#FF5343"/>
<path d="M294.2 293.894C297.053 292.627 300.24 293.627 302.907 294.867C320.333 303.187 337.787 311.481 355.24 319.761C357.76 320.934 360.413 322.561 361.307 325.374C362.867 329.387 360.16 333.174 358.613 336.707C355.693 342.334 353.52 348.361 350.12 353.721C347.693 357.294 342.72 357.241 339.213 355.454C321.147 346.894 303.093 338.307 285.053 329.694C280.92 328.081 278.293 323.081 280.24 318.881C282.733 312.961 285.773 307.294 288.413 301.454C289.84 298.641 291.093 295.241 294.2 293.894Z" fill="#FF5343"/>
<path d="M159.573 341.947C162.4 340.027 166 340.681 168.88 342.081C198.653 356.321 228.453 370.507 258.227 384.787C262.347 386.414 264.587 391.534 262.693 395.627C259.52 402.641 256.16 409.601 252.733 416.507C250.6 420.921 244.733 422.027 240.653 419.721C210.853 405.507 181.067 391.267 151.28 377.014C147.013 375.427 144.64 370.161 146.573 365.974C149.067 360.214 152.013 354.667 154.613 348.947C155.933 346.427 156.92 343.374 159.573 341.947Z" fill="#FF5343"/>
<path d="M1341.11 46.1726C1354.73 37.7993 1371.61 36.7326 1387.09 39.106C1396.07 40.6526 1405.08 43.946 1411.77 50.346C1406.63 55.9326 1401.6 61.626 1396.47 67.2126C1383.07 53.5993 1356.89 55.0793 1346.36 71.466C1341.03 79.9726 1340.05 90.7726 1342.53 100.386C1345.16 110.199 1353.08 118.479 1362.96 121.066C1373.03 123.919 1384 122.053 1393.16 117.213C1393 111.813 1393.05 106.399 1392.97 100.986C1387.01 101.119 1381.05 101.226 1375.11 101.333C1375.07 94.546 1375.03 87.7726 1375.01 81.0126C1388.01 80.8926 1401.03 80.7726 1414.04 80.6793C1414.09 98.146 1414.31 115.626 1414.24 133.106C1399.28 140.626 1382.2 143.573 1365.56 142.199C1350.32 140.919 1335.04 133.386 1326.72 120.226C1319 108.413 1317.07 93.586 1319.25 79.826C1321.27 66.1726 1329.63 53.7193 1341.11 46.1726Z" fill="#212527"/>
<path d="M1429.57 38.3334C1452.17 38.24 1474.77 38.0534 1497.37 38.04C1497.35 44.6934 1497.41 51.3467 1497.41 58C1482.16 58.12 1466.91 58.2134 1451.65 58.3467C1451.67 64.56 1451.69 70.7734 1451.73 77C1466.16 76.8934 1480.59 76.76 1495 76.6667C1495.05 83.4534 1495.08 90.2267 1495.12 97C1480.69 97.12 1466.27 97.2134 1451.85 97.3467C1451.87 104.12 1451.91 110.88 1451.96 117.653C1468.08 117.573 1484.2 117.427 1500.32 117.32C1500.29 124.107 1500.37 130.88 1500.37 137.667C1476.95 137.787 1453.52 137.88 1430.09 138.013C1429.89 104.787 1429.72 71.56 1429.57 38.3334Z" fill="#212527"/>
<path d="M1515.65 37.9998C1529.19 38.0398 1542.72 37.8931 1556.25 38.0798C1566.36 38.2664 1577.28 40.2531 1584.81 47.5464C1592.91 56.3731 1593.85 70.1464 1589.47 80.9331C1586.43 88.7464 1578.84 93.7864 1570.81 95.2931C1578.96 109.48 1587.77 123.293 1596.19 137.32C1587.41 137.453 1578.65 137.546 1569.88 137.666C1562.83 124.373 1555.8 111.066 1548.85 97.7198C1545.2 97.7731 1541.57 97.8664 1537.95 97.9998C1537.96 111.213 1538.09 124.44 1538.13 137.653C1530.8 137.786 1523.48 137.893 1516.16 137.986C1515.97 104.666 1515.8 71.3331 1515.65 37.9998ZM1537.72 56.6798C1537.75 64.2264 1537.79 71.7731 1537.81 79.3198C1546.23 78.9464 1555.04 80.4798 1563.13 77.6131C1571.31 74.7598 1571.25 61.3731 1563.17 58.4664C1555.08 55.3064 1546.17 57.1464 1537.72 56.6798Z" fill="#212527"/>
<path d="M624.44 40.333C631.773 40.213 639.093 40.1063 646.413 39.9863C646.6 73.3197 646.76 106.653 646.947 139.986C639.613 140 632.293 140.013 624.973 139.986C624.893 125.666 624.827 111.333 624.733 97.013C610.493 96.9996 596.267 96.9863 582.027 97.013C582.093 111.453 582.173 125.893 582.227 140.333C574.907 140.333 567.6 140.333 560.28 140.333C560.08 107.106 559.92 73.893 559.76 40.6663C567.067 40.653 574.373 40.653 581.693 40.6663C581.813 52.9997 581.84 65.333 581.933 77.653C596.16 77.5597 610.4 77.4396 624.64 77.3063C624.587 64.9863 624.48 52.653 624.44 40.333Z" fill="#212527"/>
<path d="M733.053 40.3466C741.733 40.2933 750.413 40.36 759.093 40.3066C746.933 59.5733 734.067 78.4133 722.12 97.7866C721.8 111.827 722.227 125.92 722.173 139.987C714.853 140.12 707.533 140.227 700.227 140.32C700.107 126.867 700.067 113.4 700.027 99.9333C700.307 97.12 698.107 95.04 696.787 92.8133C685.227 75.4666 673.707 58.08 662.227 40.6666C671.32 40.6666 680.413 40.6666 689.507 40.6666C696.64 52.9866 703.707 65.3333 710.853 77.6533C718.28 65.2267 725.667 52.7866 733.053 40.3466Z" fill="#212527"/>
<path d="M774.56 40.3326C787.947 40.3993 801.333 40.186 814.733 40.4393C823.92 40.9726 834.107 41.8393 841.107 48.5726C849.16 55.666 850.733 67.3593 849.16 77.4526C848 85.8926 842.747 93.866 834.773 97.226C822.813 102.359 809.48 100.586 796.84 101.359C796.907 114.239 796.973 127.119 797.027 139.999C789.693 140.119 782.373 140.226 775.067 140.333C774.893 106.999 774.693 73.666 774.56 40.3326ZM796.627 58.9993C796.653 66.8793 796.707 74.7593 796.733 82.6527C804.72 82.266 813.24 83.9326 820.773 80.5726C828.36 77.4526 829.027 65.1726 821.667 61.3726C813.827 57.826 804.96 59.3193 796.627 58.9993Z" fill="#212527"/>
<path d="M864.947 40.6663C887.533 40.5463 910.12 40.4397 932.707 40.333C932.733 47.1063 932.773 53.8797 932.813 60.6397C917.547 60.7063 902.28 60.6397 887.013 60.6797C887.027 66.893 887.067 73.1063 887.08 79.3197C901.52 79.2397 915.947 79.0663 930.387 79.013C930.4 85.7863 930.467 92.5597 930.467 99.333C916.053 99.4663 901.627 99.533 887.213 99.6797C887.24 106.453 887.28 113.226 887.293 120C903.413 119.893 919.533 119.773 935.653 119.666C935.72 126.413 935.68 133.16 935.813 139.906C912.36 140.226 888.893 140.173 865.44 140.333C865.267 107.106 865.08 73.893 864.947 40.6663Z" fill="#212527"/>
<path d="M951.027 40.3332C963.907 40.3599 976.8 40.2799 989.693 40.3599C998.84 40.4932 1008.51 41.5199 1016.29 46.7732C1023.51 51.2132 1026.99 59.8799 1027.33 68.0665C1027.83 76.6265 1025.35 85.9065 1018.76 91.7465C1015.23 95.0132 1010.55 96.5066 1006.01 97.7332C1014.52 111.693 1023.07 125.653 1031.51 139.653C1022.64 139.68 1013.77 140.147 1004.93 139.8C998.24 126.507 991.067 113.467 984.12 100.32C980.507 100.333 976.907 100.333 973.307 100.333C973.347 113.547 973.44 126.76 973.507 139.973C966.2 140.147 958.893 140.173 951.6 140.373C951.24 107.027 951.213 73.6799 951.027 40.3332ZM973.107 58.9866C973.107 66.5466 973.16 74.1066 973.2 81.6532C981.68 81.2132 990.627 82.9332 998.747 79.8265C1006.47 76.9199 1006.56 64.4399 999.187 61.0932C990.987 57.4666 981.773 59.5599 973.107 58.9866Z" fill="#212527"/>
<path d="M1046.32 40.3066C1053.63 40.3466 1060.93 40.32 1068.24 40.3333C1068.41 66.7733 1068.51 93.2133 1068.68 119.667C1082.25 119.68 1095.83 119.653 1109.41 119.68C1109.44 126.333 1109.49 133 1109.51 139.667C1088.6 139.773 1067.69 139.907 1046.8 140C1046.64 106.773 1046.41 73.5466 1046.32 40.3066Z" fill="#212527"/>
<path d="M1124.79 40.6663C1147.37 40.4397 1169.96 40.213 1192.55 39.9863C1192.59 46.773 1192.63 53.5463 1192.65 60.333C1177.45 60.3863 1162.25 60.693 1147.07 60.5597C1146.67 66.7997 1147 73.0663 1146.99 79.3197C1161.4 79.253 1175.81 79.0397 1190.24 79.0397C1190.24 85.7997 1190.28 92.5597 1190.33 99.3197C1175.91 99.4797 1161.48 99.5463 1147.05 99.6796C1147.08 106.453 1147.12 113.226 1147.15 120C1163.27 119.893 1179.39 119.76 1195.51 119.666C1195.55 126.44 1195.59 133.213 1195.61 139.986C1172.17 140.12 1148.73 140.226 1125.29 140.333C1125.12 107.106 1124.92 73.8797 1124.79 40.6663Z" fill="#212527"/>
<path d="M1210.87 40.3329C1231.23 40.8129 1252.12 38.4396 1271.92 44.4396C1286.36 48.9863 1298.19 61.1729 1301.57 76.0263C1303.77 86.1863 1303.85 97.0663 1300.48 106.986C1295.35 121.813 1282.03 133.08 1267.04 137.093C1248.89 141.92 1229.92 139.466 1211.39 140.333C1211.2 107 1211.01 73.6663 1210.87 40.3329ZM1232.96 60.6796C1233.04 80.3329 1233.16 99.9996 1233.27 119.653C1245.76 119.6 1259.79 120.693 1270.39 112.773C1284.05 101.44 1284.12 76.0262 1268.44 66.3862C1257.92 59.6129 1244.89 60.6796 1232.96 60.6796Z" fill="#212527"/>
</svg>
