<svg width="500" height="200" viewBox="0 0 500 200" fill="none" xmlns="http://www.w3.org/2000/svg">
<g clip-path="url(#clip0_32_52)">
<path d="M65.8302 177.129C57.4381 170.528 48.4861 164.199 42.3688 155.288C29.497 139.573 19.5864 121.379 12.811 102.258C8.71582 89.8255 7.31328 76.496 2.03399 64.5435C-3.48867 55.8624 2.98038 46.3725 12.4895 43.613C16.7231 42.8005 24.1672 38.8072 15.1814 41.6614C7.12542 47.5719 6.34577 36.2962 14.6066 35.5822C20.2442 34.8329 22.3195 30.2177 20.3916 26.0631C14.3399 22.1167 35.0661 17.7796 24.6375 11.891C13.7738 0.170275 39.8335 -2.086 33.4042 11.2252C31.8652 21.4609 51.6136 9.34916 47.0315 21.1692C51.6887 26.8456 64.4715 22.4612 64.1544 30.4246C70.9387 30.891 73.2671 36.5993 79.6358 37.0376C86.2363 40.0183 98.202 42.3672 100.448 49.8052C93.8996 54.9896 78.7357 39.0963 78.0072 53.4473C79.9854 74.647 79.4814 96.4856 87.2378 116.674C90.9065 128.898 99.8004 138.521 107.833 148.042C115.518 157.366 125.927 163.93 136.538 169.458C145.845 173.847 155.879 176.758 166.023 178.585C170.137 175.438 177.401 163.739 183.819 168.672C184.123 174.215 171.08 180.26 183.205 179.647C190.325 177.499 195.263 185.153 201.126 178.249C206.528 184.648 223.577 174.161 219.734 187.24C214.537 190.593 206.957 188.566 201.752 193.179C193.169 188.892 186.336 197.015 176.835 195.987C166.283 197.877 155.548 198.64 144.85 198.657C127.299 197.27 109.377 196.686 92.6809 190.575C83.2753 187.842 74.0966 182.487 65.8302 177.129ZM80.6525 183.551C89.8367 187.523 98.8172 191.709 108.882 192.971C124.851 195.192 141.342 198.608 157.368 195.492C150.115 192.217 142.616 196.768 135.39 193.15C126.724 195.015 117.424 192.675 108.613 191.523C98.5942 187.06 87.782 183.992 78.3997 178.199C66.6761 173.917 84.463 183.69 87.629 184.482C94.9578 188.642 79.5697 182.35 77.4004 180.62C71.2621 177.177 70.4798 177.896 76.7925 181.393C78.064 182.138 79.3205 182.917 80.6525 183.551ZM63.1766 171.201C72.0764 174.497 63.1373 164.942 59.0591 165.497C57.2522 162.363 52.1559 160.382 55.7509 158.698C49.2841 160.943 48.9767 150.161 45.937 151.702C39.0957 149.541 43.2743 141.889 35.1252 137.19C34.3813 132.238 27.0286 127.943 24.6835 120.474C23.6477 116.649 16.3765 105.668 20.8432 115.888C24.6464 125.727 31.3377 134.152 36.9062 142.568C41.2302 150.581 46.3358 158.956 54.2105 163.954C56.865 166.501 59.428 170.402 63.1766 171.201ZM37.5382 143.052C39.1659 145.961 37.8488 141.708 37.5382 143.052ZM73.8349 175.152C75.8056 174.27 71.001 174.04 73.8349 175.152ZM78.6661 176.915C78.1657 174.481 76.4606 178.275 78.6661 176.915ZM84.7133 179.437C87.5923 176.696 80.2764 177.709 84.7133 179.437ZM95.0779 185.214C96.8274 182.628 89.4787 184.238 95.0779 185.214ZM75.1751 171.34C79.6468 168.447 69.3994 171.3 75.1751 171.34ZM79.7116 173.602C79.5848 172.072 78.0948 174.287 79.7116 173.602ZM102.385 187.753C106.03 190.054 123.669 192.795 112.624 188.697C110.776 189.086 92.1425 183.426 102.385 187.753ZM66.3903 159.72C66.0359 158.186 60.7328 158.026 66.3903 159.72ZM76.9455 165.871C79.6925 163.955 71.2439 164.394 76.9455 165.871ZM85.824 171.315C89.766 169.829 79.4292 169.822 85.824 171.315ZM62.0952 155.042C66.3723 158.322 79.3441 155.462 68.6453 153.084C63.7758 150.488 52.801 148.712 60.2816 154.649L62.0952 155.042ZM91.8374 173.195C93.6189 170.159 84.3664 171.461 91.8374 173.195ZM82.7996 166.012C93.258 168.97 74.0052 159.398 80.2193 164.923L81.5966 165.547L82.7996 166.012ZM100.92 176.485C91.9734 175.119 110.824 176.579 100.92 176.485ZM58.2843 149.311C57.8974 147.467 55.8401 149.466 58.2843 149.311ZM117.674 185.883C117.938 182.551 114.442 188.363 117.674 185.883ZM75.1869 159.662C74.5878 157.908 72.0921 159.591 75.1869 159.662ZM59.2236 148.154C64.9099 147.812 51.4388 145.648 59.2236 148.154ZM40.313 135.93C39.6052 133.204 34.1255 131.03 40.313 135.93ZM89.9579 167.436C89.468 167.696 88.9164 166.249 89.9579 167.436ZM120.859 186.399C120.759 184.584 119.176 187.086 120.859 186.399ZM87.2232 164.612C87.7794 162.274 82.3745 163.904 87.2232 164.612ZM64.2026 150.023C68.4329 149.57 57.426 147.163 64.2026 150.023ZM103.144 174.22C109.736 171.609 96.7189 172.945 103.144 174.22ZM82.8884 160.47C90.4859 161.45 73.8484 155.303 81.2214 159.92L82.8884 160.47ZM109.293 176.706C116.387 172.466 114.048 186.636 121.327 177.903C128.508 172.66 115.127 184.385 123.976 178.838C130.376 174.558 139.829 180.867 145.801 182.926C150.095 182.715 154.27 186.639 158.673 184.252C167.148 181.969 142.1 180.866 148.666 176.816C140.911 179.073 135.182 174.125 131.366 169.158C122.668 167.15 112.61 162.702 108.269 155.005C106.499 152.114 110.826 155.412 106.741 150.687C101.499 146.025 98.8822 140.733 95.3635 135.066C91.1601 132.824 90.6703 126.223 90.2454 134.845C90.2787 129.404 85.1703 125.741 83.9234 127.264C83.9011 122.023 89.3904 124.65 85.5477 120.773C84.7206 115.342 81.9973 109.682 81.1788 103.55C79.907 100.594 80.9997 94.2631 76.8381 100.955C75.3219 108.027 76.3348 92.2641 78.6926 97.4619C81.7873 92.158 77.5816 92.7818 77.4093 93.5183C79.4252 89.0431 78.6852 82.6953 76.8833 85.117C77.9575 80.3738 78.5803 67.6609 75.2756 69.9138C77.2788 64.9539 79.0747 47.2182 70.3783 53.9802C66.8538 54.0297 60.7505 55.2596 57.8654 56.6944C66.9113 61.6807 56.9556 58.4951 53.2733 57.7026C52.7935 62.3165 49.1463 60.321 44.5898 60.3662C51.8676 61.2666 41.0459 67.8096 36.8708 65.268C31.4486 67.8595 41.5503 74.3283 36.9796 76.3283C37.5414 79.3437 28.6728 75.2394 29.3693 82.2029C24.1054 79.9885 28.6445 90.4633 31.278 86.9207C40.2309 89.3437 37.5807 94.868 37.8087 100.116C36.3499 103.173 30.6067 92.9282 36.5295 93.4027C31.8569 85.8121 31.3607 90.659 27.4779 94.1853C26.5746 94.4414 37.3821 99.2026 30.5998 101.557C36.5669 102.478 36.7366 107.699 37.9514 111.004C41.5379 114.739 40.8038 106.879 45.0952 111.368C42.3796 107.369 30.7111 100.099 40.1058 102.431C40.0556 98.4055 38.4067 95.1596 41.285 95.2384C44.1353 90.0764 38.2998 107.966 44.7246 101.405C46.5031 100.629 46.9436 96.2367 50.1404 101.82C54.7835 106.388 51.8175 109.697 45.2678 105.515C46.4396 109.49 54.0296 110.911 52.6033 117.127C54.1153 122.595 56.2309 120.581 58.0749 120.265C59.5214 125.577 60.3428 121.671 60.4115 119.143C67.0348 120.561 65.4834 124.476 67.5558 127.211C72.1198 129.271 61.0231 113.247 68.8587 122.393C77.1026 129.836 71.9504 132.943 64.5523 131.751C69.2347 131.372 70.7447 138.081 76.6016 137.845C81.9425 140.386 85.5585 150.145 76.3525 146.082C73.1595 143.203 61.8601 139.652 71.0891 145.128C79.6129 149.075 86.3829 151.436 94.6038 156.391C100.487 160.591 103.029 165.402 105.259 166.354C100.314 168.716 90.3574 164.468 97.7509 163.166C93.1394 162.326 87.9525 159.994 92.3696 165.74C96.1256 168.876 105.677 168.544 107.389 168.899C105.937 172.097 103.447 172.351 107.448 172.599C102.984 174.978 108.88 175.347 109.293 176.706ZM100.165 150.927C97.4486 148.086 96.7463 142.766 99.6823 147.396C101.188 148 104.505 156.09 100.165 150.927ZM129.894 169.811C131.588 169.702 129.943 171.098 129.894 169.811ZM95.8761 143.962C96.8585 147.275 95.7719 139.668 95.8761 143.962ZM92.9214 139.987C97.2282 141.856 89.5052 133.386 92.9214 139.987ZM57.1154 115.274C59.1224 114.738 58.1028 118.706 57.1154 115.274ZM85.6124 130.72C87.0609 134.604 86.845 126.091 85.6124 130.72ZM65.4801 116.721C68.4487 119.117 64.0609 114.167 65.4801 116.721ZM82.7579 122.26C79.5214 115.009 85.0493 118.299 83.474 123.448L82.7579 122.26ZM52.9622 102.389C51.5152 100.01 49.1217 93.0301 49.8922 90.8992C50.5894 94.3695 57.2722 105.834 53.1703 95.6482C48.6375 87.1099 58.5887 98.4196 59.6124 100.549C60.089 102.668 56.8157 99.9705 59.0336 104.938C54.9889 99.2823 56.6459 108.062 52.9622 102.389ZM43.7537 96.0439C45.8618 99.8368 44.1328 90.5125 43.7537 96.0439ZM47.8958 97.4697C51.2473 103.29 49.8724 93.2947 47.8958 97.4697ZM37.9319 89.7619C34.5035 86.3551 32.0226 83.2147 38.0923 87.6475C40.4311 87.7388 32.8961 80.506 38.6555 85.3507C44.7118 86.455 41.6462 95.2807 37.9319 89.7619ZM43.1658 89.6251C45.1568 87.6521 44.2228 91.5672 43.1658 89.6251ZM46.3863 90.6575C50.0496 93.0294 43.3679 84.9999 46.3863 90.6575ZM39.9842 84.5393C30.0176 75.6698 52.5077 89.1771 41.6124 86.1836L39.9842 84.5393ZM68.5397 101.131C64.2268 98.5447 67.3968 82.9256 68.8676 93.6079C73.0604 92.2516 68.6361 99.1248 71.7633 99.0612C71.2705 103.398 69.8714 104.957 68.5397 101.131ZM79.1018 107.373C79.992 110.591 79.5248 102.666 79.1018 107.373ZM77.2672 105.56C77.742 103.549 77.3162 107.928 77.2672 105.56ZM41.9393 81.6247C35.5364 72.7908 60.5475 90.5606 46.0402 83.8654C44.5242 83.4689 42.7002 83.3273 41.9393 81.6247ZM62.2782 92.4084C63.6315 93.6413 61.6723 84.97 62.2782 92.4084ZM77.7202 102.314C78.9152 98.0772 77.8092 105.117 77.7202 102.314ZM42.9201 78.2532C46.7255 77.4393 58.6904 84.9365 47.7028 80.3948C46.482 79.0433 43.8794 79.6573 42.9201 78.2532ZM75.5986 94.5403C76.0053 86.9344 77.8704 89.9972 75.6126 95.6291L75.5986 94.5403ZM45.7528 75.6066C47.3033 73.3322 41.6368 65.3236 46.5696 72.7339C48.701 74.4275 52.7409 75.5711 49.1741 76.2836C54.7837 81.2322 47.8059 77.6245 45.7528 75.6066ZM73.9823 92.1646C75.0535 83.5003 74.9269 97.2407 73.9823 92.1646ZM42.5145 67.6041C43.6989 67.0979 43.14 69.1821 42.5145 67.6041ZM49.878 71.9868C53.3738 76.4216 51.773 68.0104 49.878 71.9868ZM70.6484 83.5411C71.0403 85.7626 70.6284 82.014 70.6484 83.5411ZM69.4452 80.8775C72.1268 84.643 66.5624 73.7652 69.4452 80.8775ZM67.6752 76.2144C69.3199 79.9066 67.1913 73.2755 67.6752 76.2144ZM70.5559 71.5316C68.5777 68.0454 73.0541 56.1688 73.5536 63.5346C71.4656 69.2738 72.9512 72.4845 74.4078 64.7865C77.0977 58.7281 73.8268 76.7416 70.5559 71.5316ZM73.5163 53.8691C74.3787 52.8101 73.7077 55.1449 73.5163 53.8691ZM68.5725 151.287C68.7197 151.938 67.3998 150.263 68.5725 151.287ZM78.7571 156.439C84.4223 157.892 84.3934 155.557 79.2732 154.864C76.5192 152.302 67.8292 149.584 75.6072 154.546C76.1223 155.851 77.75 155.82 78.7571 156.439ZM58.6428 143.079C61.7638 145.406 70.3987 149.675 63.089 143.965C65.5535 141.101 58.3718 139.577 60.7541 137.662C54.6946 133.954 55.974 134.284 60.2193 134.401C52.9368 131.145 61.2705 131.389 60.8781 129.721C58.07 129.166 46.9304 124.77 53.4838 130.082C46.8219 126.686 51.8962 131.348 49.8827 130.855C43.0704 128.997 55.9494 136.043 48.8007 134.294C52.7089 137.391 59.3202 142.227 50.453 137.572C49.2847 139.253 56.7985 141.802 58.6428 143.079ZM69.2947 149.198C82.2463 153.372 62.9449 144.099 69.2947 149.198ZM123.822 182.231C123.989 179.662 122.052 184.423 123.822 182.231ZM129.427 184.59C132.415 181.695 129.549 189.202 134.378 183.881C134.43 180.072 134.23 177.822 128.829 182.449C127.34 183.275 126.675 186.786 129.427 184.59ZM40.4628 128.719C39.5451 125.112 34.0301 125.13 40.4628 128.719ZM46.4473 132.641C44.225 128.956 38.5181 129.305 46.4473 132.641ZM80.4932 153.173C83.8172 156.125 95.7599 155.339 84.5305 153.536C82.8673 151.077 73.9697 151.669 80.4932 153.173ZM127.295 182.077C132.411 177.784 122.338 183.992 127.295 182.077ZM137.935 189.389C137.967 188.011 135.73 189.992 137.935 189.389ZM137.951 187.46C132.462 187.815 143.617 181.458 137.951 187.46ZM25.7436 116.396C20.9151 109.507 22.7421 106.41 18.0857 100.785C17.2042 96.4833 10.0976 86.7219 14.41 97.0633C18.3599 103.112 19.5337 112.476 25.7436 116.396ZM136.174 185.552C146.597 178.815 131.896 182.617 136.174 185.552ZM144.131 188.669C149.35 184.187 140.829 187.732 144.131 188.669ZM38.6889 121.104C40.1827 118.882 34.8311 120.82 38.6889 121.104ZM142.47 186.541C147.523 183.282 141.305 183.783 141.554 186.84L142.47 186.541ZM73.8854 143.312C73.7117 141.112 71.2167 143.499 73.8854 143.312ZM78.1239 145.751C76.7769 143.027 76.0528 146.179 78.1239 145.751ZM150.579 188.743C157.053 184.072 146.654 187.849 149.22 189.628L150.579 188.743ZM148.099 187.544C153.373 183.125 142.531 189.503 148.099 187.544ZM160.766 195.98C164.307 193.608 156.464 195.213 160.766 195.98ZM41.9366 119.501C46.6833 120.565 60.9056 131.191 52.5151 120.236C48.2177 118.964 50.795 108.46 46.4117 110.319C49.3537 115.234 48.8323 117.326 42.6552 114.227C34.8917 110.438 38.2924 116.105 39.8096 117.667C37.742 118.137 42.5445 119.462 41.9366 119.501ZM20.3107 102.422C21.1605 98.9077 12.486 83.0865 16.2145 94.4949C17.5603 96.8847 17.4235 101.414 20.3107 102.422ZM60.0035 126.894C59.8874 126.605 57.5593 124.85 60.0035 126.894ZM66.0225 128.295C66.0194 124.572 59.3694 126.783 66.0225 128.295ZM118.182 161.177C114.25 161.117 117.187 158.633 118.182 161.177ZM120.687 163.006C120.317 161.582 119.242 163.281 120.687 163.006ZM141.361 176.029C143.35 174.56 138.88 175.841 141.361 176.029ZM31.113 105.18C36.8004 102.978 25.0193 103.61 31.113 105.18ZM113.59 157.142C113.527 153.46 109.965 158.055 113.59 157.142ZM28.8659 99.9439C32.5192 98.7098 25.4863 99.1311 28.8659 99.9439ZM39.4698 105.08C39.4035 103.87 38.3481 105.538 39.4698 105.08ZM168.806 184.391C173.504 183.439 184.209 186.782 185.939 183.146C180.234 183.007 166.202 179.121 165.538 184.073L166.787 184.27L168.806 184.391ZM42.84 105.93C42.9216 102.199 39.9305 105.79 42.84 105.93ZM14.9596 86.5897C13.6935 79.4812 10.1439 85.5139 14.9596 86.5897ZM21.6081 88.2609C21.6897 85.9783 15.5227 86.207 21.6081 88.2609ZM25.4075 90.1269C24.5478 91.2507 24.3092 89.2373 25.4075 90.1269ZM49.3138 105.463C50.4393 104.429 46.6493 104.697 49.3138 105.463ZM22.8769 85.9184C22.2343 80.5494 15.1765 85.114 22.8769 85.9184ZM9.24649 77.0743C9.05263 74.5964 7.9182 78.009 9.24649 77.0743ZM11.274 75.5431C10.9432 72.6049 9.53324 75.9169 11.274 75.5431ZM22.4763 82.2299C27.2132 80.3691 13.8479 78.381 21.5084 81.8783L22.4763 82.2299ZM172.402 174.836C175.433 172.057 168.548 173.977 172.402 174.836ZM190.514 184.225C191.729 180.631 187.454 184.698 190.514 184.225ZM23.6211 76.3584C24.1201 72.8818 19.8657 77.0487 23.6211 76.3584ZM7.68296 65.6799C6.82676 60.7717 6.94388 52.1564 15.1334 55.0679C4.20174 57.2383 22.6994 68.6549 20.3634 59.6411C24.96 59.8661 29.3553 56.9245 26.9431 61.3886C35.9996 60.3884 42.2783 52.5351 51.0263 53.6356C57.8405 52.7338 65.291 52.0499 72.6342 49.307C78.6717 48.872 84.4836 42.3717 81.1743 38.5188C72.9409 37.8222 64.3222 38.8523 55.222 40.6612C45.1378 42.7575 35.9779 46.7405 25.8032 48.4501C15.8857 49.7823 27.798 52.1207 24.9573 52.6417C19.7822 54.4373 31.129 55.6481 24.2864 57.5411C20.0605 56.7375 15.6619 55.2856 17.467 50.8323C7.96693 52.065 -0.380913 56.0079 7.12472 65.6755L7.68296 65.6799ZM30.5747 54.0213C32.8021 45.8156 42.5081 60.7736 34.2256 55.1112C33.2363 54.3708 31.6093 53.7668 30.5747 54.0213ZM31.008 50.0429C34.2229 47.648 32.717 51.3857 31.008 50.0429ZM35.0901 50.1077C35.3803 46.3319 44.4347 52.1066 36.5831 51.467L35.0901 50.1077ZM40.674 47.8626C42.7132 45.48 41.2602 49.982 40.674 47.8626ZM42.1025 46.9061C45.4979 42.8263 61.3311 44.3023 49.7418 46.5083C46.6354 44.1696 44.2542 47.8872 42.1025 46.9061ZM62.7652 43.721C73.0305 47.6812 62.2487 32.5769 62.7652 43.721ZM68.6281 43.6889C70.7716 38.0721 76.9462 41.435 69.62 42.5602C69.7791 43.1579 69.4052 45.4598 68.6281 43.6889ZM21.3092 73.4754C27.7137 69.5535 14.5101 70.0729 21.3092 73.4754ZM26.0447 74.7913C28.2901 72.4036 21.1655 73.8228 26.0447 74.7913ZM12.0917 64.8887C15.7513 62.0775 7.76117 63.8199 12.0917 64.8887ZM201.204 183.198C201.31 179.936 198.407 184.667 201.204 183.198ZM181.988 170.084C182.535 166.329 179.519 170.411 181.988 170.084ZM206.489 184.462C211.605 184.479 221.991 182.873 210.859 182.878C209.112 183.151 200.679 183.092 206.489 184.462ZM30.2101 72.4897C34.351 72.2053 36.6888 67.922 29.4093 68.1682C18.1273 67.0002 39.3632 72.0312 27.9619 70.5927C26.43 71.6072 30.1211 72.7704 30.2101 72.4897ZM33.857 74.3355C33.4247 71.6769 32.5765 75.7479 33.857 74.3355ZM38.183 62.8001C39.98 60.5713 35.6965 62.2042 38.183 62.8001ZM24.4116 39.7805C31.8019 37.2664 41.9079 34.4413 45.3974 41.0184C41.8461 36.7442 43.9642 32.5365 47.3184 38.7857C52.0612 45.1086 54.4355 35.9099 51.3507 33.7891C54.8661 38.157 58.8645 40.221 53.7044 34.0651C59.3117 27.3202 42.4769 34.9484 38.6504 34.8716C36.8094 35.6979 19.6431 39.2494 24.4116 39.7805ZM28.7427 31.4857C32.9575 28.3045 43.3195 33.3779 36.6702 28.3242C36.0201 27.7499 22.1083 32.1565 28.7427 31.4857ZM44.1083 32.12C49.0411 32.2459 41.9806 25.4934 47.8586 28.5531C46.8933 25.3994 41.015 24.809 38.1412 23.549C36.5157 26.4324 41.4497 32.1588 44.1083 32.12ZM31.437 18.1719C33.1435 15.8586 28.4463 19.3447 31.437 18.1719ZM37.7172 19.6751C45.6663 18.6207 35.6909 16.2518 36.1154 19.5903L37.7172 19.6751ZM25.9909 10.4995C20.3938 3.19301 36.517 11.7277 30.8303 4.07755C26.0441 0.266264 21.4448 8.36655 25.9909 10.4995ZM97.8205 49.189C100.388 44.6382 87.2219 43.0547 96.0909 47.5761C96.9074 47.849 96.7226 49.5038 97.8205 49.189Z" fill="black"/>
<path d="M218.993 17.8018C218.075 21.4212 217.507 27.4984 217.291 36.0333C217.291 37.7079 216.535 38.5452 215.023 38.5451C213.51 38.5452 212.457 37.816 211.862 36.3574C210.242 32.4141 208.702 29.6591 207.244 28.0925C205.515 26.2559 203.219 25.1485 200.356 24.7703C197.277 24.2842 189.607 24.0411 177.344 24.041C174.535 24.0411 172.699 24.3382 171.834 24.9324C171.294 25.3106 171.024 26.1209 171.024 27.3632V64.0691C171.024 65.3116 171.807 65.9058 173.374 65.8518C178.182 65.7978 185.15 65.4737 194.279 64.8794C196.062 64.6634 197.264 64.0827 197.885 63.1373C198.506 62.192 199.114 59.7477 199.708 55.8042C200.086 53.6435 201.356 52.8062 203.516 53.2923C205.353 53.6705 206.136 54.5078 205.866 55.8042C204.354 63.1509 203.868 72.7122 204.408 84.4883C204.462 85.8929 203.57 86.6491 201.734 86.7571C200.221 86.9192 199.276 86.1089 198.898 84.3263C197.493 77.5739 194.887 73.9682 191.079 73.509C187.27 73.0499 181.072 72.8203 172.483 72.8202C171.51 72.8203 171.024 73.1714 171.024 73.8736V110.336C171.024 113.037 172.023 114.874 174.022 115.846C175.589 116.657 178.965 117.386 184.151 118.034C186.798 118.304 187.959 119.466 187.635 121.518C187.311 123.301 184.934 124.003 180.504 123.625C167.702 122.599 157.141 122.653 148.822 123.787C146.499 124.111 145.338 123.166 145.338 120.951C145.338 119.547 146.499 118.736 148.822 118.52C154.116 117.926 156.763 113.28 156.763 104.583V35.223C156.763 31.6578 156.128 28.9163 154.859 26.9986C153.589 25.081 151.226 23.3389 147.769 21.7722C145.608 20.8 144.798 19.4765 145.338 17.8018C145.608 16.7756 146.04 16.2084 146.634 16.1002C147.175 15.9383 148.606 16.0463 150.929 16.4244C154.332 16.9647 162.354 17.2347 174.994 17.2346C189.904 17.2347 202.787 16.9106 213.645 16.2623C217.264 16.0463 219.074 16.3434 219.074 17.1536C219.074 17.3698 219.047 17.5859 218.993 17.8018Z" fill="black"/>
<path d="M271.662 120.789C271.662 122.95 270.446 123.895 268.015 123.625C260.561 122.923 251.323 123.031 240.303 123.949C238.089 124.165 236.725 124.111 236.212 123.787C235.698 123.463 235.442 122.572 235.442 121.113C235.442 119.817 236.914 118.723 239.858 117.832C242.802 116.94 244.274 114.28 244.274 109.85V36.5194C244.274 32.144 243.639 28.9299 242.37 26.877C241.1 24.8244 238.872 23.2309 235.685 22.0964C234.01 21.5022 233.173 20.665 233.173 19.5845C233.173 17.964 234.388 16.7486 236.819 15.9382C240.493 14.7499 244.301 12.9132 248.244 10.4282C251.485 8.48367 253.538 7.51133 254.402 7.51122C256.401 7.51133 257.4 8.88882 257.401 11.6437C257.4 11.4277 257.292 14.1287 257.076 19.7465C256.914 25.0945 256.86 30.3614 256.914 35.5471L257.238 107.906C257.238 111.201 258.049 113.591 259.669 115.077C261.29 116.562 264.072 117.548 268.015 118.034C270.446 118.304 271.662 119.223 271.662 120.789Z" fill="black"/>
<path d="M345.559 115.36C345.559 116.495 343.493 118.21 339.361 120.506C335.228 122.801 331.92 123.949 329.435 123.949C327.328 123.949 325.464 122.923 323.844 120.87C322.223 118.817 321.089 117.791 320.441 117.791C319.954 117.791 317.388 118.898 312.743 121.113C308.097 123.328 303.425 124.435 298.725 124.435C294.295 124.435 290.595 123.139 287.624 120.546C284.383 117.683 282.762 113.794 282.762 108.878C282.762 99.5327 293.458 92.8343 314.85 88.7829C318.523 88.0806 320.387 86.5951 320.441 84.3263L320.603 79.1405C320.927 70.2814 317.01 65.8518 308.853 65.8518C306.531 65.8518 304.329 67.9316 302.25 72.091C300.17 76.2505 297.185 78.4923 293.296 78.8163C288.866 79.2485 286.652 77.3849 286.652 73.2254C286.652 70.6325 289.947 67.6074 296.537 64.1502C303.452 60.531 310.096 58.7213 316.47 58.7213C327.436 58.7213 332.865 63.9342 332.757 74.3598L332.433 107.744C332.379 111.255 333.864 113.01 336.889 113.01C337.484 113.01 338.618 112.875 340.293 112.605C341.967 112.335 342.939 112.2 343.21 112.2C344.776 112.2 345.559 113.253 345.559 115.36ZM320.603 96.8857C320.657 95.5353 320.346 94.6439 319.671 94.2118C318.996 93.7796 317.929 93.6986 316.47 93.9687C303.452 96.2915 296.942 100.532 296.942 106.69C296.942 112.902 300.318 116.008 307.071 116.008C309.772 116.008 312.554 115.495 315.417 114.469C318.766 113.28 320.441 111.849 320.441 110.174L320.603 96.8857Z" fill="black"/>
<path d="M406.007 105.718C406.007 111.444 403.805 115.995 399.403 119.371C395 122.747 388.991 124.435 381.374 124.435C376.296 124.435 371.218 123.895 366.141 122.815C361.765 121.843 359.226 120.951 358.524 120.141C358.092 119.385 357.876 115.684 357.876 109.04C357.876 106.177 358.524 104.691 359.821 104.583C361.117 104.421 362.224 105.124 363.143 106.69C367.194 113.767 373.73 117.305 382.752 117.305C390.368 117.305 394.177 114.658 394.177 109.364C394.177 107.041 393.312 105.097 391.584 103.53C389.693 101.747 386.02 99.6677 380.564 97.2909C372.677 93.7796 367.41 90.7006 364.763 88.0536C361.9 85.2446 360.469 81.4633 360.469 76.7096C360.469 70.8756 362.711 66.338 367.194 63.0968C371.354 59.9638 376.918 58.3972 383.886 58.3971C388.262 58.3972 392.259 58.7483 395.878 59.4505C399.768 60.1528 401.793 61.0171 401.955 62.0434C402.387 65.0686 403.279 69.4441 404.629 75.1701C404.791 75.8723 404.035 76.4395 402.361 76.8717C400.578 77.2498 399.389 76.9527 398.795 75.9803C394.528 69.0119 389.126 65.5277 382.59 65.5277C375.189 65.5277 371.489 67.9045 371.489 72.6582C371.489 75.3051 372.488 77.4119 374.487 78.9784C376.269 80.3289 380.456 82.4357 387.046 85.2986C393.961 88.2697 398.66 90.9436 401.145 93.3205C404.386 96.3996 406.007 100.532 406.007 105.718Z" fill="black"/>
<path d="M500 120.303C500 122.194 498.73 123.193 496.192 123.301C492.41 123.355 487.467 123.625 481.363 124.111C478.338 124.705 476.177 124.327 474.881 122.977C466.346 113.794 459.108 104.178 453.165 94.1307C452.679 93.2665 452.058 92.8343 451.302 92.8343C450.383 92.8343 448.79 93.6446 446.521 95.2651C443.982 96.6696 442.713 98.6684 442.713 101.261C442.713 103.098 442.767 105.745 442.875 109.202C442.983 112.659 443.847 114.928 445.468 116.008C446.602 116.765 449.222 117.359 453.327 117.791C455.866 118.115 457.136 119.061 457.136 120.627C457.136 121.87 456.933 122.639 456.528 122.936C456.123 123.233 455.056 123.301 453.327 123.139C447.926 122.653 438.796 122.923 425.94 123.949C422.699 124.219 420.943 123.814 420.673 122.734C420.565 122.356 420.511 121.815 420.511 121.113C420.511 119.439 422.158 118.169 425.454 117.305C428.425 116.549 429.91 113.064 429.91 106.852V36.0333C429.91 31.6038 429.478 28.5247 428.614 26.796C427.425 24.5813 424.94 22.8527 421.159 21.6102C419.377 21.0161 418.485 20.1788 418.485 19.0983C418.485 17.5318 419.755 16.3164 422.294 15.452C426.345 14.1016 430.207 12.238 433.881 9.86103C436.852 7.91646 438.688 6.94412 439.391 6.944C441.605 6.94412 442.713 8.34861 442.713 11.1575C442.713 10.7795 442.686 13.4534 442.632 19.1793C442.578 23.1228 442.551 28.4167 442.551 35.0609L442.713 85.7848C442.713 87.1893 443.091 87.8916 443.847 87.8915C444.657 87.8916 445.9 87.1893 447.574 85.7848C452.058 82.2736 457.568 77.682 464.104 72.0099C465.401 70.6595 466.049 69.5791 466.049 68.7688C466.049 67.3103 463.861 66.284 459.486 65.6897C457.595 65.4737 456.704 64.4203 456.812 62.5296C456.974 60.639 457.919 59.8287 459.648 60.0987C463.537 60.639 469.209 60.9361 476.664 60.99C481.849 61.0441 487.008 61.0711 492.14 61.0711C493.815 61.1252 494.652 62.1245 494.652 64.0691C494.652 65.9058 493.329 66.9052 490.682 67.0672C486.522 67.2293 482.606 68.1746 478.933 69.9032C473.801 72.2261 468.318 76.3045 462.484 82.1385C462.052 82.4627 461.835 82.8678 461.836 83.3539C461.835 84.1102 462.754 85.9199 464.59 88.7828C471.343 99.0465 477.717 106.798 483.713 112.038C487.548 115.333 491.141 116.981 494.49 116.981C496.975 116.981 498.514 117.156 499.109 117.507C499.703 117.859 500 118.79 500 120.303Z" fill="black"/>
</g>
<defs>
<clipPath id="clip0_32_52">
<rect width="500" height="200" fill="white"/>
</clipPath>
</defs>
</svg>
