<svg width="500" height="200" viewBox="0 0 500 200" fill="none" xmlns="http://www.w3.org/2000/svg">
<path fill-rule="evenodd" clip-rule="evenodd" d="M328.796 147.561C328.796 147.561 322.15 151.428 333.53 152.735C347.321 154.309 354.364 154.083 369.556 151.209C369.556 151.209 373.556 153.713 379.139 155.88C345.073 170.477 302.042 155.035 328.796 147.561ZM324.632 128.513C324.632 128.513 317.177 134.031 328.566 135.209C343.298 136.73 354.926 136.854 375.06 132.98C375.06 132.98 377.84 135.802 382.215 137.344C341.033 149.389 295.167 138.292 324.632 128.513Z" fill="#3174B9"/>
<path fill-rule="evenodd" clip-rule="evenodd" d="M359.721 96.1964C368.118 105.863 357.519 114.557 357.519 114.557C357.519 114.557 378.833 103.556 369.044 89.7761C359.904 76.9313 352.893 70.55 390.842 48.5439C390.842 48.5439 331.273 63.4152 359.721 96.1964Z" fill="#CA3132"/>
<path fill-rule="evenodd" clip-rule="evenodd" d="M404.774 161.652C404.774 161.652 409.693 165.708 399.355 168.844C379.697 174.798 317.523 176.594 300.252 169.081C294.049 166.379 305.688 162.633 309.35 161.842C313.169 161.017 315.349 161.167 315.349 161.167C308.445 156.306 270.725 170.715 296.192 174.849C365.637 186.109 422.784 169.78 404.774 161.652ZM331.993 108.774C331.993 108.774 300.371 116.287 320.796 119.018C329.424 120.171 346.609 119.906 362.629 118.562C375.718 117.464 388.856 115.114 388.856 115.114C388.856 115.114 384.244 117.093 380.903 119.37C348.785 127.818 286.751 123.884 304.611 115.248C319.712 107.943 331.993 108.774 331.993 108.774ZM388.724 140.481C421.37 123.521 406.276 107.22 395.738 109.417C393.161 109.955 392.005 110.42 392.005 110.42C392.005 110.42 392.967 108.916 394.794 108.269C415.638 100.944 431.666 129.88 388.073 141.339C388.072 141.339 388.574 140.886 388.724 140.481Z" fill="#3174B9"/>
<path fill-rule="evenodd" clip-rule="evenodd" d="M369.044 13C369.044 13 387.119 31.0873 351.895 58.8916C323.646 81.2037 345.454 93.9216 351.886 108.458C335.394 93.5809 323.296 80.482 331.411 68.2939C343.325 50.4029 376.337 41.7266 369.044 13Z" fill="#CA3132"/>
<path fill-rule="evenodd" clip-rule="evenodd" d="M335.204 186.454C366.535 188.457 414.656 185.341 415.798 170.513C415.798 170.513 413.607 176.134 389.902 180.592C363.157 185.627 330.165 185.041 310.604 181.812C310.604 181.812 314.613 185.129 335.204 186.454Z" fill="#3174B9"/>
<path fill-rule="evenodd" clip-rule="evenodd" d="M239.491 76.5551H238.357V75.9194H241.417V76.5551H240.283V79.7297H239.491V76.5551ZM245.596 76.7131H245.582L244.456 79.728H243.938L242.818 76.7131H242.805V79.728H242.052V75.9177H243.157L244.194 78.6131L245.232 75.9177H246.326V79.728H245.598L245.596 76.7131ZM139.184 112.33C135.667 115.378 131.95 117.092 128.612 117.092C123.857 117.092 121.276 114.235 121.276 109.664C121.276 104.715 124.039 101.093 135.095 101.093H139.182L139.184 112.33ZM148.89 123.28V89.3825C148.89 80.7192 143.949 75.0021 132.039 75.0021C125.09 75.0021 118.998 76.7183 114.046 78.9051L115.472 84.9091C119.373 83.4764 124.417 82.1485 129.368 82.1485C136.229 82.1485 139.182 84.9091 139.182 90.6245V94.9107H135.753C119.086 94.9107 111.565 101.377 111.565 111.098C111.565 119.475 116.521 124.237 125.851 124.237C131.848 124.237 136.328 121.761 140.512 118.138L141.273 123.28H148.89ZM181.284 123.28H169.181L154.608 75.8645H165.18L174.225 105.002L176.238 113.756C180.801 101.093 184.039 88.2384 185.659 75.8645H195.939C193.187 91.4766 188.229 108.618 181.284 123.28ZM227.73 112.33C224.203 115.378 220.486 117.092 217.155 117.092C212.4 117.092 209.823 114.235 209.823 109.664C209.823 104.715 212.587 101.093 223.637 101.093H227.73V112.33ZM237.44 123.28V89.3825C237.44 80.7192 232.484 75.0021 220.586 75.0021C213.63 75.0021 207.54 76.7183 202.587 78.9051L204.013 84.9091C207.914 83.4764 212.968 82.1485 217.921 82.1485C224.772 82.1485 227.729 84.9091 227.729 90.6245V94.9107H224.3C207.631 94.9107 200.115 101.377 200.115 111.098C200.115 119.475 205.061 124.237 214.393 124.237C220.395 124.237 224.868 121.761 229.062 118.138L229.826 123.28H237.44ZM100.923 131.337C98.1571 135.379 93.6837 138.579 88.7929 140.385L84 134.74C87.7261 132.828 90.9179 129.741 92.4039 126.868C93.6837 124.309 94.218 121.017 94.218 113.139V59H104.534V112.392C104.534 122.929 103.692 127.188 100.923 131.337Z" fill="#CA3132"/>
</svg>
