<svg width="500" height="200" viewBox="0 0 500 200" fill="none" xmlns="http://www.w3.org/2000/svg">
<g clip-path="url(#clip0_34_21)">
<g clip-path="url(#clip1_34_21)">
<mask id="mask0_34_21" style="mask-type:luminance" maskUnits="userSpaceOnUse" x="0" y="-24" width="500" height="250">
<path d="M500 -24H0V226H500V-24Z" fill="white"/>
</mask>
<g mask="url(#mask0_34_21)">
<path d="M123.577 171C123.068 171.001 122.567 170.87 122.124 170.619C121.681 170.368 121.31 170.007 121.048 169.569L98.8126 132.454L57.2276 143.772C56.5942 143.925 55.9278 143.863 55.3334 143.596C54.7389 143.329 54.2499 142.872 53.9431 142.296L5.34606 50.8795C5.12289 50.4608 5.00418 49.9944 5.00011 49.52C4.99608 49.0455 5.10674 48.5769 5.32272 48.1545C5.53869 47.7317 5.85357 47.3681 6.24046 47.0937C6.62736 46.8194 7.07483 46.6424 7.54474 46.5785L48.8038 41.028C49.3738 40.9487 49.9547 41.0388 50.4741 41.2865C50.9939 41.5346 51.4291 41.9294 51.7263 42.4224L101.491 125.608L159.371 109.853L140.072 82.5757C139.794 82.1882 139.614 81.7382 139.548 81.2655C139.482 80.7928 139.532 80.3107 139.694 79.8616C139.855 79.4124 140.123 79.0095 140.476 78.6872C140.828 78.3648 141.253 78.1335 141.714 78.0121L168.79 71.6059C169.331 71.4773 169.898 71.5045 170.424 71.6847C170.95 71.8648 171.414 72.1908 171.763 72.6245L195.197 101.908C195.503 102.289 195.708 102.74 195.796 103.221C195.884 103.701 195.851 104.196 195.699 104.661C195.548 105.125 195.284 105.544 194.93 105.881C194.576 106.218 194.144 106.461 193.673 106.589L169.062 113.308L190.61 143.641C190.874 144.013 191.048 144.442 191.118 144.893C191.188 145.344 191.152 145.805 191.013 146.239C190.875 146.674 190.637 147.071 190.319 147.397C190.001 147.725 189.611 147.973 189.18 148.123L124.509 170.819C124.209 170.93 123.897 170.991 123.577 171ZM104.703 130.842L124.857 164.481L183.593 143.904L163.081 114.965L104.703 130.842ZM12.5257 51.8077L58.0057 137.466L95.7498 127.216L47.6819 47.1173L12.5257 51.8077ZM147.491 82.7478L165.587 108.219L188.036 102.107L168.505 77.7676L147.491 82.7478ZM226.151 73.856H232.032V136.968H226.173L226.151 73.856ZM289.487 91.4358V136.968H283.71V129.09C281.471 131.897 278.652 134.197 275.449 135.827C271.091 137.912 266.188 138.575 261.432 137.723C256.677 136.871 252.308 134.547 248.943 131.078C246.717 128.841 244.965 126.178 243.791 123.249C242.616 120.32 242.044 117.183 242.107 114.027C242.06 110.902 242.646 107.799 243.832 104.907C245.018 102.015 246.778 99.3945 249.006 97.2037C251.148 94.9518 253.732 93.1684 256.597 91.9664C259.462 90.7639 262.544 90.1686 265.65 90.2179C269.179 90.1727 272.662 90.9876 275.793 92.6039C278.973 94.3306 281.701 96.7808 283.76 99.7571V91.4268L289.487 91.4358ZM266.098 95.9632C262.915 95.9424 259.786 96.7813 257.04 98.3917C254.293 100.002 252.032 102.324 250.495 105.113C247.224 110.808 247.224 117.812 250.495 123.508C252.046 126.337 254.331 128.696 257.109 130.335C259.803 131.945 262.884 132.79 266.021 132.78C269.215 132.781 272.353 131.944 275.123 130.353C277.897 128.827 280.19 126.55 281.738 123.788C283.316 120.921 284.116 117.69 284.058 114.417C284.125 111.977 283.699 109.55 282.805 107.28C281.911 105.01 280.568 102.943 278.856 101.206C277.205 99.4973 275.22 98.1481 273.023 97.244C270.827 96.3394 268.468 95.8989 266.093 95.9496L266.098 95.9632ZM300.445 91.4358H306.425V98.0911C307.922 95.7934 309.841 93.8009 312.08 92.219C313.904 90.9695 316.059 90.2917 318.269 90.2723C320.108 90.3329 321.901 90.8676 323.472 91.8252L320.405 96.8053C319.413 96.3299 318.336 96.0605 317.238 96.013C315.12 96.0782 313.104 96.9361 311.587 98.417C309.515 100.456 308.071 103.047 307.425 105.883C306.732 108.479 306.385 113.721 306.385 121.611V137.017H300.404L300.445 91.4358ZM373.734 91.4358V136.968H367.961V129.09C365.722 131.897 362.903 134.197 359.7 135.827C355.342 137.912 350.439 138.575 345.683 137.723C340.927 136.871 336.559 134.547 333.194 131.078C330.969 128.841 329.216 126.178 328.042 123.249C326.868 120.32 326.295 117.183 326.358 114.027C326.268 107.712 328.756 101.622 333.266 97.2037C335.408 94.9518 337.993 93.1684 340.857 91.9664C343.722 90.7639 346.805 90.1686 349.91 90.2179C353.439 90.1727 356.923 90.9876 360.053 92.6039C363.233 94.3306 365.962 96.7808 368.02 99.7571V91.4268L373.734 91.4358ZM350.345 95.9632C347.162 95.9424 344.033 96.7813 341.286 98.3917C338.54 100.002 336.279 102.324 334.741 105.113C331.47 110.808 331.47 117.812 334.741 123.508C336.293 126.337 338.578 128.696 341.355 130.335C344.049 131.945 347.13 132.79 350.268 132.78C353.462 132.781 356.6 131.944 359.37 130.353C362.143 128.827 364.437 126.55 365.984 123.788C367.563 120.921 368.363 117.69 368.305 114.417C368.379 111.971 367.956 109.534 367.063 107.256C366.169 104.978 364.824 102.904 363.107 101.161C361.458 99.4529 359.473 98.1046 357.279 97.2005C355.084 96.296 352.727 95.8545 350.354 95.9043L350.345 95.9632ZM382.615 91.4358H388.858L404.131 124.622L419.241 91.4358H425.484L404.674 136.972H403.633L382.615 91.4358ZM472.674 121.86L477.65 124.454C476.257 127.336 474.357 129.946 472.045 132.16C469.964 134.087 467.535 135.599 464.888 136.615C462.011 137.673 458.957 138.192 455.89 138.145C448.47 138.145 442.666 135.73 438.472 130.901C434.423 126.358 432.202 120.476 432.229 114.39C432.17 108.785 434.048 103.329 437.545 98.9965C439.644 96.219 442.376 93.9865 445.516 92.4862C448.651 90.9862 452.108 90.2628 455.582 90.3764C459.161 90.2591 462.712 90.9989 465.942 92.5346C469.177 94.0707 471.995 96.3575 474.162 99.2048C477.456 103.37 479.116 108.576 479.139 114.824H438.174C438.106 119.655 439.924 124.318 443.24 127.827C444.792 129.472 446.67 130.773 448.751 131.647C450.836 132.52 453.08 132.946 455.338 132.898C457.645 132.899 459.939 132.49 462.101 131.689C464.142 130.964 466.033 129.878 467.688 128.483C469.67 126.571 471.348 124.37 472.669 121.955L472.674 121.86ZM472.674 109.636C472.086 106.926 470.923 104.374 469.263 102.152C467.67 100.206 465.643 98.6583 463.345 97.6338C460.934 96.5019 458.301 95.9134 455.636 95.9134C451.393 95.8278 447.271 97.3694 444.123 100.223C441.779 102.336 440.01 105.46 438.807 109.595L472.674 109.636ZM489.141 73.9058H495V137.017H489.141V73.9058Z" fill="#EF533F"/>
</g>
</g>
</g>
<defs>
<clipPath id="clip0_34_21">
<rect width="500" height="200" fill="white"/>
</clipPath>
<clipPath id="clip1_34_21">
<rect width="500" height="250" fill="white" transform="translate(0 -24)"/>
</clipPath>
</defs>
</svg>
