<svg width="500" height="200" viewBox="0 0 500 200" fill="none" xmlns="http://www.w3.org/2000/svg">
<g clip-path="url(#clip0_32_112)">
<path fill-rule="evenodd" clip-rule="evenodd" d="M249.5 198.604C146.177 198.604 62.4133 154.681 62.4133 100.5C62.4133 46.32 146.177 2.3963 249.5 2.3963C352.823 2.3963 436.587 46.32 436.587 100.5C436.587 154.681 352.823 198.604 249.5 198.604ZM162.36 76.6841H173.734C182.815 76.6841 185.97 78.6706 187.042 79.8544C188.82 81.82 189.156 85.9644 188.013 91.8389C186.729 98.4156 184.348 103.079 180.936 105.697C177.443 108.378 171.765 109.736 164.059 109.736H155.916L162.36 76.6841ZM181.869 53.0754H140.555C138.612 53.0754 136.941 54.4487 136.57 56.3503L117.401 154.664C117.17 155.851 117.483 157.078 118.253 158.011C119.025 158.944 120.174 159.483 121.386 159.483H142.871C144.815 159.483 146.486 158.11 146.856 156.208L151.314 133.345H166.37C174.883 133.345 182.051 132.42 187.67 130.595C193.45 128.723 198.767 125.549 203.473 121.162C207.065 117.869 210.072 114.203 212.424 110.251L208.861 128.526C208.629 129.713 208.942 130.94 209.713 131.873C210.485 132.805 211.634 133.345 212.846 133.345H234.161C236.105 133.345 237.776 131.972 238.147 130.07L248.489 77.0214H262.177C268.513 77.0214 269.842 78.3705 269.896 78.4285C270.28 78.8406 270.786 80.7495 269.951 85.0261L261.472 128.526C261.241 129.713 261.553 130.94 262.325 131.873C263.096 132.805 264.245 133.345 265.458 133.345H287.111C287.946 133.345 288.731 133.092 289.384 132.651L285.092 154.664C284.86 155.851 285.173 157.078 285.944 158.011C286.715 158.944 287.864 159.483 289.077 159.483H310.561C312.505 159.483 314.176 158.11 314.547 156.208L319.004 133.345H334.059C342.573 133.345 349.74 132.42 355.36 130.595C361.14 128.723 366.458 125.549 371.165 121.161C375.057 117.592 378.262 113.586 380.691 109.252C383.121 104.917 384.867 100.082 385.879 94.8831C388.393 81.9961 386.351 71.677 379.81 64.214C373.333 56.8231 363.155 53.0754 349.559 53.0754H308.246C306.302 53.0754 304.631 54.4487 304.261 56.3503L300.794 74.1326C300.407 68.3468 298.369 63.74 294.695 60.3739C289.331 55.4626 280.344 53.0754 267.223 53.0754H253.159L257.316 31.7567C257.547 30.5702 257.235 29.3425 256.463 28.4103C255.692 27.4774 254.543 26.9371 253.33 26.9371H232.015C230.071 26.9371 228.4 28.3105 228.029 30.212L218.676 78.1846C217.72 72.7781 215.533 68.1078 212.121 64.2147C205.644 56.8231 195.465 53.0754 181.869 53.0754ZM330.05 76.6841H341.423C350.505 76.6841 353.66 78.6706 354.732 79.8544C356.511 81.82 356.846 85.9644 355.703 91.8382C354.418 98.4156 352.037 103.079 348.626 105.697C345.133 108.378 339.454 109.736 331.749 109.736H323.607L330.05 76.6841Z" fill="#777BB3"/>
</g>
<defs>
<clipPath id="clip0_32_112">
<rect width="500" height="200" fill="white"/>
</clipPath>
</defs>
</svg>
