<svg width="500" height="200" viewBox="0 0 500 200" fill="none" xmlns="http://www.w3.org/2000/svg">
<path d="M207.659 88.9258C207.659 73.8022 203.35 66.0401 194.741 65.6144C191.313 65.4526 187.97 65.9996 184.713 67.2651C182.117 68.1954 180.366 69.1179 179.447 70.0482V106.143C184.956 109.604 189.849 111.214 194.116 110.962C203.143 110.384 207.661 103.027 207.661 88.9277L207.659 88.9258ZM218.282 89.5537C218.282 97.258 216.484 103.614 212.864 108.685C208.83 114.425 203.241 117.38 196.091 117.542C190.705 117.734 185.154 116.024 179.441 112.48V145.287L170.201 141.985V69.168C171.716 67.3055 173.669 65.7069 176.033 64.349C181.534 61.1401 188.214 59.4895 196.076 59.4086L196.206 59.5396C203.394 59.449 208.934 62.4036 212.825 68.3957C216.455 73.8927 218.275 80.9152 218.275 89.5517L218.282 89.5537ZM274.751 111.083C274.751 121.388 273.72 128.524 271.658 132.492C269.596 136.459 265.643 139.628 259.82 141.987C255.1 143.85 249.995 144.863 244.515 145.034L242.988 139.204C248.558 138.445 252.48 137.686 254.754 136.928C259.232 135.41 262.305 133.081 263.992 129.963C265.347 127.42 266.012 122.574 266.012 115.398V112.99C259.779 115.844 253.002 117.311 246.148 117.293C241.755 117.354 237.487 115.826 234.128 112.99C230.247 109.862 228.306 105.895 228.306 101.087V62.5654L237.544 59.397V98.1497C237.544 102.291 238.879 105.478 241.545 107.715C244.211 109.951 247.672 111.028 251.907 110.943C256.143 110.858 260.682 109.209 265.502 106.002V60.8069H274.741V111.083H274.751ZM310.816 117.054L307.773 117.185C302.547 117.185 298.473 115.941 295.563 113.441C292.662 110.941 291.206 107.47 291.206 103.086V66.6449H284.858V60.8242H291.206V45.3501L300.435 42.0604V60.8069H310.816V66.6275H300.435V102.815C300.435 106.287 301.364 108.747 303.224 110.184C304.821 111.368 307.36 112.046 310.816 112.218V117.037V117.054ZM366.757 116.295H357.519V80.582C357.519 76.9475 356.672 73.8407 354.98 71.2097C353.029 68.2531 350.319 66.7758 346.843 66.7758C342.608 66.7758 337.31 69.0101 330.955 73.4863V116.272H321.717V30.9161L330.955 28V66.8798C336.86 62.577 343.308 60.4217 350.313 60.4217C355.207 60.4217 359.169 62.0724 362.2 65.3621C365.243 68.6518 366.759 72.7505 366.759 77.6505V116.278L366.757 116.295ZM415.87 87.4677C415.87 81.6567 414.768 76.8589 412.575 73.0645C409.967 68.438 405.914 65.9996 400.434 65.7454C390.305 66.3328 385.25 73.5999 385.25 87.5101C385.25 93.897 386.302 99.2322 388.424 103.497C391.132 108.953 395.194 111.644 400.615 111.553C410.784 111.472 415.868 103.435 415.868 87.4311L415.87 87.4677ZM425.988 87.5293C425.988 95.7999 423.875 102.682 419.64 108.177C415 114.331 408.591 117.418 400.413 117.418C392.305 117.418 385.986 114.331 381.428 108.177C377.292 102.68 375.23 95.798 375.23 87.5293C375.23 79.7557 377.462 73.2186 381.932 67.893C386.652 62.2438 392.857 59.4105 400.532 59.4105C408.207 59.4105 414.452 62.2457 419.263 67.893C423.731 73.2166 425.964 79.7576 425.964 87.5293H425.988ZM478.957 116.276H469.718V78.5403C469.718 74.3993 468.476 71.1711 465.987 68.8425C463.5 66.5254 460.183 65.4006 456.05 65.4911C451.664 65.572 447.49 67.0089 443.547 69.794V116.276H434.309V68.6518C439.625 64.7746 444.518 62.2438 448.985 61.0592C453.217 59.9556 456.919 59.4086 460.141 59.4086C462.334 59.4086 464.398 59.6012 466.339 60.0442C469.968 60.884 472.917 62.4441 475.194 64.7303C477.733 67.2612 478.995 70.316 478.995 73.8503V116.272L478.957 116.276Z" fill="#646464"/>
<path d="M78.95 31.2553C74.1989 31.2746 69.6556 31.6829 65.6624 32.411C53.8945 34.4911 51.7594 38.8499 51.7594 46.8855V57.4789H79.5655V61.0171H41.3263C33.2476 61.0171 26.1692 65.8805 23.9572 75.1353C21.4047 85.7422 21.2912 92.3602 23.9572 103.433C25.9345 111.677 30.6548 117.551 38.7354 117.551H48.2952V104.83C48.2952 95.6384 56.2392 87.5334 65.6644 87.5334H93.4397C101.172 87.5334 107.343 81.1774 107.343 73.3845V46.8662C107.343 39.3198 100.986 33.6533 93.4397 32.3917C88.6507 31.6077 83.8025 31.2276 78.95 31.2553ZM63.9121 39.7879C66.7838 39.7879 69.1305 42.1762 69.1305 45.1096C69.1305 48.0334 66.7838 50.3986 63.9121 50.3986C61.0268 50.3986 58.6936 48.0334 58.6936 45.1096C58.6936 42.1743 61.0287 39.7879 63.9121 39.7879Z" fill="url(#paint0_linear_58_2)"/>
<path d="M110.811 61.0166V73.382C110.811 82.9681 102.694 91.0365 93.4416 91.0365H65.6662C58.0588 91.0365 51.7632 97.5563 51.7632 105.185V131.7C51.7632 139.246 58.3165 143.684 65.6662 145.849C74.4682 148.441 82.9085 148.911 93.4416 145.849C100.443 143.819 107.345 139.735 107.345 131.7V121.106H79.5654V117.568H121.248C129.326 117.568 132.34 111.925 135.151 103.45C138.055 94.7288 137.93 86.3407 135.151 75.1521C133.154 67.0953 129.342 61.0339 121.248 61.0339H110.813L110.811 61.0166ZM95.1919 128.16C98.0772 128.16 100.41 130.525 100.41 133.449C100.41 136.384 98.0753 138.771 95.1919 138.771C92.3202 138.771 89.9735 136.382 89.9735 133.449C89.9735 130.525 92.3202 128.16 95.1919 128.16Z" fill="url(#paint1_linear_58_2)"/>
<path opacity="0.444" d="M79.8828 171.108C100.463 171.108 117.147 167.869 117.147 163.872C117.147 159.876 100.463 156.636 79.8828 156.636C59.3025 156.636 42.6189 159.876 42.6189 163.872C42.6189 167.869 59.3025 171.108 79.8828 171.108Z" fill="url(#paint2_radial_58_2)"/>
<defs>
<linearGradient id="paint0_linear_58_2" x1="21.9952" y1="31.2572" x2="85.669" y2="86.4955" gradientUnits="userSpaceOnUse">
<stop stop-color="#5A9FD4"/>
<stop offset="1" stop-color="#306998"/>
</linearGradient>
<linearGradient id="paint1_linear_58_2" x1="94.5206" y1="132.559" x2="71.7671" y2="100.1" gradientUnits="userSpaceOnUse">
<stop stop-color="#FFD43B"/>
<stop offset="1" stop-color="#FFE873"/>
</linearGradient>
<radialGradient id="paint2_radial_58_2" cx="0" cy="0" r="1" gradientUnits="userSpaceOnUse" gradientTransform="translate(79.883 163.873) rotate(-90) scale(7.23552 31.7606)">
<stop stop-color="#B8B8B8" stop-opacity="0.498"/>
<stop offset="1" stop-color="#7F7F7F" stop-opacity="0"/>
</radialGradient>
</defs>
</svg>
