<svg width="152" height="50" viewBox="0 0 152 50" fill="none" xmlns="http://www.w3.org/2000/svg">
<path fill-rule="evenodd" clip-rule="evenodd" d="M150.968 18.1531L151.572 15.2309H150.799L149.95 16.946L149.8 15.2309H149.045L148.592 17.4742V18.1531H148.987L149.271 16.852L149.478 18.1718L149.968 18.1531L150.704 16.8334L150.42 18.1531H150.968ZM148.592 15.8531V15.2309H148.725L148.611 15.8531H148.592ZM148.592 17.4742L148.442 18.1531H148.592V17.4742ZM148.592 15.2309V15.8531H148.066L147.576 18.1718H146.971L147.443 15.8531L146.802 15.8717L146.935 15.2309H148.592ZM141.221 43.8137L145.634 22.2631C145.689 21.6223 145.858 20.9434 145.896 20.3025C145.934 19.643 145.953 18.926 145.803 18.3038C145.651 17.6257 145.313 16.9274 144.898 16.3619C144.509 15.8274 144.015 15.3783 143.445 15.0421C142.843 14.684 142.107 14.4571 141.428 14.364C140.399 14.2346 139.356 14.2663 138.336 14.4579C137.508 14.59 136.716 14.9862 135.999 15.3629C135.34 15.7024 134.756 16.2112 134.208 16.664C133.851 16.9662 133.548 17.3049 133.227 17.6257C132.793 17.0035 132.493 16.2679 131.964 15.7024C131.551 15.2723 131.058 14.9267 130.513 14.6848C129.883 14.4235 129.214 14.2703 128.533 14.2319C127.658 14.1895 126.782 14.2721 125.93 14.4774C125.196 14.6467 124.461 15.0048 123.82 15.3824C123.16 15.7396 122.538 16.2306 121.99 16.7394C121.688 17.0416 121.444 17.4183 121.199 17.7578L121.783 14.8922L114.92 14.9295L108.982 43.8517L116.635 43.8331L120.897 23.0368C120.953 22.8481 120.99 22.622 121.047 22.4333C121.162 22.1124 121.331 21.7738 121.5 21.4716C121.67 21.188 121.915 20.868 122.198 20.6225C122.386 20.4346 122.688 20.2644 122.953 20.2272C123.33 20.1891 123.744 20.2644 124.14 20.3406C124.48 20.3965 124.857 20.5099 125.102 20.736C125.348 20.9434 125.423 21.3015 125.479 21.585C125.517 21.773 125.443 21.9618 125.46 22.1505L121.03 43.8331L128.874 43.9263L132.928 24.5259C132.983 24.2805 133.059 24.0731 133.116 23.8665C133.247 23.433 133.361 22.9429 133.531 22.5086C133.7 22.0752 133.926 21.5664 134.228 21.1702C134.454 20.8875 134.793 20.548 135.153 20.36C135.434 20.228 135.831 20.1713 136.17 20.1899C136.472 20.2085 136.849 20.3033 137.151 20.4354C137.359 20.5294 137.585 20.6614 137.697 20.8502C137.83 21.0576 137.923 21.3784 137.905 21.6417C137.923 22.0379 137.792 22.4146 137.735 22.7922L133.419 43.8331L141.221 43.8137ZM79.8892 43.8704L83.3575 26.9962C83.4142 26.8252 83.4337 26.6372 83.4904 26.4865C83.6171 26.0735 83.7873 25.6751 83.9983 25.298C84.2438 24.8646 84.546 24.4311 84.9227 24.1111C85.3376 23.7903 85.8852 23.5456 86.4118 23.3755C86.9976 23.2062 87.6571 23.13 88.2793 23.0927C88.7889 23.0555 89.3155 23.13 89.8445 23.1681L91.7104 14.1558C90.824 14.2878 89.9207 14.3065 89.0903 14.5519C88.4875 14.7213 87.9034 15.0421 87.4318 15.4002C86.8842 15.7769 86.394 16.3051 85.9792 16.7953C85.5273 17.3058 85.1295 17.8619 84.7923 18.4545C84.4901 18.9447 84.2641 19.5102 84.0186 20.0384L85.0548 14.9287L77.6085 15.1361L71.6505 43.8696L79.8892 43.8704ZM62.3741 38.3466C62.5434 38.2324 62.7136 38.1012 62.8075 37.9497C63.147 37.4781 63.3163 36.8754 63.4484 36.3107C63.975 34.261 64.4529 32.1991 64.8816 30.1266C65.3531 27.8452 65.8246 25.5443 66.0879 23.2062C66.2013 22.4519 66.2386 21.6037 65.8991 20.9061C65.6917 20.4913 65.1068 20.2458 64.6361 20.1332C64.1646 20.0011 63.561 20.0198 63.1089 20.2272C62.8642 20.3406 62.6001 20.5099 62.3741 20.6987V14.2692C63.279 14.1938 64.1654 14.1558 65.0509 14.2125C66.5214 14.2878 68.0299 14.4385 69.3877 14.9481C70.5001 15.3443 71.6125 16.0977 72.3667 17.0035C73.1396 17.9085 73.7432 19.1148 73.9312 20.2653C74.0632 21.0195 74.1199 21.7924 74.1199 22.5848C74.1199 23.6404 74.026 24.7342 73.9125 25.7898C73.6671 28.0145 73.1769 30.2393 72.6868 32.4073C72.2152 34.444 71.6878 36.4994 70.9335 38.4787C70.5229 39.6142 69.9236 40.6723 69.1609 41.6084C68.4633 42.4186 67.5576 43.1356 66.5781 43.6451C65.6545 44.1345 64.5607 44.4172 63.4865 44.6246C63.1284 44.6814 62.7508 44.7389 62.3741 44.777V38.3466ZM60.6768 38.8352C61.0916 38.7801 61.5631 38.7226 61.9407 38.5711C62.0913 38.516 62.242 38.4398 62.3741 38.3466V44.777C61.7332 44.8321 61.073 44.8507 60.4321 44.8888C59.6592 44.9074 58.7915 45.003 58 44.8701C56.7936 44.6627 55.5111 44.4553 54.3996 43.9093C53.4752 43.4564 52.5516 42.7402 51.9861 41.8539C51.2699 40.7229 50.723 39.3837 50.5529 38.0639C50.3641 36.254 50.685 34.4246 50.911 32.6519C51.1948 30.4873 51.5721 28.3359 52.042 26.2038C52.3814 24.6207 52.7768 23.0174 53.3804 21.4724C53.8705 20.134 54.5308 18.7381 55.3977 17.5504C56.0013 16.7394 56.8868 16.0613 57.7731 15.533C58.6131 15.0401 59.5318 14.6959 60.4888 14.5155C61.1145 14.4138 61.7432 14.3311 62.3741 14.2692V20.6987C62.0843 20.9467 61.836 21.2401 61.6385 21.5664C61.2423 22.2259 61.1297 23.0555 60.9595 23.8098C60.168 27.5617 59.3757 31.3516 58.7162 35.1408C58.5841 35.8578 58.5274 36.668 58.6222 37.4222C58.6595 37.7609 58.8863 38.1012 59.131 38.3636C59.3384 38.5913 59.6965 38.742 59.9987 38.8352C60.2053 38.8919 60.4694 38.8538 60.6768 38.8352ZM47.1024 43.889L39.806 43.8704L40.2961 41.5509C40.0134 41.8717 39.7865 42.2484 39.4479 42.5506C38.8062 43.0967 38.1281 43.663 37.3366 44.0583C36.5823 44.4156 35.696 44.6425 34.8477 44.7923C34.1883 44.9066 33.434 44.9252 32.7364 44.8871C32.0575 44.811 31.3032 44.7559 30.6438 44.4918C30.0588 44.2844 29.4933 43.8509 29.0226 43.4361C28.5844 43.0366 28.2371 42.5475 28.0042 42.0021C27.7401 41.3232 27.6275 40.5325 27.5522 39.796C27.476 39.2313 27.4954 38.6456 27.5335 38.0995C27.5522 37.7026 27.6275 37.2497 27.6842 36.8349L32.1717 14.9838L40.3731 14.9651L35.999 36.2702C35.9617 36.5157 35.8483 36.7603 35.8483 36.9872C35.8669 37.3445 35.8864 37.7593 36.0743 38.0615C36.225 38.3256 36.5459 38.4763 36.8286 38.6075C37.0546 38.6837 37.356 38.7785 37.6015 38.7785C38.0544 38.8149 38.5818 38.7971 38.978 38.6261C39.3166 38.4949 39.6561 38.1733 39.8449 37.9108C40.0709 37.6086 40.203 37.2318 40.335 36.8916C40.4298 36.6461 40.5044 36.4014 40.5611 36.1746L44.9352 14.9643L53.0612 14.9457L47.1024 43.889ZM107.831 43.8137L100.535 43.795L101.024 41.4577C100.742 41.7777 100.516 42.1731 100.176 42.4558C99.535 43.0205 98.8561 43.5868 98.0653 43.9635C97.3103 44.3419 96.4247 44.5679 95.5765 44.6992C94.8794 44.8158 94.1707 44.8471 93.466 44.7923C92.7871 44.7178 92.032 44.6611 91.3725 44.4156C90.7884 44.2082 90.2221 43.7561 89.7506 43.36C89.3357 42.9646 88.959 42.455 88.733 41.909C88.4689 41.2495 88.3563 40.4377 88.2801 39.7012C88.2039 39.1366 88.2234 38.5524 88.2615 38.0242C88.2801 37.6094 88.3563 37.1759 88.4122 36.7425L92.8997 14.8906L101.101 14.8719L96.7277 36.1762C96.6897 36.4217 96.5771 36.6858 96.5771 36.9118C96.5941 37.2505 96.6135 37.6855 96.8015 37.9675C96.9538 38.2316 97.273 38.3823 97.5565 38.5151C97.7826 38.6083 98.0848 38.6845 98.3303 38.7031C98.7831 38.7217 99.3098 38.7217 99.7051 38.5524C100.045 38.4196 100.384 38.0995 100.574 37.8168C100.798 37.5146 100.931 37.1379 101.063 36.7992C101.153 36.5719 101.229 36.3389 101.289 36.1017L105.664 14.8906L113.789 14.8719L107.831 43.8137Z" fill="black"/>
<path fill-rule="evenodd" clip-rule="evenodd" d="M17.5393 44.247C16.3135 44.473 15.0318 44.7185 13.7113 44.793C12.5616 44.8497 11.3739 44.8878 10.2429 44.793C9.13056 44.6999 7.98012 44.6051 6.92446 44.2664C5.71731 43.9091 4.45425 43.3995 3.41724 42.6258C2.43693 41.8724 1.58868 40.8345 0.966471 39.7222C0.494952 38.8739 0.25028 37.8183 0.156301 36.8372C-0.032469 34.9908 -0.0324691 33.0853 0.0623208 31.2389C0.0809547 30.1816 0.269724 29.1454 0.477128 28.1092C1.51415 23.0562 2.55116 17.9651 3.87093 13.0068C4.45587 10.8194 5.26605 8.66998 6.22772 6.61539C6.75514 5.46494 7.49077 4.35257 8.41437 3.48488C9.49995 2.48152 10.767 1.69455 12.1476 1.16618C13.8441 0.506696 15.7488 0.148604 17.5588 0.0351806C19.0859 -0.0782433 20.6698 0.0918895 22.1403 0.411907C23.8943 0.80808 25.7415 1.16618 27.1933 2.16593C28.4377 3.03281 29.3241 4.42792 29.8701 5.8044C30.549 7.57705 30.7751 9.61301 30.6997 11.4788C30.6057 14.6847 30.0581 17.9083 29.4553 21.0567C28.8517 24.299 27.9848 27.5226 27.118 30.6912C26.5897 32.7085 25.9108 34.7072 25.2319 36.6492C25.0058 37.2901 24.6283 37.9139 24.3269 38.5547C23.3652 37.7429 22.4036 36.9141 21.4233 36.1404C20.7443 35.5944 20.0095 34.9916 19.2553 34.5014C18.6329 34.0874 17.9911 33.7035 17.3319 33.351C17.0864 33.2384 16.7664 33.125 16.5023 32.9556C16.8798 31.6172 17.2379 30.3728 17.5393 29.147C18.0108 27.1864 18.5383 25.2258 18.9344 23.2644C19.7073 19.5125 20.5369 15.7606 21.0644 11.9892C21.1964 10.9903 21.3098 9.83986 20.8764 8.91627C20.6309 8.35077 19.8013 8.12392 19.1985 7.93596C18.6189 7.75945 18.0109 7.69537 17.4073 7.74719C16.9171 7.8039 16.3889 7.99267 16.0316 8.33213C15.4661 8.93571 14.9946 9.76532 14.7305 10.5382C13.9956 12.5361 13.4488 14.6101 12.9578 16.6655C12.1849 19.8333 11.506 23.0756 10.8465 26.3001C10.511 28.0172 10.2031 29.7396 9.9229 31.4665C9.77221 32.2953 9.62152 33.163 9.60208 34.0113C9.58344 34.4828 9.75277 34.9738 9.80948 35.4639C10.1676 35.1804 10.4876 34.8401 10.8271 34.6141C11.3739 34.2754 11.9394 33.8606 12.543 33.6726C13.1838 33.4466 13.9008 33.3704 14.5417 33.4085C15.1718 33.4485 15.7934 33.5753 16.3889 33.7853C17.1618 34.0688 17.9541 34.5209 18.633 34.9924C19.5574 35.5765 20.4616 36.3308 21.2539 37.0656C22.611 38.2728 23.8935 39.612 25.1565 40.8742C26.0056 41.7225 26.8538 42.6469 27.7021 43.5138C28.0602 43.8727 28.4183 44.2689 28.7764 44.6642L23.2899 50L17.5393 44.247Z" fill="black"/>
</svg>
