<svg width="500" height="200" viewBox="0 0 500 200" fill="none" xmlns="http://www.w3.org/2000/svg">
<g clip-path="url(#clip0_32_20)">
<path fill-rule="evenodd" clip-rule="evenodd" d="M329.579 17.6063L334.532 24.1319C335.833 25.8542 335.508 28.3229 333.787 29.6242L328.527 33.6238C329.484 36.169 330.096 38.8864 330.344 41.6613L336.33 42.4842C338.472 42.7712 339.964 44.7614 339.677 46.9048L338.568 55.0379C338.281 57.1813 336.292 58.6931 334.15 58.3869L327.609 57.4875C326.443 60.0327 324.951 62.3674 323.192 64.4533L326.864 69.2758C328.164 70.9981 327.82 73.4667 326.099 74.768L319.577 79.7245C317.856 81.0258 315.389 80.6813 314.088 78.9781L310.091 73.7155C307.529 74.6723 304.832 75.2847 302.04 75.5335L301.218 81.5233C300.931 83.6667 298.942 85.1593 296.8 84.8723L288.672 83.7624C286.53 83.4753 285.039 81.4851 285.325 79.3417L286.224 72.7969C283.7 71.6296 281.348 70.1369 279.263 68.3955L274.444 72.0506C272.723 73.3519 270.255 73.0266 268.955 71.3043L264.002 64.7786C262.701 63.0563 263.026 60.5876 264.748 59.2863L270.007 55.2867C269.051 52.7224 268.439 50.0241 268.19 47.2492L262.204 46.4264C260.062 46.1393 258.551 44.1491 258.857 42.0057L259.967 33.8726C260.273 31.7293 262.242 30.2366 264.384 30.5236L270.925 31.4231C272.091 28.897 273.583 26.5432 275.323 24.4573L271.671 19.6348C270.37 17.9316 270.695 15.4629 272.417 14.1616L278.938 9.20519C280.659 7.90388 283.126 8.22921 284.427 9.95152L288.424 15.2142C290.967 14.2573 293.683 13.6449 296.456 13.3962L297.278 7.40632C297.565 5.263 299.554 3.75118 301.696 4.03824L309.824 5.14817C311.966 5.43523 313.477 7.42546 313.171 9.56879L312.272 16.1136C314.815 17.2809 317.148 18.7736 319.252 20.5342L324.071 16.8791C325.793 15.5586 328.26 15.8839 329.579 17.6063ZM189.742 132.446V100.871H205.998C209.019 100.871 211.314 101.119 212.902 101.655C214.489 102.172 215.789 103.129 216.746 104.526C217.721 105.942 218.218 107.645 218.218 109.655C218.218 111.396 217.836 112.927 217.09 114.19C216.344 115.472 215.311 116.505 214.011 117.29C213.188 117.788 212.041 118.209 210.588 118.534C211.754 118.936 212.596 119.299 213.112 119.701C213.475 119.969 213.992 120.524 214.661 121.366C215.33 122.208 215.789 122.878 216.019 123.337L220.762 132.466H209.746L204.544 122.84C203.875 121.596 203.301 120.773 202.785 120.409C202.077 119.931 201.274 119.682 200.394 119.682H199.534V132.466H189.742V132.446ZM224.128 187.427H205.921L203.301 196H186.892L206.457 143.967H224.051L243.539 196H226.709L224.128 187.427ZM220.723 176.155L215.043 157.439L209.344 176.155H220.723ZM247.325 143.967H274.061C279.894 143.967 284.254 145.345 287.142 148.12C290.03 150.894 291.484 154.856 291.484 159.965C291.484 165.228 289.896 169.342 286.741 172.309C283.585 175.275 278.747 176.748 272.264 176.748H263.447V196H247.325V143.967ZM263.447 166.204H267.406C270.523 166.204 272.723 165.668 273.985 164.577C275.247 163.506 275.878 162.109 275.878 160.444C275.878 158.817 275.323 157.42 274.233 156.291C273.143 155.162 271.078 154.588 268.056 154.588H263.447V166.204ZM297.986 143.967H314.108V196H297.986V143.967ZM199.534 113.692H203.645C204.085 113.692 204.946 113.539 206.227 113.252C206.877 113.118 207.413 112.793 207.814 112.257C208.235 111.721 208.426 111.109 208.426 110.42C208.426 109.406 208.101 108.602 207.451 108.066C206.801 107.511 205.596 107.243 203.817 107.243H199.534V113.692ZM222.636 100.871H248.741V107.607H232.428V112.64H247.555V119.07H232.428V125.289H249.219V132.427H222.636V100.871ZM251.533 121.998L260.789 121.424C260.98 122.935 261.401 124.065 262.013 124.849C263.026 126.112 264.461 126.763 266.316 126.763C267.693 126.763 268.783 126.438 269.529 125.787C270.275 125.136 270.657 124.371 270.657 123.51C270.657 122.687 270.294 121.959 269.586 121.309C268.879 120.658 267.215 120.065 264.595 119.472C260.33 118.515 257.289 117.233 255.453 115.644C253.617 114.056 252.699 112.027 252.699 109.559C252.699 107.932 253.177 106.401 254.115 104.966C255.052 103.531 256.467 102.383 258.36 101.56C260.253 100.737 262.835 100.335 266.125 100.335C270.16 100.335 273.22 101.081 275.343 102.593C277.446 104.105 278.708 106.478 279.11 109.769L269.949 110.324C269.701 108.889 269.185 107.837 268.42 107.205C267.635 106.554 266.545 106.229 265.188 106.229C264.059 106.229 263.199 106.478 262.625 106.956C262.051 107.435 261.764 108.028 261.764 108.717C261.764 109.214 262.013 109.655 262.472 110.076C262.931 110.477 264.002 110.879 265.723 111.243C269.988 112.161 273.048 113.099 274.884 114.037C276.72 114.975 278.077 116.142 278.9 117.539C279.741 118.917 280.162 120.486 280.162 122.208C280.162 124.237 279.607 126.093 278.479 127.796C277.37 129.499 275.802 130.801 273.793 131.681C271.785 132.561 269.261 133.001 266.201 133.001C260.846 133.001 257.117 131.968 255.052 129.901C252.986 127.796 251.82 125.174 251.533 121.998ZM281.577 100.871H311.239V108.679H301.294V132.446H291.541V108.679H281.577V100.871ZM248.76 25.9308C245.26 25.6629 241.722 25.7012 238.222 26.0456C227.455 27.079 216.994 31.0021 208.35 37.7191C198.348 45.4695 190.756 57.0664 187.83 72.4333L186.912 77.2367L182.13 78.0787C177.445 78.9016 173.257 80.0307 169.585 81.4659C166.028 82.8438 162.853 84.547 160.08 86.5563C157.862 88.1638 155.949 89.9627 154.324 91.9146C149.294 97.9428 146.961 105.502 147.018 113.157C147.076 120.926 149.6 128.772 154.266 135.221C156.007 137.613 158.015 139.814 160.31 141.728C162.643 143.661 165.263 145.268 168.208 146.474C169.872 147.163 171.65 147.737 173.505 148.196V162.53C169.681 161.841 166.162 160.807 162.872 159.449C158.531 157.65 154.687 155.334 151.302 152.502C148.089 149.823 145.278 146.78 142.887 143.469C136.519 134.666 133.077 123.911 133 113.195C132.924 102.363 136.289 91.5893 143.557 82.8629C145.909 80.0307 148.682 77.428 151.857 75.1316C155.548 72.4525 159.774 70.1943 164.555 68.338C167.845 67.0559 171.363 65.9842 175.074 65.1231C179.281 48.3975 188.25 35.5184 199.782 26.5814C210.568 18.2186 223.554 13.3387 236.922 12.0566C243.94 11.3868 251.055 11.693 258.016 12.9943C257.863 13.6258 257.729 14.2573 257.653 14.908L257.633 15.0228C257.5 16.1136 257.442 17.2044 257.5 18.3143C256.027 18.8884 254.65 19.673 253.407 20.6299L253.35 20.6682C251.494 22.0651 249.926 23.864 248.76 25.9308ZM349.947 62.6735C351.018 63.6495 352.05 64.6638 353.064 65.7546C355.11 67.9553 357.042 70.4431 358.859 73.2179C364.978 82.6333 368.115 95.2062 367.981 107.511C367.847 119.587 364.596 131.604 357.941 140.446C353.599 146.206 348.034 150.914 341.36 154.645C336.789 157.21 331.645 159.334 326.041 161.056V146.225C329.063 145.096 331.874 143.833 334.456 142.398C339.486 139.585 343.597 136.159 346.676 132.045C351.457 125.672 353.81 116.659 353.905 107.415C354.02 97.7131 351.649 87.9725 347.04 80.8918C345.72 78.8442 344.267 77.007 342.737 75.3613C342.144 74.7298 341.551 74.1365 340.939 73.5624C341.035 72.6056 341.073 71.6296 341.016 70.6536C342.488 70.0795 343.865 69.2949 345.108 68.338L345.166 68.2998C347.135 66.788 348.78 64.8743 349.947 62.6735ZM301.447 28.4951C310.264 29.7008 316.422 37.8339 315.217 46.656C314.012 55.4781 305.884 61.6593 297.068 60.4537C288.251 59.248 282.074 51.1149 283.298 42.2928C284.522 33.4707 292.631 27.2895 301.447 28.4951Z" fill="#01B5E6"/>
</g>
<defs>
<clipPath id="clip0_32_20">
<rect width="235" height="192" fill="white" transform="translate(133 4)"/>
</clipPath>
</defs>
</svg>
