<svg width="500" height="200" viewBox="0 0 500 200" fill="none" xmlns="http://www.w3.org/2000/svg">
<g clip-path="url(#clip0_32_36)">
<path d="M168.048 125.325C166.53 124.507 165.363 122.755 165.363 120.421C165.363 117.273 167.814 114.721 171.095 114.721C172.258 114.721 173.314 115.063 174.126 115.53C180.093 119.5 186.288 121.484 191.889 121.484C197.965 121.484 201.47 118.915 201.47 114.826V114.595C201.47 109.812 194.93 108.181 187.68 105.966C178.57 103.398 168.404 99.6685 168.404 87.8836V87.6473C168.404 75.9791 178.102 68.8653 190.372 68.8653C196.918 68.8653 203.809 70.7346 209.769 73.8797C211.761 74.9331 213.156 76.8004 213.156 79.2439C213.156 82.5141 210.59 84.9694 207.318 84.9694C206.143 84.9694 205.443 84.7352 204.518 84.2658C199.485 81.696 194.345 80.0601 190.023 80.0601C184.527 80.0601 181.371 82.6329 181.371 86.1351V86.362C181.371 90.9134 188.032 92.7752 195.279 95.113C204.277 97.9148 214.444 101.996 214.444 113.078V113.314C214.444 126.263 204.389 132.672 191.538 132.672C183.714 132.672 175.183 130.23 168.048 125.325Z" fill="#5FB832"/>
<path d="M269.221 100.83V100.594C269.221 88.6995 261.156 80.8822 251.579 80.8822C241.997 80.8822 233.584 88.8151 233.584 100.594V100.83C233.584 112.613 241.997 120.553 251.579 120.553C261.277 120.553 269.221 112.964 269.221 100.83ZM219.792 75.977C219.792 72.0178 222.826 68.8632 226.808 68.8632C230.778 68.8632 233.933 72.0178 233.933 75.977V80.183C238.491 73.7695 244.916 68.6344 254.968 68.6344C269.456 68.6344 283.597 80.062 283.597 100.594V100.83C283.597 121.248 269.574 132.795 254.968 132.795C244.686 132.795 238.258 127.656 233.933 121.952V143.755C233.933 147.736 230.778 150.77 226.808 150.77C222.954 150.77 219.792 147.736 219.792 143.755V75.977Z" fill="#5FB832"/>
<path d="M288.953 75.9853C288.953 72.0264 291.983 68.8715 295.957 68.8715C299.94 68.8715 303.091 72.0264 303.091 75.9853V79.3794C303.796 74.0929 312.435 68.8715 318.631 68.8715C323.069 68.8715 325.643 71.7857 325.643 75.8667C325.643 79.5969 323.187 82.0511 320.031 82.6329C309.982 84.3836 303.091 93.1628 303.091 105.309V125.661C303.091 129.515 299.94 132.663 295.957 132.663C292.104 132.663 288.953 129.628 288.953 125.661V75.9853Z" fill="#5FB832"/>
<path d="M330.991 76.0138C330.991 72.0484 334.04 68.8936 338.006 68.8936C341.978 68.8936 345.134 72.0484 345.134 76.0138V125.673C345.134 129.634 341.978 132.663 338.006 132.663C334.147 132.663 330.991 129.634 330.991 125.673V76.0138Z" fill="#5FB832"/>
<path d="M352.262 76.0409C352.262 72.0756 355.302 68.9282 359.269 68.9282C363.246 68.9282 366.4 72.0756 366.4 76.0409V78.9374C370.38 73.2192 376.097 68.8925 385.678 68.8925C399.584 68.8925 407.651 78.2296 407.651 92.4603V125.664C407.651 129.628 404.608 132.665 400.636 132.665C396.665 132.665 393.511 129.628 393.511 125.664V96.7784C393.511 87.2169 388.721 81.7296 380.305 81.7296C372.127 81.7296 366.4 87.4457 366.4 97.0191V125.664C366.4 129.628 363.246 132.665 359.269 132.665C355.415 132.665 352.262 129.628 352.262 125.664V76.0409Z" fill="#5FB832"/>
<path d="M445.025 120.424C435.318 120.424 427.379 112.838 427.379 100.704V100.475C427.379 88.5778 435.436 80.7604 445.025 80.7604C454.609 80.7604 463.022 88.6955 463.022 100.475V100.704C463.022 112.49 454.609 120.424 445.025 120.424ZM469.786 68.7414C465.82 68.7414 462.664 71.8981 462.664 75.8584V80.0569C458.102 73.6434 451.682 68.5113 441.638 68.5113C427.14 68.5113 413.005 79.9391 413.005 100.475V100.704C413.005 121.122 427.024 132.665 441.638 132.665C451.86 132.665 458.272 127.588 462.599 121.912C461.891 133.005 455.089 138.861 443.157 138.861C436.034 138.861 429.838 137.106 424.22 133.95C423.52 133.608 422.715 133.378 421.66 133.378C418.388 133.378 415.692 136.064 415.692 139.204C415.692 141.889 417.214 143.872 419.675 144.805C427.142 148.423 434.849 150.29 443.501 150.29C454.609 150.29 463.259 147.609 468.868 142.007C473.998 136.869 476.804 129.179 476.804 118.791V75.8584C476.804 71.8981 473.766 68.7414 469.786 68.7414Z" fill="#5FB832"/>
<path d="M345.191 51.8948C345.191 55.8201 341.997 59.0118 338.06 59.0118C334.12 59.0118 330.935 55.8201 330.935 51.8948C330.935 47.9587 334.12 44.781 338.06 44.781C341.997 44.781 345.191 47.9587 345.191 51.8948Z" fill="#5FB832"/>
<path d="M120.61 128.447C104.934 149.298 71.4493 142.26 49.9811 143.272C49.9811 143.272 46.1807 143.483 42.3528 144.112C42.3528 144.112 43.8002 143.496 45.6462 142.86C60.7243 137.655 67.8498 136.609 77.0117 131.91C94.226 123.107 111.358 103.931 114.844 84.0107C108.292 103.17 88.3637 119.659 70.2184 126.355C57.7987 130.931 35.3387 135.383 35.3355 135.385C35.346 135.401 34.4404 134.916 34.4278 134.905C19.1533 127.486 18.7125 94.4586 46.454 83.8123C58.6171 79.1412 70.2513 81.7067 83.4 78.5823C97.4238 75.2535 113.666 64.7591 120.268 51.0388C127.669 72.9547 136.56 107.242 120.61 128.447ZM120.882 44.2477C119.016 48.6738 116.739 52.6624 114.113 56.2299C102.557 44.3893 86.4273 37.0121 68.5987 37.0121C33.5283 37.0121 5 65.4965 5 100.502C5 118.854 12.8461 135.404 25.3552 147.005L26.7479 148.237C24.4222 146.344 24.0646 142.934 25.9496 140.61C27.8461 138.285 31.2648 137.925 33.5916 139.808C35.9247 141.695 36.2802 145.113 34.3911 147.441C32.5091 149.77 29.0842 150.122 26.7543 148.242L27.702 149.08C38.767 158.382 53.0305 164 68.5987 164C102.12 164 129.646 137.956 132.003 105.084C133.748 88.9894 128.986 68.5524 120.882 44.2477Z" fill="#5FB832"/>
<path d="M493.362 73.1877H491.141V76.124H493.362C494.081 76.124 494.867 75.5444 494.867 74.6906C494.867 73.7674 494.081 73.1877 493.362 73.1877ZM494.733 80.4569L492.576 77.1805H491.141V80.4569H489.98V72.1629H493.362C494.765 72.1629 496.066 73.1552 496.066 74.6906C496.066 76.5324 494.42 77.1478 493.944 77.1478L496.168 80.4569H494.733ZM492.748 70.1496C489.328 70.1496 486.592 72.8799 486.592 76.2953C486.592 79.6724 489.328 82.4385 492.748 82.4385C496.13 82.4385 498.901 79.6724 498.901 76.2953C498.901 72.8799 496.13 70.1496 492.748 70.1496ZM492.748 83.5319C488.747 83.5319 485.499 80.2878 485.499 76.2953C485.499 72.2645 488.747 69.0565 492.748 69.0565C496.782 69.0565 499.997 72.2645 499.997 76.2953C499.997 80.2878 496.782 83.5319 492.748 83.5319Z" fill="#5FB832"/>
</g>
<defs>
<clipPath id="clip0_32_36">
<rect width="495" height="127" fill="white" transform="translate(5 37)"/>
</clipPath>
</defs>
</svg>
