<svg width="1334" height="335" viewBox="0 0 1334 335" fill="none" xmlns="http://www.w3.org/2000/svg">
<path d="M126.413 16.0265C159.12 0.359798 197.067 -4.02687 232.48 3.86647C254.853 8.90647 276.587 18.1198 294.827 32.1331C284.493 37.2131 274.467 42.9865 263.96 47.6665C258.133 45.5865 252.88 42.0131 246.96 40.0531C215.44 27.5998 179.173 27.5065 147.68 40.0931C121.467 50.4265 98.6933 69.1331 83.2667 92.6931C65.52 119.613 57.5067 153.04 62.08 185.04C147.027 141.506 232.067 98.1598 317.053 54.7198C342.747 41.7998 368.093 28.1465 394.013 15.7331C394.067 27.0265 394.027 38.3198 394.04 49.5998C262.68 116.653 131.48 184 0 250.8V216.773C5.33333 213.76 11 211.333 16.2933 208.253C25.1333 202.92 30.8267 192.973 31.0267 182.666C28.2 152.346 33.9333 121.24 47.4533 93.9465C64.04 60.1065 92.3333 32.1331 126.413 16.0265Z" fill="black"/>
<path d="M538.027 55.1065C552.84 48.4265 569.173 45.1999 585.413 45.5332C605.173 45.3332 625.427 49.8799 642 60.9599C658.533 71.9999 670.2 90.1465 673.32 109.76C662.813 109.867 652.307 109.6 641.813 109.92C638.16 99.3465 631.667 89.4932 621.907 83.6665C605.587 73.4132 585.013 71.4399 566.427 75.3599C553.747 78.3332 539.96 84.8932 535.133 97.9065C531.507 108.707 533.88 121.72 542.253 129.747C551.653 138.947 564.853 142.333 577.347 144.96C599.613 150.333 622.773 153.76 643.347 164.387C656.413 171.053 668.16 181.493 673.627 195.387C680.827 214.12 678.947 236.36 667.947 253.253C659.2 266.667 645.453 276.187 630.627 281.813C608.773 290 584.547 290.987 561.76 286.56C537.44 281.853 514.56 267.24 502.64 245.16C497.24 234.827 492.76 223.4 492.52 211.627C503.147 211.893 513.787 211.667 524.413 211.747C527.04 225.04 532.853 238.28 543.48 247.093C555.413 257.093 571.347 261.067 586.667 261.027C600.68 261.44 615.387 259.413 627.387 251.707C637.173 245.493 643.947 234.387 643.693 222.64C644.133 214.467 641.72 206 636.093 199.92C630.733 193.76 623.36 189.867 615.893 186.84C589.64 176.44 560.08 176.947 534.8 163.747C521.747 157.133 510.04 146.813 504.293 133.107C497.16 116.16 498.08 95.6265 508.013 79.9599C515.12 68.7999 526.093 60.5332 538.027 55.1065Z" fill="black"/>
<path d="M963.413 49.5596C973.213 49.6396 983.013 49.5729 992.827 49.5862C992.813 128.026 992.827 206.453 992.813 284.893C982.987 284.853 973.16 284.933 963.333 284.853C963.427 206.413 963.253 127.986 963.413 49.5596Z" fill="black"/>
<path d="M1022.2 49.5732C1032.01 49.6266 1041.84 49.5866 1051.65 49.5866C1051.65 128.013 1051.67 206.453 1051.65 284.893C1041.8 284.813 1031.93 285.027 1022.08 284.773C1022.27 206.373 1022.01 127.973 1022.2 49.5732Z" fill="black"/>
<path d="M711.533 66.3333C721.293 66.2933 731.04 66.3999 740.8 66.2666C741.147 80.8666 740.907 95.4799 740.92 110.093C751.947 110.333 762.987 110.147 774.027 110.2C774.093 118.133 774.04 126.08 774.053 134.027C763.027 134.04 751.987 133.987 740.96 134.053C740.987 170.28 740.893 206.493 741 242.72C741.453 248.453 741.4 256.347 747.827 258.72C756.293 261.493 765.333 259.827 774.08 260.32C774.04 268.507 774.067 276.693 774.053 284.88C761 284.533 747.813 285.787 734.867 283.773C726.96 282.667 718.733 278.56 715.627 270.773C711.093 259.8 711.547 247.627 711.507 235.987C711.48 201.987 711.533 167.987 711.48 134C702.4 134.067 693.32 133.987 684.24 134.04C684.173 126.093 684.2 118.16 684.227 110.213C693.32 110.213 702.413 110.2 711.507 110.213C711.52 95.5866 711.453 80.9599 711.533 66.3333Z" fill="black"/>
<path d="M310.52 126.267C338.4 112.227 366 97.6268 394.013 83.8535C394.08 95.1602 394.013 106.467 394.04 117.774C388.72 120.587 383.253 123.134 378 126.094C368.173 131.707 362.32 143.334 363.307 154.56C364.053 168.467 363.813 182.494 361.253 196.227C354.36 235.347 332.893 271.667 302.053 296.694C272.187 321.36 233.467 335.094 194.72 334.454C160.533 334.027 126.707 322.574 99.0267 302.56C108.84 297.427 118.707 292.414 128.573 287.4C130.4 286.174 132.333 287.72 134 288.427C170.36 307.867 215.813 309.094 253.173 291.667C287.453 276.08 314.64 245.774 326.44 210C333.053 190.587 334.627 169.747 332.347 149.454C314.853 158.08 297.613 167.214 280.187 175.974C186.813 223.787 93.2933 271.32 0 319.28V284.96C103.427 231.907 207.027 179.187 310.52 126.267Z" fill="black"/>
<path d="M801.76 132.427C830.853 101.013 886.133 98.2399 917.067 128.427C938.04 148.6 945.573 179.107 943.56 207.427C898.96 207.413 854.347 207.44 809.733 207.4C809.813 223.333 815.96 239.693 828.253 250.187C838.36 259.053 851.973 263.573 865.36 263.16C877.093 262.867 889.227 259.747 898.267 251.933C903.76 247.187 908.027 241.013 910.707 234.28C920.893 234.08 931.093 234.08 941.293 234.28C936.36 254.307 921.813 271.4 903.347 280.36C885.947 289.093 865.747 290.627 846.707 287.92C826.92 284.96 808.253 274.48 796.2 258.4C782.813 240.667 777.44 217.947 777.893 196C778.08 172.973 785.533 149.24 801.76 132.427ZM831.68 141.147C817.893 149.893 810.893 166.16 809.933 182.013C844.16 182 878.373 182.067 912.6 181.987C911.64 167.427 905.4 152.867 893.92 143.547C876.6 129.4 850.28 129.547 831.68 141.147Z" fill="black"/>
<path d="M1099.31 124.72C1113.63 112.187 1133.01 106.12 1151.91 106.934C1169.01 106.88 1187.43 110.32 1200.44 122.24C1212.53 133.547 1217.07 150.534 1218.11 166.56C1219.48 206 1215.17 245.88 1222.55 284.934C1212.64 284.96 1202.72 284.96 1192.81 284.934C1191.63 277.134 1190.91 269.294 1190.76 261.414C1190.51 261.814 1189.99 262.587 1189.73 262.987C1181.13 276.44 1166.52 285.214 1150.85 287.587C1132.88 290.414 1113.39 290.12 1096.99 281.36C1086.63 276.04 1078.07 267.04 1074.12 256C1069.03 241.68 1070.21 224.374 1080.07 212.32C1089.48 200.827 1103.71 194.774 1117.51 190.32C1140.69 183.36 1164.81 180.027 1188.84 177.654C1189.37 165.854 1188.08 153.027 1180.56 143.387C1173.56 134.414 1161.69 130.8 1150.67 130.987C1139.71 130.627 1127.84 133.147 1119.88 141.174C1113.19 147.48 1110.31 156.76 1109.72 165.707C1099.57 165.667 1089.41 165.707 1079.27 165.694C1080.15 150.067 1087.44 134.947 1099.31 124.72ZM1122.59 214.667C1112.71 218.707 1103.63 227.294 1103.79 238.707C1104.37 245.627 1106.57 252.76 1112.03 257.414C1121.64 266.014 1135.68 266.827 1147.88 265.107C1161.72 263.574 1175.75 256.867 1183.15 244.64C1191.45 231.68 1191.64 215.707 1191.25 200.854C1168.13 203.774 1144.24 205.32 1122.59 214.667Z" fill="black"/>
<path d="M1246.37 110.24C1256.01 110.173 1265.67 110.226 1275.32 110.213C1275.47 120.226 1275.09 130.253 1275.55 140.253C1282.33 123.813 1298.52 112.48 1315.97 110.16C1321.69 109.68 1327.69 108.08 1333.33 109.96V140.813C1325.36 140.613 1317.39 139.68 1309.41 140.44C1299.37 141.133 1289.49 146.253 1284.15 154.96C1276.47 167.173 1276.33 182.12 1275.77 196.053C1275.81 225.666 1275.79 255.28 1275.79 284.893C1265.96 284.813 1256.13 285.04 1246.31 284.746C1246.43 226.586 1246.32 168.413 1246.37 110.24Z" fill="black"/>
</svg>
