<svg width="500" height="200" viewBox="0 0 500 200" fill="none" xmlns="http://www.w3.org/2000/svg">
<path d="M104.067 86.9823L113.441 70.838C113.97 69.9329 113.65 68.7832 112.752 68.2573C111.854 67.7314 110.685 68.0371 110.169 68.9422L100.672 85.2945C93.4265 82.0044 85.2708 80.1698 76.4999 80.1698C67.7291 80.1698 59.5733 82.0044 52.3278 85.2945L42.8312 68.9422C42.3023 68.0371 41.1459 67.7314 40.2357 68.2573C39.3253 68.7832 39.0178 69.9329 39.5468 70.838L48.9204 86.9823C32.7564 95.6905 21.8083 111.957 20 131H133C131.192 111.957 120.243 95.6903 104.067 86.9823ZM50.5565 115.223C47.9363 115.223 45.8205 113.107 45.8205 110.514C45.8205 107.909 47.9486 105.805 50.5565 105.805C53.1766 105.805 55.2925 107.921 55.2925 110.514C55.3048 113.107 53.1766 115.223 50.5565 115.223ZM102.431 115.223C99.8111 115.223 97.6952 113.107 97.6952 110.514C97.6952 107.909 99.8234 105.805 102.431 105.805C105.051 105.805 107.167 107.921 107.167 110.514C107.18 113.107 105.051 115.223 102.431 115.223Z" fill="#32DE84"/>
<path d="M139.891 109.791C139.891 101.103 145.769 95.3784 153.18 95.3784C157.933 95.3784 161.204 97.6272 162.942 99.9272V95.8384H168.819V124H162.942V119.809C161.153 122.211 157.78 124.46 153.077 124.46C145.769 124.46 139.891 118.48 139.891 109.791ZM162.942 109.894C162.942 103.863 158.802 100.438 154.406 100.438C150.062 100.438 145.871 103.709 145.871 109.791C145.871 115.874 150.062 119.4 154.406 119.4C158.802 119.4 162.942 115.976 162.942 109.894ZM193.901 124V108.258C193.901 103.096 191.09 100.438 186.848 100.438C182.554 100.438 179.743 103.096 179.743 108.258V124H173.917V95.8384H179.743V99.0583C181.634 96.7584 184.752 95.3784 188.125 95.3784C194.719 95.3784 199.676 99.5183 199.676 107.389V124H193.901ZM202.611 109.791C202.611 101.103 208.488 95.3784 215.95 95.3784C219.63 95.3784 223.515 97.1161 225.661 99.7739V86.1786H231.539V124H225.661V119.758C223.872 122.313 220.499 124.46 215.899 124.46C208.488 124.46 202.611 118.48 202.611 109.791ZM225.661 109.894C225.661 103.863 221.521 100.438 217.126 100.438C212.782 100.438 208.59 103.709 208.59 109.791C208.59 115.874 212.782 119.4 217.126 119.4C221.521 119.4 225.661 115.976 225.661 109.894ZM242.463 109.178V124H236.636V95.8384H242.463V99.9272C244.098 97.1161 246.909 95.3784 250.896 95.3784V101.409H249.414C245.121 101.409 242.463 103.198 242.463 109.178ZM280.529 109.894C280.529 118.736 273.987 124.46 265.912 124.46C257.887 124.46 251.805 118.736 251.805 109.894C251.805 101.052 258.143 95.3784 266.167 95.3784C274.191 95.3784 280.529 101.052 280.529 109.894ZM257.734 109.894C257.734 116.282 261.516 119.4 265.912 119.4C270.256 119.4 274.549 116.282 274.549 109.894C274.549 103.505 270.409 100.438 266.065 100.438C261.669 100.438 257.734 103.505 257.734 109.894ZM283.733 124V95.8384H289.56V124H283.733ZM286.698 92.1074C284.602 92.1074 282.967 90.4718 282.967 88.3763C282.967 86.2808 284.602 84.6453 286.698 84.6453C288.742 84.6453 290.378 86.2808 290.378 88.3763C290.378 90.4718 288.742 92.1074 286.698 92.1074ZM292.712 109.791C292.712 101.103 298.59 95.3784 306.052 95.3784C309.732 95.3784 313.616 97.1161 315.763 99.7739V86.1786H321.64V124H315.763V119.758C313.974 122.313 310.6 124.46 306.001 124.46C298.59 124.46 292.712 118.48 292.712 109.791ZM315.763 109.894C315.763 103.863 311.623 100.438 307.227 100.438C302.883 100.438 298.692 103.709 298.692 109.791C298.692 115.874 302.883 119.4 307.227 119.4C311.623 119.4 315.763 115.976 315.763 109.894ZM360.816 88.4274H366.643V124H360.816L343.285 97.4739V124H337.459V88.4274H343.285L360.816 114.902V88.4274ZM369.796 109.791C369.796 101.103 375.674 95.3784 383.085 95.3784C387.838 95.3784 391.109 97.6272 392.847 99.9272V95.8384H398.724V124H392.847V119.809C391.058 122.211 387.685 124.46 382.983 124.46C375.674 124.46 369.796 118.48 369.796 109.791ZM392.847 109.894C392.847 103.863 388.707 100.438 384.311 100.438C379.967 100.438 375.776 103.709 375.776 109.791C375.776 115.874 379.967 119.4 384.311 119.4C388.707 119.4 392.847 115.976 392.847 109.894ZM404.742 116.18V100.592H401.42V95.8384H404.742V88.8363H410.62V95.8384H417.468V100.592H410.62V116.18C410.62 118.276 411.437 119.145 413.891 119.145H417.468V124H412.868C407.86 124 404.742 121.904 404.742 116.18ZM420.283 124V95.8384H426.109V124H420.283ZM423.247 92.1074C421.152 92.1074 419.516 90.4718 419.516 88.3763C419.516 86.2808 421.152 84.6453 423.247 84.6453C425.292 84.6453 426.927 86.2808 426.927 88.3763C426.927 90.4718 425.292 92.1074 423.247 92.1074ZM427.882 95.8384H434.117L442.09 118.787L450.063 95.8384H456.248L445.515 124H438.564L427.882 95.8384ZM469.954 100.285C466.018 100.285 462.85 102.943 462.236 107.389H477.825C477.723 103.045 474.298 100.285 469.954 100.285ZM483.14 115.618C481.556 120.525 477.109 124.46 470.209 124.46C462.134 124.46 456.154 118.736 456.154 109.894C456.154 101.052 461.878 95.3784 470.209 95.3784C478.234 95.3784 483.907 100.949 483.907 109.229C483.907 110.2 483.856 111.12 483.702 112.091H462.185C462.594 116.742 465.916 119.553 470.209 119.553C473.787 119.553 475.78 117.816 476.854 115.618H483.14Z" fill="black"/>
</svg>
