<svg width="180" height="65" viewBox="0 0 180 65" fill="none" xmlns="http://www.w3.org/2000/svg">
<mask id="mask0_383_53" style="mask-type:luminance" maskUnits="userSpaceOnUse" x="0" y="0" width="53" height="65">
<path d="M52.4906 29.9937L34.9937 47.4969L52.4906 65H32.4969L14.9937 47.4969L32.4969 29.9937H52.4906ZM32.4969 0L0 32.4969L10 42.4969L52.4906 0H32.4969V0Z" fill="white"/>
</mask>
<g mask="url(#mask0_383_53)">
<path d="M24.9928 57.497L52.4896 29.9938H32.4959L14.999 47.497L24.9928 57.497Z" fill="#39CEFD"/>
</g>
<mask id="mask1_383_53" style="mask-type:luminance" maskUnits="userSpaceOnUse" x="0" y="0" width="53" height="65">
<path d="M52.4906 29.9937L34.9937 47.4969L52.4906 65H32.4969L14.9937 47.4969L32.4969 29.9937H52.4906ZM32.4969 0L0 32.4969L10 42.4969L52.4906 0H32.4969V0Z" fill="white"/>
</mask>
<g mask="url(#mask1_383_53)">
<path d="M0 32.4969L32.4969 0H52.4906L10 42.4969L0 32.4969Z" fill="#39CEFD"/>
</g>
<mask id="mask2_383_53" style="mask-type:luminance" maskUnits="userSpaceOnUse" x="0" y="0" width="53" height="65">
<path d="M52.4906 29.9937L34.9937 47.4969L52.4906 65H32.4969L14.9937 47.4969L32.4969 29.9937H52.4906ZM32.4969 0L0 32.4969L10 42.4969L52.4906 0H32.4969V0Z" fill="white"/>
</mask>
<g mask="url(#mask2_383_53)">
<path d="M32.4973 64.9938H52.491L34.9941 47.4969L24.9941 57.4969L32.4973 64.9938Z" fill="#03569B"/>
</g>
<mask id="mask3_383_53" style="mask-type:luminance" maskUnits="userSpaceOnUse" x="0" y="0" width="53" height="65">
<path d="M52.4906 29.9937L34.9937 47.4969L52.4906 65H32.4969L14.9937 47.4969L32.4969 29.9937H52.4906ZM32.4969 0L0 32.4969L10 42.4969L52.4906 0H32.4969V0Z" fill="white"/>
</mask>
<g mask="url(#mask3_383_53)">
<path d="M34.9941 47.4969L24.9941 57.4969L39.8252 52.3593L34.9941 47.4969Z" fill="url(#paint0_linear_383_53)"/>
</g>
<mask id="mask4_383_53" style="mask-type:luminance" maskUnits="userSpaceOnUse" x="0" y="0" width="53" height="65">
<path d="M52.4906 29.9937L34.9937 47.4969L52.4906 65H32.4969L14.9937 47.4969L32.4969 29.9937H52.4906ZM32.4969 0L0 32.4969L10 42.4969L52.4906 0H32.4969V0Z" fill="white"/>
</mask>
<g mask="url(#mask4_383_53)">
<path d="M14.999 47.4934L24.9993 37.4931L35.0002 47.4934L24.9993 57.4937L14.999 47.4934Z" fill="#16B9FD"/>
</g>
<path d="M52.4906 29.9937L34.9937 47.4969L52.4906 65H32.4969L14.9937 47.4969L32.4969 29.9937H52.4906ZM32.4969 0L0 32.4969L10 42.4969L52.4906 0H32.4969Z" fill="url(#paint1_radial_383_53)"/>
<path d="M58.8369 17.4234H76.3116V20.8409H62.3834V31.1806H74.9574V34.5563H62.3834V47.6381H58.8369V17.4234ZM80.54 17.4234H84.1268V47.6397H80.54V17.4234ZM97.2489 48.3151C94.661 48.3151 92.6728 47.5553 91.2843 46.0357C89.9431 44.5064 89.2724 42.3823 89.2724 39.6633V26.1172H92.8593V39.1152C92.8593 41.1571 93.3235 42.6617 94.2521 43.6289C95.1806 44.5961 96.4326 45.0798 98.0082 45.0798C99.2183 45.0798 100.293 44.7563 101.232 44.1093C102.199 43.4623 102.93 42.6187 103.425 41.5784C103.959 40.5359 104.226 39.4386 104.226 38.2866V26.1317H107.811V47.6526H104.393V44.5155H104.224C103.633 45.5849 102.691 46.4849 101.397 47.2157C100.103 47.9465 98.7239 48.3119 97.2602 48.3119L97.2489 48.3151Z" fill="#808080"/>
<path d="M121.616 47.9781C120.744 47.9781 119.928 47.8373 119.169 47.5558C118.438 47.2742 117.819 46.8943 117.312 46.4161C116.749 45.8819 116.327 45.2629 116.047 44.559C115.765 43.8561 115.624 42.998 115.624 41.9845V29.367H111.868V26.1171H115.624V20.0397H119.211V26.1171H124.444V29.367H119.211V41.0995C119.211 42.2817 119.437 43.1538 119.888 43.7159C120.422 44.3349 121.196 44.6444 122.209 44.6444C123.026 44.6444 123.814 44.4053 124.573 43.9271V47.43C124.15 47.6267 123.714 47.7675 123.264 47.8524C122.841 47.9384 122.293 47.9814 121.619 47.9814L121.616 47.9781Z" fill="#808080"/>
<path d="M136.826 47.9781C135.954 47.9781 135.138 47.8373 134.379 47.5558C133.648 47.2742 133.029 46.8943 132.522 46.4161C131.959 45.8819 131.537 45.2629 131.257 44.559C130.975 43.8561 130.834 42.998 130.834 41.9845V29.367H127.078V26.1171H130.834V20.0397H134.421V26.1171H139.654V29.367H134.421V41.0995C134.421 42.2817 134.647 43.1538 135.098 43.7159C135.632 44.3349 136.406 44.6444 137.419 44.6444C138.236 44.6444 139.024 44.4053 139.783 43.9271V47.43C139.36 47.6267 138.924 47.7675 138.474 47.8524C138.051 47.9384 137.503 47.9814 136.829 47.9814L136.826 47.9781Z" fill="#808080"/>
<path d="M152.625 48.3152C150.583 48.3152 148.74 47.823 147.096 46.8386C145.465 45.8542 144.185 44.5038 143.256 42.7875C142.356 41.0433 141.905 39.0873 141.905 36.9196C141.905 34.8379 142.327 32.925 143.171 31.1807C144.043 29.4365 145.267 28.0437 146.843 27.0023C148.418 25.9598 150.247 25.4386 152.329 25.4386C154.438 25.4386 156.267 25.9222 157.815 26.8894C159.362 27.818 160.544 29.1119 161.361 30.7713C162.205 32.4317 162.627 34.3307 162.627 36.4683C162.627 36.8906 162.584 37.256 162.498 37.5645H145.49C145.576 39.1958 145.97 40.5747 146.672 41.701C147.375 42.8262 148.262 43.6698 149.332 44.2319C150.428 44.795 151.567 45.0766 152.75 45.0766C155.507 45.0766 157.631 43.7827 159.122 41.1948L162.161 42.6714C161.232 44.4157 159.966 45.7945 158.363 46.808C156.787 47.8203 154.874 48.3265 152.624 48.3265L152.625 48.3152ZM158.829 34.5999C158.773 33.6993 158.52 32.7992 158.071 31.8997C157.62 30.9991 156.902 30.2393 155.919 29.6203C154.952 29.0012 153.743 28.6917 152.292 28.6917C150.604 28.6917 149.17 29.2398 147.988 30.336C146.834 31.4053 146.075 32.8261 145.708 34.5983H158.833L158.829 34.5999ZM166.782 26.1173H170.2V29.5783H170.369C170.792 28.3962 171.607 27.4257 172.816 26.667C174.026 25.8792 175.292 25.4853 176.614 25.4853C177.599 25.4853 178.442 25.6261 179.145 25.9077V29.7895C178.245 29.3382 177.232 29.1125 176.107 29.1125C175.064 29.1125 174.108 29.408 173.237 29.9991C172.364 30.5902 171.666 31.3919 171.141 32.4043C170.636 33.3887 170.384 34.4634 170.384 35.6284V47.6543H166.797V26.1334L166.782 26.1173Z" fill="#808080"/>
<defs>
<linearGradient id="paint0_linear_383_53" x1="27.9125" y1="59.4268" x2="35.3602" y2="51.9791" gradientUnits="userSpaceOnUse">
<stop stop-color="#1A237E" stop-opacity="0.4"/>
<stop offset="1" stop-color="#1A237E" stop-opacity="0"/>
</linearGradient>
<radialGradient id="paint1_radial_383_53" cx="0" cy="0" r="1" gradientUnits="userSpaceOnUse" gradientTransform="translate(1.47464 4.43021) scale(79.5195 79.5195)">
<stop stop-color="white" stop-opacity="0.1"/>
<stop offset="1" stop-color="white" stop-opacity="0"/>
</radialGradient>
</defs>
</svg>
