<svg width="80" height="115" viewBox="0 0 80 115" fill="none" xmlns="http://www.w3.org/2000/svg">
<path d="M1.59446 111V102.273H2.93537V111H1.59446ZM2.27628 100.818C2.01491 100.818 1.78954 100.729 1.60014 100.551C1.41454 100.373 1.32173 100.159 1.32173 99.9091C1.32173 99.6591 1.41454 99.4451 1.60014 99.267C1.78954 99.089 2.01491 99 2.27628 99C2.53764 99 2.76113 99.089 2.94673 99.267C3.13613 99.4451 3.23082 99.6591 3.23082 99.9091C3.23082 100.159 3.13613 100.373 2.94673 100.551C2.76113 100.729 2.53764 100.818 2.27628 100.818ZM15.3913 105.182C15.3913 106.409 15.1697 107.47 14.7266 108.364C14.2834 109.258 13.6754 109.947 12.9027 110.432C12.13 110.917 11.2474 111.159 10.255 111.159C9.26255 111.159 8.37997 110.917 7.60724 110.432C6.83452 109.947 6.22656 109.258 5.78338 108.364C5.3402 107.47 5.11861 106.409 5.11861 105.182C5.11861 103.955 5.3402 102.894 5.78338 102C6.22656 101.106 6.83452 100.417 7.60724 99.9318C8.37997 99.447 9.26255 99.2045 10.255 99.2045C11.2474 99.2045 12.13 99.447 12.9027 99.9318C13.6754 100.417 14.2834 101.106 14.7266 102C15.1697 102.894 15.3913 103.955 15.3913 105.182ZM14.0277 105.182C14.0277 104.174 13.8591 103.324 13.522 102.631C13.1887 101.938 12.736 101.413 12.1641 101.057C11.5959 100.701 10.9595 100.523 10.255 100.523C9.55043 100.523 8.91217 100.701 8.3402 101.057C7.77202 101.413 7.31937 101.938 6.98224 102.631C6.64891 103.324 6.48224 104.174 6.48224 105.182C6.48224 106.189 6.64891 107.04 6.98224 107.733C7.31937 108.426 7.77202 108.951 8.3402 109.307C8.91217 109.663 9.55043 109.841 10.255 109.841C10.9595 109.841 11.5959 109.663 12.1641 109.307C12.736 108.951 13.1887 108.426 13.522 107.733C13.8591 107.04 14.0277 106.189 14.0277 105.182ZM24.1243 102.273C24.0561 101.697 23.7796 101.25 23.2947 100.932C22.8099 100.614 22.2152 100.455 21.5107 100.455C20.9955 100.455 20.5447 100.538 20.1584 100.705C19.7758 100.871 19.4766 101.1 19.2607 101.392C19.0485 101.684 18.9425 102.015 18.9425 102.386C18.9425 102.697 19.0163 102.964 19.1641 103.188C19.3156 103.407 19.5088 103.591 19.7436 103.739C19.9785 103.883 20.2247 104.002 20.4822 104.097C20.7398 104.187 20.9766 104.261 21.1925 104.318L22.3743 104.636C22.6773 104.716 23.0144 104.826 23.3857 104.966C23.7607 105.106 24.1186 105.297 24.4595 105.54C24.8042 105.778 25.0883 106.085 25.3118 106.46C25.5353 106.835 25.647 107.295 25.647 107.841C25.647 108.47 25.4822 109.038 25.1527 109.545C24.8269 110.053 24.3497 110.456 23.7209 110.756C23.0959 111.055 22.3364 111.205 21.4425 111.205C20.6091 111.205 19.8875 111.07 19.2777 110.801C18.6716 110.532 18.1944 110.157 17.8459 109.676C17.5012 109.195 17.3061 108.636 17.2607 108H18.7152C18.7531 108.439 18.9008 108.803 19.1584 109.091C19.4197 109.375 19.7493 109.587 20.147 109.727C20.5485 109.864 20.9804 109.932 21.4425 109.932C21.9804 109.932 22.4633 109.845 22.8913 109.67C23.3194 109.492 23.6584 109.246 23.9084 108.932C24.1584 108.614 24.2834 108.242 24.2834 107.818C24.2834 107.432 24.1754 107.117 23.9595 106.875C23.7436 106.633 23.4595 106.436 23.1072 106.284C22.755 106.133 22.3743 106 21.9652 105.886L20.5334 105.477C19.6243 105.216 18.9046 104.843 18.3743 104.358C17.844 103.873 17.5788 103.239 17.5788 102.455C17.5788 101.803 17.755 101.235 18.1072 100.75C18.4633 100.261 18.9406 99.8826 19.5391 99.6136C20.1413 99.3409 20.8137 99.2045 21.5561 99.2045C22.3061 99.2045 22.9728 99.339 23.5561 99.608C24.1394 99.8731 24.6016 100.237 24.9425 100.699C25.2872 101.161 25.469 101.686 25.4879 102.273H24.1243ZM41.6911 99.3636V111H40.3274L33.9865 101.864H33.8729V111H32.4638V99.3636H33.8274L40.1911 108.523H40.3047V99.3636H41.6911ZM46.897 111.205C46.344 111.205 45.8421 111.1 45.3913 110.892C44.9406 110.68 44.5826 110.375 44.3175 109.977C44.0523 109.576 43.9197 109.091 43.9197 108.523C43.9197 108.023 44.0182 107.617 44.2152 107.307C44.4122 106.992 44.6754 106.746 45.005 106.568C45.3345 106.39 45.6982 106.258 46.0959 106.17C46.4974 106.08 46.9008 106.008 47.3061 105.955C47.8364 105.886 48.2663 105.835 48.5959 105.801C48.9292 105.763 49.1716 105.701 49.3232 105.614C49.4785 105.527 49.5561 105.375 49.5561 105.159V105.114C49.5561 104.553 49.4027 104.117 49.0959 103.807C48.7929 103.496 48.3326 103.341 47.7152 103.341C47.075 103.341 46.5732 103.481 46.2095 103.761C45.8459 104.042 45.5902 104.341 45.4425 104.659L44.1697 104.205C44.397 103.674 44.7 103.261 45.0788 102.966C45.4614 102.667 45.8781 102.458 46.3288 102.341C46.7834 102.22 47.2304 102.159 47.6697 102.159C47.95 102.159 48.272 102.193 48.6357 102.261C49.0031 102.326 49.3572 102.46 49.6982 102.665C50.0429 102.869 50.3288 103.178 50.5561 103.591C50.7834 104.004 50.897 104.557 50.897 105.25V111H49.5561V109.818H49.4879C49.397 110.008 49.2455 110.21 49.0334 110.426C48.8213 110.642 48.5391 110.826 48.1868 110.977C47.8345 111.129 47.4046 111.205 46.897 111.205ZM47.1016 110C47.6319 110 48.0788 109.896 48.4425 109.688C48.8099 109.479 49.0864 109.21 49.272 108.881C49.4614 108.551 49.5561 108.205 49.5561 107.841V106.614C49.4993 106.682 49.3743 106.744 49.1811 106.801C48.9917 106.854 48.772 106.902 48.522 106.943C48.2758 106.981 48.0353 107.015 47.8004 107.045C47.5694 107.072 47.3819 107.095 47.2379 107.114C46.8894 107.159 46.5637 107.233 46.2607 107.335C45.9614 107.434 45.719 107.583 45.5334 107.784C45.3516 107.981 45.2607 108.25 45.2607 108.591C45.2607 109.057 45.433 109.409 45.7777 109.648C46.1262 109.883 46.5675 110 47.1016 110ZM57.1399 102.273V103.409H52.6172V102.273H57.1399ZM53.9354 100.182H55.2763V108.5C55.2763 108.879 55.3312 109.163 55.4411 109.352C55.5547 109.538 55.6986 109.663 55.8729 109.727C56.0509 109.788 56.2384 109.818 56.4354 109.818C56.5831 109.818 56.7043 109.811 56.799 109.795C56.8937 109.777 56.9695 109.761 57.0263 109.75L57.299 110.955C57.2081 110.989 57.0812 111.023 56.9183 111.057C56.7554 111.095 56.549 111.114 56.299 111.114C55.9202 111.114 55.549 111.032 55.1854 110.869C54.8255 110.706 54.5263 110.458 54.2876 110.125C54.0528 109.792 53.9354 109.371 53.9354 108.864V100.182ZM59.157 111V102.273H60.4979V111H59.157ZM59.8388 100.818C59.5774 100.818 59.352 100.729 59.1626 100.551C58.977 100.373 58.8842 100.159 58.8842 99.9091C58.8842 99.6591 58.977 99.4451 59.1626 99.267C59.352 99.089 59.5774 99 59.8388 99C60.1001 99 60.3236 99.089 60.5092 99.267C60.6986 99.4451 60.7933 99.6591 60.7933 99.9091C60.7933 100.159 60.6986 100.373 60.5092 100.551C60.3236 100.729 60.1001 100.818 59.8388 100.818ZM70.0902 102.273L66.8629 111H65.4993L62.272 102.273H63.7266L66.1357 109.227H66.2266L68.6357 102.273H70.0902ZM75.2067 111.182C74.3658 111.182 73.6404 110.996 73.0305 110.625C72.4245 110.25 71.9567 109.727 71.6271 109.057C71.3014 108.383 71.1385 107.598 71.1385 106.705C71.1385 105.811 71.3014 105.023 71.6271 104.341C71.9567 103.655 72.415 103.121 73.0021 102.739C73.593 102.352 74.2824 102.159 75.0703 102.159C75.5249 102.159 75.9737 102.235 76.4169 102.386C76.8601 102.538 77.2635 102.784 77.6271 103.125C77.9908 103.462 78.2805 103.909 78.4964 104.466C78.7124 105.023 78.8203 105.708 78.8203 106.523V107.091H72.093V105.932H77.4567C77.4567 105.439 77.3582 105 77.1612 104.614C76.968 104.227 76.6915 103.922 76.3317 103.699C75.9756 103.475 75.5552 103.364 75.0703 103.364C74.5362 103.364 74.0741 103.496 73.6839 103.761C73.2976 104.023 73.0002 104.364 72.7919 104.784C72.5836 105.205 72.4794 105.655 72.4794 106.136V106.909C72.4794 107.568 72.593 108.127 72.8203 108.585C73.0514 109.04 73.3714 109.386 73.7805 109.625C74.1896 109.86 74.665 109.977 75.2067 109.977C75.5589 109.977 75.8771 109.928 76.1612 109.83C76.4491 109.727 76.6972 109.576 76.9055 109.375C77.1139 109.17 77.2749 108.917 77.3885 108.614L78.6839 108.977C78.5476 109.417 78.3184 109.803 77.9964 110.136C77.6745 110.466 77.2768 110.723 76.8033 110.909C76.3298 111.091 75.7976 111.182 75.2067 111.182Z" fill="#4092BC"/>
<g clip-path="url(#clip0_381_2216)">
<path d="M69.0048 23.0674H10.583V61.9317H69.0048V23.0674Z" fill="#BB67ED" fill-opacity="0.4"/>
<path fill-rule="evenodd" clip-rule="evenodd" d="M68.5957 20.918H64.7773V6.7731C64.7773 3.03842 61.739 0 58.0042 0H21.0817C17.347 0 14.3086 3.03842 14.3086 6.7731V20.918H10.4902C9.11496 20.918 8 22.0329 8 23.4082V61.5918C8 62.9671 9.11496 64.082 10.4902 64.082H14.3086V78.2266C14.3086 81.9614 17.3471 85 21.082 85H58.0039C61.7388 85 64.7773 81.9614 64.7773 78.2266V64.082H68.5957C69.971 64.082 71.0859 62.9671 71.0859 61.5918V23.4082C71.0859 22.0329 69.971 20.918 68.5957 20.918ZM19.2891 6.7731C19.2891 5.78465 20.0933 4.98047 21.0817 4.98047H58.0042C58.9927 4.98047 59.7969 5.78465 59.7969 6.7731V9.96093H19.2891V6.7731ZM19.2891 14.9414H59.7969V20.918H19.2891V14.9414ZM59.7969 78.2266C59.7969 79.2152 58.9926 80.0195 58.0039 80.0195H21.082C20.0934 80.0195 19.2891 79.2152 19.2891 78.2266V64.082H59.7969V78.2266ZM66.1055 59.1016H12.9805V25.8984H66.1055V59.1016ZM50.4902 46.7917C50.4902 46.7917 54.1892 38.2208 42.7823 30.4211C42.7823 30.4211 47.4527 36.3316 45.0494 42.9349C45.0494 42.9349 36.6686 36.9597 32.4522 32.6743C32.4522 32.6743 37.721 40.2963 39.6119 41.8516C39.6119 41.8516 36.4675 40.2148 29.1813 33.982C29.1813 33.982 37.5394 44.9472 41.4801 47.237C41.4801 47.237 35.5172 51.3346 26.7893 45.552C26.7893 45.552 31.3803 53.6842 41.0649 53.6842C43.6205 53.6842 45.1158 52.9097 46.3512 52.2699C47.2206 51.8196 47.9613 51.436 48.8523 51.436C51.0837 51.436 52.4281 53.6842 52.4281 53.6842C53.7303 50.4656 50.4902 46.7917 50.4902 46.7917ZM43.7764 75.0391H35.3096C33.9343 75.0391 32.8194 73.9241 32.8194 72.5488C32.8194 71.1735 33.9343 70.0586 35.3096 70.0586H43.7764C45.1516 70.0586 46.2666 71.1735 46.2666 72.5488C46.2666 73.9241 45.1516 75.0391 43.7764 75.0391Z" fill="url(#paint0_linear_381_2216)"/>
</g>
<defs>
<linearGradient id="paint0_linear_381_2216" x1="32.5332" y1="30.4451" x2="80.5442" y2="76.2896" gradientUnits="userSpaceOnUse">
<stop stop-color="#D47AFF"/>
<stop offset="1" stop-color="#1997AA"/>
</linearGradient>
<clipPath id="clip0_381_2216">
<rect width="63.5263" height="85" fill="white" transform="translate(8)"/>
</clipPath>
</defs>
</svg>
