<svg width="500" height="200" viewBox="0 0 500 200" fill="none" xmlns="http://www.w3.org/2000/svg">
<g clip-path="url(#clip0_322_2)">
<path d="M106.5 116.431C115.804 116.431 123.346 108.851 123.346 99.5005C123.346 90.1502 115.804 82.5703 106.5 82.5703C97.1964 82.5703 89.6543 90.1502 89.6543 99.5005C89.6543 108.851 97.1964 116.431 106.5 116.431Z" fill="#61DAFB"/>
<path d="M106.5 134.187C156.421 134.187 196.891 118.657 196.891 99.5006C196.891 80.344 156.421 64.8145 106.5 64.8145C56.578 64.8145 16.1084 80.344 16.1084 99.5006C16.1084 118.657 56.578 134.187 106.5 134.187Z" stroke="#61DAFB"/>
<path d="M76.6107 116.843C101.572 160.294 135.188 187.753 151.695 178.174C168.203 168.596 161.35 125.608 136.389 82.1573C111.428 38.7069 77.8115 11.2482 61.3042 20.8265C44.7969 30.4048 51.6498 73.3931 76.6107 116.843Z" stroke="#61DAFB"/>
<path d="M76.611 82.1576C51.6501 125.608 44.7972 168.596 61.3045 178.175C77.8118 187.753 111.428 160.294 136.389 116.844C161.35 73.3934 168.203 30.4052 151.696 20.8268C135.188 11.2485 101.572 38.7072 76.611 82.1576Z" stroke="#61DAFB"/>
</g>
<path d="M273.013 59.4994C273.013 53.8217 269.768 50.1718 262.55 50.1718H252.33V69.0704H262.55C269.768 69.0704 273.013 65.096 273.013 59.4994ZM243.083 42.6285H262.55C275.933 42.6285 282.503 50.334 282.503 59.4994C282.503 66.1504 278.934 73.2881 269.444 75.6403L283.395 99H272.364L259.386 76.4514H252.33V99H243.083V42.6285ZM309.093 61.365C302.848 61.365 297.819 65.5827 296.846 72.6392H321.584C321.422 65.7449 315.988 61.365 309.093 61.365ZM330.02 85.698C327.505 93.4845 320.449 99.73 309.499 99.73C296.684 99.73 287.194 90.6457 287.194 76.6136C287.194 62.5816 296.278 53.5784 309.499 53.5784C322.233 53.5784 331.237 62.4194 331.237 75.5592C331.237 77.1003 331.155 78.5603 330.912 80.1014H296.765C297.414 87.4824 302.686 91.9434 309.499 91.9434C315.177 91.9434 318.34 89.1857 320.043 85.698H330.02ZM333.198 76.4514C333.198 62.6627 342.526 53.5784 354.287 53.5784C361.83 53.5784 367.021 57.1472 369.779 60.7972V54.3084H379.107V99H369.779V92.349C366.94 96.1611 361.587 99.73 354.125 99.73C342.526 99.73 333.198 90.2401 333.198 76.4514ZM369.779 76.6136C369.779 67.0427 363.209 61.6083 356.234 61.6083C349.339 61.6083 342.688 66.7993 342.688 76.4514C342.688 86.1035 349.339 91.7001 356.234 91.7001C363.209 91.7001 369.779 86.2657 369.779 76.6136ZM384.114 76.6136C384.114 62.6627 393.198 53.5784 406.014 53.5784C416.963 53.5784 424.101 59.0128 426.616 68.4215H416.639C415.098 64.1227 411.529 61.365 406.014 61.365C398.551 61.365 393.604 66.8804 393.604 76.6136C393.604 86.4279 398.551 91.9434 406.014 91.9434C411.529 91.9434 414.936 89.5101 416.639 84.8869H426.616C424.101 93.6467 416.963 99.73 406.014 99.73C393.198 99.73 384.114 90.6457 384.114 76.6136ZM433.235 86.5902V61.8516H427.963V54.3084H433.235V43.1963H442.563V54.3084H453.431V61.8516H442.563V86.5902C442.563 89.9157 443.86 91.2945 447.754 91.2945H453.431V99H446.131C438.183 99 433.235 95.6745 433.235 86.5902ZM280.151 106.547H289.397V163H280.151L252.33 120.904V163H243.083V106.547H252.33L280.151 148.562V106.547ZM294.402 140.451C294.402 126.663 303.729 117.578 315.49 117.578C323.034 117.578 328.225 121.147 330.982 124.797V118.308H340.31V163H330.982V156.349C328.144 160.161 322.79 163.73 315.328 163.73C303.729 163.73 294.402 154.24 294.402 140.451ZM330.982 140.614C330.982 131.043 324.413 125.608 317.437 125.608C310.543 125.608 303.892 130.799 303.892 140.451C303.892 150.104 310.543 155.7 317.437 155.7C324.413 155.7 330.982 150.266 330.982 140.614ZM349.859 150.59V125.852H344.587V118.308H349.859V107.196H359.187V118.308H370.056V125.852H359.187V150.59C359.187 153.916 360.485 155.295 364.378 155.295H370.056V163H362.756C354.807 163 349.859 159.674 349.859 150.59ZM374.523 163V118.308H383.769V163H374.523ZM379.227 112.387C375.902 112.387 373.306 109.792 373.306 106.466C373.306 103.141 375.902 100.545 379.227 100.545C382.471 100.545 385.067 103.141 385.067 106.466C385.067 109.792 382.471 112.387 379.227 112.387ZM386.581 118.308H396.477L409.13 154.727L421.783 118.308H431.597L414.564 163H403.533L386.581 118.308ZM453.349 125.365C447.103 125.365 442.075 129.583 441.101 136.639H465.84C465.678 129.745 460.243 125.365 453.349 125.365ZM474.275 149.698C471.761 157.485 464.704 163.73 453.754 163.73C440.939 163.73 431.449 154.646 431.449 140.614C431.449 126.582 440.534 117.578 453.754 117.578C466.489 117.578 475.492 126.419 475.492 139.559C475.492 141.1 475.411 142.56 475.167 144.101H441.02C441.669 151.482 446.941 155.943 453.754 155.943C459.432 155.943 462.595 153.186 464.299 149.698H474.275Z" fill="#61DAFB"/>
<defs>
<clipPath id="clip0_322_2">
<rect width="189" height="169" fill="white" transform="translate(12 15)"/>
</clipPath>
</defs>
</svg>
