<svg width="500" height="200" viewBox="0 0 500 200" fill="none" xmlns="http://www.w3.org/2000/svg">
<g clip-path="url(#clip0_38_32)">
<path d="M265.777 25.7459H269.32L279.419 15.6473L279.915 11.3598C274.13 6.25362 267.138 2.70655 259.601 1.05364C252.064 -0.599271 244.23 -0.303453 236.839 1.91315C229.448 4.12975 222.744 8.19395 217.361 13.7218C211.977 19.2497 208.091 26.0588 206.071 33.5059C207.196 33.0447 208.442 32.97 209.614 33.2933L229.812 29.9625C229.812 29.9625 230.839 28.2617 231.371 28.368C235.698 23.6151 241.679 20.6962 248.088 20.2087C254.498 19.7213 260.851 21.7022 265.848 25.7459H265.777Z" fill="#EA4335"/>
<path d="M293.805 33.5058C291.484 24.9579 286.718 17.2734 280.092 11.3951L265.919 25.5687C268.872 27.9823 271.24 31.0352 272.842 34.497C274.444 37.9589 275.239 41.7394 275.167 45.5533V48.0691C276.824 48.0682 278.465 48.3938 279.996 49.0273C281.527 49.6609 282.919 50.5899 284.091 51.7614C285.263 52.9328 286.193 54.3237 286.827 55.8546C287.462 57.3855 287.788 59.0264 287.788 60.6835C287.788 62.3407 287.462 63.9815 286.827 65.5124C286.193 67.0433 285.263 68.4342 284.091 69.6057C282.919 70.7771 281.527 71.7062 279.996 72.3397C278.465 72.9732 276.824 73.2988 275.167 73.2979H249.938L247.422 75.8492V90.9794L249.938 93.4952H275.167C282.212 93.55 289.087 91.3358 294.777 87.1801C300.466 83.0244 304.666 77.1478 306.756 70.4198C308.847 63.6917 308.716 56.4696 306.384 49.8216C304.051 43.1736 299.641 37.4529 293.805 33.5058Z" fill="#4285F4"/>
<path d="M224.674 93.3535H249.903V73.1562H224.674C222.876 73.1558 221.1 72.7691 219.465 72.0223L215.922 73.1208L205.752 83.2194L204.866 86.7628C210.569 91.0691 217.528 93.3845 224.674 93.3535Z" fill="#34A853"/>
<path d="M224.674 27.8366C217.838 27.8775 211.186 30.0523 205.646 34.0574C200.106 38.0625 195.955 43.6978 193.774 50.1763C191.592 56.6547 191.489 63.6528 193.477 70.1931C195.466 76.7334 199.448 82.4892 204.866 86.6567L219.5 72.0226C217.641 71.1823 216.013 69.9035 214.756 68.2958C213.499 66.688 212.651 64.7993 212.285 62.7918C211.918 60.7843 212.044 58.7178 212.652 56.7698C213.26 54.8217 214.331 53.0502 215.774 51.6072C217.217 50.1642 218.989 49.0928 220.937 48.485C222.885 47.8772 224.951 47.7511 226.959 48.1175C228.967 48.4839 230.855 49.3319 232.463 50.5887C234.071 51.8455 235.35 53.4736 236.19 55.3332L250.824 40.6991C247.752 36.6836 243.793 33.433 239.257 31.2017C234.72 28.9703 229.729 27.8186 224.674 27.8366Z" fill="#FBBC05"/>
<path d="M112.259 187.307C109.347 187.344 106.458 186.793 103.764 185.687C101.07 184.581 98.6269 182.943 96.5813 180.87C94.4714 178.885 92.7969 176.484 91.6643 173.818C90.5316 171.152 89.9654 168.279 90.0016 165.383C89.9669 162.486 90.5337 159.614 91.6663 156.949C92.7989 154.283 94.4725 151.881 96.5813 149.895C98.6169 147.801 101.055 146.141 103.75 145.014C106.444 143.887 109.338 143.318 112.259 143.339C115.041 143.302 117.804 143.819 120.385 144.859C122.966 145.898 125.315 147.441 127.295 149.397L123.067 153.696C120.171 150.898 116.285 149.36 112.259 149.42C110.17 149.395 108.099 149.804 106.177 150.622C104.255 151.439 102.524 152.648 101.095 154.171C99.6086 155.645 98.4365 157.405 97.6486 159.344C96.8607 161.283 96.4735 163.361 96.5101 165.454C96.4926 167.523 96.8893 169.574 97.6766 171.487C98.4639 173.401 99.626 175.137 101.095 176.594C104.036 179.526 108.006 181.193 112.158 181.242C116.311 181.291 120.318 179.717 123.328 176.856C125.191 174.815 126.334 172.22 126.582 169.468H112.33V163.387H132.497C132.695 164.612 132.775 165.853 132.734 167.093C132.86 169.659 132.463 172.224 131.569 174.633C130.675 177.042 129.302 179.245 127.532 181.108C125.565 183.156 123.188 184.767 120.556 185.835C117.925 186.903 115.097 187.405 112.259 187.307ZM159.148 183.269C156.442 185.863 152.838 187.312 149.089 187.312C145.34 187.312 141.736 185.863 139.029 183.269C137.682 181.963 136.621 180.391 135.914 178.653C135.206 176.915 134.868 175.049 134.92 173.174C134.869 171.298 135.208 169.433 135.916 167.695C136.623 165.958 137.683 164.386 139.029 163.079C141.738 160.49 145.341 159.045 149.089 159.045C152.836 159.045 156.439 160.49 159.148 163.079C160.494 164.386 161.554 165.958 162.262 167.695C162.969 169.433 163.308 171.298 163.258 173.174C163.307 175.051 162.964 176.918 162.253 178.656C161.541 180.394 160.476 181.965 159.125 183.269H159.148ZM143.471 179.302C144.191 180.071 145.061 180.684 146.027 181.103C146.993 181.522 148.035 181.738 149.089 181.738C150.142 181.738 151.184 181.522 152.15 181.103C153.117 180.684 153.987 180.071 154.706 179.302C155.491 178.491 156.106 177.531 156.514 176.478C156.922 175.426 157.115 174.302 157.082 173.174C157.117 172.042 156.925 170.914 156.517 169.857C156.109 168.801 155.493 167.837 154.706 167.022C153.977 166.261 153.101 165.655 152.132 165.242C151.162 164.828 150.119 164.615 149.065 164.615C148.011 164.615 146.968 164.828 145.998 165.242C145.029 165.655 144.153 166.261 143.423 167.022C142.637 167.837 142.021 168.801 141.613 169.857C141.205 170.914 141.013 172.042 141.048 173.174C141.018 174.304 141.215 175.428 141.627 176.481C142.039 177.534 142.658 178.493 143.447 179.302H143.471ZM190.075 183.269C187.369 185.864 183.765 187.312 180.016 187.312C176.267 187.312 172.663 185.864 169.956 183.269C168.609 181.963 167.548 180.391 166.841 178.653C166.133 176.915 165.795 175.049 165.847 173.174C165.796 171.298 166.136 169.433 166.843 167.695C167.55 165.958 168.61 164.386 169.956 163.079C172.663 160.484 176.267 159.036 180.016 159.036C183.765 159.036 187.369 160.484 190.075 163.079C191.421 164.386 192.481 165.958 193.189 167.695C193.896 169.433 194.235 171.298 194.185 173.174C194.237 175.049 193.898 176.915 193.191 178.653C192.483 180.391 191.423 181.963 190.075 183.269ZM174.398 179.302C175.118 180.071 175.988 180.684 176.954 181.103C177.921 181.522 178.963 181.738 180.016 181.738C181.069 181.738 182.111 181.522 183.077 181.103C184.044 180.684 184.914 180.071 185.633 179.302C186.418 178.491 187.033 177.531 187.441 176.478C187.849 175.426 188.042 174.302 188.009 173.174C188.044 172.042 187.852 170.914 187.444 169.857C187.036 168.801 186.42 167.837 185.633 167.022C184.904 166.261 184.028 165.655 183.059 165.242C182.089 164.828 181.046 164.615 179.992 164.615C178.938 164.615 177.895 164.828 176.925 165.242C175.956 165.655 175.08 166.261 174.351 167.022C173.564 167.837 172.948 168.801 172.54 169.857C172.132 170.914 171.94 172.042 171.975 173.174C171.945 174.304 172.142 175.428 172.554 176.481C172.966 177.534 173.585 178.493 174.374 179.302H174.398ZM210.409 199.992C207.561 200.082 204.769 199.193 202.499 197.474C200.482 195.958 198.894 193.944 197.89 191.63L203.306 189.374C203.896 190.757 204.818 191.973 205.99 192.913C207.246 193.925 208.821 194.456 210.432 194.41C211.454 194.472 212.478 194.313 213.433 193.944C214.388 193.575 215.252 193.005 215.967 192.272C217.398 190.546 218.105 188.332 217.938 186.096V184.053H217.725C216.819 185.128 215.676 185.978 214.386 186.534C213.095 187.091 211.693 187.339 210.29 187.26C208.506 187.265 206.741 186.901 205.106 186.189C203.47 185.478 202 184.435 200.788 183.127C199.473 181.829 198.435 180.277 197.737 178.567C197.039 176.856 196.695 175.021 196.726 173.174C196.694 171.316 197.037 169.47 197.735 167.747C198.433 166.025 199.471 164.461 200.788 163.15C201.997 161.836 203.466 160.788 205.102 160.072C206.738 159.357 208.504 158.989 210.29 158.993C211.801 158.99 213.293 159.323 214.66 159.967C215.843 160.483 216.897 161.254 217.749 162.223H217.962V159.967H223.853V185.264C224.008 187.266 223.753 189.277 223.104 191.177C222.454 193.076 221.424 194.823 220.076 196.31C218.792 197.538 217.275 198.497 215.615 199.129C213.955 199.761 212.184 200.055 210.409 199.992ZM210.836 181.749C211.85 181.771 212.857 181.57 213.785 181.159C214.713 180.749 215.539 180.139 216.204 179.374C217.67 177.694 218.443 175.52 218.366 173.293C218.454 171.027 217.682 168.813 216.204 167.093C215.54 166.326 214.714 165.715 213.786 165.305C212.858 164.894 211.851 164.694 210.836 164.718C209.794 164.696 208.759 164.897 207.801 165.307C206.843 165.716 205.983 166.325 205.278 167.093C203.707 168.751 202.853 170.962 202.902 173.245C202.878 174.365 203.076 175.479 203.483 176.523C203.891 177.566 204.501 178.519 205.278 179.326C205.979 180.101 206.838 180.718 207.796 181.136C208.754 181.554 209.791 181.763 210.836 181.749ZM234.328 144.931V186.452H228.129V144.931H234.328ZM251.336 187.307C249.479 187.355 247.633 187.019 245.912 186.32C244.191 185.621 242.633 184.574 241.336 183.245C240.019 181.926 238.984 180.353 238.294 178.622C237.604 176.891 237.273 175.037 237.321 173.174C237.251 171.306 237.558 169.443 238.223 167.697C238.888 165.95 239.898 164.355 241.193 163.007C242.413 161.721 243.889 160.704 245.525 160.021C247.161 159.337 248.922 159.004 250.695 159.04C252.325 159.023 253.941 159.339 255.445 159.967C256.8 160.514 258.035 161.321 259.08 162.342C259.977 163.208 260.773 164.172 261.455 165.216C262.006 166.098 262.475 167.028 262.856 167.996L263.498 169.611L244.495 177.426C245.07 178.746 246.031 179.862 247.252 180.625C248.473 181.388 249.897 181.763 251.336 181.701C252.736 181.705 254.113 181.346 255.333 180.659C256.552 179.972 257.573 178.981 258.296 177.782L263.046 180.989C261.834 182.723 260.283 184.194 258.486 185.312C256.349 186.662 253.863 187.356 251.336 187.307ZM243.402 172.746L256.039 167.497C255.65 166.571 254.954 165.808 254.068 165.335C253.076 164.775 251.953 164.488 250.813 164.504C248.88 164.554 247.045 165.365 245.706 166.76C244.905 167.527 244.283 168.461 243.885 169.496C243.487 170.531 243.322 171.64 243.402 172.746Z" fill="#5F6368"/>
<path d="M295.969 187.307C293.332 187.353 290.714 186.865 288.27 185.873C285.827 184.882 283.609 183.406 281.75 181.536C279.891 179.666 278.429 177.439 277.451 174.99C276.474 172.541 276.002 169.919 276.063 167.283C276.002 164.647 276.474 162.025 277.451 159.576C278.429 157.127 279.891 154.9 281.75 153.03C283.609 151.16 285.827 149.684 288.27 148.693C290.714 147.701 293.332 147.213 295.969 147.259C298.637 147.175 301.29 147.696 303.73 148.782C306.169 149.868 308.331 151.491 310.055 153.53L306.634 156.855C305.369 155.263 303.745 153.993 301.896 153.147C300.047 152.3 298.024 151.903 295.993 151.986C294.037 151.942 292.092 152.293 290.275 153.02C288.459 153.747 286.808 154.833 285.422 156.214C283.981 157.663 282.855 159.394 282.116 161.299C281.376 163.204 281.038 165.241 281.123 167.283C281.038 169.325 281.376 171.362 282.116 173.267C282.855 175.172 283.981 176.903 285.422 178.352C286.808 179.733 288.459 180.819 290.275 181.546C292.092 182.272 294.037 182.624 295.993 182.58C298.263 182.606 300.509 182.119 302.565 181.157C304.622 180.195 306.434 178.781 307.869 177.022L311.29 180.442C309.499 182.584 307.251 184.297 304.71 185.454C301.972 186.719 298.985 187.352 295.969 187.307Z" fill="#5F6368"/>
<path d="M320.483 186.452H315.565V148.09H320.483V186.452Z" fill="#5F6368"/>
<path d="M328.511 163.364C331.088 160.805 334.572 159.369 338.203 159.369C341.834 159.369 345.318 160.805 347.894 163.364C349.154 164.694 350.138 166.26 350.791 167.972C351.443 169.684 351.75 171.509 351.695 173.34C351.75 175.171 351.443 176.996 350.791 178.708C350.138 180.42 349.154 181.986 347.894 183.317C345.318 185.875 341.834 187.311 338.203 187.311C334.572 187.311 331.088 185.875 328.511 183.317C327.251 181.986 326.267 180.42 325.615 178.708C324.962 176.996 324.655 175.171 324.711 173.34C324.655 171.509 324.962 169.684 325.615 167.972C326.267 166.26 327.251 164.694 328.511 163.364ZM332.169 180.229C332.944 181.047 333.877 181.699 334.913 182.145C335.948 182.591 337.063 182.821 338.191 182.821C339.318 182.821 340.433 182.591 341.469 182.145C342.504 181.699 343.437 181.047 344.212 180.229C345.072 179.306 345.739 178.222 346.175 177.04C346.612 175.857 346.808 174.599 346.754 173.34C346.808 172.081 346.612 170.823 346.175 169.64C345.739 168.458 345.072 167.374 344.212 166.451C343.437 165.633 342.504 164.981 341.469 164.535C340.433 164.089 339.318 163.859 338.191 163.859C337.063 163.859 335.948 164.089 334.913 164.535C333.877 164.981 332.944 165.633 332.169 166.451C331.31 167.374 330.642 168.458 330.206 169.64C329.77 170.823 329.573 172.081 329.628 173.34C329.58 174.597 329.782 175.851 330.222 177.03C330.662 178.208 331.332 179.287 332.193 180.205L332.169 180.229Z" fill="#5F6368"/>
<path d="M378.94 186.452H374.189V182.818H374.048C373.203 184.198 372.006 185.329 370.58 186.096C369.101 186.953 367.42 187.404 365.71 187.402C364.322 187.497 362.93 187.277 361.639 186.759C360.347 186.241 359.189 185.437 358.252 184.409C356.452 182.133 355.548 179.277 355.71 176.38V160.228H360.627V175.478C360.627 180.371 362.789 182.818 367.112 182.818C368.073 182.848 369.026 182.648 369.894 182.235C370.762 181.821 371.518 181.207 372.1 180.442C373.375 178.827 374.054 176.822 374.024 174.765V160.228H378.941L378.94 186.452Z" fill="#5F6368"/>
<path d="M395.639 187.307C393.971 187.313 392.322 186.957 390.805 186.264C389.287 185.571 387.938 184.557 386.85 183.293C384.388 180.573 383.069 177.008 383.168 173.34C383.069 169.672 384.388 166.107 386.85 163.387C387.938 162.123 389.287 161.109 390.805 160.416C392.322 159.723 393.971 159.367 395.639 159.373C397.508 159.343 399.354 159.784 401.007 160.656C402.46 161.387 403.691 162.494 404.57 163.862H404.784L404.57 160.228V148.09H409.487V186.452H404.737V182.818H404.523C403.643 184.186 402.413 185.293 400.96 186.024C399.32 186.888 397.492 187.329 395.639 187.307ZM396.447 182.818C397.558 182.834 398.66 182.613 399.68 182.171C400.7 181.729 401.614 181.075 402.361 180.252C404.032 178.35 404.885 175.867 404.737 173.34C404.885 170.813 404.032 168.33 402.361 166.428C401.609 165.601 400.692 164.94 399.669 164.488C398.647 164.036 397.541 163.802 396.423 163.802C395.305 163.802 394.199 164.036 393.176 164.488C392.154 164.94 391.237 165.601 390.484 166.428C389.655 167.363 389.018 168.453 388.61 169.635C388.203 170.817 388.032 172.068 388.109 173.316C388.032 174.564 388.203 175.815 388.61 176.997C389.018 178.179 389.655 179.269 390.484 180.205C391.233 181.042 392.153 181.709 393.182 182.159C394.21 182.61 395.324 182.835 396.447 182.818Z" fill="#5F6368"/>
</g>
<defs>
<clipPath id="clip0_38_32">
<rect width="500" height="200" fill="white"/>
</clipPath>
</defs>
</svg>
