<svg width="117" height="33" viewBox="0 0 117 33" fill="none" xmlns="http://www.w3.org/2000/svg">
<path d="M48.8955 22.6299V21.6219H50.3095V13.5579H48.8955V12.5499H52.9415V13.5579H51.5285V21.6219H52.9425V22.6299H48.8955ZM55.1535 12.5499H59.2975C60.9635 12.5499 61.9855 13.5719 61.9855 15.1539C61.9855 16.6519 61.0195 17.1839 60.3475 17.2959V17.3799C61.0755 17.4219 62.3215 18.0379 62.3215 19.7179C62.3215 21.3839 61.2155 22.6299 59.7175 22.6299H55.1385L55.1535 12.5499ZM56.3575 16.9039H59.1435C60.0955 16.9039 60.6695 16.3999 60.6695 15.5039V15.0039C60.6695 14.1079 60.0955 13.6039 59.1435 13.6039H56.3585L56.3575 16.9039ZM56.3575 21.5519H59.3535C60.3895 21.5519 61.0335 21.0059 61.0335 19.9979V19.4979C61.0335 18.4899 60.4035 17.9439 59.3535 17.9439H56.3585L56.3575 21.5519ZM72.4155 14.1319H72.3455L71.4915 15.8259L69.0835 20.2219L66.6895 15.8259L65.8355 14.1459H65.7655V22.6299H64.5655V12.5499H66.1485L69.0325 17.9819H69.0885L71.9865 12.5499H73.5685V22.6299H72.4065L72.4155 14.1319ZM78.4915 17.6599C78.4915 14.2579 80.2415 12.3679 82.9575 12.3679C84.8055 12.3679 85.9955 13.1239 86.7235 14.7339L84.8235 15.7139C84.5575 14.8739 84.0255 14.3139 82.9475 14.3139C81.6595 14.3139 80.8055 15.1819 80.8055 16.7639V18.3879C80.8055 19.9699 81.6595 20.8379 82.9475 20.8379C84.0255 20.8379 84.6555 20.1659 84.9495 19.3399L86.7415 20.3759C85.9855 21.9019 84.7955 22.7839 82.9475 22.7839C80.2315 22.7979 78.4815 21.0619 78.4815 17.6599H78.4915ZM90.2935 22.6299C88.8375 22.6299 88.1655 21.8879 88.1655 20.5439V11.9439H90.3075V20.9739H91.2595V22.6399L90.2935 22.6299ZM92.0715 18.8219C92.0715 16.3859 93.4015 14.8599 95.6275 14.8599C97.8535 14.8599 99.1835 16.3719 99.1835 18.8219C99.1835 21.2579 97.8535 22.7979 95.6275 22.7979C93.4015 22.7979 92.0715 21.2719 92.0715 18.8219ZM96.9575 19.6059V18.0659C96.9575 17.1139 96.4575 16.5679 95.6275 16.5679C94.7975 16.5679 94.2975 17.1139 94.2975 18.0659V19.6059C94.2975 20.5579 94.7975 21.1039 95.6275 21.1039C96.4575 21.1039 96.9575 20.5579 96.9575 19.6059ZM105.176 21.3559H105.106C104.84 22.1259 104.224 22.7979 102.978 22.7979C101.438 22.7979 100.612 21.7199 100.612 19.8019V15.0419H102.754V19.6199C102.754 20.5439 103.062 21.0619 103.832 21.0619C104.49 21.0619 105.176 20.6839 105.176 19.9699V15.0419H107.318V22.6299H105.176V21.3559ZM113.954 21.3559H113.884C113.684 22.1819 112.834 22.7979 111.854 22.7979C109.936 22.7979 108.942 21.3979 108.942 18.8219C108.942 16.2459 109.936 14.8599 111.854 14.8599C112.834 14.8599 113.674 15.4619 113.884 16.3019H113.954V11.9199H116.096V22.6019H113.954V21.3559ZM113.954 19.9559V17.7159C113.954 17.0159 113.366 16.6099 112.554 16.6099C111.742 16.6099 111.154 17.2259 111.154 18.1779V19.4839C111.154 20.4359 111.742 21.0519 112.554 21.0519C113.366 21.0519 113.954 20.6319 113.954 19.9459V19.9559Z" fill="black"/>
<path fill-rule="evenodd" clip-rule="evenodd" d="M4.94423 13.1649C4.8251 13.1649 4.70597 13.1252 4.58684 13.0656L1.25118 11.1397C0.933501 10.9808 0.794515 10.6036 0.913645 10.266C1.05263 9.90864 1.44973 9.71009 1.82698 9.84908L1.94611 9.90864L5.28177 11.8346C5.61931 12.0133 5.75829 12.4501 5.5796 12.7876C5.46047 13.0259 5.22221 13.1649 4.94423 13.1649ZM10.7221 7.4069C10.464 7.4069 10.2456 7.26791 10.1066 7.0495L8.18062 3.71385C8.00192 3.41602 8.06149 3.01892 8.3196 2.78065C8.61743 2.52254 9.05424 2.56225 9.31236 2.86007C9.32229 2.87993 9.33718 2.89482 9.35207 2.90971L9.35208 2.90972C9.36697 2.92461 9.38186 2.9395 9.39178 2.95935L11.3177 6.29501C11.5163 6.61269 11.4369 7.02965 11.139 7.26791C11 7.36719 10.8611 7.4069 10.7221 7.4069ZM17.8699 4.54776V0.755433C17.8699 0.35833 18.1479 0.0406477 18.545 0.000937483C18.9421 -0.0189176 19.2598 0.278909 19.2796 0.676012V4.60733C19.2796 5.00443 18.9619 5.32211 18.5648 5.32211H18.5251C18.1677 5.26254 17.8699 4.92501 17.8699 4.54776ZM26.4473 7.4069C26.3083 7.4069 26.1694 7.36719 26.0502 7.28777C25.7524 7.06936 25.673 6.63255 25.8715 6.31487L27.7975 2.97921C27.996 2.64167 28.4328 2.52254 28.7704 2.72109C28.8101 2.74094 28.8498 2.7608 28.8696 2.80051C29.1278 3.03877 29.1873 3.43587 29.0086 3.7337L27.0827 7.06936C26.9437 7.26791 26.7054 7.4069 26.4473 7.4069ZM32.2053 13.1649C31.9472 13.1649 31.7089 13.0259 31.5699 12.7876C31.4111 12.4302 31.5302 12.0133 31.8678 11.8346L35.1637 9.9285C35.4616 9.7498 35.8388 9.80937 36.0771 10.0675C36.3352 10.3653 36.2955 10.8021 35.9976 11.0602C35.9778 11.0702 35.9629 11.0851 35.948 11.1C35.9331 11.1148 35.9182 11.1297 35.8984 11.1397L32.523 13.0855C32.4634 13.1252 32.3443 13.1649 32.2053 13.1649ZM9.63006 29.2873C6.65785 26.3151 5.47249 22.2306 6.07397 18.3711C3.34503 19.2687 1.42785 21.8229 1.41005 24.7603L0.000339321 24.7404C0.0195239 20.9035 2.70798 17.6227 6.41793 16.8144C6.99132 14.8236 8.06203 12.946 9.63006 11.378C14.574 6.43403 22.5955 6.43403 27.5394 11.378C27.8976 11.7362 28.2356 12.114 28.552 12.5097C28.7704 12.7877 28.9689 13.0656 29.1675 13.3635L28.6859 13.6818C31.0331 13.9459 33.2266 15.0646 34.8262 16.8381L33.7739 17.7713C30.736 14.3761 25.4943 14.0782 22.099 17.1161C20.3717 18.7045 19.359 20.9283 19.3392 23.2513L17.9295 23.2315C17.9691 17.9072 22.31 13.6089 27.6282 13.6213C27.5671 13.5404 27.5047 13.4608 27.4401 13.3833C27.1621 13.0259 26.8643 12.6884 26.5466 12.3707C22.1586 7.98273 15.0307 7.98273 10.6228 12.3707C6.23484 16.7587 6.23484 23.8867 10.6228 28.2945L9.63006 29.2873ZM8.12107 33.0001H27.6188C30.0014 33.0001 32.2847 32.1265 34.0717 30.5579C38.0427 27.0039 38.3803 20.8885 34.8262 16.8976L33.7739 17.8308C35.124 19.3596 35.8785 21.3253 35.8785 23.3505C35.8587 27.9172 32.1656 31.6102 27.5989 31.6102H8.12107C4.3883 31.5705 1.39018 28.5128 1.41004 24.7801L0.000322415 24.7602C-0.0393878 29.2872 3.5941 32.9604 8.12107 33.0001Z" fill="url(#paint0_linear_2511_882)"/>
<defs>
<linearGradient id="paint0_linear_2511_882" x1="0.595654" y1="29.9813" x2="31.8675" y2="4.56676" gradientUnits="userSpaceOnUse">
<stop stop-color="#0064FF"/>
<stop offset="1" stop-color="#4DF8D4"/>
</linearGradient>
</defs>
</svg>
