<svg width="500" height="200" viewBox="0 0 500 200" fill="none" xmlns="http://www.w3.org/2000/svg">
<path d="M104.645 115.458C113.263 115.458 120.25 108.472 120.25 99.8536C120.25 91.2354 113.263 84.249 104.645 84.249C96.0268 84.249 89.0404 91.2354 89.0404 99.8536C89.0404 108.472 96.0268 115.458 104.645 115.458Z" fill="#00D8FF"/>
<path fill-rule="evenodd" clip-rule="evenodd" d="M104.645 68.126C125.597 68.126 145.06 71.1323 159.735 76.1844C177.416 82.2717 188.288 91.4985 188.288 99.8534C188.288 108.56 176.766 118.362 157.779 124.653C143.424 129.409 124.533 131.892 104.645 131.892C84.2545 131.892 64.9456 129.561 50.4287 124.601C32.0623 118.323 21 108.394 21 99.8534C21 91.5663 31.3798 82.4108 48.8128 76.3328C63.5427 71.1973 83.4865 68.126 104.642 68.126H104.645Z" stroke="#00D8FF" stroke-width="1.66272"/>
<path fill-rule="evenodd" clip-rule="evenodd" d="M77.0256 84.0811C87.4926 65.9317 99.8196 50.5732 111.528 40.3843C125.634 28.1083 139.058 23.3007 146.295 27.4741C153.838 31.8235 156.573 46.7015 152.537 66.2922C149.489 81.104 142.2 98.7077 132.264 115.936C122.077 133.6 110.413 149.163 98.8641 159.257C84.2508 172.032 70.1227 176.655 62.7243 172.388C55.5452 168.251 52.7999 154.683 56.2439 136.544C59.1538 121.219 66.4564 102.408 77.0222 84.0808L77.0256 84.0811Z" stroke="#00D8FF" stroke-width="1.66272"/>
<path fill-rule="evenodd" clip-rule="evenodd" d="M77.0518 115.983C66.5553 97.8539 59.4088 79.5002 56.4258 64.2686C52.835 45.9165 55.3739 31.8849 62.6046 27.6993C70.1395 23.3371 84.3954 28.3973 99.3524 41.6781C110.661 51.7189 122.273 66.8227 132.238 84.0351C142.454 101.682 150.111 119.56 153.09 134.607C156.859 153.647 153.808 168.195 146.417 172.474C139.245 176.626 126.12 172.23 112.126 160.188C100.302 150.013 87.6518 134.292 77.0518 115.982V115.983Z" stroke="#00D8FF" stroke-width="1.66272"/>
<path fill-rule="evenodd" clip-rule="evenodd" d="M277.86 139.722L258.733 110.825C268.4 109.972 277.11 102.968 277.11 90.1723C277.11 77.1519 267.87 68.8188 254.908 68.8188H226.443V139.668H235.26V111.517H249.39L267.448 139.668L277.86 139.722ZM253.853 103.817H235.265V76.7299H253.853C262.249 76.7299 267.982 82.2523 267.982 90.2217C267.982 98.1911 262.244 103.826 253.853 103.826V103.817ZM310.685 140.992C319.081 140.992 325.981 138.231 331.082 133.135L327.256 127.927C323.216 132.071 317.271 134.406 311.43 134.406C300.385 134.406 293.583 126.333 292.945 116.671H334.476V114.651C334.476 99.2507 325.339 87.1372 309.827 87.1372C295.168 87.1372 284.549 99.1429 284.549 114.013C284.549 130.055 295.491 140.952 310.68 140.952L310.685 140.992ZM326.623 110.821H292.95C293.376 102.964 298.787 93.7148 309.733 93.7148C321.42 93.7148 326.516 103.17 326.623 110.821ZM387.388 139.717V104.45C387.388 92.0221 378.364 87.1327 367.525 87.1327C359.13 87.1327 352.547 89.894 347.025 95.6319L350.743 101.154C355.309 96.2695 360.306 94.038 366.466 94.038C373.901 94.038 379.428 97.9666 379.428 104.872V114.112C375.284 109.33 369.443 107.099 362.43 107.099C353.719 107.099 344.47 112.518 344.47 123.989C344.47 135.142 353.71 140.988 362.43 140.988C369.335 140.988 375.181 138.545 379.428 133.872V139.708L387.388 139.717ZM365.298 135.254C357.863 135.254 352.655 130.585 352.655 124.102C352.655 117.515 357.863 112.841 365.298 112.841C370.929 112.841 376.343 114.965 379.428 119.217V128.883C376.348 133.131 370.929 135.254 365.298 135.254ZM425.911 140.992C435.258 140.992 440.781 137.167 444.714 132.071L439.403 127.186C436.004 131.752 431.649 133.876 426.382 133.876C415.441 133.876 408.647 125.377 408.647 114.013C408.647 102.649 415.445 94.258 426.382 94.258C431.694 94.258 436.049 96.2784 439.403 100.948L444.714 96.0629C440.785 90.9625 435.258 87.1417 425.911 87.1417C410.614 87.1417 400.31 98.8287 400.31 114.018C400.31 129.314 410.614 140.956 425.911 140.956V140.992ZM468.833 140.992C473.503 140.992 476.376 139.609 478.396 137.701L476.062 131.752C474.998 132.92 472.919 133.876 470.643 133.876C467.141 133.876 465.434 131.115 465.434 127.289V95.4209H475.851V88.4123H465.434V74.3907H457.465V88.4123H448.966V95.4254H457.465V128.996C457.465 136.646 461.29 141.001 468.833 141.001V140.992Z" fill="#00D8FF"/>
</svg>
