<svg width="110" height="32" viewBox="0 0 110 32" fill="none" xmlns="http://www.w3.org/2000/svg">
<path d="M12.8304 17.1539L16.8904 14.7979L20.8904 17.1539L16.8904 19.4599L12.8304 17.2039V17.1539ZM0.648438 10.1859L16.8984 0.960938L28.9784 7.82894L24.9784 14.7969L16.9084 10.1849L4.72844 17.1029L0.648438 10.1859Z" fill="#F6BD3A"/>
<path d="M12.8309 26.3763V21.7643L16.8309 19.4583L20.8909 17.1523V21.7643L16.8909 24.0703V28.6823L12.8309 31.0383V26.3763ZM12.8309 17.1533L8.77094 14.8473L4.71094 17.1033V12.4903L16.8909 5.57227V14.7963L12.8309 17.1533ZM24.9109 12.4913V10.1853L28.9709 7.82927L29.0209 12.4413L24.9609 14.7973L24.9109 12.4913Z" fill="#EB8C23"/>
<path d="M8.76844 28.5813V14.8463L12.7684 12.5903L12.8184 17.1523L16.8784 19.4083V24.0703L12.8184 21.9143V31.0373L8.76844 28.5813ZM2.65444 15.8993L0.648438 14.6963V10.1863L4.70844 12.4923V17.1043L2.65444 15.8993ZM16.8904 10.1843V5.57227L24.9104 10.1843L24.9604 14.7963L16.8904 10.1843Z" fill="#E35A2B"/>
<path d="M36.8268 11.7772V22.3772H34.9638V11.7772H31.3438V9.94922H40.4438V11.7762L36.8268 11.7772ZM46.6118 15.6272C46.7257 16.0882 46.7765 16.5625 46.7628 17.0372L40.7518 18.8192C40.7988 19.2692 40.7858 19.0862 40.9268 19.4062C41.0678 19.7262 41.2468 19.9882 41.4588 20.2062C41.6708 20.4242 41.9088 20.5662 42.1588 20.6662C42.4088 20.7662 42.6958 20.8182 42.9748 20.8162C43.3748 20.8162 43.7228 20.7512 44.0478 20.6212C44.3879 20.4824 44.7072 20.2974 44.9967 20.0712L46.0788 21.2412C45.6786 21.6275 45.209 21.9345 44.6948 22.1462C44.1848 22.3592 43.5768 22.4662 42.8678 22.4662C42.3339 22.4683 41.8055 22.3597 41.3158 22.1472C40.8158 21.9342 40.3958 21.6212 40.0298 21.2072C39.6638 20.7932 39.3738 20.2852 39.1598 19.6812C38.9458 19.0772 38.8398 18.3812 38.8398 17.6232C38.8398 16.8312 38.9398 16.1232 39.1418 15.5302C39.3438 14.9372 39.6217 14.4302 39.9757 14.0132C40.327 13.6079 40.7671 13.2893 41.2617 13.0822C41.7875 12.8649 42.3519 12.7564 42.9207 12.7632C43.5827 12.7632 44.1607 12.8872 44.6507 13.1362C45.1407 13.3852 45.5508 13.7222 45.8748 14.1362C46.2117 14.5845 46.4586 15.0939 46.6017 15.6362L46.6118 15.6272ZM44.8647 16.0472C44.8407 15.7272 44.6208 15.3472 44.4388 15.0942C44.2672 14.8682 44.0373 14.6933 43.7738 14.5882C43.5018 14.4802 43.1318 14.4352 42.8068 14.4482C42.2068 14.4752 41.5068 14.6862 41.1748 15.1482C40.8428 15.6102 40.7378 16.4112 40.7508 17.2652L44.8647 16.0472ZM53.3618 22.2612V16.9912C53.3618 16.0452 53.1918 15.3912 52.8558 15.0042C52.5198 14.6172 52.0487 14.4362 51.4557 14.4362C50.8407 14.4362 50.3678 14.6432 50.0358 15.0562C49.7038 15.4692 49.5387 16.0562 49.5387 16.8122V22.2582H47.7018V12.9482H49.5288V13.8352C49.7658 13.4922 50.0938 13.2352 50.5138 13.0372C50.9338 12.8392 51.3858 12.7532 51.8708 12.7532C52.9588 12.7532 53.7838 13.1032 54.3458 13.8002C54.9078 14.4972 55.1888 15.5402 55.1888 16.9222V22.2622L53.3618 22.2612ZM62.6938 19.8132C62.6938 20.3332 62.5958 20.7682 62.4008 21.1172C62.2151 21.4563 61.9502 21.7455 61.6287 21.9602C61.3087 22.1732 60.9288 22.3272 60.5288 22.4202C60.0947 22.5164 59.6513 22.564 59.2068 22.5622C58.5668 22.5622 57.9328 22.4502 57.2998 22.2252C56.7088 22.0221 56.1501 21.7351 55.6408 21.3732L56.4648 19.9992C56.8804 20.2956 57.3377 20.5288 57.8218 20.6912C58.2888 20.8452 58.7418 20.9212 59.1788 20.9212C60.3138 20.9212 60.8817 20.5782 60.8817 19.8912C60.8817 19.5362 60.6898 19.2512 60.3058 19.0412C59.9218 18.8312 59.3918 18.5912 58.7178 18.3412C58.2817 18.1802 57.8579 17.9877 57.4498 17.7652C57.1018 17.5692 56.8168 17.3602 56.5978 17.1352C56.3865 16.9223 56.2259 16.6646 56.1278 16.3812C56.0328 16.1032 55.9858 15.7812 55.9858 15.4142C55.9858 15.0002 56.0628 14.6342 56.2158 14.3142C56.3663 13.9989 56.5915 13.725 56.8717 13.5162C57.1557 13.3032 57.4917 13.1432 57.8717 13.0362C58.2517 12.9292 58.6878 12.8762 59.1488 12.8762C59.7488 12.8762 60.3108 12.9712 60.8608 13.1602C61.4108 13.3492 61.8928 13.5982 62.3068 13.9052L61.5217 15.2992C61.1437 15.0272 60.7587 14.8262 60.3687 14.6962C59.9787 14.5662 59.5688 14.5012 59.1088 14.5012C58.6488 14.5012 58.3338 14.5812 58.1328 14.7412C58.0376 14.8121 57.9606 14.9045 57.9081 15.0109C57.8556 15.1173 57.8291 15.2346 57.8307 15.3532C57.8297 15.4665 57.8539 15.5785 57.9018 15.6812C57.9488 15.7812 58.0378 15.8852 58.1678 15.9812C58.3303 16.1082 58.5056 16.2182 58.6908 16.3092C58.9715 16.4491 59.2585 16.5763 59.5508 16.6902L60.9168 17.2672C61.272 17.4282 61.6034 17.6371 61.9018 17.8882C62.1595 18.1077 62.3628 18.3839 62.4958 18.6952C62.6258 19.0022 62.6908 19.3752 62.6908 19.8132H62.6938ZM71.1918 17.6662C71.1918 18.4362 71.0858 19.1242 70.8718 19.7332C70.6578 20.3422 70.3718 20.8572 69.9848 21.2762C69.6166 21.6887 69.1627 22.0157 68.6548 22.2342C68.1548 22.4542 67.5908 22.5622 66.9868 22.5622C66.3868 22.5622 65.8517 22.4472 65.3547 22.2162C64.8575 21.9844 64.4159 21.6485 64.0597 21.2312C63.6927 20.8062 63.4067 20.2972 63.1997 19.7052C62.9927 19.1132 62.8998 18.4512 62.8998 17.7182C62.8998 16.9612 63.0058 16.2812 63.2198 15.6782C63.4338 15.0752 63.7258 14.5632 64.0978 14.1432C64.4571 13.7285 64.9061 13.4009 65.4107 13.1852C65.9237 12.9672 66.4608 12.8572 67.0508 12.8572C67.6192 12.8525 68.1821 12.9705 68.7007 13.2032C69.204 13.4299 69.6543 13.7593 70.0228 14.1702C70.3958 14.5842 70.6847 15.0902 70.8927 15.6872C71.1007 16.2842 71.1928 16.9442 71.1928 17.6652L71.1918 17.6662ZM69.3468 17.7192C69.3468 16.7612 69.1467 16.0012 68.7167 15.4392C68.2867 14.8772 67.7148 14.5962 66.9698 14.5962C66.6472 14.585 66.3271 14.6566 66.04 14.8041C65.7529 14.9517 65.5084 15.1704 65.3298 15.4392C64.9348 16.0022 64.7358 16.7432 64.7358 17.6662C64.7358 18.6962 64.9488 19.4782 65.3758 20.0162C65.572 20.2752 65.8273 20.4836 66.1204 20.6239C66.4135 20.7643 66.7359 20.8326 67.0607 20.8232C67.4037 20.8232 67.7168 20.7402 68.0008 20.5752C68.2872 20.4072 68.5349 20.1806 68.7277 19.9102C68.9384 19.6117 69.0945 19.2782 69.1887 18.9252C69.2947 18.5472 69.3488 18.1452 69.3488 17.7192H69.3468ZM77.0818 14.9872C76.8843 14.8823 76.6761 14.7992 76.4608 14.7392C76.2478 14.6792 75.9878 14.6392 75.6808 14.6392C75.1008 14.6392 74.6508 14.8392 74.3328 15.2422C74.0148 15.6452 73.8527 16.2422 73.8527 17.0342V22.3562H72.0258V13.0422H73.8527V13.9292C74.0817 13.6074 74.3822 13.3431 74.7307 13.1572C75.114 12.9476 75.545 12.8408 75.9818 12.8472C76.3598 12.8472 76.6818 12.8802 76.9118 12.9452C77.1424 13.0056 77.3612 13.1047 77.5588 13.2382L77.0788 14.9782L77.0818 14.9872Z" fill="#EF6639"/>
<path d="M80.1482 11.7775V15.0245H83.7141V16.8515H80.1482V22.3685H78.2852V9.94955H86.2852V11.7765L80.1482 11.7775ZM86.5882 22.3675V10.3935L88.4152 9.43555V22.3695L86.5882 22.3675ZM97.7482 17.6675C97.7482 18.4375 97.6412 19.1255 97.4282 19.7345C97.2152 20.3435 96.9182 20.8585 96.5412 21.2775C96.1727 21.6902 95.7184 22.0172 95.2102 22.2355C94.7002 22.4555 94.1462 22.5635 93.5422 22.5635C92.9522 22.5635 92.4072 22.4485 91.9102 22.2175C91.4132 21.9865 90.9822 21.6575 90.6152 21.2325C90.2482 20.8075 89.9621 20.2985 89.7551 19.7065C89.5481 19.1145 89.4552 18.4525 89.4552 17.7195C89.4552 16.9625 89.5612 16.2825 89.7752 15.6795C89.9892 15.0765 90.2812 14.5645 90.6532 14.1445C91.0252 13.7245 91.4532 13.4045 91.9662 13.1865C92.4792 12.9685 93.0162 12.8585 93.6062 12.8585C94.1962 12.8585 94.7461 12.9735 95.2561 13.2045C95.7594 13.4312 96.2097 13.7606 96.5782 14.1715C96.9512 14.5855 97.2402 15.0915 97.4482 15.6885C97.6562 16.2855 97.7482 16.9465 97.7482 17.6675ZM95.9032 17.7205C95.9032 16.7625 95.7032 16.0025 95.2732 15.4405C94.8432 14.8785 94.2712 14.5975 93.5262 14.5975C92.8282 14.5975 92.2812 14.8775 91.8862 15.4405C91.4912 16.0035 91.2922 16.7445 91.2922 17.6675C91.2922 18.6975 91.5052 19.4795 91.9322 20.0175C92.1284 20.2765 92.3838 20.4849 92.6768 20.6253C92.9699 20.7656 93.2923 20.834 93.6171 20.8245C93.9471 20.8281 94.2719 20.7424 94.5572 20.5765C94.8436 20.4085 95.0913 20.1819 95.2841 19.9115C95.4841 19.6335 95.6392 19.3055 95.7442 18.9265C95.8492 18.5475 95.9032 18.1465 95.9032 17.7205ZM106.76 22.3685H105.2L103.94 17.6685L103.665 16.5785L103.461 15.6825L103.257 16.5875L102.982 17.6875L101.74 22.3715H100.18L97.6252 13.0575H99.4252L100.525 17.5815L100.791 18.6995L100.986 19.6225L101.216 18.6995L101.5 17.5815L102.742 13.0575H104.215L105.475 17.5995L105.75 18.7095L105.972 19.6235L106.176 18.6935L106.433 17.5835L107.533 13.0595H109.333L106.76 22.3685Z" fill="#A6A7A9"/>
</svg>
